ISO-10303-21;
HEADER;
/* Generated by software containing ST-Developer
 * from STEP Tools, Inc. (www.steptools.com) 
 */

FILE_DESCRIPTION(
/* description */ (''),
/* implementation_level */ '2;1');

FILE_NAME(
/* name */ 'Base_Tampa_Funil.step',
/* time_stamp */ '2026-06-22T01:02:34-03:00',
/* author */ (''),
/* organization */ (''),
/* preprocessor_version */ 'ST-DEVELOPER v20.1',
/* originating_system */ 'Autodesk Translation Framework v15.8.0.0',
/* authorisation */ '');

FILE_SCHEMA (('AUTOMOTIVE_DESIGN { 1 0 10303 214 3 1 1 }'));
ENDSEC;

DATA;
#10=MECHANICAL_DESIGN_GEOMETRIC_PRESENTATION_REPRESENTATION('',(#13),#541);
#11=SHAPE_REPRESENTATION_RELATIONSHIP('SRR','None',#548,#12);
#12=ADVANCED_BREP_SHAPE_REPRESENTATION('',(#14),#540);
#13=STYLED_ITEM('',(#558),#14);
#14=MANIFOLD_SOLID_BREP('Corpo1',#187);
#15=FACE_BOUND('',#42,.T.);
#16=FACE_BOUND('',#44,.T.);
#17=PLANE('',#201);
#18=PLANE('',#202);
#19=PLANE('',#203);
#20=PLANE('',#204);
#21=PLANE('',#205);
#22=PLANE('',#206);
#23=FACE_OUTER_BOUND('',#33,.T.);
#24=FACE_OUTER_BOUND('',#34,.T.);
#25=FACE_OUTER_BOUND('',#35,.T.);
#26=FACE_OUTER_BOUND('',#36,.T.);
#27=FACE_OUTER_BOUND('',#37,.T.);
#28=FACE_OUTER_BOUND('',#38,.T.);
#29=FACE_OUTER_BOUND('',#39,.T.);
#30=FACE_OUTER_BOUND('',#40,.T.);
#31=FACE_OUTER_BOUND('',#41,.T.);
#32=FACE_OUTER_BOUND('',#43,.T.);
#33=EDGE_LOOP('',(#125,#126,#127,#128));
#34=EDGE_LOOP('',(#129,#130,#131,#132));
#35=EDGE_LOOP('',(#133,#134,#135,#136));
#36=EDGE_LOOP('',(#137,#138,#139,#140));
#37=EDGE_LOOP('',(#141,#142,#143,#144));
#38=EDGE_LOOP('',(#145,#146,#147,#148));
#39=EDGE_LOOP('',(#149,#150,#151,#152));
#40=EDGE_LOOP('',(#153,#154,#155,#156));
#41=EDGE_LOOP('',(#157,#158,#159,#160));
#42=EDGE_LOOP('',(#161,#162,#163,#164));
#43=EDGE_LOOP('',(#165,#166,#167,#168));
#44=EDGE_LOOP('',(#169,#170,#171,#172));
#45=LINE('',#289,#61);
#46=LINE('',#303,#62);
#47=LINE('',#377,#63);
#48=LINE('',#440,#64);
#49=LINE('',#515,#65);
#50=LINE('',#517,#66);
#51=LINE('',#519,#67);
#52=LINE('',#520,#68);
#53=LINE('',#523,#69);
#54=LINE('',#525,#70);
#55=LINE('',#526,#71);
#56=LINE('',#529,#72);
#57=LINE('',#531,#73);
#58=LINE('',#532,#74);
#59=LINE('',#534,#75);
#60=LINE('',#535,#76);
#61=VECTOR('',#209,10.);
#62=VECTOR('',#210,10.);
#63=VECTOR('',#211,10.);
#64=VECTOR('',#212,10.);
#65=VECTOR('',#215,10.);
#66=VECTOR('',#216,10.);
#67=VECTOR('',#217,10.);
#68=VECTOR('',#218,10.);
#69=VECTOR('',#221,10.);
#70=VECTOR('',#222,10.);
#71=VECTOR('',#223,10.);
#72=VECTOR('',#226,10.);
#73=VECTOR('',#227,10.);
#74=VECTOR('',#228,10.);
#75=VECTOR('',#231,10.);
#76=VECTOR('',#232,10.);
#77=B_SPLINE_CURVE_WITH_KNOTS('',3,(#272,#273,#274,#275,#276,#277,#278,
#279,#280,#281,#282,#283,#284,#285,#286,#287),.UNSPECIFIED.,.F.,.F.,(4,
3,3,3,3,4),(0.09198472118218,0.3888850853765,5.30115899629746,8.33260246894721,
10.3296639337473,10.6266865404286),.UNSPECIFIED.);
#78=B_SPLINE_CURVE_WITH_KNOTS('',3,(#291,#292,#293,#294,#295,#296,#297,
#298,#299,#300,#301,#302),.UNSPECIFIED.,.F.,.F.,(4,2,2,2,2,4),(0.09198472118218,
0.3888850853765,5.30115899629746,8.33260246894721,10.3296639337473,10.6266865404286),
 .UNSPECIFIED.);
#79=B_SPLINE_CURVE_WITH_KNOTS('',3,(#343,#344,#345,#346,#347,#348,#349,
#350,#351,#352,#353,#354,#355,#356,#357,#358,#359,#360,#361),
 .UNSPECIFIED.,.F.,.F.,(4,3,3,3,3,3,4),(0.157415860541897,0.45435233023604,
4.69224636301461,7.55241582987598,10.0605573711666,17.4059284613503,17.7019601543359),
 .UNSPECIFIED.);
#80=B_SPLINE_CURVE_WITH_KNOTS('',3,(#363,#364,#365,#366,#367,#368,#369,
#370,#371,#372,#373,#374,#375,#376),.UNSPECIFIED.,.F.,.F.,(4,2,2,2,2,2,
4),(0.157415860541897,0.45435233023604,4.69224636301461,7.55241582987598,
10.0605573711666,17.4059284613503,17.7019601543359),.UNSPECIFIED.);
#81=B_SPLINE_CURVE_WITH_KNOTS('',3,(#411,#412,#413,#414,#415,#416,#417,
#418,#419,#420,#421,#422,#423,#424,#425,#426),.UNSPECIFIED.,.F.,.F.,(4,
3,3,3,3,4),(0.0919847211821815,0.388885085376502,5.30115899615063,8.33260246893027,
10.3296639337473,10.6266865404286),.UNSPECIFIED.);
#82=B_SPLINE_CURVE_WITH_KNOTS('',3,(#428,#429,#430,#431,#432,#433,#434,
#435,#436,#437,#438,#439),.UNSPECIFIED.,.F.,.F.,(4,2,2,2,2,4),(0.0919847211821815,
0.388885085376502,5.30115899615063,8.33260246893027,10.3296639337473,10.6266865404286),
 .UNSPECIFIED.);
#83=B_SPLINE_CURVE_WITH_KNOTS('',3,(#479,#480,#481,#482,#483,#484,#485,
#486,#487,#488,#489,#490,#491,#492),.UNSPECIFIED.,.F.,.F.,(4,2,2,2,2,2,
4),(0.157416670448428,0.454352330234106,4.69224636301281,7.55241582987482,
10.0605573711651,17.4059284613489,17.7019607508989),.UNSPECIFIED.);
#84=B_SPLINE_CURVE_WITH_KNOTS('',3,(#493,#494,#495,#496,#497,#498,#499,
#500,#501,#502,#503,#504,#505,#506,#507,#508,#509,#510,#511),
 .UNSPECIFIED.,.F.,.F.,(4,3,3,3,3,3,4),(0.157416670448428,0.454352330234106,
4.69224636301281,7.55241582987482,10.0605573711651,17.4059284613489,17.7019607508989),
 .UNSPECIFIED.);
#85=VERTEX_POINT('',#270);
#86=VERTEX_POINT('',#271);
#87=VERTEX_POINT('',#288);
#88=VERTEX_POINT('',#290);
#89=VERTEX_POINT('',#342);
#90=VERTEX_POINT('',#362);
#91=VERTEX_POINT('',#410);
#92=VERTEX_POINT('',#427);
#93=VERTEX_POINT('',#513);
#94=VERTEX_POINT('',#514);
#95=VERTEX_POINT('',#516);
#96=VERTEX_POINT('',#518);
#97=VERTEX_POINT('',#522);
#98=VERTEX_POINT('',#524);
#99=VERTEX_POINT('',#528);
#100=VERTEX_POINT('',#530);
#101=EDGE_CURVE('',#85,#86,#77,.T.);
#102=EDGE_CURVE('',#86,#87,#45,.T.);
#103=EDGE_CURVE('',#88,#87,#78,.T.);
#104=EDGE_CURVE('',#85,#88,#46,.T.);
#105=EDGE_CURVE('',#89,#85,#79,.T.);
#106=EDGE_CURVE('',#90,#88,#80,.T.);
#107=EDGE_CURVE('',#89,#90,#47,.T.);
#108=EDGE_CURVE('',#91,#89,#81,.T.);
#109=EDGE_CURVE('',#92,#90,#82,.T.);
#110=EDGE_CURVE('',#91,#92,#48,.T.);
#111=EDGE_CURVE('',#86,#91,#83,.T.);
#112=EDGE_CURVE('',#87,#92,#84,.T.);
#113=EDGE_CURVE('',#93,#94,#49,.T.);
#114=EDGE_CURVE('',#94,#95,#50,.T.);
#115=EDGE_CURVE('',#96,#95,#51,.T.);
#116=EDGE_CURVE('',#93,#96,#52,.T.);
#117=EDGE_CURVE('',#97,#93,#53,.T.);
#118=EDGE_CURVE('',#98,#96,#54,.T.);
#119=EDGE_CURVE('',#97,#98,#55,.T.);
#120=EDGE_CURVE('',#99,#97,#56,.T.);
#121=EDGE_CURVE('',#100,#98,#57,.T.);
#122=EDGE_CURVE('',#99,#100,#58,.T.);
#123=EDGE_CURVE('',#94,#99,#59,.T.);
#124=EDGE_CURVE('',#95,#100,#60,.T.);
#125=ORIENTED_EDGE('',*,*,#101,.T.);
#126=ORIENTED_EDGE('',*,*,#102,.T.);
#127=ORIENTED_EDGE('',*,*,#103,.F.);
#128=ORIENTED_EDGE('',*,*,#104,.F.);
#129=ORIENTED_EDGE('',*,*,#105,.T.);
#130=ORIENTED_EDGE('',*,*,#104,.T.);
#131=ORIENTED_EDGE('',*,*,#106,.F.);
#132=ORIENTED_EDGE('',*,*,#107,.F.);
#133=ORIENTED_EDGE('',*,*,#108,.T.);
#134=ORIENTED_EDGE('',*,*,#107,.T.);
#135=ORIENTED_EDGE('',*,*,#109,.F.);
#136=ORIENTED_EDGE('',*,*,#110,.F.);
#137=ORIENTED_EDGE('',*,*,#111,.T.);
#138=ORIENTED_EDGE('',*,*,#110,.T.);
#139=ORIENTED_EDGE('',*,*,#112,.F.);
#140=ORIENTED_EDGE('',*,*,#102,.F.);
#141=ORIENTED_EDGE('',*,*,#113,.T.);
#142=ORIENTED_EDGE('',*,*,#114,.T.);
#143=ORIENTED_EDGE('',*,*,#115,.F.);
#144=ORIENTED_EDGE('',*,*,#116,.F.);
#145=ORIENTED_EDGE('',*,*,#117,.T.);
#146=ORIENTED_EDGE('',*,*,#116,.T.);
#147=ORIENTED_EDGE('',*,*,#118,.F.);
#148=ORIENTED_EDGE('',*,*,#119,.F.);
#149=ORIENTED_EDGE('',*,*,#120,.T.);
#150=ORIENTED_EDGE('',*,*,#119,.T.);
#151=ORIENTED_EDGE('',*,*,#121,.F.);
#152=ORIENTED_EDGE('',*,*,#122,.F.);
#153=ORIENTED_EDGE('',*,*,#123,.T.);
#154=ORIENTED_EDGE('',*,*,#122,.T.);
#155=ORIENTED_EDGE('',*,*,#124,.F.);
#156=ORIENTED_EDGE('',*,*,#114,.F.);
#157=ORIENTED_EDGE('',*,*,#124,.T.);
#158=ORIENTED_EDGE('',*,*,#121,.T.);
#159=ORIENTED_EDGE('',*,*,#118,.T.);
#160=ORIENTED_EDGE('',*,*,#115,.T.);
#161=ORIENTED_EDGE('',*,*,#112,.T.);
#162=ORIENTED_EDGE('',*,*,#109,.T.);
#163=ORIENTED_EDGE('',*,*,#106,.T.);
#164=ORIENTED_EDGE('',*,*,#103,.T.);
#165=ORIENTED_EDGE('',*,*,#123,.F.);
#166=ORIENTED_EDGE('',*,*,#113,.F.);
#167=ORIENTED_EDGE('',*,*,#117,.F.);
#168=ORIENTED_EDGE('',*,*,#120,.F.);
#169=ORIENTED_EDGE('',*,*,#111,.F.);
#170=ORIENTED_EDGE('',*,*,#101,.F.);
#171=ORIENTED_EDGE('',*,*,#105,.F.);
#172=ORIENTED_EDGE('',*,*,#108,.F.);
#173=B_SPLINE_SURFACE_WITH_KNOTS('',3,1,((#238,#239),(#240,#241),(#242,
#243),(#244,#245),(#246,#247),(#248,#249),(#250,#251),(#252,#253),(#254,
#255),(#256,#257),(#258,#259),(#260,#261),(#262,#263),(#264,#265),(#266,
#267),(#268,#269)),.UNSPECIFIED.,.F.,.F.,.F.,(4,3,3,3,3,4),(2,2),(0.09198472118218,
0.3888850853765,5.30115899629746,8.33260246894721,10.3296639337473,10.6266865404286),
(0.,0.5),.UNSPECIFIED.);
#174=B_SPLINE_SURFACE_WITH_KNOTS('',3,1,((#304,#305),(#306,#307),(#308,
#309),(#310,#311),(#312,#313),(#314,#315),(#316,#317),(#318,#319),(#320,
#321),(#322,#323),(#324,#325),(#326,#327),(#328,#329),(#330,#331),(#332,
#333),(#334,#335),(#336,#337),(#338,#339),(#340,#341)),.UNSPECIFIED.,.F.,
 .F.,.F.,(4,3,3,3,3,3,4),(2,2),(0.157415860541897,0.45435233023604,4.69224636301461,
7.55241582987598,10.0605573711666,17.4059284613503,17.7019601543359),(0.,
0.5),.UNSPECIFIED.);
#175=B_SPLINE_SURFACE_WITH_KNOTS('',3,1,((#378,#379),(#380,#381),(#382,
#383),(#384,#385),(#386,#387),(#388,#389),(#390,#391),(#392,#393),(#394,
#395),(#396,#397),(#398,#399),(#400,#401),(#402,#403),(#404,#405),(#406,
#407),(#408,#409)),.UNSPECIFIED.,.F.,.F.,.F.,(4,3,3,3,3,4),(2,2),(0.0919847211821815,
0.388885085376502,5.30115899615063,8.33260246893027,10.3296639337473,10.6266865404286),
(0.,0.5),.UNSPECIFIED.);
#176=B_SPLINE_SURFACE_WITH_KNOTS('',3,1,((#441,#442),(#443,#444),(#445,
#446),(#447,#448),(#449,#450),(#451,#452),(#453,#454),(#455,#456),(#457,
#458),(#459,#460),(#461,#462),(#463,#464),(#465,#466),(#467,#468),(#469,
#470),(#471,#472),(#473,#474),(#475,#476),(#477,#478)),.UNSPECIFIED.,.F.,
 .F.,.F.,(4,3,3,3,3,3,4),(2,2),(0.157416670448428,0.454352330234106,4.69224636301281,
7.55241582987482,10.0605573711651,17.4059284613489,17.7019607508989),(0.,
0.5),.UNSPECIFIED.);
#177=ADVANCED_FACE('',(#23),#173,.T.);
#178=ADVANCED_FACE('',(#24),#174,.T.);
#179=ADVANCED_FACE('',(#25),#175,.T.);
#180=ADVANCED_FACE('',(#26),#176,.T.);
#181=ADVANCED_FACE('',(#27),#17,.T.);
#182=ADVANCED_FACE('',(#28),#18,.T.);
#183=ADVANCED_FACE('',(#29),#19,.T.);
#184=ADVANCED_FACE('',(#30),#20,.T.);
#185=ADVANCED_FACE('',(#31,#15),#21,.T.);
#186=ADVANCED_FACE('',(#32,#16),#22,.F.);
#187=CLOSED_SHELL('',(#177,#178,#179,#180,#181,#182,#183,#184,#185,#186));
#188=DERIVED_UNIT_ELEMENT(#190,1.);
#189=DERIVED_UNIT_ELEMENT(#543,-3.);
#190=(
MASS_UNIT()
NAMED_UNIT(*)
SI_UNIT(.KILO.,.GRAM.)
);
#191=DERIVED_UNIT((#188,#189));
#192=MEASURE_REPRESENTATION_ITEM('density measure',
POSITIVE_RATIO_MEASURE(7850.),#191);
#193=PROPERTY_DEFINITION_REPRESENTATION(#198,#195);
#194=PROPERTY_DEFINITION_REPRESENTATION(#199,#196);
#195=REPRESENTATION('material name',(#197),#540);
#196=REPRESENTATION('density',(#192),#540);
#197=DESCRIPTIVE_REPRESENTATION_ITEM('A\X\E7o','A\X\E7o');
#198=PROPERTY_DEFINITION('material property','material name',#550);
#199=PROPERTY_DEFINITION('material property','density of part',#550);
#200=AXIS2_PLACEMENT_3D('',#237,#207,#208);
#201=AXIS2_PLACEMENT_3D('',#512,#213,#214);
#202=AXIS2_PLACEMENT_3D('',#521,#219,#220);
#203=AXIS2_PLACEMENT_3D('',#527,#224,#225);
#204=AXIS2_PLACEMENT_3D('',#533,#229,#230);
#205=AXIS2_PLACEMENT_3D('',#536,#233,#234);
#206=AXIS2_PLACEMENT_3D('',#537,#235,#236);
#207=DIRECTION('axis',(0.,0.,1.));
#208=DIRECTION('refdir',(1.,0.,0.));
#209=DIRECTION('',(-0.351229048119499,0.936289568326475,-3.06015602600597E-7));
#210=DIRECTION('',(-0.351229048119499,0.936289568326475,-3.06015602600597E-7));
#211=DIRECTION('',(-0.351229048119499,0.936289568326475,-3.06015602600597E-7));
#212=DIRECTION('',(-0.351229048119499,0.936289568326475,-3.06015602600597E-7));
#213=DIRECTION('center_axis',(-0.0060520174901221,-0.0022699583600478,0.999979109968475));
#214=DIRECTION('ref_axis',(0.936270008513233,0.351221712785624,0.00646371615740119));
#215=DIRECTION('',(0.936270008513233,0.351221712785624,0.00646371615740119));
#216=DIRECTION('',(-0.351229048119499,0.936289568326475,-3.06015602600597E-7));
#217=DIRECTION('',(0.936270008513233,0.351221712785624,0.00646371615740119));
#218=DIRECTION('',(-0.351229048119499,0.936289568326475,-3.06015602600597E-7));
#219=DIRECTION('center_axis',(-0.936270008513233,-0.351221712785624,-0.00646371615740113));
#220=DIRECTION('ref_axis',(-0.00605201749012221,-0.00226995836004733,0.999979109968475));
#221=DIRECTION('',(-0.00605201749012221,-0.00226995836004733,0.999979109968475));
#222=DIRECTION('',(-0.00605201749012221,-0.00226995836004733,0.999979109968475));
#223=DIRECTION('',(-0.351229048119499,0.936289568326475,-3.06015602600597E-7));
#224=DIRECTION('center_axis',(0.00605201749012195,0.00226995836004774,-0.999979109968475));
#225=DIRECTION('ref_axis',(-0.936270008513233,-0.351221712785624,-0.00646371615740102));
#226=DIRECTION('',(-0.936270008513233,-0.351221712785624,-0.00646371615740103));
#227=DIRECTION('',(-0.936270008513233,-0.351221712785624,-0.00646371615740102));
#228=DIRECTION('',(-0.351229048119499,0.936289568326475,-3.06015602600597E-7));
#229=DIRECTION('center_axis',(0.936270008513233,0.351221712785624,0.00646371615740111));
#230=DIRECTION('ref_axis',(0.00605201749012219,0.00226995836004732,-0.999979109968475));
#231=DIRECTION('',(0.00605201749012219,0.00226995836004732,-0.999979109968475));
#232=DIRECTION('',(0.00605201749012219,0.00226995836004732,-0.999979109968475));
#233=DIRECTION('center_axis',(-0.3512290481195,0.936289568326475,-3.06015603077126E-7));
#234=DIRECTION('ref_axis',(-1.07844722934779E-7,2.8638298745044E-7,0.999999999999953));
#235=DIRECTION('center_axis',(-0.3512290481195,0.936289568326475,-3.06015603077126E-7));
#236=DIRECTION('ref_axis',(-1.07844722934779E-7,2.8638298745044E-7,0.999999999999953));
#237=CARTESIAN_POINT('',(0.,0.,0.));
#238=CARTESIAN_POINT('Ctrl Pts',(-91.3059101957294,93.3340398099897,-86.5893410072283));
#239=CARTESIAN_POINT('Ctrl Pts',(-93.0620554363267,98.0154876516225,-86.5893425373064));
#240=CARTESIAN_POINT('Ctrl Pts',(-90.3816446249484,93.6807583190602,-86.58951807282));
#241=CARTESIAN_POINT('Ctrl Pts',(-92.1377898655457,98.362206160692,-86.5895196028981));
#242=CARTESIAN_POINT('Ctrl Pts',(-89.4569611356137,94.0276336014139,-86.5895265602015));
#243=CARTESIAN_POINT('Ctrl Pts',(-91.2131063762111,98.7090814430467,-86.5895280902795));
#244=CARTESIAN_POINT('Ctrl Pts',(-88.5317206071161,94.3747178451811,-86.5893644559594));
#245=CARTESIAN_POINT('Ctrl Pts',(-90.2878658477134,99.0561656868139,-86.5893659860374));
#246=CARTESIAN_POINT('Ctrl Pts',(-73.2234372313125,100.117293743248,-86.5866824099417));
#247=CARTESIAN_POINT('Ctrl Pts',(-74.97958247191,104.798741584881,-86.5866839400197));
#248=CARTESIAN_POINT('Ctrl Pts',(-58.0804808722378,105.797850753567,-86.5374055116385));
#249=CARTESIAN_POINT('Ctrl Pts',(-59.8366261128352,110.4792985952,-86.5374070417165));
#250=CARTESIAN_POINT('Ctrl Pts',(-42.8029202027988,111.528901715269,-86.4385284223414));
#251=CARTESIAN_POINT('Ctrl Pts',(-44.5590654433964,116.210349556902,-86.4385299524195));
#252=CARTESIAN_POINT('Ctrl Pts',(-33.3748910641105,115.065625714037,-86.3775097755029));
#253=CARTESIAN_POINT('Ctrl Pts',(-35.131036304708,119.747073555669,-86.3775113055809));
#254=CARTESIAN_POINT('Ctrl Pts',(-23.9849828245181,118.588049476845,-86.2981218189398));
#255=CARTESIAN_POINT('Ctrl Pts',(-25.7411280651157,123.269497318478,-86.2981233490177));
#256=CARTESIAN_POINT('Ctrl Pts',(-14.5849910599671,122.114255864935,-86.2002825518392));
#257=CARTESIAN_POINT('Ctrl Pts',(-16.3411363005646,126.795703706567,-86.2002840819172));
#258=CARTESIAN_POINT('Ctrl Pts',(-8.39244236434048,124.437258407493,-86.1358277692139));
#259=CARTESIAN_POINT('Ctrl Pts',(-10.148587604938,129.118706249125,-86.1358292992919));
#260=CARTESIAN_POINT('Ctrl Pts',(-2.19396160336988,126.762486240427,-86.0633379703147));
#261=CARTESIAN_POINT('Ctrl Pts',(-3.95010684396734,131.44393408206,-86.0633395003927));
#262=CARTESIAN_POINT('Ctrl Pts',(4.02732092772329,129.096267673588,-85.9827270843339));
#263=CARTESIAN_POINT('Ctrl Pts',(2.27117568712572,133.777715515221,-85.9827286144119));
#264=CARTESIAN_POINT('Ctrl Pts',(4.95261120388975,129.443370582998,-85.970737841187));
#265=CARTESIAN_POINT('Ctrl Pts',(3.19646596329218,134.124818424631,-85.970739371265));
#266=CARTESIAN_POINT('Ctrl Pts',(5.87740145194008,129.790285917583,-85.9585820827014));
#267=CARTESIAN_POINT('Ctrl Pts',(4.12125621134255,134.471733759216,-85.9585836127795));
#268=CARTESIAN_POINT('Ctrl Pts',(6.80181601763017,130.137060323,-85.9462598586161));
#269=CARTESIAN_POINT('Ctrl Pts',(5.04567077703268,134.818508164633,-85.9462613886942));
#270=CARTESIAN_POINT('',(-91.3059103633047,93.3340402567046,-86.5893410072285));
#271=CARTESIAN_POINT('',(6.80181606033173,130.137060209168,-85.9462598586161));
#272=CARTESIAN_POINT('Ctrl Pts',(-91.3059103635424,93.3340402573375,-86.5893410072285));
#273=CARTESIAN_POINT('Ctrl Pts',(-90.3816447904406,93.6807587602215,-86.5895180728202));
#274=CARTESIAN_POINT('Ctrl Pts',(-89.4569612987844,94.0276340363865,-86.5895265602017));
#275=CARTESIAN_POINT('Ctrl Pts',(-88.5317207679635,94.3747182739607,-86.5893644559596));
#276=CARTESIAN_POINT('Ctrl Pts',(-73.2234373537232,100.117294069565,-86.5866824099418));
#277=CARTESIAN_POINT('Ctrl Pts',(-58.0804809566269,105.797850978527,-86.5374055116386));
#278=CARTESIAN_POINT('Ctrl Pts',(-42.8029202488279,111.528901837971,-86.4385284223414));
#279=CARTESIAN_POINT('Ctrl Pts',(-33.374891086467,115.065625773634,-86.3775097755029));
#280=CARTESIAN_POINT('Ctrl Pts',(-23.9849828232978,118.588049473592,-86.2981218189398));
#281=CARTESIAN_POINT('Ctrl Pts',(-14.5849910351441,122.114255798763,-86.2002825518392));
#282=CARTESIAN_POINT('Ctrl Pts',(-8.3924423239684,124.437258299871,-86.1358277692138));
#283=CARTESIAN_POINT('Ctrl Pts',(-2.193961547434,126.762486091316,-86.0633379703147));
#284=CARTESIAN_POINT('Ctrl Pts',(4.0273209992807,129.096267482834,-85.9827270843339));
#285=CARTESIAN_POINT('Ctrl Pts',(4.95261127777045,129.443370386051,-85.9707378411869));
#286=CARTESIAN_POINT('Ctrl Pts',(5.87740152814295,129.790285714445,-85.9585820827014));
#287=CARTESIAN_POINT('Ctrl Pts',(6.80181609615413,130.137060113674,-85.9462598586161));
#288=CARTESIAN_POINT('',(5.04567081643057,134.818508059608,-85.9462613886941));
#289=CARTESIAN_POINT('',(6.8018160246266,130.13706030435,-85.9462598586161));
#290=CARTESIAN_POINT('',(-93.0620554399141,98.0154876611851,-86.5893425373064));
#291=CARTESIAN_POINT('Ctrl Pts',(-93.0620554363267,98.0154876516225,-86.5893425373064));
#292=CARTESIAN_POINT('Ctrl Pts',(-92.1377898655457,98.362206160692,-86.5895196028981));
#293=CARTESIAN_POINT('Ctrl Pts',(-91.2131063762111,98.7090814430467,-86.5895280902795));
#294=CARTESIAN_POINT('Ctrl Pts',(-74.97958247191,104.798741584881,-86.5866839400197));
#295=CARTESIAN_POINT('Ctrl Pts',(-59.8366261128352,110.4792985952,-86.5374070417165));
#296=CARTESIAN_POINT('Ctrl Pts',(-35.131036304708,119.747073555669,-86.3775113055809));
#297=CARTESIAN_POINT('Ctrl Pts',(-25.7411280651157,123.269497318478,-86.2981233490177));
#298=CARTESIAN_POINT('Ctrl Pts',(-10.148587604938,129.118706249125,-86.1358292992919));
#299=CARTESIAN_POINT('Ctrl Pts',(-3.95010684396734,131.44393408206,-86.0633395003927));
#300=CARTESIAN_POINT('Ctrl Pts',(3.19646596329218,134.124818424631,-85.970739371265));
#301=CARTESIAN_POINT('Ctrl Pts',(4.12125621134255,134.471733759216,-85.9585836127795));
#302=CARTESIAN_POINT('Ctrl Pts',(5.04567077703268,134.818508164633,-85.9462613886942));
#303=CARTESIAN_POINT('',(-91.3059101957294,93.3340398099897,-86.5893410072283));
#304=CARTESIAN_POINT('Ctrl Pts',(-92.3184111708694,92.9542781680867,86.1873982578222));
#305=CARTESIAN_POINT('Ctrl Pts',(-94.0745564114667,97.6357260097195,86.1873967277441));
#306=CARTESIAN_POINT('Ctrl Pts',(-92.3186229315409,92.9541984080718,85.2007108972483));
#307=CARTESIAN_POINT('Ctrl Pts',(-94.0747681721383,97.6356462497046,85.2007093671703));
#308=CARTESIAN_POINT('Ctrl Pts',(-92.3187231528853,92.954160489334,84.213037530477));
#309=CARTESIAN_POINT('Ctrl Pts',(-94.0748683934825,97.6356083309659,84.213036000399));
#310=CARTESIAN_POINT('Ctrl Pts',(-92.3187104314799,92.9541649382277,83.2240453583248));
#311=CARTESIAN_POINT('Ctrl Pts',(-94.0748556720772,97.6356127798596,83.2240438282468));
#312=CARTESIAN_POINT('Ctrl Pts',(-92.318528870861,92.9542284330881,69.1090933312269));
#313=CARTESIAN_POINT('Ctrl Pts',(-94.0746741114583,97.6356762747209,69.1090918011488));
#314=CARTESIAN_POINT('Ctrl Pts',(-92.2947493521831,92.9631442225275,55.0678405535077));
#315=CARTESIAN_POINT('Ctrl Pts',(-94.0508945927804,97.6445920641603,55.0678390234297));
#316=CARTESIAN_POINT('Ctrl Pts',(-92.2506986544402,92.9796643640391,41.1848849948729));
#317=CARTESIAN_POINT('Ctrl Pts',(-94.0068438950375,97.6611122056719,41.1848834647949));
#318=CARTESIAN_POINT('Ctrl Pts',(-92.2209686848603,92.9908138651768,31.8152298568546));
#319=CARTESIAN_POINT('Ctrl Pts',(-93.9771139254576,97.6722617068086,31.8152283267766));
#320=CARTESIAN_POINT('Ctrl Pts',(-92.1822174812443,93.0053475133505,22.5176560256597));
#321=CARTESIAN_POINT('Ctrl Pts',(-93.9383627218416,97.6867953549823,22.5176544955816));
#322=CARTESIAN_POINT('Ctrl Pts',(-92.1359294179235,93.0227084856403,13.3179856788852));
#323=CARTESIAN_POINT('Ctrl Pts',(-93.8920746585208,97.7041563272732,13.3179841488072));
#324=CARTESIAN_POINT('Ctrl Pts',(-92.0953384613991,93.037932679977,5.25060518613249));
#325=CARTESIAN_POINT('Ctrl Pts',(-93.8514837019964,97.7193805216088,5.25060365605447));
#326=CARTESIAN_POINT('Ctrl Pts',(-92.0493715587877,93.0551735874515,-2.68931317595462));
#327=CARTESIAN_POINT('Ctrl Pts',(-93.805516799385,97.7366214290844,-2.68931470603263));
#328=CARTESIAN_POINT('Ctrl Pts',(-91.9964245564718,93.0750328795725,-10.7847496754132));
#329=CARTESIAN_POINT('Ctrl Pts',(-93.7525697970702,97.7564807212053,-10.7847512054913));
#330=CARTESIAN_POINT('Ctrl Pts',(-91.8413633792143,93.1331930223777,-34.4931346475555));
#331=CARTESIAN_POINT('Ctrl Pts',(-93.5975086198126,97.8146408640104,-34.4931361776336));
#332=CARTESIAN_POINT('Ctrl Pts',(-91.6271759684599,93.2135328177609,-59.096145591983));
#333=CARTESIAN_POINT('Ctrl Pts',(-93.3833212090573,97.8949806593938,-59.096147122061));
#334=CARTESIAN_POINT('Ctrl Pts',(-91.340832133971,93.3209405796714,-83.6267628671252));
#335=CARTESIAN_POINT('Ctrl Pts',(-93.0969773745694,98.0023884213043,-83.6267643972032));
#336=CARTESIAN_POINT('Ctrl Pts',(-91.3292919613839,93.3252693060504,-84.6153909531381));
#337=CARTESIAN_POINT('Ctrl Pts',(-93.0854372019812,98.0067171476823,-84.6153924832161));
#338=CARTESIAN_POINT('Ctrl Pts',(-91.3176522066275,93.3296353889482,-85.6028153586786));
#339=CARTESIAN_POINT('Ctrl Pts',(-93.0737974472258,98.01108323058,-85.6028168887566));
#340=CARTESIAN_POINT('Ctrl Pts',(-91.3059102027529,93.3340398287144,-86.5893410072283));
#341=CARTESIAN_POINT('Ctrl Pts',(-93.0620554433512,98.0154876703471,-86.5893425373064));
#342=CARTESIAN_POINT('',(-92.3184113322703,92.9542785983421,86.187398257822));
#343=CARTESIAN_POINT('Ctrl Pts',(-92.3184113325091,92.9542785989782,86.187398257822));
#344=CARTESIAN_POINT('Ctrl Pts',(-92.318623093191,92.9541988389906,85.2007108972482));
#345=CARTESIAN_POINT('Ctrl Pts',(-92.318723314545,92.9541609202788,84.2130375304769));
#346=CARTESIAN_POINT('Ctrl Pts',(-92.318710593149,92.9541653691981,83.2240453583246));
#347=CARTESIAN_POINT('Ctrl Pts',(-92.3185290326681,92.9542288644258,69.1090933312267));
#348=CARTESIAN_POINT('Ctrl Pts',(-92.2947495140682,92.9631446540731,55.0678405535076));
#349=CARTESIAN_POINT('Ctrl Pts',(-92.2506988163506,92.9796647956517,41.1848849948727));
#350=CARTESIAN_POINT('Ctrl Pts',(-92.2209688467876,92.9908142968347,31.8152298568545));
#351=CARTESIAN_POINT('Ctrl Pts',(-92.1822176431652,93.0053479449916,22.5176560256595));
#352=CARTESIAN_POINT('Ctrl Pts',(-92.1359295798181,93.022708917212,13.3179856788851));
#353=CARTESIAN_POINT('Ctrl Pts',(-92.095338623271,93.0379331114872,5.25060518613235));
#354=CARTESIAN_POINT('Ctrl Pts',(-92.0493717206221,93.055174018862,-2.68931317595476));
#355=CARTESIAN_POINT('Ctrl Pts',(-91.9964247182526,93.0750333108398,-10.7847496754133));
#356=CARTESIAN_POINT('Ctrl Pts',(-91.8413635408376,93.1331934532254,-34.4931346475557));
#357=CARTESIAN_POINT('Ctrl Pts',(-91.6271761297862,93.2135332478169,-59.0961455919831));
#358=CARTESIAN_POINT('Ctrl Pts',(-91.3408322948187,93.3209410084508,-83.6267628671254));
#359=CARTESIAN_POINT('Ctrl Pts',(-91.3292921222119,93.3252697347779,-84.6153909531382));
#360=CARTESIAN_POINT('Ctrl Pts',(-91.317652367436,93.3296358176238,-85.6028153586788));
#361=CARTESIAN_POINT('Ctrl Pts',(-91.3059103635418,93.3340402573377,-86.5893410072285));
#362=CARTESIAN_POINT('',(-94.074556408044,97.6357260005951,86.1873967277441));
#363=CARTESIAN_POINT('Ctrl Pts',(-94.0745564114667,97.6357260097195,86.1873967277441));
#364=CARTESIAN_POINT('Ctrl Pts',(-94.0747681721383,97.6356462497046,85.2007093671703));
#365=CARTESIAN_POINT('Ctrl Pts',(-94.0748683934825,97.6356083309659,84.213036000399));
#366=CARTESIAN_POINT('Ctrl Pts',(-94.0746741114583,97.6356762747209,69.1090918011488));
#367=CARTESIAN_POINT('Ctrl Pts',(-94.0508945927804,97.6445920641603,55.0678390234297));
#368=CARTESIAN_POINT('Ctrl Pts',(-93.9771139254576,97.6722617068086,31.8152283267766));
#369=CARTESIAN_POINT('Ctrl Pts',(-93.9383627218416,97.6867953549823,22.5176544955816));
#370=CARTESIAN_POINT('Ctrl Pts',(-93.8514837019964,97.7193805216088,5.25060365605447));
#371=CARTESIAN_POINT('Ctrl Pts',(-93.805516799385,97.7366214290844,-2.68931470603263));
#372=CARTESIAN_POINT('Ctrl Pts',(-93.5975086198126,97.8146408640104,-34.4931361776336));
#373=CARTESIAN_POINT('Ctrl Pts',(-93.3833212090573,97.8949806593938,-59.096147122061));
#374=CARTESIAN_POINT('Ctrl Pts',(-93.0854372019812,98.0067171476823,-84.6153924832161));
#375=CARTESIAN_POINT('Ctrl Pts',(-93.0737974472258,98.01108323058,-85.6028168887566));
#376=CARTESIAN_POINT('Ctrl Pts',(-93.0620554433512,98.0154876703471,-86.5893425373064));
#377=CARTESIAN_POINT('',(-92.3184111638729,92.9542781494364,86.1873982578222));
#378=CARTESIAN_POINT('Ctrl Pts',(5.78931504948645,129.757298662447,86.8304794064344));
#379=CARTESIAN_POINT('Ctrl Pts',(4.03316980888896,134.438746504079,86.8304778763564));
#380=CARTESIAN_POINT('Ctrl Pts',(4.86504947870568,129.410580153376,86.8306564720261));
#381=CARTESIAN_POINT('Ctrl Pts',(3.10890423810815,134.092027995009,86.830654941948));
#382=CARTESIAN_POINT('Ctrl Pts',(3.9403659893711,129.063704871022,86.8306649594076));
#383=CARTESIAN_POINT('Ctrl Pts',(2.18422074877363,133.745152712654,86.8306634293295));
#384=CARTESIAN_POINT('Ctrl Pts',(3.01512546087334,128.716620627255,86.8305028551654));
#385=CARTESIAN_POINT('Ctrl Pts',(1.25898022027595,133.398068468887,86.8305013250874));
#386=CARTESIAN_POINT('Ctrl Pts',(-12.2931579144726,122.974044729359,86.8278208091478));
#387=CARTESIAN_POINT('Ctrl Pts',(-14.0493031550701,127.655492570992,86.8278192790698));
#388=CARTESIAN_POINT('Ctrl Pts',(-27.4361142730996,117.293487719209,86.7785439108474));
#389=CARTESIAN_POINT('Ctrl Pts',(-29.192259513697,121.974935560842,86.7785423807695));
#390=CARTESIAN_POINT('Ctrl Pts',(-42.7136749420738,111.562436757682,86.6796668215563));
#391=CARTESIAN_POINT('Ctrl Pts',(-44.4698201826713,116.243884599313,86.6796652914782));
#392=CARTESIAN_POINT('Ctrl Pts',(-52.1417040811611,108.025712758764,86.618648174717));
#393=CARTESIAN_POINT('Ctrl Pts',(-53.8978493217586,112.707160600396,86.618646644639));
#394=CARTESIAN_POINT('Ctrl Pts',(-61.5316123211641,104.503288995802,86.5392602181513));
#395=CARTESIAN_POINT('Ctrl Pts',(-63.2877575617616,109.184736837434,86.5392586880733));
#396=CARTESIAN_POINT('Ctrl Pts',(-70.9316040861177,100.977082607561,86.4414209510468));
#397=CARTESIAN_POINT('Ctrl Pts',(-72.6877493267152,105.658530449192,86.4414194209688));
#398=CARTESIAN_POINT('Ctrl Pts',(-77.1241527817969,98.6540800649831,86.3769661684211));
#399=CARTESIAN_POINT('Ctrl Pts',(-78.8802980223944,103.335527906615,86.3769646383431));
#400=CARTESIAN_POINT('Ctrl Pts',(-83.3226335428199,96.3288522320287,86.3044763695213));
#401=CARTESIAN_POINT('Ctrl Pts',(-85.0787787834175,101.010300073662,86.3044748394433));
#402=CARTESIAN_POINT('Ctrl Pts',(-89.5439160739661,93.9950707988477,86.2238654835399));
#403=CARTESIAN_POINT('Ctrl Pts',(-91.3000613145634,98.6765186404806,86.2238639534618));
#404=CARTESIAN_POINT('Ctrl Pts',(-90.469206350132,93.647967889438,86.211876240393));
#405=CARTESIAN_POINT('Ctrl Pts',(-92.2253515907303,98.3294157310709,86.2118747103149));
#406=CARTESIAN_POINT('Ctrl Pts',(-91.3939965981832,93.3010525548533,86.1997204819075));
#407=CARTESIAN_POINT('Ctrl Pts',(-93.1501418387805,97.9825003964861,86.1997189518294));
#408=CARTESIAN_POINT('Ctrl Pts',(-92.3184111638729,92.9542781494364,86.1873982578222));
#409=CARTESIAN_POINT('Ctrl Pts',(-94.0745564044702,97.6357259910682,86.1873967277441));
#410=CARTESIAN_POINT('',(5.78931509167472,129.757298549983,86.8304794064344));
#411=CARTESIAN_POINT('Ctrl Pts',(5.78931512718739,129.757298455315,86.8304794064345));
#412=CARTESIAN_POINT('Ctrl Pts',(4.86504955408581,129.410579952431,86.8306564720262));
#413=CARTESIAN_POINT('Ctrl Pts',(3.94036606242967,129.063704676266,86.8306649594077));
#414=CARTESIAN_POINT('Ctrl Pts',(3.01512553160883,128.716620438692,86.8305028551655));
#415=CARTESIAN_POINT('Ctrl Pts',(-12.2931578821741,122.97404464326,86.8278208091478));
#416=CARTESIAN_POINT('Ctrl Pts',(-27.4361142788225,117.293487734465,86.7785439108474));
#417=CARTESIAN_POINT('Ctrl Pts',(-42.7136749861566,111.562436875195,86.6796668215562));
#418=CARTESIAN_POINT('Ctrl Pts',(-52.1417041489164,108.025712939383,86.6186481747169));
#419=CARTESIAN_POINT('Ctrl Pts',(-61.5316124124966,104.503289239271,86.5392602181512));
#420=CARTESIAN_POINT('Ctrl Pts',(-70.9316042010528,100.977082913949,86.4414209510468));
#421=CARTESIAN_POINT('Ctrl Pts',(-77.1241529122808,98.6540804128208,86.376966168421));
#422=CARTESIAN_POINT('Ctrl Pts',(-83.322633688868,96.3288526213567,86.3044763695212));
#423=CARTESIAN_POINT('Ctrl Pts',(-89.5439162356351,93.9950712298185,86.2238654835398));
#424=CARTESIAN_POINT('Ctrl Pts',(-90.4692065141248,93.6479683266024,86.2118762403929));
#425=CARTESIAN_POINT('Ctrl Pts',(-91.3939967644981,93.3010529982076,86.1997204819073));
#426=CARTESIAN_POINT('Ctrl Pts',(-92.318411332509,92.9542785989782,86.187398257822));
#427=CARTESIAN_POINT('',(4.03316984787256,134.438746400158,86.8304778763564));
#428=CARTESIAN_POINT('Ctrl Pts',(4.03316980888896,134.438746504079,86.8304778763564));
#429=CARTESIAN_POINT('Ctrl Pts',(3.10890423810815,134.092027995009,86.830654941948));
#430=CARTESIAN_POINT('Ctrl Pts',(2.18422074877363,133.745152712654,86.8306634293295));
#431=CARTESIAN_POINT('Ctrl Pts',(-14.0493031550701,127.655492570992,86.8278192790698));
#432=CARTESIAN_POINT('Ctrl Pts',(-29.192259513697,121.974935560842,86.7785423807695));
#433=CARTESIAN_POINT('Ctrl Pts',(-53.8978493217586,112.707160600396,86.618646644639));
#434=CARTESIAN_POINT('Ctrl Pts',(-63.2877575617616,109.184736837434,86.5392586880733));
#435=CARTESIAN_POINT('Ctrl Pts',(-78.8802980223944,103.335527906615,86.3769646383431));
#436=CARTESIAN_POINT('Ctrl Pts',(-85.0787787834175,101.010300073662,86.3044748394433));
#437=CARTESIAN_POINT('Ctrl Pts',(-92.2253515907303,98.3294157310709,86.2118747103149));
#438=CARTESIAN_POINT('Ctrl Pts',(-93.1501418387805,97.9825003964861,86.1997189518294));
#439=CARTESIAN_POINT('Ctrl Pts',(-94.0745564044702,97.6357259910682,86.1873967277441));
#440=CARTESIAN_POINT('',(5.78931504948649,129.757298662447,86.8304794064344));
#441=CARTESIAN_POINT('Ctrl Pts',(6.8018160246266,130.13706030435,-85.9462598586161));
#442=CARTESIAN_POINT('Ctrl Pts',(5.04567078402907,134.818508145982,-85.9462613886942));
#443=CARTESIAN_POINT('Ctrl Pts',(6.80202778587002,130.13714006458,-84.9595698332134));
#444=CARTESIAN_POINT('Ctrl Pts',(5.04588254527256,134.818587906212,-84.9595713632914));
#445=CARTESIAN_POINT('Ctrl Pts',(6.80212800660808,130.137177983091,-83.9718964337474));
#446=CARTESIAN_POINT('Ctrl Pts',(5.04598276601062,134.818625824722,-83.9718979638255));
#447=CARTESIAN_POINT('Ctrl Pts',(6.80211528523706,130.13717353421,-82.9829069591189));
#448=CARTESIAN_POINT('Ctrl Pts',(5.04597004463957,134.818621375841,-82.9829084891969));
#449=CARTESIAN_POINT('Ctrl Pts',(6.80193372461794,130.137110039348,-68.8679549320208));
#450=CARTESIAN_POINT('Ctrl Pts',(5.04578848402041,134.818557880981,-68.8679564620988));
#451=CARTESIAN_POINT('Ctrl Pts',(6.77815420594069,130.128194249909,-54.8267021543018));
#452=CARTESIAN_POINT('Ctrl Pts',(5.02200896534326,134.809642091541,-54.8267036843798));
#453=CARTESIAN_POINT('Ctrl Pts',(6.73410350819779,130.111674108397,-40.943746595667));
#454=CARTESIAN_POINT('Ctrl Pts',(4.97795826760026,134.79312195003,-40.943748125745));
#455=CARTESIAN_POINT('Ctrl Pts',(6.70437353861761,130.100524607261,-31.5740914576469));
#456=CARTESIAN_POINT('Ctrl Pts',(4.94822829802015,134.781972448892,-31.5740929877248));
#457=CARTESIAN_POINT('Ctrl Pts',(6.66562233500152,130.085990959087,-22.2765176264502));
#458=CARTESIAN_POINT('Ctrl Pts',(4.90947709440405,134.767438800719,-22.2765191565282));
#459=CARTESIAN_POINT('Ctrl Pts',(6.61933427168051,130.068629986796,-13.076847279674));
#460=CARTESIAN_POINT('Ctrl Pts',(4.86318903108298,134.750077828429,-13.076848809752));
#461=CARTESIAN_POINT('Ctrl Pts',(6.57874331515629,130.053405792459,-5.00946678692269));
#462=CARTESIAN_POINT('Ctrl Pts',(4.82259807455875,134.734853634092,-5.0094683170007));
#463=CARTESIAN_POINT('Ctrl Pts',(6.53277641254512,130.036164884985,2.93045157516306));
#464=CARTESIAN_POINT('Ctrl Pts',(4.77663117194766,134.717612726617,2.93045004508505));
#465=CARTESIAN_POINT('Ctrl Pts',(6.47982941022949,130.016305592864,11.0258880746203));
#466=CARTESIAN_POINT('Ctrl Pts',(4.72368416963203,134.697753434496,11.0258865445423));
#467=CARTESIAN_POINT('Ctrl Pts',(6.32476823297203,129.958145450059,34.7342730467623));
#468=CARTESIAN_POINT('Ctrl Pts',(4.5686229923745,134.639593291691,34.7342715166843));
#469=CARTESIAN_POINT('Ctrl Pts',(6.11058082221707,129.877805654675,59.3372839911893));
#470=CARTESIAN_POINT('Ctrl Pts',(4.35443558161957,134.559253496308,59.3372824611112));
#471=CARTESIAN_POINT('Ctrl Pts',(5.82423698772882,129.770397892765,83.8679012663311));
#472=CARTESIAN_POINT('Ctrl Pts',(4.06809174713128,134.451845734398,83.8678997362531));
#473=CARTESIAN_POINT('Ctrl Pts',(5.81269679188555,129.766069157663,84.8565313446316));
#474=CARTESIAN_POINT('Ctrl Pts',(4.05655155128802,134.447516999296,84.8565298145536));
#475=CARTESIAN_POINT('Ctrl Pts',(5.80105703700049,129.761703074718,85.8439557225981));
#476=CARTESIAN_POINT('Ctrl Pts',(4.04491179640306,134.443150916349,85.8439541925201));
#477=CARTESIAN_POINT('Ctrl Pts',(5.78931505651074,129.757298643722,86.8304794064344));
#478=CARTESIAN_POINT('Ctrl Pts',(4.03316981591324,134.438746485354,86.8304778763564));
#479=CARTESIAN_POINT('Ctrl Pts',(6.8018160246266,130.13706030435,-85.9462598586161));
#480=CARTESIAN_POINT('Ctrl Pts',(6.80202778587002,130.13714006458,-84.9595698332134));
#481=CARTESIAN_POINT('Ctrl Pts',(6.80212800660808,130.137177983091,-83.9718964337474));
#482=CARTESIAN_POINT('Ctrl Pts',(6.80193372461794,130.137110039348,-68.8679549320208));
#483=CARTESIAN_POINT('Ctrl Pts',(6.77815420594069,130.128194249909,-54.8267021543018));
#484=CARTESIAN_POINT('Ctrl Pts',(6.70437353861761,130.100524607261,-31.5740914576469));
#485=CARTESIAN_POINT('Ctrl Pts',(6.66562233500152,130.085990959087,-22.2765176264502));
#486=CARTESIAN_POINT('Ctrl Pts',(6.57874331515629,130.053405792459,-5.00946678692268));
#487=CARTESIAN_POINT('Ctrl Pts',(6.53277641254512,130.036164884985,2.93045157516306));
#488=CARTESIAN_POINT('Ctrl Pts',(6.32476823297203,129.958145450059,34.7342730467623));
#489=CARTESIAN_POINT('Ctrl Pts',(6.11058082221707,129.877805654675,59.3372839911893));
#490=CARTESIAN_POINT('Ctrl Pts',(5.81269679188555,129.766069157663,84.8565313446316));
#491=CARTESIAN_POINT('Ctrl Pts',(5.80105703700049,129.761703074718,85.8439557225981));
#492=CARTESIAN_POINT('Ctrl Pts',(5.78931505651074,129.757298643722,86.8304794064344));
#493=CARTESIAN_POINT('Ctrl Pts',(5.0456708555571,134.818507955306,-85.9462613886941));
#494=CARTESIAN_POINT('Ctrl Pts',(5.04588261681061,134.818587715509,-84.9595713632913));
#495=CARTESIAN_POINT('Ctrl Pts',(5.04598283755843,134.818625633994,-83.9718979638254));
#496=CARTESIAN_POINT('Ctrl Pts',(5.04597011619708,134.818621185086,-82.9829084891968));
#497=CARTESIAN_POINT('Ctrl Pts',(5.04578855571584,134.818557689859,-68.8679564620988));
#498=CARTESIAN_POINT('Ctrl Pts',(5.02200903711625,134.809641900212,-54.8267036843798));
#499=CARTESIAN_POINT('Ctrl Pts',(4.97795833939865,134.793121758633,-40.9437481257449));
#500=CARTESIAN_POINT('Ctrl Pts',(4.94822836983563,134.78197225745,-31.5740929877248));
#501=CARTESIAN_POINT('Ctrl Pts',(4.90947716621324,134.767438609293,-22.2765191565281));
#502=CARTESIAN_POINT('Ctrl Pts',(4.86318910286606,134.750077637073,-13.076848809752));
#503=CARTESIAN_POINT('Ctrl Pts',(4.82259814631888,134.734853442797,-5.00946831700064));
#504=CARTESIAN_POINT('Ctrl Pts',(4.77663124366995,134.717612535423,2.93045004508511));
#505=CARTESIAN_POINT('Ctrl Pts',(4.72368424130067,134.697753243445,11.0258865445423));
#506=CARTESIAN_POINT('Ctrl Pts',(4.56862306388604,134.63959310106,34.7342715166844));
#507=CARTESIAN_POINT('Ctrl Pts',(4.35443565283411,134.559253306468,59.3372824611113));
#508=CARTESIAN_POINT('Ctrl Pts',(4.06809181786695,134.451845545834,83.8678997362531));
#509=CARTESIAN_POINT('Ctrl Pts',(4.05655162200439,134.447516810784,84.8565298145536));
#510=CARTESIAN_POINT('Ctrl Pts',(4.04491186709976,134.443150727889,85.8439541925202));
#511=CARTESIAN_POINT('Ctrl Pts',(4.03316988659004,134.438746296947,86.8304778763565));
#512=CARTESIAN_POINT('Origin',(-94.797829660516,92.0241789007122,89.7631847081086));
#513=CARTESIAN_POINT('',(-94.797829660516,92.0241789007122,89.7631847081086));
#514=CARTESIAN_POINT('',(8.19187127593956,130.658567307131,90.4741934854227));
#515=CARTESIAN_POINT('',(-94.797829660516,92.0241789007122,89.7631847081086));
#516=CARTESIAN_POINT('',(6.43572603534203,135.340015148764,90.4741919553448));
#517=CARTESIAN_POINT('',(8.19187127593956,130.658567307131,90.4741934854227));
#518=CARTESIAN_POINT('',(-96.5539749011134,96.7056267423451,89.7631831780306));
#519=CARTESIAN_POINT('',(-96.5539749011134,96.7056267423451,89.7631831780306));
#520=CARTESIAN_POINT('',(-94.797829660516,92.0241789007122,89.7631847081086));
#521=CARTESIAN_POINT('Origin',(-93.7084665122945,92.4327714055208,-90.2330550862169));
#522=CARTESIAN_POINT('',(-93.7084665122945,92.4327714055208,-90.2330550862169));
#523=CARTESIAN_POINT('',(-93.7084665122945,92.4327714055208,-90.2330550862169));
#524=CARTESIAN_POINT('',(-95.4646117528918,97.1142192471537,-90.2330566162949));
#525=CARTESIAN_POINT('',(-95.4646117528918,97.1142192471537,-90.2330566162949));
#526=CARTESIAN_POINT('',(-93.7084665122945,92.4327714055208,-90.2330550862169));
#527=CARTESIAN_POINT('Origin',(9.28123442416158,131.06715981194,-89.5220463089027));
#528=CARTESIAN_POINT('',(9.28123442416158,131.06715981194,-89.5220463089027));
#529=CARTESIAN_POINT('',(9.28123442416158,131.06715981194,-89.5220463089027));
#530=CARTESIAN_POINT('',(7.52508918356405,135.748607653572,-89.5220478389807));
#531=CARTESIAN_POINT('',(7.52508918356405,135.748607653572,-89.5220478389807));
#532=CARTESIAN_POINT('',(9.28123442416158,131.06715981194,-89.5220463089027));
#533=CARTESIAN_POINT('Origin',(8.19187127593956,130.658567307131,90.4741934854227));
#534=CARTESIAN_POINT('',(8.19187127593956,130.658567307131,90.4741934854227));
#535=CARTESIAN_POINT('',(6.43572603534203,135.340015148764,90.4741919553447));
#536=CARTESIAN_POINT('Origin',(-44.5144428587747,116.227117197958,0.120567669524934));
#537=CARTESIAN_POINT('Origin',(-42.7582976181773,111.545669356326,0.120569199602948));
#538=UNCERTAINTY_MEASURE_WITH_UNIT(LENGTH_MEASURE(0.01),#542,
'DISTANCE_ACCURACY_VALUE',
'Maximum model space distance between geometric entities at asserted c
onnectivities');
#539=UNCERTAINTY_MEASURE_WITH_UNIT(LENGTH_MEASURE(0.01),#542,
'DISTANCE_ACCURACY_VALUE',
'Maximum model space distance between geometric entities at asserted c
onnectivities');
#540=(
GEOMETRIC_REPRESENTATION_CONTEXT(3)
GLOBAL_UNCERTAINTY_ASSIGNED_CONTEXT((#538))
GLOBAL_UNIT_ASSIGNED_CONTEXT((#542,#544,#545))
REPRESENTATION_CONTEXT('','3D')
);
#541=(
GEOMETRIC_REPRESENTATION_CONTEXT(3)
GLOBAL_UNCERTAINTY_ASSIGNED_CONTEXT((#539))
GLOBAL_UNIT_ASSIGNED_CONTEXT((#542,#544,#545))
REPRESENTATION_CONTEXT('','3D')
);
#542=(
LENGTH_UNIT()
NAMED_UNIT(*)
SI_UNIT(.MILLI.,.METRE.)
);
#543=(
LENGTH_UNIT()
NAMED_UNIT(*)
SI_UNIT($,.METRE.)
);
#544=(
NAMED_UNIT(*)
PLANE_ANGLE_UNIT()
SI_UNIT($,.RADIAN.)
);
#545=(
NAMED_UNIT(*)
SI_UNIT($,.STERADIAN.)
SOLID_ANGLE_UNIT()
);
#546=SHAPE_DEFINITION_REPRESENTATION(#547,#548);
#547=PRODUCT_DEFINITION_SHAPE('',$,#550);
#548=SHAPE_REPRESENTATION('',(#200),#540);
#549=PRODUCT_DEFINITION_CONTEXT('part definition',#554,'design');
#550=PRODUCT_DEFINITION('2026-06-22-01-02-34-759','Base_Tampa_Funil',#551,
#549);
#551=PRODUCT_DEFINITION_FORMATION('',$,#556);
#552=PRODUCT_RELATED_PRODUCT_CATEGORY('Base_Tampa_Funil',
'Base_Tampa_Funil',(#556));
#553=APPLICATION_PROTOCOL_DEFINITION('international standard',
'automotive_design',2009,#554);
#554=APPLICATION_CONTEXT(
'Core Data for Automotive Mechanical Design Process');
#555=PRODUCT_CONTEXT('part definition',#554,'mechanical');
#556=PRODUCT('2026-06-22-01-02-34-759','Base_Tampa_Funil',$,(#555));
#557=PRESENTATION_STYLE_ASSIGNMENT((#559));
#558=PRESENTATION_STYLE_ASSIGNMENT((#560));
#559=SURFACE_STYLE_USAGE(.BOTH.,#561);
#560=SURFACE_STYLE_USAGE(.BOTH.,#562);
#561=SURFACE_SIDE_STYLE('',(#563));
#562=SURFACE_SIDE_STYLE('',(#564));
#563=SURFACE_STYLE_FILL_AREA(#565);
#564=SURFACE_STYLE_FILL_AREA(#566);
#565=FILL_AREA_STYLE('A\X\E7o - Acetinado',(#567));
#566=FILL_AREA_STYLE('Opaque(160,160,160)',(#568));
#567=FILL_AREA_STYLE_COLOUR('A\X\E7o - Acetinado',#569);
#568=FILL_AREA_STYLE_COLOUR('Opaque(160,160,160)',#570);
#569=COLOUR_RGB('A\X\E7o - Acetinado',0.627450980392157,0.627450980392157,
0.627450980392157);
#570=COLOUR_RGB('Opaque(160,160,160)',0.627450980392157,0.627450980392157,
0.627450980392157);
ENDSEC;
END-ISO-10303-21;
