ISO-10303-21;
HEADER;
/* Generated by software containing ST-Developer
 * from STEP Tools, Inc. (www.steptools.com) 
 */

FILE_DESCRIPTION(
/* description */ (''),
/* implementation_level */ '2;1');

FILE_NAME(
/* name */ 'Caixa_Eletronica.step',
/* time_stamp */ '2026-05-29T16:10:09-03:00',
/* author */ (''),
/* organization */ (''),
/* preprocessor_version */ 'ST-DEVELOPER v20.1',
/* originating_system */ 'Autodesk Translation Framework v15.8.0.0',
/* authorisation */ '');

FILE_SCHEMA (('AUTOMOTIVE_DESIGN { 1 0 10303 214 3 1 1 }'));
ENDSEC;

DATA;
#10=MECHANICAL_DESIGN_GEOMETRIC_PRESENTATION_REPRESENTATION('',(#13,#14),
#1368);
#11=SHAPE_REPRESENTATION_RELATIONSHIP('SRR','None',#1375,#12);
#12=ADVANCED_BREP_SHAPE_REPRESENTATION('',(#15,#16),#1367);
#13=STYLED_ITEM('',(#1384),#15);
#14=STYLED_ITEM('',(#1384),#16);
#15=MANIFOLD_SOLID_BREP('Corpo1',#831);
#16=MANIFOLD_SOLID_BREP('Corpo2',#832);
#17=CIRCLE('',#865,1.25);
#18=CIRCLE('',#866,1.25);
#19=CIRCLE('',#868,2.5);
#20=CIRCLE('',#869,2.5);
#21=CIRCLE('',#872,2.5);
#22=CIRCLE('',#873,2.5);
#23=CIRCLE('',#874,2.5);
#24=CIRCLE('',#876,1.25);
#25=CIRCLE('',#877,1.25);
#26=CIRCLE('',#879,2.5);
#27=CIRCLE('',#883,1.25);
#28=CIRCLE('',#884,1.25);
#29=CIRCLE('',#886,2.5);
#30=CIRCLE('',#890,1.25);
#31=CIRCLE('',#891,1.25);
#32=CIRCLE('',#893,2.5);
#33=CYLINDRICAL_SURFACE('',#864,1.25);
#34=CYLINDRICAL_SURFACE('',#867,2.5);
#35=CYLINDRICAL_SURFACE('',#875,1.25);
#36=CYLINDRICAL_SURFACE('',#878,2.5);
#37=CYLINDRICAL_SURFACE('',#882,1.25);
#38=CYLINDRICAL_SURFACE('',#885,2.5);
#39=CYLINDRICAL_SURFACE('',#889,1.25);
#40=CYLINDRICAL_SURFACE('',#892,2.5);
#41=FACE_BOUND('',#107,.T.);
#42=FACE_BOUND('',#114,.T.);
#43=FACE_BOUND('',#124,.T.);
#44=FACE_BOUND('',#126,.T.);
#45=FACE_BOUND('',#127,.T.);
#46=FACE_BOUND('',#128,.T.);
#47=FACE_BOUND('',#129,.T.);
#48=FACE_BOUND('',#133,.T.);
#49=FACE_BOUND('',#138,.T.);
#50=FACE_BOUND('',#143,.T.);
#51=FACE_BOUND('',#147,.T.);
#52=FACE_OUTER_BOUND('',#101,.T.);
#53=FACE_OUTER_BOUND('',#102,.T.);
#54=FACE_OUTER_BOUND('',#103,.T.);
#55=FACE_OUTER_BOUND('',#104,.T.);
#56=FACE_OUTER_BOUND('',#105,.T.);
#57=FACE_OUTER_BOUND('',#106,.T.);
#58=FACE_OUTER_BOUND('',#108,.T.);
#59=FACE_OUTER_BOUND('',#109,.T.);
#60=FACE_OUTER_BOUND('',#110,.T.);
#61=FACE_OUTER_BOUND('',#111,.T.);
#62=FACE_OUTER_BOUND('',#112,.T.);
#63=FACE_OUTER_BOUND('',#113,.T.);
#64=FACE_OUTER_BOUND('',#115,.T.);
#65=FACE_OUTER_BOUND('',#116,.T.);
#66=FACE_OUTER_BOUND('',#117,.T.);
#67=FACE_OUTER_BOUND('',#118,.T.);
#68=FACE_OUTER_BOUND('',#119,.T.);
#69=FACE_OUTER_BOUND('',#120,.T.);
#70=FACE_OUTER_BOUND('',#121,.T.);
#71=FACE_OUTER_BOUND('',#122,.T.);
#72=FACE_OUTER_BOUND('',#123,.T.);
#73=FACE_OUTER_BOUND('',#125,.T.);
#74=FACE_OUTER_BOUND('',#130,.T.);
#75=FACE_OUTER_BOUND('',#131,.T.);
#76=FACE_OUTER_BOUND('',#132,.T.);
#77=FACE_OUTER_BOUND('',#134,.T.);
#78=FACE_OUTER_BOUND('',#135,.T.);
#79=FACE_OUTER_BOUND('',#136,.T.);
#80=FACE_OUTER_BOUND('',#137,.T.);
#81=FACE_OUTER_BOUND('',#139,.T.);
#82=FACE_OUTER_BOUND('',#140,.T.);
#83=FACE_OUTER_BOUND('',#141,.T.);
#84=FACE_OUTER_BOUND('',#142,.T.);
#85=FACE_OUTER_BOUND('',#144,.T.);
#86=FACE_OUTER_BOUND('',#145,.T.);
#87=FACE_OUTER_BOUND('',#146,.T.);
#88=FACE_OUTER_BOUND('',#148,.T.);
#89=FACE_OUTER_BOUND('',#149,.T.);
#90=FACE_OUTER_BOUND('',#150,.T.);
#91=FACE_OUTER_BOUND('',#151,.T.);
#92=FACE_OUTER_BOUND('',#152,.T.);
#93=FACE_OUTER_BOUND('',#153,.T.);
#94=FACE_OUTER_BOUND('',#154,.T.);
#95=FACE_OUTER_BOUND('',#155,.T.);
#96=FACE_OUTER_BOUND('',#156,.T.);
#97=FACE_OUTER_BOUND('',#157,.T.);
#98=FACE_OUTER_BOUND('',#158,.T.);
#99=FACE_OUTER_BOUND('',#159,.T.);
#100=FACE_OUTER_BOUND('',#160,.T.);
#101=EDGE_LOOP('',(#525,#526,#527,#528));
#102=EDGE_LOOP('',(#529,#530,#531,#532));
#103=EDGE_LOOP('',(#533,#534,#535,#536));
#104=EDGE_LOOP('',(#537,#538,#539,#540));
#105=EDGE_LOOP('',(#541,#542,#543,#544));
#106=EDGE_LOOP('',(#545,#546,#547,#548,#549,#550,#551,#552,#553,#554,#555,
#556));
#107=EDGE_LOOP('',(#557,#558,#559,#560));
#108=EDGE_LOOP('',(#561,#562,#563,#564));
#109=EDGE_LOOP('',(#565,#566,#567,#568));
#110=EDGE_LOOP('',(#569,#570,#571,#572));
#111=EDGE_LOOP('',(#573,#574,#575,#576));
#112=EDGE_LOOP('',(#577,#578,#579,#580,#581,#582,#583,#584));
#113=EDGE_LOOP('',(#585,#586,#587,#588));
#114=EDGE_LOOP('',(#589,#590,#591,#592));
#115=EDGE_LOOP('',(#593,#594,#595,#596));
#116=EDGE_LOOP('',(#597,#598,#599,#600));
#117=EDGE_LOOP('',(#601,#602,#603,#604));
#118=EDGE_LOOP('',(#605,#606,#607,#608));
#119=EDGE_LOOP('',(#609,#610,#611,#612,#613,#614,#615,#616));
#120=EDGE_LOOP('',(#617,#618,#619,#620,#621,#622,#623,#624));
#121=EDGE_LOOP('',(#625,#626,#627,#628));
#122=EDGE_LOOP('',(#629,#630,#631,#632));
#123=EDGE_LOOP('',(#633));
#124=EDGE_LOOP('',(#634));
#125=EDGE_LOOP('',(#635,#636,#637,#638));
#126=EDGE_LOOP('',(#639));
#127=EDGE_LOOP('',(#640));
#128=EDGE_LOOP('',(#641));
#129=EDGE_LOOP('',(#642));
#130=EDGE_LOOP('',(#643,#644,#645,#646));
#131=EDGE_LOOP('',(#647,#648,#649,#650));
#132=EDGE_LOOP('',(#651));
#133=EDGE_LOOP('',(#652));
#134=EDGE_LOOP('',(#653));
#135=EDGE_LOOP('',(#654,#655,#656,#657));
#136=EDGE_LOOP('',(#658,#659,#660,#661));
#137=EDGE_LOOP('',(#662));
#138=EDGE_LOOP('',(#663));
#139=EDGE_LOOP('',(#664));
#140=EDGE_LOOP('',(#665,#666,#667,#668));
#141=EDGE_LOOP('',(#669,#670,#671,#672));
#142=EDGE_LOOP('',(#673));
#143=EDGE_LOOP('',(#674));
#144=EDGE_LOOP('',(#675));
#145=EDGE_LOOP('',(#676,#677,#678,#679));
#146=EDGE_LOOP('',(#680,#681,#682,#683,#684,#685,#686,#687));
#147=EDGE_LOOP('',(#688,#689,#690,#691));
#148=EDGE_LOOP('',(#692,#693,#694,#695));
#149=EDGE_LOOP('',(#696,#697,#698,#699));
#150=EDGE_LOOP('',(#700));
#151=EDGE_LOOP('',(#701,#702,#703,#704));
#152=EDGE_LOOP('',(#705,#706,#707,#708));
#153=EDGE_LOOP('',(#709,#710,#711,#712));
#154=EDGE_LOOP('',(#713,#714,#715,#716));
#155=EDGE_LOOP('',(#717,#718,#719,#720));
#156=EDGE_LOOP('',(#721,#722,#723,#724));
#157=EDGE_LOOP('',(#725,#726,#727,#728));
#158=EDGE_LOOP('',(#729,#730,#731,#732));
#159=EDGE_LOOP('',(#733,#734,#735,#736));
#160=EDGE_LOOP('',(#737,#738,#739,#740));
#161=LINE('',#1139,#253);
#162=LINE('',#1141,#254);
#163=LINE('',#1143,#255);
#164=LINE('',#1144,#256);
#165=LINE('',#1147,#257);
#166=LINE('',#1149,#258);
#167=LINE('',#1150,#259);
#168=LINE('',#1153,#260);
#169=LINE('',#1155,#261);
#170=LINE('',#1156,#262);
#171=LINE('',#1158,#263);
#172=LINE('',#1159,#264);
#173=LINE('',#1163,#265);
#174=LINE('',#1165,#266);
#175=LINE('',#1167,#267);
#176=LINE('',#1168,#268);
#177=LINE('',#1171,#269);
#178=LINE('',#1173,#270);
#179=LINE('',#1175,#271);
#180=LINE('',#1177,#272);
#181=LINE('',#1179,#273);
#182=LINE('',#1181,#274);
#183=LINE('',#1183,#275);
#184=LINE('',#1185,#276);
#185=LINE('',#1187,#277);
#186=LINE('',#1189,#278);
#187=LINE('',#1190,#279);
#188=LINE('',#1193,#280);
#189=LINE('',#1195,#281);
#190=LINE('',#1196,#282);
#191=LINE('',#1199,#283);
#192=LINE('',#1201,#284);
#193=LINE('',#1202,#285);
#194=LINE('',#1205,#286);
#195=LINE('',#1207,#287);
#196=LINE('',#1208,#288);
#197=LINE('',#1212,#289);
#198=LINE('',#1214,#290);
#199=LINE('',#1216,#291);
#200=LINE('',#1217,#292);
#201=LINE('',#1219,#293);
#202=LINE('',#1220,#294);
#203=LINE('',#1222,#295);
#204=LINE('',#1225,#296);
#205=LINE('',#1226,#297);
#206=LINE('',#1227,#298);
#207=LINE('',#1230,#299);
#208=LINE('',#1233,#300);
#209=LINE('',#1234,#301);
#210=LINE('',#1237,#302);
#211=LINE('',#1238,#303);
#212=LINE('',#1242,#304);
#213=LINE('',#1243,#305);
#214=LINE('',#1245,#306);
#215=LINE('',#1247,#307);
#216=LINE('',#1248,#308);
#217=LINE('',#1251,#309);
#218=LINE('',#1253,#310);
#219=LINE('',#1254,#311);
#220=LINE('',#1259,#312);
#221=LINE('',#1265,#313);
#222=LINE('',#1271,#314);
#223=LINE('',#1273,#315);
#224=LINE('',#1275,#316);
#225=LINE('',#1276,#317);
#226=LINE('',#1287,#318);
#227=LINE('',#1292,#319);
#228=LINE('',#1299,#320);
#229=LINE('',#1304,#321);
#230=LINE('',#1311,#322);
#231=LINE('',#1316,#323);
#232=LINE('',#1320,#324);
#233=LINE('',#1321,#325);
#234=LINE('',#1323,#326);
#235=LINE('',#1325,#327);
#236=LINE('',#1330,#328);
#237=LINE('',#1331,#329);
#238=LINE('',#1334,#330);
#239=LINE('',#1335,#331);
#240=LINE('',#1337,#332);
#241=LINE('',#1342,#333);
#242=LINE('',#1344,#334);
#243=LINE('',#1346,#335);
#244=LINE('',#1347,#336);
#245=LINE('',#1350,#337);
#246=LINE('',#1352,#338);
#247=LINE('',#1353,#339);
#248=LINE('',#1356,#340);
#249=LINE('',#1358,#341);
#250=LINE('',#1359,#342);
#251=LINE('',#1361,#343);
#252=LINE('',#1362,#344);
#253=VECTOR('',#915,10.);
#254=VECTOR('',#916,10.);
#255=VECTOR('',#917,10.);
#256=VECTOR('',#918,10.);
#257=VECTOR('',#921,10.);
#258=VECTOR('',#922,10.);
#259=VECTOR('',#923,10.);
#260=VECTOR('',#926,10.);
#261=VECTOR('',#927,10.);
#262=VECTOR('',#928,10.);
#263=VECTOR('',#931,10.);
#264=VECTOR('',#932,10.);
#265=VECTOR('',#935,10.);
#266=VECTOR('',#936,10.);
#267=VECTOR('',#937,10.);
#268=VECTOR('',#938,10.);
#269=VECTOR('',#941,10.);
#270=VECTOR('',#942,10.);
#271=VECTOR('',#943,10.);
#272=VECTOR('',#944,10.);
#273=VECTOR('',#945,10.);
#274=VECTOR('',#946,10.);
#275=VECTOR('',#947,10.);
#276=VECTOR('',#948,10.);
#277=VECTOR('',#949,10.);
#278=VECTOR('',#950,10.);
#279=VECTOR('',#951,10.);
#280=VECTOR('',#954,10.);
#281=VECTOR('',#955,10.);
#282=VECTOR('',#956,10.);
#283=VECTOR('',#959,10.);
#284=VECTOR('',#960,10.);
#285=VECTOR('',#961,10.);
#286=VECTOR('',#964,10.);
#287=VECTOR('',#965,10.);
#288=VECTOR('',#966,10.);
#289=VECTOR('',#969,10.);
#290=VECTOR('',#970,10.);
#291=VECTOR('',#971,10.);
#292=VECTOR('',#972,10.);
#293=VECTOR('',#975,10.);
#294=VECTOR('',#976,10.);
#295=VECTOR('',#979,10.);
#296=VECTOR('',#980,10.);
#297=VECTOR('',#981,10.);
#298=VECTOR('',#982,10.);
#299=VECTOR('',#987,10.);
#300=VECTOR('',#990,10.);
#301=VECTOR('',#991,10.);
#302=VECTOR('',#994,10.);
#303=VECTOR('',#995,10.);
#304=VECTOR('',#998,10.);
#305=VECTOR('',#999,10.);
#306=VECTOR('',#1000,10.);
#307=VECTOR('',#1001,10.);
#308=VECTOR('',#1002,10.);
#309=VECTOR('',#1005,10.);
#310=VECTOR('',#1006,10.);
#311=VECTOR('',#1007,10.);
#312=VECTOR('',#1012,1.25);
#313=VECTOR('',#1019,2.5);
#314=VECTOR('',#1026,10.);
#315=VECTOR('',#1027,10.);
#316=VECTOR('',#1028,10.);
#317=VECTOR('',#1029,10.);
#318=VECTOR('',#1040,1.25);
#319=VECTOR('',#1047,2.5);
#320=VECTOR('',#1056,1.25);
#321=VECTOR('',#1063,2.5);
#322=VECTOR('',#1072,1.25);
#323=VECTOR('',#1079,2.5);
#324=VECTOR('',#1086,10.);
#325=VECTOR('',#1087,10.);
#326=VECTOR('',#1090,10.);
#327=VECTOR('',#1093,10.);
#328=VECTOR('',#1100,10.);
#329=VECTOR('',#1101,10.);
#330=VECTOR('',#1104,10.);
#331=VECTOR('',#1105,10.);
#332=VECTOR('',#1108,10.);
#333=VECTOR('',#1113,10.);
#334=VECTOR('',#1114,10.);
#335=VECTOR('',#1115,10.);
#336=VECTOR('',#1116,10.);
#337=VECTOR('',#1119,10.);
#338=VECTOR('',#1120,10.);
#339=VECTOR('',#1121,10.);
#340=VECTOR('',#1124,10.);
#341=VECTOR('',#1125,10.);
#342=VECTOR('',#1126,10.);
#343=VECTOR('',#1129,10.);
#344=VECTOR('',#1130,10.);
#345=VERTEX_POINT('',#1137);
#346=VERTEX_POINT('',#1138);
#347=VERTEX_POINT('',#1140);
#348=VERTEX_POINT('',#1142);
#349=VERTEX_POINT('',#1146);
#350=VERTEX_POINT('',#1148);
#351=VERTEX_POINT('',#1152);
#352=VERTEX_POINT('',#1154);
#353=VERTEX_POINT('',#1161);
#354=VERTEX_POINT('',#1162);
#355=VERTEX_POINT('',#1164);
#356=VERTEX_POINT('',#1166);
#357=VERTEX_POINT('',#1170);
#358=VERTEX_POINT('',#1172);
#359=VERTEX_POINT('',#1174);
#360=VERTEX_POINT('',#1176);
#361=VERTEX_POINT('',#1178);
#362=VERTEX_POINT('',#1180);
#363=VERTEX_POINT('',#1182);
#364=VERTEX_POINT('',#1184);
#365=VERTEX_POINT('',#1186);
#366=VERTEX_POINT('',#1188);
#367=VERTEX_POINT('',#1192);
#368=VERTEX_POINT('',#1194);
#369=VERTEX_POINT('',#1198);
#370=VERTEX_POINT('',#1200);
#371=VERTEX_POINT('',#1204);
#372=VERTEX_POINT('',#1206);
#373=VERTEX_POINT('',#1210);
#374=VERTEX_POINT('',#1211);
#375=VERTEX_POINT('',#1213);
#376=VERTEX_POINT('',#1215);
#377=VERTEX_POINT('',#1223);
#378=VERTEX_POINT('',#1224);
#379=VERTEX_POINT('',#1232);
#380=VERTEX_POINT('',#1236);
#381=VERTEX_POINT('',#1240);
#382=VERTEX_POINT('',#1241);
#383=VERTEX_POINT('',#1244);
#384=VERTEX_POINT('',#1246);
#385=VERTEX_POINT('',#1250);
#386=VERTEX_POINT('',#1252);
#387=VERTEX_POINT('',#1256);
#388=VERTEX_POINT('',#1258);
#389=VERTEX_POINT('',#1262);
#390=VERTEX_POINT('',#1264);
#391=VERTEX_POINT('',#1269);
#392=VERTEX_POINT('',#1270);
#393=VERTEX_POINT('',#1272);
#394=VERTEX_POINT('',#1274);
#395=VERTEX_POINT('',#1277);
#396=VERTEX_POINT('',#1279);
#397=VERTEX_POINT('',#1281);
#398=VERTEX_POINT('',#1284);
#399=VERTEX_POINT('',#1286);
#400=VERTEX_POINT('',#1290);
#401=VERTEX_POINT('',#1296);
#402=VERTEX_POINT('',#1298);
#403=VERTEX_POINT('',#1302);
#404=VERTEX_POINT('',#1308);
#405=VERTEX_POINT('',#1310);
#406=VERTEX_POINT('',#1314);
#407=VERTEX_POINT('',#1329);
#408=VERTEX_POINT('',#1333);
#409=VERTEX_POINT('',#1340);
#410=VERTEX_POINT('',#1341);
#411=VERTEX_POINT('',#1343);
#412=VERTEX_POINT('',#1345);
#413=VERTEX_POINT('',#1349);
#414=VERTEX_POINT('',#1351);
#415=VERTEX_POINT('',#1355);
#416=VERTEX_POINT('',#1357);
#417=EDGE_CURVE('',#345,#346,#161,.T.);
#418=EDGE_CURVE('',#347,#345,#162,.T.);
#419=EDGE_CURVE('',#348,#347,#163,.T.);
#420=EDGE_CURVE('',#348,#346,#164,.T.);
#421=EDGE_CURVE('',#346,#349,#165,.T.);
#422=EDGE_CURVE('',#350,#348,#166,.T.);
#423=EDGE_CURVE('',#350,#349,#167,.T.);
#424=EDGE_CURVE('',#349,#351,#168,.T.);
#425=EDGE_CURVE('',#352,#350,#169,.T.);
#426=EDGE_CURVE('',#352,#351,#170,.T.);
#427=EDGE_CURVE('',#351,#345,#171,.T.);
#428=EDGE_CURVE('',#347,#352,#172,.T.);
#429=EDGE_CURVE('',#353,#354,#173,.T.);
#430=EDGE_CURVE('',#355,#353,#174,.T.);
#431=EDGE_CURVE('',#356,#355,#175,.T.);
#432=EDGE_CURVE('',#356,#354,#176,.T.);
#433=EDGE_CURVE('',#357,#355,#177,.T.);
#434=EDGE_CURVE('',#353,#358,#178,.T.);
#435=EDGE_CURVE('',#359,#358,#179,.T.);
#436=EDGE_CURVE('',#360,#359,#180,.T.);
#437=EDGE_CURVE('',#361,#360,#181,.T.);
#438=EDGE_CURVE('',#361,#362,#182,.T.);
#439=EDGE_CURVE('',#362,#363,#183,.T.);
#440=EDGE_CURVE('',#364,#363,#184,.T.);
#441=EDGE_CURVE('',#365,#364,#185,.T.);
#442=EDGE_CURVE('',#365,#366,#186,.T.);
#443=EDGE_CURVE('',#366,#357,#187,.T.);
#444=EDGE_CURVE('',#358,#367,#188,.T.);
#445=EDGE_CURVE('',#368,#367,#189,.T.);
#446=EDGE_CURVE('',#368,#359,#190,.T.);
#447=EDGE_CURVE('',#354,#369,#191,.T.);
#448=EDGE_CURVE('',#370,#356,#192,.T.);
#449=EDGE_CURVE('',#369,#370,#193,.T.);
#450=EDGE_CURVE('',#367,#371,#194,.T.);
#451=EDGE_CURVE('',#371,#372,#195,.T.);
#452=EDGE_CURVE('',#372,#368,#196,.T.);
#453=EDGE_CURVE('',#373,#374,#197,.T.);
#454=EDGE_CURVE('',#374,#375,#198,.T.);
#455=EDGE_CURVE('',#375,#376,#199,.T.);
#456=EDGE_CURVE('',#376,#373,#200,.T.);
#457=EDGE_CURVE('',#371,#365,#201,.T.);
#458=EDGE_CURVE('',#369,#366,#202,.T.);
#459=EDGE_CURVE('',#357,#370,#203,.T.);
#460=EDGE_CURVE('',#377,#378,#204,.T.);
#461=EDGE_CURVE('',#374,#378,#205,.T.);
#462=EDGE_CURVE('',#377,#373,#206,.T.);
#463=EDGE_CURVE('',#364,#372,#207,.T.);
#464=EDGE_CURVE('',#379,#377,#208,.T.);
#465=EDGE_CURVE('',#376,#379,#209,.T.);
#466=EDGE_CURVE('',#378,#380,#210,.T.);
#467=EDGE_CURVE('',#380,#375,#211,.T.);
#468=EDGE_CURVE('',#381,#382,#212,.T.);
#469=EDGE_CURVE('',#382,#379,#213,.T.);
#470=EDGE_CURVE('',#380,#383,#214,.T.);
#471=EDGE_CURVE('',#383,#384,#215,.T.);
#472=EDGE_CURVE('',#384,#381,#216,.T.);
#473=EDGE_CURVE('',#363,#385,#217,.T.);
#474=EDGE_CURVE('',#385,#386,#218,.T.);
#475=EDGE_CURVE('',#386,#360,#219,.T.);
#476=EDGE_CURVE('',#387,#387,#17,.T.);
#477=EDGE_CURVE('',#387,#388,#220,.T.);
#478=EDGE_CURVE('',#388,#388,#18,.T.);
#479=EDGE_CURVE('',#389,#389,#19,.T.);
#480=EDGE_CURVE('',#389,#390,#221,.T.);
#481=EDGE_CURVE('',#390,#390,#20,.T.);
#482=EDGE_CURVE('',#391,#392,#222,.F.);
#483=EDGE_CURVE('',#392,#393,#223,.F.);
#484=EDGE_CURVE('',#393,#394,#224,.F.);
#485=EDGE_CURVE('',#394,#391,#225,.F.);
#486=EDGE_CURVE('',#395,#395,#21,.T.);
#487=EDGE_CURVE('',#396,#396,#22,.T.);
#488=EDGE_CURVE('',#397,#397,#23,.T.);
#489=EDGE_CURVE('',#398,#398,#24,.T.);
#490=EDGE_CURVE('',#398,#399,#226,.T.);
#491=EDGE_CURVE('',#399,#399,#25,.T.);
#492=EDGE_CURVE('',#400,#400,#26,.T.);
#493=EDGE_CURVE('',#400,#395,#227,.T.);
#494=EDGE_CURVE('',#401,#401,#27,.T.);
#495=EDGE_CURVE('',#401,#402,#228,.T.);
#496=EDGE_CURVE('',#402,#402,#28,.T.);
#497=EDGE_CURVE('',#403,#403,#29,.T.);
#498=EDGE_CURVE('',#403,#397,#229,.T.);
#499=EDGE_CURVE('',#404,#404,#30,.T.);
#500=EDGE_CURVE('',#404,#405,#230,.T.);
#501=EDGE_CURVE('',#405,#405,#31,.T.);
#502=EDGE_CURVE('',#406,#406,#32,.T.);
#503=EDGE_CURVE('',#406,#396,#231,.T.);
#504=EDGE_CURVE('',#394,#382,#232,.F.);
#505=EDGE_CURVE('',#391,#381,#233,.T.);
#506=EDGE_CURVE('',#393,#383,#234,.F.);
#507=EDGE_CURVE('',#392,#384,#235,.F.);
#508=EDGE_CURVE('',#362,#407,#236,.T.);
#509=EDGE_CURVE('',#407,#385,#237,.T.);
#510=EDGE_CURVE('',#408,#361,#238,.T.);
#511=EDGE_CURVE('',#408,#386,#239,.T.);
#512=EDGE_CURVE('',#407,#408,#240,.T.);
#513=EDGE_CURVE('',#409,#410,#241,.T.);
#514=EDGE_CURVE('',#409,#411,#242,.T.);
#515=EDGE_CURVE('',#412,#411,#243,.T.);
#516=EDGE_CURVE('',#410,#412,#244,.T.);
#517=EDGE_CURVE('',#410,#413,#245,.T.);
#518=EDGE_CURVE('',#414,#412,#246,.T.);
#519=EDGE_CURVE('',#413,#414,#247,.T.);
#520=EDGE_CURVE('',#413,#415,#248,.T.);
#521=EDGE_CURVE('',#416,#414,#249,.T.);
#522=EDGE_CURVE('',#415,#416,#250,.T.);
#523=EDGE_CURVE('',#409,#415,#251,.T.);
#524=EDGE_CURVE('',#411,#416,#252,.T.);
#525=ORIENTED_EDGE('',*,*,#417,.F.);
#526=ORIENTED_EDGE('',*,*,#418,.F.);
#527=ORIENTED_EDGE('',*,*,#419,.F.);
#528=ORIENTED_EDGE('',*,*,#420,.T.);
#529=ORIENTED_EDGE('',*,*,#421,.F.);
#530=ORIENTED_EDGE('',*,*,#420,.F.);
#531=ORIENTED_EDGE('',*,*,#422,.F.);
#532=ORIENTED_EDGE('',*,*,#423,.T.);
#533=ORIENTED_EDGE('',*,*,#424,.F.);
#534=ORIENTED_EDGE('',*,*,#423,.F.);
#535=ORIENTED_EDGE('',*,*,#425,.F.);
#536=ORIENTED_EDGE('',*,*,#426,.T.);
#537=ORIENTED_EDGE('',*,*,#427,.F.);
#538=ORIENTED_EDGE('',*,*,#426,.F.);
#539=ORIENTED_EDGE('',*,*,#428,.F.);
#540=ORIENTED_EDGE('',*,*,#418,.T.);
#541=ORIENTED_EDGE('',*,*,#429,.F.);
#542=ORIENTED_EDGE('',*,*,#430,.F.);
#543=ORIENTED_EDGE('',*,*,#431,.F.);
#544=ORIENTED_EDGE('',*,*,#432,.T.);
#545=ORIENTED_EDGE('',*,*,#433,.T.);
#546=ORIENTED_EDGE('',*,*,#430,.T.);
#547=ORIENTED_EDGE('',*,*,#434,.T.);
#548=ORIENTED_EDGE('',*,*,#435,.F.);
#549=ORIENTED_EDGE('',*,*,#436,.F.);
#550=ORIENTED_EDGE('',*,*,#437,.F.);
#551=ORIENTED_EDGE('',*,*,#438,.T.);
#552=ORIENTED_EDGE('',*,*,#439,.T.);
#553=ORIENTED_EDGE('',*,*,#440,.F.);
#554=ORIENTED_EDGE('',*,*,#441,.F.);
#555=ORIENTED_EDGE('',*,*,#442,.T.);
#556=ORIENTED_EDGE('',*,*,#443,.T.);
#557=ORIENTED_EDGE('',*,*,#425,.T.);
#558=ORIENTED_EDGE('',*,*,#422,.T.);
#559=ORIENTED_EDGE('',*,*,#419,.T.);
#560=ORIENTED_EDGE('',*,*,#428,.T.);
#561=ORIENTED_EDGE('',*,*,#444,.T.);
#562=ORIENTED_EDGE('',*,*,#445,.F.);
#563=ORIENTED_EDGE('',*,*,#446,.T.);
#564=ORIENTED_EDGE('',*,*,#435,.T.);
#565=ORIENTED_EDGE('',*,*,#447,.F.);
#566=ORIENTED_EDGE('',*,*,#432,.F.);
#567=ORIENTED_EDGE('',*,*,#448,.F.);
#568=ORIENTED_EDGE('',*,*,#449,.F.);
#569=ORIENTED_EDGE('',*,*,#450,.T.);
#570=ORIENTED_EDGE('',*,*,#451,.T.);
#571=ORIENTED_EDGE('',*,*,#452,.T.);
#572=ORIENTED_EDGE('',*,*,#445,.T.);
#573=ORIENTED_EDGE('',*,*,#453,.T.);
#574=ORIENTED_EDGE('',*,*,#454,.T.);
#575=ORIENTED_EDGE('',*,*,#455,.T.);
#576=ORIENTED_EDGE('',*,*,#456,.T.);
#577=ORIENTED_EDGE('',*,*,#457,.F.);
#578=ORIENTED_EDGE('',*,*,#450,.F.);
#579=ORIENTED_EDGE('',*,*,#444,.F.);
#580=ORIENTED_EDGE('',*,*,#434,.F.);
#581=ORIENTED_EDGE('',*,*,#429,.T.);
#582=ORIENTED_EDGE('',*,*,#447,.T.);
#583=ORIENTED_EDGE('',*,*,#458,.T.);
#584=ORIENTED_EDGE('',*,*,#442,.F.);
#585=ORIENTED_EDGE('',*,*,#433,.F.);
#586=ORIENTED_EDGE('',*,*,#459,.T.);
#587=ORIENTED_EDGE('',*,*,#448,.T.);
#588=ORIENTED_EDGE('',*,*,#431,.T.);
#589=ORIENTED_EDGE('',*,*,#460,.T.);
#590=ORIENTED_EDGE('',*,*,#461,.F.);
#591=ORIENTED_EDGE('',*,*,#453,.F.);
#592=ORIENTED_EDGE('',*,*,#462,.F.);
#593=ORIENTED_EDGE('',*,*,#443,.F.);
#594=ORIENTED_EDGE('',*,*,#458,.F.);
#595=ORIENTED_EDGE('',*,*,#449,.T.);
#596=ORIENTED_EDGE('',*,*,#459,.F.);
#597=ORIENTED_EDGE('',*,*,#457,.T.);
#598=ORIENTED_EDGE('',*,*,#441,.T.);
#599=ORIENTED_EDGE('',*,*,#463,.T.);
#600=ORIENTED_EDGE('',*,*,#451,.F.);
#601=ORIENTED_EDGE('',*,*,#464,.T.);
#602=ORIENTED_EDGE('',*,*,#462,.T.);
#603=ORIENTED_EDGE('',*,*,#456,.F.);
#604=ORIENTED_EDGE('',*,*,#465,.T.);
#605=ORIENTED_EDGE('',*,*,#466,.T.);
#606=ORIENTED_EDGE('',*,*,#467,.T.);
#607=ORIENTED_EDGE('',*,*,#454,.F.);
#608=ORIENTED_EDGE('',*,*,#461,.T.);
#609=ORIENTED_EDGE('',*,*,#468,.T.);
#610=ORIENTED_EDGE('',*,*,#469,.T.);
#611=ORIENTED_EDGE('',*,*,#465,.F.);
#612=ORIENTED_EDGE('',*,*,#455,.F.);
#613=ORIENTED_EDGE('',*,*,#467,.F.);
#614=ORIENTED_EDGE('',*,*,#470,.T.);
#615=ORIENTED_EDGE('',*,*,#471,.T.);
#616=ORIENTED_EDGE('',*,*,#472,.T.);
#617=ORIENTED_EDGE('',*,*,#440,.T.);
#618=ORIENTED_EDGE('',*,*,#473,.T.);
#619=ORIENTED_EDGE('',*,*,#474,.T.);
#620=ORIENTED_EDGE('',*,*,#475,.T.);
#621=ORIENTED_EDGE('',*,*,#436,.T.);
#622=ORIENTED_EDGE('',*,*,#446,.F.);
#623=ORIENTED_EDGE('',*,*,#452,.F.);
#624=ORIENTED_EDGE('',*,*,#463,.F.);
#625=ORIENTED_EDGE('',*,*,#476,.F.);
#626=ORIENTED_EDGE('',*,*,#477,.T.);
#627=ORIENTED_EDGE('',*,*,#478,.F.);
#628=ORIENTED_EDGE('',*,*,#477,.F.);
#629=ORIENTED_EDGE('',*,*,#479,.F.);
#630=ORIENTED_EDGE('',*,*,#480,.T.);
#631=ORIENTED_EDGE('',*,*,#481,.F.);
#632=ORIENTED_EDGE('',*,*,#480,.F.);
#633=ORIENTED_EDGE('',*,*,#479,.T.);
#634=ORIENTED_EDGE('',*,*,#476,.T.);
#635=ORIENTED_EDGE('',*,*,#482,.T.);
#636=ORIENTED_EDGE('',*,*,#483,.T.);
#637=ORIENTED_EDGE('',*,*,#484,.T.);
#638=ORIENTED_EDGE('',*,*,#485,.T.);
#639=ORIENTED_EDGE('',*,*,#486,.T.);
#640=ORIENTED_EDGE('',*,*,#487,.T.);
#641=ORIENTED_EDGE('',*,*,#488,.T.);
#642=ORIENTED_EDGE('',*,*,#481,.T.);
#643=ORIENTED_EDGE('',*,*,#489,.F.);
#644=ORIENTED_EDGE('',*,*,#490,.T.);
#645=ORIENTED_EDGE('',*,*,#491,.F.);
#646=ORIENTED_EDGE('',*,*,#490,.F.);
#647=ORIENTED_EDGE('',*,*,#492,.F.);
#648=ORIENTED_EDGE('',*,*,#493,.T.);
#649=ORIENTED_EDGE('',*,*,#486,.F.);
#650=ORIENTED_EDGE('',*,*,#493,.F.);
#651=ORIENTED_EDGE('',*,*,#492,.T.);
#652=ORIENTED_EDGE('',*,*,#489,.T.);
#653=ORIENTED_EDGE('',*,*,#478,.T.);
#654=ORIENTED_EDGE('',*,*,#494,.F.);
#655=ORIENTED_EDGE('',*,*,#495,.T.);
#656=ORIENTED_EDGE('',*,*,#496,.F.);
#657=ORIENTED_EDGE('',*,*,#495,.F.);
#658=ORIENTED_EDGE('',*,*,#497,.F.);
#659=ORIENTED_EDGE('',*,*,#498,.T.);
#660=ORIENTED_EDGE('',*,*,#488,.F.);
#661=ORIENTED_EDGE('',*,*,#498,.F.);
#662=ORIENTED_EDGE('',*,*,#497,.T.);
#663=ORIENTED_EDGE('',*,*,#494,.T.);
#664=ORIENTED_EDGE('',*,*,#491,.T.);
#665=ORIENTED_EDGE('',*,*,#499,.F.);
#666=ORIENTED_EDGE('',*,*,#500,.T.);
#667=ORIENTED_EDGE('',*,*,#501,.F.);
#668=ORIENTED_EDGE('',*,*,#500,.F.);
#669=ORIENTED_EDGE('',*,*,#502,.F.);
#670=ORIENTED_EDGE('',*,*,#503,.T.);
#671=ORIENTED_EDGE('',*,*,#487,.F.);
#672=ORIENTED_EDGE('',*,*,#503,.F.);
#673=ORIENTED_EDGE('',*,*,#502,.T.);
#674=ORIENTED_EDGE('',*,*,#499,.T.);
#675=ORIENTED_EDGE('',*,*,#496,.T.);
#676=ORIENTED_EDGE('',*,*,#485,.F.);
#677=ORIENTED_EDGE('',*,*,#504,.T.);
#678=ORIENTED_EDGE('',*,*,#468,.F.);
#679=ORIENTED_EDGE('',*,*,#505,.F.);
#680=ORIENTED_EDGE('',*,*,#484,.F.);
#681=ORIENTED_EDGE('',*,*,#506,.T.);
#682=ORIENTED_EDGE('',*,*,#470,.F.);
#683=ORIENTED_EDGE('',*,*,#466,.F.);
#684=ORIENTED_EDGE('',*,*,#460,.F.);
#685=ORIENTED_EDGE('',*,*,#464,.F.);
#686=ORIENTED_EDGE('',*,*,#469,.F.);
#687=ORIENTED_EDGE('',*,*,#504,.F.);
#688=ORIENTED_EDGE('',*,*,#424,.T.);
#689=ORIENTED_EDGE('',*,*,#427,.T.);
#690=ORIENTED_EDGE('',*,*,#417,.T.);
#691=ORIENTED_EDGE('',*,*,#421,.T.);
#692=ORIENTED_EDGE('',*,*,#483,.F.);
#693=ORIENTED_EDGE('',*,*,#507,.T.);
#694=ORIENTED_EDGE('',*,*,#471,.F.);
#695=ORIENTED_EDGE('',*,*,#506,.F.);
#696=ORIENTED_EDGE('',*,*,#482,.F.);
#697=ORIENTED_EDGE('',*,*,#505,.T.);
#698=ORIENTED_EDGE('',*,*,#472,.F.);
#699=ORIENTED_EDGE('',*,*,#507,.F.);
#700=ORIENTED_EDGE('',*,*,#501,.T.);
#701=ORIENTED_EDGE('',*,*,#508,.T.);
#702=ORIENTED_EDGE('',*,*,#509,.T.);
#703=ORIENTED_EDGE('',*,*,#473,.F.);
#704=ORIENTED_EDGE('',*,*,#439,.F.);
#705=ORIENTED_EDGE('',*,*,#510,.T.);
#706=ORIENTED_EDGE('',*,*,#437,.T.);
#707=ORIENTED_EDGE('',*,*,#475,.F.);
#708=ORIENTED_EDGE('',*,*,#511,.F.);
#709=ORIENTED_EDGE('',*,*,#512,.T.);
#710=ORIENTED_EDGE('',*,*,#511,.T.);
#711=ORIENTED_EDGE('',*,*,#474,.F.);
#712=ORIENTED_EDGE('',*,*,#509,.F.);
#713=ORIENTED_EDGE('',*,*,#512,.F.);
#714=ORIENTED_EDGE('',*,*,#508,.F.);
#715=ORIENTED_EDGE('',*,*,#438,.F.);
#716=ORIENTED_EDGE('',*,*,#510,.F.);
#717=ORIENTED_EDGE('',*,*,#513,.F.);
#718=ORIENTED_EDGE('',*,*,#514,.T.);
#719=ORIENTED_EDGE('',*,*,#515,.F.);
#720=ORIENTED_EDGE('',*,*,#516,.F.);
#721=ORIENTED_EDGE('',*,*,#517,.F.);
#722=ORIENTED_EDGE('',*,*,#516,.T.);
#723=ORIENTED_EDGE('',*,*,#518,.F.);
#724=ORIENTED_EDGE('',*,*,#519,.F.);
#725=ORIENTED_EDGE('',*,*,#520,.F.);
#726=ORIENTED_EDGE('',*,*,#519,.T.);
#727=ORIENTED_EDGE('',*,*,#521,.F.);
#728=ORIENTED_EDGE('',*,*,#522,.F.);
#729=ORIENTED_EDGE('',*,*,#523,.T.);
#730=ORIENTED_EDGE('',*,*,#522,.T.);
#731=ORIENTED_EDGE('',*,*,#524,.F.);
#732=ORIENTED_EDGE('',*,*,#514,.F.);
#733=ORIENTED_EDGE('',*,*,#524,.T.);
#734=ORIENTED_EDGE('',*,*,#521,.T.);
#735=ORIENTED_EDGE('',*,*,#518,.T.);
#736=ORIENTED_EDGE('',*,*,#515,.T.);
#737=ORIENTED_EDGE('',*,*,#523,.F.);
#738=ORIENTED_EDGE('',*,*,#513,.T.);
#739=ORIENTED_EDGE('',*,*,#517,.T.);
#740=ORIENTED_EDGE('',*,*,#520,.T.);
#741=PLANE('',#846);
#742=PLANE('',#847);
#743=PLANE('',#848);
#744=PLANE('',#849);
#745=PLANE('',#850);
#746=PLANE('',#851);
#747=PLANE('',#852);
#748=PLANE('',#853);
#749=PLANE('',#854);
#750=PLANE('',#855);
#751=PLANE('',#856);
#752=PLANE('',#857);
#753=PLANE('',#858);
#754=PLANE('',#859);
#755=PLANE('',#860);
#756=PLANE('',#861);
#757=PLANE('',#862);
#758=PLANE('',#863);
#759=PLANE('',#870);
#760=PLANE('',#871);
#761=PLANE('',#880);
#762=PLANE('',#881);
#763=PLANE('',#887);
#764=PLANE('',#888);
#765=PLANE('',#894);
#766=PLANE('',#895);
#767=PLANE('',#896);
#768=PLANE('',#897);
#769=PLANE('',#898);
#770=PLANE('',#899);
#771=PLANE('',#900);
#772=PLANE('',#901);
#773=PLANE('',#902);
#774=PLANE('',#903);
#775=PLANE('',#904);
#776=PLANE('',#905);
#777=PLANE('',#906);
#778=PLANE('',#907);
#779=PLANE('',#908);
#780=PLANE('',#909);
#781=PLANE('',#910);
#782=ADVANCED_FACE('',(#52),#741,.F.);
#783=ADVANCED_FACE('',(#53),#742,.F.);
#784=ADVANCED_FACE('',(#54),#743,.F.);
#785=ADVANCED_FACE('',(#55),#744,.F.);
#786=ADVANCED_FACE('',(#56),#745,.F.);
#787=ADVANCED_FACE('',(#57,#41),#746,.T.);
#788=ADVANCED_FACE('',(#58),#747,.T.);
#789=ADVANCED_FACE('',(#59),#748,.F.);
#790=ADVANCED_FACE('',(#60),#749,.T.);
#791=ADVANCED_FACE('',(#61),#750,.T.);
#792=ADVANCED_FACE('',(#62),#751,.F.);
#793=ADVANCED_FACE('',(#63,#42),#752,.F.);
#794=ADVANCED_FACE('',(#64),#753,.F.);
#795=ADVANCED_FACE('',(#65),#754,.T.);
#796=ADVANCED_FACE('',(#66),#755,.T.);
#797=ADVANCED_FACE('',(#67),#756,.T.);
#798=ADVANCED_FACE('',(#68),#757,.T.);
#799=ADVANCED_FACE('',(#69),#758,.T.);
#800=ADVANCED_FACE('',(#70),#33,.F.);
#801=ADVANCED_FACE('',(#71),#34,.T.);
#802=ADVANCED_FACE('',(#72,#43),#759,.T.);
#803=ADVANCED_FACE('',(#73,#44,#45,#46,#47),#760,.T.);
#804=ADVANCED_FACE('',(#74),#35,.F.);
#805=ADVANCED_FACE('',(#75),#36,.T.);
#806=ADVANCED_FACE('',(#76,#48),#761,.T.);
#807=ADVANCED_FACE('',(#77),#762,.T.);
#808=ADVANCED_FACE('',(#78),#37,.F.);
#809=ADVANCED_FACE('',(#79),#38,.T.);
#810=ADVANCED_FACE('',(#80,#49),#763,.T.);
#811=ADVANCED_FACE('',(#81),#764,.T.);
#812=ADVANCED_FACE('',(#82),#39,.F.);
#813=ADVANCED_FACE('',(#83),#40,.T.);
#814=ADVANCED_FACE('',(#84,#50),#765,.T.);
#815=ADVANCED_FACE('',(#85),#766,.T.);
#816=ADVANCED_FACE('',(#86),#767,.F.);
#817=ADVANCED_FACE('',(#87,#51),#768,.F.);
#818=ADVANCED_FACE('',(#88),#769,.F.);
#819=ADVANCED_FACE('',(#89),#770,.F.);
#820=ADVANCED_FACE('',(#90),#771,.T.);
#821=ADVANCED_FACE('',(#91),#772,.T.);
#822=ADVANCED_FACE('',(#92),#773,.T.);
#823=ADVANCED_FACE('',(#93),#774,.T.);
#824=ADVANCED_FACE('',(#94),#775,.F.);
#825=ADVANCED_FACE('',(#95),#776,.T.);
#826=ADVANCED_FACE('',(#96),#777,.T.);
#827=ADVANCED_FACE('',(#97),#778,.T.);
#828=ADVANCED_FACE('',(#98),#779,.T.);
#829=ADVANCED_FACE('',(#99),#780,.T.);
#830=ADVANCED_FACE('',(#100),#781,.F.);
#831=CLOSED_SHELL('',(#782,#783,#784,#785,#786,#787,#788,#789,#790,#791,
#792,#793,#794,#795,#796,#797,#798,#799,#800,#801,#802,#803,#804,#805,#806,
#807,#808,#809,#810,#811,#812,#813,#814,#815,#816,#817,#818,#819,#820,#821,
#822,#823,#824));
#832=CLOSED_SHELL('',(#825,#826,#827,#828,#829,#830));
#833=DERIVED_UNIT_ELEMENT(#835,1.);
#834=DERIVED_UNIT_ELEMENT(#1370,-3.);
#835=(
MASS_UNIT()
NAMED_UNIT(*)
SI_UNIT(.KILO.,.GRAM.)
);
#836=DERIVED_UNIT((#833,#834));
#837=MEASURE_REPRESENTATION_ITEM('density measure',
POSITIVE_RATIO_MEASURE(7850.),#836);
#838=PROPERTY_DEFINITION_REPRESENTATION(#843,#840);
#839=PROPERTY_DEFINITION_REPRESENTATION(#844,#841);
#840=REPRESENTATION('material name',(#842),#1367);
#841=REPRESENTATION('density',(#837),#1367);
#842=DESCRIPTIVE_REPRESENTATION_ITEM('A\X\E7o','A\X\E7o');
#843=PROPERTY_DEFINITION('material property','material name',#1377);
#844=PROPERTY_DEFINITION('material property','density of part',#1377);
#845=AXIS2_PLACEMENT_3D('',#1135,#911,#912);
#846=AXIS2_PLACEMENT_3D('',#1136,#913,#914);
#847=AXIS2_PLACEMENT_3D('',#1145,#919,#920);
#848=AXIS2_PLACEMENT_3D('',#1151,#924,#925);
#849=AXIS2_PLACEMENT_3D('',#1157,#929,#930);
#850=AXIS2_PLACEMENT_3D('',#1160,#933,#934);
#851=AXIS2_PLACEMENT_3D('',#1169,#939,#940);
#852=AXIS2_PLACEMENT_3D('',#1191,#952,#953);
#853=AXIS2_PLACEMENT_3D('',#1197,#957,#958);
#854=AXIS2_PLACEMENT_3D('',#1203,#962,#963);
#855=AXIS2_PLACEMENT_3D('',#1209,#967,#968);
#856=AXIS2_PLACEMENT_3D('',#1218,#973,#974);
#857=AXIS2_PLACEMENT_3D('',#1221,#977,#978);
#858=AXIS2_PLACEMENT_3D('',#1228,#983,#984);
#859=AXIS2_PLACEMENT_3D('',#1229,#985,#986);
#860=AXIS2_PLACEMENT_3D('',#1231,#988,#989);
#861=AXIS2_PLACEMENT_3D('',#1235,#992,#993);
#862=AXIS2_PLACEMENT_3D('',#1239,#996,#997);
#863=AXIS2_PLACEMENT_3D('',#1249,#1003,#1004);
#864=AXIS2_PLACEMENT_3D('',#1255,#1008,#1009);
#865=AXIS2_PLACEMENT_3D('',#1257,#1010,#1011);
#866=AXIS2_PLACEMENT_3D('',#1260,#1013,#1014);
#867=AXIS2_PLACEMENT_3D('',#1261,#1015,#1016);
#868=AXIS2_PLACEMENT_3D('',#1263,#1017,#1018);
#869=AXIS2_PLACEMENT_3D('',#1266,#1020,#1021);
#870=AXIS2_PLACEMENT_3D('',#1267,#1022,#1023);
#871=AXIS2_PLACEMENT_3D('',#1268,#1024,#1025);
#872=AXIS2_PLACEMENT_3D('',#1278,#1030,#1031);
#873=AXIS2_PLACEMENT_3D('',#1280,#1032,#1033);
#874=AXIS2_PLACEMENT_3D('',#1282,#1034,#1035);
#875=AXIS2_PLACEMENT_3D('',#1283,#1036,#1037);
#876=AXIS2_PLACEMENT_3D('',#1285,#1038,#1039);
#877=AXIS2_PLACEMENT_3D('',#1288,#1041,#1042);
#878=AXIS2_PLACEMENT_3D('',#1289,#1043,#1044);
#879=AXIS2_PLACEMENT_3D('',#1291,#1045,#1046);
#880=AXIS2_PLACEMENT_3D('',#1293,#1048,#1049);
#881=AXIS2_PLACEMENT_3D('',#1294,#1050,#1051);
#882=AXIS2_PLACEMENT_3D('',#1295,#1052,#1053);
#883=AXIS2_PLACEMENT_3D('',#1297,#1054,#1055);
#884=AXIS2_PLACEMENT_3D('',#1300,#1057,#1058);
#885=AXIS2_PLACEMENT_3D('',#1301,#1059,#1060);
#886=AXIS2_PLACEMENT_3D('',#1303,#1061,#1062);
#887=AXIS2_PLACEMENT_3D('',#1305,#1064,#1065);
#888=AXIS2_PLACEMENT_3D('',#1306,#1066,#1067);
#889=AXIS2_PLACEMENT_3D('',#1307,#1068,#1069);
#890=AXIS2_PLACEMENT_3D('',#1309,#1070,#1071);
#891=AXIS2_PLACEMENT_3D('',#1312,#1073,#1074);
#892=AXIS2_PLACEMENT_3D('',#1313,#1075,#1076);
#893=AXIS2_PLACEMENT_3D('',#1315,#1077,#1078);
#894=AXIS2_PLACEMENT_3D('',#1317,#1080,#1081);
#895=AXIS2_PLACEMENT_3D('',#1318,#1082,#1083);
#896=AXIS2_PLACEMENT_3D('',#1319,#1084,#1085);
#897=AXIS2_PLACEMENT_3D('',#1322,#1088,#1089);
#898=AXIS2_PLACEMENT_3D('',#1324,#1091,#1092);
#899=AXIS2_PLACEMENT_3D('',#1326,#1094,#1095);
#900=AXIS2_PLACEMENT_3D('',#1327,#1096,#1097);
#901=AXIS2_PLACEMENT_3D('',#1328,#1098,#1099);
#902=AXIS2_PLACEMENT_3D('',#1332,#1102,#1103);
#903=AXIS2_PLACEMENT_3D('',#1336,#1106,#1107);
#904=AXIS2_PLACEMENT_3D('',#1338,#1109,#1110);
#905=AXIS2_PLACEMENT_3D('',#1339,#1111,#1112);
#906=AXIS2_PLACEMENT_3D('',#1348,#1117,#1118);
#907=AXIS2_PLACEMENT_3D('',#1354,#1122,#1123);
#908=AXIS2_PLACEMENT_3D('',#1360,#1127,#1128);
#909=AXIS2_PLACEMENT_3D('',#1363,#1131,#1132);
#910=AXIS2_PLACEMENT_3D('',#1364,#1133,#1134);
#911=DIRECTION('axis',(0.,0.,1.));
#912=DIRECTION('refdir',(1.,0.,0.));
#913=DIRECTION('center_axis',(0.,-1.66533453693826E-16,-1.));
#914=DIRECTION('ref_axis',(-3.9443045261049E-31,-1.,1.66533453693826E-16));
#915=DIRECTION('',(0.,1.,-1.66533453693826E-16));
#916=DIRECTION('',(-1.,0.,0.));
#917=DIRECTION('',(0.,-1.,1.66533453693826E-16));
#918=DIRECTION('',(-1.,0.,0.));
#919=DIRECTION('center_axis',(0.,1.,-1.66533453693826E-16));
#920=DIRECTION('ref_axis',(2.36658271566304E-30,-1.66533453693826E-16,-1.));
#921=DIRECTION('',(0.,1.66533453693826E-16,1.));
#922=DIRECTION('',(0.,-1.66533453693826E-16,-1.));
#923=DIRECTION('',(-1.,0.,0.));
#924=DIRECTION('center_axis',(0.,1.66533453693826E-16,1.));
#925=DIRECTION('ref_axis',(3.9443045261049E-31,1.,-1.66533453693826E-16));
#926=DIRECTION('',(0.,-1.,1.66533453693826E-16));
#927=DIRECTION('',(0.,1.,-1.66533453693826E-16));
#928=DIRECTION('',(-1.,0.,0.));
#929=DIRECTION('center_axis',(0.,-1.,1.66533453693826E-16));
#930=DIRECTION('ref_axis',(-2.36658271566304E-30,1.66533453693826E-16,1.));
#931=DIRECTION('',(0.,-1.66533453693826E-16,-1.));
#932=DIRECTION('',(0.,1.66533453693826E-16,1.));
#933=DIRECTION('center_axis',(0.,0.,1.));
#934=DIRECTION('ref_axis',(1.,0.,0.));
#935=DIRECTION('',(-1.,0.,0.));
#936=DIRECTION('',(0.,1.,0.));
#937=DIRECTION('',(1.,0.,0.));
#938=DIRECTION('',(0.,1.,0.));
#939=DIRECTION('center_axis',(1.,0.,0.));
#940=DIRECTION('ref_axis',(0.,0.,-1.));
#941=DIRECTION('',(0.,0.,1.));
#942=DIRECTION('',(0.,0.,-1.));
#943=DIRECTION('',(0.,-1.,0.));
#944=DIRECTION('',(0.,0.,-1.));
#945=DIRECTION('',(0.,1.,0.));
#946=DIRECTION('',(0.,0.,-1.));
#947=DIRECTION('',(0.,1.,0.));
#948=DIRECTION('',(0.,0.,-1.));
#949=DIRECTION('',(0.,1.,0.));
#950=DIRECTION('',(0.,0.,-1.));
#951=DIRECTION('',(0.,-1.,0.));
#952=DIRECTION('center_axis',(0.,0.,-1.));
#953=DIRECTION('ref_axis',(-1.,0.,0.));
#954=DIRECTION('',(-1.,0.,0.));
#955=DIRECTION('',(0.,-1.,0.));
#956=DIRECTION('',(1.,0.,0.));
#957=DIRECTION('center_axis',(-1.,0.,0.));
#958=DIRECTION('ref_axis',(0.,0.,1.));
#959=DIRECTION('',(0.,0.,-1.));
#960=DIRECTION('',(0.,0.,1.));
#961=DIRECTION('',(0.,-1.,0.));
#962=DIRECTION('center_axis',(1.,0.,0.));
#963=DIRECTION('ref_axis',(0.,0.,-1.));
#964=DIRECTION('',(0.,0.,-1.));
#965=DIRECTION('',(0.,1.,0.));
#966=DIRECTION('',(0.,0.,1.));
#967=DIRECTION('center_axis',(1.,0.,0.));
#968=DIRECTION('ref_axis',(0.,0.,-1.));
#969=DIRECTION('',(0.,0.,1.));
#970=DIRECTION('',(0.,-1.,0.));
#971=DIRECTION('',(0.,0.,-1.));
#972=DIRECTION('',(0.,1.,0.));
#973=DIRECTION('center_axis',(0.,1.,0.));
#974=DIRECTION('ref_axis',(1.,0.,0.));
#975=DIRECTION('',(1.,0.,0.));
#976=DIRECTION('',(1.,0.,0.));
#977=DIRECTION('center_axis',(0.,-1.,0.));
#978=DIRECTION('ref_axis',(-1.,0.,0.));
#979=DIRECTION('',(-1.,0.,0.));
#980=DIRECTION('',(0.,0.,1.));
#981=DIRECTION('',(1.,0.,0.));
#982=DIRECTION('',(-1.,0.,0.));
#983=DIRECTION('center_axis',(0.,0.,-1.));
#984=DIRECTION('ref_axis',(-1.,0.,0.));
#985=DIRECTION('center_axis',(0.,0.,1.));
#986=DIRECTION('ref_axis',(1.,0.,0.));
#987=DIRECTION('',(-1.,0.,0.));
#988=DIRECTION('center_axis',(0.,0.,1.));
#989=DIRECTION('ref_axis',(1.,0.,0.));
#990=DIRECTION('',(0.,1.,0.));
#991=DIRECTION('',(1.,0.,0.));
#992=DIRECTION('center_axis',(0.,0.,-1.));
#993=DIRECTION('ref_axis',(-1.,0.,0.));
#994=DIRECTION('',(0.,-1.,0.));
#995=DIRECTION('',(-1.,0.,0.));
#996=DIRECTION('center_axis',(0.,-1.,0.));
#997=DIRECTION('ref_axis',(0.,0.,-1.));
#998=DIRECTION('',(1.,0.,0.));
#999=DIRECTION('',(0.,0.,1.));
#1000=DIRECTION('',(0.,0.,1.));
#1001=DIRECTION('',(-1.,0.,0.));
#1002=DIRECTION('',(0.,0.,-1.));
#1003=DIRECTION('center_axis',(0.,1.,0.));
#1004=DIRECTION('ref_axis',(0.,0.,1.));
#1005=DIRECTION('',(-1.,0.,0.));
#1006=DIRECTION('',(0.,0.,1.));
#1007=DIRECTION('',(1.,0.,0.));
#1008=DIRECTION('center_axis',(0.,1.,0.));
#1009=DIRECTION('ref_axis',(-1.,0.,0.));
#1010=DIRECTION('center_axis',(0.,-1.,0.));
#1011=DIRECTION('ref_axis',(-1.,0.,0.));
#1012=DIRECTION('',(0.,-1.,0.));
#1013=DIRECTION('center_axis',(0.,1.,0.));
#1014=DIRECTION('ref_axis',(-1.,0.,0.));
#1015=DIRECTION('center_axis',(0.,1.,0.));
#1016=DIRECTION('ref_axis',(-1.,0.,0.));
#1017=DIRECTION('center_axis',(0.,1.,0.));
#1018=DIRECTION('ref_axis',(-1.,0.,0.));
#1019=DIRECTION('',(0.,-1.,0.));
#1020=DIRECTION('center_axis',(0.,-1.,0.));
#1021=DIRECTION('ref_axis',(-1.,0.,0.));
#1022=DIRECTION('center_axis',(0.,1.,0.));
#1023=DIRECTION('ref_axis',(-1.,0.,0.));
#1024=DIRECTION('center_axis',(0.,1.,0.));
#1025=DIRECTION('ref_axis',(-1.,0.,0.));
#1026=DIRECTION('',(0.,0.,-1.));
#1027=DIRECTION('',(-1.,0.,0.));
#1028=DIRECTION('',(0.,0.,1.));
#1029=DIRECTION('',(1.,0.,0.));
#1030=DIRECTION('center_axis',(0.,-1.,0.));
#1031=DIRECTION('ref_axis',(-1.,0.,0.));
#1032=DIRECTION('center_axis',(0.,-1.,0.));
#1033=DIRECTION('ref_axis',(-1.,0.,0.));
#1034=DIRECTION('center_axis',(0.,-1.,0.));
#1035=DIRECTION('ref_axis',(-1.,0.,0.));
#1036=DIRECTION('center_axis',(0.,1.,0.));
#1037=DIRECTION('ref_axis',(-1.,0.,0.));
#1038=DIRECTION('center_axis',(0.,-1.,0.));
#1039=DIRECTION('ref_axis',(-1.,0.,0.));
#1040=DIRECTION('',(0.,-1.,0.));
#1041=DIRECTION('center_axis',(0.,1.,0.));
#1042=DIRECTION('ref_axis',(-1.,0.,0.));
#1043=DIRECTION('center_axis',(0.,1.,0.));
#1044=DIRECTION('ref_axis',(-1.,0.,0.));
#1045=DIRECTION('center_axis',(0.,1.,0.));
#1046=DIRECTION('ref_axis',(-1.,0.,0.));
#1047=DIRECTION('',(0.,-1.,0.));
#1048=DIRECTION('center_axis',(0.,1.,0.));
#1049=DIRECTION('ref_axis',(-1.,0.,0.));
#1050=DIRECTION('center_axis',(0.,1.,0.));
#1051=DIRECTION('ref_axis',(-1.,0.,0.));
#1052=DIRECTION('center_axis',(0.,1.,0.));
#1053=DIRECTION('ref_axis',(-1.,0.,0.));
#1054=DIRECTION('center_axis',(0.,-1.,0.));
#1055=DIRECTION('ref_axis',(-1.,0.,0.));
#1056=DIRECTION('',(0.,-1.,0.));
#1057=DIRECTION('center_axis',(0.,1.,0.));
#1058=DIRECTION('ref_axis',(-1.,0.,0.));
#1059=DIRECTION('center_axis',(0.,1.,0.));
#1060=DIRECTION('ref_axis',(-1.,0.,0.));
#1061=DIRECTION('center_axis',(0.,1.,0.));
#1062=DIRECTION('ref_axis',(-1.,0.,0.));
#1063=DIRECTION('',(0.,-1.,0.));
#1064=DIRECTION('center_axis',(0.,1.,0.));
#1065=DIRECTION('ref_axis',(-1.,0.,0.));
#1066=DIRECTION('center_axis',(0.,1.,0.));
#1067=DIRECTION('ref_axis',(-1.,0.,0.));
#1068=DIRECTION('center_axis',(0.,1.,0.));
#1069=DIRECTION('ref_axis',(-1.,0.,0.));
#1070=DIRECTION('center_axis',(0.,-1.,0.));
#1071=DIRECTION('ref_axis',(-1.,0.,0.));
#1072=DIRECTION('',(0.,-1.,0.));
#1073=DIRECTION('center_axis',(0.,1.,0.));
#1074=DIRECTION('ref_axis',(-1.,0.,0.));
#1075=DIRECTION('center_axis',(0.,1.,0.));
#1076=DIRECTION('ref_axis',(-1.,0.,0.));
#1077=DIRECTION('center_axis',(0.,1.,0.));
#1078=DIRECTION('ref_axis',(-1.,0.,0.));
#1079=DIRECTION('',(0.,-1.,0.));
#1080=DIRECTION('center_axis',(0.,1.,0.));
#1081=DIRECTION('ref_axis',(-1.,0.,0.));
#1082=DIRECTION('center_axis',(0.,1.,0.));
#1083=DIRECTION('ref_axis',(-1.,0.,0.));
#1084=DIRECTION('center_axis',(0.,0.,-1.));
#1085=DIRECTION('ref_axis',(-1.,0.,0.));
#1086=DIRECTION('',(0.,-1.,0.));
#1087=DIRECTION('',(0.,1.,0.));
#1088=DIRECTION('center_axis',(1.,0.,0.));
#1089=DIRECTION('ref_axis',(0.,0.,-1.));
#1090=DIRECTION('',(0.,-1.,0.));
#1091=DIRECTION('center_axis',(0.,0.,1.));
#1092=DIRECTION('ref_axis',(1.,0.,0.));
#1093=DIRECTION('',(0.,-1.,0.));
#1094=DIRECTION('center_axis',(-1.,0.,0.));
#1095=DIRECTION('ref_axis',(0.,0.,1.));
#1096=DIRECTION('center_axis',(0.,1.,0.));
#1097=DIRECTION('ref_axis',(-1.,0.,0.));
#1098=DIRECTION('center_axis',(0.,0.,-1.));
#1099=DIRECTION('ref_axis',(-1.,0.,0.));
#1100=DIRECTION('',(-1.,0.,0.));
#1101=DIRECTION('',(0.,1.,0.));
#1102=DIRECTION('center_axis',(0.,0.,1.));
#1103=DIRECTION('ref_axis',(1.,0.,0.));
#1104=DIRECTION('',(1.,0.,0.));
#1105=DIRECTION('',(0.,1.,0.));
#1106=DIRECTION('center_axis',(-1.,0.,0.));
#1107=DIRECTION('ref_axis',(0.,0.,1.));
#1108=DIRECTION('',(0.,0.,1.));
#1109=DIRECTION('center_axis',(0.,1.,0.));
#1110=DIRECTION('ref_axis',(-1.,0.,0.));
#1111=DIRECTION('center_axis',(0.,0.,1.));
#1112=DIRECTION('ref_axis',(1.,0.,0.));
#1113=DIRECTION('',(-1.,0.,0.));
#1114=DIRECTION('',(0.,1.,0.));
#1115=DIRECTION('',(1.,0.,0.));
#1116=DIRECTION('',(0.,1.,0.));
#1117=DIRECTION('center_axis',(-1.,0.,0.));
#1118=DIRECTION('ref_axis',(0.,0.,1.));
#1119=DIRECTION('',(0.,0.,-1.));
#1120=DIRECTION('',(0.,0.,1.));
#1121=DIRECTION('',(0.,1.,0.));
#1122=DIRECTION('center_axis',(0.,0.,-1.));
#1123=DIRECTION('ref_axis',(-1.,0.,0.));
#1124=DIRECTION('',(1.,0.,0.));
#1125=DIRECTION('',(-1.,0.,0.));
#1126=DIRECTION('',(0.,1.,0.));
#1127=DIRECTION('center_axis',(1.,0.,0.));
#1128=DIRECTION('ref_axis',(0.,0.,-1.));
#1129=DIRECTION('',(0.,0.,-1.));
#1130=DIRECTION('',(0.,0.,-1.));
#1131=DIRECTION('center_axis',(0.,1.,0.));
#1132=DIRECTION('ref_axis',(0.,0.,1.));
#1133=DIRECTION('center_axis',(0.,1.,0.));
#1134=DIRECTION('ref_axis',(-1.,0.,0.));
#1135=CARTESIAN_POINT('',(0.,0.,0.));
#1136=CARTESIAN_POINT('Origin',(65.,60.0000000000002,-138.920675197357));
#1137=CARTESIAN_POINT('',(63.,50.0000000000002,-138.920675197357));
#1138=CARTESIAN_POINT('',(63.,60.0000000000002,-138.920675197357));
#1139=CARTESIAN_POINT('',(63.,33.0000000000001,-138.920675197357));
#1140=CARTESIAN_POINT('',(65.,50.0000000000002,-138.920675197357));
#1141=CARTESIAN_POINT('',(65.,50.0000000000002,-138.920675197357));
#1142=CARTESIAN_POINT('',(65.,60.0000000000002,-138.920675197357));
#1143=CARTESIAN_POINT('',(65.,33.0000000000001,-138.920675197357));
#1144=CARTESIAN_POINT('',(65.,60.0000000000002,-138.920675197357));
#1145=CARTESIAN_POINT('Origin',(65.,60.0000000000002,-68.9206751973565));
#1146=CARTESIAN_POINT('',(63.,60.0000000000002,-68.9206751973565));
#1147=CARTESIAN_POINT('',(63.,60.0000000000002,-65.9603375986783));
#1148=CARTESIAN_POINT('',(65.,60.0000000000002,-68.9206751973565));
#1149=CARTESIAN_POINT('',(65.,60.0000000000002,-65.9603375986783));
#1150=CARTESIAN_POINT('',(65.,60.0000000000002,-68.9206751973565));
#1151=CARTESIAN_POINT('Origin',(65.,50.0000000000002,-68.9206751973565));
#1152=CARTESIAN_POINT('',(63.,50.0000000000002,-68.9206751973565));
#1153=CARTESIAN_POINT('',(63.,28.0000000000001,-68.9206751973565));
#1154=CARTESIAN_POINT('',(65.,50.0000000000002,-68.9206751973565));
#1155=CARTESIAN_POINT('',(65.,28.0000000000001,-68.9206751973565));
#1156=CARTESIAN_POINT('',(65.,50.0000000000002,-68.9206751973565));
#1157=CARTESIAN_POINT('Origin',(65.,50.0000000000002,-138.920675197357));
#1158=CARTESIAN_POINT('',(63.,50.0000000000002,-100.960337598678));
#1159=CARTESIAN_POINT('',(65.,50.0000000000002,-100.960337598678));
#1160=CARTESIAN_POINT('Origin',(6.1,67.0000009983778,-64.7));
#1161=CARTESIAN_POINT('',(65.,67.2500009983778,-64.7));
#1162=CARTESIAN_POINT('',(-53.3,67.2500009983778,-64.7));
#1163=CARTESIAN_POINT('',(-52.8,67.2500009983778,-64.7));
#1164=CARTESIAN_POINT('',(65.,66.7500009983778,-64.7));
#1165=CARTESIAN_POINT('',(65.,36.5000004991889,-64.7));
#1166=CARTESIAN_POINT('',(-53.3,66.7500009983778,-64.7));
#1167=CARTESIAN_POINT('',(65.,66.7500009983778,-64.7));
#1168=CARTESIAN_POINT('',(-53.3,66.7500009983778,-64.7));
#1169=CARTESIAN_POINT('Origin',(65.,6.,-63.));
#1170=CARTESIAN_POINT('',(65.,66.7500009983778,-141.3));
#1171=CARTESIAN_POINT('',(65.,66.7500009983778,-101.9));
#1172=CARTESIAN_POINT('',(65.,67.2500009983778,-65.2));
#1173=CARTESIAN_POINT('',(65.,67.2500009983778,-64.1));
#1174=CARTESIAN_POINT('',(65.,68.,-65.2));
#1175=CARTESIAN_POINT('',(65.,37.,-65.2));
#1176=CARTESIAN_POINT('',(65.,68.,-63.));
#1177=CARTESIAN_POINT('',(65.,68.,-63.2));
#1178=CARTESIAN_POINT('',(65.,6.,-63.));
#1179=CARTESIAN_POINT('',(65.,6.,-63.));
#1180=CARTESIAN_POINT('',(65.,6.,-143.));
#1181=CARTESIAN_POINT('',(65.,6.,-63.));
#1182=CARTESIAN_POINT('',(65.,68.,-143.));
#1183=CARTESIAN_POINT('',(65.,6.,-143.));
#1184=CARTESIAN_POINT('',(65.,68.,-140.8));
#1185=CARTESIAN_POINT('',(65.,68.,-63.));
#1186=CARTESIAN_POINT('',(65.,67.2500009983778,-140.8));
#1187=CARTESIAN_POINT('',(65.,36.,-140.8));
#1188=CARTESIAN_POINT('',(65.,67.2500009983778,-141.3));
#1189=CARTESIAN_POINT('',(65.,67.2500009983778,-101.9));
#1190=CARTESIAN_POINT('',(65.,36.5000004991889,-141.3));
#1191=CARTESIAN_POINT('Origin',(64.8,66.,-65.2));
#1192=CARTESIAN_POINT('',(-52.8,67.2500009983778,-65.2));
#1193=CARTESIAN_POINT('',(64.9,67.2500009983778,-65.2));
#1194=CARTESIAN_POINT('',(-52.8,68.,-65.2));
#1195=CARTESIAN_POINT('',(-52.8,66.,-65.2));
#1196=CARTESIAN_POINT('',(34.9,68.,-65.2));
#1197=CARTESIAN_POINT('Origin',(-53.3,67.0000009983778,-103.));
#1198=CARTESIAN_POINT('',(-53.3,67.2500009983778,-141.3));
#1199=CARTESIAN_POINT('',(-53.3,67.2500009983778,-140.8));
#1200=CARTESIAN_POINT('',(-53.3,66.7500009983778,-141.3));
#1201=CARTESIAN_POINT('',(-53.3,66.7500009983778,-65.2));
#1202=CARTESIAN_POINT('',(-53.3,67.2500009983778,-141.3));
#1203=CARTESIAN_POINT('Origin',(-52.8,66.,-63.2));
#1204=CARTESIAN_POINT('',(-52.8,67.2500009983778,-140.8));
#1205=CARTESIAN_POINT('',(-52.8,67.2500009983778,-64.2));
#1206=CARTESIAN_POINT('',(-52.8,68.,-140.8));
#1207=CARTESIAN_POINT('',(-52.8,66.,-140.8));
#1208=CARTESIAN_POINT('',(-52.8,68.,-142.8));
#1209=CARTESIAN_POINT('Origin',(-52.8,66.,-63.2));
#1210=CARTESIAN_POINT('',(-52.8,66.7500009983778,-140.8));
#1211=CARTESIAN_POINT('',(-52.8,66.7500009983778,-65.2));
#1212=CARTESIAN_POINT('',(-52.8,66.7500009983778,-102.));
#1213=CARTESIAN_POINT('',(-52.8,66.,-65.2));
#1214=CARTESIAN_POINT('',(-52.8,66.,-65.2));
#1215=CARTESIAN_POINT('',(-52.8,66.,-140.8));
#1216=CARTESIAN_POINT('',(-52.8,66.,-83.1));
#1217=CARTESIAN_POINT('',(-52.8,66.,-140.8));
#1218=CARTESIAN_POINT('Origin',(-52.8,67.2500009983778,-140.8));
#1219=CARTESIAN_POINT('',(-53.8,67.2500009983778,-140.8));
#1220=CARTESIAN_POINT('',(65.,67.2500009983778,-141.3));
#1221=CARTESIAN_POINT('Origin',(65.,66.7500009983778,-140.8));
#1222=CARTESIAN_POINT('',(-52.8,66.7500009983778,-141.3));
#1223=CARTESIAN_POINT('',(63.,66.75,-140.8));
#1224=CARTESIAN_POINT('',(63.,66.75,-65.2));
#1225=CARTESIAN_POINT('',(63.,66.75,-83.));
#1226=CARTESIAN_POINT('',(6.00000000000001,66.7500009983778,-65.2));
#1227=CARTESIAN_POINT('',(5.1,66.7500009983778,-140.8));
#1228=CARTESIAN_POINT('Origin',(6.1,67.0000009983778,-141.3));
#1229=CARTESIAN_POINT('Origin',(-54.8,66.,-140.8));
#1230=CARTESIAN_POINT('',(64.8,68.,-140.8));
#1231=CARTESIAN_POINT('Origin',(-54.8,66.,-140.8));
#1232=CARTESIAN_POINT('',(63.,66.,-140.8));
#1233=CARTESIAN_POINT('',(63.,66.,-140.8));
#1234=CARTESIAN_POINT('',(-24.9,66.,-140.8));
#1235=CARTESIAN_POINT('Origin',(64.8,66.,-65.2));
#1236=CARTESIAN_POINT('',(63.,66.,-65.2));
#1237=CARTESIAN_POINT('',(63.,66.,-65.2));
#1238=CARTESIAN_POINT('',(34.9,66.,-65.2));
#1239=CARTESIAN_POINT('Origin',(-54.8,66.,-63.2));
#1240=CARTESIAN_POINT('',(-53.,66.,-141.));
#1241=CARTESIAN_POINT('',(63.,66.,-141.));
#1242=CARTESIAN_POINT('',(35.,66.,-141.));
#1243=CARTESIAN_POINT('',(63.,66.,-83.));
#1244=CARTESIAN_POINT('',(63.,66.,-65.));
#1245=CARTESIAN_POINT('',(63.,66.,-83.));
#1246=CARTESIAN_POINT('',(-53.,66.,-65.));
#1247=CARTESIAN_POINT('',(-25.,66.,-65.));
#1248=CARTESIAN_POINT('',(-53.,66.,-123.));
#1249=CARTESIAN_POINT('Origin',(5.,68.,-103.));
#1250=CARTESIAN_POINT('',(-55.,68.,-143.));
#1251=CARTESIAN_POINT('',(65.,68.,-143.));
#1252=CARTESIAN_POINT('',(-55.,68.,-63.));
#1253=CARTESIAN_POINT('',(-55.,68.,-143.));
#1254=CARTESIAN_POINT('',(-55.,68.,-63.));
#1255=CARTESIAN_POINT('Origin',(-45.2261075846342,8.00000000000001,-113.846229673322));
#1256=CARTESIAN_POINT('',(-43.9761075846342,13.,-113.846229673322));
#1257=CARTESIAN_POINT('Origin',(-45.2261075846342,13.,-113.846229673322));
#1258=CARTESIAN_POINT('',(-43.9761075846342,8.00000000000001,-113.846229673322));
#1259=CARTESIAN_POINT('',(-43.9761075846342,8.00000000000001,-113.846229673322));
#1260=CARTESIAN_POINT('Origin',(-45.2261075846342,8.,-113.846229673322));
#1261=CARTESIAN_POINT('Origin',(-45.2261075846342,8.00000000000001,-113.846229673322));
#1262=CARTESIAN_POINT('',(-42.7261075846342,13.,-113.846229673322));
#1263=CARTESIAN_POINT('Origin',(-45.2261075846342,13.,-113.846229673322));
#1264=CARTESIAN_POINT('',(-42.7261075846342,8.00000000000001,-113.846229673322));
#1265=CARTESIAN_POINT('',(-42.7261075846342,8.00000000000001,-113.846229673322));
#1266=CARTESIAN_POINT('Origin',(-45.2261075846342,8.,-113.846229673322));
#1267=CARTESIAN_POINT('Origin',(-45.2261075846342,13.,-113.846229673322));
#1268=CARTESIAN_POINT('Origin',(5.,8.,-103.));
#1269=CARTESIAN_POINT('',(-53.,8.,-141.));
#1270=CARTESIAN_POINT('',(-53.,8.,-65.));
#1271=CARTESIAN_POINT('',(-53.,8.,-123.));
#1272=CARTESIAN_POINT('',(63.,8.,-65.));
#1273=CARTESIAN_POINT('',(-25.,8.,-65.));
#1274=CARTESIAN_POINT('',(63.,8.,-141.));
#1275=CARTESIAN_POINT('',(63.,8.,-83.));
#1276=CARTESIAN_POINT('',(35.,8.,-141.));
#1277=CARTESIAN_POINT('',(9.41185027211601,8.00000000000001,-118.886179704726));
#1278=CARTESIAN_POINT('Origin',(6.91185027211601,8.,-118.886179704726));
#1279=CARTESIAN_POINT('',(8.05765558337766,8.00000000000001,-70.5458574176963));
#1280=CARTESIAN_POINT('Origin',(5.55765558337766,8.,-70.5458574176963));
#1281=CARTESIAN_POINT('',(-42.6779364846343,8.00000000000001,-85.9091233959656));
#1282=CARTESIAN_POINT('Origin',(-45.1779364846343,8.,-85.9091233959656));
#1283=CARTESIAN_POINT('Origin',(6.91185027211601,8.00000000000001,-118.886179704726));
#1284=CARTESIAN_POINT('',(8.16185027211601,13.,-118.886179704726));
#1285=CARTESIAN_POINT('Origin',(6.91185027211601,13.,-118.886179704726));
#1286=CARTESIAN_POINT('',(8.16185027211601,8.00000000000001,-118.886179704726));
#1287=CARTESIAN_POINT('',(8.16185027211601,8.00000000000001,-118.886179704726));
#1288=CARTESIAN_POINT('Origin',(6.91185027211601,8.,-118.886179704726));
#1289=CARTESIAN_POINT('Origin',(6.91185027211601,8.00000000000001,-118.886179704726));
#1290=CARTESIAN_POINT('',(9.41185027211601,13.,-118.886179704726));
#1291=CARTESIAN_POINT('Origin',(6.91185027211601,13.,-118.886179704726));
#1292=CARTESIAN_POINT('',(9.41185027211601,8.00000000000001,-118.886179704726));
#1293=CARTESIAN_POINT('Origin',(6.91185027211601,13.,-118.886179704726));
#1294=CARTESIAN_POINT('Origin',(5.,8.,-103.));
#1295=CARTESIAN_POINT('Origin',(-45.1779364846343,8.00000000000001,-85.9091233959656));
#1296=CARTESIAN_POINT('',(-43.9279364846343,13.,-85.9091233959656));
#1297=CARTESIAN_POINT('Origin',(-45.1779364846343,13.,-85.9091233959656));
#1298=CARTESIAN_POINT('',(-43.9279364846343,8.00000000000001,-85.9091233959656));
#1299=CARTESIAN_POINT('',(-43.9279364846343,8.00000000000001,-85.9091233959656));
#1300=CARTESIAN_POINT('Origin',(-45.1779364846343,8.,-85.9091233959656));
#1301=CARTESIAN_POINT('Origin',(-45.1779364846343,8.00000000000001,-85.9091233959656));
#1302=CARTESIAN_POINT('',(-42.6779364846343,13.,-85.9091233959656));
#1303=CARTESIAN_POINT('Origin',(-45.1779364846343,13.,-85.9091233959656));
#1304=CARTESIAN_POINT('',(-42.6779364846343,8.00000000000001,-85.9091233959656));
#1305=CARTESIAN_POINT('Origin',(-45.1779364846343,13.,-85.9091233959656));
#1306=CARTESIAN_POINT('Origin',(5.,8.,-103.));
#1307=CARTESIAN_POINT('Origin',(5.55765558337766,8.00000000000001,-70.5458574176963));
#1308=CARTESIAN_POINT('',(6.80765558337766,13.,-70.5458574176963));
#1309=CARTESIAN_POINT('Origin',(5.55765558337766,13.,-70.5458574176963));
#1310=CARTESIAN_POINT('',(6.80765558337766,8.00000000000001,-70.5458574176963));
#1311=CARTESIAN_POINT('',(6.80765558337766,8.00000000000001,-70.5458574176963));
#1312=CARTESIAN_POINT('Origin',(5.55765558337766,8.,-70.5458574176963));
#1313=CARTESIAN_POINT('Origin',(5.55765558337766,8.00000000000001,-70.5458574176963));
#1314=CARTESIAN_POINT('',(8.05765558337766,13.,-70.5458574176963));
#1315=CARTESIAN_POINT('Origin',(5.55765558337766,13.,-70.5458574176963));
#1316=CARTESIAN_POINT('',(8.05765558337766,8.00000000000001,-70.5458574176963));
#1317=CARTESIAN_POINT('Origin',(5.55765558337766,13.,-70.5458574176963));
#1318=CARTESIAN_POINT('Origin',(5.,8.,-103.));
#1319=CARTESIAN_POINT('Origin',(65.,6.,-141.));
#1320=CARTESIAN_POINT('',(63.,6.,-141.));
#1321=CARTESIAN_POINT('',(-53.,6.,-141.));
#1322=CARTESIAN_POINT('Origin',(63.,6.,-63.));
#1323=CARTESIAN_POINT('',(63.,6.,-65.));
#1324=CARTESIAN_POINT('Origin',(-55.,6.,-65.));
#1325=CARTESIAN_POINT('',(-53.,6.,-65.));
#1326=CARTESIAN_POINT('Origin',(-53.,6.,-143.));
#1327=CARTESIAN_POINT('Origin',(5.,8.,-103.));
#1328=CARTESIAN_POINT('Origin',(65.,6.,-143.));
#1329=CARTESIAN_POINT('',(-55.,6.,-143.));
#1330=CARTESIAN_POINT('',(65.,6.,-143.));
#1331=CARTESIAN_POINT('',(-55.,6.,-143.));
#1332=CARTESIAN_POINT('Origin',(-55.,6.,-63.));
#1333=CARTESIAN_POINT('',(-55.,6.,-63.));
#1334=CARTESIAN_POINT('',(-55.,6.,-63.));
#1335=CARTESIAN_POINT('',(-55.,6.,-63.));
#1336=CARTESIAN_POINT('Origin',(-55.,6.,-143.));
#1337=CARTESIAN_POINT('',(-55.,6.,-143.));
#1338=CARTESIAN_POINT('Origin',(5.,6.,-103.));
#1339=CARTESIAN_POINT('Origin',(-53.3,66.7500009983778,-64.7));
#1340=CARTESIAN_POINT('',(65.,66.7500009983778,-64.7));
#1341=CARTESIAN_POINT('',(-53.3,66.7500009983778,-64.7));
#1342=CARTESIAN_POINT('',(65.,66.7500009983778,-64.7));
#1343=CARTESIAN_POINT('',(65.,67.2500009983778,-64.7));
#1344=CARTESIAN_POINT('',(65.,66.7500009983778,-64.7));
#1345=CARTESIAN_POINT('',(-53.3,67.2500009983778,-64.7));
#1346=CARTESIAN_POINT('',(65.,67.2500009983778,-64.7));
#1347=CARTESIAN_POINT('',(-53.3,66.7500009983778,-64.7));
#1348=CARTESIAN_POINT('Origin',(-53.3,66.7500009983778,-141.3));
#1349=CARTESIAN_POINT('',(-53.3,66.7500009983778,-141.3));
#1350=CARTESIAN_POINT('',(-53.3,66.7500009983778,-64.7));
#1351=CARTESIAN_POINT('',(-53.3,67.2500009983778,-141.3));
#1352=CARTESIAN_POINT('',(-53.3,67.2500009983778,-64.7));
#1353=CARTESIAN_POINT('',(-53.3,66.7500009983778,-141.3));
#1354=CARTESIAN_POINT('Origin',(65.,66.7500009983778,-141.3));
#1355=CARTESIAN_POINT('',(65.,66.7500009983778,-141.3));
#1356=CARTESIAN_POINT('',(-53.3,66.7500009983778,-141.3));
#1357=CARTESIAN_POINT('',(65.,67.2500009983778,-141.3));
#1358=CARTESIAN_POINT('',(-53.3,67.2500009983778,-141.3));
#1359=CARTESIAN_POINT('',(65.,66.7500009983778,-141.3));
#1360=CARTESIAN_POINT('Origin',(65.,66.7500009983778,-64.7));
#1361=CARTESIAN_POINT('',(65.,66.7500009983778,-64.7));
#1362=CARTESIAN_POINT('',(65.,67.2500009983778,-64.7));
#1363=CARTESIAN_POINT('Origin',(5.85000000000001,67.2500009983778,-103.));
#1364=CARTESIAN_POINT('Origin',(5.85000000000001,66.7500009983778,-103.));
#1365=UNCERTAINTY_MEASURE_WITH_UNIT(LENGTH_MEASURE(0.01),#1369,
'DISTANCE_ACCURACY_VALUE',
'Maximum model space distance between geometric entities at asserted c
onnectivities');
#1366=UNCERTAINTY_MEASURE_WITH_UNIT(LENGTH_MEASURE(0.01),#1369,
'DISTANCE_ACCURACY_VALUE',
'Maximum model space distance between geometric entities at asserted c
onnectivities');
#1367=(
GEOMETRIC_REPRESENTATION_CONTEXT(3)
GLOBAL_UNCERTAINTY_ASSIGNED_CONTEXT((#1365))
GLOBAL_UNIT_ASSIGNED_CONTEXT((#1369,#1371,#1372))
REPRESENTATION_CONTEXT('','3D')
);
#1368=(
GEOMETRIC_REPRESENTATION_CONTEXT(3)
GLOBAL_UNCERTAINTY_ASSIGNED_CONTEXT((#1366))
GLOBAL_UNIT_ASSIGNED_CONTEXT((#1369,#1371,#1372))
REPRESENTATION_CONTEXT('','3D')
);
#1369=(
LENGTH_UNIT()
NAMED_UNIT(*)
SI_UNIT(.MILLI.,.METRE.)
);
#1370=(
LENGTH_UNIT()
NAMED_UNIT(*)
SI_UNIT($,.METRE.)
);
#1371=(
NAMED_UNIT(*)
PLANE_ANGLE_UNIT()
SI_UNIT($,.RADIAN.)
);
#1372=(
NAMED_UNIT(*)
SI_UNIT($,.STERADIAN.)
SOLID_ANGLE_UNIT()
);
#1373=SHAPE_DEFINITION_REPRESENTATION(#1374,#1375);
#1374=PRODUCT_DEFINITION_SHAPE('',$,#1377);
#1375=SHAPE_REPRESENTATION('',(#845),#1367);
#1376=PRODUCT_DEFINITION_CONTEXT('part definition',#1381,'design');
#1377=PRODUCT_DEFINITION('2026-05-29-16-10-09-404','Caixa_Eletronica',#1378,
#1376);
#1378=PRODUCT_DEFINITION_FORMATION('',$,#1383);
#1379=PRODUCT_RELATED_PRODUCT_CATEGORY('Caixa_Eletronica',
'Caixa_Eletronica',(#1383));
#1380=APPLICATION_PROTOCOL_DEFINITION('international standard',
'automotive_design',2009,#1381);
#1381=APPLICATION_CONTEXT(
'Core Data for Automotive Mechanical Design Process');
#1382=PRODUCT_CONTEXT('part definition',#1381,'mechanical');
#1383=PRODUCT('2026-05-29-16-10-09-404','Caixa_Eletronica',$,(#1382));
#1384=PRESENTATION_STYLE_ASSIGNMENT((#1385));
#1385=SURFACE_STYLE_USAGE(.BOTH.,#1386);
#1386=SURFACE_SIDE_STYLE('',(#1387));
#1387=SURFACE_STYLE_FILL_AREA(#1388);
#1388=FILL_AREA_STYLE('A\X\E7o - Acetinado',(#1389));
#1389=FILL_AREA_STYLE_COLOUR('A\X\E7o - Acetinado',#1390);
#1390=COLOUR_RGB('A\X\E7o - Acetinado',0.627450980392157,0.627450980392157,
0.627450980392157);
ENDSEC;
END-ISO-10303-21;
