ISO-10303-21;
HEADER;
/* Generated by software containing ST-Developer
 * from STEP Tools, Inc. (www.steptools.com) 
 */

FILE_DESCRIPTION(
/* description */ (''),
/* implementation_level */ '2;1');

FILE_NAME(
/* name */ 'Eixo_Menor_Motor.step',
/* time_stamp */ '2026-06-22T01:02:39-03:00',
/* author */ (''),
/* organization */ (''),
/* preprocessor_version */ 'ST-DEVELOPER v20.1',
/* originating_system */ 'Autodesk Translation Framework v15.8.0.0',
/* authorisation */ '');

FILE_SCHEMA (('AUTOMOTIVE_DESIGN { 1 0 10303 214 3 1 1 }'));
ENDSEC;

DATA;
#10=MECHANICAL_DESIGN_GEOMETRIC_PRESENTATION_REPRESENTATION('',(#13),#158);
#11=SHAPE_REPRESENTATION_RELATIONSHIP('SRR','None',#165,#12);
#12=ADVANCED_BREP_SHAPE_REPRESENTATION('',(#14),#157);
#13=STYLED_ITEM('',(#175),#14);
#14=MANIFOLD_SOLID_BREP('Corpo1',#86);
#15=CYLINDRICAL_SURFACE('',#104,2.5);
#16=CYLINDRICAL_SURFACE('',#106,3.5);
#17=FACE_BOUND('',#35,.T.);
#18=FACE_BOUND('',#40,.T.);
#19=LINE('',#141,#24);
#20=LINE('',#144,#25);
#21=LINE('',#146,#26);
#22=LINE('',#147,#27);
#23=LINE('',#153,#28);
#24=VECTOR('',#117,10.);
#25=VECTOR('',#120,10.);
#26=VECTOR('',#121,10.);
#27=VECTOR('',#122,10.);
#28=VECTOR('',#131,3.5);
#29=FACE_OUTER_BOUND('',#34,.T.);
#30=FACE_OUTER_BOUND('',#36,.T.);
#31=FACE_OUTER_BOUND('',#37,.T.);
#32=FACE_OUTER_BOUND('',#38,.T.);
#33=FACE_OUTER_BOUND('',#39,.T.);
#34=EDGE_LOOP('',(#60));
#35=EDGE_LOOP('',(#61,#62));
#36=EDGE_LOOP('',(#63,#64,#65,#66));
#37=EDGE_LOOP('',(#67,#68,#69,#70));
#38=EDGE_LOOP('',(#71,#72,#73,#74));
#39=EDGE_LOOP('',(#75));
#40=EDGE_LOOP('',(#76,#77));
#41=CIRCLE('',#101,3.5);
#42=CIRCLE('',#102,2.5);
#43=CIRCLE('',#105,2.5);
#44=CIRCLE('',#107,3.5);
#45=VERTEX_POINT('',#136);
#46=VERTEX_POINT('',#138);
#47=VERTEX_POINT('',#139);
#48=VERTEX_POINT('',#143);
#49=VERTEX_POINT('',#145);
#50=VERTEX_POINT('',#151);
#51=EDGE_CURVE('',#45,#45,#41,.T.);
#52=EDGE_CURVE('',#46,#47,#42,.T.);
#53=EDGE_CURVE('',#47,#46,#19,.T.);
#54=EDGE_CURVE('',#48,#47,#20,.T.);
#55=EDGE_CURVE('',#49,#48,#21,.T.);
#56=EDGE_CURVE('',#46,#49,#22,.T.);
#57=EDGE_CURVE('',#48,#49,#43,.T.);
#58=EDGE_CURVE('',#50,#50,#44,.T.);
#59=EDGE_CURVE('',#50,#45,#23,.T.);
#60=ORIENTED_EDGE('',*,*,#51,.T.);
#61=ORIENTED_EDGE('',*,*,#52,.T.);
#62=ORIENTED_EDGE('',*,*,#53,.T.);
#63=ORIENTED_EDGE('',*,*,#54,.F.);
#64=ORIENTED_EDGE('',*,*,#55,.F.);
#65=ORIENTED_EDGE('',*,*,#56,.F.);
#66=ORIENTED_EDGE('',*,*,#53,.F.);
#67=ORIENTED_EDGE('',*,*,#56,.T.);
#68=ORIENTED_EDGE('',*,*,#57,.F.);
#69=ORIENTED_EDGE('',*,*,#54,.T.);
#70=ORIENTED_EDGE('',*,*,#52,.F.);
#71=ORIENTED_EDGE('',*,*,#58,.F.);
#72=ORIENTED_EDGE('',*,*,#59,.T.);
#73=ORIENTED_EDGE('',*,*,#51,.F.);
#74=ORIENTED_EDGE('',*,*,#59,.F.);
#75=ORIENTED_EDGE('',*,*,#58,.T.);
#76=ORIENTED_EDGE('',*,*,#57,.T.);
#77=ORIENTED_EDGE('',*,*,#55,.T.);
#78=PLANE('',#100);
#79=PLANE('',#103);
#80=PLANE('',#108);
#81=ADVANCED_FACE('',(#29,#17),#78,.F.);
#82=ADVANCED_FACE('',(#30),#79,.T.);
#83=ADVANCED_FACE('',(#31),#15,.F.);
#84=ADVANCED_FACE('',(#32),#16,.T.);
#85=ADVANCED_FACE('',(#33,#18),#80,.T.);
#86=CLOSED_SHELL('',(#81,#82,#83,#84,#85));
#87=DERIVED_UNIT_ELEMENT(#89,1.);
#88=DERIVED_UNIT_ELEMENT(#160,-3.);
#89=(
MASS_UNIT()
NAMED_UNIT(*)
SI_UNIT(.KILO.,.GRAM.)
);
#90=DERIVED_UNIT((#87,#88));
#91=MEASURE_REPRESENTATION_ITEM('density measure',
POSITIVE_RATIO_MEASURE(7850.),#90);
#92=PROPERTY_DEFINITION_REPRESENTATION(#97,#94);
#93=PROPERTY_DEFINITION_REPRESENTATION(#98,#95);
#94=REPRESENTATION('material name',(#96),#157);
#95=REPRESENTATION('density',(#91),#157);
#96=DESCRIPTIVE_REPRESENTATION_ITEM('A\X\E7o','A\X\E7o');
#97=PROPERTY_DEFINITION('material property','material name',#167);
#98=PROPERTY_DEFINITION('material property','density of part',#167);
#99=AXIS2_PLACEMENT_3D('',#134,#109,#110);
#100=AXIS2_PLACEMENT_3D('',#135,#111,#112);
#101=AXIS2_PLACEMENT_3D('',#137,#113,#114);
#102=AXIS2_PLACEMENT_3D('',#140,#115,#116);
#103=AXIS2_PLACEMENT_3D('',#142,#118,#119);
#104=AXIS2_PLACEMENT_3D('',#148,#123,#124);
#105=AXIS2_PLACEMENT_3D('',#149,#125,#126);
#106=AXIS2_PLACEMENT_3D('',#150,#127,#128);
#107=AXIS2_PLACEMENT_3D('',#152,#129,#130);
#108=AXIS2_PLACEMENT_3D('',#154,#132,#133);
#109=DIRECTION('axis',(0.,0.,1.));
#110=DIRECTION('refdir',(1.,0.,0.));
#111=DIRECTION('center_axis',(0.35118472132928,-0.936306195378881,2.78654651806252E-11));
#112=DIRECTION('ref_axis',(0.0122460454894504,0.00459318123276433,-0.999914464869887));
#113=DIRECTION('center_axis',(-0.35118472132928,0.936306195378881,-2.78654651806252E-11));
#114=DIRECTION('ref_axis',(0.0122460454894504,0.00459318123276433,-0.999914464869887));
#115=DIRECTION('center_axis',(0.351184721329291,-0.936306195378877,2.7873968391634E-11));
#116=DIRECTION('ref_axis',(0.741633259345237,0.278167837417025,0.61041196159618));
#117=DIRECTION('',(-0.0122460454997559,-0.00459318123662966,0.999914464869743));
#118=DIRECTION('center_axis',(-0.936226108306372,-0.351154682698738,-0.0130791033429138));
#119=DIRECTION('ref_axis',(0.0122460454997559,0.00459318123662966,-0.999914464869744));
#120=DIRECTION('',(-0.351184721329279,0.936306195378882,-2.78654556651438E-11));
#121=DIRECTION('',(0.0122460454997559,0.00459318123662966,-0.999914464869743));
#122=DIRECTION('',(0.351184721329279,-0.936306195378882,2.78654556651438E-11));
#123=DIRECTION('center_axis',(0.351184721329279,-0.936306195378882,2.78654556651438E-11));
#124=DIRECTION('ref_axis',(-0.936226108306372,-0.351154682698737,-0.0130791033429129));
#125=DIRECTION('center_axis',(-0.351184721329291,0.936306195378877,-2.7873968391634E-11));
#126=DIRECTION('ref_axis',(0.741633259345237,0.278167837417025,0.61041196159618));
#127=DIRECTION('center_axis',(0.351184721329279,-0.936306195378882,2.78654556651438E-11));
#128=DIRECTION('ref_axis',(0.0122460454894504,0.00459318123276433,-0.999914464869887));
#129=DIRECTION('center_axis',(0.35118472132928,-0.936306195378881,2.78654651806252E-11));
#130=DIRECTION('ref_axis',(0.0122460454894504,0.00459318123276433,-0.999914464869887));
#131=DIRECTION('',(-0.351184721329279,0.936306195378882,-2.78654556651438E-11));
#132=DIRECTION('center_axis',(0.35118472132928,-0.936306195378881,2.78654651806252E-11));
#133=DIRECTION('ref_axis',(0.0122460454894504,0.00459318123276433,-0.999914464869887));
#134=CARTESIAN_POINT('',(0.,0.,0.));
#135=CARTESIAN_POINT('Origin',(9.54812893910958,101.373845798013,-0.859347064439766));
#136=CARTESIAN_POINT('',(9.50526777989658,101.357769663699,2.64035356260485));
#137=CARTESIAN_POINT('Origin',(9.54812893910958,101.373845798013,-0.859347064439765));
#138=CARTESIAN_POINT('',(11.4022120874728,102.069265391556,0.666682839550678));
#139=CARTESIAN_POINT('',(11.438950223972,102.083044935266,-2.33306055505855));
#140=CARTESIAN_POINT('Origin',(9.54812893910958,101.373845798013,-0.859347064439765));
#141=CARTESIAN_POINT('',(11.438950223972,102.083044935266,-2.33306055505855));
#142=CARTESIAN_POINT('Origin',(14.9140593007656,92.7062034377669,0.666682839829332));
#143=CARTESIAN_POINT('',(18.4626446505576,83.3569210276881,-2.33306055450124));
#144=CARTESIAN_POINT('',(14.9507974372648,92.719982981477,-2.3330605547799));
#145=CARTESIAN_POINT('',(18.4259065140584,83.3431414839779,0.666682840107987));
#146=CARTESIAN_POINT('',(18.4626446505576,83.3569210276881,-2.33306055450124));
#147=CARTESIAN_POINT('',(14.9140593007656,92.7062034377669,0.666682839829332));
#148=CARTESIAN_POINT('Origin',(13.0599761524024,92.0107838442244,-0.859347064161111));
#149=CARTESIAN_POINT('Origin',(16.5718233656952,82.6477218904356,-0.859347063882456));
#150=CARTESIAN_POINT('Origin',(13.0599761524024,92.0107838442244,-0.859347064161111));
#151=CARTESIAN_POINT('',(16.5289622064821,82.6316457561209,2.64035356316215));
#152=CARTESIAN_POINT('Origin',(16.5718233656952,82.6477218904356,-0.859347063882456));
#153=CARTESIAN_POINT('',(13.0171149931893,91.9947077099097,2.6403535628835));
#154=CARTESIAN_POINT('Origin',(16.5718233656952,82.6477218904356,-0.859347063882457));
#155=UNCERTAINTY_MEASURE_WITH_UNIT(LENGTH_MEASURE(0.01),#159,
'DISTANCE_ACCURACY_VALUE',
'Maximum model space distance between geometric entities at asserted c
onnectivities');
#156=UNCERTAINTY_MEASURE_WITH_UNIT(LENGTH_MEASURE(0.01),#159,
'DISTANCE_ACCURACY_VALUE',
'Maximum model space distance between geometric entities at asserted c
onnectivities');
#157=(
GEOMETRIC_REPRESENTATION_CONTEXT(3)
GLOBAL_UNCERTAINTY_ASSIGNED_CONTEXT((#155))
GLOBAL_UNIT_ASSIGNED_CONTEXT((#159,#161,#162))
REPRESENTATION_CONTEXT('','3D')
);
#158=(
GEOMETRIC_REPRESENTATION_CONTEXT(3)
GLOBAL_UNCERTAINTY_ASSIGNED_CONTEXT((#156))
GLOBAL_UNIT_ASSIGNED_CONTEXT((#159,#161,#162))
REPRESENTATION_CONTEXT('','3D')
);
#159=(
LENGTH_UNIT()
NAMED_UNIT(*)
SI_UNIT(.MILLI.,.METRE.)
);
#160=(
LENGTH_UNIT()
NAMED_UNIT(*)
SI_UNIT($,.METRE.)
);
#161=(
NAMED_UNIT(*)
PLANE_ANGLE_UNIT()
SI_UNIT($,.RADIAN.)
);
#162=(
NAMED_UNIT(*)
SI_UNIT($,.STERADIAN.)
SOLID_ANGLE_UNIT()
);
#163=SHAPE_DEFINITION_REPRESENTATION(#164,#165);
#164=PRODUCT_DEFINITION_SHAPE('',$,#167);
#165=SHAPE_REPRESENTATION('',(#99),#157);
#166=PRODUCT_DEFINITION_CONTEXT('part definition',#171,'design');
#167=PRODUCT_DEFINITION('2026-06-22-01-02-39-255','Eixo_Menor_Motor',#168,
#166);
#168=PRODUCT_DEFINITION_FORMATION('',$,#173);
#169=PRODUCT_RELATED_PRODUCT_CATEGORY('Eixo_Menor_Motor',
'Eixo_Menor_Motor',(#173));
#170=APPLICATION_PROTOCOL_DEFINITION('international standard',
'automotive_design',2009,#171);
#171=APPLICATION_CONTEXT(
'Core Data for Automotive Mechanical Design Process');
#172=PRODUCT_CONTEXT('part definition',#171,'mechanical');
#173=PRODUCT('2026-06-22-01-02-39-255','Eixo_Menor_Motor',$,(#172));
#174=PRESENTATION_STYLE_ASSIGNMENT((#176));
#175=PRESENTATION_STYLE_ASSIGNMENT((#177));
#176=SURFACE_STYLE_USAGE(.BOTH.,#178);
#177=SURFACE_STYLE_USAGE(.BOTH.,#179);
#178=SURFACE_SIDE_STYLE('',(#180));
#179=SURFACE_SIDE_STYLE('',(#181));
#180=SURFACE_STYLE_FILL_AREA(#182);
#181=SURFACE_STYLE_FILL_AREA(#183);
#182=FILL_AREA_STYLE('A\X\E7o - Acetinado',(#184));
#183=FILL_AREA_STYLE('Opaque(160,160,160)',(#185));
#184=FILL_AREA_STYLE_COLOUR('A\X\E7o - Acetinado',#186);
#185=FILL_AREA_STYLE_COLOUR('Opaque(160,160,160)',#187);
#186=COLOUR_RGB('A\X\E7o - Acetinado',0.627450980392157,0.627450980392157,
0.627450980392157);
#187=COLOUR_RGB('Opaque(160,160,160)',0.627450980392157,0.627450980392157,
0.627450980392157);
ENDSEC;
END-ISO-10303-21;
