ISO-10303-21;
HEADER;
/* Generated by software containing ST-Developer
 * from STEP Tools, Inc. (www.steptools.com) 
 */

FILE_DESCRIPTION(
/* description */ (''),
/* implementation_level */ '2;1');

FILE_NAME(
/* name */ 'Encaixe_Pa.step',
/* time_stamp */ '2026-06-22T01:03:19-03:00',
/* author */ (''),
/* organization */ (''),
/* preprocessor_version */ 'ST-DEVELOPER v20.1',
/* originating_system */ 'Autodesk Translation Framework v15.8.0.0',
/* authorisation */ '');

FILE_SCHEMA (('AUTOMOTIVE_DESIGN { 1 0 10303 214 3 1 1 }'));
ENDSEC;

DATA;
#10=MECHANICAL_DESIGN_GEOMETRIC_PRESENTATION_REPRESENTATION('',(#13),#495);
#11=SHAPE_REPRESENTATION_RELATIONSHIP('SRR','None',#502,#12);
#12=ADVANCED_BREP_SHAPE_REPRESENTATION('',(#14),#494);
#13=STYLED_ITEM('',(#511),#14);
#14=MANIFOLD_SOLID_BREP('Corpo1',#291);
#15=FACE_BOUND('',#106,.T.);
#16=FACE_BOUND('',#107,.T.);
#17=FACE_BOUND('',#108,.T.);
#18=FACE_BOUND('',#109,.T.);
#19=LINE('',#419,#47);
#20=LINE('',#426,#48);
#21=LINE('',#433,#49);
#22=LINE('',#440,#50);
#23=LINE('',#445,#51);
#24=LINE('',#447,#52);
#25=LINE('',#449,#53);
#26=LINE('',#450,#54);
#27=LINE('',#454,#55);
#28=LINE('',#456,#56);
#29=LINE('',#458,#57);
#30=LINE('',#459,#58);
#31=LINE('',#463,#59);
#32=LINE('',#465,#60);
#33=LINE('',#467,#61);
#34=LINE('',#468,#62);
#35=LINE('',#471,#63);
#36=LINE('',#473,#64);
#37=LINE('',#474,#65);
#38=LINE('',#476,#66);
#39=LINE('',#477,#67);
#40=LINE('',#481,#68);
#41=LINE('',#482,#69);
#42=LINE('',#483,#70);
#43=LINE('',#485,#71);
#44=LINE('',#486,#72);
#45=LINE('',#488,#73);
#46=LINE('',#490,#74);
#47=VECTOR('',#339,2.00000002980232);
#48=VECTOR('',#348,2.00000002980232);
#49=VECTOR('',#357,2.00000002980232);
#50=VECTOR('',#366,2.00000002980232);
#51=VECTOR('',#371,10.);
#52=VECTOR('',#372,10.);
#53=VECTOR('',#373,10.);
#54=VECTOR('',#374,10.);
#55=VECTOR('',#377,10.);
#56=VECTOR('',#378,10.);
#57=VECTOR('',#379,10.);
#58=VECTOR('',#380,10.);
#59=VECTOR('',#383,10.);
#60=VECTOR('',#384,10.);
#61=VECTOR('',#385,10.);
#62=VECTOR('',#386,10.);
#63=VECTOR('',#389,10.);
#64=VECTOR('',#390,10.);
#65=VECTOR('',#391,10.);
#66=VECTOR('',#394,10.);
#67=VECTOR('',#395,10.);
#68=VECTOR('',#398,10.);
#69=VECTOR('',#399,10.);
#70=VECTOR('',#400,10.);
#71=VECTOR('',#403,10.);
#72=VECTOR('',#404,10.);
#73=VECTOR('',#407,10.);
#74=VECTOR('',#410,10.);
#75=CYLINDRICAL_SURFACE('',#307,2.117);
#76=CYLINDRICAL_SURFACE('',#311,2.117);
#77=CYLINDRICAL_SURFACE('',#315,2.117);
#78=CYLINDRICAL_SURFACE('',#319,2.117);
#79=FACE_OUTER_BOUND('',#97,.T.);
#80=FACE_OUTER_BOUND('',#98,.T.);
#81=FACE_OUTER_BOUND('',#99,.T.);
#82=FACE_OUTER_BOUND('',#100,.T.);
#83=FACE_OUTER_BOUND('',#101,.T.);
#84=FACE_OUTER_BOUND('',#102,.T.);
#85=FACE_OUTER_BOUND('',#103,.T.);
#86=FACE_OUTER_BOUND('',#104,.T.);
#87=FACE_OUTER_BOUND('',#105,.T.);
#88=FACE_OUTER_BOUND('',#110,.T.);
#89=FACE_OUTER_BOUND('',#111,.T.);
#90=FACE_OUTER_BOUND('',#112,.T.);
#91=FACE_OUTER_BOUND('',#113,.T.);
#92=FACE_OUTER_BOUND('',#114,.T.);
#93=FACE_OUTER_BOUND('',#115,.T.);
#94=FACE_OUTER_BOUND('',#116,.T.);
#95=FACE_OUTER_BOUND('',#117,.T.);
#96=FACE_OUTER_BOUND('',#118,.T.);
#97=EDGE_LOOP('',(#187));
#98=EDGE_LOOP('',(#188,#189,#190,#191));
#99=EDGE_LOOP('',(#192));
#100=EDGE_LOOP('',(#193,#194,#195,#196));
#101=EDGE_LOOP('',(#197));
#102=EDGE_LOOP('',(#198,#199,#200,#201));
#103=EDGE_LOOP('',(#202));
#104=EDGE_LOOP('',(#203,#204,#205,#206));
#105=EDGE_LOOP('',(#207,#208,#209,#210));
#106=EDGE_LOOP('',(#211));
#107=EDGE_LOOP('',(#212));
#108=EDGE_LOOP('',(#213));
#109=EDGE_LOOP('',(#214));
#110=EDGE_LOOP('',(#215,#216,#217,#218));
#111=EDGE_LOOP('',(#219,#220,#221,#222));
#112=EDGE_LOOP('',(#223,#224,#225,#226));
#113=EDGE_LOOP('',(#227,#228,#229,#230));
#114=EDGE_LOOP('',(#231,#232,#233,#234));
#115=EDGE_LOOP('',(#235,#236,#237,#238));
#116=EDGE_LOOP('',(#239,#240,#241,#242,#243,#244,#245,#246));
#117=EDGE_LOOP('',(#247,#248,#249,#250));
#118=EDGE_LOOP('',(#251,#252,#253,#254,#255,#256,#257,#258));
#119=CIRCLE('',#306,2.117);
#120=CIRCLE('',#308,2.117);
#121=CIRCLE('',#310,2.117);
#122=CIRCLE('',#312,2.117);
#123=CIRCLE('',#314,2.117);
#124=CIRCLE('',#316,2.117);
#125=CIRCLE('',#318,2.117);
#126=CIRCLE('',#320,2.117);
#127=VERTEX_POINT('',#415);
#128=VERTEX_POINT('',#418);
#129=VERTEX_POINT('',#422);
#130=VERTEX_POINT('',#425);
#131=VERTEX_POINT('',#429);
#132=VERTEX_POINT('',#432);
#133=VERTEX_POINT('',#436);
#134=VERTEX_POINT('',#439);
#135=VERTEX_POINT('',#443);
#136=VERTEX_POINT('',#444);
#137=VERTEX_POINT('',#446);
#138=VERTEX_POINT('',#448);
#139=VERTEX_POINT('',#452);
#140=VERTEX_POINT('',#453);
#141=VERTEX_POINT('',#455);
#142=VERTEX_POINT('',#457);
#143=VERTEX_POINT('',#461);
#144=VERTEX_POINT('',#462);
#145=VERTEX_POINT('',#464);
#146=VERTEX_POINT('',#466);
#147=VERTEX_POINT('',#470);
#148=VERTEX_POINT('',#472);
#149=VERTEX_POINT('',#479);
#150=VERTEX_POINT('',#480);
#151=EDGE_CURVE('',#127,#127,#119,.T.);
#152=EDGE_CURVE('',#127,#128,#19,.T.);
#153=EDGE_CURVE('',#128,#128,#120,.T.);
#154=EDGE_CURVE('',#129,#129,#121,.T.);
#155=EDGE_CURVE('',#129,#130,#20,.T.);
#156=EDGE_CURVE('',#130,#130,#122,.T.);
#157=EDGE_CURVE('',#131,#131,#123,.T.);
#158=EDGE_CURVE('',#131,#132,#21,.T.);
#159=EDGE_CURVE('',#132,#132,#124,.T.);
#160=EDGE_CURVE('',#133,#133,#125,.T.);
#161=EDGE_CURVE('',#133,#134,#22,.T.);
#162=EDGE_CURVE('',#134,#134,#126,.T.);
#163=EDGE_CURVE('',#135,#136,#23,.T.);
#164=EDGE_CURVE('',#136,#137,#24,.T.);
#165=EDGE_CURVE('',#137,#138,#25,.T.);
#166=EDGE_CURVE('',#138,#135,#26,.T.);
#167=EDGE_CURVE('',#139,#140,#27,.T.);
#168=EDGE_CURVE('',#140,#141,#28,.T.);
#169=EDGE_CURVE('',#141,#142,#29,.T.);
#170=EDGE_CURVE('',#139,#142,#30,.T.);
#171=EDGE_CURVE('',#143,#144,#31,.T.);
#172=EDGE_CURVE('',#143,#145,#32,.T.);
#173=EDGE_CURVE('',#146,#145,#33,.T.);
#174=EDGE_CURVE('',#144,#146,#34,.T.);
#175=EDGE_CURVE('',#147,#144,#35,.T.);
#176=EDGE_CURVE('',#148,#146,#36,.T.);
#177=EDGE_CURVE('',#147,#148,#37,.T.);
#178=EDGE_CURVE('',#141,#147,#38,.T.);
#179=EDGE_CURVE('',#142,#148,#39,.T.);
#180=EDGE_CURVE('',#149,#150,#40,.T.);
#181=EDGE_CURVE('',#145,#150,#41,.T.);
#182=EDGE_CURVE('',#143,#149,#42,.T.);
#183=EDGE_CURVE('',#140,#136,#43,.T.);
#184=EDGE_CURVE('',#137,#139,#44,.T.);
#185=EDGE_CURVE('',#138,#150,#45,.T.);
#186=EDGE_CURVE('',#135,#149,#46,.T.);
#187=ORIENTED_EDGE('',*,*,#151,.F.);
#188=ORIENTED_EDGE('',*,*,#151,.T.);
#189=ORIENTED_EDGE('',*,*,#152,.T.);
#190=ORIENTED_EDGE('',*,*,#153,.F.);
#191=ORIENTED_EDGE('',*,*,#152,.F.);
#192=ORIENTED_EDGE('',*,*,#154,.F.);
#193=ORIENTED_EDGE('',*,*,#154,.T.);
#194=ORIENTED_EDGE('',*,*,#155,.T.);
#195=ORIENTED_EDGE('',*,*,#156,.F.);
#196=ORIENTED_EDGE('',*,*,#155,.F.);
#197=ORIENTED_EDGE('',*,*,#157,.F.);
#198=ORIENTED_EDGE('',*,*,#157,.T.);
#199=ORIENTED_EDGE('',*,*,#158,.T.);
#200=ORIENTED_EDGE('',*,*,#159,.F.);
#201=ORIENTED_EDGE('',*,*,#158,.F.);
#202=ORIENTED_EDGE('',*,*,#160,.F.);
#203=ORIENTED_EDGE('',*,*,#160,.T.);
#204=ORIENTED_EDGE('',*,*,#161,.T.);
#205=ORIENTED_EDGE('',*,*,#162,.F.);
#206=ORIENTED_EDGE('',*,*,#161,.F.);
#207=ORIENTED_EDGE('',*,*,#163,.T.);
#208=ORIENTED_EDGE('',*,*,#164,.T.);
#209=ORIENTED_EDGE('',*,*,#165,.T.);
#210=ORIENTED_EDGE('',*,*,#166,.T.);
#211=ORIENTED_EDGE('',*,*,#153,.T.);
#212=ORIENTED_EDGE('',*,*,#156,.T.);
#213=ORIENTED_EDGE('',*,*,#159,.T.);
#214=ORIENTED_EDGE('',*,*,#162,.T.);
#215=ORIENTED_EDGE('',*,*,#167,.T.);
#216=ORIENTED_EDGE('',*,*,#168,.T.);
#217=ORIENTED_EDGE('',*,*,#169,.T.);
#218=ORIENTED_EDGE('',*,*,#170,.F.);
#219=ORIENTED_EDGE('',*,*,#171,.F.);
#220=ORIENTED_EDGE('',*,*,#172,.T.);
#221=ORIENTED_EDGE('',*,*,#173,.F.);
#222=ORIENTED_EDGE('',*,*,#174,.F.);
#223=ORIENTED_EDGE('',*,*,#175,.T.);
#224=ORIENTED_EDGE('',*,*,#174,.T.);
#225=ORIENTED_EDGE('',*,*,#176,.F.);
#226=ORIENTED_EDGE('',*,*,#177,.F.);
#227=ORIENTED_EDGE('',*,*,#178,.T.);
#228=ORIENTED_EDGE('',*,*,#177,.T.);
#229=ORIENTED_EDGE('',*,*,#179,.F.);
#230=ORIENTED_EDGE('',*,*,#169,.F.);
#231=ORIENTED_EDGE('',*,*,#180,.T.);
#232=ORIENTED_EDGE('',*,*,#181,.F.);
#233=ORIENTED_EDGE('',*,*,#172,.F.);
#234=ORIENTED_EDGE('',*,*,#182,.T.);
#235=ORIENTED_EDGE('',*,*,#183,.F.);
#236=ORIENTED_EDGE('',*,*,#167,.F.);
#237=ORIENTED_EDGE('',*,*,#184,.F.);
#238=ORIENTED_EDGE('',*,*,#164,.F.);
#239=ORIENTED_EDGE('',*,*,#184,.T.);
#240=ORIENTED_EDGE('',*,*,#170,.T.);
#241=ORIENTED_EDGE('',*,*,#179,.T.);
#242=ORIENTED_EDGE('',*,*,#176,.T.);
#243=ORIENTED_EDGE('',*,*,#173,.T.);
#244=ORIENTED_EDGE('',*,*,#181,.T.);
#245=ORIENTED_EDGE('',*,*,#185,.F.);
#246=ORIENTED_EDGE('',*,*,#165,.F.);
#247=ORIENTED_EDGE('',*,*,#185,.T.);
#248=ORIENTED_EDGE('',*,*,#180,.F.);
#249=ORIENTED_EDGE('',*,*,#186,.F.);
#250=ORIENTED_EDGE('',*,*,#166,.F.);
#251=ORIENTED_EDGE('',*,*,#186,.T.);
#252=ORIENTED_EDGE('',*,*,#182,.F.);
#253=ORIENTED_EDGE('',*,*,#171,.T.);
#254=ORIENTED_EDGE('',*,*,#175,.F.);
#255=ORIENTED_EDGE('',*,*,#178,.F.);
#256=ORIENTED_EDGE('',*,*,#168,.F.);
#257=ORIENTED_EDGE('',*,*,#183,.T.);
#258=ORIENTED_EDGE('',*,*,#163,.F.);
#259=PLANE('',#305);
#260=PLANE('',#309);
#261=PLANE('',#313);
#262=PLANE('',#317);
#263=PLANE('',#321);
#264=PLANE('',#322);
#265=PLANE('',#323);
#266=PLANE('',#324);
#267=PLANE('',#325);
#268=PLANE('',#326);
#269=PLANE('',#327);
#270=PLANE('',#328);
#271=PLANE('',#329);
#272=PLANE('',#330);
#273=ADVANCED_FACE('',(#79),#259,.T.);
#274=ADVANCED_FACE('',(#80),#75,.F.);
#275=ADVANCED_FACE('',(#81),#260,.T.);
#276=ADVANCED_FACE('',(#82),#76,.F.);
#277=ADVANCED_FACE('',(#83),#261,.T.);
#278=ADVANCED_FACE('',(#84),#77,.F.);
#279=ADVANCED_FACE('',(#85),#262,.T.);
#280=ADVANCED_FACE('',(#86),#78,.F.);
#281=ADVANCED_FACE('',(#87,#15,#16,#17,#18),#263,.T.);
#282=ADVANCED_FACE('',(#88),#264,.T.);
#283=ADVANCED_FACE('',(#89),#265,.T.);
#284=ADVANCED_FACE('',(#90),#266,.T.);
#285=ADVANCED_FACE('',(#91),#267,.T.);
#286=ADVANCED_FACE('',(#92),#268,.T.);
#287=ADVANCED_FACE('',(#93),#269,.T.);
#288=ADVANCED_FACE('',(#94),#270,.T.);
#289=ADVANCED_FACE('',(#95),#271,.T.);
#290=ADVANCED_FACE('',(#96),#272,.T.);
#291=CLOSED_SHELL('',(#273,#274,#275,#276,#277,#278,#279,#280,#281,#282,
#283,#284,#285,#286,#287,#288,#289,#290));
#292=DERIVED_UNIT_ELEMENT(#294,1.);
#293=DERIVED_UNIT_ELEMENT(#497,-3.);
#294=(
MASS_UNIT()
NAMED_UNIT(*)
SI_UNIT(.KILO.,.GRAM.)
);
#295=DERIVED_UNIT((#292,#293));
#296=MEASURE_REPRESENTATION_ITEM('density measure',
POSITIVE_RATIO_MEASURE(7850.),#295);
#297=PROPERTY_DEFINITION_REPRESENTATION(#302,#299);
#298=PROPERTY_DEFINITION_REPRESENTATION(#303,#300);
#299=REPRESENTATION('material name',(#301),#494);
#300=REPRESENTATION('density',(#296),#494);
#301=DESCRIPTIVE_REPRESENTATION_ITEM('A\X\E7o','A\X\E7o');
#302=PROPERTY_DEFINITION('material property','material name',#504);
#303=PROPERTY_DEFINITION('material property','density of part',#504);
#304=AXIS2_PLACEMENT_3D('',#413,#331,#332);
#305=AXIS2_PLACEMENT_3D('',#414,#333,#334);
#306=AXIS2_PLACEMENT_3D('',#416,#335,#336);
#307=AXIS2_PLACEMENT_3D('',#417,#337,#338);
#308=AXIS2_PLACEMENT_3D('',#420,#340,#341);
#309=AXIS2_PLACEMENT_3D('',#421,#342,#343);
#310=AXIS2_PLACEMENT_3D('',#423,#344,#345);
#311=AXIS2_PLACEMENT_3D('',#424,#346,#347);
#312=AXIS2_PLACEMENT_3D('',#427,#349,#350);
#313=AXIS2_PLACEMENT_3D('',#428,#351,#352);
#314=AXIS2_PLACEMENT_3D('',#430,#353,#354);
#315=AXIS2_PLACEMENT_3D('',#431,#355,#356);
#316=AXIS2_PLACEMENT_3D('',#434,#358,#359);
#317=AXIS2_PLACEMENT_3D('',#435,#360,#361);
#318=AXIS2_PLACEMENT_3D('',#437,#362,#363);
#319=AXIS2_PLACEMENT_3D('',#438,#364,#365);
#320=AXIS2_PLACEMENT_3D('',#441,#367,#368);
#321=AXIS2_PLACEMENT_3D('',#442,#369,#370);
#322=AXIS2_PLACEMENT_3D('',#451,#375,#376);
#323=AXIS2_PLACEMENT_3D('',#460,#381,#382);
#324=AXIS2_PLACEMENT_3D('',#469,#387,#388);
#325=AXIS2_PLACEMENT_3D('',#475,#392,#393);
#326=AXIS2_PLACEMENT_3D('',#478,#396,#397);
#327=AXIS2_PLACEMENT_3D('',#484,#401,#402);
#328=AXIS2_PLACEMENT_3D('',#487,#405,#406);
#329=AXIS2_PLACEMENT_3D('',#489,#408,#409);
#330=AXIS2_PLACEMENT_3D('',#491,#411,#412);
#331=DIRECTION('axis',(0.,0.,1.));
#332=DIRECTION('refdir',(1.,0.,0.));
#333=DIRECTION('center_axis',(4.93038065763275E-32,1.,1.57772181044202E-30));
#334=DIRECTION('ref_axis',(1.,-4.9303806576318E-32,-6.00908212078366E-15));
#335=DIRECTION('center_axis',(-4.93038065763275E-32,-1.,-1.57772181044202E-30));
#336=DIRECTION('ref_axis',(1.,-4.7403299613488E-45,-6.00908212078366E-15));
#337=DIRECTION('center_axis',(4.7403299613488E-45,1.,-3.50324616081204E-46));
#338=DIRECTION('ref_axis',(1.,-4.7403299613488E-45,-6.00908212078366E-15));
#339=DIRECTION('',(4.7403299613488E-45,1.,-3.50324616081204E-46));
#340=DIRECTION('center_axis',(-9.4806599226976E-45,-1.,7.00649232162409E-46));
#341=DIRECTION('ref_axis',(1.,-4.7403299613488E-45,-6.00908212078366E-15));
#342=DIRECTION('center_axis',(4.93038065763275E-32,1.,1.57772181044202E-30));
#343=DIRECTION('ref_axis',(1.,-4.9303806576318E-32,-6.00908212078366E-15));
#344=DIRECTION('center_axis',(-4.93038065763275E-32,-1.,-1.57772181044202E-30));
#345=DIRECTION('ref_axis',(1.,-4.7403299613488E-45,-6.00908212078366E-15));
#346=DIRECTION('center_axis',(4.7403299613488E-45,1.,-3.50324616081204E-46));
#347=DIRECTION('ref_axis',(1.,-4.7403299613488E-45,-6.00908212078366E-15));
#348=DIRECTION('',(4.7403299613488E-45,1.,-3.50324616081204E-46));
#349=DIRECTION('center_axis',(-9.4806599226976E-45,-1.,7.00649232162409E-46));
#350=DIRECTION('ref_axis',(1.,-4.7403299613488E-45,-6.00908212078366E-15));
#351=DIRECTION('center_axis',(4.93038065763275E-32,1.,1.57772181044202E-30));
#352=DIRECTION('ref_axis',(1.,-4.9303806576318E-32,-6.00908212078366E-15));
#353=DIRECTION('center_axis',(-4.93038065763275E-32,-1.,-1.57772181044202E-30));
#354=DIRECTION('ref_axis',(1.,-4.7403299613488E-45,-6.00908212078366E-15));
#355=DIRECTION('center_axis',(4.7403299613488E-45,1.,-3.50324616081204E-46));
#356=DIRECTION('ref_axis',(1.,-4.7403299613488E-45,-6.00908212078366E-15));
#357=DIRECTION('',(4.7403299613488E-45,1.,-3.50324616081204E-46));
#358=DIRECTION('center_axis',(-9.4806599226976E-45,-1.,7.00649232162409E-46));
#359=DIRECTION('ref_axis',(1.,-4.7403299613488E-45,-6.00908212078366E-15));
#360=DIRECTION('center_axis',(4.93038065763275E-32,1.,1.57772181044202E-30));
#361=DIRECTION('ref_axis',(1.,-4.9303806576318E-32,-6.00908212078366E-15));
#362=DIRECTION('center_axis',(-4.93038065763275E-32,-1.,-1.57772181044202E-30));
#363=DIRECTION('ref_axis',(1.,-4.7403299613488E-45,-6.00908212078366E-15));
#364=DIRECTION('center_axis',(4.7403299613488E-45,1.,-3.50324616081204E-46));
#365=DIRECTION('ref_axis',(1.,-4.7403299613488E-45,-6.00908212078366E-15));
#366=DIRECTION('',(4.7403299613488E-45,1.,-3.50324616081204E-46));
#367=DIRECTION('center_axis',(-9.4806599226976E-45,-1.,7.00649232162409E-46));
#368=DIRECTION('ref_axis',(1.,-4.7403299613488E-45,-6.00908212078366E-15));
#369=DIRECTION('center_axis',(9.4806599226976E-45,1.,-7.00649232162409E-46));
#370=DIRECTION('ref_axis',(4.15163568451937E-90,7.00649232162409E-46,1.));
#371=DIRECTION('',(-1.,2.3701649806744E-44,6.00908212078366E-15));
#372=DIRECTION('',(6.00908212078366E-15,1.75162308040588E-45,1.));
#373=DIRECTION('',(1.,-2.3701649806744E-44,-6.00908212078366E-15));
#374=DIRECTION('',(-6.00908212078366E-15,-1.75162308040588E-45,-1.));
#375=DIRECTION('center_axis',(2.32812602674466E-44,1.,1.77635683940025E-16));
#376=DIRECTION('ref_axis',(-1.,2.3701649806744E-44,-2.36658271566304E-30));
#377=DIRECTION('',(-6.00908212078366E-15,-1.75162308040588E-45,-1.));
#378=DIRECTION('',(-1.,2.3701649806744E-44,-2.36658271566304E-30));
#379=DIRECTION('',(7.10542735760098E-16,-1.77635683940025E-16,1.));
#380=DIRECTION('',(-1.,2.3701649806744E-44,-2.36658271566304E-30));
#381=DIRECTION('center_axis',(0.936329177569045,-0.351123441588391,-7.27673948095841E-16));
#382=DIRECTION('ref_axis',(0.351123441588391,0.936329177569045,-1.53223011392198E-16));
#383=DIRECTION('',(-0.351123441588391,-0.936329177569045,1.53223011392198E-16));
#384=DIRECTION('',(7.10542735760098E-16,-1.77635683940025E-16,1.));
#385=DIRECTION('',(0.351123441588391,0.936329177569045,-1.53223011392198E-16));
#386=DIRECTION('',(7.10542735760098E-16,-1.77635683940025E-16,1.));
#387=DIRECTION('center_axis',(1.75644810927858E-32,-1.,-1.77635683940025E-16));
#388=DIRECTION('ref_axis',(1.,-2.3701649806744E-44,9.88792381306663E-17));
#389=DIRECTION('',(1.,-2.3701649806744E-44,9.88792381306663E-17));
#390=DIRECTION('',(1.,-2.3701649806744E-44,9.88792381306663E-17));
#391=DIRECTION('',(7.10542735760098E-16,-1.77635683940025E-16,1.));
#392=DIRECTION('center_axis',(-0.93632904236883,-0.351123802122086,6.02929682598802E-16));
#393=DIRECTION('ref_axis',(0.351123802122086,-0.93632904236883,1.42935933451178E-16));
#394=DIRECTION('',(0.351123802122086,-0.93632904236883,1.42935933451178E-16));
#395=DIRECTION('',(0.351123802122086,-0.93632904236883,1.42935933451178E-16));
#396=DIRECTION('center_axis',(2.32812602674466E-44,1.,1.77635683940025E-16));
#397=DIRECTION('ref_axis',(-1.,2.3701649806744E-44,-2.36658271566304E-30));
#398=DIRECTION('',(6.00908212078366E-15,1.75162308040588E-45,1.));
#399=DIRECTION('',(-1.,2.3701649806744E-44,-2.36658271566304E-30));
#400=DIRECTION('',(-1.,2.3701649806744E-44,-2.36658271566304E-30));
#401=DIRECTION('center_axis',(-1.,2.3701649806744E-44,6.00908212078365E-15));
#402=DIRECTION('ref_axis',(-6.00908212078366E-15,-1.75162308040588E-45,
-1.));
#403=DIRECTION('',(9.4806599226976E-45,1.,-7.00649232162409E-46));
#404=DIRECTION('',(-2.3701649806744E-44,-1.,1.75162308040602E-45));
#405=DIRECTION('center_axis',(6.00908212078365E-15,1.75162308040588E-45,
1.));
#406=DIRECTION('ref_axis',(-1.,2.3701649806744E-44,6.00908212078366E-15));
#407=DIRECTION('',(-2.3701649806744E-44,-1.,1.75162308040602E-45));
#408=DIRECTION('center_axis',(1.,-2.3701649806744E-44,-6.00908212078365E-15));
#409=DIRECTION('ref_axis',(6.00908212078366E-15,1.75162308040588E-45,1.));
#410=DIRECTION('',(-2.3701649806744E-44,-1.,1.75162308040602E-45));
#411=DIRECTION('center_axis',(-6.00908212078365E-15,-1.75162308040588E-45,
-1.));
#412=DIRECTION('ref_axis',(1.,-2.3701649806744E-44,-6.00908212078366E-15));
#413=CARTESIAN_POINT('',(0.,0.,0.));
#414=CARTESIAN_POINT('Origin',(341.488684356213,99.5099098051639,119.533117932865));
#415=CARTESIAN_POINT('',(339.371684356213,99.5099098051639,119.533117932865));
#416=CARTESIAN_POINT('Origin',(341.488684356213,99.5099098051639,119.533117932865));
#417=CARTESIAN_POINT('Origin',(341.488684356213,105.509909805164,119.533117932865));
#418=CARTESIAN_POINT('',(339.371684356213,105.509909805164,119.533117932865));
#419=CARTESIAN_POINT('',(339.371684356213,105.509909805164,119.533117932865));
#420=CARTESIAN_POINT('Origin',(341.488684356213,105.509909805164,119.533117932865));
#421=CARTESIAN_POINT('Origin',(341.488684356213,99.5099098051639,138.533118215987));
#422=CARTESIAN_POINT('',(339.371684356213,99.5099098051639,138.533118215987));
#423=CARTESIAN_POINT('Origin',(341.488684356213,99.5099098051639,138.533118215987));
#424=CARTESIAN_POINT('Origin',(341.488684356213,105.509909805164,138.533118215987));
#425=CARTESIAN_POINT('',(339.371684356213,105.509909805164,138.533118215987));
#426=CARTESIAN_POINT('',(339.371684356213,105.509909805164,138.533118215987));
#427=CARTESIAN_POINT('Origin',(341.488684356213,105.509909805164,138.533118215987));
#428=CARTESIAN_POINT('Origin',(349.488684475422,99.5099098051639,138.533118215987));
#429=CARTESIAN_POINT('',(347.371684475422,99.5099098051639,138.533118215987));
#430=CARTESIAN_POINT('Origin',(349.488684475422,99.5099098051639,138.533118215987));
#431=CARTESIAN_POINT('Origin',(349.488684475422,105.509909805164,138.533118215987));
#432=CARTESIAN_POINT('',(347.371684475422,105.509909805164,138.533118215987));
#433=CARTESIAN_POINT('',(347.371684475422,105.509909805164,138.533118215987));
#434=CARTESIAN_POINT('Origin',(349.488684475422,105.509909805164,138.533118215987));
#435=CARTESIAN_POINT('Origin',(349.488684475422,99.5099098051639,119.533117932865));
#436=CARTESIAN_POINT('',(347.371684475422,99.5099098051639,119.533117932865));
#437=CARTESIAN_POINT('Origin',(349.488684475422,99.5099098051639,119.533117932865));
#438=CARTESIAN_POINT('Origin',(349.488684475422,105.509909805164,119.533117932865));
#439=CARTESIAN_POINT('',(347.371684475422,105.509909805164,119.533117932865));
#440=CARTESIAN_POINT('',(347.371684475422,105.509909805164,119.533117932865));
#441=CARTESIAN_POINT('Origin',(349.488684475422,105.509909805164,119.533117932865));
#442=CARTESIAN_POINT('Origin',(345.988697082798,105.509909805164,129.033118131949));
#443=CARTESIAN_POINT('',(353.488697082798,105.509909805164,116.533118131949));
#444=CARTESIAN_POINT('',(338.488697082798,105.509909805164,116.533118131949));
#445=CARTESIAN_POINT('',(353.488697082798,105.509909805164,116.533118131949));
#446=CARTESIAN_POINT('',(338.488697082799,105.509909805164,141.533118131949));
#447=CARTESIAN_POINT('',(338.488697082798,105.509909805164,116.533118131949));
#448=CARTESIAN_POINT('',(353.488697082799,105.509909805164,141.533118131949));
#449=CARTESIAN_POINT('',(338.488697082799,105.509909805164,141.533118131949));
#450=CARTESIAN_POINT('',(353.488697082799,105.509909805164,141.533118131949));
#451=CARTESIAN_POINT('Origin',(354.488697082798,80.5099098051639,116.533118131948));
#452=CARTESIAN_POINT('',(338.488697082799,80.5099098051639,141.533118131949));
#453=CARTESIAN_POINT('',(338.488697082798,80.5099098051639,116.533118131949));
#454=CARTESIAN_POINT('',(338.488697082798,80.5099098051639,116.533118131949));
#455=CARTESIAN_POINT('',(337.488691812423,80.5099098051639,116.533118131948));
#456=CARTESIAN_POINT('',(338.488697082798,80.5099098051639,116.533118131948));
#457=CARTESIAN_POINT('',(337.488691812423,80.5099098051639,141.533118131948));
#458=CARTESIAN_POINT('',(337.488691812423,80.5099098051639,116.533118131948));
#459=CARTESIAN_POINT('',(338.488697082798,80.5099098051639,141.533118131948));
#460=CARTESIAN_POINT('Origin',(349.988697082798,68.5099098051639,116.533118131948));
#461=CARTESIAN_POINT('',(354.488697082798,80.5099098051639,116.533118131948));
#462=CARTESIAN_POINT('',(349.988697082798,68.5099098051639,116.533118131948));
#463=CARTESIAN_POINT('',(354.488697082798,80.5099098051639,116.533118131948));
#464=CARTESIAN_POINT('',(354.488697082798,80.5099098051639,141.533118131948));
#465=CARTESIAN_POINT('',(354.488697082798,80.5099098051639,116.533118131948));
#466=CARTESIAN_POINT('',(349.988697082798,68.5099098051639,141.533118131948));
#467=CARTESIAN_POINT('',(354.488697082798,80.5099098051639,141.533118131948));
#468=CARTESIAN_POINT('',(349.988697082798,68.5099098051639,116.533118131948));
#469=CARTESIAN_POINT('Origin',(341.988697082798,68.5099098051639,116.533118131948));
#470=CARTESIAN_POINT('',(341.988697082798,68.5099098051639,116.533118131948));
#471=CARTESIAN_POINT('',(345.988697082798,68.5099098051639,116.533118131948));
#472=CARTESIAN_POINT('',(341.988697082798,68.5099098051639,141.533118131948));
#473=CARTESIAN_POINT('',(345.988697082798,68.5099098051639,141.533118131948));
#474=CARTESIAN_POINT('',(341.988697082798,68.5099098051639,116.533118131948));
#475=CARTESIAN_POINT('Origin',(337.488691812423,80.5099098051639,116.533118131948));
#476=CARTESIAN_POINT('',(337.488691812423,80.5099098051639,116.533118131948));
#477=CARTESIAN_POINT('',(337.488691812423,80.5099098051639,141.533118131948));
#478=CARTESIAN_POINT('Origin',(354.488697082798,80.5099098051639,116.533118131948));
#479=CARTESIAN_POINT('',(353.488697082798,80.5099098051639,116.533118131949));
#480=CARTESIAN_POINT('',(353.488697082799,80.5099098051639,141.533118131949));
#481=CARTESIAN_POINT('',(353.488697082799,80.5099098051639,141.533118131949));
#482=CARTESIAN_POINT('',(338.488697082798,80.5099098051639,141.533118131948));
#483=CARTESIAN_POINT('',(338.488697082798,80.5099098051639,116.533118131948));
#484=CARTESIAN_POINT('Origin',(338.488697082799,95.5099098051639,141.533118131949));
#485=CARTESIAN_POINT('',(338.488697082798,95.5099098051639,116.533118131949));
#486=CARTESIAN_POINT('',(338.488697082799,95.5099098051639,141.533118131949));
#487=CARTESIAN_POINT('Origin',(353.488697082799,95.5099098051639,141.533118131949));
#488=CARTESIAN_POINT('',(353.488697082799,95.5099098051639,141.533118131949));
#489=CARTESIAN_POINT('Origin',(353.488697082798,95.5099098051639,116.533118131949));
#490=CARTESIAN_POINT('',(353.488697082798,95.5099098051639,116.533118131949));
#491=CARTESIAN_POINT('Origin',(338.488697082798,95.5099098051639,116.533118131949));
#492=UNCERTAINTY_MEASURE_WITH_UNIT(LENGTH_MEASURE(0.01),#496,
'DISTANCE_ACCURACY_VALUE',
'Maximum model space distance between geometric entities at asserted c
onnectivities');
#493=UNCERTAINTY_MEASURE_WITH_UNIT(LENGTH_MEASURE(0.01),#496,
'DISTANCE_ACCURACY_VALUE',
'Maximum model space distance between geometric entities at asserted c
onnectivities');
#494=(
GEOMETRIC_REPRESENTATION_CONTEXT(3)
GLOBAL_UNCERTAINTY_ASSIGNED_CONTEXT((#492))
GLOBAL_UNIT_ASSIGNED_CONTEXT((#496,#498,#499))
REPRESENTATION_CONTEXT('','3D')
);
#495=(
GEOMETRIC_REPRESENTATION_CONTEXT(3)
GLOBAL_UNCERTAINTY_ASSIGNED_CONTEXT((#493))
GLOBAL_UNIT_ASSIGNED_CONTEXT((#496,#498,#499))
REPRESENTATION_CONTEXT('','3D')
);
#496=(
LENGTH_UNIT()
NAMED_UNIT(*)
SI_UNIT(.MILLI.,.METRE.)
);
#497=(
LENGTH_UNIT()
NAMED_UNIT(*)
SI_UNIT($,.METRE.)
);
#498=(
NAMED_UNIT(*)
PLANE_ANGLE_UNIT()
SI_UNIT($,.RADIAN.)
);
#499=(
NAMED_UNIT(*)
SI_UNIT($,.STERADIAN.)
SOLID_ANGLE_UNIT()
);
#500=SHAPE_DEFINITION_REPRESENTATION(#501,#502);
#501=PRODUCT_DEFINITION_SHAPE('',$,#504);
#502=SHAPE_REPRESENTATION('',(#304),#494);
#503=PRODUCT_DEFINITION_CONTEXT('part definition',#508,'design');
#504=PRODUCT_DEFINITION('2026-06-22-01-03-19-697','Encaixe_Pa',#505,#503);
#505=PRODUCT_DEFINITION_FORMATION('',$,#510);
#506=PRODUCT_RELATED_PRODUCT_CATEGORY('Encaixe_Pa','Encaixe_Pa',(#510));
#507=APPLICATION_PROTOCOL_DEFINITION('international standard',
'automotive_design',2009,#508);
#508=APPLICATION_CONTEXT(
'Core Data for Automotive Mechanical Design Process');
#509=PRODUCT_CONTEXT('part definition',#508,'mechanical');
#510=PRODUCT('2026-06-22-01-03-19-697','Encaixe_Pa',$,(#509));
#511=PRESENTATION_STYLE_ASSIGNMENT((#512));
#512=SURFACE_STYLE_USAGE(.BOTH.,#513);
#513=SURFACE_SIDE_STYLE('',(#514));
#514=SURFACE_STYLE_FILL_AREA(#515);
#515=FILL_AREA_STYLE('A\X\E7o - Acetinado',(#516));
#516=FILL_AREA_STYLE_COLOUR('A\X\E7o - Acetinado',#517);
#517=COLOUR_RGB('A\X\E7o - Acetinado',0.627450980392157,0.627450980392157,
0.627450980392157);
ENDSEC;
END-ISO-10303-21;
