ISO-10303-21;
HEADER;
/* Generated by software containing ST-Developer
 * from STEP Tools, Inc. (www.steptools.com) 
 */

FILE_DESCRIPTION(
/* description */ (''),
/* implementation_level */ '2;1');

FILE_NAME(
/* name */ 'Base_Esteira.step',
/* time_stamp */ '2026-05-29T16:19:51-03:00',
/* author */ (''),
/* organization */ (''),
/* preprocessor_version */ 'ST-DEVELOPER v20.1',
/* originating_system */ 'Autodesk Translation Framework v15.8.0.0',
/* authorisation */ '');

FILE_SCHEMA (('AUTOMOTIVE_DESIGN { 1 0 10303 214 3 1 1 }'));
ENDSEC;

DATA;
#10=MECHANICAL_DESIGN_GEOMETRIC_PRESENTATION_REPRESENTATION('',(#17,#18),
#792);
#11=SHAPE_REPRESENTATION_RELATIONSHIP('SRR','None',#802,#12);
#12=ADVANCED_BREP_SHAPE_REPRESENTATION('',(#19,#20),#790);
#13=ITEM_DEFINED_TRANSFORMATION($,$,#488,#529);
#14=(
REPRESENTATION_RELATIONSHIP($,$,#803,#802)
REPRESENTATION_RELATIONSHIP_WITH_TRANSFORMATION(#13)
SHAPE_REPRESENTATION_RELATIONSHIP()
);
#15=CONTEXT_DEPENDENT_SHAPE_REPRESENTATION(#14,#801);
#16=NEXT_ASSEMBLY_USAGE_OCCURRENCE('Rolete(Direita):1',
'Rolete(Direita):1','Rolete(Direita):1',#805,#806,'Rolete(Direita):1');
#17=STYLED_ITEM('',(#817),#19);
#18=STYLED_ITEM('',(#817),#20);
#19=MANIFOLD_SOLID_BREP('Corpo15',#473);
#20=MANIFOLD_SOLID_BREP('Corpo20',#474);
#21=FACE_BOUND('',#84,.T.);
#22=FACE_BOUND('',#85,.T.);
#23=FACE_BOUND('',#86,.T.);
#24=FACE_BOUND('',#87,.T.);
#25=FACE_BOUND('',#92,.T.);
#26=FACE_BOUND('',#93,.T.);
#27=FACE_BOUND('',#94,.T.);
#28=FACE_BOUND('',#95,.T.);
#29=FACE_BOUND('',#104,.T.);
#30=FACE_BOUND('',#105,.T.);
#31=FACE_BOUND('',#106,.T.);
#32=FACE_BOUND('',#107,.T.);
#33=FACE_BOUND('',#110,.T.);
#34=FACE_BOUND('',#111,.T.);
#35=FACE_BOUND('',#112,.T.);
#36=FACE_BOUND('',#113,.T.);
#37=PLANE('',#501);
#38=PLANE('',#502);
#39=PLANE('',#503);
#40=PLANE('',#504);
#41=PLANE('',#505);
#42=PLANE('',#506);
#43=PLANE('',#507);
#44=PLANE('',#508);
#45=PLANE('',#521);
#46=PLANE('',#522);
#47=PLANE('',#523);
#48=PLANE('',#524);
#49=PLANE('',#525);
#50=PLANE('',#526);
#51=PLANE('',#527);
#52=PLANE('',#528);
#53=FACE_OUTER_BOUND('',#77,.T.);
#54=FACE_OUTER_BOUND('',#78,.T.);
#55=FACE_OUTER_BOUND('',#79,.T.);
#56=FACE_OUTER_BOUND('',#80,.T.);
#57=FACE_OUTER_BOUND('',#81,.T.);
#58=FACE_OUTER_BOUND('',#82,.T.);
#59=FACE_OUTER_BOUND('',#83,.T.);
#60=FACE_OUTER_BOUND('',#88,.T.);
#61=FACE_OUTER_BOUND('',#89,.T.);
#62=FACE_OUTER_BOUND('',#90,.T.);
#63=FACE_OUTER_BOUND('',#91,.T.);
#64=FACE_OUTER_BOUND('',#96,.T.);
#65=FACE_OUTER_BOUND('',#97,.T.);
#66=FACE_OUTER_BOUND('',#98,.T.);
#67=FACE_OUTER_BOUND('',#99,.T.);
#68=FACE_OUTER_BOUND('',#100,.T.);
#69=FACE_OUTER_BOUND('',#101,.T.);
#70=FACE_OUTER_BOUND('',#102,.T.);
#71=FACE_OUTER_BOUND('',#103,.T.);
#72=FACE_OUTER_BOUND('',#108,.T.);
#73=FACE_OUTER_BOUND('',#109,.T.);
#74=FACE_OUTER_BOUND('',#114,.T.);
#75=FACE_OUTER_BOUND('',#115,.T.);
#76=FACE_OUTER_BOUND('',#116,.T.);
#77=EDGE_LOOP('',(#321,#322,#323,#324));
#78=EDGE_LOOP('',(#325,#326,#327,#328));
#79=EDGE_LOOP('',(#329,#330,#331,#332));
#80=EDGE_LOOP('',(#333,#334,#335,#336));
#81=EDGE_LOOP('',(#337,#338,#339,#340));
#82=EDGE_LOOP('',(#341,#342,#343,#344));
#83=EDGE_LOOP('',(#345,#346,#347,#348,#349,#350));
#84=EDGE_LOOP('',(#351));
#85=EDGE_LOOP('',(#352));
#86=EDGE_LOOP('',(#353));
#87=EDGE_LOOP('',(#354));
#88=EDGE_LOOP('',(#355,#356,#357,#358));
#89=EDGE_LOOP('',(#359,#360,#361,#362));
#90=EDGE_LOOP('',(#363,#364,#365,#366));
#91=EDGE_LOOP('',(#367,#368,#369,#370,#371,#372));
#92=EDGE_LOOP('',(#373));
#93=EDGE_LOOP('',(#374));
#94=EDGE_LOOP('',(#375));
#95=EDGE_LOOP('',(#376));
#96=EDGE_LOOP('',(#377,#378,#379,#380));
#97=EDGE_LOOP('',(#381,#382,#383,#384));
#98=EDGE_LOOP('',(#385,#386,#387,#388));
#99=EDGE_LOOP('',(#389,#390,#391,#392));
#100=EDGE_LOOP('',(#393,#394,#395,#396));
#101=EDGE_LOOP('',(#397,#398,#399,#400));
#102=EDGE_LOOP('',(#401,#402,#403,#404));
#103=EDGE_LOOP('',(#405,#406,#407,#408,#409,#410));
#104=EDGE_LOOP('',(#411));
#105=EDGE_LOOP('',(#412));
#106=EDGE_LOOP('',(#413));
#107=EDGE_LOOP('',(#414));
#108=EDGE_LOOP('',(#415,#416,#417,#418));
#109=EDGE_LOOP('',(#419,#420,#421,#422,#423,#424));
#110=EDGE_LOOP('',(#425));
#111=EDGE_LOOP('',(#426));
#112=EDGE_LOOP('',(#427));
#113=EDGE_LOOP('',(#428));
#114=EDGE_LOOP('',(#429,#430,#431,#432));
#115=EDGE_LOOP('',(#433,#434,#435,#436));
#116=EDGE_LOOP('',(#437,#438,#439,#440));
#117=LINE('',#666,#161);
#118=LINE('',#672,#162);
#119=LINE('',#678,#163);
#120=LINE('',#684,#164);
#121=LINE('',#689,#165);
#122=LINE('',#691,#166);
#123=LINE('',#693,#167);
#124=LINE('',#694,#168);
#125=LINE('',#697,#169);
#126=LINE('',#699,#170);
#127=LINE('',#700,#171);
#128=LINE('',#703,#172);
#129=LINE('',#705,#173);
#130=LINE('',#707,#174);
#131=LINE('',#708,#175);
#132=LINE('',#711,#176);
#133=LINE('',#712,#177);
#134=LINE('',#715,#178);
#135=LINE('',#716,#179);
#136=LINE('',#719,#180);
#137=LINE('',#720,#181);
#138=LINE('',#722,#182);
#139=LINE('',#728,#183);
#140=LINE('',#734,#184);
#141=LINE('',#740,#185);
#142=LINE('',#746,#186);
#143=LINE('',#751,#187);
#144=LINE('',#753,#188);
#145=LINE('',#755,#189);
#146=LINE('',#756,#190);
#147=LINE('',#759,#191);
#148=LINE('',#761,#192);
#149=LINE('',#762,#193);
#150=LINE('',#765,#194);
#151=LINE('',#767,#195);
#152=LINE('',#769,#196);
#153=LINE('',#770,#197);
#154=LINE('',#773,#198);
#155=LINE('',#774,#199);
#156=LINE('',#777,#200);
#157=LINE('',#779,#201);
#158=LINE('',#780,#202);
#159=LINE('',#782,#203);
#160=LINE('',#783,#204);
#161=VECTOR('',#538,10.9);
#162=VECTOR('',#545,10.9);
#163=VECTOR('',#552,10.9);
#164=VECTOR('',#559,10.9);
#165=VECTOR('',#564,10.);
#166=VECTOR('',#565,10.);
#167=VECTOR('',#566,10.);
#168=VECTOR('',#567,10.);
#169=VECTOR('',#570,10.);
#170=VECTOR('',#571,10.);
#171=VECTOR('',#572,10.);
#172=VECTOR('',#575,10.);
#173=VECTOR('',#576,10.);
#174=VECTOR('',#577,10.);
#175=VECTOR('',#578,10.);
#176=VECTOR('',#581,10.);
#177=VECTOR('',#582,10.);
#178=VECTOR('',#585,10.);
#179=VECTOR('',#586,10.);
#180=VECTOR('',#589,10.);
#181=VECTOR('',#590,10.);
#182=VECTOR('',#593,10.);
#183=VECTOR('',#600,10.9);
#184=VECTOR('',#607,10.9);
#185=VECTOR('',#614,10.9);
#186=VECTOR('',#621,10.9);
#187=VECTOR('',#626,10.);
#188=VECTOR('',#627,10.);
#189=VECTOR('',#628,10.);
#190=VECTOR('',#629,10.);
#191=VECTOR('',#632,10.);
#192=VECTOR('',#633,10.);
#193=VECTOR('',#634,10.);
#194=VECTOR('',#637,10.);
#195=VECTOR('',#638,10.);
#196=VECTOR('',#639,10.);
#197=VECTOR('',#640,10.);
#198=VECTOR('',#643,10.);
#199=VECTOR('',#644,10.);
#200=VECTOR('',#647,10.);
#201=VECTOR('',#648,10.);
#202=VECTOR('',#649,10.);
#203=VECTOR('',#652,10.);
#204=VECTOR('',#653,10.);
#205=CIRCLE('',#490,10.9);
#206=CIRCLE('',#491,10.9);
#207=CIRCLE('',#493,10.9);
#208=CIRCLE('',#494,10.9);
#209=CIRCLE('',#496,10.9);
#210=CIRCLE('',#497,10.9);
#211=CIRCLE('',#499,10.9);
#212=CIRCLE('',#500,10.9);
#213=CIRCLE('',#510,10.9);
#214=CIRCLE('',#511,10.9);
#215=CIRCLE('',#513,10.9);
#216=CIRCLE('',#514,10.9);
#217=CIRCLE('',#516,10.9);
#218=CIRCLE('',#517,10.9);
#219=CIRCLE('',#519,10.9);
#220=CIRCLE('',#520,10.9);
#221=VERTEX_POINT('',#663);
#222=VERTEX_POINT('',#665);
#223=VERTEX_POINT('',#669);
#224=VERTEX_POINT('',#671);
#225=VERTEX_POINT('',#675);
#226=VERTEX_POINT('',#677);
#227=VERTEX_POINT('',#681);
#228=VERTEX_POINT('',#683);
#229=VERTEX_POINT('',#687);
#230=VERTEX_POINT('',#688);
#231=VERTEX_POINT('',#690);
#232=VERTEX_POINT('',#692);
#233=VERTEX_POINT('',#696);
#234=VERTEX_POINT('',#698);
#235=VERTEX_POINT('',#702);
#236=VERTEX_POINT('',#704);
#237=VERTEX_POINT('',#706);
#238=VERTEX_POINT('',#710);
#239=VERTEX_POINT('',#714);
#240=VERTEX_POINT('',#718);
#241=VERTEX_POINT('',#725);
#242=VERTEX_POINT('',#727);
#243=VERTEX_POINT('',#731);
#244=VERTEX_POINT('',#733);
#245=VERTEX_POINT('',#737);
#246=VERTEX_POINT('',#739);
#247=VERTEX_POINT('',#743);
#248=VERTEX_POINT('',#745);
#249=VERTEX_POINT('',#749);
#250=VERTEX_POINT('',#750);
#251=VERTEX_POINT('',#752);
#252=VERTEX_POINT('',#754);
#253=VERTEX_POINT('',#758);
#254=VERTEX_POINT('',#760);
#255=VERTEX_POINT('',#764);
#256=VERTEX_POINT('',#766);
#257=VERTEX_POINT('',#768);
#258=VERTEX_POINT('',#772);
#259=VERTEX_POINT('',#776);
#260=VERTEX_POINT('',#778);
#261=EDGE_CURVE('',#221,#221,#205,.T.);
#262=EDGE_CURVE('',#221,#222,#117,.T.);
#263=EDGE_CURVE('',#222,#222,#206,.T.);
#264=EDGE_CURVE('',#223,#223,#207,.T.);
#265=EDGE_CURVE('',#223,#224,#118,.T.);
#266=EDGE_CURVE('',#224,#224,#208,.T.);
#267=EDGE_CURVE('',#225,#225,#209,.T.);
#268=EDGE_CURVE('',#225,#226,#119,.T.);
#269=EDGE_CURVE('',#226,#226,#210,.T.);
#270=EDGE_CURVE('',#227,#227,#211,.T.);
#271=EDGE_CURVE('',#227,#228,#120,.T.);
#272=EDGE_CURVE('',#228,#228,#212,.T.);
#273=EDGE_CURVE('',#229,#230,#121,.T.);
#274=EDGE_CURVE('',#230,#231,#122,.T.);
#275=EDGE_CURVE('',#231,#232,#123,.T.);
#276=EDGE_CURVE('',#229,#232,#124,.T.);
#277=EDGE_CURVE('',#230,#233,#125,.T.);
#278=EDGE_CURVE('',#234,#233,#126,.T.);
#279=EDGE_CURVE('',#234,#231,#127,.T.);
#280=EDGE_CURVE('',#229,#235,#128,.T.);
#281=EDGE_CURVE('',#235,#236,#129,.T.);
#282=EDGE_CURVE('',#236,#237,#130,.T.);
#283=EDGE_CURVE('',#233,#237,#131,.T.);
#284=EDGE_CURVE('',#238,#234,#132,.T.);
#285=EDGE_CURVE('',#238,#237,#133,.T.);
#286=EDGE_CURVE('',#232,#239,#134,.T.);
#287=EDGE_CURVE('',#239,#235,#135,.T.);
#288=EDGE_CURVE('',#240,#238,#136,.T.);
#289=EDGE_CURVE('',#236,#240,#137,.T.);
#290=EDGE_CURVE('',#239,#240,#138,.T.);
#291=EDGE_CURVE('',#241,#241,#213,.T.);
#292=EDGE_CURVE('',#241,#242,#139,.T.);
#293=EDGE_CURVE('',#242,#242,#214,.T.);
#294=EDGE_CURVE('',#243,#243,#215,.T.);
#295=EDGE_CURVE('',#243,#244,#140,.T.);
#296=EDGE_CURVE('',#244,#244,#216,.T.);
#297=EDGE_CURVE('',#245,#245,#217,.T.);
#298=EDGE_CURVE('',#245,#246,#141,.T.);
#299=EDGE_CURVE('',#246,#246,#218,.T.);
#300=EDGE_CURVE('',#247,#247,#219,.T.);
#301=EDGE_CURVE('',#247,#248,#142,.T.);
#302=EDGE_CURVE('',#248,#248,#220,.T.);
#303=EDGE_CURVE('',#249,#250,#143,.T.);
#304=EDGE_CURVE('',#250,#251,#144,.T.);
#305=EDGE_CURVE('',#251,#252,#145,.T.);
#306=EDGE_CURVE('',#249,#252,#146,.T.);
#307=EDGE_CURVE('',#250,#253,#147,.T.);
#308=EDGE_CURVE('',#254,#253,#148,.T.);
#309=EDGE_CURVE('',#254,#251,#149,.T.);
#310=EDGE_CURVE('',#255,#249,#150,.T.);
#311=EDGE_CURVE('',#256,#255,#151,.T.);
#312=EDGE_CURVE('',#257,#256,#152,.T.);
#313=EDGE_CURVE('',#253,#257,#153,.T.);
#314=EDGE_CURVE('',#258,#254,#154,.T.);
#315=EDGE_CURVE('',#258,#257,#155,.T.);
#316=EDGE_CURVE('',#258,#259,#156,.T.);
#317=EDGE_CURVE('',#259,#260,#157,.T.);
#318=EDGE_CURVE('',#260,#252,#158,.T.);
#319=EDGE_CURVE('',#260,#255,#159,.T.);
#320=EDGE_CURVE('',#256,#259,#160,.T.);
#321=ORIENTED_EDGE('',*,*,#261,.F.);
#322=ORIENTED_EDGE('',*,*,#262,.T.);
#323=ORIENTED_EDGE('',*,*,#263,.F.);
#324=ORIENTED_EDGE('',*,*,#262,.F.);
#325=ORIENTED_EDGE('',*,*,#264,.F.);
#326=ORIENTED_EDGE('',*,*,#265,.T.);
#327=ORIENTED_EDGE('',*,*,#266,.F.);
#328=ORIENTED_EDGE('',*,*,#265,.F.);
#329=ORIENTED_EDGE('',*,*,#267,.F.);
#330=ORIENTED_EDGE('',*,*,#268,.T.);
#331=ORIENTED_EDGE('',*,*,#269,.F.);
#332=ORIENTED_EDGE('',*,*,#268,.F.);
#333=ORIENTED_EDGE('',*,*,#270,.F.);
#334=ORIENTED_EDGE('',*,*,#271,.T.);
#335=ORIENTED_EDGE('',*,*,#272,.F.);
#336=ORIENTED_EDGE('',*,*,#271,.F.);
#337=ORIENTED_EDGE('',*,*,#273,.T.);
#338=ORIENTED_EDGE('',*,*,#274,.T.);
#339=ORIENTED_EDGE('',*,*,#275,.T.);
#340=ORIENTED_EDGE('',*,*,#276,.F.);
#341=ORIENTED_EDGE('',*,*,#274,.F.);
#342=ORIENTED_EDGE('',*,*,#277,.T.);
#343=ORIENTED_EDGE('',*,*,#278,.F.);
#344=ORIENTED_EDGE('',*,*,#279,.T.);
#345=ORIENTED_EDGE('',*,*,#273,.F.);
#346=ORIENTED_EDGE('',*,*,#280,.T.);
#347=ORIENTED_EDGE('',*,*,#281,.T.);
#348=ORIENTED_EDGE('',*,*,#282,.T.);
#349=ORIENTED_EDGE('',*,*,#283,.F.);
#350=ORIENTED_EDGE('',*,*,#277,.F.);
#351=ORIENTED_EDGE('',*,*,#261,.T.);
#352=ORIENTED_EDGE('',*,*,#264,.T.);
#353=ORIENTED_EDGE('',*,*,#267,.T.);
#354=ORIENTED_EDGE('',*,*,#270,.T.);
#355=ORIENTED_EDGE('',*,*,#284,.T.);
#356=ORIENTED_EDGE('',*,*,#278,.T.);
#357=ORIENTED_EDGE('',*,*,#283,.T.);
#358=ORIENTED_EDGE('',*,*,#285,.F.);
#359=ORIENTED_EDGE('',*,*,#286,.T.);
#360=ORIENTED_EDGE('',*,*,#287,.T.);
#361=ORIENTED_EDGE('',*,*,#280,.F.);
#362=ORIENTED_EDGE('',*,*,#276,.T.);
#363=ORIENTED_EDGE('',*,*,#288,.T.);
#364=ORIENTED_EDGE('',*,*,#285,.T.);
#365=ORIENTED_EDGE('',*,*,#282,.F.);
#366=ORIENTED_EDGE('',*,*,#289,.T.);
#367=ORIENTED_EDGE('',*,*,#275,.F.);
#368=ORIENTED_EDGE('',*,*,#279,.F.);
#369=ORIENTED_EDGE('',*,*,#284,.F.);
#370=ORIENTED_EDGE('',*,*,#288,.F.);
#371=ORIENTED_EDGE('',*,*,#290,.F.);
#372=ORIENTED_EDGE('',*,*,#286,.F.);
#373=ORIENTED_EDGE('',*,*,#263,.T.);
#374=ORIENTED_EDGE('',*,*,#266,.T.);
#375=ORIENTED_EDGE('',*,*,#269,.T.);
#376=ORIENTED_EDGE('',*,*,#272,.T.);
#377=ORIENTED_EDGE('',*,*,#290,.T.);
#378=ORIENTED_EDGE('',*,*,#289,.F.);
#379=ORIENTED_EDGE('',*,*,#281,.F.);
#380=ORIENTED_EDGE('',*,*,#287,.F.);
#381=ORIENTED_EDGE('',*,*,#291,.F.);
#382=ORIENTED_EDGE('',*,*,#292,.T.);
#383=ORIENTED_EDGE('',*,*,#293,.F.);
#384=ORIENTED_EDGE('',*,*,#292,.F.);
#385=ORIENTED_EDGE('',*,*,#294,.F.);
#386=ORIENTED_EDGE('',*,*,#295,.T.);
#387=ORIENTED_EDGE('',*,*,#296,.F.);
#388=ORIENTED_EDGE('',*,*,#295,.F.);
#389=ORIENTED_EDGE('',*,*,#297,.F.);
#390=ORIENTED_EDGE('',*,*,#298,.T.);
#391=ORIENTED_EDGE('',*,*,#299,.F.);
#392=ORIENTED_EDGE('',*,*,#298,.F.);
#393=ORIENTED_EDGE('',*,*,#300,.F.);
#394=ORIENTED_EDGE('',*,*,#301,.T.);
#395=ORIENTED_EDGE('',*,*,#302,.F.);
#396=ORIENTED_EDGE('',*,*,#301,.F.);
#397=ORIENTED_EDGE('',*,*,#303,.T.);
#398=ORIENTED_EDGE('',*,*,#304,.T.);
#399=ORIENTED_EDGE('',*,*,#305,.T.);
#400=ORIENTED_EDGE('',*,*,#306,.F.);
#401=ORIENTED_EDGE('',*,*,#304,.F.);
#402=ORIENTED_EDGE('',*,*,#307,.T.);
#403=ORIENTED_EDGE('',*,*,#308,.F.);
#404=ORIENTED_EDGE('',*,*,#309,.T.);
#405=ORIENTED_EDGE('',*,*,#303,.F.);
#406=ORIENTED_EDGE('',*,*,#310,.F.);
#407=ORIENTED_EDGE('',*,*,#311,.F.);
#408=ORIENTED_EDGE('',*,*,#312,.F.);
#409=ORIENTED_EDGE('',*,*,#313,.F.);
#410=ORIENTED_EDGE('',*,*,#307,.F.);
#411=ORIENTED_EDGE('',*,*,#293,.T.);
#412=ORIENTED_EDGE('',*,*,#296,.T.);
#413=ORIENTED_EDGE('',*,*,#299,.T.);
#414=ORIENTED_EDGE('',*,*,#302,.T.);
#415=ORIENTED_EDGE('',*,*,#314,.T.);
#416=ORIENTED_EDGE('',*,*,#308,.T.);
#417=ORIENTED_EDGE('',*,*,#313,.T.);
#418=ORIENTED_EDGE('',*,*,#315,.F.);
#419=ORIENTED_EDGE('',*,*,#305,.F.);
#420=ORIENTED_EDGE('',*,*,#309,.F.);
#421=ORIENTED_EDGE('',*,*,#314,.F.);
#422=ORIENTED_EDGE('',*,*,#316,.T.);
#423=ORIENTED_EDGE('',*,*,#317,.T.);
#424=ORIENTED_EDGE('',*,*,#318,.T.);
#425=ORIENTED_EDGE('',*,*,#291,.T.);
#426=ORIENTED_EDGE('',*,*,#294,.T.);
#427=ORIENTED_EDGE('',*,*,#297,.T.);
#428=ORIENTED_EDGE('',*,*,#300,.T.);
#429=ORIENTED_EDGE('',*,*,#311,.T.);
#430=ORIENTED_EDGE('',*,*,#319,.F.);
#431=ORIENTED_EDGE('',*,*,#317,.F.);
#432=ORIENTED_EDGE('',*,*,#320,.F.);
#433=ORIENTED_EDGE('',*,*,#312,.T.);
#434=ORIENTED_EDGE('',*,*,#320,.T.);
#435=ORIENTED_EDGE('',*,*,#316,.F.);
#436=ORIENTED_EDGE('',*,*,#315,.T.);
#437=ORIENTED_EDGE('',*,*,#310,.T.);
#438=ORIENTED_EDGE('',*,*,#306,.T.);
#439=ORIENTED_EDGE('',*,*,#318,.F.);
#440=ORIENTED_EDGE('',*,*,#319,.T.);
#441=CYLINDRICAL_SURFACE('',#489,10.9);
#442=CYLINDRICAL_SURFACE('',#492,10.9);
#443=CYLINDRICAL_SURFACE('',#495,10.9);
#444=CYLINDRICAL_SURFACE('',#498,10.9);
#445=CYLINDRICAL_SURFACE('',#509,10.9);
#446=CYLINDRICAL_SURFACE('',#512,10.9);
#447=CYLINDRICAL_SURFACE('',#515,10.9);
#448=CYLINDRICAL_SURFACE('',#518,10.9);
#449=ADVANCED_FACE('',(#53),#441,.F.);
#450=ADVANCED_FACE('',(#54),#442,.F.);
#451=ADVANCED_FACE('',(#55),#443,.F.);
#452=ADVANCED_FACE('',(#56),#444,.F.);
#453=ADVANCED_FACE('',(#57),#37,.T.);
#454=ADVANCED_FACE('',(#58),#38,.T.);
#455=ADVANCED_FACE('',(#59,#21,#22,#23,#24),#39,.T.);
#456=ADVANCED_FACE('',(#60),#40,.T.);
#457=ADVANCED_FACE('',(#61),#41,.T.);
#458=ADVANCED_FACE('',(#62),#42,.T.);
#459=ADVANCED_FACE('',(#63,#25,#26,#27,#28),#43,.F.);
#460=ADVANCED_FACE('',(#64),#44,.F.);
#461=ADVANCED_FACE('',(#65),#445,.F.);
#462=ADVANCED_FACE('',(#66),#446,.F.);
#463=ADVANCED_FACE('',(#67),#447,.F.);
#464=ADVANCED_FACE('',(#68),#448,.F.);
#465=ADVANCED_FACE('',(#69),#45,.T.);
#466=ADVANCED_FACE('',(#70),#46,.T.);
#467=ADVANCED_FACE('',(#71,#29,#30,#31,#32),#47,.F.);
#468=ADVANCED_FACE('',(#72),#48,.T.);
#469=ADVANCED_FACE('',(#73,#33,#34,#35,#36),#49,.T.);
#470=ADVANCED_FACE('',(#74),#50,.F.);
#471=ADVANCED_FACE('',(#75),#51,.T.);
#472=ADVANCED_FACE('',(#76),#52,.T.);
#473=CLOSED_SHELL('',(#449,#450,#451,#452,#453,#454,#455,#456,#457,#458,
#459,#460));
#474=CLOSED_SHELL('',(#461,#462,#463,#464,#465,#466,#467,#468,#469,#470,
#471,#472));
#475=DERIVED_UNIT_ELEMENT(#477,1.);
#476=DERIVED_UNIT_ELEMENT(#794,-3.);
#477=(
MASS_UNIT()
NAMED_UNIT(*)
SI_UNIT(.KILO.,.GRAM.)
);
#478=DERIVED_UNIT((#475,#476));
#479=MEASURE_REPRESENTATION_ITEM('density measure',
POSITIVE_RATIO_MEASURE(7850.),#478);
#480=PROPERTY_DEFINITION_REPRESENTATION(#485,#482);
#481=PROPERTY_DEFINITION_REPRESENTATION(#486,#483);
#482=REPRESENTATION('material name',(#484),#791);
#483=REPRESENTATION('density',(#479),#791);
#484=DESCRIPTIVE_REPRESENTATION_ITEM('A\X\E7o','A\X\E7o');
#485=PROPERTY_DEFINITION('material property','material name',#806);
#486=PROPERTY_DEFINITION('material property','density of part',#806);
#487=AXIS2_PLACEMENT_3D('',#660,#530,#531);
#488=AXIS2_PLACEMENT_3D('',#661,#532,#533);
#489=AXIS2_PLACEMENT_3D('',#662,#534,#535);
#490=AXIS2_PLACEMENT_3D('',#664,#536,#537);
#491=AXIS2_PLACEMENT_3D('',#667,#539,#540);
#492=AXIS2_PLACEMENT_3D('',#668,#541,#542);
#493=AXIS2_PLACEMENT_3D('',#670,#543,#544);
#494=AXIS2_PLACEMENT_3D('',#673,#546,#547);
#495=AXIS2_PLACEMENT_3D('',#674,#548,#549);
#496=AXIS2_PLACEMENT_3D('',#676,#550,#551);
#497=AXIS2_PLACEMENT_3D('',#679,#553,#554);
#498=AXIS2_PLACEMENT_3D('',#680,#555,#556);
#499=AXIS2_PLACEMENT_3D('',#682,#557,#558);
#500=AXIS2_PLACEMENT_3D('',#685,#560,#561);
#501=AXIS2_PLACEMENT_3D('',#686,#562,#563);
#502=AXIS2_PLACEMENT_3D('',#695,#568,#569);
#503=AXIS2_PLACEMENT_3D('',#701,#573,#574);
#504=AXIS2_PLACEMENT_3D('',#709,#579,#580);
#505=AXIS2_PLACEMENT_3D('',#713,#583,#584);
#506=AXIS2_PLACEMENT_3D('',#717,#587,#588);
#507=AXIS2_PLACEMENT_3D('',#721,#591,#592);
#508=AXIS2_PLACEMENT_3D('',#723,#594,#595);
#509=AXIS2_PLACEMENT_3D('',#724,#596,#597);
#510=AXIS2_PLACEMENT_3D('',#726,#598,#599);
#511=AXIS2_PLACEMENT_3D('',#729,#601,#602);
#512=AXIS2_PLACEMENT_3D('',#730,#603,#604);
#513=AXIS2_PLACEMENT_3D('',#732,#605,#606);
#514=AXIS2_PLACEMENT_3D('',#735,#608,#609);
#515=AXIS2_PLACEMENT_3D('',#736,#610,#611);
#516=AXIS2_PLACEMENT_3D('',#738,#612,#613);
#517=AXIS2_PLACEMENT_3D('',#741,#615,#616);
#518=AXIS2_PLACEMENT_3D('',#742,#617,#618);
#519=AXIS2_PLACEMENT_3D('',#744,#619,#620);
#520=AXIS2_PLACEMENT_3D('',#747,#622,#623);
#521=AXIS2_PLACEMENT_3D('',#748,#624,#625);
#522=AXIS2_PLACEMENT_3D('',#757,#630,#631);
#523=AXIS2_PLACEMENT_3D('',#763,#635,#636);
#524=AXIS2_PLACEMENT_3D('',#771,#641,#642);
#525=AXIS2_PLACEMENT_3D('',#775,#645,#646);
#526=AXIS2_PLACEMENT_3D('',#781,#650,#651);
#527=AXIS2_PLACEMENT_3D('',#784,#654,#655);
#528=AXIS2_PLACEMENT_3D('',#785,#656,#657);
#529=AXIS2_PLACEMENT_3D('',#786,#658,#659);
#530=DIRECTION('axis',(0.,0.,1.));
#531=DIRECTION('refdir',(1.,0.,0.));
#532=DIRECTION('axis',(0.,0.,1.));
#533=DIRECTION('refdir',(1.,0.,0.));
#534=DIRECTION('center_axis',(0.,0.,1.));
#535=DIRECTION('ref_axis',(-1.,-3.46944695195361E-18,0.));
#536=DIRECTION('center_axis',(0.,0.,1.));
#537=DIRECTION('ref_axis',(-1.,-3.46944695195361E-18,0.));
#538=DIRECTION('',(0.,0.,1.));
#539=DIRECTION('center_axis',(0.,0.,-1.));
#540=DIRECTION('ref_axis',(-1.,-3.46944695195361E-18,0.));
#541=DIRECTION('center_axis',(0.,0.,1.));
#542=DIRECTION('ref_axis',(-1.,-3.46944695195361E-18,0.));
#543=DIRECTION('center_axis',(0.,0.,1.));
#544=DIRECTION('ref_axis',(-1.,-3.46944695195361E-18,0.));
#545=DIRECTION('',(0.,0.,1.));
#546=DIRECTION('center_axis',(0.,0.,-1.));
#547=DIRECTION('ref_axis',(-1.,-3.46944695195361E-18,0.));
#548=DIRECTION('center_axis',(0.,0.,1.));
#549=DIRECTION('ref_axis',(-1.,-3.46944695195361E-18,0.));
#550=DIRECTION('center_axis',(0.,0.,1.));
#551=DIRECTION('ref_axis',(-1.,-3.46944695195361E-18,0.));
#552=DIRECTION('',(0.,0.,1.));
#553=DIRECTION('center_axis',(0.,0.,-1.));
#554=DIRECTION('ref_axis',(-1.,-3.46944695195361E-18,0.));
#555=DIRECTION('center_axis',(0.,0.,1.));
#556=DIRECTION('ref_axis',(-1.,-3.46944695195361E-18,0.));
#557=DIRECTION('center_axis',(0.,0.,1.));
#558=DIRECTION('ref_axis',(-1.,-3.46944695195361E-18,0.));
#559=DIRECTION('',(0.,0.,1.));
#560=DIRECTION('center_axis',(0.,0.,-1.));
#561=DIRECTION('ref_axis',(-1.,-3.46944695195361E-18,0.));
#562=DIRECTION('center_axis',(-0.707106781186548,-0.707106781186548,0.));
#563=DIRECTION('ref_axis',(0.,0.,1.));
#564=DIRECTION('',(0.707106781186548,-0.707106781186548,0.));
#565=DIRECTION('',(0.,0.,1.));
#566=DIRECTION('',(-0.707106781186548,0.707106781186548,0.));
#567=DIRECTION('',(0.,0.,1.));
#568=DIRECTION('center_axis',(0.,-1.,0.));
#569=DIRECTION('ref_axis',(0.,0.,-1.));
#570=DIRECTION('',(1.,0.,0.));
#571=DIRECTION('',(0.,0.,-1.));
#572=DIRECTION('',(-1.,0.,0.));
#573=DIRECTION('center_axis',(0.,0.,-1.));
#574=DIRECTION('ref_axis',(-1.,0.,0.));
#575=DIRECTION('',(-0.581238193719097,0.813733471206735,0.));
#576=DIRECTION('',(1.,0.,0.));
#577=DIRECTION('',(-0.609129632299272,-0.79307067216923,0.));
#578=DIRECTION('',(0.707106781186548,0.707106781186548,0.));
#579=DIRECTION('center_axis',(0.707106781186548,-0.707106781186548,0.));
#580=DIRECTION('ref_axis',(0.,0.,-1.));
#581=DIRECTION('',(-0.707106781186548,-0.707106781186548,0.));
#582=DIRECTION('',(0.,0.,-1.));
#583=DIRECTION('center_axis',(-0.813733471206735,-0.581238193719097,0.));
#584=DIRECTION('ref_axis',(-0.581238193719097,0.813733471206735,0.));
#585=DIRECTION('',(-0.581238193719097,0.813733471206735,0.));
#586=DIRECTION('',(0.,0.,-1.));
#587=DIRECTION('center_axis',(0.79307067216923,-0.609129632299272,0.));
#588=DIRECTION('ref_axis',(-0.609129632299272,-0.79307067216923,0.));
#589=DIRECTION('',(-0.609129632299272,-0.79307067216923,0.));
#590=DIRECTION('',(0.,0.,1.));
#591=DIRECTION('center_axis',(0.,0.,-1.));
#592=DIRECTION('ref_axis',(-1.,0.,0.));
#593=DIRECTION('',(1.,0.,8.32667268468867E-17));
#594=DIRECTION('center_axis',(0.,-1.,0.));
#595=DIRECTION('ref_axis',(0.,0.,-1.));
#596=DIRECTION('center_axis',(0.,0.,-1.));
#597=DIRECTION('ref_axis',(1.,3.46944695195361E-18,0.));
#598=DIRECTION('center_axis',(-1.23259516440783E-32,6.16297582203915E-33,
-1.));
#599=DIRECTION('ref_axis',(1.,3.46944695195361E-18,0.));
#600=DIRECTION('',(0.,0.,-1.));
#601=DIRECTION('center_axis',(1.23259516440783E-32,-6.16297582203915E-33,
1.));
#602=DIRECTION('ref_axis',(1.,3.46944695195361E-18,0.));
#603=DIRECTION('center_axis',(0.,0.,-1.));
#604=DIRECTION('ref_axis',(1.,3.46944695195361E-18,0.));
#605=DIRECTION('center_axis',(-1.23259516440783E-32,6.16297582203915E-33,
-1.));
#606=DIRECTION('ref_axis',(1.,3.46944695195361E-18,0.));
#607=DIRECTION('',(0.,0.,-1.));
#608=DIRECTION('center_axis',(1.23259516440783E-32,-6.16297582203915E-33,
1.));
#609=DIRECTION('ref_axis',(1.,3.46944695195361E-18,0.));
#610=DIRECTION('center_axis',(0.,0.,-1.));
#611=DIRECTION('ref_axis',(1.,3.46944695195361E-18,0.));
#612=DIRECTION('center_axis',(-1.23259516440783E-32,6.16297582203915E-33,
-1.));
#613=DIRECTION('ref_axis',(1.,3.46944695195361E-18,0.));
#614=DIRECTION('',(0.,0.,-1.));
#615=DIRECTION('center_axis',(1.23259516440783E-32,-6.16297582203915E-33,
1.));
#616=DIRECTION('ref_axis',(1.,3.46944695195361E-18,0.));
#617=DIRECTION('center_axis',(0.,0.,-1.));
#618=DIRECTION('ref_axis',(1.,3.46944695195361E-18,0.));
#619=DIRECTION('center_axis',(-1.23259516440783E-32,6.16297582203915E-33,
-1.));
#620=DIRECTION('ref_axis',(1.,3.46944695195361E-18,0.));
#621=DIRECTION('',(0.,0.,-1.));
#622=DIRECTION('center_axis',(1.23259516440783E-32,-6.16297582203915E-33,
1.));
#623=DIRECTION('ref_axis',(1.,3.46944695195361E-18,0.));
#624=DIRECTION('center_axis',(-0.707106781186548,-0.707106781186548,8.71576399210525E-33));
#625=DIRECTION('ref_axis',(1.23259516440783E-32,0.,1.));
#626=DIRECTION('',(0.707106781186548,-0.707106781186548,-1.30736459881579E-32));
#627=DIRECTION('',(1.23259516440783E-32,0.,1.));
#628=DIRECTION('',(-0.707106781186548,0.707106781186548,1.30736459881579E-32));
#629=DIRECTION('',(1.23259516440783E-32,-6.16297582203915E-33,1.));
#630=DIRECTION('center_axis',(0.,-1.,0.));
#631=DIRECTION('ref_axis',(0.,0.,-1.));
#632=DIRECTION('',(1.,-1.47536611997088E-48,-1.23259516440783E-32));
#633=DIRECTION('',(-1.23259516440783E-32,0.,-1.));
#634=DIRECTION('',(-1.,1.47536611997088E-48,1.23259516440783E-32));
#635=DIRECTION('center_axis',(1.23259516440783E-32,-6.16297582203915E-33,
1.));
#636=DIRECTION('ref_axis',(1.,-1.47536611997088E-48,-1.23259516440783E-32));
#637=DIRECTION('',(0.581238193719097,-0.813733471206735,-1.21793335781041E-32));
#638=DIRECTION('',(-1.,1.47536611997088E-48,1.23259516440783E-32));
#639=DIRECTION('',(0.609129632299272,0.79307067216923,-2.62042701494872E-33));
#640=DIRECTION('',(0.707106781186548,0.707106781186548,-4.35788199605262E-33));
#641=DIRECTION('center_axis',(0.707106781186548,-0.707106781186548,-8.71576399210525E-33));
#642=DIRECTION('ref_axis',(-1.23259516440783E-32,0.,-1.));
#643=DIRECTION('',(-0.707106781186548,-0.707106781186548,4.35788199605262E-33));
#644=DIRECTION('',(-1.23259516440783E-32,6.16297582203915E-33,-1.));
#645=DIRECTION('center_axis',(1.23259516440783E-32,-6.16297582203915E-33,
1.));
#646=DIRECTION('ref_axis',(1.,-1.47536611997088E-48,-1.23259516440783E-32));
#647=DIRECTION('',(0.609129632299272,0.79307067216923,-2.62042701494872E-33));
#648=DIRECTION('',(-1.,1.47536611997088E-48,1.23259516440783E-32));
#649=DIRECTION('',(0.581238193719097,-0.813733471206735,-1.21793335781041E-32));
#650=DIRECTION('center_axis',(-1.47536611997088E-48,-1.,-6.16297582203915E-33));
#651=DIRECTION('ref_axis',(-1.23259516440783E-32,6.16297582203915E-33,-1.));
#652=DIRECTION('',(-1.23259516440783E-32,6.16297582203915E-33,-1.));
#653=DIRECTION('',(1.23259516440783E-32,-6.16297582203915E-33,1.));
#654=DIRECTION('center_axis',(0.79307067216923,-0.609129632299272,-1.35294019518426E-32));
#655=DIRECTION('ref_axis',(-0.609129632299272,-0.79307067216923,2.62042701494872E-33));
#656=DIRECTION('center_axis',(-0.813733471206735,-0.581238193719097,6.4478824825257E-33));
#657=DIRECTION('ref_axis',(-0.581238193719097,0.813733471206735,1.21793335781041E-32));
#658=DIRECTION('',(2.77555756156289E-17,1.3684555315672E-48,1.));
#659=DIRECTION('',(1.,-1.54074395550979E-33,-2.77555756156289E-17));
#660=CARTESIAN_POINT('',(0.,0.,0.));
#661=CARTESIAN_POINT('',(0.,0.,0.));
#662=CARTESIAN_POINT('Origin',(37.6443253479415,-19.9144421266666,-150.));
#663=CARTESIAN_POINT('',(48.5443253479415,-19.9144421266666,-150.));
#664=CARTESIAN_POINT('Origin',(37.6443253479415,-19.9144421266666,-150.));
#665=CARTESIAN_POINT('',(48.5443253479415,-19.9144421266666,-144.));
#666=CARTESIAN_POINT('',(48.5443253479415,-19.9144421266666,-150.));
#667=CARTESIAN_POINT('Origin',(37.6443253479415,-19.9144421266666,-144.));
#668=CARTESIAN_POINT('Origin',(-42.3556746520585,-19.9144421266666,-150.));
#669=CARTESIAN_POINT('',(-31.4556746520585,-19.9144421266666,-150.));
#670=CARTESIAN_POINT('Origin',(-42.3556746520585,-19.9144421266666,-150.));
#671=CARTESIAN_POINT('',(-31.4556746520585,-19.9144421266666,-144.));
#672=CARTESIAN_POINT('',(-31.4556746520585,-19.9144421266666,-150.));
#673=CARTESIAN_POINT('Origin',(-42.3556746520585,-19.9144421266666,-144.));
#674=CARTESIAN_POINT('Origin',(117.644325347941,-19.9144421266666,-150.));
#675=CARTESIAN_POINT('',(128.544325347941,-19.9144421266666,-150.));
#676=CARTESIAN_POINT('Origin',(117.644325347941,-19.9144421266666,-150.));
#677=CARTESIAN_POINT('',(128.544325347941,-19.9144421266666,-144.));
#678=CARTESIAN_POINT('',(128.544325347941,-19.9144421266666,-150.));
#679=CARTESIAN_POINT('Origin',(117.644325347941,-19.9144421266666,-144.));
#680=CARTESIAN_POINT('Origin',(-122.355674652059,-19.9144421266666,-150.));
#681=CARTESIAN_POINT('',(-111.455674652059,-19.9144421266666,-150.));
#682=CARTESIAN_POINT('Origin',(-122.355674652059,-19.9144421266666,-150.));
#683=CARTESIAN_POINT('',(-111.455674652059,-19.9144421266666,-144.));
#684=CARTESIAN_POINT('',(-111.455674652059,-19.9144421266666,-150.));
#685=CARTESIAN_POINT('Origin',(-122.355674652059,-19.9144421266666,-144.));
#686=CARTESIAN_POINT('Origin',(-143.893329394093,-31.5493388482694,2.99999999999992));
#687=CARTESIAN_POINT('',(-148.893329394093,-26.5493388482694,-150.));
#688=CARTESIAN_POINT('',(-138.893329394093,-36.5493388482694,-150.));
#689=CARTESIAN_POINT('',(-113.113664401604,-62.329003840759,-150.));
#690=CARTESIAN_POINT('',(-138.893329394093,-36.5493388482694,-144.));
#691=CARTESIAN_POINT('',(-138.893329394093,-36.5493388482694,2.99999999999992));
#692=CARTESIAN_POINT('',(-148.893329394093,-26.5493388482694,-144.));
#693=CARTESIAN_POINT('',(-113.113664401604,-62.329003840759,-144.));
#694=CARTESIAN_POINT('',(-148.893329394093,-26.5493388482694,150.));
#695=CARTESIAN_POINT('Origin',(140.,-36.5493388482694,150.));
#696=CARTESIAN_POINT('',(132.304194267958,-36.5493388482694,-150.));
#697=CARTESIAN_POINT('',(68.75,-36.5493388482694,-150.));
#698=CARTESIAN_POINT('',(132.304194267958,-36.5493388482694,-144.));
#699=CARTESIAN_POINT('',(132.304194267958,-36.5493388482694,-8.88178419700125E-14));
#700=CARTESIAN_POINT('',(68.75,-36.5493388482694,-144.));
#701=CARTESIAN_POINT('Origin',(-2.5,-13.2746694241347,-150.));
#702=CARTESIAN_POINT('',(-165.714285714286,-3.,-150.));
#703=CARTESIAN_POINT('',(-170.,3.,-150.));
#704=CARTESIAN_POINT('',(160.391611464084,-3.,-150.));
#705=CARTESIAN_POINT('',(-86.25,-3.,-150.));
#706=CARTESIAN_POINT('',(142.304194267958,-26.5493388482694,-150.));
#707=CARTESIAN_POINT('',(140.,-29.5493388482694,-150.));
#708=CARTESIAN_POINT('',(106.921813057002,-61.9317200592252,-150.));
#709=CARTESIAN_POINT('Origin',(137.304194267958,-31.5493388482694,-8.88178419700125E-14));
#710=CARTESIAN_POINT('',(142.304194267958,-26.5493388482694,-144.));
#711=CARTESIAN_POINT('',(106.921813057002,-61.9317200592252,-144.));
#712=CARTESIAN_POINT('',(142.304194267958,-26.5493388482694,-8.88178419700125E-14));
#713=CARTESIAN_POINT('Origin',(-146.750472251236,-29.5493388482694,150.));
#714=CARTESIAN_POINT('',(-165.714285714286,-3.,-144.));
#715=CARTESIAN_POINT('',(-154.986868567649,-18.018384005292,-144.));
#716=CARTESIAN_POINT('',(-165.714285714286,-3.,150.));
#717=CARTESIAN_POINT('Origin',(165.,2.99999999999999,150.));
#718=CARTESIAN_POINT('',(160.391611464084,-3.00000000000001,-144.));
#719=CARTESIAN_POINT('',(161.292252724855,-1.82738889689781,-144.));
#720=CARTESIAN_POINT('',(160.391611464084,-3.,150.));
#721=CARTESIAN_POINT('Origin',(-2.5,-13.2746694241347,-144.));
#722=CARTESIAN_POINT('',(-167.857142857143,-3.,-144.));
#723=CARTESIAN_POINT('Origin',(-170.,-3.,150.));
#724=CARTESIAN_POINT('Origin',(-42.167983975932,-20.,140.));
#725=CARTESIAN_POINT('',(-53.067983975932,-20.,140.));
#726=CARTESIAN_POINT('Origin',(-42.167983975932,-20.,140.));
#727=CARTESIAN_POINT('',(-53.067983975932,-20.,134.));
#728=CARTESIAN_POINT('',(-53.067983975932,-20.,140.));
#729=CARTESIAN_POINT('Origin',(-42.167983975932,-20.,134.));
#730=CARTESIAN_POINT('Origin',(37.832016024068,-20.,140.));
#731=CARTESIAN_POINT('',(26.932016024068,-20.,140.));
#732=CARTESIAN_POINT('Origin',(37.832016024068,-20.,140.));
#733=CARTESIAN_POINT('',(26.932016024068,-20.,134.));
#734=CARTESIAN_POINT('',(26.932016024068,-20.,140.));
#735=CARTESIAN_POINT('Origin',(37.832016024068,-20.,134.));
#736=CARTESIAN_POINT('Origin',(-122.167983975932,-20.,140.));
#737=CARTESIAN_POINT('',(-133.067983975932,-20.,140.));
#738=CARTESIAN_POINT('Origin',(-122.167983975932,-20.,140.));
#739=CARTESIAN_POINT('',(-133.067983975932,-20.,134.));
#740=CARTESIAN_POINT('',(-133.067983975932,-20.,140.));
#741=CARTESIAN_POINT('Origin',(-122.167983975932,-20.,134.));
#742=CARTESIAN_POINT('Origin',(117.832016024068,-20.,140.));
#743=CARTESIAN_POINT('',(106.932016024068,-20.,140.));
#744=CARTESIAN_POINT('Origin',(117.832016024068,-20.,140.));
#745=CARTESIAN_POINT('',(106.932016024068,-20.,134.));
#746=CARTESIAN_POINT('',(106.932016024068,-20.,140.));
#747=CARTESIAN_POINT('Origin',(117.832016024068,-20.,134.));
#748=CARTESIAN_POINT('Origin',(-143.893329394093,-31.5493388482694,140.));
#749=CARTESIAN_POINT('',(-148.893329394093,-26.5493388482694,134.));
#750=CARTESIAN_POINT('',(-138.893329394093,-36.5493388482694,134.));
#751=CARTESIAN_POINT('',(-113.113664401604,-62.329003840759,134.));
#752=CARTESIAN_POINT('',(-138.893329394093,-36.5493388482694,140.));
#753=CARTESIAN_POINT('',(-138.893329394093,-36.5493388482694,140.));
#754=CARTESIAN_POINT('',(-148.893329394093,-26.5493388482694,140.));
#755=CARTESIAN_POINT('',(-113.113664401604,-62.329003840759,140.));
#756=CARTESIAN_POINT('',(-148.893329394093,-26.5493388482694,140.));
#757=CARTESIAN_POINT('Origin',(140.,-36.5493388482694,140.));
#758=CARTESIAN_POINT('',(132.304194267958,-36.5493388482694,134.));
#759=CARTESIAN_POINT('',(-0.759953868314084,-36.5493388482694,134.));
#760=CARTESIAN_POINT('',(132.304194267958,-36.5493388482694,140.));
#761=CARTESIAN_POINT('',(132.304194267958,-36.5493388482694,137.));
#762=CARTESIAN_POINT('',(68.75,-36.5493388482694,140.));
#763=CARTESIAN_POINT('Origin',(-2.5,-13.2746694241347,134.));
#764=CARTESIAN_POINT('',(-165.714285714286,-3.00000000000001,134.));
#765=CARTESIAN_POINT('',(-146.576390407552,-29.7930534294267,134.));
#766=CARTESIAN_POINT('',(160.391611464084,-3.00000000000001,134.));
#767=CARTESIAN_POINT('',(-8.58695929165279,-3.,134.));
#768=CARTESIAN_POINT('',(142.304194267958,-26.5493388482694,134.));
#769=CARTESIAN_POINT('',(161.292252724855,-1.82738889689782,134.));
#770=CARTESIAN_POINT('',(106.921813057002,-61.9317200592252,134.));
#771=CARTESIAN_POINT('Origin',(137.304194267958,-31.5493388482694,137.));
#772=CARTESIAN_POINT('',(142.304194267958,-26.5493388482694,140.));
#773=CARTESIAN_POINT('',(106.921813057002,-61.9317200592252,140.));
#774=CARTESIAN_POINT('',(142.304194267958,-26.5493388482694,-10.0000000000001));
#775=CARTESIAN_POINT('Origin',(-2.5,-13.2746694241347,140.));
#776=CARTESIAN_POINT('',(160.391611464084,-3.,140.));
#777=CARTESIAN_POINT('',(140.,-29.5493388482694,140.));
#778=CARTESIAN_POINT('',(-165.714285714286,-3.,140.));
#779=CARTESIAN_POINT('',(-86.25,-3.,140.));
#780=CARTESIAN_POINT('',(-170.,3.,140.));
#781=CARTESIAN_POINT('Origin',(-170.,-3.,140.));
#782=CARTESIAN_POINT('',(-165.714285714286,-3.,140.));
#783=CARTESIAN_POINT('',(160.391611464084,-3.,140.));
#784=CARTESIAN_POINT('Origin',(165.,2.99999999999999,140.));
#785=CARTESIAN_POINT('Origin',(-146.750472251236,-29.5493388482694,140.));
#786=CARTESIAN_POINT('',(0.,-3.,0.));
#787=UNCERTAINTY_MEASURE_WITH_UNIT(LENGTH_MEASURE(0.01),#793,
'DISTANCE_ACCURACY_VALUE',
'Maximum model space distance between geometric entities at asserted c
onnectivities');
#788=UNCERTAINTY_MEASURE_WITH_UNIT(LENGTH_MEASURE(0.01),#793,
'DISTANCE_ACCURACY_VALUE',
'Maximum model space distance between geometric entities at asserted c
onnectivities');
#789=UNCERTAINTY_MEASURE_WITH_UNIT(LENGTH_MEASURE(0.01),#793,
'DISTANCE_ACCURACY_VALUE',
'Maximum model space distance between geometric entities at asserted c
onnectivities');
#790=(
GEOMETRIC_REPRESENTATION_CONTEXT(3)
GLOBAL_UNCERTAINTY_ASSIGNED_CONTEXT((#787))
GLOBAL_UNIT_ASSIGNED_CONTEXT((#793,#795,#796))
REPRESENTATION_CONTEXT('','3D')
);
#791=(
GEOMETRIC_REPRESENTATION_CONTEXT(3)
GLOBAL_UNCERTAINTY_ASSIGNED_CONTEXT((#788))
GLOBAL_UNIT_ASSIGNED_CONTEXT((#793,#795,#796))
REPRESENTATION_CONTEXT('','3D')
);
#792=(
GEOMETRIC_REPRESENTATION_CONTEXT(3)
GLOBAL_UNCERTAINTY_ASSIGNED_CONTEXT((#789))
GLOBAL_UNIT_ASSIGNED_CONTEXT((#793,#795,#796))
REPRESENTATION_CONTEXT('','3D')
);
#793=(
LENGTH_UNIT()
NAMED_UNIT(*)
SI_UNIT(.MILLI.,.METRE.)
);
#794=(
LENGTH_UNIT()
NAMED_UNIT(*)
SI_UNIT($,.METRE.)
);
#795=(
NAMED_UNIT(*)
PLANE_ANGLE_UNIT()
SI_UNIT($,.RADIAN.)
);
#796=(
NAMED_UNIT(*)
SI_UNIT($,.STERADIAN.)
SOLID_ANGLE_UNIT()
);
#797=SHAPE_DEFINITION_REPRESENTATION(#799,#802);
#798=SHAPE_DEFINITION_REPRESENTATION(#800,#803);
#799=PRODUCT_DEFINITION_SHAPE('',$,#805);
#800=PRODUCT_DEFINITION_SHAPE('',$,#806);
#801=PRODUCT_DEFINITION_SHAPE($,$,#16);
#802=SHAPE_REPRESENTATION('',(#487,#529),#790);
#803=SHAPE_REPRESENTATION('',(#488),#791);
#804=PRODUCT_DEFINITION_CONTEXT('part definition',#812,'design');
#805=PRODUCT_DEFINITION('2026-05-29-16-19-51-148','Base_Esteira',#807,#804);
#806=PRODUCT_DEFINITION('2026-05-29-16-19-51-146','Rolete(Direita)',#808,
#804);
#807=PRODUCT_DEFINITION_FORMATION('',$,#814);
#808=PRODUCT_DEFINITION_FORMATION('',$,#815);
#809=PRODUCT_RELATED_PRODUCT_CATEGORY('Base_Esteira','Base_Esteira',(#814));
#810=PRODUCT_RELATED_PRODUCT_CATEGORY('Rolete(Direita)',
'Rolete(Direita)',(#815));
#811=APPLICATION_PROTOCOL_DEFINITION('international standard',
'automotive_design',2009,#812);
#812=APPLICATION_CONTEXT(
'Core Data for Automotive Mechanical Design Process');
#813=PRODUCT_CONTEXT('part definition',#812,'mechanical');
#814=PRODUCT('2026-05-29-16-19-51-148','Base_Esteira',$,(#813));
#815=PRODUCT('2026-05-29-16-19-51-146','Rolete(Direita)',$,(#813));
#816=PRESENTATION_STYLE_ASSIGNMENT((#818));
#817=PRESENTATION_STYLE_ASSIGNMENT((#819));
#818=SURFACE_STYLE_USAGE(.BOTH.,#820);
#819=SURFACE_STYLE_USAGE(.BOTH.,#821);
#820=SURFACE_SIDE_STYLE('',(#822));
#821=SURFACE_SIDE_STYLE('',(#823));
#822=SURFACE_STYLE_FILL_AREA(#824);
#823=SURFACE_STYLE_FILL_AREA(#825);
#824=FILL_AREA_STYLE('A\X\E7o - Acetinado',(#826));
#825=FILL_AREA_STYLE('Placa de MDF',(#827));
#826=FILL_AREA_STYLE_COLOUR('A\X\E7o - Acetinado',#828);
#827=FILL_AREA_STYLE_COLOUR('Placa de MDF',#829);
#828=COLOUR_RGB('A\X\E7o - Acetinado',0.627450980392157,0.627450980392157,
0.627450980392157);
#829=COLOUR_RGB('Placa de MDF',0.,0.,0.);
ENDSEC;
END-ISO-10303-21;
