ISO-10303-21;
HEADER;
/* Generated by software containing ST-Developer
 * from STEP Tools, Inc. (www.steptools.com) 
 */

FILE_DESCRIPTION(
/* description */ (''),
/* implementation_level */ '2;1');

FILE_NAME(
/* name */ 'Chassi_Base.step',
/* time_stamp */ '2026-05-29T16:09:06-03:00',
/* author */ (''),
/* organization */ (''),
/* preprocessor_version */ 'ST-DEVELOPER v20.1',
/* originating_system */ 'Autodesk Translation Framework v15.8.0.0',
/* authorisation */ '');

FILE_SCHEMA (('AUTOMOTIVE_DESIGN { 1 0 10303 214 3 1 1 }'));
ENDSEC;

DATA;
#10=MECHANICAL_DESIGN_GEOMETRIC_PRESENTATION_REPRESENTATION('',(#13),#325);
#11=SHAPE_REPRESENTATION_RELATIONSHIP('SRR','None',#332,#12);
#12=ADVANCED_BREP_SHAPE_REPRESENTATION('',(#14),#324);
#13=STYLED_ITEM('',(#342),#14);
#14=MANIFOLD_SOLID_BREP('Corpo1',#197);
#15=FACE_BOUND('',#33,.T.);
#16=FACE_OUTER_BOUND('',#27,.T.);
#17=FACE_OUTER_BOUND('',#28,.T.);
#18=FACE_OUTER_BOUND('',#29,.T.);
#19=FACE_OUTER_BOUND('',#30,.T.);
#20=FACE_OUTER_BOUND('',#31,.T.);
#21=FACE_OUTER_BOUND('',#32,.T.);
#22=FACE_OUTER_BOUND('',#34,.T.);
#23=FACE_OUTER_BOUND('',#35,.T.);
#24=FACE_OUTER_BOUND('',#36,.T.);
#25=FACE_OUTER_BOUND('',#37,.T.);
#26=FACE_OUTER_BOUND('',#38,.T.);
#27=EDGE_LOOP('',(#127,#128,#129,#130));
#28=EDGE_LOOP('',(#131,#132,#133,#134));
#29=EDGE_LOOP('',(#135,#136,#137,#138));
#30=EDGE_LOOP('',(#139,#140,#141,#142));
#31=EDGE_LOOP('',(#143,#144,#145,#146));
#32=EDGE_LOOP('',(#147,#148,#149,#150));
#33=EDGE_LOOP('',(#151,#152,#153,#154));
#34=EDGE_LOOP('',(#155,#156,#157,#158));
#35=EDGE_LOOP('',(#159,#160,#161,#162));
#36=EDGE_LOOP('',(#163,#164,#165,#166));
#37=EDGE_LOOP('',(#167,#168,#169,#170));
#38=EDGE_LOOP('',(#171,#172,#173,#174));
#39=LINE('',#274,#63);
#40=LINE('',#276,#64);
#41=LINE('',#278,#65);
#42=LINE('',#279,#66);
#43=LINE('',#283,#67);
#44=LINE('',#285,#68);
#45=LINE('',#287,#69);
#46=LINE('',#288,#70);
#47=LINE('',#290,#71);
#48=LINE('',#291,#72);
#49=LINE('',#293,#73);
#50=LINE('',#295,#74);
#51=LINE('',#299,#75);
#52=LINE('',#301,#76);
#53=LINE('',#303,#77);
#54=LINE('',#304,#78);
#55=LINE('',#308,#79);
#56=LINE('',#310,#80);
#57=LINE('',#312,#81);
#58=LINE('',#313,#82);
#59=LINE('',#315,#83);
#60=LINE('',#316,#84);
#61=LINE('',#318,#85);
#62=LINE('',#320,#86);
#63=VECTOR('',#226,10.);
#64=VECTOR('',#227,10.);
#65=VECTOR('',#228,10.);
#66=VECTOR('',#229,10.);
#67=VECTOR('',#232,10.);
#68=VECTOR('',#233,10.);
#69=VECTOR('',#234,10.);
#70=VECTOR('',#235,10.);
#71=VECTOR('',#238,10.);
#72=VECTOR('',#239,10.);
#73=VECTOR('',#242,10.);
#74=VECTOR('',#245,10.);
#75=VECTOR('',#248,10.);
#76=VECTOR('',#249,10.);
#77=VECTOR('',#250,10.);
#78=VECTOR('',#251,10.);
#79=VECTOR('',#254,10.);
#80=VECTOR('',#255,10.);
#81=VECTOR('',#256,10.);
#82=VECTOR('',#257,10.);
#83=VECTOR('',#260,10.);
#84=VECTOR('',#261,10.);
#85=VECTOR('',#264,10.);
#86=VECTOR('',#267,10.);
#87=VERTEX_POINT('',#272);
#88=VERTEX_POINT('',#273);
#89=VERTEX_POINT('',#275);
#90=VERTEX_POINT('',#277);
#91=VERTEX_POINT('',#281);
#92=VERTEX_POINT('',#282);
#93=VERTEX_POINT('',#284);
#94=VERTEX_POINT('',#286);
#95=VERTEX_POINT('',#297);
#96=VERTEX_POINT('',#298);
#97=VERTEX_POINT('',#300);
#98=VERTEX_POINT('',#302);
#99=VERTEX_POINT('',#306);
#100=VERTEX_POINT('',#307);
#101=VERTEX_POINT('',#309);
#102=VERTEX_POINT('',#311);
#103=EDGE_CURVE('',#87,#88,#39,.T.);
#104=EDGE_CURVE('',#89,#87,#40,.T.);
#105=EDGE_CURVE('',#90,#89,#41,.T.);
#106=EDGE_CURVE('',#88,#90,#42,.T.);
#107=EDGE_CURVE('',#91,#92,#43,.T.);
#108=EDGE_CURVE('',#93,#91,#44,.T.);
#109=EDGE_CURVE('',#94,#93,#45,.T.);
#110=EDGE_CURVE('',#92,#94,#46,.T.);
#111=EDGE_CURVE('',#89,#94,#47,.T.);
#112=EDGE_CURVE('',#93,#90,#48,.T.);
#113=EDGE_CURVE('',#92,#87,#49,.T.);
#114=EDGE_CURVE('',#88,#91,#50,.T.);
#115=EDGE_CURVE('',#95,#96,#51,.T.);
#116=EDGE_CURVE('',#96,#97,#52,.T.);
#117=EDGE_CURVE('',#97,#98,#53,.T.);
#118=EDGE_CURVE('',#98,#95,#54,.T.);
#119=EDGE_CURVE('',#99,#100,#55,.T.);
#120=EDGE_CURVE('',#101,#99,#56,.T.);
#121=EDGE_CURVE('',#102,#101,#57,.T.);
#122=EDGE_CURVE('',#100,#102,#58,.T.);
#123=EDGE_CURVE('',#96,#99,#59,.T.);
#124=EDGE_CURVE('',#97,#100,#60,.T.);
#125=EDGE_CURVE('',#98,#102,#61,.T.);
#126=EDGE_CURVE('',#95,#101,#62,.T.);
#127=ORIENTED_EDGE('',*,*,#103,.F.);
#128=ORIENTED_EDGE('',*,*,#104,.F.);
#129=ORIENTED_EDGE('',*,*,#105,.F.);
#130=ORIENTED_EDGE('',*,*,#106,.F.);
#131=ORIENTED_EDGE('',*,*,#107,.F.);
#132=ORIENTED_EDGE('',*,*,#108,.F.);
#133=ORIENTED_EDGE('',*,*,#109,.F.);
#134=ORIENTED_EDGE('',*,*,#110,.F.);
#135=ORIENTED_EDGE('',*,*,#105,.T.);
#136=ORIENTED_EDGE('',*,*,#111,.T.);
#137=ORIENTED_EDGE('',*,*,#109,.T.);
#138=ORIENTED_EDGE('',*,*,#112,.T.);
#139=ORIENTED_EDGE('',*,*,#104,.T.);
#140=ORIENTED_EDGE('',*,*,#113,.F.);
#141=ORIENTED_EDGE('',*,*,#110,.T.);
#142=ORIENTED_EDGE('',*,*,#111,.F.);
#143=ORIENTED_EDGE('',*,*,#106,.T.);
#144=ORIENTED_EDGE('',*,*,#112,.F.);
#145=ORIENTED_EDGE('',*,*,#108,.T.);
#146=ORIENTED_EDGE('',*,*,#114,.F.);
#147=ORIENTED_EDGE('',*,*,#103,.T.);
#148=ORIENTED_EDGE('',*,*,#114,.T.);
#149=ORIENTED_EDGE('',*,*,#107,.T.);
#150=ORIENTED_EDGE('',*,*,#113,.T.);
#151=ORIENTED_EDGE('',*,*,#115,.T.);
#152=ORIENTED_EDGE('',*,*,#116,.T.);
#153=ORIENTED_EDGE('',*,*,#117,.T.);
#154=ORIENTED_EDGE('',*,*,#118,.T.);
#155=ORIENTED_EDGE('',*,*,#119,.F.);
#156=ORIENTED_EDGE('',*,*,#120,.F.);
#157=ORIENTED_EDGE('',*,*,#121,.F.);
#158=ORIENTED_EDGE('',*,*,#122,.F.);
#159=ORIENTED_EDGE('',*,*,#116,.F.);
#160=ORIENTED_EDGE('',*,*,#123,.T.);
#161=ORIENTED_EDGE('',*,*,#119,.T.);
#162=ORIENTED_EDGE('',*,*,#124,.F.);
#163=ORIENTED_EDGE('',*,*,#117,.F.);
#164=ORIENTED_EDGE('',*,*,#124,.T.);
#165=ORIENTED_EDGE('',*,*,#122,.T.);
#166=ORIENTED_EDGE('',*,*,#125,.F.);
#167=ORIENTED_EDGE('',*,*,#118,.F.);
#168=ORIENTED_EDGE('',*,*,#125,.T.);
#169=ORIENTED_EDGE('',*,*,#121,.T.);
#170=ORIENTED_EDGE('',*,*,#126,.F.);
#171=ORIENTED_EDGE('',*,*,#115,.F.);
#172=ORIENTED_EDGE('',*,*,#126,.T.);
#173=ORIENTED_EDGE('',*,*,#120,.T.);
#174=ORIENTED_EDGE('',*,*,#123,.F.);
#175=PLANE('',#211);
#176=PLANE('',#212);
#177=PLANE('',#213);
#178=PLANE('',#214);
#179=PLANE('',#215);
#180=PLANE('',#216);
#181=PLANE('',#217);
#182=PLANE('',#218);
#183=PLANE('',#219);
#184=PLANE('',#220);
#185=PLANE('',#221);
#186=ADVANCED_FACE('',(#16),#175,.F.);
#187=ADVANCED_FACE('',(#17),#176,.F.);
#188=ADVANCED_FACE('',(#18),#177,.F.);
#189=ADVANCED_FACE('',(#19),#178,.F.);
#190=ADVANCED_FACE('',(#20),#179,.F.);
#191=ADVANCED_FACE('',(#21,#15),#180,.T.);
#192=ADVANCED_FACE('',(#22),#181,.F.);
#193=ADVANCED_FACE('',(#23),#182,.F.);
#194=ADVANCED_FACE('',(#24),#183,.F.);
#195=ADVANCED_FACE('',(#25),#184,.F.);
#196=ADVANCED_FACE('',(#26),#185,.F.);
#197=CLOSED_SHELL('',(#186,#187,#188,#189,#190,#191,#192,#193,#194,#195,
#196));
#198=DERIVED_UNIT_ELEMENT(#200,1.);
#199=DERIVED_UNIT_ELEMENT(#327,-3.);
#200=(
MASS_UNIT()
NAMED_UNIT(*)
SI_UNIT(.KILO.,.GRAM.)
);
#201=DERIVED_UNIT((#198,#199));
#202=MEASURE_REPRESENTATION_ITEM('density measure',
POSITIVE_RATIO_MEASURE(7850.),#201);
#203=PROPERTY_DEFINITION_REPRESENTATION(#208,#205);
#204=PROPERTY_DEFINITION_REPRESENTATION(#209,#206);
#205=REPRESENTATION('material name',(#207),#324);
#206=REPRESENTATION('density',(#202),#324);
#207=DESCRIPTIVE_REPRESENTATION_ITEM('A\X\E7o','A\X\E7o');
#208=PROPERTY_DEFINITION('material property','material name',#334);
#209=PROPERTY_DEFINITION('material property','density of part',#334);
#210=AXIS2_PLACEMENT_3D('',#270,#222,#223);
#211=AXIS2_PLACEMENT_3D('',#271,#224,#225);
#212=AXIS2_PLACEMENT_3D('',#280,#230,#231);
#213=AXIS2_PLACEMENT_3D('',#289,#236,#237);
#214=AXIS2_PLACEMENT_3D('',#292,#240,#241);
#215=AXIS2_PLACEMENT_3D('',#294,#243,#244);
#216=AXIS2_PLACEMENT_3D('',#296,#246,#247);
#217=AXIS2_PLACEMENT_3D('',#305,#252,#253);
#218=AXIS2_PLACEMENT_3D('',#314,#258,#259);
#219=AXIS2_PLACEMENT_3D('',#317,#262,#263);
#220=AXIS2_PLACEMENT_3D('',#319,#265,#266);
#221=AXIS2_PLACEMENT_3D('',#321,#268,#269);
#222=DIRECTION('axis',(0.,0.,1.));
#223=DIRECTION('refdir',(1.,0.,0.));
#224=DIRECTION('center_axis',(1.,0.,0.));
#225=DIRECTION('ref_axis',(0.,0.,-1.));
#226=DIRECTION('',(0.,0.,1.));
#227=DIRECTION('',(0.,1.,0.));
#228=DIRECTION('',(0.,0.,-1.));
#229=DIRECTION('',(0.,-1.,0.));
#230=DIRECTION('center_axis',(-1.,0.,0.));
#231=DIRECTION('ref_axis',(0.,0.,1.));
#232=DIRECTION('',(0.,0.,-1.));
#233=DIRECTION('',(0.,1.,0.));
#234=DIRECTION('',(0.,0.,1.));
#235=DIRECTION('',(0.,-1.,0.));
#236=DIRECTION('center_axis',(0.,1.,0.));
#237=DIRECTION('ref_axis',(1.,0.,0.));
#238=DIRECTION('',(1.,0.,0.));
#239=DIRECTION('',(-1.,0.,0.));
#240=DIRECTION('center_axis',(0.,0.,1.));
#241=DIRECTION('ref_axis',(1.,0.,0.));
#242=DIRECTION('',(-1.,0.,0.));
#243=DIRECTION('center_axis',(0.,0.,-1.));
#244=DIRECTION('ref_axis',(-1.,0.,0.));
#245=DIRECTION('',(1.,0.,0.));
#246=DIRECTION('center_axis',(0.,1.,0.));
#247=DIRECTION('ref_axis',(0.,0.,1.));
#248=DIRECTION('',(0.,0.,-1.));
#249=DIRECTION('',(1.,0.,0.));
#250=DIRECTION('',(0.,0.,1.));
#251=DIRECTION('',(-1.,0.,0.));
#252=DIRECTION('center_axis',(0.,-1.,0.));
#253=DIRECTION('ref_axis',(0.,0.,-1.));
#254=DIRECTION('',(1.,0.,0.));
#255=DIRECTION('',(0.,0.,-1.));
#256=DIRECTION('',(-1.,0.,0.));
#257=DIRECTION('',(0.,0.,1.));
#258=DIRECTION('center_axis',(0.,0.,-1.));
#259=DIRECTION('ref_axis',(1.,0.,0.));
#260=DIRECTION('',(0.,-1.,0.));
#261=DIRECTION('',(0.,-1.,0.));
#262=DIRECTION('center_axis',(1.,0.,0.));
#263=DIRECTION('ref_axis',(0.,0.,1.));
#264=DIRECTION('',(0.,-1.,0.));
#265=DIRECTION('center_axis',(0.,0.,1.));
#266=DIRECTION('ref_axis',(-1.,0.,0.));
#267=DIRECTION('',(0.,-1.,0.));
#268=DIRECTION('center_axis',(-1.,0.,0.));
#269=DIRECTION('ref_axis',(0.,0.,-1.));
#270=CARTESIAN_POINT('',(0.,0.,0.));
#271=CARTESIAN_POINT('Origin',(-183.,0.,139.));
#272=CARTESIAN_POINT('',(-183.,6.,-139.));
#273=CARTESIAN_POINT('',(-183.,6.,139.));
#274=CARTESIAN_POINT('',(-183.,6.,69.5));
#275=CARTESIAN_POINT('',(-183.,0.,-139.));
#276=CARTESIAN_POINT('',(-183.,0.,-139.));
#277=CARTESIAN_POINT('',(-183.,0.,139.));
#278=CARTESIAN_POINT('',(-183.,0.,69.5));
#279=CARTESIAN_POINT('',(-183.,0.,139.));
#280=CARTESIAN_POINT('Origin',(183.,0.,-139.));
#281=CARTESIAN_POINT('',(183.,6.,139.));
#282=CARTESIAN_POINT('',(183.,6.,-139.));
#283=CARTESIAN_POINT('',(183.,6.,-69.4999999999999));
#284=CARTESIAN_POINT('',(183.,0.,139.));
#285=CARTESIAN_POINT('',(183.,0.,139.));
#286=CARTESIAN_POINT('',(183.,0.,-139.));
#287=CARTESIAN_POINT('',(183.,0.,-69.4999999999999));
#288=CARTESIAN_POINT('',(183.,0.,-139.));
#289=CARTESIAN_POINT('Origin',(1.06581410364015E-13,0.,1.06581410364015E-13));
#290=CARTESIAN_POINT('',(-94.4999999999999,0.,-139.));
#291=CARTESIAN_POINT('',(94.5,0.,139.));
#292=CARTESIAN_POINT('Origin',(-189.,0.,-139.));
#293=CARTESIAN_POINT('',(-94.4999999999999,6.,-139.));
#294=CARTESIAN_POINT('Origin',(189.,0.,139.));
#295=CARTESIAN_POINT('',(94.5,6.,139.));
#296=CARTESIAN_POINT('Origin',(1.06581410364015E-13,6.,1.06581410364015E-13));
#297=CARTESIAN_POINT('',(-76.,6.,33.));
#298=CARTESIAN_POINT('',(-76.,6.,-33.));
#299=CARTESIAN_POINT('',(-76.,6.,16.5000000000001));
#300=CARTESIAN_POINT('',(76.,6.,-33.));
#301=CARTESIAN_POINT('',(-37.9999999999999,6.,-33.));
#302=CARTESIAN_POINT('',(76.,6.,33.));
#303=CARTESIAN_POINT('',(76.,6.,-16.5));
#304=CARTESIAN_POINT('',(38.0000000000001,6.,33.));
#305=CARTESIAN_POINT('Origin',(8.88178419700125E-15,3.,0.));
#306=CARTESIAN_POINT('',(-76.,3.,-33.));
#307=CARTESIAN_POINT('',(76.,3.,-33.));
#308=CARTESIAN_POINT('',(-76.,3.,-33.));
#309=CARTESIAN_POINT('',(-76.,3.,33.));
#310=CARTESIAN_POINT('',(-76.,3.,33.));
#311=CARTESIAN_POINT('',(76.,3.,33.));
#312=CARTESIAN_POINT('',(76.,3.,33.));
#313=CARTESIAN_POINT('',(76.,3.,-33.));
#314=CARTESIAN_POINT('Origin',(-76.,6.,-33.));
#315=CARTESIAN_POINT('',(-76.,6.,-33.));
#316=CARTESIAN_POINT('',(76.,6.,-33.));
#317=CARTESIAN_POINT('Origin',(76.,6.,-33.));
#318=CARTESIAN_POINT('',(76.,6.,33.));
#319=CARTESIAN_POINT('Origin',(76.,6.,33.));
#320=CARTESIAN_POINT('',(-76.,6.,33.));
#321=CARTESIAN_POINT('Origin',(-76.,6.,33.));
#322=UNCERTAINTY_MEASURE_WITH_UNIT(LENGTH_MEASURE(0.01),#326,
'DISTANCE_ACCURACY_VALUE',
'Maximum model space distance between geometric entities at asserted c
onnectivities');
#323=UNCERTAINTY_MEASURE_WITH_UNIT(LENGTH_MEASURE(0.01),#326,
'DISTANCE_ACCURACY_VALUE',
'Maximum model space distance between geometric entities at asserted c
onnectivities');
#324=(
GEOMETRIC_REPRESENTATION_CONTEXT(3)
GLOBAL_UNCERTAINTY_ASSIGNED_CONTEXT((#322))
GLOBAL_UNIT_ASSIGNED_CONTEXT((#326,#328,#329))
REPRESENTATION_CONTEXT('','3D')
);
#325=(
GEOMETRIC_REPRESENTATION_CONTEXT(3)
GLOBAL_UNCERTAINTY_ASSIGNED_CONTEXT((#323))
GLOBAL_UNIT_ASSIGNED_CONTEXT((#326,#328,#329))
REPRESENTATION_CONTEXT('','3D')
);
#326=(
LENGTH_UNIT()
NAMED_UNIT(*)
SI_UNIT(.MILLI.,.METRE.)
);
#327=(
LENGTH_UNIT()
NAMED_UNIT(*)
SI_UNIT($,.METRE.)
);
#328=(
NAMED_UNIT(*)
PLANE_ANGLE_UNIT()
SI_UNIT($,.RADIAN.)
);
#329=(
NAMED_UNIT(*)
SI_UNIT($,.STERADIAN.)
SOLID_ANGLE_UNIT()
);
#330=SHAPE_DEFINITION_REPRESENTATION(#331,#332);
#331=PRODUCT_DEFINITION_SHAPE('',$,#334);
#332=SHAPE_REPRESENTATION('',(#210),#324);
#333=PRODUCT_DEFINITION_CONTEXT('part definition',#338,'design');
#334=PRODUCT_DEFINITION('2026-05-29-16-09-05-821','Chassi_Base',#335,#333);
#335=PRODUCT_DEFINITION_FORMATION('',$,#340);
#336=PRODUCT_RELATED_PRODUCT_CATEGORY('Chassi_Base','Chassi_Base',(#340));
#337=APPLICATION_PROTOCOL_DEFINITION('international standard',
'automotive_design',2009,#338);
#338=APPLICATION_CONTEXT(
'Core Data for Automotive Mechanical Design Process');
#339=PRODUCT_CONTEXT('part definition',#338,'mechanical');
#340=PRODUCT('2026-05-29-16-09-05-821','Chassi_Base',$,(#339));
#341=PRESENTATION_STYLE_ASSIGNMENT((#343));
#342=PRESENTATION_STYLE_ASSIGNMENT((#344));
#343=SURFACE_STYLE_USAGE(.BOTH.,#345);
#344=SURFACE_STYLE_USAGE(.BOTH.,#346);
#345=SURFACE_SIDE_STYLE('',(#347));
#346=SURFACE_SIDE_STYLE('',(#348));
#347=SURFACE_STYLE_FILL_AREA(#349);
#348=SURFACE_STYLE_FILL_AREA(#350);
#349=FILL_AREA_STYLE('A\X\E7o - Acetinado',(#351));
#350=FILL_AREA_STYLE('Placa de MDF',(#352));
#351=FILL_AREA_STYLE_COLOUR('A\X\E7o - Acetinado',#353);
#352=FILL_AREA_STYLE_COLOUR('Placa de MDF',#354);
#353=COLOUR_RGB('A\X\E7o - Acetinado',0.627450980392157,0.627450980392157,
0.627450980392157);
#354=COLOUR_RGB('Placa de MDF',0.,0.,0.);
ENDSEC;
END-ISO-10303-21;
