ISO-10303-21;
HEADER;
/* Generated by software containing ST-Developer
 * from STEP Tools, Inc. (www.steptools.com) 
 */

FILE_DESCRIPTION(
/* description */ (''),
/* implementation_level */ '2;1');

FILE_NAME(
/* name */ 'Eixo_SubEixo_Motor.step',
/* time_stamp */ '2026-05-29T16:21:50-03:00',
/* author */ (''),
/* organization */ (''),
/* preprocessor_version */ 'ST-DEVELOPER v20.1',
/* originating_system */ 'Autodesk Translation Framework v15.8.0.0',
/* authorisation */ '');

FILE_SCHEMA (('AUTOMOTIVE_DESIGN { 1 0 10303 214 3 1 1 }'));
ENDSEC;

DATA;
#10=MECHANICAL_DESIGN_GEOMETRIC_PRESENTATION_REPRESENTATION('',(#17,#18,
#19,#20),#326);
#11=SHAPE_REPRESENTATION_RELATIONSHIP('SRR','None',#333,#12);
#12=ADVANCED_BREP_SHAPE_REPRESENTATION('',(#21,#22,#23,#24),#325);
#13=FACE_BOUND('',#61,.T.);
#14=FACE_BOUND('',#65,.T.);
#15=FACE_BOUND('',#70,.T.);
#16=FACE_BOUND('',#74,.T.);
#17=STYLED_ITEM('',(#342),#21);
#18=STYLED_ITEM('',(#342),#22);
#19=STYLED_ITEM('',(#342),#23);
#20=STYLED_ITEM('',(#342),#24);
#21=MANIFOLD_SOLID_BREP('Corpo1',#175);
#22=MANIFOLD_SOLID_BREP('Corpo2',#176);
#23=MANIFOLD_SOLID_BREP('Corpo3',#177);
#24=MANIFOLD_SOLID_BREP('Corpo4',#178);
#25=LINE('',#284,#31);
#26=LINE('',#295,#32);
#27=LINE('',#299,#33);
#28=LINE('',#306,#34);
#29=LINE('',#317,#35);
#30=LINE('',#321,#36);
#31=VECTOR('',#226,1.5);
#32=VECTOR('',#241,1.5);
#33=VECTOR('',#246,3.99999782443045);
#34=VECTOR('',#255,1.5);
#35=VECTOR('',#270,1.5);
#36=VECTOR('',#275,3.99999782443045);
#37=CYLINDRICAL_SURFACE('',#194,1.5);
#38=CYLINDRICAL_SURFACE('',#200,1.5);
#39=CYLINDRICAL_SURFACE('',#202,3.99999782443045);
#40=CYLINDRICAL_SURFACE('',#207,1.5);
#41=CYLINDRICAL_SURFACE('',#213,1.5);
#42=CYLINDRICAL_SURFACE('',#215,3.99999782443045);
#43=FACE_OUTER_BOUND('',#57,.T.);
#44=FACE_OUTER_BOUND('',#58,.T.);
#45=FACE_OUTER_BOUND('',#59,.T.);
#46=FACE_OUTER_BOUND('',#60,.T.);
#47=FACE_OUTER_BOUND('',#62,.T.);
#48=FACE_OUTER_BOUND('',#63,.T.);
#49=FACE_OUTER_BOUND('',#64,.T.);
#50=FACE_OUTER_BOUND('',#66,.T.);
#51=FACE_OUTER_BOUND('',#67,.T.);
#52=FACE_OUTER_BOUND('',#68,.T.);
#53=FACE_OUTER_BOUND('',#69,.T.);
#54=FACE_OUTER_BOUND('',#71,.T.);
#55=FACE_OUTER_BOUND('',#72,.T.);
#56=FACE_OUTER_BOUND('',#73,.T.);
#57=EDGE_LOOP('',(#117));
#58=EDGE_LOOP('',(#118,#119,#120,#121));
#59=EDGE_LOOP('',(#122));
#60=EDGE_LOOP('',(#123));
#61=EDGE_LOOP('',(#124));
#62=EDGE_LOOP('',(#125,#126,#127,#128));
#63=EDGE_LOOP('',(#129,#130,#131,#132));
#64=EDGE_LOOP('',(#133));
#65=EDGE_LOOP('',(#134));
#66=EDGE_LOOP('',(#135));
#67=EDGE_LOOP('',(#136,#137,#138,#139));
#68=EDGE_LOOP('',(#140));
#69=EDGE_LOOP('',(#141));
#70=EDGE_LOOP('',(#142));
#71=EDGE_LOOP('',(#143,#144,#145,#146));
#72=EDGE_LOOP('',(#147,#148,#149,#150));
#73=EDGE_LOOP('',(#151));
#74=EDGE_LOOP('',(#152));
#75=CIRCLE('',#193,1.5);
#76=CIRCLE('',#195,1.5);
#77=CIRCLE('',#198,3.99999782443045);
#78=CIRCLE('',#199,1.5);
#79=CIRCLE('',#201,1.5);
#80=CIRCLE('',#203,3.99999782443045);
#81=CIRCLE('',#206,1.5);
#82=CIRCLE('',#208,1.5);
#83=CIRCLE('',#211,3.99999782443045);
#84=CIRCLE('',#212,1.5);
#85=CIRCLE('',#214,1.5);
#86=CIRCLE('',#216,3.99999782443045);
#87=VERTEX_POINT('',#280);
#88=VERTEX_POINT('',#283);
#89=VERTEX_POINT('',#288);
#90=VERTEX_POINT('',#290);
#91=VERTEX_POINT('',#293);
#92=VERTEX_POINT('',#297);
#93=VERTEX_POINT('',#302);
#94=VERTEX_POINT('',#305);
#95=VERTEX_POINT('',#310);
#96=VERTEX_POINT('',#312);
#97=VERTEX_POINT('',#315);
#98=VERTEX_POINT('',#319);
#99=EDGE_CURVE('',#87,#87,#75,.T.);
#100=EDGE_CURVE('',#87,#88,#25,.T.);
#101=EDGE_CURVE('',#88,#88,#76,.T.);
#102=EDGE_CURVE('',#89,#89,#77,.T.);
#103=EDGE_CURVE('',#90,#90,#78,.T.);
#104=EDGE_CURVE('',#91,#91,#79,.T.);
#105=EDGE_CURVE('',#91,#90,#26,.T.);
#106=EDGE_CURVE('',#92,#92,#80,.T.);
#107=EDGE_CURVE('',#92,#89,#27,.T.);
#108=EDGE_CURVE('',#93,#93,#81,.T.);
#109=EDGE_CURVE('',#93,#94,#28,.T.);
#110=EDGE_CURVE('',#94,#94,#82,.T.);
#111=EDGE_CURVE('',#95,#95,#83,.T.);
#112=EDGE_CURVE('',#96,#96,#84,.T.);
#113=EDGE_CURVE('',#97,#97,#85,.T.);
#114=EDGE_CURVE('',#97,#96,#29,.T.);
#115=EDGE_CURVE('',#98,#98,#86,.T.);
#116=EDGE_CURVE('',#98,#95,#30,.T.);
#117=ORIENTED_EDGE('',*,*,#99,.T.);
#118=ORIENTED_EDGE('',*,*,#99,.F.);
#119=ORIENTED_EDGE('',*,*,#100,.T.);
#120=ORIENTED_EDGE('',*,*,#101,.T.);
#121=ORIENTED_EDGE('',*,*,#100,.F.);
#122=ORIENTED_EDGE('',*,*,#101,.F.);
#123=ORIENTED_EDGE('',*,*,#102,.T.);
#124=ORIENTED_EDGE('',*,*,#103,.T.);
#125=ORIENTED_EDGE('',*,*,#104,.F.);
#126=ORIENTED_EDGE('',*,*,#105,.T.);
#127=ORIENTED_EDGE('',*,*,#103,.F.);
#128=ORIENTED_EDGE('',*,*,#105,.F.);
#129=ORIENTED_EDGE('',*,*,#106,.F.);
#130=ORIENTED_EDGE('',*,*,#107,.T.);
#131=ORIENTED_EDGE('',*,*,#102,.F.);
#132=ORIENTED_EDGE('',*,*,#107,.F.);
#133=ORIENTED_EDGE('',*,*,#106,.T.);
#134=ORIENTED_EDGE('',*,*,#104,.T.);
#135=ORIENTED_EDGE('',*,*,#108,.T.);
#136=ORIENTED_EDGE('',*,*,#108,.F.);
#137=ORIENTED_EDGE('',*,*,#109,.T.);
#138=ORIENTED_EDGE('',*,*,#110,.T.);
#139=ORIENTED_EDGE('',*,*,#109,.F.);
#140=ORIENTED_EDGE('',*,*,#110,.F.);
#141=ORIENTED_EDGE('',*,*,#111,.F.);
#142=ORIENTED_EDGE('',*,*,#112,.F.);
#143=ORIENTED_EDGE('',*,*,#113,.T.);
#144=ORIENTED_EDGE('',*,*,#114,.T.);
#145=ORIENTED_EDGE('',*,*,#112,.T.);
#146=ORIENTED_EDGE('',*,*,#114,.F.);
#147=ORIENTED_EDGE('',*,*,#115,.T.);
#148=ORIENTED_EDGE('',*,*,#116,.T.);
#149=ORIENTED_EDGE('',*,*,#111,.T.);
#150=ORIENTED_EDGE('',*,*,#116,.F.);
#151=ORIENTED_EDGE('',*,*,#115,.F.);
#152=ORIENTED_EDGE('',*,*,#113,.F.);
#153=PLANE('',#192);
#154=PLANE('',#196);
#155=PLANE('',#197);
#156=PLANE('',#204);
#157=PLANE('',#205);
#158=PLANE('',#209);
#159=PLANE('',#210);
#160=PLANE('',#217);
#161=ADVANCED_FACE('',(#43),#153,.T.);
#162=ADVANCED_FACE('',(#44),#37,.T.);
#163=ADVANCED_FACE('',(#45),#154,.F.);
#164=ADVANCED_FACE('',(#46,#13),#155,.F.);
#165=ADVANCED_FACE('',(#47),#38,.F.);
#166=ADVANCED_FACE('',(#48),#39,.T.);
#167=ADVANCED_FACE('',(#49,#14),#156,.T.);
#168=ADVANCED_FACE('',(#50),#157,.T.);
#169=ADVANCED_FACE('',(#51),#40,.T.);
#170=ADVANCED_FACE('',(#52),#158,.F.);
#171=ADVANCED_FACE('',(#53,#15),#159,.T.);
#172=ADVANCED_FACE('',(#54),#41,.F.);
#173=ADVANCED_FACE('',(#55),#42,.T.);
#174=ADVANCED_FACE('',(#56,#16),#160,.F.);
#175=CLOSED_SHELL('',(#161,#162,#163));
#176=CLOSED_SHELL('',(#164,#165,#166,#167));
#177=CLOSED_SHELL('',(#168,#169,#170));
#178=CLOSED_SHELL('',(#171,#172,#173,#174));
#179=DERIVED_UNIT_ELEMENT(#181,1.);
#180=DERIVED_UNIT_ELEMENT(#328,-3.);
#181=(
MASS_UNIT()
NAMED_UNIT(*)
SI_UNIT(.KILO.,.GRAM.)
);
#182=DERIVED_UNIT((#179,#180));
#183=MEASURE_REPRESENTATION_ITEM('density measure',
POSITIVE_RATIO_MEASURE(7850.),#182);
#184=PROPERTY_DEFINITION_REPRESENTATION(#189,#186);
#185=PROPERTY_DEFINITION_REPRESENTATION(#190,#187);
#186=REPRESENTATION('material name',(#188),#325);
#187=REPRESENTATION('density',(#183),#325);
#188=DESCRIPTIVE_REPRESENTATION_ITEM('A\X\E7o','A\X\E7o');
#189=PROPERTY_DEFINITION('material property','material name',#335);
#190=PROPERTY_DEFINITION('material property','density of part',#335);
#191=AXIS2_PLACEMENT_3D('',#278,#218,#219);
#192=AXIS2_PLACEMENT_3D('',#279,#220,#221);
#193=AXIS2_PLACEMENT_3D('',#281,#222,#223);
#194=AXIS2_PLACEMENT_3D('',#282,#224,#225);
#195=AXIS2_PLACEMENT_3D('',#285,#227,#228);
#196=AXIS2_PLACEMENT_3D('',#286,#229,#230);
#197=AXIS2_PLACEMENT_3D('',#287,#231,#232);
#198=AXIS2_PLACEMENT_3D('',#289,#233,#234);
#199=AXIS2_PLACEMENT_3D('',#291,#235,#236);
#200=AXIS2_PLACEMENT_3D('',#292,#237,#238);
#201=AXIS2_PLACEMENT_3D('',#294,#239,#240);
#202=AXIS2_PLACEMENT_3D('',#296,#242,#243);
#203=AXIS2_PLACEMENT_3D('',#298,#244,#245);
#204=AXIS2_PLACEMENT_3D('',#300,#247,#248);
#205=AXIS2_PLACEMENT_3D('',#301,#249,#250);
#206=AXIS2_PLACEMENT_3D('',#303,#251,#252);
#207=AXIS2_PLACEMENT_3D('',#304,#253,#254);
#208=AXIS2_PLACEMENT_3D('',#307,#256,#257);
#209=AXIS2_PLACEMENT_3D('',#308,#258,#259);
#210=AXIS2_PLACEMENT_3D('',#309,#260,#261);
#211=AXIS2_PLACEMENT_3D('',#311,#262,#263);
#212=AXIS2_PLACEMENT_3D('',#313,#264,#265);
#213=AXIS2_PLACEMENT_3D('',#314,#266,#267);
#214=AXIS2_PLACEMENT_3D('',#316,#268,#269);
#215=AXIS2_PLACEMENT_3D('',#318,#271,#272);
#216=AXIS2_PLACEMENT_3D('',#320,#273,#274);
#217=AXIS2_PLACEMENT_3D('',#322,#276,#277);
#218=DIRECTION('axis',(0.,0.,1.));
#219=DIRECTION('refdir',(1.,0.,0.));
#220=DIRECTION('center_axis',(1.11022302462517E-16,8.60422844084488E-16,
-1.));
#221=DIRECTION('ref_axis',(-1.,1.06055303696468E-47,-1.11022302462517E-16));
#222=DIRECTION('center_axis',(1.11022302462517E-16,8.60422844084488E-16,
-1.));
#223=DIRECTION('ref_axis',(-1.,-7.88860905221019E-32,0.));
#224=DIRECTION('center_axis',(0.,7.105427357601E-16,-1.));
#225=DIRECTION('ref_axis',(-1.,-7.88860905221019E-32,0.));
#226=DIRECTION('',(0.,-7.105427357601E-16,1.));
#227=DIRECTION('center_axis',(1.11022302462517E-16,8.60422844084488E-16,
-1.));
#228=DIRECTION('ref_axis',(-1.,0.,-1.11022302462517E-16));
#229=DIRECTION('center_axis',(1.11022302462517E-16,8.60422844084488E-16,
-1.));
#230=DIRECTION('ref_axis',(-1.,1.06055303696468E-47,-1.11022302462517E-16));
#231=DIRECTION('center_axis',(0.,0.,-1.));
#232=DIRECTION('ref_axis',(-1.,0.,0.));
#233=DIRECTION('center_axis',(0.,0.,1.));
#234=DIRECTION('ref_axis',(-1.,0.,0.));
#235=DIRECTION('center_axis',(-1.64083410646722E-63,-9.86076131526265E-32,
-1.));
#236=DIRECTION('ref_axis',(-1.,0.,1.64083410646722E-63));
#237=DIRECTION('center_axis',(0.,0.,-1.));
#238=DIRECTION('ref_axis',(-1.,0.,0.));
#239=DIRECTION('center_axis',(1.64083410646722E-63,9.86076131526265E-32,
1.));
#240=DIRECTION('ref_axis',(-1.,0.,1.64083410646722E-63));
#241=DIRECTION('',(0.,0.,1.));
#242=DIRECTION('center_axis',(0.,0.,-1.));
#243=DIRECTION('ref_axis',(-1.,0.,0.));
#244=DIRECTION('center_axis',(0.,0.,-1.));
#245=DIRECTION('ref_axis',(-1.,0.,0.));
#246=DIRECTION('',(0.,0.,1.));
#247=DIRECTION('center_axis',(0.,0.,-1.));
#248=DIRECTION('ref_axis',(-1.,0.,0.));
#249=DIRECTION('center_axis',(1.11022302462517E-16,8.60422844084488E-16,
-1.));
#250=DIRECTION('ref_axis',(-1.,1.06055303696468E-47,-1.11022302462517E-16));
#251=DIRECTION('center_axis',(1.11022302462517E-16,8.60422844084488E-16,
-1.));
#252=DIRECTION('ref_axis',(-1.,-7.88860905221019E-32,0.));
#253=DIRECTION('center_axis',(0.,7.105427357601E-16,-1.));
#254=DIRECTION('ref_axis',(-1.,-7.88860905221019E-32,0.));
#255=DIRECTION('',(0.,-7.105427357601E-16,1.));
#256=DIRECTION('center_axis',(1.11022302462517E-16,8.60422844084488E-16,
-1.));
#257=DIRECTION('ref_axis',(-1.,0.,-1.11022302462517E-16));
#258=DIRECTION('center_axis',(1.11022302462517E-16,8.60422844084488E-16,
-1.));
#259=DIRECTION('ref_axis',(-1.,1.06055303696468E-47,-1.11022302462517E-16));
#260=DIRECTION('center_axis',(0.,0.,-1.));
#261=DIRECTION('ref_axis',(-1.,0.,0.));
#262=DIRECTION('center_axis',(0.,0.,1.));
#263=DIRECTION('ref_axis',(-1.,0.,0.));
#264=DIRECTION('center_axis',(1.64083410646722E-63,9.86076131526265E-32,
-1.));
#265=DIRECTION('ref_axis',(-1.,0.,-1.64083410646722E-63));
#266=DIRECTION('center_axis',(0.,0.,-1.));
#267=DIRECTION('ref_axis',(-1.,0.,0.));
#268=DIRECTION('center_axis',(-1.64083410646722E-63,-9.86076131526265E-32,
1.));
#269=DIRECTION('ref_axis',(-1.,0.,-1.64083410646722E-63));
#270=DIRECTION('',(0.,0.,-1.));
#271=DIRECTION('center_axis',(0.,0.,-1.));
#272=DIRECTION('ref_axis',(-1.,0.,0.));
#273=DIRECTION('center_axis',(0.,0.,-1.));
#274=DIRECTION('ref_axis',(-1.,0.,0.));
#275=DIRECTION('',(0.,0.,-1.));
#276=DIRECTION('center_axis',(0.,0.,-1.));
#277=DIRECTION('ref_axis',(-1.,0.,0.));
#278=CARTESIAN_POINT('',(0.,0.,0.));
#279=CARTESIAN_POINT('Origin',(150.,31.000000089407,-183.057));
#280=CARTESIAN_POINT('',(151.5,31.0000000894068,-183.057));
#281=CARTESIAN_POINT('Origin',(150.,31.000000089407,-183.057));
#282=CARTESIAN_POINT('Origin',(150.,31.000000089407,-153.65));
#283=CARTESIAN_POINT('',(151.5,31.000000089407,-153.65));
#284=CARTESIAN_POINT('',(151.5,31.000000089407,-153.65));
#285=CARTESIAN_POINT('Origin',(150.,31.000000089407,-153.65));
#286=CARTESIAN_POINT('Origin',(150.,31.000000089407,-153.65));
#287=CARTESIAN_POINT('Origin',(150.,31.000000089407,-175.057));
#288=CARTESIAN_POINT('',(153.99999782443,31.000000089407,-175.057));
#289=CARTESIAN_POINT('Origin',(150.,31.000000089407,-175.057));
#290=CARTESIAN_POINT('',(151.5,31.000000089407,-175.057));
#291=CARTESIAN_POINT('Origin',(150.,31.000000089407,-175.057));
#292=CARTESIAN_POINT('Origin',(150.,31.000000089407,-179.057));
#293=CARTESIAN_POINT('',(151.5,31.000000089407,-183.057));
#294=CARTESIAN_POINT('Origin',(150.,31.000000089407,-183.057));
#295=CARTESIAN_POINT('',(151.5,31.000000089407,-179.057));
#296=CARTESIAN_POINT('Origin',(150.,31.000000089407,-179.057));
#297=CARTESIAN_POINT('',(153.99999782443,31.000000089407,-183.057));
#298=CARTESIAN_POINT('Origin',(150.,31.000000089407,-183.057));
#299=CARTESIAN_POINT('',(153.99999782443,31.000000089407,-179.057));
#300=CARTESIAN_POINT('Origin',(150.,31.000000089407,-183.057));
#301=CARTESIAN_POINT('Origin',(150.000000000002,31.0000000894067,153.7));
#302=CARTESIAN_POINT('',(151.500000000002,31.0000000894065,153.7));
#303=CARTESIAN_POINT('Origin',(150.000000000002,31.0000000894067,153.7));
#304=CARTESIAN_POINT('Origin',(150.000000000002,31.0000000894067,183.107));
#305=CARTESIAN_POINT('',(151.500000000002,31.0000000894067,183.107));
#306=CARTESIAN_POINT('',(151.500000000002,31.0000000894067,183.107));
#307=CARTESIAN_POINT('Origin',(150.000000000002,31.0000000894067,183.107));
#308=CARTESIAN_POINT('Origin',(150.000000000002,31.0000000894067,183.107));
#309=CARTESIAN_POINT('Origin',(150.,31.000000089407,175.057));
#310=CARTESIAN_POINT('',(153.99999782443,31.000000089407,175.057));
#311=CARTESIAN_POINT('Origin',(150.,31.000000089407,175.057));
#312=CARTESIAN_POINT('',(151.5,31.000000089407,175.057));
#313=CARTESIAN_POINT('Origin',(150.,31.000000089407,175.057));
#314=CARTESIAN_POINT('Origin',(150.,31.000000089407,179.057));
#315=CARTESIAN_POINT('',(151.5,31.000000089407,183.057));
#316=CARTESIAN_POINT('Origin',(150.,31.000000089407,183.057));
#317=CARTESIAN_POINT('',(151.5,31.000000089407,179.057));
#318=CARTESIAN_POINT('Origin',(150.,31.000000089407,179.057));
#319=CARTESIAN_POINT('',(153.99999782443,31.000000089407,183.057));
#320=CARTESIAN_POINT('Origin',(150.,31.000000089407,183.057));
#321=CARTESIAN_POINT('',(153.99999782443,31.000000089407,179.057));
#322=CARTESIAN_POINT('Origin',(150.,31.000000089407,183.057));
#323=UNCERTAINTY_MEASURE_WITH_UNIT(LENGTH_MEASURE(0.01),#327,
'DISTANCE_ACCURACY_VALUE',
'Maximum model space distance between geometric entities at asserted c
onnectivities');
#324=UNCERTAINTY_MEASURE_WITH_UNIT(LENGTH_MEASURE(0.01),#327,
'DISTANCE_ACCURACY_VALUE',
'Maximum model space distance between geometric entities at asserted c
onnectivities');
#325=(
GEOMETRIC_REPRESENTATION_CONTEXT(3)
GLOBAL_UNCERTAINTY_ASSIGNED_CONTEXT((#323))
GLOBAL_UNIT_ASSIGNED_CONTEXT((#327,#329,#330))
REPRESENTATION_CONTEXT('','3D')
);
#326=(
GEOMETRIC_REPRESENTATION_CONTEXT(3)
GLOBAL_UNCERTAINTY_ASSIGNED_CONTEXT((#324))
GLOBAL_UNIT_ASSIGNED_CONTEXT((#327,#329,#330))
REPRESENTATION_CONTEXT('','3D')
);
#327=(
LENGTH_UNIT()
NAMED_UNIT(*)
SI_UNIT(.MILLI.,.METRE.)
);
#328=(
LENGTH_UNIT()
NAMED_UNIT(*)
SI_UNIT($,.METRE.)
);
#329=(
NAMED_UNIT(*)
PLANE_ANGLE_UNIT()
SI_UNIT($,.RADIAN.)
);
#330=(
NAMED_UNIT(*)
SI_UNIT($,.STERADIAN.)
SOLID_ANGLE_UNIT()
);
#331=SHAPE_DEFINITION_REPRESENTATION(#332,#333);
#332=PRODUCT_DEFINITION_SHAPE('',$,#335);
#333=SHAPE_REPRESENTATION('',(#191),#325);
#334=PRODUCT_DEFINITION_CONTEXT('part definition',#339,'design');
#335=PRODUCT_DEFINITION('2026-05-29-16-21-49-963','Eixo_SubEixo_Motor',
#336,#334);
#336=PRODUCT_DEFINITION_FORMATION('',$,#341);
#337=PRODUCT_RELATED_PRODUCT_CATEGORY('Eixo_SubEixo_Motor',
'Eixo_SubEixo_Motor',(#341));
#338=APPLICATION_PROTOCOL_DEFINITION('international standard',
'automotive_design',2009,#339);
#339=APPLICATION_CONTEXT(
'Core Data for Automotive Mechanical Design Process');
#340=PRODUCT_CONTEXT('part definition',#339,'mechanical');
#341=PRODUCT('2026-05-29-16-21-49-963','Eixo_SubEixo_Motor',$,(#340));
#342=PRESENTATION_STYLE_ASSIGNMENT((#343));
#343=SURFACE_STYLE_USAGE(.BOTH.,#344);
#344=SURFACE_SIDE_STYLE('',(#345));
#345=SURFACE_STYLE_FILL_AREA(#346);
#346=FILL_AREA_STYLE('A\X\E7o - Acetinado',(#347));
#347=FILL_AREA_STYLE_COLOUR('A\X\E7o - Acetinado',#348);
#348=COLOUR_RGB('A\X\E7o - Acetinado',0.627450980392157,0.627450980392157,
0.627450980392157);
ENDSEC;
END-ISO-10303-21;
