ISO-10303-21;
HEADER;
/* Generated by software containing ST-Developer
 * from STEP Tools, Inc. (www.steptools.com) 
 */

FILE_DESCRIPTION(
/* description */ (''),
/* implementation_level */ '2;1');

FILE_NAME(
/* name */ 'Engrenagens_Inf.step',
/* time_stamp */ '2026-05-29T16:21:45-03:00',
/* author */ (''),
/* organization */ (''),
/* preprocessor_version */ 'ST-DEVELOPER v20.1',
/* originating_system */ 'Autodesk Translation Framework v15.8.0.0',
/* authorisation */ '');

FILE_SCHEMA (('AUTOMOTIVE_DESIGN { 1 0 10303 214 3 1 1 }'));
ENDSEC;

DATA;
#10=MECHANICAL_DESIGN_GEOMETRIC_PRESENTATION_REPRESENTATION('',(#13,#14,
#15,#16,#17,#18,#19,#20),#1496);
#11=SHAPE_REPRESENTATION_RELATIONSHIP('SRR','None',#1503,#12);
#12=ADVANCED_BREP_SHAPE_REPRESENTATION('',(#21,#22,#23,#24,#25,#26,#27,
#28),#1495);
#13=STYLED_ITEM('',(#1512),#21);
#14=STYLED_ITEM('',(#1512),#22);
#15=STYLED_ITEM('',(#1512),#23);
#16=STYLED_ITEM('',(#1512),#24);
#17=STYLED_ITEM('',(#1512),#25);
#18=STYLED_ITEM('',(#1512),#26);
#19=STYLED_ITEM('',(#1512),#27);
#20=STYLED_ITEM('',(#1512),#28);
#21=MANIFOLD_SOLID_BREP('Corpo1',#829);
#22=MANIFOLD_SOLID_BREP('Corpo2',#830);
#23=MANIFOLD_SOLID_BREP('Corpo3',#831);
#24=MANIFOLD_SOLID_BREP('Corpo4',#832);
#25=MANIFOLD_SOLID_BREP('Corpo5',#833);
#26=MANIFOLD_SOLID_BREP('Corpo6',#834);
#27=MANIFOLD_SOLID_BREP('Corpo7',#835);
#28=MANIFOLD_SOLID_BREP('Corpo8',#836);
#29=FACE_BOUND('',#159,.T.);
#30=FACE_BOUND('',#161,.T.);
#31=FACE_BOUND('',#165,.T.);
#32=FACE_BOUND('',#168,.T.);
#33=FACE_BOUND('',#171,.T.);
#34=FACE_BOUND('',#173,.T.);
#35=FACE_BOUND('',#177,.T.);
#36=FACE_BOUND('',#180,.T.);
#37=FACE_BOUND('',#183,.T.);
#38=FACE_BOUND('',#185,.T.);
#39=FACE_BOUND('',#189,.T.);
#40=FACE_BOUND('',#192,.T.);
#41=FACE_BOUND('',#195,.T.);
#42=FACE_BOUND('',#197,.T.);
#43=FACE_BOUND('',#201,.T.);
#44=FACE_BOUND('',#204,.T.);
#45=FACE_BOUND('',#207,.T.);
#46=FACE_BOUND('',#209,.T.);
#47=FACE_BOUND('',#213,.T.);
#48=FACE_BOUND('',#216,.T.);
#49=FACE_BOUND('',#219,.T.);
#50=FACE_BOUND('',#221,.T.);
#51=FACE_BOUND('',#225,.T.);
#52=FACE_BOUND('',#228,.T.);
#53=FACE_BOUND('',#231,.T.);
#54=FACE_BOUND('',#233,.T.);
#55=FACE_BOUND('',#237,.T.);
#56=FACE_BOUND('',#240,.T.);
#57=FACE_BOUND('',#243,.T.);
#58=FACE_BOUND('',#245,.T.);
#59=FACE_BOUND('',#249,.T.);
#60=FACE_BOUND('',#252,.T.);
#61=PLANE('',#853);
#62=PLANE('',#855);
#63=PLANE('',#862);
#64=PLANE('',#865);
#65=PLANE('',#869);
#66=PLANE('',#871);
#67=PLANE('',#878);
#68=PLANE('',#881);
#69=PLANE('',#885);
#70=PLANE('',#887);
#71=PLANE('',#894);
#72=PLANE('',#897);
#73=PLANE('',#901);
#74=PLANE('',#903);
#75=PLANE('',#910);
#76=PLANE('',#913);
#77=PLANE('',#917);
#78=PLANE('',#919);
#79=PLANE('',#926);
#80=PLANE('',#929);
#81=PLANE('',#933);
#82=PLANE('',#935);
#83=PLANE('',#942);
#84=PLANE('',#945);
#85=PLANE('',#949);
#86=PLANE('',#951);
#87=PLANE('',#958);
#88=PLANE('',#961);
#89=PLANE('',#965);
#90=PLANE('',#967);
#91=PLANE('',#974);
#92=PLANE('',#977);
#93=FACE_OUTER_BOUND('',#157,.T.);
#94=FACE_OUTER_BOUND('',#158,.T.);
#95=FACE_OUTER_BOUND('',#160,.T.);
#96=FACE_OUTER_BOUND('',#162,.T.);
#97=FACE_OUTER_BOUND('',#163,.T.);
#98=FACE_OUTER_BOUND('',#164,.T.);
#99=FACE_OUTER_BOUND('',#166,.T.);
#100=FACE_OUTER_BOUND('',#167,.T.);
#101=FACE_OUTER_BOUND('',#169,.T.);
#102=FACE_OUTER_BOUND('',#170,.T.);
#103=FACE_OUTER_BOUND('',#172,.T.);
#104=FACE_OUTER_BOUND('',#174,.T.);
#105=FACE_OUTER_BOUND('',#175,.T.);
#106=FACE_OUTER_BOUND('',#176,.T.);
#107=FACE_OUTER_BOUND('',#178,.T.);
#108=FACE_OUTER_BOUND('',#179,.T.);
#109=FACE_OUTER_BOUND('',#181,.T.);
#110=FACE_OUTER_BOUND('',#182,.T.);
#111=FACE_OUTER_BOUND('',#184,.T.);
#112=FACE_OUTER_BOUND('',#186,.T.);
#113=FACE_OUTER_BOUND('',#187,.T.);
#114=FACE_OUTER_BOUND('',#188,.T.);
#115=FACE_OUTER_BOUND('',#190,.T.);
#116=FACE_OUTER_BOUND('',#191,.T.);
#117=FACE_OUTER_BOUND('',#193,.T.);
#118=FACE_OUTER_BOUND('',#194,.T.);
#119=FACE_OUTER_BOUND('',#196,.T.);
#120=FACE_OUTER_BOUND('',#198,.T.);
#121=FACE_OUTER_BOUND('',#199,.T.);
#122=FACE_OUTER_BOUND('',#200,.T.);
#123=FACE_OUTER_BOUND('',#202,.T.);
#124=FACE_OUTER_BOUND('',#203,.T.);
#125=FACE_OUTER_BOUND('',#205,.T.);
#126=FACE_OUTER_BOUND('',#206,.T.);
#127=FACE_OUTER_BOUND('',#208,.T.);
#128=FACE_OUTER_BOUND('',#210,.T.);
#129=FACE_OUTER_BOUND('',#211,.T.);
#130=FACE_OUTER_BOUND('',#212,.T.);
#131=FACE_OUTER_BOUND('',#214,.T.);
#132=FACE_OUTER_BOUND('',#215,.T.);
#133=FACE_OUTER_BOUND('',#217,.T.);
#134=FACE_OUTER_BOUND('',#218,.T.);
#135=FACE_OUTER_BOUND('',#220,.T.);
#136=FACE_OUTER_BOUND('',#222,.T.);
#137=FACE_OUTER_BOUND('',#223,.T.);
#138=FACE_OUTER_BOUND('',#224,.T.);
#139=FACE_OUTER_BOUND('',#226,.T.);
#140=FACE_OUTER_BOUND('',#227,.T.);
#141=FACE_OUTER_BOUND('',#229,.T.);
#142=FACE_OUTER_BOUND('',#230,.T.);
#143=FACE_OUTER_BOUND('',#232,.T.);
#144=FACE_OUTER_BOUND('',#234,.T.);
#145=FACE_OUTER_BOUND('',#235,.T.);
#146=FACE_OUTER_BOUND('',#236,.T.);
#147=FACE_OUTER_BOUND('',#238,.T.);
#148=FACE_OUTER_BOUND('',#239,.T.);
#149=FACE_OUTER_BOUND('',#241,.T.);
#150=FACE_OUTER_BOUND('',#242,.T.);
#151=FACE_OUTER_BOUND('',#244,.T.);
#152=FACE_OUTER_BOUND('',#246,.T.);
#153=FACE_OUTER_BOUND('',#247,.T.);
#154=FACE_OUTER_BOUND('',#248,.T.);
#155=FACE_OUTER_BOUND('',#250,.T.);
#156=FACE_OUTER_BOUND('',#251,.T.);
#157=EDGE_LOOP('',(#541,#542,#543,#544));
#158=EDGE_LOOP('',(#545));
#159=EDGE_LOOP('',(#546));
#160=EDGE_LOOP('',(#547));
#161=EDGE_LOOP('',(#548));
#162=EDGE_LOOP('',(#549,#550,#551,#552));
#163=EDGE_LOOP('',(#553,#554,#555,#556));
#164=EDGE_LOOP('',(#557));
#165=EDGE_LOOP('',(#558));
#166=EDGE_LOOP('',(#559,#560,#561,#562));
#167=EDGE_LOOP('',(#563));
#168=EDGE_LOOP('',(#564));
#169=EDGE_LOOP('',(#565,#566,#567,#568));
#170=EDGE_LOOP('',(#569));
#171=EDGE_LOOP('',(#570));
#172=EDGE_LOOP('',(#571));
#173=EDGE_LOOP('',(#572));
#174=EDGE_LOOP('',(#573,#574,#575,#576));
#175=EDGE_LOOP('',(#577,#578,#579,#580));
#176=EDGE_LOOP('',(#581));
#177=EDGE_LOOP('',(#582));
#178=EDGE_LOOP('',(#583,#584,#585,#586));
#179=EDGE_LOOP('',(#587));
#180=EDGE_LOOP('',(#588));
#181=EDGE_LOOP('',(#589,#590,#591,#592));
#182=EDGE_LOOP('',(#593));
#183=EDGE_LOOP('',(#594));
#184=EDGE_LOOP('',(#595));
#185=EDGE_LOOP('',(#596));
#186=EDGE_LOOP('',(#597,#598,#599,#600));
#187=EDGE_LOOP('',(#601,#602,#603,#604));
#188=EDGE_LOOP('',(#605));
#189=EDGE_LOOP('',(#606));
#190=EDGE_LOOP('',(#607,#608,#609,#610));
#191=EDGE_LOOP('',(#611));
#192=EDGE_LOOP('',(#612));
#193=EDGE_LOOP('',(#613,#614,#615,#616));
#194=EDGE_LOOP('',(#617));
#195=EDGE_LOOP('',(#618));
#196=EDGE_LOOP('',(#619));
#197=EDGE_LOOP('',(#620));
#198=EDGE_LOOP('',(#621,#622,#623,#624));
#199=EDGE_LOOP('',(#625,#626,#627,#628));
#200=EDGE_LOOP('',(#629));
#201=EDGE_LOOP('',(#630));
#202=EDGE_LOOP('',(#631,#632,#633,#634));
#203=EDGE_LOOP('',(#635));
#204=EDGE_LOOP('',(#636));
#205=EDGE_LOOP('',(#637,#638,#639,#640));
#206=EDGE_LOOP('',(#641));
#207=EDGE_LOOP('',(#642));
#208=EDGE_LOOP('',(#643));
#209=EDGE_LOOP('',(#644));
#210=EDGE_LOOP('',(#645,#646,#647,#648));
#211=EDGE_LOOP('',(#649,#650,#651,#652));
#212=EDGE_LOOP('',(#653));
#213=EDGE_LOOP('',(#654));
#214=EDGE_LOOP('',(#655,#656,#657,#658));
#215=EDGE_LOOP('',(#659));
#216=EDGE_LOOP('',(#660));
#217=EDGE_LOOP('',(#661,#662,#663,#664));
#218=EDGE_LOOP('',(#665));
#219=EDGE_LOOP('',(#666));
#220=EDGE_LOOP('',(#667));
#221=EDGE_LOOP('',(#668));
#222=EDGE_LOOP('',(#669,#670,#671,#672));
#223=EDGE_LOOP('',(#673,#674,#675,#676));
#224=EDGE_LOOP('',(#677));
#225=EDGE_LOOP('',(#678));
#226=EDGE_LOOP('',(#679,#680,#681,#682));
#227=EDGE_LOOP('',(#683));
#228=EDGE_LOOP('',(#684));
#229=EDGE_LOOP('',(#685,#686,#687,#688));
#230=EDGE_LOOP('',(#689));
#231=EDGE_LOOP('',(#690));
#232=EDGE_LOOP('',(#691));
#233=EDGE_LOOP('',(#692));
#234=EDGE_LOOP('',(#693,#694,#695,#696));
#235=EDGE_LOOP('',(#697,#698,#699,#700));
#236=EDGE_LOOP('',(#701));
#237=EDGE_LOOP('',(#702));
#238=EDGE_LOOP('',(#703,#704,#705,#706));
#239=EDGE_LOOP('',(#707));
#240=EDGE_LOOP('',(#708));
#241=EDGE_LOOP('',(#709,#710,#711,#712));
#242=EDGE_LOOP('',(#713));
#243=EDGE_LOOP('',(#714));
#244=EDGE_LOOP('',(#715));
#245=EDGE_LOOP('',(#716));
#246=EDGE_LOOP('',(#717,#718,#719,#720));
#247=EDGE_LOOP('',(#721,#722,#723,#724));
#248=EDGE_LOOP('',(#725));
#249=EDGE_LOOP('',(#726));
#250=EDGE_LOOP('',(#727,#728,#729,#730));
#251=EDGE_LOOP('',(#731));
#252=EDGE_LOOP('',(#732));
#253=LINE('',#1273,#285);
#254=LINE('',#1284,#286);
#255=LINE('',#1289,#287);
#256=LINE('',#1295,#288);
#257=LINE('',#1301,#289);
#258=LINE('',#1312,#290);
#259=LINE('',#1317,#291);
#260=LINE('',#1323,#292);
#261=LINE('',#1329,#293);
#262=LINE('',#1340,#294);
#263=LINE('',#1345,#295);
#264=LINE('',#1351,#296);
#265=LINE('',#1357,#297);
#266=LINE('',#1368,#298);
#267=LINE('',#1373,#299);
#268=LINE('',#1379,#300);
#269=LINE('',#1385,#301);
#270=LINE('',#1396,#302);
#271=LINE('',#1401,#303);
#272=LINE('',#1407,#304);
#273=LINE('',#1413,#305);
#274=LINE('',#1424,#306);
#275=LINE('',#1429,#307);
#276=LINE('',#1435,#308);
#277=LINE('',#1441,#309);
#278=LINE('',#1452,#310);
#279=LINE('',#1457,#311);
#280=LINE('',#1463,#312);
#281=LINE('',#1469,#313);
#282=LINE('',#1480,#314);
#283=LINE('',#1485,#315);
#284=LINE('',#1491,#316);
#285=VECTOR('',#984,11.);
#286=VECTOR('',#999,25.);
#287=VECTOR('',#1004,11.);
#288=VECTOR('',#1013,25.);
#289=VECTOR('',#1020,11.);
#290=VECTOR('',#1035,25.);
#291=VECTOR('',#1040,11.);
#292=VECTOR('',#1049,25.);
#293=VECTOR('',#1056,11.);
#294=VECTOR('',#1071,25.);
#295=VECTOR('',#1076,11.);
#296=VECTOR('',#1085,25.);
#297=VECTOR('',#1092,11.);
#298=VECTOR('',#1107,25.);
#299=VECTOR('',#1112,11.);
#300=VECTOR('',#1121,25.);
#301=VECTOR('',#1128,11.);
#302=VECTOR('',#1143,25.);
#303=VECTOR('',#1148,11.);
#304=VECTOR('',#1157,25.);
#305=VECTOR('',#1164,11.);
#306=VECTOR('',#1179,25.);
#307=VECTOR('',#1184,11.);
#308=VECTOR('',#1193,25.);
#309=VECTOR('',#1200,11.);
#310=VECTOR('',#1215,25.);
#311=VECTOR('',#1220,11.);
#312=VECTOR('',#1229,25.);
#313=VECTOR('',#1236,11.);
#314=VECTOR('',#1251,25.);
#315=VECTOR('',#1256,11.);
#316=VECTOR('',#1265,25.);
#317=CIRCLE('',#851,15.);
#318=CIRCLE('',#852,15.);
#319=CIRCLE('',#854,25.);
#320=CIRCLE('',#856,25.);
#321=CIRCLE('',#858,25.);
#322=CIRCLE('',#860,11.);
#323=CIRCLE('',#861,11.);
#324=CIRCLE('',#863,25.);
#325=CIRCLE('',#867,15.);
#326=CIRCLE('',#868,15.);
#327=CIRCLE('',#870,25.);
#328=CIRCLE('',#872,25.);
#329=CIRCLE('',#874,25.);
#330=CIRCLE('',#876,11.);
#331=CIRCLE('',#877,11.);
#332=CIRCLE('',#879,25.);
#333=CIRCLE('',#883,15.);
#334=CIRCLE('',#884,15.);
#335=CIRCLE('',#886,25.);
#336=CIRCLE('',#888,25.);
#337=CIRCLE('',#890,25.);
#338=CIRCLE('',#892,11.);
#339=CIRCLE('',#893,11.);
#340=CIRCLE('',#895,25.);
#341=CIRCLE('',#899,15.);
#342=CIRCLE('',#900,15.);
#343=CIRCLE('',#902,25.);
#344=CIRCLE('',#904,25.);
#345=CIRCLE('',#906,25.);
#346=CIRCLE('',#908,11.);
#347=CIRCLE('',#909,11.);
#348=CIRCLE('',#911,25.);
#349=CIRCLE('',#915,15.);
#350=CIRCLE('',#916,15.);
#351=CIRCLE('',#918,25.);
#352=CIRCLE('',#920,25.);
#353=CIRCLE('',#922,25.);
#354=CIRCLE('',#924,11.);
#355=CIRCLE('',#925,11.);
#356=CIRCLE('',#927,25.);
#357=CIRCLE('',#931,15.);
#358=CIRCLE('',#932,15.);
#359=CIRCLE('',#934,25.);
#360=CIRCLE('',#936,25.);
#361=CIRCLE('',#938,25.);
#362=CIRCLE('',#940,11.);
#363=CIRCLE('',#941,11.);
#364=CIRCLE('',#943,25.);
#365=CIRCLE('',#947,15.);
#366=CIRCLE('',#948,15.);
#367=CIRCLE('',#950,25.);
#368=CIRCLE('',#952,25.);
#369=CIRCLE('',#954,25.);
#370=CIRCLE('',#956,11.);
#371=CIRCLE('',#957,11.);
#372=CIRCLE('',#959,25.);
#373=CIRCLE('',#963,15.);
#374=CIRCLE('',#964,15.);
#375=CIRCLE('',#966,25.);
#376=CIRCLE('',#968,25.);
#377=CIRCLE('',#970,25.);
#378=CIRCLE('',#972,11.);
#379=CIRCLE('',#973,11.);
#380=CIRCLE('',#975,25.);
#381=VERTEX_POINT('',#1270);
#382=VERTEX_POINT('',#1272);
#383=VERTEX_POINT('',#1276);
#384=VERTEX_POINT('',#1279);
#385=VERTEX_POINT('',#1282);
#386=VERTEX_POINT('',#1286);
#387=VERTEX_POINT('',#1288);
#388=VERTEX_POINT('',#1292);
#389=VERTEX_POINT('',#1298);
#390=VERTEX_POINT('',#1300);
#391=VERTEX_POINT('',#1304);
#392=VERTEX_POINT('',#1307);
#393=VERTEX_POINT('',#1310);
#394=VERTEX_POINT('',#1314);
#395=VERTEX_POINT('',#1316);
#396=VERTEX_POINT('',#1320);
#397=VERTEX_POINT('',#1326);
#398=VERTEX_POINT('',#1328);
#399=VERTEX_POINT('',#1332);
#400=VERTEX_POINT('',#1335);
#401=VERTEX_POINT('',#1338);
#402=VERTEX_POINT('',#1342);
#403=VERTEX_POINT('',#1344);
#404=VERTEX_POINT('',#1348);
#405=VERTEX_POINT('',#1354);
#406=VERTEX_POINT('',#1356);
#407=VERTEX_POINT('',#1360);
#408=VERTEX_POINT('',#1363);
#409=VERTEX_POINT('',#1366);
#410=VERTEX_POINT('',#1370);
#411=VERTEX_POINT('',#1372);
#412=VERTEX_POINT('',#1376);
#413=VERTEX_POINT('',#1382);
#414=VERTEX_POINT('',#1384);
#415=VERTEX_POINT('',#1388);
#416=VERTEX_POINT('',#1391);
#417=VERTEX_POINT('',#1394);
#418=VERTEX_POINT('',#1398);
#419=VERTEX_POINT('',#1400);
#420=VERTEX_POINT('',#1404);
#421=VERTEX_POINT('',#1410);
#422=VERTEX_POINT('',#1412);
#423=VERTEX_POINT('',#1416);
#424=VERTEX_POINT('',#1419);
#425=VERTEX_POINT('',#1422);
#426=VERTEX_POINT('',#1426);
#427=VERTEX_POINT('',#1428);
#428=VERTEX_POINT('',#1432);
#429=VERTEX_POINT('',#1438);
#430=VERTEX_POINT('',#1440);
#431=VERTEX_POINT('',#1444);
#432=VERTEX_POINT('',#1447);
#433=VERTEX_POINT('',#1450);
#434=VERTEX_POINT('',#1454);
#435=VERTEX_POINT('',#1456);
#436=VERTEX_POINT('',#1460);
#437=VERTEX_POINT('',#1466);
#438=VERTEX_POINT('',#1468);
#439=VERTEX_POINT('',#1472);
#440=VERTEX_POINT('',#1475);
#441=VERTEX_POINT('',#1478);
#442=VERTEX_POINT('',#1482);
#443=VERTEX_POINT('',#1484);
#444=VERTEX_POINT('',#1488);
#445=EDGE_CURVE('',#381,#381,#317,.F.);
#446=EDGE_CURVE('',#381,#382,#253,.T.);
#447=EDGE_CURVE('',#382,#382,#318,.T.);
#448=EDGE_CURVE('',#383,#383,#319,.T.);
#449=EDGE_CURVE('',#384,#384,#320,.T.);
#450=EDGE_CURVE('',#385,#385,#321,.T.);
#451=EDGE_CURVE('',#385,#384,#254,.T.);
#452=EDGE_CURVE('',#386,#386,#322,.T.);
#453=EDGE_CURVE('',#386,#387,#255,.T.);
#454=EDGE_CURVE('',#387,#387,#323,.T.);
#455=EDGE_CURVE('',#388,#388,#324,.T.);
#456=EDGE_CURVE('',#383,#388,#256,.T.);
#457=EDGE_CURVE('',#389,#389,#325,.F.);
#458=EDGE_CURVE('',#389,#390,#257,.T.);
#459=EDGE_CURVE('',#390,#390,#326,.T.);
#460=EDGE_CURVE('',#391,#391,#327,.T.);
#461=EDGE_CURVE('',#392,#392,#328,.T.);
#462=EDGE_CURVE('',#393,#393,#329,.T.);
#463=EDGE_CURVE('',#393,#392,#258,.T.);
#464=EDGE_CURVE('',#394,#394,#330,.T.);
#465=EDGE_CURVE('',#394,#395,#259,.T.);
#466=EDGE_CURVE('',#395,#395,#331,.T.);
#467=EDGE_CURVE('',#396,#396,#332,.T.);
#468=EDGE_CURVE('',#391,#396,#260,.T.);
#469=EDGE_CURVE('',#397,#397,#333,.F.);
#470=EDGE_CURVE('',#397,#398,#261,.T.);
#471=EDGE_CURVE('',#398,#398,#334,.T.);
#472=EDGE_CURVE('',#399,#399,#335,.T.);
#473=EDGE_CURVE('',#400,#400,#336,.T.);
#474=EDGE_CURVE('',#401,#401,#337,.T.);
#475=EDGE_CURVE('',#401,#400,#262,.T.);
#476=EDGE_CURVE('',#402,#402,#338,.T.);
#477=EDGE_CURVE('',#402,#403,#263,.T.);
#478=EDGE_CURVE('',#403,#403,#339,.T.);
#479=EDGE_CURVE('',#404,#404,#340,.T.);
#480=EDGE_CURVE('',#399,#404,#264,.T.);
#481=EDGE_CURVE('',#405,#405,#341,.F.);
#482=EDGE_CURVE('',#405,#406,#265,.T.);
#483=EDGE_CURVE('',#406,#406,#342,.T.);
#484=EDGE_CURVE('',#407,#407,#343,.T.);
#485=EDGE_CURVE('',#408,#408,#344,.T.);
#486=EDGE_CURVE('',#409,#409,#345,.T.);
#487=EDGE_CURVE('',#409,#408,#266,.T.);
#488=EDGE_CURVE('',#410,#410,#346,.T.);
#489=EDGE_CURVE('',#410,#411,#267,.T.);
#490=EDGE_CURVE('',#411,#411,#347,.T.);
#491=EDGE_CURVE('',#412,#412,#348,.T.);
#492=EDGE_CURVE('',#407,#412,#268,.T.);
#493=EDGE_CURVE('',#413,#413,#349,.F.);
#494=EDGE_CURVE('',#413,#414,#269,.T.);
#495=EDGE_CURVE('',#414,#414,#350,.T.);
#496=EDGE_CURVE('',#415,#415,#351,.T.);
#497=EDGE_CURVE('',#416,#416,#352,.T.);
#498=EDGE_CURVE('',#417,#417,#353,.T.);
#499=EDGE_CURVE('',#417,#416,#270,.T.);
#500=EDGE_CURVE('',#418,#418,#354,.T.);
#501=EDGE_CURVE('',#418,#419,#271,.T.);
#502=EDGE_CURVE('',#419,#419,#355,.T.);
#503=EDGE_CURVE('',#420,#420,#356,.T.);
#504=EDGE_CURVE('',#415,#420,#272,.T.);
#505=EDGE_CURVE('',#421,#421,#357,.F.);
#506=EDGE_CURVE('',#421,#422,#273,.T.);
#507=EDGE_CURVE('',#422,#422,#358,.T.);
#508=EDGE_CURVE('',#423,#423,#359,.T.);
#509=EDGE_CURVE('',#424,#424,#360,.T.);
#510=EDGE_CURVE('',#425,#425,#361,.T.);
#511=EDGE_CURVE('',#425,#424,#274,.T.);
#512=EDGE_CURVE('',#426,#426,#362,.T.);
#513=EDGE_CURVE('',#426,#427,#275,.T.);
#514=EDGE_CURVE('',#427,#427,#363,.T.);
#515=EDGE_CURVE('',#428,#428,#364,.T.);
#516=EDGE_CURVE('',#423,#428,#276,.T.);
#517=EDGE_CURVE('',#429,#429,#365,.F.);
#518=EDGE_CURVE('',#429,#430,#277,.T.);
#519=EDGE_CURVE('',#430,#430,#366,.T.);
#520=EDGE_CURVE('',#431,#431,#367,.T.);
#521=EDGE_CURVE('',#432,#432,#368,.T.);
#522=EDGE_CURVE('',#433,#433,#369,.T.);
#523=EDGE_CURVE('',#433,#432,#278,.T.);
#524=EDGE_CURVE('',#434,#434,#370,.T.);
#525=EDGE_CURVE('',#434,#435,#279,.T.);
#526=EDGE_CURVE('',#435,#435,#371,.T.);
#527=EDGE_CURVE('',#436,#436,#372,.T.);
#528=EDGE_CURVE('',#431,#436,#280,.T.);
#529=EDGE_CURVE('',#437,#437,#373,.F.);
#530=EDGE_CURVE('',#437,#438,#281,.T.);
#531=EDGE_CURVE('',#438,#438,#374,.T.);
#532=EDGE_CURVE('',#439,#439,#375,.T.);
#533=EDGE_CURVE('',#440,#440,#376,.T.);
#534=EDGE_CURVE('',#441,#441,#377,.T.);
#535=EDGE_CURVE('',#441,#440,#282,.T.);
#536=EDGE_CURVE('',#442,#442,#378,.T.);
#537=EDGE_CURVE('',#442,#443,#283,.T.);
#538=EDGE_CURVE('',#443,#443,#379,.T.);
#539=EDGE_CURVE('',#444,#444,#380,.T.);
#540=EDGE_CURVE('',#439,#444,#284,.T.);
#541=ORIENTED_EDGE('',*,*,#445,.T.);
#542=ORIENTED_EDGE('',*,*,#446,.T.);
#543=ORIENTED_EDGE('',*,*,#447,.T.);
#544=ORIENTED_EDGE('',*,*,#446,.F.);
#545=ORIENTED_EDGE('',*,*,#448,.F.);
#546=ORIENTED_EDGE('',*,*,#445,.F.);
#547=ORIENTED_EDGE('',*,*,#449,.F.);
#548=ORIENTED_EDGE('',*,*,#447,.F.);
#549=ORIENTED_EDGE('',*,*,#450,.F.);
#550=ORIENTED_EDGE('',*,*,#451,.T.);
#551=ORIENTED_EDGE('',*,*,#449,.T.);
#552=ORIENTED_EDGE('',*,*,#451,.F.);
#553=ORIENTED_EDGE('',*,*,#452,.F.);
#554=ORIENTED_EDGE('',*,*,#453,.T.);
#555=ORIENTED_EDGE('',*,*,#454,.F.);
#556=ORIENTED_EDGE('',*,*,#453,.F.);
#557=ORIENTED_EDGE('',*,*,#455,.T.);
#558=ORIENTED_EDGE('',*,*,#454,.T.);
#559=ORIENTED_EDGE('',*,*,#448,.T.);
#560=ORIENTED_EDGE('',*,*,#456,.T.);
#561=ORIENTED_EDGE('',*,*,#455,.F.);
#562=ORIENTED_EDGE('',*,*,#456,.F.);
#563=ORIENTED_EDGE('',*,*,#450,.T.);
#564=ORIENTED_EDGE('',*,*,#452,.T.);
#565=ORIENTED_EDGE('',*,*,#457,.T.);
#566=ORIENTED_EDGE('',*,*,#458,.T.);
#567=ORIENTED_EDGE('',*,*,#459,.T.);
#568=ORIENTED_EDGE('',*,*,#458,.F.);
#569=ORIENTED_EDGE('',*,*,#460,.F.);
#570=ORIENTED_EDGE('',*,*,#457,.F.);
#571=ORIENTED_EDGE('',*,*,#461,.F.);
#572=ORIENTED_EDGE('',*,*,#459,.F.);
#573=ORIENTED_EDGE('',*,*,#462,.F.);
#574=ORIENTED_EDGE('',*,*,#463,.T.);
#575=ORIENTED_EDGE('',*,*,#461,.T.);
#576=ORIENTED_EDGE('',*,*,#463,.F.);
#577=ORIENTED_EDGE('',*,*,#464,.F.);
#578=ORIENTED_EDGE('',*,*,#465,.T.);
#579=ORIENTED_EDGE('',*,*,#466,.F.);
#580=ORIENTED_EDGE('',*,*,#465,.F.);
#581=ORIENTED_EDGE('',*,*,#467,.T.);
#582=ORIENTED_EDGE('',*,*,#466,.T.);
#583=ORIENTED_EDGE('',*,*,#460,.T.);
#584=ORIENTED_EDGE('',*,*,#468,.T.);
#585=ORIENTED_EDGE('',*,*,#467,.F.);
#586=ORIENTED_EDGE('',*,*,#468,.F.);
#587=ORIENTED_EDGE('',*,*,#462,.T.);
#588=ORIENTED_EDGE('',*,*,#464,.T.);
#589=ORIENTED_EDGE('',*,*,#469,.T.);
#590=ORIENTED_EDGE('',*,*,#470,.T.);
#591=ORIENTED_EDGE('',*,*,#471,.T.);
#592=ORIENTED_EDGE('',*,*,#470,.F.);
#593=ORIENTED_EDGE('',*,*,#472,.F.);
#594=ORIENTED_EDGE('',*,*,#469,.F.);
#595=ORIENTED_EDGE('',*,*,#473,.F.);
#596=ORIENTED_EDGE('',*,*,#471,.F.);
#597=ORIENTED_EDGE('',*,*,#474,.F.);
#598=ORIENTED_EDGE('',*,*,#475,.T.);
#599=ORIENTED_EDGE('',*,*,#473,.T.);
#600=ORIENTED_EDGE('',*,*,#475,.F.);
#601=ORIENTED_EDGE('',*,*,#476,.F.);
#602=ORIENTED_EDGE('',*,*,#477,.T.);
#603=ORIENTED_EDGE('',*,*,#478,.F.);
#604=ORIENTED_EDGE('',*,*,#477,.F.);
#605=ORIENTED_EDGE('',*,*,#479,.T.);
#606=ORIENTED_EDGE('',*,*,#478,.T.);
#607=ORIENTED_EDGE('',*,*,#472,.T.);
#608=ORIENTED_EDGE('',*,*,#480,.T.);
#609=ORIENTED_EDGE('',*,*,#479,.F.);
#610=ORIENTED_EDGE('',*,*,#480,.F.);
#611=ORIENTED_EDGE('',*,*,#474,.T.);
#612=ORIENTED_EDGE('',*,*,#476,.T.);
#613=ORIENTED_EDGE('',*,*,#481,.T.);
#614=ORIENTED_EDGE('',*,*,#482,.T.);
#615=ORIENTED_EDGE('',*,*,#483,.T.);
#616=ORIENTED_EDGE('',*,*,#482,.F.);
#617=ORIENTED_EDGE('',*,*,#484,.F.);
#618=ORIENTED_EDGE('',*,*,#481,.F.);
#619=ORIENTED_EDGE('',*,*,#485,.F.);
#620=ORIENTED_EDGE('',*,*,#483,.F.);
#621=ORIENTED_EDGE('',*,*,#486,.F.);
#622=ORIENTED_EDGE('',*,*,#487,.T.);
#623=ORIENTED_EDGE('',*,*,#485,.T.);
#624=ORIENTED_EDGE('',*,*,#487,.F.);
#625=ORIENTED_EDGE('',*,*,#488,.F.);
#626=ORIENTED_EDGE('',*,*,#489,.T.);
#627=ORIENTED_EDGE('',*,*,#490,.F.);
#628=ORIENTED_EDGE('',*,*,#489,.F.);
#629=ORIENTED_EDGE('',*,*,#491,.T.);
#630=ORIENTED_EDGE('',*,*,#490,.T.);
#631=ORIENTED_EDGE('',*,*,#484,.T.);
#632=ORIENTED_EDGE('',*,*,#492,.T.);
#633=ORIENTED_EDGE('',*,*,#491,.F.);
#634=ORIENTED_EDGE('',*,*,#492,.F.);
#635=ORIENTED_EDGE('',*,*,#486,.T.);
#636=ORIENTED_EDGE('',*,*,#488,.T.);
#637=ORIENTED_EDGE('',*,*,#493,.F.);
#638=ORIENTED_EDGE('',*,*,#494,.T.);
#639=ORIENTED_EDGE('',*,*,#495,.F.);
#640=ORIENTED_EDGE('',*,*,#494,.F.);
#641=ORIENTED_EDGE('',*,*,#496,.T.);
#642=ORIENTED_EDGE('',*,*,#493,.T.);
#643=ORIENTED_EDGE('',*,*,#497,.T.);
#644=ORIENTED_EDGE('',*,*,#495,.T.);
#645=ORIENTED_EDGE('',*,*,#498,.T.);
#646=ORIENTED_EDGE('',*,*,#499,.T.);
#647=ORIENTED_EDGE('',*,*,#497,.F.);
#648=ORIENTED_EDGE('',*,*,#499,.F.);
#649=ORIENTED_EDGE('',*,*,#500,.T.);
#650=ORIENTED_EDGE('',*,*,#501,.T.);
#651=ORIENTED_EDGE('',*,*,#502,.T.);
#652=ORIENTED_EDGE('',*,*,#501,.F.);
#653=ORIENTED_EDGE('',*,*,#503,.F.);
#654=ORIENTED_EDGE('',*,*,#502,.F.);
#655=ORIENTED_EDGE('',*,*,#496,.F.);
#656=ORIENTED_EDGE('',*,*,#504,.T.);
#657=ORIENTED_EDGE('',*,*,#503,.T.);
#658=ORIENTED_EDGE('',*,*,#504,.F.);
#659=ORIENTED_EDGE('',*,*,#498,.F.);
#660=ORIENTED_EDGE('',*,*,#500,.F.);
#661=ORIENTED_EDGE('',*,*,#505,.F.);
#662=ORIENTED_EDGE('',*,*,#506,.T.);
#663=ORIENTED_EDGE('',*,*,#507,.F.);
#664=ORIENTED_EDGE('',*,*,#506,.F.);
#665=ORIENTED_EDGE('',*,*,#508,.T.);
#666=ORIENTED_EDGE('',*,*,#505,.T.);
#667=ORIENTED_EDGE('',*,*,#509,.T.);
#668=ORIENTED_EDGE('',*,*,#507,.T.);
#669=ORIENTED_EDGE('',*,*,#510,.T.);
#670=ORIENTED_EDGE('',*,*,#511,.T.);
#671=ORIENTED_EDGE('',*,*,#509,.F.);
#672=ORIENTED_EDGE('',*,*,#511,.F.);
#673=ORIENTED_EDGE('',*,*,#512,.T.);
#674=ORIENTED_EDGE('',*,*,#513,.T.);
#675=ORIENTED_EDGE('',*,*,#514,.T.);
#676=ORIENTED_EDGE('',*,*,#513,.F.);
#677=ORIENTED_EDGE('',*,*,#515,.F.);
#678=ORIENTED_EDGE('',*,*,#514,.F.);
#679=ORIENTED_EDGE('',*,*,#508,.F.);
#680=ORIENTED_EDGE('',*,*,#516,.T.);
#681=ORIENTED_EDGE('',*,*,#515,.T.);
#682=ORIENTED_EDGE('',*,*,#516,.F.);
#683=ORIENTED_EDGE('',*,*,#510,.F.);
#684=ORIENTED_EDGE('',*,*,#512,.F.);
#685=ORIENTED_EDGE('',*,*,#517,.F.);
#686=ORIENTED_EDGE('',*,*,#518,.T.);
#687=ORIENTED_EDGE('',*,*,#519,.F.);
#688=ORIENTED_EDGE('',*,*,#518,.F.);
#689=ORIENTED_EDGE('',*,*,#520,.T.);
#690=ORIENTED_EDGE('',*,*,#517,.T.);
#691=ORIENTED_EDGE('',*,*,#521,.T.);
#692=ORIENTED_EDGE('',*,*,#519,.T.);
#693=ORIENTED_EDGE('',*,*,#522,.T.);
#694=ORIENTED_EDGE('',*,*,#523,.T.);
#695=ORIENTED_EDGE('',*,*,#521,.F.);
#696=ORIENTED_EDGE('',*,*,#523,.F.);
#697=ORIENTED_EDGE('',*,*,#524,.T.);
#698=ORIENTED_EDGE('',*,*,#525,.T.);
#699=ORIENTED_EDGE('',*,*,#526,.T.);
#700=ORIENTED_EDGE('',*,*,#525,.F.);
#701=ORIENTED_EDGE('',*,*,#527,.F.);
#702=ORIENTED_EDGE('',*,*,#526,.F.);
#703=ORIENTED_EDGE('',*,*,#520,.F.);
#704=ORIENTED_EDGE('',*,*,#528,.T.);
#705=ORIENTED_EDGE('',*,*,#527,.T.);
#706=ORIENTED_EDGE('',*,*,#528,.F.);
#707=ORIENTED_EDGE('',*,*,#522,.F.);
#708=ORIENTED_EDGE('',*,*,#524,.F.);
#709=ORIENTED_EDGE('',*,*,#529,.F.);
#710=ORIENTED_EDGE('',*,*,#530,.T.);
#711=ORIENTED_EDGE('',*,*,#531,.F.);
#712=ORIENTED_EDGE('',*,*,#530,.F.);
#713=ORIENTED_EDGE('',*,*,#532,.T.);
#714=ORIENTED_EDGE('',*,*,#529,.T.);
#715=ORIENTED_EDGE('',*,*,#533,.T.);
#716=ORIENTED_EDGE('',*,*,#531,.T.);
#717=ORIENTED_EDGE('',*,*,#534,.T.);
#718=ORIENTED_EDGE('',*,*,#535,.T.);
#719=ORIENTED_EDGE('',*,*,#533,.F.);
#720=ORIENTED_EDGE('',*,*,#535,.F.);
#721=ORIENTED_EDGE('',*,*,#536,.T.);
#722=ORIENTED_EDGE('',*,*,#537,.T.);
#723=ORIENTED_EDGE('',*,*,#538,.T.);
#724=ORIENTED_EDGE('',*,*,#537,.F.);
#725=ORIENTED_EDGE('',*,*,#539,.F.);
#726=ORIENTED_EDGE('',*,*,#538,.F.);
#727=ORIENTED_EDGE('',*,*,#532,.F.);
#728=ORIENTED_EDGE('',*,*,#540,.T.);
#729=ORIENTED_EDGE('',*,*,#539,.T.);
#730=ORIENTED_EDGE('',*,*,#540,.F.);
#731=ORIENTED_EDGE('',*,*,#534,.F.);
#732=ORIENTED_EDGE('',*,*,#536,.F.);
#733=CYLINDRICAL_SURFACE('',#850,15.);
#734=CYLINDRICAL_SURFACE('',#857,25.);
#735=CYLINDRICAL_SURFACE('',#859,11.);
#736=CYLINDRICAL_SURFACE('',#864,25.);
#737=CYLINDRICAL_SURFACE('',#866,15.);
#738=CYLINDRICAL_SURFACE('',#873,25.);
#739=CYLINDRICAL_SURFACE('',#875,11.);
#740=CYLINDRICAL_SURFACE('',#880,25.);
#741=CYLINDRICAL_SURFACE('',#882,15.);
#742=CYLINDRICAL_SURFACE('',#889,25.);
#743=CYLINDRICAL_SURFACE('',#891,11.);
#744=CYLINDRICAL_SURFACE('',#896,25.);
#745=CYLINDRICAL_SURFACE('',#898,15.);
#746=CYLINDRICAL_SURFACE('',#905,25.);
#747=CYLINDRICAL_SURFACE('',#907,11.);
#748=CYLINDRICAL_SURFACE('',#912,25.);
#749=CYLINDRICAL_SURFACE('',#914,15.);
#750=CYLINDRICAL_SURFACE('',#921,25.);
#751=CYLINDRICAL_SURFACE('',#923,11.);
#752=CYLINDRICAL_SURFACE('',#928,25.);
#753=CYLINDRICAL_SURFACE('',#930,15.);
#754=CYLINDRICAL_SURFACE('',#937,25.);
#755=CYLINDRICAL_SURFACE('',#939,11.);
#756=CYLINDRICAL_SURFACE('',#944,25.);
#757=CYLINDRICAL_SURFACE('',#946,15.);
#758=CYLINDRICAL_SURFACE('',#953,25.);
#759=CYLINDRICAL_SURFACE('',#955,11.);
#760=CYLINDRICAL_SURFACE('',#960,25.);
#761=CYLINDRICAL_SURFACE('',#962,15.);
#762=CYLINDRICAL_SURFACE('',#969,25.);
#763=CYLINDRICAL_SURFACE('',#971,11.);
#764=CYLINDRICAL_SURFACE('',#976,25.);
#765=ADVANCED_FACE('',(#93),#733,.T.);
#766=ADVANCED_FACE('',(#94,#29),#61,.T.);
#767=ADVANCED_FACE('',(#95,#30),#62,.F.);
#768=ADVANCED_FACE('',(#96),#734,.T.);
#769=ADVANCED_FACE('',(#97),#735,.F.);
#770=ADVANCED_FACE('',(#98,#31),#63,.F.);
#771=ADVANCED_FACE('',(#99),#736,.T.);
#772=ADVANCED_FACE('',(#100,#32),#64,.T.);
#773=ADVANCED_FACE('',(#101),#737,.T.);
#774=ADVANCED_FACE('',(#102,#33),#65,.T.);
#775=ADVANCED_FACE('',(#103,#34),#66,.F.);
#776=ADVANCED_FACE('',(#104),#738,.T.);
#777=ADVANCED_FACE('',(#105),#739,.F.);
#778=ADVANCED_FACE('',(#106,#35),#67,.F.);
#779=ADVANCED_FACE('',(#107),#740,.T.);
#780=ADVANCED_FACE('',(#108,#36),#68,.T.);
#781=ADVANCED_FACE('',(#109),#741,.T.);
#782=ADVANCED_FACE('',(#110,#37),#69,.T.);
#783=ADVANCED_FACE('',(#111,#38),#70,.F.);
#784=ADVANCED_FACE('',(#112),#742,.T.);
#785=ADVANCED_FACE('',(#113),#743,.F.);
#786=ADVANCED_FACE('',(#114,#39),#71,.F.);
#787=ADVANCED_FACE('',(#115),#744,.T.);
#788=ADVANCED_FACE('',(#116,#40),#72,.T.);
#789=ADVANCED_FACE('',(#117),#745,.T.);
#790=ADVANCED_FACE('',(#118,#41),#73,.T.);
#791=ADVANCED_FACE('',(#119,#42),#74,.F.);
#792=ADVANCED_FACE('',(#120),#746,.T.);
#793=ADVANCED_FACE('',(#121),#747,.F.);
#794=ADVANCED_FACE('',(#122,#43),#75,.F.);
#795=ADVANCED_FACE('',(#123),#748,.T.);
#796=ADVANCED_FACE('',(#124,#44),#76,.T.);
#797=ADVANCED_FACE('',(#125),#749,.T.);
#798=ADVANCED_FACE('',(#126,#45),#77,.F.);
#799=ADVANCED_FACE('',(#127,#46),#78,.T.);
#800=ADVANCED_FACE('',(#128),#750,.T.);
#801=ADVANCED_FACE('',(#129),#751,.F.);
#802=ADVANCED_FACE('',(#130,#47),#79,.T.);
#803=ADVANCED_FACE('',(#131),#752,.T.);
#804=ADVANCED_FACE('',(#132,#48),#80,.F.);
#805=ADVANCED_FACE('',(#133),#753,.T.);
#806=ADVANCED_FACE('',(#134,#49),#81,.F.);
#807=ADVANCED_FACE('',(#135,#50),#82,.T.);
#808=ADVANCED_FACE('',(#136),#754,.T.);
#809=ADVANCED_FACE('',(#137),#755,.F.);
#810=ADVANCED_FACE('',(#138,#51),#83,.T.);
#811=ADVANCED_FACE('',(#139),#756,.T.);
#812=ADVANCED_FACE('',(#140,#52),#84,.F.);
#813=ADVANCED_FACE('',(#141),#757,.T.);
#814=ADVANCED_FACE('',(#142,#53),#85,.F.);
#815=ADVANCED_FACE('',(#143,#54),#86,.T.);
#816=ADVANCED_FACE('',(#144),#758,.T.);
#817=ADVANCED_FACE('',(#145),#759,.F.);
#818=ADVANCED_FACE('',(#146,#55),#87,.T.);
#819=ADVANCED_FACE('',(#147),#760,.T.);
#820=ADVANCED_FACE('',(#148,#56),#88,.F.);
#821=ADVANCED_FACE('',(#149),#761,.T.);
#822=ADVANCED_FACE('',(#150,#57),#89,.F.);
#823=ADVANCED_FACE('',(#151,#58),#90,.T.);
#824=ADVANCED_FACE('',(#152),#762,.T.);
#825=ADVANCED_FACE('',(#153),#763,.F.);
#826=ADVANCED_FACE('',(#154,#59),#91,.T.);
#827=ADVANCED_FACE('',(#155),#764,.T.);
#828=ADVANCED_FACE('',(#156,#60),#92,.F.);
#829=CLOSED_SHELL('',(#765,#766,#767,#768,#769,#770,#771,#772));
#830=CLOSED_SHELL('',(#773,#774,#775,#776,#777,#778,#779,#780));
#831=CLOSED_SHELL('',(#781,#782,#783,#784,#785,#786,#787,#788));
#832=CLOSED_SHELL('',(#789,#790,#791,#792,#793,#794,#795,#796));
#833=CLOSED_SHELL('',(#797,#798,#799,#800,#801,#802,#803,#804));
#834=CLOSED_SHELL('',(#805,#806,#807,#808,#809,#810,#811,#812));
#835=CLOSED_SHELL('',(#813,#814,#815,#816,#817,#818,#819,#820));
#836=CLOSED_SHELL('',(#821,#822,#823,#824,#825,#826,#827,#828));
#837=DERIVED_UNIT_ELEMENT(#839,1.);
#838=DERIVED_UNIT_ELEMENT(#1498,-3.);
#839=(
MASS_UNIT()
NAMED_UNIT(*)
SI_UNIT(.KILO.,.GRAM.)
);
#840=DERIVED_UNIT((#837,#838));
#841=MEASURE_REPRESENTATION_ITEM('density measure',
POSITIVE_RATIO_MEASURE(7850.),#840);
#842=PROPERTY_DEFINITION_REPRESENTATION(#847,#844);
#843=PROPERTY_DEFINITION_REPRESENTATION(#848,#845);
#844=REPRESENTATION('material name',(#846),#1495);
#845=REPRESENTATION('density',(#841),#1495);
#846=DESCRIPTIVE_REPRESENTATION_ITEM('A\X\E7o','A\X\E7o');
#847=PROPERTY_DEFINITION('material property','material name',#1505);
#848=PROPERTY_DEFINITION('material property','density of part',#1505);
#849=AXIS2_PLACEMENT_3D('',#1268,#978,#979);
#850=AXIS2_PLACEMENT_3D('',#1269,#980,#981);
#851=AXIS2_PLACEMENT_3D('',#1271,#982,#983);
#852=AXIS2_PLACEMENT_3D('',#1274,#985,#986);
#853=AXIS2_PLACEMENT_3D('',#1275,#987,#988);
#854=AXIS2_PLACEMENT_3D('',#1277,#989,#990);
#855=AXIS2_PLACEMENT_3D('',#1278,#991,#992);
#856=AXIS2_PLACEMENT_3D('',#1280,#993,#994);
#857=AXIS2_PLACEMENT_3D('',#1281,#995,#996);
#858=AXIS2_PLACEMENT_3D('',#1283,#997,#998);
#859=AXIS2_PLACEMENT_3D('',#1285,#1000,#1001);
#860=AXIS2_PLACEMENT_3D('',#1287,#1002,#1003);
#861=AXIS2_PLACEMENT_3D('',#1290,#1005,#1006);
#862=AXIS2_PLACEMENT_3D('',#1291,#1007,#1008);
#863=AXIS2_PLACEMENT_3D('',#1293,#1009,#1010);
#864=AXIS2_PLACEMENT_3D('',#1294,#1011,#1012);
#865=AXIS2_PLACEMENT_3D('',#1296,#1014,#1015);
#866=AXIS2_PLACEMENT_3D('',#1297,#1016,#1017);
#867=AXIS2_PLACEMENT_3D('',#1299,#1018,#1019);
#868=AXIS2_PLACEMENT_3D('',#1302,#1021,#1022);
#869=AXIS2_PLACEMENT_3D('',#1303,#1023,#1024);
#870=AXIS2_PLACEMENT_3D('',#1305,#1025,#1026);
#871=AXIS2_PLACEMENT_3D('',#1306,#1027,#1028);
#872=AXIS2_PLACEMENT_3D('',#1308,#1029,#1030);
#873=AXIS2_PLACEMENT_3D('',#1309,#1031,#1032);
#874=AXIS2_PLACEMENT_3D('',#1311,#1033,#1034);
#875=AXIS2_PLACEMENT_3D('',#1313,#1036,#1037);
#876=AXIS2_PLACEMENT_3D('',#1315,#1038,#1039);
#877=AXIS2_PLACEMENT_3D('',#1318,#1041,#1042);
#878=AXIS2_PLACEMENT_3D('',#1319,#1043,#1044);
#879=AXIS2_PLACEMENT_3D('',#1321,#1045,#1046);
#880=AXIS2_PLACEMENT_3D('',#1322,#1047,#1048);
#881=AXIS2_PLACEMENT_3D('',#1324,#1050,#1051);
#882=AXIS2_PLACEMENT_3D('',#1325,#1052,#1053);
#883=AXIS2_PLACEMENT_3D('',#1327,#1054,#1055);
#884=AXIS2_PLACEMENT_3D('',#1330,#1057,#1058);
#885=AXIS2_PLACEMENT_3D('',#1331,#1059,#1060);
#886=AXIS2_PLACEMENT_3D('',#1333,#1061,#1062);
#887=AXIS2_PLACEMENT_3D('',#1334,#1063,#1064);
#888=AXIS2_PLACEMENT_3D('',#1336,#1065,#1066);
#889=AXIS2_PLACEMENT_3D('',#1337,#1067,#1068);
#890=AXIS2_PLACEMENT_3D('',#1339,#1069,#1070);
#891=AXIS2_PLACEMENT_3D('',#1341,#1072,#1073);
#892=AXIS2_PLACEMENT_3D('',#1343,#1074,#1075);
#893=AXIS2_PLACEMENT_3D('',#1346,#1077,#1078);
#894=AXIS2_PLACEMENT_3D('',#1347,#1079,#1080);
#895=AXIS2_PLACEMENT_3D('',#1349,#1081,#1082);
#896=AXIS2_PLACEMENT_3D('',#1350,#1083,#1084);
#897=AXIS2_PLACEMENT_3D('',#1352,#1086,#1087);
#898=AXIS2_PLACEMENT_3D('',#1353,#1088,#1089);
#899=AXIS2_PLACEMENT_3D('',#1355,#1090,#1091);
#900=AXIS2_PLACEMENT_3D('',#1358,#1093,#1094);
#901=AXIS2_PLACEMENT_3D('',#1359,#1095,#1096);
#902=AXIS2_PLACEMENT_3D('',#1361,#1097,#1098);
#903=AXIS2_PLACEMENT_3D('',#1362,#1099,#1100);
#904=AXIS2_PLACEMENT_3D('',#1364,#1101,#1102);
#905=AXIS2_PLACEMENT_3D('',#1365,#1103,#1104);
#906=AXIS2_PLACEMENT_3D('',#1367,#1105,#1106);
#907=AXIS2_PLACEMENT_3D('',#1369,#1108,#1109);
#908=AXIS2_PLACEMENT_3D('',#1371,#1110,#1111);
#909=AXIS2_PLACEMENT_3D('',#1374,#1113,#1114);
#910=AXIS2_PLACEMENT_3D('',#1375,#1115,#1116);
#911=AXIS2_PLACEMENT_3D('',#1377,#1117,#1118);
#912=AXIS2_PLACEMENT_3D('',#1378,#1119,#1120);
#913=AXIS2_PLACEMENT_3D('',#1380,#1122,#1123);
#914=AXIS2_PLACEMENT_3D('',#1381,#1124,#1125);
#915=AXIS2_PLACEMENT_3D('',#1383,#1126,#1127);
#916=AXIS2_PLACEMENT_3D('',#1386,#1129,#1130);
#917=AXIS2_PLACEMENT_3D('',#1387,#1131,#1132);
#918=AXIS2_PLACEMENT_3D('',#1389,#1133,#1134);
#919=AXIS2_PLACEMENT_3D('',#1390,#1135,#1136);
#920=AXIS2_PLACEMENT_3D('',#1392,#1137,#1138);
#921=AXIS2_PLACEMENT_3D('',#1393,#1139,#1140);
#922=AXIS2_PLACEMENT_3D('',#1395,#1141,#1142);
#923=AXIS2_PLACEMENT_3D('',#1397,#1144,#1145);
#924=AXIS2_PLACEMENT_3D('',#1399,#1146,#1147);
#925=AXIS2_PLACEMENT_3D('',#1402,#1149,#1150);
#926=AXIS2_PLACEMENT_3D('',#1403,#1151,#1152);
#927=AXIS2_PLACEMENT_3D('',#1405,#1153,#1154);
#928=AXIS2_PLACEMENT_3D('',#1406,#1155,#1156);
#929=AXIS2_PLACEMENT_3D('',#1408,#1158,#1159);
#930=AXIS2_PLACEMENT_3D('',#1409,#1160,#1161);
#931=AXIS2_PLACEMENT_3D('',#1411,#1162,#1163);
#932=AXIS2_PLACEMENT_3D('',#1414,#1165,#1166);
#933=AXIS2_PLACEMENT_3D('',#1415,#1167,#1168);
#934=AXIS2_PLACEMENT_3D('',#1417,#1169,#1170);
#935=AXIS2_PLACEMENT_3D('',#1418,#1171,#1172);
#936=AXIS2_PLACEMENT_3D('',#1420,#1173,#1174);
#937=AXIS2_PLACEMENT_3D('',#1421,#1175,#1176);
#938=AXIS2_PLACEMENT_3D('',#1423,#1177,#1178);
#939=AXIS2_PLACEMENT_3D('',#1425,#1180,#1181);
#940=AXIS2_PLACEMENT_3D('',#1427,#1182,#1183);
#941=AXIS2_PLACEMENT_3D('',#1430,#1185,#1186);
#942=AXIS2_PLACEMENT_3D('',#1431,#1187,#1188);
#943=AXIS2_PLACEMENT_3D('',#1433,#1189,#1190);
#944=AXIS2_PLACEMENT_3D('',#1434,#1191,#1192);
#945=AXIS2_PLACEMENT_3D('',#1436,#1194,#1195);
#946=AXIS2_PLACEMENT_3D('',#1437,#1196,#1197);
#947=AXIS2_PLACEMENT_3D('',#1439,#1198,#1199);
#948=AXIS2_PLACEMENT_3D('',#1442,#1201,#1202);
#949=AXIS2_PLACEMENT_3D('',#1443,#1203,#1204);
#950=AXIS2_PLACEMENT_3D('',#1445,#1205,#1206);
#951=AXIS2_PLACEMENT_3D('',#1446,#1207,#1208);
#952=AXIS2_PLACEMENT_3D('',#1448,#1209,#1210);
#953=AXIS2_PLACEMENT_3D('',#1449,#1211,#1212);
#954=AXIS2_PLACEMENT_3D('',#1451,#1213,#1214);
#955=AXIS2_PLACEMENT_3D('',#1453,#1216,#1217);
#956=AXIS2_PLACEMENT_3D('',#1455,#1218,#1219);
#957=AXIS2_PLACEMENT_3D('',#1458,#1221,#1222);
#958=AXIS2_PLACEMENT_3D('',#1459,#1223,#1224);
#959=AXIS2_PLACEMENT_3D('',#1461,#1225,#1226);
#960=AXIS2_PLACEMENT_3D('',#1462,#1227,#1228);
#961=AXIS2_PLACEMENT_3D('',#1464,#1230,#1231);
#962=AXIS2_PLACEMENT_3D('',#1465,#1232,#1233);
#963=AXIS2_PLACEMENT_3D('',#1467,#1234,#1235);
#964=AXIS2_PLACEMENT_3D('',#1470,#1237,#1238);
#965=AXIS2_PLACEMENT_3D('',#1471,#1239,#1240);
#966=AXIS2_PLACEMENT_3D('',#1473,#1241,#1242);
#967=AXIS2_PLACEMENT_3D('',#1474,#1243,#1244);
#968=AXIS2_PLACEMENT_3D('',#1476,#1245,#1246);
#969=AXIS2_PLACEMENT_3D('',#1477,#1247,#1248);
#970=AXIS2_PLACEMENT_3D('',#1479,#1249,#1250);
#971=AXIS2_PLACEMENT_3D('',#1481,#1252,#1253);
#972=AXIS2_PLACEMENT_3D('',#1483,#1254,#1255);
#973=AXIS2_PLACEMENT_3D('',#1486,#1257,#1258);
#974=AXIS2_PLACEMENT_3D('',#1487,#1259,#1260);
#975=AXIS2_PLACEMENT_3D('',#1489,#1261,#1262);
#976=AXIS2_PLACEMENT_3D('',#1490,#1263,#1264);
#977=AXIS2_PLACEMENT_3D('',#1492,#1266,#1267);
#978=DIRECTION('axis',(0.,0.,1.));
#979=DIRECTION('refdir',(1.,0.,0.));
#980=DIRECTION('center_axis',(0.,0.,1.));
#981=DIRECTION('ref_axis',(-1.,-1.49555191995717E-64,0.));
#982=DIRECTION('center_axis',(8.32667268468864E-17,-6.06667932481978E-33,
1.));
#983=DIRECTION('ref_axis',(-1.,-1.49555191995717E-64,0.));
#984=DIRECTION('',(0.,0.,-1.));
#985=DIRECTION('center_axis',(8.32667268468864E-17,-6.06667932481978E-33,
1.));
#986=DIRECTION('ref_axis',(-1.,-1.49555191995717E-64,0.));
#987=DIRECTION('center_axis',(-8.32667268468864E-17,6.06667932481978E-33,
-1.));
#988=DIRECTION('ref_axis',(-1.,-1.49555191995717E-64,8.32667268468864E-17));
#989=DIRECTION('center_axis',(8.32667268468864E-17,-6.06667932481978E-33,
1.));
#990=DIRECTION('ref_axis',(-1.,-1.49555191995717E-64,0.));
#991=DIRECTION('center_axis',(-8.32667268468864E-17,6.06667932481978E-33,
-1.));
#992=DIRECTION('ref_axis',(-1.,-1.49555191995717E-64,8.32667268468864E-17));
#993=DIRECTION('center_axis',(-8.32667268468864E-17,6.06667932481978E-33,
-1.));
#994=DIRECTION('ref_axis',(-1.,-1.49555191995717E-64,0.));
#995=DIRECTION('center_axis',(0.,0.,-1.));
#996=DIRECTION('ref_axis',(-1.,-1.49555191995717E-64,0.));
#997=DIRECTION('center_axis',(-8.32667268468864E-17,6.06667932481978E-33,
-1.));
#998=DIRECTION('ref_axis',(-1.,-1.49555191995717E-64,8.32667268468864E-17));
#999=DIRECTION('',(0.,0.,1.));
#1000=DIRECTION('center_axis',(0.,0.,1.));
#1001=DIRECTION('ref_axis',(-1.,-1.49555191995717E-64,0.));
#1002=DIRECTION('center_axis',(8.32667268468864E-17,-6.06667932481978E-33,
1.));
#1003=DIRECTION('ref_axis',(-1.,-1.49555191995717E-64,0.));
#1004=DIRECTION('',(0.,0.,1.));
#1005=DIRECTION('center_axis',(-8.32667268468864E-17,6.06667932481978E-33,
-1.));
#1006=DIRECTION('ref_axis',(-1.,-1.49555191995717E-64,0.));
#1007=DIRECTION('center_axis',(-8.32667268468864E-17,6.06667932481978E-33,
-1.));
#1008=DIRECTION('ref_axis',(-1.,-1.49555191995717E-64,8.32667268468864E-17));
#1009=DIRECTION('center_axis',(8.32667268468864E-17,-6.06667932481978E-33,
1.));
#1010=DIRECTION('ref_axis',(-1.,-1.49555191995717E-64,8.32667268468864E-17));
#1011=DIRECTION('center_axis',(0.,0.,-1.));
#1012=DIRECTION('ref_axis',(-1.,-1.49555191995717E-64,0.));
#1013=DIRECTION('',(0.,0.,1.));
#1014=DIRECTION('center_axis',(-8.32667268468864E-17,6.06667932481978E-33,
-1.));
#1015=DIRECTION('ref_axis',(-1.,-1.49555191995717E-64,8.32667268468864E-17));
#1016=DIRECTION('center_axis',(0.,0.,1.));
#1017=DIRECTION('ref_axis',(-1.,-1.49555191995717E-64,0.));
#1018=DIRECTION('center_axis',(8.32667268468864E-17,-6.06667932481978E-33,
1.));
#1019=DIRECTION('ref_axis',(-1.,-1.49555191995717E-64,0.));
#1020=DIRECTION('',(0.,0.,-1.));
#1021=DIRECTION('center_axis',(8.32667268468864E-17,-6.06667932481978E-33,
1.));
#1022=DIRECTION('ref_axis',(-1.,-1.49555191995717E-64,0.));
#1023=DIRECTION('center_axis',(-8.32667268468864E-17,6.06667932481978E-33,
-1.));
#1024=DIRECTION('ref_axis',(-1.,-1.49555191995717E-64,8.32667268468864E-17));
#1025=DIRECTION('center_axis',(8.32667268468864E-17,-6.06667932481978E-33,
1.));
#1026=DIRECTION('ref_axis',(-1.,-1.49555191995717E-64,0.));
#1027=DIRECTION('center_axis',(-8.32667268468864E-17,6.06667932481978E-33,
-1.));
#1028=DIRECTION('ref_axis',(-1.,-1.49555191995717E-64,8.32667268468864E-17));
#1029=DIRECTION('center_axis',(-8.32667268468864E-17,6.06667932481978E-33,
-1.));
#1030=DIRECTION('ref_axis',(-1.,-1.49555191995717E-64,0.));
#1031=DIRECTION('center_axis',(0.,0.,-1.));
#1032=DIRECTION('ref_axis',(-1.,-1.49555191995717E-64,0.));
#1033=DIRECTION('center_axis',(-8.32667268468864E-17,6.06667932481978E-33,
-1.));
#1034=DIRECTION('ref_axis',(-1.,-1.49555191995717E-64,8.32667268468864E-17));
#1035=DIRECTION('',(0.,0.,1.));
#1036=DIRECTION('center_axis',(0.,0.,1.));
#1037=DIRECTION('ref_axis',(-1.,-1.49555191995717E-64,0.));
#1038=DIRECTION('center_axis',(8.32667268468864E-17,-6.06667932481978E-33,
1.));
#1039=DIRECTION('ref_axis',(-1.,-1.49555191995717E-64,0.));
#1040=DIRECTION('',(0.,0.,1.));
#1041=DIRECTION('center_axis',(-8.32667268468864E-17,6.06667932481978E-33,
-1.));
#1042=DIRECTION('ref_axis',(-1.,-1.49555191995717E-64,0.));
#1043=DIRECTION('center_axis',(-8.32667268468864E-17,6.06667932481978E-33,
-1.));
#1044=DIRECTION('ref_axis',(-1.,-1.49555191995717E-64,8.32667268468864E-17));
#1045=DIRECTION('center_axis',(8.32667268468864E-17,-6.06667932481978E-33,
1.));
#1046=DIRECTION('ref_axis',(-1.,-1.49555191995717E-64,8.32667268468864E-17));
#1047=DIRECTION('center_axis',(0.,0.,-1.));
#1048=DIRECTION('ref_axis',(-1.,-1.49555191995717E-64,0.));
#1049=DIRECTION('',(0.,0.,1.));
#1050=DIRECTION('center_axis',(-8.32667268468864E-17,6.06667932481978E-33,
-1.));
#1051=DIRECTION('ref_axis',(-1.,-1.49555191995717E-64,8.32667268468864E-17));
#1052=DIRECTION('center_axis',(0.,0.,1.));
#1053=DIRECTION('ref_axis',(-1.,-1.49555191995717E-64,0.));
#1054=DIRECTION('center_axis',(8.32667268468864E-17,-6.06667932481978E-33,
1.));
#1055=DIRECTION('ref_axis',(-1.,-1.49555191995717E-64,0.));
#1056=DIRECTION('',(0.,0.,-1.));
#1057=DIRECTION('center_axis',(8.32667268468864E-17,-6.06667932481978E-33,
1.));
#1058=DIRECTION('ref_axis',(-1.,-1.49555191995717E-64,0.));
#1059=DIRECTION('center_axis',(-8.32667268468864E-17,6.06667932481978E-33,
-1.));
#1060=DIRECTION('ref_axis',(-1.,-1.49555191995717E-64,8.32667268468864E-17));
#1061=DIRECTION('center_axis',(8.32667268468864E-17,-6.06667932481978E-33,
1.));
#1062=DIRECTION('ref_axis',(-1.,-1.49555191995717E-64,0.));
#1063=DIRECTION('center_axis',(-8.32667268468864E-17,6.06667932481978E-33,
-1.));
#1064=DIRECTION('ref_axis',(-1.,-1.49555191995717E-64,8.32667268468864E-17));
#1065=DIRECTION('center_axis',(-8.32667268468864E-17,6.06667932481978E-33,
-1.));
#1066=DIRECTION('ref_axis',(-1.,-1.49555191995717E-64,0.));
#1067=DIRECTION('center_axis',(0.,0.,-1.));
#1068=DIRECTION('ref_axis',(-1.,-1.49555191995717E-64,0.));
#1069=DIRECTION('center_axis',(-8.32667268468864E-17,6.06667932481978E-33,
-1.));
#1070=DIRECTION('ref_axis',(-1.,-1.49555191995717E-64,8.32667268468864E-17));
#1071=DIRECTION('',(0.,0.,1.));
#1072=DIRECTION('center_axis',(0.,0.,1.));
#1073=DIRECTION('ref_axis',(-1.,-1.49555191995717E-64,0.));
#1074=DIRECTION('center_axis',(8.32667268468864E-17,-6.06667932481978E-33,
1.));
#1075=DIRECTION('ref_axis',(-1.,-1.49555191995717E-64,0.));
#1076=DIRECTION('',(0.,0.,1.));
#1077=DIRECTION('center_axis',(-8.32667268468864E-17,6.06667932481978E-33,
-1.));
#1078=DIRECTION('ref_axis',(-1.,-1.49555191995717E-64,0.));
#1079=DIRECTION('center_axis',(-8.32667268468864E-17,6.06667932481978E-33,
-1.));
#1080=DIRECTION('ref_axis',(-1.,-1.49555191995717E-64,8.32667268468864E-17));
#1081=DIRECTION('center_axis',(8.32667268468864E-17,-6.06667932481978E-33,
1.));
#1082=DIRECTION('ref_axis',(-1.,-1.49555191995717E-64,8.32667268468864E-17));
#1083=DIRECTION('center_axis',(0.,0.,-1.));
#1084=DIRECTION('ref_axis',(-1.,-1.49555191995717E-64,0.));
#1085=DIRECTION('',(0.,0.,1.));
#1086=DIRECTION('center_axis',(-8.32667268468864E-17,6.06667932481978E-33,
-1.));
#1087=DIRECTION('ref_axis',(-1.,-1.49555191995717E-64,8.32667268468864E-17));
#1088=DIRECTION('center_axis',(0.,0.,1.));
#1089=DIRECTION('ref_axis',(-1.,-1.49555191995717E-64,0.));
#1090=DIRECTION('center_axis',(8.32667268468864E-17,-6.06667932481978E-33,
1.));
#1091=DIRECTION('ref_axis',(-1.,-1.49555191995717E-64,0.));
#1092=DIRECTION('',(0.,0.,-1.));
#1093=DIRECTION('center_axis',(8.32667268468864E-17,-6.06667932481978E-33,
1.));
#1094=DIRECTION('ref_axis',(-1.,-1.49555191995717E-64,0.));
#1095=DIRECTION('center_axis',(-8.32667268468864E-17,6.06667932481978E-33,
-1.));
#1096=DIRECTION('ref_axis',(-1.,-1.49555191995717E-64,8.32667268468864E-17));
#1097=DIRECTION('center_axis',(8.32667268468864E-17,-6.06667932481978E-33,
1.));
#1098=DIRECTION('ref_axis',(-1.,-1.49555191995717E-64,0.));
#1099=DIRECTION('center_axis',(-8.32667268468864E-17,6.06667932481978E-33,
-1.));
#1100=DIRECTION('ref_axis',(-1.,-1.49555191995717E-64,8.32667268468864E-17));
#1101=DIRECTION('center_axis',(-8.32667268468864E-17,6.06667932481978E-33,
-1.));
#1102=DIRECTION('ref_axis',(-1.,-1.49555191995717E-64,0.));
#1103=DIRECTION('center_axis',(0.,0.,-1.));
#1104=DIRECTION('ref_axis',(-1.,-1.49555191995717E-64,0.));
#1105=DIRECTION('center_axis',(-8.32667268468864E-17,6.06667932481978E-33,
-1.));
#1106=DIRECTION('ref_axis',(-1.,-1.49555191995717E-64,8.32667268468864E-17));
#1107=DIRECTION('',(0.,0.,1.));
#1108=DIRECTION('center_axis',(0.,0.,1.));
#1109=DIRECTION('ref_axis',(-1.,-1.49555191995717E-64,0.));
#1110=DIRECTION('center_axis',(8.32667268468864E-17,-6.06667932481978E-33,
1.));
#1111=DIRECTION('ref_axis',(-1.,-1.49555191995717E-64,0.));
#1112=DIRECTION('',(0.,0.,1.));
#1113=DIRECTION('center_axis',(-8.32667268468864E-17,6.06667932481978E-33,
-1.));
#1114=DIRECTION('ref_axis',(-1.,-1.49555191995717E-64,0.));
#1115=DIRECTION('center_axis',(-8.32667268468864E-17,6.06667932481978E-33,
-1.));
#1116=DIRECTION('ref_axis',(-1.,-1.49555191995717E-64,8.32667268468864E-17));
#1117=DIRECTION('center_axis',(8.32667268468864E-17,-6.06667932481978E-33,
1.));
#1118=DIRECTION('ref_axis',(-1.,-1.49555191995717E-64,8.32667268468864E-17));
#1119=DIRECTION('center_axis',(0.,0.,-1.));
#1120=DIRECTION('ref_axis',(-1.,-1.49555191995717E-64,0.));
#1121=DIRECTION('',(0.,0.,1.));
#1122=DIRECTION('center_axis',(-8.32667268468864E-17,6.06667932481978E-33,
-1.));
#1123=DIRECTION('ref_axis',(-1.,-1.49555191995717E-64,8.32667268468864E-17));
#1124=DIRECTION('center_axis',(0.,0.,1.));
#1125=DIRECTION('ref_axis',(-1.,-1.49555191995717E-64,0.));
#1126=DIRECTION('center_axis',(-8.32667268468864E-17,6.06667932481978E-33,
1.));
#1127=DIRECTION('ref_axis',(-1.,-1.49555191995717E-64,0.));
#1128=DIRECTION('',(0.,0.,1.));
#1129=DIRECTION('center_axis',(-8.32667268468864E-17,6.06667932481978E-33,
1.));
#1130=DIRECTION('ref_axis',(-1.,-1.49555191995717E-64,0.));
#1131=DIRECTION('center_axis',(8.32667268468864E-17,-6.06667932481978E-33,
-1.));
#1132=DIRECTION('ref_axis',(-1.,-1.49555191995717E-64,-8.32667268468864E-17));
#1133=DIRECTION('center_axis',(-8.32667268468864E-17,6.06667932481978E-33,
1.));
#1134=DIRECTION('ref_axis',(-1.,-1.49555191995717E-64,0.));
#1135=DIRECTION('center_axis',(8.32667268468864E-17,-6.06667932481978E-33,
-1.));
#1136=DIRECTION('ref_axis',(-1.,-1.49555191995717E-64,-8.32667268468864E-17));
#1137=DIRECTION('center_axis',(8.32667268468864E-17,-6.06667932481978E-33,
-1.));
#1138=DIRECTION('ref_axis',(-1.,-1.49555191995717E-64,0.));
#1139=DIRECTION('center_axis',(0.,0.,-1.));
#1140=DIRECTION('ref_axis',(-1.,-1.49555191995717E-64,0.));
#1141=DIRECTION('center_axis',(8.32667268468864E-17,-6.06667932481978E-33,
-1.));
#1142=DIRECTION('ref_axis',(-1.,-1.49555191995717E-64,-8.32667268468864E-17));
#1143=DIRECTION('',(0.,0.,-1.));
#1144=DIRECTION('center_axis',(0.,0.,1.));
#1145=DIRECTION('ref_axis',(-1.,-1.49555191995717E-64,0.));
#1146=DIRECTION('center_axis',(-8.32667268468864E-17,6.06667932481978E-33,
1.));
#1147=DIRECTION('ref_axis',(-1.,-1.49555191995717E-64,0.));
#1148=DIRECTION('',(0.,0.,-1.));
#1149=DIRECTION('center_axis',(8.32667268468864E-17,-6.06667932481978E-33,
-1.));
#1150=DIRECTION('ref_axis',(-1.,-1.49555191995717E-64,0.));
#1151=DIRECTION('center_axis',(8.32667268468864E-17,-6.06667932481978E-33,
-1.));
#1152=DIRECTION('ref_axis',(-1.,-1.49555191995717E-64,-8.32667268468864E-17));
#1153=DIRECTION('center_axis',(-8.32667268468864E-17,6.06667932481978E-33,
1.));
#1154=DIRECTION('ref_axis',(-1.,-1.49555191995717E-64,-8.32667268468864E-17));
#1155=DIRECTION('center_axis',(0.,0.,-1.));
#1156=DIRECTION('ref_axis',(-1.,-1.49555191995717E-64,0.));
#1157=DIRECTION('',(0.,0.,-1.));
#1158=DIRECTION('center_axis',(8.32667268468864E-17,-6.06667932481978E-33,
-1.));
#1159=DIRECTION('ref_axis',(-1.,-1.49555191995717E-64,-8.32667268468864E-17));
#1160=DIRECTION('center_axis',(0.,0.,1.));
#1161=DIRECTION('ref_axis',(-1.,-1.49555191995717E-64,0.));
#1162=DIRECTION('center_axis',(-8.32667268468864E-17,6.06667932481978E-33,
1.));
#1163=DIRECTION('ref_axis',(-1.,-1.49555191995717E-64,0.));
#1164=DIRECTION('',(0.,0.,1.));
#1165=DIRECTION('center_axis',(-8.32667268468864E-17,6.06667932481978E-33,
1.));
#1166=DIRECTION('ref_axis',(-1.,-1.49555191995717E-64,0.));
#1167=DIRECTION('center_axis',(8.32667268468864E-17,-6.06667932481978E-33,
-1.));
#1168=DIRECTION('ref_axis',(-1.,-1.49555191995717E-64,-8.32667268468864E-17));
#1169=DIRECTION('center_axis',(-8.32667268468864E-17,6.06667932481978E-33,
1.));
#1170=DIRECTION('ref_axis',(-1.,-1.49555191995717E-64,0.));
#1171=DIRECTION('center_axis',(8.32667268468864E-17,-6.06667932481978E-33,
-1.));
#1172=DIRECTION('ref_axis',(-1.,-1.49555191995717E-64,-8.32667268468864E-17));
#1173=DIRECTION('center_axis',(8.32667268468864E-17,-6.06667932481978E-33,
-1.));
#1174=DIRECTION('ref_axis',(-1.,-1.49555191995717E-64,0.));
#1175=DIRECTION('center_axis',(0.,0.,-1.));
#1176=DIRECTION('ref_axis',(-1.,-1.49555191995717E-64,0.));
#1177=DIRECTION('center_axis',(8.32667268468864E-17,-6.06667932481978E-33,
-1.));
#1178=DIRECTION('ref_axis',(-1.,-1.49555191995717E-64,-8.32667268468864E-17));
#1179=DIRECTION('',(0.,0.,-1.));
#1180=DIRECTION('center_axis',(0.,0.,1.));
#1181=DIRECTION('ref_axis',(-1.,-1.49555191995717E-64,0.));
#1182=DIRECTION('center_axis',(-8.32667268468864E-17,6.06667932481978E-33,
1.));
#1183=DIRECTION('ref_axis',(-1.,-1.49555191995717E-64,0.));
#1184=DIRECTION('',(0.,0.,-1.));
#1185=DIRECTION('center_axis',(8.32667268468864E-17,-6.06667932481978E-33,
-1.));
#1186=DIRECTION('ref_axis',(-1.,-1.49555191995717E-64,0.));
#1187=DIRECTION('center_axis',(8.32667268468864E-17,-6.06667932481978E-33,
-1.));
#1188=DIRECTION('ref_axis',(-1.,-1.49555191995717E-64,-8.32667268468864E-17));
#1189=DIRECTION('center_axis',(-8.32667268468864E-17,6.06667932481978E-33,
1.));
#1190=DIRECTION('ref_axis',(-1.,-1.49555191995717E-64,-8.32667268468864E-17));
#1191=DIRECTION('center_axis',(0.,0.,-1.));
#1192=DIRECTION('ref_axis',(-1.,-1.49555191995717E-64,0.));
#1193=DIRECTION('',(0.,0.,-1.));
#1194=DIRECTION('center_axis',(8.32667268468864E-17,-6.06667932481978E-33,
-1.));
#1195=DIRECTION('ref_axis',(-1.,-1.49555191995717E-64,-8.32667268468864E-17));
#1196=DIRECTION('center_axis',(0.,0.,1.));
#1197=DIRECTION('ref_axis',(-1.,-1.49555191995717E-64,0.));
#1198=DIRECTION('center_axis',(-8.32667268468864E-17,6.06667932481978E-33,
1.));
#1199=DIRECTION('ref_axis',(-1.,-1.49555191995717E-64,0.));
#1200=DIRECTION('',(0.,0.,1.));
#1201=DIRECTION('center_axis',(-8.32667268468864E-17,6.06667932481978E-33,
1.));
#1202=DIRECTION('ref_axis',(-1.,-1.49555191995717E-64,0.));
#1203=DIRECTION('center_axis',(8.32667268468864E-17,-6.06667932481978E-33,
-1.));
#1204=DIRECTION('ref_axis',(-1.,-1.49555191995717E-64,-8.32667268468864E-17));
#1205=DIRECTION('center_axis',(-8.32667268468864E-17,6.06667932481978E-33,
1.));
#1206=DIRECTION('ref_axis',(-1.,-1.49555191995717E-64,0.));
#1207=DIRECTION('center_axis',(8.32667268468864E-17,-6.06667932481978E-33,
-1.));
#1208=DIRECTION('ref_axis',(-1.,-1.49555191995717E-64,-8.32667268468864E-17));
#1209=DIRECTION('center_axis',(8.32667268468864E-17,-6.06667932481978E-33,
-1.));
#1210=DIRECTION('ref_axis',(-1.,-1.49555191995717E-64,0.));
#1211=DIRECTION('center_axis',(0.,0.,-1.));
#1212=DIRECTION('ref_axis',(-1.,-1.49555191995717E-64,0.));
#1213=DIRECTION('center_axis',(8.32667268468864E-17,-6.06667932481978E-33,
-1.));
#1214=DIRECTION('ref_axis',(-1.,-1.49555191995717E-64,-8.32667268468864E-17));
#1215=DIRECTION('',(0.,0.,-1.));
#1216=DIRECTION('center_axis',(0.,0.,1.));
#1217=DIRECTION('ref_axis',(-1.,-1.49555191995717E-64,0.));
#1218=DIRECTION('center_axis',(-8.32667268468864E-17,6.06667932481978E-33,
1.));
#1219=DIRECTION('ref_axis',(-1.,-1.49555191995717E-64,0.));
#1220=DIRECTION('',(0.,0.,-1.));
#1221=DIRECTION('center_axis',(8.32667268468864E-17,-6.06667932481978E-33,
-1.));
#1222=DIRECTION('ref_axis',(-1.,-1.49555191995717E-64,0.));
#1223=DIRECTION('center_axis',(8.32667268468864E-17,-6.06667932481978E-33,
-1.));
#1224=DIRECTION('ref_axis',(-1.,-1.49555191995717E-64,-8.32667268468864E-17));
#1225=DIRECTION('center_axis',(-8.32667268468864E-17,6.06667932481978E-33,
1.));
#1226=DIRECTION('ref_axis',(-1.,-1.49555191995717E-64,-8.32667268468864E-17));
#1227=DIRECTION('center_axis',(0.,0.,-1.));
#1228=DIRECTION('ref_axis',(-1.,-1.49555191995717E-64,0.));
#1229=DIRECTION('',(0.,0.,-1.));
#1230=DIRECTION('center_axis',(8.32667268468864E-17,-6.06667932481978E-33,
-1.));
#1231=DIRECTION('ref_axis',(-1.,-1.49555191995717E-64,-8.32667268468864E-17));
#1232=DIRECTION('center_axis',(0.,0.,1.));
#1233=DIRECTION('ref_axis',(-1.,-1.49555191995717E-64,0.));
#1234=DIRECTION('center_axis',(-8.32667268468864E-17,6.06667932481978E-33,
1.));
#1235=DIRECTION('ref_axis',(-1.,-1.49555191995717E-64,0.));
#1236=DIRECTION('',(0.,0.,1.));
#1237=DIRECTION('center_axis',(-8.32667268468864E-17,6.06667932481978E-33,
1.));
#1238=DIRECTION('ref_axis',(-1.,-1.49555191995717E-64,0.));
#1239=DIRECTION('center_axis',(8.32667268468864E-17,-6.06667932481978E-33,
-1.));
#1240=DIRECTION('ref_axis',(-1.,-1.49555191995717E-64,-8.32667268468864E-17));
#1241=DIRECTION('center_axis',(-8.32667268468864E-17,6.06667932481978E-33,
1.));
#1242=DIRECTION('ref_axis',(-1.,-1.49555191995717E-64,0.));
#1243=DIRECTION('center_axis',(8.32667268468864E-17,-6.06667932481978E-33,
-1.));
#1244=DIRECTION('ref_axis',(-1.,-1.49555191995717E-64,-8.32667268468864E-17));
#1245=DIRECTION('center_axis',(8.32667268468864E-17,-6.06667932481978E-33,
-1.));
#1246=DIRECTION('ref_axis',(-1.,-1.49555191995717E-64,0.));
#1247=DIRECTION('center_axis',(0.,0.,-1.));
#1248=DIRECTION('ref_axis',(-1.,-1.49555191995717E-64,0.));
#1249=DIRECTION('center_axis',(8.32667268468864E-17,-6.06667932481978E-33,
-1.));
#1250=DIRECTION('ref_axis',(-1.,-1.49555191995717E-64,-8.32667268468864E-17));
#1251=DIRECTION('',(0.,0.,-1.));
#1252=DIRECTION('center_axis',(0.,0.,1.));
#1253=DIRECTION('ref_axis',(-1.,-1.49555191995717E-64,0.));
#1254=DIRECTION('center_axis',(-8.32667268468864E-17,6.06667932481978E-33,
1.));
#1255=DIRECTION('ref_axis',(-1.,-1.49555191995717E-64,0.));
#1256=DIRECTION('',(0.,0.,-1.));
#1257=DIRECTION('center_axis',(8.32667268468864E-17,-6.06667932481978E-33,
-1.));
#1258=DIRECTION('ref_axis',(-1.,-1.49555191995717E-64,0.));
#1259=DIRECTION('center_axis',(8.32667268468864E-17,-6.06667932481978E-33,
-1.));
#1260=DIRECTION('ref_axis',(-1.,-1.49555191995717E-64,-8.32667268468864E-17));
#1261=DIRECTION('center_axis',(-8.32667268468864E-17,6.06667932481978E-33,
1.));
#1262=DIRECTION('ref_axis',(-1.,-1.49555191995717E-64,-8.32667268468864E-17));
#1263=DIRECTION('center_axis',(0.,0.,-1.));
#1264=DIRECTION('ref_axis',(-1.,-1.49555191995717E-64,0.));
#1265=DIRECTION('',(0.,0.,-1.));
#1266=DIRECTION('center_axis',(8.32667268468864E-17,-6.06667932481978E-33,
-1.));
#1267=DIRECTION('ref_axis',(-1.,-1.49555191995717E-64,-8.32667268468864E-17));
#1268=CARTESIAN_POINT('',(0.,0.,0.));
#1269=CARTESIAN_POINT('Origin',(117.832016024068,-17.,-201.));
#1270=CARTESIAN_POINT('',(132.832016024068,-17.,-178.));
#1271=CARTESIAN_POINT('Origin',(117.832016024068,-17.,-178.));
#1272=CARTESIAN_POINT('',(132.832016024068,-17.,-196.));
#1273=CARTESIAN_POINT('',(132.832016024068,-17.,-201.));
#1274=CARTESIAN_POINT('Origin',(117.832016024068,-17.,-196.));
#1275=CARTESIAN_POINT('Origin',(117.832016024068,-17.,-178.));
#1276=CARTESIAN_POINT('',(142.832016024068,-17.,-178.));
#1277=CARTESIAN_POINT('Origin',(117.832016024068,-17.,-178.));
#1278=CARTESIAN_POINT('Origin',(117.832016024068,-17.,-196.));
#1279=CARTESIAN_POINT('',(142.832016024068,-17.,-196.));
#1280=CARTESIAN_POINT('Origin',(117.832016024068,-17.,-196.));
#1281=CARTESIAN_POINT('Origin',(117.832016024068,-17.,-187.));
#1282=CARTESIAN_POINT('',(142.832016024068,-17.,-200.));
#1283=CARTESIAN_POINT('Origin',(117.832016024068,-17.,-200.));
#1284=CARTESIAN_POINT('',(142.832016024068,-17.,-187.));
#1285=CARTESIAN_POINT('Origin',(117.832016024068,-17.,-201.));
#1286=CARTESIAN_POINT('',(128.832016024068,-17.,-200.));
#1287=CARTESIAN_POINT('Origin',(117.832016024068,-17.,-200.));
#1288=CARTESIAN_POINT('',(128.832016024068,-17.,-174.));
#1289=CARTESIAN_POINT('',(128.832016024068,-17.,-201.));
#1290=CARTESIAN_POINT('Origin',(117.832016024068,-17.,-174.));
#1291=CARTESIAN_POINT('Origin',(117.832016024068,-17.,-174.));
#1292=CARTESIAN_POINT('',(142.832016024068,-17.,-174.));
#1293=CARTESIAN_POINT('Origin',(117.832016024068,-17.,-174.));
#1294=CARTESIAN_POINT('Origin',(117.832016024068,-17.,-187.));
#1295=CARTESIAN_POINT('',(142.832016024068,-17.,-187.));
#1296=CARTESIAN_POINT('Origin',(117.832016024068,-17.,-200.));
#1297=CARTESIAN_POINT('Origin',(37.8320160240681,-17.,-201.));
#1298=CARTESIAN_POINT('',(52.8320160240681,-17.,-178.));
#1299=CARTESIAN_POINT('Origin',(37.8320160240681,-17.,-178.));
#1300=CARTESIAN_POINT('',(52.8320160240681,-17.,-196.));
#1301=CARTESIAN_POINT('',(52.8320160240681,-17.,-201.));
#1302=CARTESIAN_POINT('Origin',(37.8320160240681,-17.,-196.));
#1303=CARTESIAN_POINT('Origin',(37.8320160240681,-17.,-178.));
#1304=CARTESIAN_POINT('',(62.8320160240681,-17.,-178.));
#1305=CARTESIAN_POINT('Origin',(37.8320160240681,-17.,-178.));
#1306=CARTESIAN_POINT('Origin',(37.8320160240681,-17.,-196.));
#1307=CARTESIAN_POINT('',(62.8320160240681,-17.,-196.));
#1308=CARTESIAN_POINT('Origin',(37.8320160240681,-17.,-196.));
#1309=CARTESIAN_POINT('Origin',(37.8320160240681,-17.,-187.));
#1310=CARTESIAN_POINT('',(62.8320160240681,-17.,-200.));
#1311=CARTESIAN_POINT('Origin',(37.8320160240681,-17.,-200.));
#1312=CARTESIAN_POINT('',(62.8320160240681,-17.,-187.));
#1313=CARTESIAN_POINT('Origin',(37.8320160240681,-17.,-201.));
#1314=CARTESIAN_POINT('',(48.8320160240681,-17.,-200.));
#1315=CARTESIAN_POINT('Origin',(37.8320160240681,-17.,-200.));
#1316=CARTESIAN_POINT('',(48.8320160240681,-17.,-174.));
#1317=CARTESIAN_POINT('',(48.8320160240681,-17.,-201.));
#1318=CARTESIAN_POINT('Origin',(37.8320160240681,-17.,-174.));
#1319=CARTESIAN_POINT('Origin',(37.8320160240681,-17.,-174.));
#1320=CARTESIAN_POINT('',(62.8320160240681,-17.,-174.));
#1321=CARTESIAN_POINT('Origin',(37.8320160240681,-17.,-174.));
#1322=CARTESIAN_POINT('Origin',(37.8320160240681,-17.,-187.));
#1323=CARTESIAN_POINT('',(62.8320160240681,-17.,-187.));
#1324=CARTESIAN_POINT('Origin',(37.8320160240681,-17.,-200.));
#1325=CARTESIAN_POINT('Origin',(-42.1679839759319,-17.,-201.));
#1326=CARTESIAN_POINT('',(-27.1679839759319,-17.,-178.));
#1327=CARTESIAN_POINT('Origin',(-42.1679839759319,-17.,-178.));
#1328=CARTESIAN_POINT('',(-27.1679839759319,-17.,-196.));
#1329=CARTESIAN_POINT('',(-27.1679839759319,-17.,-201.));
#1330=CARTESIAN_POINT('Origin',(-42.1679839759319,-17.,-196.));
#1331=CARTESIAN_POINT('Origin',(-42.1679839759319,-17.,-178.));
#1332=CARTESIAN_POINT('',(-17.1679839759319,-17.,-178.));
#1333=CARTESIAN_POINT('Origin',(-42.1679839759319,-17.,-178.));
#1334=CARTESIAN_POINT('Origin',(-42.1679839759319,-17.,-196.));
#1335=CARTESIAN_POINT('',(-17.1679839759319,-17.,-196.));
#1336=CARTESIAN_POINT('Origin',(-42.1679839759319,-17.,-196.));
#1337=CARTESIAN_POINT('Origin',(-42.1679839759319,-17.,-187.));
#1338=CARTESIAN_POINT('',(-17.1679839759319,-17.,-200.));
#1339=CARTESIAN_POINT('Origin',(-42.1679839759319,-17.,-200.));
#1340=CARTESIAN_POINT('',(-17.1679839759319,-17.,-187.));
#1341=CARTESIAN_POINT('Origin',(-42.1679839759319,-17.,-201.));
#1342=CARTESIAN_POINT('',(-31.1679839759319,-17.,-200.));
#1343=CARTESIAN_POINT('Origin',(-42.1679839759319,-17.,-200.));
#1344=CARTESIAN_POINT('',(-31.1679839759319,-17.,-174.));
#1345=CARTESIAN_POINT('',(-31.1679839759319,-17.,-201.));
#1346=CARTESIAN_POINT('Origin',(-42.1679839759319,-17.,-174.));
#1347=CARTESIAN_POINT('Origin',(-42.1679839759319,-17.,-174.));
#1348=CARTESIAN_POINT('',(-17.1679839759319,-17.,-174.));
#1349=CARTESIAN_POINT('Origin',(-42.1679839759319,-17.,-174.));
#1350=CARTESIAN_POINT('Origin',(-42.1679839759319,-17.,-187.));
#1351=CARTESIAN_POINT('',(-17.1679839759319,-17.,-187.));
#1352=CARTESIAN_POINT('Origin',(-42.1679839759319,-17.,-200.));
#1353=CARTESIAN_POINT('Origin',(-122.167983975932,-17.,-201.));
#1354=CARTESIAN_POINT('',(-107.167983975932,-17.,-178.));
#1355=CARTESIAN_POINT('Origin',(-122.167983975932,-17.,-178.));
#1356=CARTESIAN_POINT('',(-107.167983975932,-17.,-196.));
#1357=CARTESIAN_POINT('',(-107.167983975932,-17.,-201.));
#1358=CARTESIAN_POINT('Origin',(-122.167983975932,-17.,-196.));
#1359=CARTESIAN_POINT('Origin',(-122.167983975932,-17.,-178.));
#1360=CARTESIAN_POINT('',(-97.1679839759319,-17.,-178.));
#1361=CARTESIAN_POINT('Origin',(-122.167983975932,-17.,-178.));
#1362=CARTESIAN_POINT('Origin',(-122.167983975932,-17.,-196.));
#1363=CARTESIAN_POINT('',(-97.1679839759319,-17.,-196.));
#1364=CARTESIAN_POINT('Origin',(-122.167983975932,-17.,-196.));
#1365=CARTESIAN_POINT('Origin',(-122.167983975932,-17.,-187.));
#1366=CARTESIAN_POINT('',(-97.1679839759319,-17.,-200.));
#1367=CARTESIAN_POINT('Origin',(-122.167983975932,-17.,-200.));
#1368=CARTESIAN_POINT('',(-97.1679839759319,-17.,-187.));
#1369=CARTESIAN_POINT('Origin',(-122.167983975932,-17.,-201.));
#1370=CARTESIAN_POINT('',(-111.167983975932,-17.,-200.));
#1371=CARTESIAN_POINT('Origin',(-122.167983975932,-17.,-200.));
#1372=CARTESIAN_POINT('',(-111.167983975932,-17.,-174.));
#1373=CARTESIAN_POINT('',(-111.167983975932,-17.,-201.));
#1374=CARTESIAN_POINT('Origin',(-122.167983975932,-17.,-174.));
#1375=CARTESIAN_POINT('Origin',(-122.167983975932,-17.,-174.));
#1376=CARTESIAN_POINT('',(-97.1679839759319,-17.,-174.));
#1377=CARTESIAN_POINT('Origin',(-122.167983975932,-17.,-174.));
#1378=CARTESIAN_POINT('Origin',(-122.167983975932,-17.,-187.));
#1379=CARTESIAN_POINT('',(-97.1679839759319,-17.,-187.));
#1380=CARTESIAN_POINT('Origin',(-122.167983975932,-17.,-200.));
#1381=CARTESIAN_POINT('Origin',(117.832016024068,-17.,201.));
#1382=CARTESIAN_POINT('',(132.832016024068,-17.,178.));
#1383=CARTESIAN_POINT('Origin',(117.832016024068,-17.,178.));
#1384=CARTESIAN_POINT('',(132.832016024068,-17.,196.));
#1385=CARTESIAN_POINT('',(132.832016024068,-17.,201.));
#1386=CARTESIAN_POINT('Origin',(117.832016024068,-17.,196.));
#1387=CARTESIAN_POINT('Origin',(117.832016024068,-17.,178.));
#1388=CARTESIAN_POINT('',(142.832016024068,-17.,178.));
#1389=CARTESIAN_POINT('Origin',(117.832016024068,-17.,178.));
#1390=CARTESIAN_POINT('Origin',(117.832016024068,-17.,196.));
#1391=CARTESIAN_POINT('',(142.832016024068,-17.,196.));
#1392=CARTESIAN_POINT('Origin',(117.832016024068,-17.,196.));
#1393=CARTESIAN_POINT('Origin',(117.832016024068,-17.,187.));
#1394=CARTESIAN_POINT('',(142.832016024068,-17.,200.));
#1395=CARTESIAN_POINT('Origin',(117.832016024068,-17.,200.));
#1396=CARTESIAN_POINT('',(142.832016024068,-17.,187.));
#1397=CARTESIAN_POINT('Origin',(117.832016024068,-17.,201.));
#1398=CARTESIAN_POINT('',(128.832016024068,-17.,200.));
#1399=CARTESIAN_POINT('Origin',(117.832016024068,-17.,200.));
#1400=CARTESIAN_POINT('',(128.832016024068,-17.,174.));
#1401=CARTESIAN_POINT('',(128.832016024068,-17.,201.));
#1402=CARTESIAN_POINT('Origin',(117.832016024068,-17.,174.));
#1403=CARTESIAN_POINT('Origin',(117.832016024068,-17.,174.));
#1404=CARTESIAN_POINT('',(142.832016024068,-17.,174.));
#1405=CARTESIAN_POINT('Origin',(117.832016024068,-17.,174.));
#1406=CARTESIAN_POINT('Origin',(117.832016024068,-17.,187.));
#1407=CARTESIAN_POINT('',(142.832016024068,-17.,187.));
#1408=CARTESIAN_POINT('Origin',(117.832016024068,-17.,200.));
#1409=CARTESIAN_POINT('Origin',(-42.1679839759319,-17.,201.));
#1410=CARTESIAN_POINT('',(-27.1679839759319,-17.,178.));
#1411=CARTESIAN_POINT('Origin',(-42.1679839759319,-17.,178.));
#1412=CARTESIAN_POINT('',(-27.1679839759319,-17.,196.));
#1413=CARTESIAN_POINT('',(-27.1679839759319,-17.,201.));
#1414=CARTESIAN_POINT('Origin',(-42.1679839759319,-17.,196.));
#1415=CARTESIAN_POINT('Origin',(-42.1679839759319,-17.,178.));
#1416=CARTESIAN_POINT('',(-17.1679839759319,-17.,178.));
#1417=CARTESIAN_POINT('Origin',(-42.1679839759319,-17.,178.));
#1418=CARTESIAN_POINT('Origin',(-42.1679839759319,-17.,196.));
#1419=CARTESIAN_POINT('',(-17.1679839759319,-17.,196.));
#1420=CARTESIAN_POINT('Origin',(-42.1679839759319,-17.,196.));
#1421=CARTESIAN_POINT('Origin',(-42.1679839759319,-17.,187.));
#1422=CARTESIAN_POINT('',(-17.1679839759319,-17.,200.));
#1423=CARTESIAN_POINT('Origin',(-42.1679839759319,-17.,200.));
#1424=CARTESIAN_POINT('',(-17.1679839759319,-17.,187.));
#1425=CARTESIAN_POINT('Origin',(-42.1679839759319,-17.,201.));
#1426=CARTESIAN_POINT('',(-31.1679839759319,-17.,200.));
#1427=CARTESIAN_POINT('Origin',(-42.1679839759319,-17.,200.));
#1428=CARTESIAN_POINT('',(-31.1679839759319,-17.,174.));
#1429=CARTESIAN_POINT('',(-31.1679839759319,-17.,201.));
#1430=CARTESIAN_POINT('Origin',(-42.1679839759319,-17.,174.));
#1431=CARTESIAN_POINT('Origin',(-42.1679839759319,-17.,174.));
#1432=CARTESIAN_POINT('',(-17.1679839759319,-17.,174.));
#1433=CARTESIAN_POINT('Origin',(-42.1679839759319,-17.,174.));
#1434=CARTESIAN_POINT('Origin',(-42.1679839759319,-17.,187.));
#1435=CARTESIAN_POINT('',(-17.1679839759319,-17.,187.));
#1436=CARTESIAN_POINT('Origin',(-42.1679839759319,-17.,200.));
#1437=CARTESIAN_POINT('Origin',(-122.167983975932,-17.,201.));
#1438=CARTESIAN_POINT('',(-107.167983975932,-17.,178.));
#1439=CARTESIAN_POINT('Origin',(-122.167983975932,-17.,178.));
#1440=CARTESIAN_POINT('',(-107.167983975932,-17.,196.));
#1441=CARTESIAN_POINT('',(-107.167983975932,-17.,201.));
#1442=CARTESIAN_POINT('Origin',(-122.167983975932,-17.,196.));
#1443=CARTESIAN_POINT('Origin',(-122.167983975932,-17.,178.));
#1444=CARTESIAN_POINT('',(-97.1679839759319,-17.,178.));
#1445=CARTESIAN_POINT('Origin',(-122.167983975932,-17.,178.));
#1446=CARTESIAN_POINT('Origin',(-122.167983975932,-17.,196.));
#1447=CARTESIAN_POINT('',(-97.1679839759319,-17.,196.));
#1448=CARTESIAN_POINT('Origin',(-122.167983975932,-17.,196.));
#1449=CARTESIAN_POINT('Origin',(-122.167983975932,-17.,187.));
#1450=CARTESIAN_POINT('',(-97.1679839759319,-17.,200.));
#1451=CARTESIAN_POINT('Origin',(-122.167983975932,-17.,200.));
#1452=CARTESIAN_POINT('',(-97.1679839759319,-17.,187.));
#1453=CARTESIAN_POINT('Origin',(-122.167983975932,-17.,201.));
#1454=CARTESIAN_POINT('',(-111.167983975932,-17.,200.));
#1455=CARTESIAN_POINT('Origin',(-122.167983975932,-17.,200.));
#1456=CARTESIAN_POINT('',(-111.167983975932,-17.,174.));
#1457=CARTESIAN_POINT('',(-111.167983975932,-17.,201.));
#1458=CARTESIAN_POINT('Origin',(-122.167983975932,-17.,174.));
#1459=CARTESIAN_POINT('Origin',(-122.167983975932,-17.,174.));
#1460=CARTESIAN_POINT('',(-97.1679839759319,-17.,174.));
#1461=CARTESIAN_POINT('Origin',(-122.167983975932,-17.,174.));
#1462=CARTESIAN_POINT('Origin',(-122.167983975932,-17.,187.));
#1463=CARTESIAN_POINT('',(-97.1679839759319,-17.,187.));
#1464=CARTESIAN_POINT('Origin',(-122.167983975932,-17.,200.));
#1465=CARTESIAN_POINT('Origin',(37.8320160240681,-17.,201.));
#1466=CARTESIAN_POINT('',(52.8320160240681,-17.,178.));
#1467=CARTESIAN_POINT('Origin',(37.8320160240681,-17.,178.));
#1468=CARTESIAN_POINT('',(52.8320160240681,-17.,196.));
#1469=CARTESIAN_POINT('',(52.8320160240681,-17.,201.));
#1470=CARTESIAN_POINT('Origin',(37.8320160240681,-17.,196.));
#1471=CARTESIAN_POINT('Origin',(37.8320160240681,-17.,178.));
#1472=CARTESIAN_POINT('',(62.8320160240681,-17.,178.));
#1473=CARTESIAN_POINT('Origin',(37.8320160240681,-17.,178.));
#1474=CARTESIAN_POINT('Origin',(37.8320160240681,-17.,196.));
#1475=CARTESIAN_POINT('',(62.8320160240681,-17.,196.));
#1476=CARTESIAN_POINT('Origin',(37.8320160240681,-17.,196.));
#1477=CARTESIAN_POINT('Origin',(37.8320160240681,-17.,187.));
#1478=CARTESIAN_POINT('',(62.8320160240681,-17.,200.));
#1479=CARTESIAN_POINT('Origin',(37.8320160240681,-17.,200.));
#1480=CARTESIAN_POINT('',(62.8320160240681,-17.,187.));
#1481=CARTESIAN_POINT('Origin',(37.8320160240681,-17.,201.));
#1482=CARTESIAN_POINT('',(48.8320160240681,-17.,200.));
#1483=CARTESIAN_POINT('Origin',(37.8320160240681,-17.,200.));
#1484=CARTESIAN_POINT('',(48.8320160240681,-17.,174.));
#1485=CARTESIAN_POINT('',(48.8320160240681,-17.,201.));
#1486=CARTESIAN_POINT('Origin',(37.8320160240681,-17.,174.));
#1487=CARTESIAN_POINT('Origin',(37.8320160240681,-17.,174.));
#1488=CARTESIAN_POINT('',(62.8320160240681,-17.,174.));
#1489=CARTESIAN_POINT('Origin',(37.8320160240681,-17.,174.));
#1490=CARTESIAN_POINT('Origin',(37.8320160240681,-17.,187.));
#1491=CARTESIAN_POINT('',(62.8320160240681,-17.,187.));
#1492=CARTESIAN_POINT('Origin',(37.8320160240681,-17.,200.));
#1493=UNCERTAINTY_MEASURE_WITH_UNIT(LENGTH_MEASURE(0.01),#1497,
'DISTANCE_ACCURACY_VALUE',
'Maximum model space distance between geometric entities at asserted c
onnectivities');
#1494=UNCERTAINTY_MEASURE_WITH_UNIT(LENGTH_MEASURE(0.01),#1497,
'DISTANCE_ACCURACY_VALUE',
'Maximum model space distance between geometric entities at asserted c
onnectivities');
#1495=(
GEOMETRIC_REPRESENTATION_CONTEXT(3)
GLOBAL_UNCERTAINTY_ASSIGNED_CONTEXT((#1493))
GLOBAL_UNIT_ASSIGNED_CONTEXT((#1497,#1499,#1500))
REPRESENTATION_CONTEXT('','3D')
);
#1496=(
GEOMETRIC_REPRESENTATION_CONTEXT(3)
GLOBAL_UNCERTAINTY_ASSIGNED_CONTEXT((#1494))
GLOBAL_UNIT_ASSIGNED_CONTEXT((#1497,#1499,#1500))
REPRESENTATION_CONTEXT('','3D')
);
#1497=(
LENGTH_UNIT()
NAMED_UNIT(*)
SI_UNIT(.MILLI.,.METRE.)
);
#1498=(
LENGTH_UNIT()
NAMED_UNIT(*)
SI_UNIT($,.METRE.)
);
#1499=(
NAMED_UNIT(*)
PLANE_ANGLE_UNIT()
SI_UNIT($,.RADIAN.)
);
#1500=(
NAMED_UNIT(*)
SI_UNIT($,.STERADIAN.)
SOLID_ANGLE_UNIT()
);
#1501=SHAPE_DEFINITION_REPRESENTATION(#1502,#1503);
#1502=PRODUCT_DEFINITION_SHAPE('',$,#1505);
#1503=SHAPE_REPRESENTATION('',(#849),#1495);
#1504=PRODUCT_DEFINITION_CONTEXT('part definition',#1509,'design');
#1505=PRODUCT_DEFINITION('2026-05-29-16-21-45-245','Engrenagens_Inf',#1506,
#1504);
#1506=PRODUCT_DEFINITION_FORMATION('',$,#1511);
#1507=PRODUCT_RELATED_PRODUCT_CATEGORY('Engrenagens_Inf',
'Engrenagens_Inf',(#1511));
#1508=APPLICATION_PROTOCOL_DEFINITION('international standard',
'automotive_design',2009,#1509);
#1509=APPLICATION_CONTEXT(
'Core Data for Automotive Mechanical Design Process');
#1510=PRODUCT_CONTEXT('part definition',#1509,'mechanical');
#1511=PRODUCT('2026-05-29-16-21-45-245','Engrenagens_Inf',$,(#1510));
#1512=PRESENTATION_STYLE_ASSIGNMENT((#1513));
#1513=SURFACE_STYLE_USAGE(.BOTH.,#1514);
#1514=SURFACE_SIDE_STYLE('',(#1515));
#1515=SURFACE_STYLE_FILL_AREA(#1516);
#1516=FILL_AREA_STYLE('A\X\E7o - Acetinado',(#1517));
#1517=FILL_AREA_STYLE_COLOUR('A\X\E7o - Acetinado',#1518);
#1518=COLOUR_RGB('A\X\E7o - Acetinado',0.627450980392157,0.627450980392157,
0.627450980392157);
ENDSEC;
END-ISO-10303-21;
