ISO-10303-21;
HEADER;
/* Generated by software containing ST-Developer
 * from STEP Tools, Inc. (www.steptools.com) 
 */

FILE_DESCRIPTION(
/* description */ (''),
/* implementation_level */ '2;1');

FILE_NAME(
/* name */ 'Lateral_Direita.step',
/* time_stamp */ '2026-05-29T16:09:48-03:00',
/* author */ (''),
/* organization */ (''),
/* preprocessor_version */ 'ST-DEVELOPER v20.1',
/* originating_system */ 'Autodesk Translation Framework v15.8.0.0',
/* authorisation */ '');

FILE_SCHEMA (('AUTOMOTIVE_DESIGN { 1 0 10303 214 3 1 1 }'));
ENDSEC;

DATA;
#10=MECHANICAL_DESIGN_GEOMETRIC_PRESENTATION_REPRESENTATION('',(#13),#720);
#11=SHAPE_REPRESENTATION_RELATIONSHIP('SRR','None',#727,#12);
#12=ADVANCED_BREP_SHAPE_REPRESENTATION('',(#14),#719);
#13=STYLED_ITEM('',(#737),#14);
#14=MANIFOLD_SOLID_BREP('Corpo1',#428);
#15=FACE_BOUND('',#76,.T.);
#16=FACE_BOUND('',#77,.T.);
#17=FACE_BOUND('',#78,.T.);
#18=FACE_BOUND('',#79,.T.);
#19=FACE_BOUND('',#80,.T.);
#20=FACE_BOUND('',#81,.T.);
#21=FACE_BOUND('',#83,.T.);
#22=FACE_BOUND('',#84,.T.);
#23=FACE_BOUND('',#85,.T.);
#24=FACE_BOUND('',#86,.T.);
#25=FACE_BOUND('',#87,.T.);
#26=FACE_BOUND('',#88,.T.);
#27=PLANE('',#451);
#28=PLANE('',#455);
#29=PLANE('',#459);
#30=PLANE('',#463);
#31=PLANE('',#470);
#32=PLANE('',#471);
#33=PLANE('',#472);
#34=PLANE('',#473);
#35=PLANE('',#475);
#36=PLANE('',#477);
#37=PLANE('',#478);
#38=PLANE('',#480);
#39=FACE_OUTER_BOUND('',#60,.T.);
#40=FACE_OUTER_BOUND('',#61,.T.);
#41=FACE_OUTER_BOUND('',#62,.T.);
#42=FACE_OUTER_BOUND('',#63,.T.);
#43=FACE_OUTER_BOUND('',#64,.T.);
#44=FACE_OUTER_BOUND('',#65,.T.);
#45=FACE_OUTER_BOUND('',#66,.T.);
#46=FACE_OUTER_BOUND('',#67,.T.);
#47=FACE_OUTER_BOUND('',#68,.T.);
#48=FACE_OUTER_BOUND('',#69,.T.);
#49=FACE_OUTER_BOUND('',#70,.T.);
#50=FACE_OUTER_BOUND('',#71,.T.);
#51=FACE_OUTER_BOUND('',#72,.T.);
#52=FACE_OUTER_BOUND('',#73,.T.);
#53=FACE_OUTER_BOUND('',#74,.T.);
#54=FACE_OUTER_BOUND('',#75,.T.);
#55=FACE_OUTER_BOUND('',#82,.T.);
#56=FACE_OUTER_BOUND('',#89,.T.);
#57=FACE_OUTER_BOUND('',#90,.T.);
#58=FACE_OUTER_BOUND('',#91,.T.);
#59=FACE_OUTER_BOUND('',#92,.T.);
#60=EDGE_LOOP('',(#284,#285,#286,#287));
#61=EDGE_LOOP('',(#288,#289,#290,#291));
#62=EDGE_LOOP('',(#292,#293,#294,#295));
#63=EDGE_LOOP('',(#296,#297,#298,#299));
#64=EDGE_LOOP('',(#300,#301,#302,#303));
#65=EDGE_LOOP('',(#304,#305,#306,#307));
#66=EDGE_LOOP('',(#308,#309,#310,#311));
#67=EDGE_LOOP('',(#312,#313,#314,#315));
#68=EDGE_LOOP('',(#316,#317,#318,#319));
#69=EDGE_LOOP('',(#320,#321,#322,#323));
#70=EDGE_LOOP('',(#324,#325,#326,#327));
#71=EDGE_LOOP('',(#328,#329,#330,#331));
#72=EDGE_LOOP('',(#332,#333,#334,#335));
#73=EDGE_LOOP('',(#336,#337,#338,#339));
#74=EDGE_LOOP('',(#340,#341,#342,#343));
#75=EDGE_LOOP('',(#344,#345,#346,#347,#348,#349));
#76=EDGE_LOOP('',(#350));
#77=EDGE_LOOP('',(#351));
#78=EDGE_LOOP('',(#352,#353,#354,#355,#356,#357,#358,#359));
#79=EDGE_LOOP('',(#360));
#80=EDGE_LOOP('',(#361));
#81=EDGE_LOOP('',(#362));
#82=EDGE_LOOP('',(#363,#364,#365,#366,#367,#368));
#83=EDGE_LOOP('',(#369));
#84=EDGE_LOOP('',(#370));
#85=EDGE_LOOP('',(#371,#372,#373,#374,#375,#376,#377,#378));
#86=EDGE_LOOP('',(#379));
#87=EDGE_LOOP('',(#380));
#88=EDGE_LOOP('',(#381));
#89=EDGE_LOOP('',(#382,#383,#384,#385));
#90=EDGE_LOOP('',(#386,#387,#388,#389));
#91=EDGE_LOOP('',(#390,#391,#392,#393));
#92=EDGE_LOOP('',(#394,#395,#396,#397));
#93=LINE('',#605,#132);
#94=LINE('',#611,#133);
#95=LINE('',#617,#134);
#96=LINE('',#622,#135);
#97=LINE('',#624,#136);
#98=LINE('',#626,#137);
#99=LINE('',#627,#138);
#100=LINE('',#633,#139);
#101=LINE('',#636,#140);
#102=LINE('',#638,#141);
#103=LINE('',#639,#142);
#104=LINE('',#645,#143);
#105=LINE('',#648,#144);
#106=LINE('',#650,#145);
#107=LINE('',#651,#146);
#108=LINE('',#657,#147);
#109=LINE('',#660,#148);
#110=LINE('',#662,#149);
#111=LINE('',#663,#150);
#112=LINE('',#671,#151);
#113=LINE('',#676,#152);
#114=LINE('',#678,#153);
#115=LINE('',#680,#154);
#116=LINE('',#681,#155);
#117=LINE('',#685,#156);
#118=LINE('',#687,#157);
#119=LINE('',#689,#158);
#120=LINE('',#690,#159);
#121=LINE('',#693,#160);
#122=LINE('',#695,#161);
#123=LINE('',#696,#162);
#124=LINE('',#698,#163);
#125=LINE('',#700,#164);
#126=LINE('',#701,#165);
#127=LINE('',#706,#166);
#128=LINE('',#707,#167);
#129=LINE('',#708,#168);
#130=LINE('',#713,#169);
#131=LINE('',#715,#170);
#132=VECTOR('',#487,2.00000000000001);
#133=VECTOR('',#494,2.00000000000001);
#134=VECTOR('',#501,2.00000000000001);
#135=VECTOR('',#506,10.);
#136=VECTOR('',#507,10.);
#137=VECTOR('',#508,10.);
#138=VECTOR('',#509,10.);
#139=VECTOR('',#516,10.);
#140=VECTOR('',#519,10.);
#141=VECTOR('',#520,10.);
#142=VECTOR('',#521,10.);
#143=VECTOR('',#528,10.);
#144=VECTOR('',#531,10.);
#145=VECTOR('',#532,10.);
#146=VECTOR('',#533,10.);
#147=VECTOR('',#540,10.);
#148=VECTOR('',#543,10.);
#149=VECTOR('',#544,10.);
#150=VECTOR('',#545,10.);
#151=VECTOR('',#556,1.99999999999999);
#152=VECTOR('',#561,10.);
#153=VECTOR('',#562,10.);
#154=VECTOR('',#563,10.);
#155=VECTOR('',#564,10.);
#156=VECTOR('',#567,10.);
#157=VECTOR('',#568,10.);
#158=VECTOR('',#569,10.);
#159=VECTOR('',#570,10.);
#160=VECTOR('',#573,10.);
#161=VECTOR('',#574,10.);
#162=VECTOR('',#575,10.);
#163=VECTOR('',#578,10.);
#164=VECTOR('',#579,10.);
#165=VECTOR('',#580,10.);
#166=VECTOR('',#585,10.);
#167=VECTOR('',#586,10.);
#168=VECTOR('',#587,10.);
#169=VECTOR('',#594,10.);
#170=VECTOR('',#597,10.9);
#171=CIRCLE('',#443,2.00000000000001);
#172=CIRCLE('',#444,2.00000000000001);
#173=CIRCLE('',#446,2.00000000000001);
#174=CIRCLE('',#447,2.00000000000001);
#175=CIRCLE('',#449,2.00000000000001);
#176=CIRCLE('',#450,2.00000000000001);
#177=CIRCLE('',#453,0.999999999999996);
#178=CIRCLE('',#454,0.999999999999996);
#179=CIRCLE('',#457,0.999999999999996);
#180=CIRCLE('',#458,0.999999999999996);
#181=CIRCLE('',#461,1.00000000000001);
#182=CIRCLE('',#462,1.00000000000001);
#183=CIRCLE('',#465,1.);
#184=CIRCLE('',#466,1.);
#185=CIRCLE('',#468,1.99999999999999);
#186=CIRCLE('',#469,1.99999999999999);
#187=CIRCLE('',#474,10.9);
#188=CIRCLE('',#476,10.9);
#189=VERTEX_POINT('',#602);
#190=VERTEX_POINT('',#604);
#191=VERTEX_POINT('',#608);
#192=VERTEX_POINT('',#610);
#193=VERTEX_POINT('',#614);
#194=VERTEX_POINT('',#616);
#195=VERTEX_POINT('',#620);
#196=VERTEX_POINT('',#621);
#197=VERTEX_POINT('',#623);
#198=VERTEX_POINT('',#625);
#199=VERTEX_POINT('',#629);
#200=VERTEX_POINT('',#631);
#201=VERTEX_POINT('',#635);
#202=VERTEX_POINT('',#637);
#203=VERTEX_POINT('',#641);
#204=VERTEX_POINT('',#643);
#205=VERTEX_POINT('',#647);
#206=VERTEX_POINT('',#649);
#207=VERTEX_POINT('',#653);
#208=VERTEX_POINT('',#655);
#209=VERTEX_POINT('',#659);
#210=VERTEX_POINT('',#661);
#211=VERTEX_POINT('',#668);
#212=VERTEX_POINT('',#670);
#213=VERTEX_POINT('',#674);
#214=VERTEX_POINT('',#675);
#215=VERTEX_POINT('',#677);
#216=VERTEX_POINT('',#679);
#217=VERTEX_POINT('',#683);
#218=VERTEX_POINT('',#684);
#219=VERTEX_POINT('',#686);
#220=VERTEX_POINT('',#688);
#221=VERTEX_POINT('',#692);
#222=VERTEX_POINT('',#694);
#223=VERTEX_POINT('',#699);
#224=VERTEX_POINT('',#702);
#225=VERTEX_POINT('',#705);
#226=VERTEX_POINT('',#709);
#227=EDGE_CURVE('',#189,#189,#171,.T.);
#228=EDGE_CURVE('',#189,#190,#93,.T.);
#229=EDGE_CURVE('',#190,#190,#172,.T.);
#230=EDGE_CURVE('',#191,#191,#173,.T.);
#231=EDGE_CURVE('',#191,#192,#94,.T.);
#232=EDGE_CURVE('',#192,#192,#174,.T.);
#233=EDGE_CURVE('',#193,#193,#175,.T.);
#234=EDGE_CURVE('',#193,#194,#95,.T.);
#235=EDGE_CURVE('',#194,#194,#176,.T.);
#236=EDGE_CURVE('',#195,#196,#96,.T.);
#237=EDGE_CURVE('',#197,#195,#97,.T.);
#238=EDGE_CURVE('',#198,#197,#98,.T.);
#239=EDGE_CURVE('',#198,#196,#99,.T.);
#240=EDGE_CURVE('',#196,#199,#177,.T.);
#241=EDGE_CURVE('',#200,#198,#178,.T.);
#242=EDGE_CURVE('',#200,#199,#100,.T.);
#243=EDGE_CURVE('',#199,#201,#101,.T.);
#244=EDGE_CURVE('',#202,#200,#102,.T.);
#245=EDGE_CURVE('',#202,#201,#103,.T.);
#246=EDGE_CURVE('',#201,#203,#179,.T.);
#247=EDGE_CURVE('',#204,#202,#180,.T.);
#248=EDGE_CURVE('',#204,#203,#104,.T.);
#249=EDGE_CURVE('',#203,#205,#105,.T.);
#250=EDGE_CURVE('',#206,#204,#106,.T.);
#251=EDGE_CURVE('',#206,#205,#107,.T.);
#252=EDGE_CURVE('',#205,#207,#181,.T.);
#253=EDGE_CURVE('',#208,#206,#182,.T.);
#254=EDGE_CURVE('',#208,#207,#108,.T.);
#255=EDGE_CURVE('',#207,#209,#109,.T.);
#256=EDGE_CURVE('',#210,#208,#110,.T.);
#257=EDGE_CURVE('',#210,#209,#111,.T.);
#258=EDGE_CURVE('',#209,#195,#183,.T.);
#259=EDGE_CURVE('',#197,#210,#184,.T.);
#260=EDGE_CURVE('',#211,#211,#185,.T.);
#261=EDGE_CURVE('',#211,#212,#112,.T.);
#262=EDGE_CURVE('',#212,#212,#186,.T.);
#263=EDGE_CURVE('',#213,#214,#113,.T.);
#264=EDGE_CURVE('',#215,#213,#114,.T.);
#265=EDGE_CURVE('',#216,#215,#115,.T.);
#266=EDGE_CURVE('',#214,#216,#116,.T.);
#267=EDGE_CURVE('',#217,#218,#117,.T.);
#268=EDGE_CURVE('',#219,#217,#118,.T.);
#269=EDGE_CURVE('',#220,#219,#119,.T.);
#270=EDGE_CURVE('',#218,#220,#120,.T.);
#271=EDGE_CURVE('',#220,#221,#121,.T.);
#272=EDGE_CURVE('',#221,#222,#122,.T.);
#273=EDGE_CURVE('',#222,#218,#123,.T.);
#274=EDGE_CURVE('',#217,#214,#124,.T.);
#275=EDGE_CURVE('',#223,#222,#125,.T.);
#276=EDGE_CURVE('',#213,#223,#126,.T.);
#277=EDGE_CURVE('',#224,#224,#187,.T.);
#278=EDGE_CURVE('',#215,#225,#127,.T.);
#279=EDGE_CURVE('',#225,#221,#128,.T.);
#280=EDGE_CURVE('',#219,#216,#129,.T.);
#281=EDGE_CURVE('',#226,#226,#188,.T.);
#282=EDGE_CURVE('',#225,#223,#130,.T.);
#283=EDGE_CURVE('',#226,#224,#131,.T.);
#284=ORIENTED_EDGE('',*,*,#227,.F.);
#285=ORIENTED_EDGE('',*,*,#228,.T.);
#286=ORIENTED_EDGE('',*,*,#229,.F.);
#287=ORIENTED_EDGE('',*,*,#228,.F.);
#288=ORIENTED_EDGE('',*,*,#230,.F.);
#289=ORIENTED_EDGE('',*,*,#231,.T.);
#290=ORIENTED_EDGE('',*,*,#232,.F.);
#291=ORIENTED_EDGE('',*,*,#231,.F.);
#292=ORIENTED_EDGE('',*,*,#233,.F.);
#293=ORIENTED_EDGE('',*,*,#234,.T.);
#294=ORIENTED_EDGE('',*,*,#235,.F.);
#295=ORIENTED_EDGE('',*,*,#234,.F.);
#296=ORIENTED_EDGE('',*,*,#236,.F.);
#297=ORIENTED_EDGE('',*,*,#237,.F.);
#298=ORIENTED_EDGE('',*,*,#238,.F.);
#299=ORIENTED_EDGE('',*,*,#239,.T.);
#300=ORIENTED_EDGE('',*,*,#240,.F.);
#301=ORIENTED_EDGE('',*,*,#239,.F.);
#302=ORIENTED_EDGE('',*,*,#241,.F.);
#303=ORIENTED_EDGE('',*,*,#242,.T.);
#304=ORIENTED_EDGE('',*,*,#243,.F.);
#305=ORIENTED_EDGE('',*,*,#242,.F.);
#306=ORIENTED_EDGE('',*,*,#244,.F.);
#307=ORIENTED_EDGE('',*,*,#245,.T.);
#308=ORIENTED_EDGE('',*,*,#246,.F.);
#309=ORIENTED_EDGE('',*,*,#245,.F.);
#310=ORIENTED_EDGE('',*,*,#247,.F.);
#311=ORIENTED_EDGE('',*,*,#248,.T.);
#312=ORIENTED_EDGE('',*,*,#249,.F.);
#313=ORIENTED_EDGE('',*,*,#248,.F.);
#314=ORIENTED_EDGE('',*,*,#250,.F.);
#315=ORIENTED_EDGE('',*,*,#251,.T.);
#316=ORIENTED_EDGE('',*,*,#252,.F.);
#317=ORIENTED_EDGE('',*,*,#251,.F.);
#318=ORIENTED_EDGE('',*,*,#253,.F.);
#319=ORIENTED_EDGE('',*,*,#254,.T.);
#320=ORIENTED_EDGE('',*,*,#255,.F.);
#321=ORIENTED_EDGE('',*,*,#254,.F.);
#322=ORIENTED_EDGE('',*,*,#256,.F.);
#323=ORIENTED_EDGE('',*,*,#257,.T.);
#324=ORIENTED_EDGE('',*,*,#258,.F.);
#325=ORIENTED_EDGE('',*,*,#257,.F.);
#326=ORIENTED_EDGE('',*,*,#259,.F.);
#327=ORIENTED_EDGE('',*,*,#237,.T.);
#328=ORIENTED_EDGE('',*,*,#260,.F.);
#329=ORIENTED_EDGE('',*,*,#261,.T.);
#330=ORIENTED_EDGE('',*,*,#262,.F.);
#331=ORIENTED_EDGE('',*,*,#261,.F.);
#332=ORIENTED_EDGE('',*,*,#263,.F.);
#333=ORIENTED_EDGE('',*,*,#264,.F.);
#334=ORIENTED_EDGE('',*,*,#265,.F.);
#335=ORIENTED_EDGE('',*,*,#266,.F.);
#336=ORIENTED_EDGE('',*,*,#267,.F.);
#337=ORIENTED_EDGE('',*,*,#268,.F.);
#338=ORIENTED_EDGE('',*,*,#269,.F.);
#339=ORIENTED_EDGE('',*,*,#270,.F.);
#340=ORIENTED_EDGE('',*,*,#270,.T.);
#341=ORIENTED_EDGE('',*,*,#271,.T.);
#342=ORIENTED_EDGE('',*,*,#272,.T.);
#343=ORIENTED_EDGE('',*,*,#273,.T.);
#344=ORIENTED_EDGE('',*,*,#263,.T.);
#345=ORIENTED_EDGE('',*,*,#274,.F.);
#346=ORIENTED_EDGE('',*,*,#267,.T.);
#347=ORIENTED_EDGE('',*,*,#273,.F.);
#348=ORIENTED_EDGE('',*,*,#275,.F.);
#349=ORIENTED_EDGE('',*,*,#276,.F.);
#350=ORIENTED_EDGE('',*,*,#277,.T.);
#351=ORIENTED_EDGE('',*,*,#260,.T.);
#352=ORIENTED_EDGE('',*,*,#250,.T.);
#353=ORIENTED_EDGE('',*,*,#247,.T.);
#354=ORIENTED_EDGE('',*,*,#244,.T.);
#355=ORIENTED_EDGE('',*,*,#241,.T.);
#356=ORIENTED_EDGE('',*,*,#238,.T.);
#357=ORIENTED_EDGE('',*,*,#259,.T.);
#358=ORIENTED_EDGE('',*,*,#256,.T.);
#359=ORIENTED_EDGE('',*,*,#253,.T.);
#360=ORIENTED_EDGE('',*,*,#233,.T.);
#361=ORIENTED_EDGE('',*,*,#230,.T.);
#362=ORIENTED_EDGE('',*,*,#227,.T.);
#363=ORIENTED_EDGE('',*,*,#265,.T.);
#364=ORIENTED_EDGE('',*,*,#278,.T.);
#365=ORIENTED_EDGE('',*,*,#279,.T.);
#366=ORIENTED_EDGE('',*,*,#271,.F.);
#367=ORIENTED_EDGE('',*,*,#269,.T.);
#368=ORIENTED_EDGE('',*,*,#280,.T.);
#369=ORIENTED_EDGE('',*,*,#281,.F.);
#370=ORIENTED_EDGE('',*,*,#262,.T.);
#371=ORIENTED_EDGE('',*,*,#249,.T.);
#372=ORIENTED_EDGE('',*,*,#252,.T.);
#373=ORIENTED_EDGE('',*,*,#255,.T.);
#374=ORIENTED_EDGE('',*,*,#258,.T.);
#375=ORIENTED_EDGE('',*,*,#236,.T.);
#376=ORIENTED_EDGE('',*,*,#240,.T.);
#377=ORIENTED_EDGE('',*,*,#243,.T.);
#378=ORIENTED_EDGE('',*,*,#246,.T.);
#379=ORIENTED_EDGE('',*,*,#235,.T.);
#380=ORIENTED_EDGE('',*,*,#232,.T.);
#381=ORIENTED_EDGE('',*,*,#229,.T.);
#382=ORIENTED_EDGE('',*,*,#266,.T.);
#383=ORIENTED_EDGE('',*,*,#280,.F.);
#384=ORIENTED_EDGE('',*,*,#268,.T.);
#385=ORIENTED_EDGE('',*,*,#274,.T.);
#386=ORIENTED_EDGE('',*,*,#264,.T.);
#387=ORIENTED_EDGE('',*,*,#276,.T.);
#388=ORIENTED_EDGE('',*,*,#282,.F.);
#389=ORIENTED_EDGE('',*,*,#278,.F.);
#390=ORIENTED_EDGE('',*,*,#281,.T.);
#391=ORIENTED_EDGE('',*,*,#283,.T.);
#392=ORIENTED_EDGE('',*,*,#277,.F.);
#393=ORIENTED_EDGE('',*,*,#283,.F.);
#394=ORIENTED_EDGE('',*,*,#279,.F.);
#395=ORIENTED_EDGE('',*,*,#282,.T.);
#396=ORIENTED_EDGE('',*,*,#275,.T.);
#397=ORIENTED_EDGE('',*,*,#272,.F.);
#398=CYLINDRICAL_SURFACE('',#442,2.00000000000001);
#399=CYLINDRICAL_SURFACE('',#445,2.00000000000001);
#400=CYLINDRICAL_SURFACE('',#448,2.00000000000001);
#401=CYLINDRICAL_SURFACE('',#452,0.999999999999996);
#402=CYLINDRICAL_SURFACE('',#456,0.999999999999996);
#403=CYLINDRICAL_SURFACE('',#460,1.00000000000001);
#404=CYLINDRICAL_SURFACE('',#464,1.);
#405=CYLINDRICAL_SURFACE('',#467,1.99999999999999);
#406=CYLINDRICAL_SURFACE('',#479,10.9);
#407=ADVANCED_FACE('',(#39),#398,.F.);
#408=ADVANCED_FACE('',(#40),#399,.F.);
#409=ADVANCED_FACE('',(#41),#400,.F.);
#410=ADVANCED_FACE('',(#42),#27,.F.);
#411=ADVANCED_FACE('',(#43),#401,.F.);
#412=ADVANCED_FACE('',(#44),#28,.F.);
#413=ADVANCED_FACE('',(#45),#402,.F.);
#414=ADVANCED_FACE('',(#46),#29,.F.);
#415=ADVANCED_FACE('',(#47),#403,.F.);
#416=ADVANCED_FACE('',(#48),#30,.F.);
#417=ADVANCED_FACE('',(#49),#404,.F.);
#418=ADVANCED_FACE('',(#50),#405,.F.);
#419=ADVANCED_FACE('',(#51),#31,.F.);
#420=ADVANCED_FACE('',(#52),#32,.F.);
#421=ADVANCED_FACE('',(#53),#33,.F.);
#422=ADVANCED_FACE('',(#54,#15,#16,#17,#18,#19,#20),#34,.F.);
#423=ADVANCED_FACE('',(#55,#21,#22,#23,#24,#25,#26),#35,.T.);
#424=ADVANCED_FACE('',(#56),#36,.F.);
#425=ADVANCED_FACE('',(#57),#37,.F.);
#426=ADVANCED_FACE('',(#58),#406,.F.);
#427=ADVANCED_FACE('',(#59),#38,.F.);
#428=CLOSED_SHELL('',(#407,#408,#409,#410,#411,#412,#413,#414,#415,#416,
#417,#418,#419,#420,#421,#422,#423,#424,#425,#426,#427));
#429=DERIVED_UNIT_ELEMENT(#431,1.);
#430=DERIVED_UNIT_ELEMENT(#722,-3.);
#431=(
MASS_UNIT()
NAMED_UNIT(*)
SI_UNIT(.KILO.,.GRAM.)
);
#432=DERIVED_UNIT((#429,#430));
#433=MEASURE_REPRESENTATION_ITEM('density measure',
POSITIVE_RATIO_MEASURE(7850.),#432);
#434=PROPERTY_DEFINITION_REPRESENTATION(#439,#436);
#435=PROPERTY_DEFINITION_REPRESENTATION(#440,#437);
#436=REPRESENTATION('material name',(#438),#719);
#437=REPRESENTATION('density',(#433),#719);
#438=DESCRIPTIVE_REPRESENTATION_ITEM('A\X\E7o','A\X\E7o');
#439=PROPERTY_DEFINITION('material property','material name',#729);
#440=PROPERTY_DEFINITION('material property','density of part',#729);
#441=AXIS2_PLACEMENT_3D('',#600,#481,#482);
#442=AXIS2_PLACEMENT_3D('',#601,#483,#484);
#443=AXIS2_PLACEMENT_3D('',#603,#485,#486);
#444=AXIS2_PLACEMENT_3D('',#606,#488,#489);
#445=AXIS2_PLACEMENT_3D('',#607,#490,#491);
#446=AXIS2_PLACEMENT_3D('',#609,#492,#493);
#447=AXIS2_PLACEMENT_3D('',#612,#495,#496);
#448=AXIS2_PLACEMENT_3D('',#613,#497,#498);
#449=AXIS2_PLACEMENT_3D('',#615,#499,#500);
#450=AXIS2_PLACEMENT_3D('',#618,#502,#503);
#451=AXIS2_PLACEMENT_3D('',#619,#504,#505);
#452=AXIS2_PLACEMENT_3D('',#628,#510,#511);
#453=AXIS2_PLACEMENT_3D('',#630,#512,#513);
#454=AXIS2_PLACEMENT_3D('',#632,#514,#515);
#455=AXIS2_PLACEMENT_3D('',#634,#517,#518);
#456=AXIS2_PLACEMENT_3D('',#640,#522,#523);
#457=AXIS2_PLACEMENT_3D('',#642,#524,#525);
#458=AXIS2_PLACEMENT_3D('',#644,#526,#527);
#459=AXIS2_PLACEMENT_3D('',#646,#529,#530);
#460=AXIS2_PLACEMENT_3D('',#652,#534,#535);
#461=AXIS2_PLACEMENT_3D('',#654,#536,#537);
#462=AXIS2_PLACEMENT_3D('',#656,#538,#539);
#463=AXIS2_PLACEMENT_3D('',#658,#541,#542);
#464=AXIS2_PLACEMENT_3D('',#664,#546,#547);
#465=AXIS2_PLACEMENT_3D('',#665,#548,#549);
#466=AXIS2_PLACEMENT_3D('',#666,#550,#551);
#467=AXIS2_PLACEMENT_3D('',#667,#552,#553);
#468=AXIS2_PLACEMENT_3D('',#669,#554,#555);
#469=AXIS2_PLACEMENT_3D('',#672,#557,#558);
#470=AXIS2_PLACEMENT_3D('',#673,#559,#560);
#471=AXIS2_PLACEMENT_3D('',#682,#565,#566);
#472=AXIS2_PLACEMENT_3D('',#691,#571,#572);
#473=AXIS2_PLACEMENT_3D('',#697,#576,#577);
#474=AXIS2_PLACEMENT_3D('',#703,#581,#582);
#475=AXIS2_PLACEMENT_3D('',#704,#583,#584);
#476=AXIS2_PLACEMENT_3D('',#710,#588,#589);
#477=AXIS2_PLACEMENT_3D('',#711,#590,#591);
#478=AXIS2_PLACEMENT_3D('',#712,#592,#593);
#479=AXIS2_PLACEMENT_3D('',#714,#595,#596);
#480=AXIS2_PLACEMENT_3D('',#716,#598,#599);
#481=DIRECTION('axis',(0.,0.,1.));
#482=DIRECTION('refdir',(1.,0.,0.));
#483=DIRECTION('center_axis',(0.,0.,1.));
#484=DIRECTION('ref_axis',(-1.,0.,0.));
#485=DIRECTION('center_axis',(0.,0.,1.));
#486=DIRECTION('ref_axis',(-1.,0.,0.));
#487=DIRECTION('',(0.,0.,1.));
#488=DIRECTION('center_axis',(0.,0.,-1.));
#489=DIRECTION('ref_axis',(-1.,0.,0.));
#490=DIRECTION('center_axis',(0.,0.,1.));
#491=DIRECTION('ref_axis',(-1.,0.,0.));
#492=DIRECTION('center_axis',(0.,0.,1.));
#493=DIRECTION('ref_axis',(-1.,0.,0.));
#494=DIRECTION('',(0.,0.,1.));
#495=DIRECTION('center_axis',(0.,0.,-1.));
#496=DIRECTION('ref_axis',(-1.,0.,0.));
#497=DIRECTION('center_axis',(0.,0.,1.));
#498=DIRECTION('ref_axis',(-1.,0.,0.));
#499=DIRECTION('center_axis',(0.,0.,1.));
#500=DIRECTION('ref_axis',(-1.,0.,0.));
#501=DIRECTION('',(0.,0.,1.));
#502=DIRECTION('center_axis',(0.,0.,-1.));
#503=DIRECTION('ref_axis',(-1.,0.,0.));
#504=DIRECTION('center_axis',(-1.,0.,0.));
#505=DIRECTION('ref_axis',(0.,-1.,0.));
#506=DIRECTION('',(0.,1.,0.));
#507=DIRECTION('',(0.,0.,1.));
#508=DIRECTION('',(0.,-1.,0.));
#509=DIRECTION('',(0.,0.,1.));
#510=DIRECTION('center_axis',(0.,0.,1.));
#511=DIRECTION('ref_axis',(-1.,1.77635683940026E-14,0.));
#512=DIRECTION('center_axis',(0.,0.,-1.));
#513=DIRECTION('ref_axis',(-1.,1.77635683940026E-14,0.));
#514=DIRECTION('center_axis',(0.,0.,1.));
#515=DIRECTION('ref_axis',(-1.,1.77635683940026E-14,0.));
#516=DIRECTION('',(0.,0.,1.));
#517=DIRECTION('center_axis',(-4.67462326157977E-16,1.,0.));
#518=DIRECTION('ref_axis',(-1.,-4.67462326157977E-16,0.));
#519=DIRECTION('',(1.,4.67462326157977E-16,0.));
#520=DIRECTION('',(-1.,-4.67462326157977E-16,0.));
#521=DIRECTION('',(0.,0.,1.));
#522=DIRECTION('center_axis',(0.,0.,1.));
#523=DIRECTION('ref_axis',(1.77635683940026E-14,1.,0.));
#524=DIRECTION('center_axis',(0.,0.,-1.));
#525=DIRECTION('ref_axis',(1.77635683940026E-14,1.,0.));
#526=DIRECTION('center_axis',(0.,0.,1.));
#527=DIRECTION('ref_axis',(1.77635683940026E-14,1.,0.));
#528=DIRECTION('',(0.,0.,1.));
#529=DIRECTION('center_axis',(1.,0.,0.));
#530=DIRECTION('ref_axis',(0.,1.,-2.64702312455384E-39));
#531=DIRECTION('',(0.,-1.,0.));
#532=DIRECTION('',(0.,1.,0.));
#533=DIRECTION('',(0.,0.,1.));
#534=DIRECTION('center_axis',(0.,0.,1.));
#535=DIRECTION('ref_axis',(1.,-1.77635683940023E-14,0.));
#536=DIRECTION('center_axis',(0.,0.,-1.));
#537=DIRECTION('ref_axis',(1.,-1.77635683940023E-14,0.));
#538=DIRECTION('center_axis',(0.,0.,1.));
#539=DIRECTION('ref_axis',(1.,-1.77635683940023E-14,0.));
#540=DIRECTION('',(0.,0.,1.));
#541=DIRECTION('center_axis',(0.,-1.,0.));
#542=DIRECTION('ref_axis',(1.,0.,0.));
#543=DIRECTION('',(-1.,0.,0.));
#544=DIRECTION('',(1.,0.,0.));
#545=DIRECTION('',(0.,0.,1.));
#546=DIRECTION('center_axis',(0.,0.,1.));
#547=DIRECTION('ref_axis',(-1.77635683940025E-14,-1.,0.));
#548=DIRECTION('center_axis',(0.,0.,-1.));
#549=DIRECTION('ref_axis',(-1.77635683940025E-14,-1.,0.));
#550=DIRECTION('center_axis',(0.,0.,1.));
#551=DIRECTION('ref_axis',(-1.77635683940025E-14,-1.,0.));
#552=DIRECTION('center_axis',(0.,0.,1.));
#553=DIRECTION('ref_axis',(-1.,0.,0.));
#554=DIRECTION('center_axis',(0.,0.,1.));
#555=DIRECTION('ref_axis',(-1.,0.,0.));
#556=DIRECTION('',(0.,0.,1.));
#557=DIRECTION('center_axis',(0.,0.,-1.));
#558=DIRECTION('ref_axis',(-1.,0.,0.));
#559=DIRECTION('center_axis',(-1.,0.,0.));
#560=DIRECTION('ref_axis',(0.,-1.,0.));
#561=DIRECTION('',(0.,-1.,0.));
#562=DIRECTION('',(0.,0.,-1.));
#563=DIRECTION('',(0.,1.,0.));
#564=DIRECTION('',(0.,0.,1.));
#565=DIRECTION('center_axis',(1.,0.,0.));
#566=DIRECTION('ref_axis',(0.,1.,0.));
#567=DIRECTION('',(0.,1.,0.));
#568=DIRECTION('',(0.,0.,-1.));
#569=DIRECTION('',(0.,-1.,0.));
#570=DIRECTION('',(0.,0.,1.));
#571=DIRECTION('center_axis',(0.447213595499958,-0.894427190999916,0.));
#572=DIRECTION('ref_axis',(-0.894427190999916,-0.447213595499958,0.));
#573=DIRECTION('',(0.894427190999916,0.447213595499958,0.));
#574=DIRECTION('',(0.,0.,-1.));
#575=DIRECTION('',(-0.894427190999916,-0.447213595499958,0.));
#576=DIRECTION('center_axis',(0.,0.,1.));
#577=DIRECTION('ref_axis',(1.,0.,0.));
#578=DIRECTION('',(1.,0.,0.));
#579=DIRECTION('',(-1.,0.,0.));
#580=DIRECTION('',(-0.894427190999916,0.447213595499958,0.));
#581=DIRECTION('center_axis',(0.,0.,1.));
#582=DIRECTION('ref_axis',(-1.,0.,0.));
#583=DIRECTION('center_axis',(0.,0.,1.));
#584=DIRECTION('ref_axis',(1.,0.,0.));
#585=DIRECTION('',(-0.894427190999916,0.447213595499958,0.));
#586=DIRECTION('',(-1.,0.,0.));
#587=DIRECTION('',(1.,0.,0.));
#588=DIRECTION('center_axis',(0.,0.,1.));
#589=DIRECTION('ref_axis',(-1.,0.,0.));
#590=DIRECTION('center_axis',(0.,1.,0.));
#591=DIRECTION('ref_axis',(1.,0.,0.));
#592=DIRECTION('center_axis',(-0.447213595499958,-0.894427190999916,0.));
#593=DIRECTION('ref_axis',(-0.894427190999916,0.447213595499958,0.));
#594=DIRECTION('',(0.,0.,-1.));
#595=DIRECTION('center_axis',(0.,0.,1.));
#596=DIRECTION('ref_axis',(-1.,0.,0.));
#597=DIRECTION('',(0.,0.,-1.));
#598=DIRECTION('center_axis',(0.,-1.,0.));
#599=DIRECTION('ref_axis',(-1.,0.,0.));
#600=CARTESIAN_POINT('',(0.,0.,0.));
#601=CARTESIAN_POINT('Origin',(154.250002816319,17.2000000894072,-150.));
#602=CARTESIAN_POINT('',(156.250002816319,17.2000000894072,-150.));
#603=CARTESIAN_POINT('Origin',(154.250002816319,17.2000000894072,-150.));
#604=CARTESIAN_POINT('',(156.250002816319,17.2000000894072,-144.));
#605=CARTESIAN_POINT('',(156.250002816319,17.2000000894072,-150.));
#606=CARTESIAN_POINT('Origin',(154.250002816319,17.2000000894072,-144.));
#607=CARTESIAN_POINT('Origin',(145.750002816319,17.2000000894074,-150.));
#608=CARTESIAN_POINT('',(147.750002816319,17.2000000894074,-150.));
#609=CARTESIAN_POINT('Origin',(145.750002816319,17.2000000894074,-150.));
#610=CARTESIAN_POINT('',(147.750002816319,17.2000000894074,-144.));
#611=CARTESIAN_POINT('',(147.750002816319,17.2000000894074,-150.));
#612=CARTESIAN_POINT('Origin',(145.750002816319,17.2000000894074,-144.));
#613=CARTESIAN_POINT('Origin',(154.25000281632,65.2000000894073,-150.));
#614=CARTESIAN_POINT('',(156.25000281632,65.2000000894073,-150.));
#615=CARTESIAN_POINT('Origin',(154.25000281632,65.2000000894073,-150.));
#616=CARTESIAN_POINT('',(156.25000281632,65.2000000894073,-144.));
#617=CARTESIAN_POINT('',(156.25000281632,65.2000000894073,-150.));
#618=CARTESIAN_POINT('Origin',(154.25000281632,65.2000000894073,-144.));
#619=CARTESIAN_POINT('Origin',(140.50000281632,60.2000000894076,-150.));
#620=CARTESIAN_POINT('',(140.50000281632,22.2000000894075,-144.));
#621=CARTESIAN_POINT('',(140.50000281632,60.2000000894076,-144.));
#622=CARTESIAN_POINT('',(140.50000281632,55.1000000447038,-144.));
#623=CARTESIAN_POINT('',(140.50000281632,22.2000000894075,-150.));
#624=CARTESIAN_POINT('',(140.50000281632,22.2000000894075,-150.));
#625=CARTESIAN_POINT('',(140.50000281632,60.2000000894076,-150.));
#626=CARTESIAN_POINT('',(140.50000281632,55.1000000447038,-150.));
#627=CARTESIAN_POINT('',(140.50000281632,60.2000000894076,-150.));
#628=CARTESIAN_POINT('Origin',(141.50000281632,60.2000000894076,-150.));
#629=CARTESIAN_POINT('',(141.50000281632,61.2000000894076,-144.));
#630=CARTESIAN_POINT('Origin',(141.50000281632,60.2000000894076,-144.));
#631=CARTESIAN_POINT('',(141.50000281632,61.2000000894076,-150.));
#632=CARTESIAN_POINT('Origin',(141.50000281632,60.2000000894076,-150.));
#633=CARTESIAN_POINT('',(141.50000281632,61.2000000894076,-150.));
#634=CARTESIAN_POINT('Origin',(158.50000281632,61.2000000894076,-150.));
#635=CARTESIAN_POINT('',(158.50000281632,61.2000000894076,-144.));
#636=CARTESIAN_POINT('',(79.25000140816,61.2000000894076,-144.));
#637=CARTESIAN_POINT('',(158.50000281632,61.2000000894076,-150.));
#638=CARTESIAN_POINT('',(79.25000140816,61.2000000894076,-150.));
#639=CARTESIAN_POINT('',(158.50000281632,61.2000000894076,-150.));
#640=CARTESIAN_POINT('Origin',(158.50000281632,60.2000000894073,-150.));
#641=CARTESIAN_POINT('',(159.500002816319,60.2000000894073,-144.));
#642=CARTESIAN_POINT('Origin',(158.50000281632,60.2000000894073,-144.));
#643=CARTESIAN_POINT('',(159.500002816319,60.2000000894073,-150.));
#644=CARTESIAN_POINT('Origin',(158.50000281632,60.2000000894073,-150.));
#645=CARTESIAN_POINT('',(159.500002816319,60.2000000894073,-150.));
#646=CARTESIAN_POINT('Origin',(159.500002816319,22.2000000894072,-150.));
#647=CARTESIAN_POINT('',(159.500002816319,22.2000000894072,-144.));
#648=CARTESIAN_POINT('',(159.500002816319,36.1000000447036,-144.));
#649=CARTESIAN_POINT('',(159.500002816319,22.2000000894072,-150.));
#650=CARTESIAN_POINT('',(159.500002816319,36.1000000447036,-150.));
#651=CARTESIAN_POINT('',(159.500002816319,22.2000000894072,-150.));
#652=CARTESIAN_POINT('Origin',(158.500002816319,22.2000000894072,-150.));
#653=CARTESIAN_POINT('',(158.500002816319,21.2000000894072,-144.));
#654=CARTESIAN_POINT('Origin',(158.500002816319,22.2000000894072,-144.));
#655=CARTESIAN_POINT('',(158.500002816319,21.2000000894072,-150.));
#656=CARTESIAN_POINT('Origin',(158.500002816319,22.2000000894072,-150.));
#657=CARTESIAN_POINT('',(158.500002816319,21.2000000894072,-150.));
#658=CARTESIAN_POINT('Origin',(141.500002816319,21.2000000894072,-150.));
#659=CARTESIAN_POINT('',(141.500002816319,21.2000000894072,-144.));
#660=CARTESIAN_POINT('',(70.7500014081597,21.2000000894072,-144.));
#661=CARTESIAN_POINT('',(141.500002816319,21.2000000894072,-150.));
#662=CARTESIAN_POINT('',(70.7500014081597,21.2000000894072,-150.));
#663=CARTESIAN_POINT('',(141.500002816319,21.2000000894072,-150.));
#664=CARTESIAN_POINT('Origin',(141.500002816319,22.2000000894075,-150.));
#665=CARTESIAN_POINT('Origin',(141.500002816319,22.2000000894075,-144.));
#666=CARTESIAN_POINT('Origin',(141.500002816319,22.2000000894075,-150.));
#667=CARTESIAN_POINT('Origin',(145.75000281632,65.2000000894075,-150.));
#668=CARTESIAN_POINT('',(147.75000281632,65.2000000894075,-150.));
#669=CARTESIAN_POINT('Origin',(145.75000281632,65.2000000894075,-150.));
#670=CARTESIAN_POINT('',(147.75000281632,65.2000000894075,-144.));
#671=CARTESIAN_POINT('',(147.75000281632,65.2000000894075,-150.));
#672=CARTESIAN_POINT('Origin',(145.75000281632,65.2000000894075,-144.));
#673=CARTESIAN_POINT('Origin',(189.000002816319,76.5000008949294,-150.));
#674=CARTESIAN_POINT('',(189.000002816319,76.5000008949294,-150.));
#675=CARTESIAN_POINT('',(189.000002816319,0.,-150.));
#676=CARTESIAN_POINT('',(189.000002816319,63.2500004474647,-150.));
#677=CARTESIAN_POINT('',(189.000002816319,76.5000008949294,-144.));
#678=CARTESIAN_POINT('',(189.000002816319,76.4999985918403,-147.));
#679=CARTESIAN_POINT('',(189.000002816319,0.,-144.));
#680=CARTESIAN_POINT('',(189.000002816319,63.2500004474647,-144.));
#681=CARTESIAN_POINT('',(189.000002816319,0.,-147.));
#682=CARTESIAN_POINT('Origin',(-189.000002816319,0.,-150.));
#683=CARTESIAN_POINT('',(-189.000002816319,0.,-150.));
#684=CARTESIAN_POINT('',(-189.000002816319,85.5000008796068,-150.));
#685=CARTESIAN_POINT('',(-189.000002816319,25.,-150.));
#686=CARTESIAN_POINT('',(-189.000002816319,0.,-144.));
#687=CARTESIAN_POINT('',(-189.000002816319,0.,-147.));
#688=CARTESIAN_POINT('',(-189.000002816319,85.5000008796068,-144.));
#689=CARTESIAN_POINT('',(-189.000002816319,25.,-144.));
#690=CARTESIAN_POINT('',(-189.000002816319,85.4999985918403,-147.));
#691=CARTESIAN_POINT('Origin',(-160.,100.,-144.));
#692=CARTESIAN_POINT('',(-160.,100.,-144.));
#693=CARTESIAN_POINT('',(-200.,80.,-144.));
#694=CARTESIAN_POINT('',(-160.,100.,-150.));
#695=CARTESIAN_POINT('',(-160.,100.,-144.));
#696=CARTESIAN_POINT('',(-200.,80.,-150.));
#697=CARTESIAN_POINT('Origin',(0.,50.,-150.));
#698=CARTESIAN_POINT('',(-200.,0.,-150.));
#699=CARTESIAN_POINT('',(142.,100.,-150.));
#700=CARTESIAN_POINT('',(200.,100.,-150.));
#701=CARTESIAN_POINT('',(200.,71.,-150.));
#702=CARTESIAN_POINT('',(-139.1,31.000000089407,-150.));
#703=CARTESIAN_POINT('Origin',(-150.,31.000000089407,-150.));
#704=CARTESIAN_POINT('Origin',(2.66453525910041E-16,50.,-144.));
#705=CARTESIAN_POINT('',(142.,100.,-144.));
#706=CARTESIAN_POINT('',(200.,71.,-144.));
#707=CARTESIAN_POINT('',(200.,100.,-144.));
#708=CARTESIAN_POINT('',(-200.,0.,-144.));
#709=CARTESIAN_POINT('',(-139.1,31.000000089407,-144.));
#710=CARTESIAN_POINT('Origin',(-150.,31.000000089407,-144.));
#711=CARTESIAN_POINT('Origin',(-200.,0.,-144.));
#712=CARTESIAN_POINT('Origin',(200.,71.,-144.));
#713=CARTESIAN_POINT('',(142.,100.,-144.));
#714=CARTESIAN_POINT('Origin',(-150.,31.000000089407,-144.));
#715=CARTESIAN_POINT('',(-139.1,31.000000089407,-144.));
#716=CARTESIAN_POINT('Origin',(142.,100.,-144.));
#717=UNCERTAINTY_MEASURE_WITH_UNIT(LENGTH_MEASURE(0.01),#721,
'DISTANCE_ACCURACY_VALUE',
'Maximum model space distance between geometric entities at asserted c
onnectivities');
#718=UNCERTAINTY_MEASURE_WITH_UNIT(LENGTH_MEASURE(0.01),#721,
'DISTANCE_ACCURACY_VALUE',
'Maximum model space distance between geometric entities at asserted c
onnectivities');
#719=(
GEOMETRIC_REPRESENTATION_CONTEXT(3)
GLOBAL_UNCERTAINTY_ASSIGNED_CONTEXT((#717))
GLOBAL_UNIT_ASSIGNED_CONTEXT((#721,#723,#724))
REPRESENTATION_CONTEXT('','3D')
);
#720=(
GEOMETRIC_REPRESENTATION_CONTEXT(3)
GLOBAL_UNCERTAINTY_ASSIGNED_CONTEXT((#718))
GLOBAL_UNIT_ASSIGNED_CONTEXT((#721,#723,#724))
REPRESENTATION_CONTEXT('','3D')
);
#721=(
LENGTH_UNIT()
NAMED_UNIT(*)
SI_UNIT(.MILLI.,.METRE.)
);
#722=(
LENGTH_UNIT()
NAMED_UNIT(*)
SI_UNIT($,.METRE.)
);
#723=(
NAMED_UNIT(*)
PLANE_ANGLE_UNIT()
SI_UNIT($,.RADIAN.)
);
#724=(
NAMED_UNIT(*)
SI_UNIT($,.STERADIAN.)
SOLID_ANGLE_UNIT()
);
#725=SHAPE_DEFINITION_REPRESENTATION(#726,#727);
#726=PRODUCT_DEFINITION_SHAPE('',$,#729);
#727=SHAPE_REPRESENTATION('',(#441),#719);
#728=PRODUCT_DEFINITION_CONTEXT('part definition',#733,'design');
#729=PRODUCT_DEFINITION('2026-05-29-16-09-47-929','Lateral_Direita',#730,
#728);
#730=PRODUCT_DEFINITION_FORMATION('',$,#735);
#731=PRODUCT_RELATED_PRODUCT_CATEGORY('Lateral_Direita',
'Lateral_Direita',(#735));
#732=APPLICATION_PROTOCOL_DEFINITION('international standard',
'automotive_design',2009,#733);
#733=APPLICATION_CONTEXT(
'Core Data for Automotive Mechanical Design Process');
#734=PRODUCT_CONTEXT('part definition',#733,'mechanical');
#735=PRODUCT('2026-05-29-16-09-47-929','Lateral_Direita',$,(#734));
#736=PRESENTATION_STYLE_ASSIGNMENT((#738));
#737=PRESENTATION_STYLE_ASSIGNMENT((#739));
#738=SURFACE_STYLE_USAGE(.BOTH.,#740);
#739=SURFACE_STYLE_USAGE(.BOTH.,#741);
#740=SURFACE_SIDE_STYLE('',(#742));
#741=SURFACE_SIDE_STYLE('',(#743));
#742=SURFACE_STYLE_FILL_AREA(#744);
#743=SURFACE_STYLE_FILL_AREA(#745);
#744=FILL_AREA_STYLE('A\X\E7o - Acetinado',(#746));
#745=FILL_AREA_STYLE('Placa de MDF',(#747));
#746=FILL_AREA_STYLE_COLOUR('A\X\E7o - Acetinado',#748);
#747=FILL_AREA_STYLE_COLOUR('Placa de MDF',#749);
#748=COLOUR_RGB('A\X\E7o - Acetinado',0.627450980392157,0.627450980392157,
0.627450980392157);
#749=COLOUR_RGB('Placa de MDF',0.,0.,0.);
ENDSEC;
END-ISO-10303-21;
