ISO-10303-21;
HEADER;
/* Generated by software containing ST-Developer
 * from STEP Tools, Inc. (www.steptools.com) 
 */

FILE_DESCRIPTION(
/* description */ (''),
/* implementation_level */ '2;1');

FILE_NAME(
/* name */ 'Parede_Frontal.step',
/* time_stamp */ '2026-05-29T16:11:04-03:00',
/* author */ (''),
/* organization */ (''),
/* preprocessor_version */ 'ST-DEVELOPER v20.1',
/* originating_system */ 'Autodesk Translation Framework v15.8.0.0',
/* authorisation */ '');

FILE_SCHEMA (('AUTOMOTIVE_DESIGN { 1 0 10303 214 3 1 1 }'));
ENDSEC;

DATA;
#10=MECHANICAL_DESIGN_GEOMETRIC_PRESENTATION_REPRESENTATION('',(#13),#493);
#11=SHAPE_REPRESENTATION_RELATIONSHIP('SRR','None',#500,#12);
#12=ADVANCED_BREP_SHAPE_REPRESENTATION('',(#14),#492);
#13=STYLED_ITEM('',(#510),#14);
#14=MANIFOLD_SOLID_BREP('Corpo4',#293);
#15=FACE_BOUND('',#46,.T.);
#16=FACE_BOUND('',#47,.T.);
#17=FACE_BOUND('',#50,.T.);
#18=FACE_BOUND('',#51,.T.);
#19=CYLINDRICAL_SURFACE('',#310,8.1);
#20=CYLINDRICAL_SURFACE('',#313,8.1);
#21=CYLINDRICAL_SURFACE('',#324,1.6);
#22=CYLINDRICAL_SURFACE('',#325,1.6);
#23=FACE_OUTER_BOUND('',#39,.T.);
#24=FACE_OUTER_BOUND('',#40,.T.);
#25=FACE_OUTER_BOUND('',#41,.T.);
#26=FACE_OUTER_BOUND('',#42,.T.);
#27=FACE_OUTER_BOUND('',#43,.T.);
#28=FACE_OUTER_BOUND('',#44,.T.);
#29=FACE_OUTER_BOUND('',#45,.T.);
#30=FACE_OUTER_BOUND('',#48,.T.);
#31=FACE_OUTER_BOUND('',#49,.T.);
#32=FACE_OUTER_BOUND('',#52,.T.);
#33=FACE_OUTER_BOUND('',#53,.T.);
#34=FACE_OUTER_BOUND('',#54,.T.);
#35=FACE_OUTER_BOUND('',#55,.T.);
#36=FACE_OUTER_BOUND('',#56,.T.);
#37=FACE_OUTER_BOUND('',#57,.T.);
#38=FACE_OUTER_BOUND('',#58,.T.);
#39=EDGE_LOOP('',(#189,#190,#191,#192,#193,#194,#195,#196,#197,#198,#199,
#200));
#40=EDGE_LOOP('',(#201,#202,#203,#204));
#41=EDGE_LOOP('',(#205,#206,#207,#208));
#42=EDGE_LOOP('',(#209,#210));
#43=EDGE_LOOP('',(#211,#212));
#44=EDGE_LOOP('',(#213,#214,#215,#216));
#45=EDGE_LOOP('',(#217,#218,#219,#220));
#46=EDGE_LOOP('',(#221));
#47=EDGE_LOOP('',(#222));
#48=EDGE_LOOP('',(#223,#224,#225,#226));
#49=EDGE_LOOP('',(#227,#228,#229,#230,#231,#232,#233,#234,#235,#236,#237,
#238));
#50=EDGE_LOOP('',(#239));
#51=EDGE_LOOP('',(#240));
#52=EDGE_LOOP('',(#241,#242,#243,#244));
#53=EDGE_LOOP('',(#245,#246,#247,#248));
#54=EDGE_LOOP('',(#249,#250,#251));
#55=EDGE_LOOP('',(#252,#253,#254));
#56=EDGE_LOOP('',(#255,#256,#257));
#57=EDGE_LOOP('',(#258,#259,#260,#261));
#58=EDGE_LOOP('',(#262,#263,#264));
#59=CIRCLE('',#308,1.6);
#60=CIRCLE('',#309,1.6);
#61=CIRCLE('',#311,8.1);
#62=CIRCLE('',#312,8.1);
#63=CIRCLE('',#314,8.1);
#64=CIRCLE('',#315,8.1);
#65=CIRCLE('',#317,1.6);
#66=CIRCLE('',#319,1.6);
#67=LINE('',#415,#97);
#68=LINE('',#417,#98);
#69=LINE('',#419,#99);
#70=LINE('',#423,#100);
#71=LINE('',#425,#101);
#72=LINE('',#427,#102);
#73=LINE('',#431,#103);
#74=LINE('',#433,#104);
#75=LINE('',#435,#105);
#76=LINE('',#436,#106);
#77=LINE('',#441,#107);
#78=LINE('',#447,#108);
#79=LINE('',#452,#109);
#80=LINE('',#457,#110);
#81=LINE('',#462,#111);
#82=LINE('',#464,#112);
#83=LINE('',#466,#113);
#84=LINE('',#467,#114);
#85=LINE('',#469,#115);
#86=LINE('',#470,#116);
#87=LINE('',#472,#117);
#88=LINE('',#474,#118);
#89=LINE('',#475,#119);
#90=LINE('',#476,#120);
#91=LINE('',#477,#121);
#92=LINE('',#478,#122);
#93=LINE('',#480,#123);
#94=LINE('',#481,#124);
#95=LINE('',#483,#125);
#96=LINE('',#484,#126);
#97=VECTOR('',#335,10.);
#98=VECTOR('',#336,10.);
#99=VECTOR('',#337,10.);
#100=VECTOR('',#340,10.);
#101=VECTOR('',#341,10.);
#102=VECTOR('',#342,10.);
#103=VECTOR('',#345,10.);
#104=VECTOR('',#346,10.);
#105=VECTOR('',#347,10.);
#106=VECTOR('',#348,10.);
#107=VECTOR('',#353,8.1);
#108=VECTOR('',#360,8.1);
#109=VECTOR('',#365,10.);
#110=VECTOR('',#370,10.);
#111=VECTOR('',#375,10.);
#112=VECTOR('',#376,10.);
#113=VECTOR('',#377,10.);
#114=VECTOR('',#378,10.);
#115=VECTOR('',#381,10.);
#116=VECTOR('',#382,10.);
#117=VECTOR('',#385,10.);
#118=VECTOR('',#388,10.);
#119=VECTOR('',#389,10.);
#120=VECTOR('',#390,10.);
#121=VECTOR('',#391,10.);
#122=VECTOR('',#392,10.);
#123=VECTOR('',#395,10.);
#124=VECTOR('',#396,10.);
#125=VECTOR('',#399,10.);
#126=VECTOR('',#400,10.);
#127=VERTEX_POINT('',#413);
#128=VERTEX_POINT('',#414);
#129=VERTEX_POINT('',#416);
#130=VERTEX_POINT('',#418);
#131=VERTEX_POINT('',#420);
#132=VERTEX_POINT('',#422);
#133=VERTEX_POINT('',#424);
#134=VERTEX_POINT('',#426);
#135=VERTEX_POINT('',#428);
#136=VERTEX_POINT('',#430);
#137=VERTEX_POINT('',#432);
#138=VERTEX_POINT('',#434);
#139=VERTEX_POINT('',#438);
#140=VERTEX_POINT('',#440);
#141=VERTEX_POINT('',#444);
#142=VERTEX_POINT('',#446);
#143=VERTEX_POINT('',#450);
#144=VERTEX_POINT('',#451);
#145=VERTEX_POINT('',#455);
#146=VERTEX_POINT('',#456);
#147=VERTEX_POINT('',#460);
#148=VERTEX_POINT('',#461);
#149=VERTEX_POINT('',#463);
#150=VERTEX_POINT('',#465);
#151=EDGE_CURVE('',#127,#128,#67,.T.);
#152=EDGE_CURVE('',#128,#129,#68,.T.);
#153=EDGE_CURVE('',#130,#129,#69,.T.);
#154=EDGE_CURVE('',#130,#131,#59,.T.);
#155=EDGE_CURVE('',#131,#132,#70,.T.);
#156=EDGE_CURVE('',#132,#133,#71,.T.);
#157=EDGE_CURVE('',#134,#133,#72,.T.);
#158=EDGE_CURVE('',#134,#135,#60,.T.);
#159=EDGE_CURVE('',#135,#136,#73,.T.);
#160=EDGE_CURVE('',#136,#137,#74,.T.);
#161=EDGE_CURVE('',#138,#137,#75,.T.);
#162=EDGE_CURVE('',#138,#127,#76,.T.);
#163=EDGE_CURVE('',#139,#139,#61,.T.);
#164=EDGE_CURVE('',#139,#140,#77,.T.);
#165=EDGE_CURVE('',#140,#140,#62,.T.);
#166=EDGE_CURVE('',#141,#141,#63,.T.);
#167=EDGE_CURVE('',#141,#142,#78,.T.);
#168=EDGE_CURVE('',#142,#142,#64,.T.);
#169=EDGE_CURVE('',#143,#144,#79,.T.);
#170=EDGE_CURVE('',#143,#144,#65,.T.);
#171=EDGE_CURVE('',#145,#146,#80,.T.);
#172=EDGE_CURVE('',#145,#146,#66,.T.);
#173=EDGE_CURVE('',#147,#148,#81,.T.);
#174=EDGE_CURVE('',#149,#148,#82,.T.);
#175=EDGE_CURVE('',#149,#150,#83,.T.);
#176=EDGE_CURVE('',#150,#147,#84,.T.);
#177=EDGE_CURVE('',#147,#138,#85,.T.);
#178=EDGE_CURVE('',#150,#127,#86,.T.);
#179=EDGE_CURVE('',#128,#149,#87,.T.);
#180=EDGE_CURVE('',#148,#137,#88,.T.);
#181=EDGE_CURVE('',#146,#136,#89,.T.);
#182=EDGE_CURVE('',#133,#145,#90,.T.);
#183=EDGE_CURVE('',#144,#132,#91,.T.);
#184=EDGE_CURVE('',#129,#143,#92,.T.);
#185=EDGE_CURVE('',#144,#131,#93,.T.);
#186=EDGE_CURVE('',#143,#130,#94,.T.);
#187=EDGE_CURVE('',#146,#135,#95,.T.);
#188=EDGE_CURVE('',#145,#134,#96,.T.);
#189=ORIENTED_EDGE('',*,*,#151,.T.);
#190=ORIENTED_EDGE('',*,*,#152,.T.);
#191=ORIENTED_EDGE('',*,*,#153,.F.);
#192=ORIENTED_EDGE('',*,*,#154,.T.);
#193=ORIENTED_EDGE('',*,*,#155,.T.);
#194=ORIENTED_EDGE('',*,*,#156,.T.);
#195=ORIENTED_EDGE('',*,*,#157,.F.);
#196=ORIENTED_EDGE('',*,*,#158,.T.);
#197=ORIENTED_EDGE('',*,*,#159,.T.);
#198=ORIENTED_EDGE('',*,*,#160,.T.);
#199=ORIENTED_EDGE('',*,*,#161,.F.);
#200=ORIENTED_EDGE('',*,*,#162,.T.);
#201=ORIENTED_EDGE('',*,*,#163,.F.);
#202=ORIENTED_EDGE('',*,*,#164,.T.);
#203=ORIENTED_EDGE('',*,*,#165,.F.);
#204=ORIENTED_EDGE('',*,*,#164,.F.);
#205=ORIENTED_EDGE('',*,*,#166,.F.);
#206=ORIENTED_EDGE('',*,*,#167,.T.);
#207=ORIENTED_EDGE('',*,*,#168,.F.);
#208=ORIENTED_EDGE('',*,*,#167,.F.);
#209=ORIENTED_EDGE('',*,*,#169,.T.);
#210=ORIENTED_EDGE('',*,*,#170,.F.);
#211=ORIENTED_EDGE('',*,*,#171,.T.);
#212=ORIENTED_EDGE('',*,*,#172,.F.);
#213=ORIENTED_EDGE('',*,*,#173,.T.);
#214=ORIENTED_EDGE('',*,*,#174,.F.);
#215=ORIENTED_EDGE('',*,*,#175,.T.);
#216=ORIENTED_EDGE('',*,*,#176,.T.);
#217=ORIENTED_EDGE('',*,*,#177,.F.);
#218=ORIENTED_EDGE('',*,*,#176,.F.);
#219=ORIENTED_EDGE('',*,*,#178,.T.);
#220=ORIENTED_EDGE('',*,*,#162,.F.);
#221=ORIENTED_EDGE('',*,*,#166,.T.);
#222=ORIENTED_EDGE('',*,*,#163,.T.);
#223=ORIENTED_EDGE('',*,*,#178,.F.);
#224=ORIENTED_EDGE('',*,*,#175,.F.);
#225=ORIENTED_EDGE('',*,*,#179,.F.);
#226=ORIENTED_EDGE('',*,*,#151,.F.);
#227=ORIENTED_EDGE('',*,*,#179,.T.);
#228=ORIENTED_EDGE('',*,*,#174,.T.);
#229=ORIENTED_EDGE('',*,*,#180,.T.);
#230=ORIENTED_EDGE('',*,*,#160,.F.);
#231=ORIENTED_EDGE('',*,*,#181,.F.);
#232=ORIENTED_EDGE('',*,*,#171,.F.);
#233=ORIENTED_EDGE('',*,*,#182,.F.);
#234=ORIENTED_EDGE('',*,*,#156,.F.);
#235=ORIENTED_EDGE('',*,*,#183,.F.);
#236=ORIENTED_EDGE('',*,*,#169,.F.);
#237=ORIENTED_EDGE('',*,*,#184,.F.);
#238=ORIENTED_EDGE('',*,*,#152,.F.);
#239=ORIENTED_EDGE('',*,*,#165,.T.);
#240=ORIENTED_EDGE('',*,*,#168,.T.);
#241=ORIENTED_EDGE('',*,*,#170,.T.);
#242=ORIENTED_EDGE('',*,*,#185,.T.);
#243=ORIENTED_EDGE('',*,*,#154,.F.);
#244=ORIENTED_EDGE('',*,*,#186,.F.);
#245=ORIENTED_EDGE('',*,*,#172,.T.);
#246=ORIENTED_EDGE('',*,*,#187,.T.);
#247=ORIENTED_EDGE('',*,*,#158,.F.);
#248=ORIENTED_EDGE('',*,*,#188,.F.);
#249=ORIENTED_EDGE('',*,*,#182,.T.);
#250=ORIENTED_EDGE('',*,*,#188,.T.);
#251=ORIENTED_EDGE('',*,*,#157,.T.);
#252=ORIENTED_EDGE('',*,*,#183,.T.);
#253=ORIENTED_EDGE('',*,*,#155,.F.);
#254=ORIENTED_EDGE('',*,*,#185,.F.);
#255=ORIENTED_EDGE('',*,*,#181,.T.);
#256=ORIENTED_EDGE('',*,*,#159,.F.);
#257=ORIENTED_EDGE('',*,*,#187,.F.);
#258=ORIENTED_EDGE('',*,*,#180,.F.);
#259=ORIENTED_EDGE('',*,*,#173,.F.);
#260=ORIENTED_EDGE('',*,*,#177,.T.);
#261=ORIENTED_EDGE('',*,*,#161,.T.);
#262=ORIENTED_EDGE('',*,*,#184,.T.);
#263=ORIENTED_EDGE('',*,*,#186,.T.);
#264=ORIENTED_EDGE('',*,*,#153,.T.);
#265=PLANE('',#307);
#266=PLANE('',#316);
#267=PLANE('',#318);
#268=PLANE('',#320);
#269=PLANE('',#321);
#270=PLANE('',#322);
#271=PLANE('',#323);
#272=PLANE('',#326);
#273=PLANE('',#327);
#274=PLANE('',#328);
#275=PLANE('',#329);
#276=PLANE('',#330);
#277=ADVANCED_FACE('',(#23),#265,.F.);
#278=ADVANCED_FACE('',(#24),#19,.F.);
#279=ADVANCED_FACE('',(#25),#20,.F.);
#280=ADVANCED_FACE('',(#26),#266,.T.);
#281=ADVANCED_FACE('',(#27),#267,.T.);
#282=ADVANCED_FACE('',(#28),#268,.T.);
#283=ADVANCED_FACE('',(#29,#15,#16),#269,.T.);
#284=ADVANCED_FACE('',(#30),#270,.F.);
#285=ADVANCED_FACE('',(#31,#17,#18),#271,.T.);
#286=ADVANCED_FACE('',(#32),#21,.F.);
#287=ADVANCED_FACE('',(#33),#22,.F.);
#288=ADVANCED_FACE('',(#34),#272,.T.);
#289=ADVANCED_FACE('',(#35),#273,.T.);
#290=ADVANCED_FACE('',(#36),#274,.T.);
#291=ADVANCED_FACE('',(#37),#275,.F.);
#292=ADVANCED_FACE('',(#38),#276,.T.);
#293=CLOSED_SHELL('',(#277,#278,#279,#280,#281,#282,#283,#284,#285,#286,
#287,#288,#289,#290,#291,#292));
#294=DERIVED_UNIT_ELEMENT(#296,1.);
#295=DERIVED_UNIT_ELEMENT(#495,-3.);
#296=(
MASS_UNIT()
NAMED_UNIT(*)
SI_UNIT(.KILO.,.GRAM.)
);
#297=DERIVED_UNIT((#294,#295));
#298=MEASURE_REPRESENTATION_ITEM('density measure',
POSITIVE_RATIO_MEASURE(7850.),#297);
#299=PROPERTY_DEFINITION_REPRESENTATION(#304,#301);
#300=PROPERTY_DEFINITION_REPRESENTATION(#305,#302);
#301=REPRESENTATION('material name',(#303),#492);
#302=REPRESENTATION('density',(#298),#492);
#303=DESCRIPTIVE_REPRESENTATION_ITEM('A\X\E7o','A\X\E7o');
#304=PROPERTY_DEFINITION('material property','material name',#502);
#305=PROPERTY_DEFINITION('material property','density of part',#502);
#306=AXIS2_PLACEMENT_3D('',#411,#331,#332);
#307=AXIS2_PLACEMENT_3D('',#412,#333,#334);
#308=AXIS2_PLACEMENT_3D('',#421,#338,#339);
#309=AXIS2_PLACEMENT_3D('',#429,#343,#344);
#310=AXIS2_PLACEMENT_3D('',#437,#349,#350);
#311=AXIS2_PLACEMENT_3D('',#439,#351,#352);
#312=AXIS2_PLACEMENT_3D('',#442,#354,#355);
#313=AXIS2_PLACEMENT_3D('',#443,#356,#357);
#314=AXIS2_PLACEMENT_3D('',#445,#358,#359);
#315=AXIS2_PLACEMENT_3D('',#448,#361,#362);
#316=AXIS2_PLACEMENT_3D('',#449,#363,#364);
#317=AXIS2_PLACEMENT_3D('',#453,#366,#367);
#318=AXIS2_PLACEMENT_3D('',#454,#368,#369);
#319=AXIS2_PLACEMENT_3D('',#458,#371,#372);
#320=AXIS2_PLACEMENT_3D('',#459,#373,#374);
#321=AXIS2_PLACEMENT_3D('',#468,#379,#380);
#322=AXIS2_PLACEMENT_3D('',#471,#383,#384);
#323=AXIS2_PLACEMENT_3D('',#473,#386,#387);
#324=AXIS2_PLACEMENT_3D('',#479,#393,#394);
#325=AXIS2_PLACEMENT_3D('',#482,#397,#398);
#326=AXIS2_PLACEMENT_3D('',#485,#401,#402);
#327=AXIS2_PLACEMENT_3D('',#486,#403,#404);
#328=AXIS2_PLACEMENT_3D('',#487,#405,#406);
#329=AXIS2_PLACEMENT_3D('',#488,#407,#408);
#330=AXIS2_PLACEMENT_3D('',#489,#409,#410);
#331=DIRECTION('axis',(0.,0.,1.));
#332=DIRECTION('refdir',(1.,0.,0.));
#333=DIRECTION('center_axis',(0.447213275627943,-0.894427350935852,0.));
#334=DIRECTION('ref_axis',(0.894427350935852,0.447213275627943,0.));
#335=DIRECTION('',(0.894427350935852,0.447213275627943,0.));
#336=DIRECTION('',(0.,0.,-1.));
#337=DIRECTION('',(0.894427350935851,0.447213275627944,0.));
#338=DIRECTION('center_axis',(0.44721359549996,-0.894427190999915,0.));
#339=DIRECTION('ref_axis',(0.,0.,1.));
#340=DIRECTION('',(0.894427350935851,0.447213275627944,0.));
#341=DIRECTION('',(0.,0.,-1.));
#342=DIRECTION('',(0.894427350935851,0.447213275627944,0.));
#343=DIRECTION('center_axis',(0.44721359549996,-0.894427190999915,0.));
#344=DIRECTION('ref_axis',(0.,0.,1.));
#345=DIRECTION('',(0.894427350935851,0.447213275627944,0.));
#346=DIRECTION('',(0.,0.,-1.));
#347=DIRECTION('',(0.894427350935851,0.447213275627944,0.));
#348=DIRECTION('',(0.,0.,1.));
#349=DIRECTION('center_axis',(1.,0.,0.));
#350=DIRECTION('ref_axis',(0.,0.,1.));
#351=DIRECTION('center_axis',(1.,0.,0.));
#352=DIRECTION('ref_axis',(0.,0.,1.));
#353=DIRECTION('',(1.,0.,0.));
#354=DIRECTION('center_axis',(-1.,0.,0.));
#355=DIRECTION('ref_axis',(0.,0.,1.));
#356=DIRECTION('center_axis',(1.,0.,0.));
#357=DIRECTION('ref_axis',(0.,0.,1.));
#358=DIRECTION('center_axis',(1.,0.,0.));
#359=DIRECTION('ref_axis',(0.,0.,1.));
#360=DIRECTION('',(1.,0.,0.));
#361=DIRECTION('center_axis',(-1.,0.,0.));
#362=DIRECTION('ref_axis',(0.,0.,1.));
#363=DIRECTION('center_axis',(-0.44721359549996,0.894427190999915,0.));
#364=DIRECTION('ref_axis',(0.,0.,1.));
#365=DIRECTION('',(0.,0.,-1.));
#366=DIRECTION('center_axis',(0.44721359549996,-0.894427190999915,0.));
#367=DIRECTION('ref_axis',(0.,0.,1.));
#368=DIRECTION('center_axis',(-0.44721359549996,0.894427190999915,0.));
#369=DIRECTION('ref_axis',(0.,0.,1.));
#370=DIRECTION('',(0.,0.,-1.));
#371=DIRECTION('center_axis',(0.44721359549996,-0.894427190999915,0.));
#372=DIRECTION('ref_axis',(0.,0.,1.));
#373=DIRECTION('center_axis',(0.,-1.,0.));
#374=DIRECTION('ref_axis',(0.,0.,-1.));
#375=DIRECTION('',(1.,0.,0.));
#376=DIRECTION('',(0.,0.,-1.));
#377=DIRECTION('',(-1.,0.,0.));
#378=DIRECTION('',(0.,0.,-1.));
#379=DIRECTION('center_axis',(-1.,0.,0.));
#380=DIRECTION('ref_axis',(0.,0.,1.));
#381=DIRECTION('',(0.,1.,0.));
#382=DIRECTION('',(0.,1.,0.));
#383=DIRECTION('center_axis',(0.,0.,-1.));
#384=DIRECTION('ref_axis',(0.,1.,0.));
#385=DIRECTION('',(0.,-1.,0.));
#386=DIRECTION('center_axis',(1.,0.,0.));
#387=DIRECTION('ref_axis',(0.,0.,-1.));
#388=DIRECTION('',(0.,1.,0.));
#389=DIRECTION('',(0.,1.,0.));
#390=DIRECTION('',(0.,-1.,0.));
#391=DIRECTION('',(0.,1.,0.));
#392=DIRECTION('',(0.,-1.,0.));
#393=DIRECTION('center_axis',(-0.447213275627944,0.894427350935852,0.));
#394=DIRECTION('ref_axis',(0.,0.,1.));
#395=DIRECTION('',(-0.447213275627944,0.894427350935852,0.));
#396=DIRECTION('',(-0.447213275627944,0.894427350935852,0.));
#397=DIRECTION('center_axis',(-0.447213275627944,0.894427350935852,0.));
#398=DIRECTION('ref_axis',(0.,0.,1.));
#399=DIRECTION('',(-0.447213275627944,0.894427350935852,0.));
#400=DIRECTION('',(-0.447213275627944,0.894427350935852,0.));
#401=DIRECTION('center_axis',(0.,0.,-1.));
#402=DIRECTION('ref_axis',(-0.447213275627944,0.894427350935852,0.));
#403=DIRECTION('center_axis',(0.,0.,1.));
#404=DIRECTION('ref_axis',(0.447213275627944,-0.894427350935852,0.));
#405=DIRECTION('center_axis',(0.,0.,1.));
#406=DIRECTION('ref_axis',(0.447213275627944,-0.894427350935852,0.));
#407=DIRECTION('center_axis',(0.,0.,1.));
#408=DIRECTION('ref_axis',(0.,-1.,0.));
#409=DIRECTION('center_axis',(0.,0.,-1.));
#410=DIRECTION('ref_axis',(-0.447213275627944,0.894427350935852,0.));
#411=CARTESIAN_POINT('',(0.,0.,0.));
#412=CARTESIAN_POINT('Origin',(-222.199845083046,84.3996893313463,-144.));
#413=CARTESIAN_POINT('',(-220.,85.4996099620689,139.));
#414=CARTESIAN_POINT('',(-214.000002488494,88.4996069630089,139.));
#415=CARTESIAN_POINT('',(-222.199845083046,84.3996893313464,139.));
#416=CARTESIAN_POINT('',(-214.000002488494,88.499606963009,38.8227758876787));
#417=CARTESIAN_POINT('',(-214.000002488494,88.4996069630089,-2.5));
#418=CARTESIAN_POINT('',(-216.199842102814,87.3996881392535,38.8227758876787));
#419=CARTESIAN_POINT('',(-216.199842102814,87.3996881392535,38.8227758876787));
#420=CARTESIAN_POINT('',(-216.199842102814,87.3996881392535,36.1772241123213));
#421=CARTESIAN_POINT('Origin',(-215.394726483303,87.802245949009,37.5));
#422=CARTESIAN_POINT('',(-214.000002488494,88.499606963009,36.1772241123213));
#423=CARTESIAN_POINT('',(-216.199842102814,87.3996881392535,36.1772241123213));
#424=CARTESIAN_POINT('',(-214.000002488494,88.499606963009,-36.1772241123213));
#425=CARTESIAN_POINT('',(-214.000002488494,88.4996069630089,-2.5));
#426=CARTESIAN_POINT('',(-216.199842102814,87.3996881392535,-36.1772241123213));
#427=CARTESIAN_POINT('',(-216.199842102814,87.3996881392535,-36.1772241123213));
#428=CARTESIAN_POINT('',(-216.199842102814,87.3996881392535,-38.8227758876787));
#429=CARTESIAN_POINT('Origin',(-215.394726483303,87.802245949009,-37.5));
#430=CARTESIAN_POINT('',(-214.000002488494,88.499606963009,-38.8227758876787));
#431=CARTESIAN_POINT('',(-216.199842102814,87.3996881392535,-38.8227758876787));
#432=CARTESIAN_POINT('',(-214.000002488494,88.499606963009,-139.));
#433=CARTESIAN_POINT('',(-214.000002488494,88.4996069630089,-2.5));
#434=CARTESIAN_POINT('',(-220.,85.4996108894625,-139.));
#435=CARTESIAN_POINT('',(-216.199842102814,87.3996881392535,-139.));
#436=CARTESIAN_POINT('',(-220.,85.4996108894625,-2.50000000000004));
#437=CARTESIAN_POINT('Origin',(-220.,50.,13.));
#438=CARTESIAN_POINT('',(-220.,50.,4.89999999999997));
#439=CARTESIAN_POINT('Origin',(-220.,50.,13.));
#440=CARTESIAN_POINT('',(-214.,50.,4.89999999999997));
#441=CARTESIAN_POINT('',(-220.,50.,4.89999999999997));
#442=CARTESIAN_POINT('Origin',(-214.,50.,13.));
#443=CARTESIAN_POINT('Origin',(-220.,50.,-13.));
#444=CARTESIAN_POINT('',(-220.,50.,-21.1));
#445=CARTESIAN_POINT('Origin',(-220.,50.,-13.));
#446=CARTESIAN_POINT('',(-214.,50.,-21.1));
#447=CARTESIAN_POINT('',(-220.,50.,-21.1));
#448=CARTESIAN_POINT('Origin',(-214.,50.,-13.));
#449=CARTESIAN_POINT('Origin',(-213.194884380489,83.4025578097556,37.5));
#450=CARTESIAN_POINT('',(-214.,83.,38.8227758876787));
#451=CARTESIAN_POINT('',(-214.,83.,36.1772241123213));
#452=CARTESIAN_POINT('',(-214.,83.,-150.));
#453=CARTESIAN_POINT('Origin',(-213.194884380489,83.4025578097556,37.5));
#454=CARTESIAN_POINT('Origin',(-213.194884380489,83.4025578097556,-37.5));
#455=CARTESIAN_POINT('',(-214.,83.,-36.1772241123213));
#456=CARTESIAN_POINT('',(-214.,83.,-38.8227758876787));
#457=CARTESIAN_POINT('',(-214.,83.,-150.));
#458=CARTESIAN_POINT('Origin',(-213.194884380489,83.4025578097556,-37.5));
#459=CARTESIAN_POINT('Origin',(-220.,0.,-121.));
#460=CARTESIAN_POINT('',(-220.,0.,-139.));
#461=CARTESIAN_POINT('',(-214.,0.,-139.));
#462=CARTESIAN_POINT('',(-220.,0.,-139.));
#463=CARTESIAN_POINT('',(-214.,0.,139.));
#464=CARTESIAN_POINT('',(-214.,0.,150.));
#465=CARTESIAN_POINT('',(-220.,0.,139.));
#466=CARTESIAN_POINT('',(-220.,0.,139.));
#467=CARTESIAN_POINT('',(-220.,0.,150.));
#468=CARTESIAN_POINT('Origin',(-220.,40.,3.5527136788005E-14));
#469=CARTESIAN_POINT('',(-220.,82.7498063092033,-139.));
#470=CARTESIAN_POINT('',(-220.,80.0000012179629,139.));
#471=CARTESIAN_POINT('Origin',(-220.,0.,139.));
#472=CARTESIAN_POINT('',(-214.,20.,139.));
#473=CARTESIAN_POINT('Origin',(-214.,40.,3.5527136788005E-14));
#474=CARTESIAN_POINT('',(-214.,60.0000013281688,-139.));
#475=CARTESIAN_POINT('',(-214.000002488494,85.1998446880249,-38.8227758876787));
#476=CARTESIAN_POINT('',(-214.000002488494,83.0000006183982,-36.1772241123213));
#477=CARTESIAN_POINT('',(-214.000002488494,85.1998446880249,36.1772241123213));
#478=CARTESIAN_POINT('',(-214.000002488494,83.0000006183982,38.8227758876787));
#479=CARTESIAN_POINT('Origin',(-213.194884380489,83.4025578097556,37.5));
#480=CARTESIAN_POINT('',(-214.,83.,36.1772241123213));
#481=CARTESIAN_POINT('',(-214.,83.,38.8227758876787));
#482=CARTESIAN_POINT('Origin',(-213.194884380489,83.4025578097556,-37.5));
#483=CARTESIAN_POINT('',(-214.,83.,-38.8227758876787));
#484=CARTESIAN_POINT('',(-214.,83.,-36.1772241123213));
#485=CARTESIAN_POINT('Origin',(-214.,83.,-36.1772241123213));
#486=CARTESIAN_POINT('Origin',(-216.199842102814,87.3996881392535,36.1772241123213));
#487=CARTESIAN_POINT('Origin',(-216.199842102814,87.3996881392535,-38.8227758876787));
#488=CARTESIAN_POINT('Origin',(-220.,80.0000026563376,-139.));
#489=CARTESIAN_POINT('Origin',(-214.,83.,38.8227758876787));
#490=UNCERTAINTY_MEASURE_WITH_UNIT(LENGTH_MEASURE(0.01),#494,
'DISTANCE_ACCURACY_VALUE',
'Maximum model space distance between geometric entities at asserted c
onnectivities');
#491=UNCERTAINTY_MEASURE_WITH_UNIT(LENGTH_MEASURE(0.01),#494,
'DISTANCE_ACCURACY_VALUE',
'Maximum model space distance between geometric entities at asserted c
onnectivities');
#492=(
GEOMETRIC_REPRESENTATION_CONTEXT(3)
GLOBAL_UNCERTAINTY_ASSIGNED_CONTEXT((#490))
GLOBAL_UNIT_ASSIGNED_CONTEXT((#494,#496,#497))
REPRESENTATION_CONTEXT('','3D')
);
#493=(
GEOMETRIC_REPRESENTATION_CONTEXT(3)
GLOBAL_UNCERTAINTY_ASSIGNED_CONTEXT((#491))
GLOBAL_UNIT_ASSIGNED_CONTEXT((#494,#496,#497))
REPRESENTATION_CONTEXT('','3D')
);
#494=(
LENGTH_UNIT()
NAMED_UNIT(*)
SI_UNIT(.MILLI.,.METRE.)
);
#495=(
LENGTH_UNIT()
NAMED_UNIT(*)
SI_UNIT($,.METRE.)
);
#496=(
NAMED_UNIT(*)
PLANE_ANGLE_UNIT()
SI_UNIT($,.RADIAN.)
);
#497=(
NAMED_UNIT(*)
SI_UNIT($,.STERADIAN.)
SOLID_ANGLE_UNIT()
);
#498=SHAPE_DEFINITION_REPRESENTATION(#499,#500);
#499=PRODUCT_DEFINITION_SHAPE('',$,#502);
#500=SHAPE_REPRESENTATION('',(#306),#492);
#501=PRODUCT_DEFINITION_CONTEXT('part definition',#506,'design');
#502=PRODUCT_DEFINITION('2026-05-29-16-11-04-796','Parede_Frontal',#503,
#501);
#503=PRODUCT_DEFINITION_FORMATION('',$,#508);
#504=PRODUCT_RELATED_PRODUCT_CATEGORY('Parede_Frontal','Parede_Frontal',
(#508));
#505=APPLICATION_PROTOCOL_DEFINITION('international standard',
'automotive_design',2009,#506);
#506=APPLICATION_CONTEXT(
'Core Data for Automotive Mechanical Design Process');
#507=PRODUCT_CONTEXT('part definition',#506,'mechanical');
#508=PRODUCT('2026-05-29-16-11-04-796','Parede_Frontal',$,(#507));
#509=PRESENTATION_STYLE_ASSIGNMENT((#511));
#510=PRESENTATION_STYLE_ASSIGNMENT((#512));
#511=SURFACE_STYLE_USAGE(.BOTH.,#513);
#512=SURFACE_STYLE_USAGE(.BOTH.,#514);
#513=SURFACE_SIDE_STYLE('',(#515));
#514=SURFACE_SIDE_STYLE('',(#516));
#515=SURFACE_STYLE_FILL_AREA(#517);
#516=SURFACE_STYLE_FILL_AREA(#518);
#517=FILL_AREA_STYLE('A\X\E7o - Acetinado',(#519));
#518=FILL_AREA_STYLE('Placa de MDF',(#520));
#519=FILL_AREA_STYLE_COLOUR('A\X\E7o - Acetinado',#521);
#520=FILL_AREA_STYLE_COLOUR('Placa de MDF',#522);
#521=COLOUR_RGB('A\X\E7o - Acetinado',0.627450980392157,0.627450980392157,
0.627450980392157);
#522=COLOUR_RGB('Placa de MDF',0.,0.,0.);
ENDSEC;
END-ISO-10303-21;
