ISO-10303-21;
HEADER;
/* Generated by software containing ST-Developer
 * from STEP Tools, Inc. (www.steptools.com) 
 */

FILE_DESCRIPTION(
/* description */ (''),
/* implementation_level */ '2;1');

FILE_NAME(
/* name */ 'Disco_Rodagem.step',
/* time_stamp */ '2026-06-22T01:02:16-03:00',
/* author */ (''),
/* organization */ (''),
/* preprocessor_version */ 'ST-DEVELOPER v20.1',
/* originating_system */ 'Autodesk Translation Framework v15.8.0.0',
/* authorisation */ '');

FILE_SCHEMA (('AUTOMOTIVE_DESIGN { 1 0 10303 214 3 1 1 }'));
ENDSEC;

DATA;
#10=MECHANICAL_DESIGN_GEOMETRIC_PRESENTATION_REPRESENTATION('',(#13),#621);
#11=SHAPE_REPRESENTATION_RELATIONSHIP('SRR','None',#628,#12);
#12=ADVANCED_BREP_SHAPE_REPRESENTATION('',(#14),#620);
#13=STYLED_ITEM('',(#638),#14);
#14=MANIFOLD_SOLID_BREP('Corpo1',#281);
#15=CYLINDRICAL_SURFACE('',#304,4.);
#16=CYLINDRICAL_SURFACE('',#306,4.);
#17=CYLINDRICAL_SURFACE('',#308,4.);
#18=CYLINDRICAL_SURFACE('',#310,4.);
#19=CYLINDRICAL_SURFACE('',#312,4.);
#20=CYLINDRICAL_SURFACE('',#314,4.);
#21=CYLINDRICAL_SURFACE('',#316,2.65);
#22=B_SPLINE_SURFACE_WITH_KNOTS('',3,1,((#463,#464),(#465,#466),(#467,#468),
(#469,#470),(#471,#472),(#473,#474),(#475,#476),(#477,#478),(#479,#480),
(#481,#482),(#483,#484),(#485,#486)),.UNSPECIFIED.,.F.,.F.,.F.,(4,2,2,2,
2,4),(2,2),(0.0184498949680906,0.826089748417814,1.73911602561041,2.74982595749655,
3.55195311673606,4.31041617567817),(0.,1.5),.UNSPECIFIED.);
#23=B_SPLINE_SURFACE_WITH_KNOTS('',3,1,((#503,#504),(#505,#506),(#507,#508),
(#509,#510),(#511,#512),(#513,#514),(#515,#516),(#517,#518)),
 .UNSPECIFIED.,.F.,.F.,.F.,(4,2,2,4),(2,2),(0.0181506756118934,0.908155599419393,
1.80097194763429,2.66742827382209),(0.,1.5),.UNSPECIFIED.);
#24=B_SPLINE_SURFACE_WITH_KNOTS('',3,1,((#555,#556),(#557,#558),(#559,#560),
(#561,#562),(#563,#564),(#565,#566),(#567,#568),(#569,#570)),
 .UNSPECIFIED.,.F.,.F.,.F.,(4,2,2,4),(2,2),(0.0181506756119012,0.90815559941939,
1.80097194763428,2.66742827382208),(0.,1.5),.UNSPECIFIED.);
#25=B_SPLINE_SURFACE_WITH_KNOTS('',3,1,((#581,#582),(#583,#584),(#585,#586),
(#587,#588),(#589,#590),(#591,#592),(#593,#594),(#595,#596),(#597,#598),
(#599,#600),(#601,#602),(#603,#604)),.UNSPECIFIED.,.F.,.F.,.F.,(4,2,2,2,
2,4),(2,2),(0.0184498949680909,0.826089748417815,1.73911602561042,2.74982595749655,
3.55195311673606,4.31041617567815),(0.,1.5),.UNSPECIFIED.);
#26=FACE_BOUND('',#97,.T.);
#27=FACE_BOUND('',#98,.T.);
#28=FACE_BOUND('',#99,.T.);
#29=FACE_BOUND('',#100,.T.);
#30=FACE_BOUND('',#101,.T.);
#31=FACE_BOUND('',#102,.T.);
#32=FACE_BOUND('',#103,.T.);
#33=FACE_BOUND('',#117,.T.);
#34=FACE_BOUND('',#118,.T.);
#35=FACE_BOUND('',#119,.T.);
#36=FACE_BOUND('',#120,.T.);
#37=FACE_BOUND('',#121,.T.);
#38=FACE_BOUND('',#122,.T.);
#39=FACE_BOUND('',#123,.T.);
#40=LINE('',#444,#54);
#41=LINE('',#459,#55);
#42=LINE('',#461,#56);
#43=LINE('',#462,#57);
#44=LINE('',#488,#58);
#45=LINE('',#502,#59);
#46=LINE('',#520,#60);
#47=LINE('',#532,#61);
#48=LINE('',#536,#62);
#49=LINE('',#540,#63);
#50=LINE('',#544,#64);
#51=LINE('',#548,#65);
#52=LINE('',#552,#66);
#53=LINE('',#580,#67);
#54=VECTOR('',#325,10.);
#55=VECTOR('',#340,10.);
#56=VECTOR('',#341,10.);
#57=VECTOR('',#342,10.);
#58=VECTOR('',#343,10.);
#59=VECTOR('',#344,10.);
#60=VECTOR('',#345,10.);
#61=VECTOR('',#350,4.);
#62=VECTOR('',#355,4.);
#63=VECTOR('',#360,4.);
#64=VECTOR('',#365,4.);
#65=VECTOR('',#370,4.);
#66=VECTOR('',#375,4.);
#67=VECTOR('',#380,10.);
#68=CIRCLE('',#296,2.65);
#69=CIRCLE('',#297,4.);
#70=CIRCLE('',#298,4.);
#71=CIRCLE('',#299,4.);
#72=CIRCLE('',#300,4.);
#73=CIRCLE('',#301,4.);
#74=CIRCLE('',#302,4.);
#75=CIRCLE('',#305,4.00000000000001);
#76=CIRCLE('',#307,4.);
#77=CIRCLE('',#309,4.00000000000001);
#78=CIRCLE('',#311,4.);
#79=CIRCLE('',#313,4.);
#80=CIRCLE('',#315,4.);
#81=CIRCLE('',#317,2.65);
#82=FACE_OUTER_BOUND('',#96,.T.);
#83=FACE_OUTER_BOUND('',#104,.T.);
#84=FACE_OUTER_BOUND('',#105,.T.);
#85=FACE_OUTER_BOUND('',#106,.T.);
#86=FACE_OUTER_BOUND('',#107,.T.);
#87=FACE_OUTER_BOUND('',#108,.T.);
#88=FACE_OUTER_BOUND('',#109,.T.);
#89=FACE_OUTER_BOUND('',#110,.T.);
#90=FACE_OUTER_BOUND('',#111,.T.);
#91=FACE_OUTER_BOUND('',#112,.T.);
#92=FACE_OUTER_BOUND('',#113,.T.);
#93=FACE_OUTER_BOUND('',#114,.T.);
#94=FACE_OUTER_BOUND('',#115,.T.);
#95=FACE_OUTER_BOUND('',#116,.T.);
#96=EDGE_LOOP('',(#192,#193,#194,#195));
#97=EDGE_LOOP('',(#196,#197));
#98=EDGE_LOOP('',(#198));
#99=EDGE_LOOP('',(#199));
#100=EDGE_LOOP('',(#200));
#101=EDGE_LOOP('',(#201));
#102=EDGE_LOOP('',(#202));
#103=EDGE_LOOP('',(#203));
#104=EDGE_LOOP('',(#204,#205,#206,#207));
#105=EDGE_LOOP('',(#208,#209,#210,#211));
#106=EDGE_LOOP('',(#212,#213,#214,#215));
#107=EDGE_LOOP('',(#216,#217,#218,#219));
#108=EDGE_LOOP('',(#220,#221,#222,#223));
#109=EDGE_LOOP('',(#224,#225,#226,#227));
#110=EDGE_LOOP('',(#228,#229,#230,#231));
#111=EDGE_LOOP('',(#232,#233,#234,#235));
#112=EDGE_LOOP('',(#236,#237,#238,#239));
#113=EDGE_LOOP('',(#240,#241,#242,#243));
#114=EDGE_LOOP('',(#244,#245,#246,#247));
#115=EDGE_LOOP('',(#248,#249,#250,#251));
#116=EDGE_LOOP('',(#252,#253,#254,#255));
#117=EDGE_LOOP('',(#256,#257));
#118=EDGE_LOOP('',(#258));
#119=EDGE_LOOP('',(#259));
#120=EDGE_LOOP('',(#260));
#121=EDGE_LOOP('',(#261));
#122=EDGE_LOOP('',(#262));
#123=EDGE_LOOP('',(#263));
#124=B_SPLINE_CURVE_WITH_KNOTS('',3,(#387,#388,#389,#390,#391,#392,#393,
#394,#395,#396),.UNSPECIFIED.,.F.,.F.,(4,3,3,4),(-2.64892689704838,-1.75903978866385,
-0.866341628037458,0.),.UNSPECIFIED.);
#125=B_SPLINE_CURVE_WITH_KNOTS('',3,(#398,#399,#400,#401,#402,#403,#404,
#405,#406,#407,#408,#409,#410,#411,#412,#413),.UNSPECIFIED.,.F.,.F.,(4,
3,3,3,3,4),(-4.29143105160917,-3.4838919147831,-2.57097949641452,-1.56039560497995,
-0.758368474904265,0.),.UNSPECIFIED.);
#126=B_SPLINE_CURVE_WITH_KNOTS('',3,(#415,#416,#417,#418,#419,#420,#421,
#422,#423,#424),.UNSPECIFIED.,.F.,.F.,(4,3,3,4),(-2.64892689704841,-1.75903978866388,
-0.866341628037472,0.),.UNSPECIFIED.);
#127=B_SPLINE_CURVE_WITH_KNOTS('',3,(#425,#426,#427,#428,#429,#430,#431,
#432,#433,#434,#435,#436,#437,#438,#439,#440),.UNSPECIFIED.,.F.,.F.,(4,
3,3,3,3,4),(-4.29143105160974,-3.48389191478356,-2.57097949641485,-1.56039560498014,
-0.758368474904357,0.),.UNSPECIFIED.);
#128=B_SPLINE_CURVE_WITH_KNOTS('',3,(#490,#491,#492,#493,#494,#495,#496,
#497,#498,#499,#500,#501),.UNSPECIFIED.,.F.,.F.,(4,2,2,2,2,4),(0.0184498949680906,
0.826089748417814,1.73911602561041,2.74982595749655,3.55195311673606,4.31041617567817),
 .UNSPECIFIED.);
#129=B_SPLINE_CURVE_WITH_KNOTS('',3,(#521,#522,#523,#524,#525,#526,#527,
#528),.UNSPECIFIED.,.F.,.F.,(4,2,2,4),(0.0181506756118934,0.908155599419391,
1.80097194763429,2.66742827382209),.UNSPECIFIED.);
#130=B_SPLINE_CURVE_WITH_KNOTS('',3,(#572,#573,#574,#575,#576,#577,#578,
#579),.UNSPECIFIED.,.F.,.F.,(4,2,2,4),(0.0181506756119012,0.90815559941939,
1.80097194763428,2.66742827382208),.UNSPECIFIED.);
#131=B_SPLINE_CURVE_WITH_KNOTS('',3,(#605,#606,#607,#608,#609,#610,#611,
#612,#613,#614,#615,#616),.UNSPECIFIED.,.F.,.F.,(4,2,2,2,2,4),(0.0184498949680909,
0.826089748417815,1.73911602561042,2.74982595749655,3.55195311673606,4.31041617567815),
 .UNSPECIFIED.);
#132=VERTEX_POINT('',#385);
#133=VERTEX_POINT('',#386);
#134=VERTEX_POINT('',#397);
#135=VERTEX_POINT('',#414);
#136=VERTEX_POINT('',#441);
#137=VERTEX_POINT('',#442);
#138=VERTEX_POINT('',#445);
#139=VERTEX_POINT('',#447);
#140=VERTEX_POINT('',#449);
#141=VERTEX_POINT('',#451);
#142=VERTEX_POINT('',#453);
#143=VERTEX_POINT('',#455);
#144=VERTEX_POINT('',#458);
#145=VERTEX_POINT('',#460);
#146=VERTEX_POINT('',#487);
#147=VERTEX_POINT('',#489);
#148=VERTEX_POINT('',#519);
#149=VERTEX_POINT('',#530);
#150=VERTEX_POINT('',#534);
#151=VERTEX_POINT('',#538);
#152=VERTEX_POINT('',#542);
#153=VERTEX_POINT('',#546);
#154=VERTEX_POINT('',#550);
#155=VERTEX_POINT('',#571);
#156=EDGE_CURVE('',#132,#133,#124,.T.);
#157=EDGE_CURVE('',#134,#132,#125,.T.);
#158=EDGE_CURVE('',#135,#134,#126,.T.);
#159=EDGE_CURVE('',#133,#135,#127,.T.);
#160=EDGE_CURVE('',#136,#137,#68,.T.);
#161=EDGE_CURVE('',#137,#136,#40,.T.);
#162=EDGE_CURVE('',#138,#138,#69,.T.);
#163=EDGE_CURVE('',#139,#139,#70,.T.);
#164=EDGE_CURVE('',#140,#140,#71,.T.);
#165=EDGE_CURVE('',#141,#141,#72,.T.);
#166=EDGE_CURVE('',#142,#142,#73,.T.);
#167=EDGE_CURVE('',#143,#143,#74,.T.);
#168=EDGE_CURVE('',#136,#144,#41,.T.);
#169=EDGE_CURVE('',#145,#144,#42,.T.);
#170=EDGE_CURVE('',#137,#145,#43,.T.);
#171=EDGE_CURVE('',#132,#146,#44,.T.);
#172=EDGE_CURVE('',#147,#146,#128,.T.);
#173=EDGE_CURVE('',#134,#147,#45,.T.);
#174=EDGE_CURVE('',#133,#148,#46,.T.);
#175=EDGE_CURVE('',#146,#148,#129,.T.);
#176=EDGE_CURVE('',#149,#149,#75,.T.);
#177=EDGE_CURVE('',#149,#143,#47,.T.);
#178=EDGE_CURVE('',#150,#150,#76,.T.);
#179=EDGE_CURVE('',#150,#142,#48,.T.);
#180=EDGE_CURVE('',#151,#151,#77,.T.);
#181=EDGE_CURVE('',#151,#141,#49,.T.);
#182=EDGE_CURVE('',#152,#152,#78,.T.);
#183=EDGE_CURVE('',#152,#140,#50,.T.);
#184=EDGE_CURVE('',#153,#153,#79,.T.);
#185=EDGE_CURVE('',#153,#139,#51,.T.);
#186=EDGE_CURVE('',#154,#154,#80,.T.);
#187=EDGE_CURVE('',#154,#138,#52,.T.);
#188=EDGE_CURVE('',#144,#145,#81,.T.);
#189=EDGE_CURVE('',#155,#147,#130,.T.);
#190=EDGE_CURVE('',#135,#155,#53,.T.);
#191=EDGE_CURVE('',#148,#155,#131,.T.);
#192=ORIENTED_EDGE('',*,*,#156,.F.);
#193=ORIENTED_EDGE('',*,*,#157,.F.);
#194=ORIENTED_EDGE('',*,*,#158,.F.);
#195=ORIENTED_EDGE('',*,*,#159,.F.);
#196=ORIENTED_EDGE('',*,*,#160,.F.);
#197=ORIENTED_EDGE('',*,*,#161,.F.);
#198=ORIENTED_EDGE('',*,*,#162,.F.);
#199=ORIENTED_EDGE('',*,*,#163,.F.);
#200=ORIENTED_EDGE('',*,*,#164,.F.);
#201=ORIENTED_EDGE('',*,*,#165,.F.);
#202=ORIENTED_EDGE('',*,*,#166,.F.);
#203=ORIENTED_EDGE('',*,*,#167,.F.);
#204=ORIENTED_EDGE('',*,*,#161,.T.);
#205=ORIENTED_EDGE('',*,*,#168,.T.);
#206=ORIENTED_EDGE('',*,*,#169,.F.);
#207=ORIENTED_EDGE('',*,*,#170,.F.);
#208=ORIENTED_EDGE('',*,*,#157,.T.);
#209=ORIENTED_EDGE('',*,*,#171,.T.);
#210=ORIENTED_EDGE('',*,*,#172,.F.);
#211=ORIENTED_EDGE('',*,*,#173,.F.);
#212=ORIENTED_EDGE('',*,*,#156,.T.);
#213=ORIENTED_EDGE('',*,*,#174,.T.);
#214=ORIENTED_EDGE('',*,*,#175,.F.);
#215=ORIENTED_EDGE('',*,*,#171,.F.);
#216=ORIENTED_EDGE('',*,*,#176,.F.);
#217=ORIENTED_EDGE('',*,*,#177,.T.);
#218=ORIENTED_EDGE('',*,*,#167,.T.);
#219=ORIENTED_EDGE('',*,*,#177,.F.);
#220=ORIENTED_EDGE('',*,*,#178,.F.);
#221=ORIENTED_EDGE('',*,*,#179,.T.);
#222=ORIENTED_EDGE('',*,*,#166,.T.);
#223=ORIENTED_EDGE('',*,*,#179,.F.);
#224=ORIENTED_EDGE('',*,*,#180,.F.);
#225=ORIENTED_EDGE('',*,*,#181,.T.);
#226=ORIENTED_EDGE('',*,*,#165,.T.);
#227=ORIENTED_EDGE('',*,*,#181,.F.);
#228=ORIENTED_EDGE('',*,*,#182,.F.);
#229=ORIENTED_EDGE('',*,*,#183,.T.);
#230=ORIENTED_EDGE('',*,*,#164,.T.);
#231=ORIENTED_EDGE('',*,*,#183,.F.);
#232=ORIENTED_EDGE('',*,*,#184,.F.);
#233=ORIENTED_EDGE('',*,*,#185,.T.);
#234=ORIENTED_EDGE('',*,*,#163,.T.);
#235=ORIENTED_EDGE('',*,*,#185,.F.);
#236=ORIENTED_EDGE('',*,*,#186,.F.);
#237=ORIENTED_EDGE('',*,*,#187,.T.);
#238=ORIENTED_EDGE('',*,*,#162,.T.);
#239=ORIENTED_EDGE('',*,*,#187,.F.);
#240=ORIENTED_EDGE('',*,*,#160,.T.);
#241=ORIENTED_EDGE('',*,*,#170,.T.);
#242=ORIENTED_EDGE('',*,*,#188,.F.);
#243=ORIENTED_EDGE('',*,*,#168,.F.);
#244=ORIENTED_EDGE('',*,*,#158,.T.);
#245=ORIENTED_EDGE('',*,*,#173,.T.);
#246=ORIENTED_EDGE('',*,*,#189,.F.);
#247=ORIENTED_EDGE('',*,*,#190,.F.);
#248=ORIENTED_EDGE('',*,*,#159,.T.);
#249=ORIENTED_EDGE('',*,*,#190,.T.);
#250=ORIENTED_EDGE('',*,*,#191,.F.);
#251=ORIENTED_EDGE('',*,*,#174,.F.);
#252=ORIENTED_EDGE('',*,*,#175,.T.);
#253=ORIENTED_EDGE('',*,*,#191,.T.);
#254=ORIENTED_EDGE('',*,*,#189,.T.);
#255=ORIENTED_EDGE('',*,*,#172,.T.);
#256=ORIENTED_EDGE('',*,*,#188,.T.);
#257=ORIENTED_EDGE('',*,*,#169,.T.);
#258=ORIENTED_EDGE('',*,*,#186,.T.);
#259=ORIENTED_EDGE('',*,*,#184,.T.);
#260=ORIENTED_EDGE('',*,*,#182,.T.);
#261=ORIENTED_EDGE('',*,*,#180,.T.);
#262=ORIENTED_EDGE('',*,*,#178,.T.);
#263=ORIENTED_EDGE('',*,*,#176,.T.);
#264=PLANE('',#295);
#265=PLANE('',#303);
#266=PLANE('',#318);
#267=ADVANCED_FACE('',(#82,#26,#27,#28,#29,#30,#31,#32),#264,.F.);
#268=ADVANCED_FACE('',(#83),#265,.T.);
#269=ADVANCED_FACE('',(#84),#22,.T.);
#270=ADVANCED_FACE('',(#85),#23,.T.);
#271=ADVANCED_FACE('',(#86),#15,.F.);
#272=ADVANCED_FACE('',(#87),#16,.F.);
#273=ADVANCED_FACE('',(#88),#17,.F.);
#274=ADVANCED_FACE('',(#89),#18,.F.);
#275=ADVANCED_FACE('',(#90),#19,.F.);
#276=ADVANCED_FACE('',(#91),#20,.F.);
#277=ADVANCED_FACE('',(#92),#21,.F.);
#278=ADVANCED_FACE('',(#93),#24,.T.);
#279=ADVANCED_FACE('',(#94),#25,.T.);
#280=ADVANCED_FACE('',(#95,#33,#34,#35,#36,#37,#38,#39),#266,.T.);
#281=CLOSED_SHELL('',(#267,#268,#269,#270,#271,#272,#273,#274,#275,#276,
#277,#278,#279,#280));
#282=DERIVED_UNIT_ELEMENT(#284,1.);
#283=DERIVED_UNIT_ELEMENT(#623,-3.);
#284=(
MASS_UNIT()
NAMED_UNIT(*)
SI_UNIT(.KILO.,.GRAM.)
);
#285=DERIVED_UNIT((#282,#283));
#286=MEASURE_REPRESENTATION_ITEM('density measure',
POSITIVE_RATIO_MEASURE(7850.),#285);
#287=PROPERTY_DEFINITION_REPRESENTATION(#292,#289);
#288=PROPERTY_DEFINITION_REPRESENTATION(#293,#290);
#289=REPRESENTATION('material name',(#291),#620);
#290=REPRESENTATION('density',(#286),#620);
#291=DESCRIPTIVE_REPRESENTATION_ITEM('A\X\E7o','A\X\E7o');
#292=PROPERTY_DEFINITION('material property','material name',#630);
#293=PROPERTY_DEFINITION('material property','density of part',#630);
#294=AXIS2_PLACEMENT_3D('',#383,#319,#320);
#295=AXIS2_PLACEMENT_3D('',#384,#321,#322);
#296=AXIS2_PLACEMENT_3D('',#443,#323,#324);
#297=AXIS2_PLACEMENT_3D('',#446,#326,#327);
#298=AXIS2_PLACEMENT_3D('',#448,#328,#329);
#299=AXIS2_PLACEMENT_3D('',#450,#330,#331);
#300=AXIS2_PLACEMENT_3D('',#452,#332,#333);
#301=AXIS2_PLACEMENT_3D('',#454,#334,#335);
#302=AXIS2_PLACEMENT_3D('',#456,#336,#337);
#303=AXIS2_PLACEMENT_3D('',#457,#338,#339);
#304=AXIS2_PLACEMENT_3D('',#529,#346,#347);
#305=AXIS2_PLACEMENT_3D('',#531,#348,#349);
#306=AXIS2_PLACEMENT_3D('',#533,#351,#352);
#307=AXIS2_PLACEMENT_3D('',#535,#353,#354);
#308=AXIS2_PLACEMENT_3D('',#537,#356,#357);
#309=AXIS2_PLACEMENT_3D('',#539,#358,#359);
#310=AXIS2_PLACEMENT_3D('',#541,#361,#362);
#311=AXIS2_PLACEMENT_3D('',#543,#363,#364);
#312=AXIS2_PLACEMENT_3D('',#545,#366,#367);
#313=AXIS2_PLACEMENT_3D('',#547,#368,#369);
#314=AXIS2_PLACEMENT_3D('',#549,#371,#372);
#315=AXIS2_PLACEMENT_3D('',#551,#373,#374);
#316=AXIS2_PLACEMENT_3D('',#553,#376,#377);
#317=AXIS2_PLACEMENT_3D('',#554,#378,#379);
#318=AXIS2_PLACEMENT_3D('',#617,#381,#382);
#319=DIRECTION('axis',(0.,0.,1.));
#320=DIRECTION('refdir',(1.,0.,0.));
#321=DIRECTION('center_axis',(0.351184721329279,-0.936306195378882,2.78653641482667E-11));
#322=DIRECTION('ref_axis',(-0.0122460451273443,-0.00459318109694758,0.999914464874946));
#323=DIRECTION('center_axis',(-0.351184721329279,0.936306195378882,-2.78653641482667E-11));
#324=DIRECTION('ref_axis',(0.756095645039592,0.283592311712194,0.589826055960482));
#325=DIRECTION('',(0.0060520174999127,0.00226995833394218,-0.999979109968475));
#326=DIRECTION('center_axis',(-0.35118472132962,0.936306195378754,1.35343022237567E-14));
#327=DIRECTION('ref_axis',(-0.0122460454874971,-0.00459318126180973,0.999914464869778));
#328=DIRECTION('center_axis',(-0.351184724392932,0.936306194229783,-5.84188025087247E-9));
#329=DIRECTION('ref_axis',(0.804672568699458,0.301812290673344,0.511284068186292));
#330=DIRECTION('center_axis',(-0.351184730661574,0.936306191878574,-5.9294534296087E-9));
#331=DIRECTION('ref_axis',(0.816918614186955,0.306405471935153,-0.488630396683486));
#332=DIRECTION('center_axis',(-0.351184733866905,0.936306190676336,-1.75132936786333E-10));
#333=DIRECTION('ref_axis',(0.0122460454874977,0.00459318126180966,-0.999914464869778));
#334=DIRECTION('center_axis',(-0.351184730803594,0.936306191825306,5.66676089314496E-9));
#335=DIRECTION('ref_axis',(-0.804672568699458,-0.301812290673344,-0.511284068186292));
#336=DIRECTION('center_axis',(-0.351184724534952,0.936306194176515,5.75433408696661E-9));
#337=DIRECTION('ref_axis',(-0.816918614186955,-0.306405471935154,0.488630396683485));
#338=DIRECTION('center_axis',(-0.93628663591288,-0.351177385069548,-0.00646371616464423));
#339=DIRECTION('ref_axis',(0.00605201749991269,0.0022699583339422,-0.999979109968475));
#340=DIRECTION('',(0.351184721329279,-0.936306195378882,2.7865364812078E-11));
#341=DIRECTION('',(0.00605201749991269,0.0022699583339422,-0.999979109968475));
#342=DIRECTION('',(0.351184721329279,-0.936306195378882,2.7865364812078E-11));
#343=DIRECTION('',(0.351184721329279,-0.936306195378882,2.7865364812078E-11));
#344=DIRECTION('',(0.351184721329279,-0.936306195378882,2.7865364812078E-11));
#345=DIRECTION('',(0.351184721329279,-0.936306195378882,2.7865364812078E-11));
#346=DIRECTION('center_axis',(-0.351184724534952,0.936306194176515,5.75433421185603E-9));
#347=DIRECTION('ref_axis',(-0.816918614186956,-0.306405471935154,0.488630396683485));
#348=DIRECTION('center_axis',(-0.351184721329279,0.936306195378882,-2.78653641482668E-11));
#349=DIRECTION('ref_axis',(0.45750766765665,0.171599529715069,0.87249087985889));
#350=DIRECTION('',(-0.351184724534952,0.936306194176515,5.75433421185603E-9));
#351=DIRECTION('center_axis',(-0.351184730803594,0.936306191825306,5.66676097293513E-9));
#352=DIRECTION('ref_axis',(-0.804672568699458,-0.301812290673344,-0.511284068186292));
#353=DIRECTION('center_axis',(-0.351184721329279,0.936306195378882,-2.78653641482668E-11));
#354=DIRECTION('ref_axis',(-0.478718440649755,-0.179555152983681,0.859411776518611));
#355=DIRECTION('',(-0.351184730803594,0.936306191825306,5.66676097293513E-9));
#356=DIRECTION('center_axis',(-0.351184733866905,0.936306190676336,-1.75132922909732E-10));
#357=DIRECTION('ref_axis',(0.0122460454874977,0.00459318126180967,-0.999914464869778));
#358=DIRECTION('center_axis',(-0.351184721329279,0.936306195378882,-2.78653641482668E-11));
#359=DIRECTION('ref_axis',(-0.936226108306404,-0.35115468269875,-0.0130791033402792));
#360=DIRECTION('',(-0.351184733866905,0.936306190676336,-1.75132922909732E-10));
#361=DIRECTION('center_axis',(-0.351184730661574,0.936306191878574,-5.92945347123851E-9));
#362=DIRECTION('ref_axis',(0.816918614186955,0.306405471935153,-0.488630396683486));
#363=DIRECTION('center_axis',(-0.351184721329279,0.936306195378882,-2.78653641482668E-11));
#364=DIRECTION('ref_axis',(-0.45750766765665,-0.171599529715069,-0.87249087985889));
#365=DIRECTION('',(-0.351184730661574,0.936306191878574,-5.92945347123851E-9));
#366=DIRECTION('center_axis',(-0.351184724392932,0.936306194229783,-5.84188036188527E-9));
#367=DIRECTION('ref_axis',(0.804672568699458,0.301812290673344,0.511284068186292));
#368=DIRECTION('center_axis',(-0.351184721329279,0.936306195378882,-2.78653641482668E-11));
#369=DIRECTION('ref_axis',(0.478718440649754,0.179555152983681,-0.859411776518611));
#370=DIRECTION('',(-0.351184724392932,0.936306194229783,-5.84188036188527E-9));
#371=DIRECTION('center_axis',(-0.35118472132962,0.936306195378754,1.35343022237567E-14));
#372=DIRECTION('ref_axis',(-0.0122460454874971,-0.00459318126180973,0.999914464869778));
#373=DIRECTION('center_axis',(-0.351184721329279,0.936306195378882,-2.78653641482668E-11));
#374=DIRECTION('ref_axis',(-0.0122460454972886,-0.00459318123570432,0.999914464869778));
#375=DIRECTION('',(-0.35118472132962,0.936306195378754,1.35343022237567E-14));
#376=DIRECTION('center_axis',(0.351184721329279,-0.936306195378882,2.7865364812078E-11));
#377=DIRECTION('ref_axis',(-0.93628663591288,-0.351177385069548,-0.0064637161646453));
#378=DIRECTION('center_axis',(-0.351184721329279,0.936306195378882,-2.78653339075252E-11));
#379=DIRECTION('ref_axis',(0.756095645039592,0.283592311712194,0.589826055960482));
#380=DIRECTION('',(0.351184721329279,-0.936306195378882,2.7865364812078E-11));
#381=DIRECTION('center_axis',(0.351184721329279,-0.936306195378882,2.78653641482668E-11));
#382=DIRECTION('ref_axis',(-0.0122460451273443,-0.00459318109694758,0.999914464874946));
#383=CARTESIAN_POINT('',(0.,0.,0.));
#384=CARTESIAN_POINT('Origin',(257.85482054458,58.7252432666845,1.9857785737382));
#385=CARTESIAN_POINT('',(246.695193516689,54.5395500316225,-17.2169281117598));
#386=CARTESIAN_POINT('',(270.225498775135,63.3651711115327,-16.3444972548745));
#387=CARTESIAN_POINT('Ctrl Pts',(246.695193516871,54.5395500311361,-17.2169281117597));
#388=CARTESIAN_POINT('Ctrl Pts',(249.111110779957,55.4456993602104,-18.6789853676739));
#389=CARTESIAN_POINT('Ctrl Pts',(251.771587940421,56.4435769079454,-19.632492898129));
#390=CARTESIAN_POINT('Ctrl Pts',(254.521040961307,57.4748270456691,-20.053379509797));
#391=CARTESIAN_POINT('Ctrl Pts',(257.279179191817,58.5093347853788,-20.4755956544386));
#392=CARTESIAN_POINT('Ctrl Pts',(260.100385940552,59.5674979276925,-20.3577665877757));
#393=CARTESIAN_POINT('Ctrl Pts',(262.818908786605,60.5871469408557,-19.7050710123659));
#394=CARTESIAN_POINT('Ctrl Pts',(265.457168404676,61.5766912516345,-19.071645995542));
#395=CARTESIAN_POINT('Ctrl Pts',(267.973033673059,62.5203285441904,-17.940648567395));
#396=CARTESIAN_POINT('Ctrl Pts',(270.225498775382,63.3651711108762,-16.3444972548745));
#397=CARTESIAN_POINT('',(245.484142313541,54.0853154231234,20.3160544023509));
#398=CARTESIAN_POINT('Ctrl Pts',(245.484142313777,54.0853154224928,20.3160544023509));
#399=CARTESIAN_POINT('Ctrl Pts',(243.552352866377,53.3607501657975,18.5898110237819));
#400=CARTESIAN_POINT('Ctrl Pts',(241.96118195234,52.763942287296,16.4956906381152));
#401=CARTESIAN_POINT('Ctrl Pts',(240.744192756445,52.3074804868763,14.1351284548376));
#402=CARTESIAN_POINT('Ctrl Pts',(239.3684024086,51.7914563994843,11.4665438213853));
#403=CARTESIAN_POINT('Ctrl Pts',(238.502136211149,51.4665419059858,8.51776452352039));
#404=CARTESIAN_POINT('Ctrl Pts',(238.134101827569,51.3285015371843,5.49779950218593));
#405=CARTESIAN_POINT('Ctrl Pts',(237.726691859147,51.1756923845519,2.15473181918693));
#406=CARTESIAN_POINT('Ctrl Pts',(237.928440366007,51.2513631356523,-1.28694927315738));
#407=CARTESIAN_POINT('Ctrl Pts',(238.736719361819,51.5545280994333,-4.54560926019069));
#408=CARTESIAN_POINT('Ctrl Pts',(239.378191770797,51.7951281405597,-7.13177131902062));
#409=CARTESIAN_POINT('Ctrl Pts',(240.401567038677,52.1789702639705,-9.60206223427483));
#410=CARTESIAN_POINT('Ctrl Pts',(241.80625179231,52.7058319104415,-11.8181664485506));
#411=CARTESIAN_POINT('Ctrl Pts',(243.134471991336,53.2040136406307,-13.9136361779232));
#412=CARTESIAN_POINT('Ctrl Pts',(244.776656395986,53.8199553863049,-15.7395488920466));
#413=CARTESIAN_POINT('Ctrl Pts',(246.695193516872,54.5395500311362,-17.2169281117598));
#414=CARTESIAN_POINT('',(269.014447572048,62.9109365028698,21.1884852592362));
#415=CARTESIAN_POINT('Ctrl Pts',(269.014447572287,62.9109365022329,21.1884852592362));
#416=CARTESIAN_POINT('Ctrl Pts',(266.598530309202,62.0047871731586,22.6505425151504));
#417=CARTESIAN_POINT('Ctrl Pts',(263.938053148738,61.0069096254236,23.6040500456055));
#418=CARTESIAN_POINT('Ctrl Pts',(261.188600127852,59.9756594876999,24.0249366572734));
#419=CARTESIAN_POINT('Ctrl Pts',(258.430461897342,58.9411517479903,24.4471528019149));
#420=CARTESIAN_POINT('Ctrl Pts',(255.609255148607,57.8829886056765,24.3293237352521));
#421=CARTESIAN_POINT('Ctrl Pts',(252.890732302554,56.8633395925133,23.6766281598423));
#422=CARTESIAN_POINT('Ctrl Pts',(250.252472684483,55.8737952817345,23.0432031430184));
#423=CARTESIAN_POINT('Ctrl Pts',(247.7366074161,54.9301579891786,21.9122057148714));
#424=CARTESIAN_POINT('Ctrl Pts',(245.484142313777,54.0853154224928,20.3160544023509));
#425=CARTESIAN_POINT('Ctrl Pts',(270.225498775382,63.3651711108762,-16.3444972548745));
#426=CARTESIAN_POINT('Ctrl Pts',(272.157288222782,64.0897363675715,-14.6182538763056));
#427=CARTESIAN_POINT('Ctrl Pts',(273.748459136819,64.686544246073,-12.5241334906389));
#428=CARTESIAN_POINT('Ctrl Pts',(274.965448332714,65.1430060464927,-10.1635713073612));
#429=CARTESIAN_POINT('Ctrl Pts',(276.341238680559,65.6590301338848,-7.49498667390891));
#430=CARTESIAN_POINT('Ctrl Pts',(277.20750487801,65.9839446273833,-4.54620737604398));
#431=CARTESIAN_POINT('Ctrl Pts',(277.57553926159,66.1219849961848,-1.52624235470955));
#432=CARTESIAN_POINT('Ctrl Pts',(277.982949230012,66.2747941488172,1.8168253282894));
#433=CARTESIAN_POINT('Ctrl Pts',(277.781200723152,66.1991233977167,5.25850642063374));
#434=CARTESIAN_POINT('Ctrl Pts',(276.97292172734,65.8959584339357,8.51716640766709));
#435=CARTESIAN_POINT('Ctrl Pts',(276.331449318363,65.6553583928093,11.103328466497));
#436=CARTESIAN_POINT('Ctrl Pts',(275.308074050482,65.2715162693985,13.5736193817512));
#437=CARTESIAN_POINT('Ctrl Pts',(273.903389296849,64.7446546229275,15.7897235960269));
#438=CARTESIAN_POINT('Ctrl Pts',(272.575169097823,64.2464728927383,17.8851933253995));
#439=CARTESIAN_POINT('Ctrl Pts',(270.932984693173,63.6305311470642,19.7111060395229));
#440=CARTESIAN_POINT('Ctrl Pts',(269.014447572287,62.9109365022329,21.1884852592362));
#441=CARTESIAN_POINT('',(259.877225264274,59.4837960150946,0.450533681990206));
#442=CARTESIAN_POINT('',(259.858474003935,59.4767628927218,3.54881762203345));
#443=CARTESIAN_POINT('Origin',(257.85482054458,58.7252432666845,1.98577857373816));
#444=CARTESIAN_POINT('',(259.863161819019,59.478521173315,2.77424663702265));
#445=CARTESIAN_POINT('',(244.648938780693,53.7720517465893,-2.31964062155691));
#446=CARTESIAN_POINT('Origin',(244.599954598743,53.7536790215421,1.6800172379222));
#447=CARTESIAN_POINT('',(247.760766157677,54.9392193453033,12.0476940554285));
#448=CARTESIAN_POINT('Origin',(250.979456432475,56.1464685079967,14.0928303281737));
#449=CARTESIAN_POINT('',(260.96664794469,59.8924109753277,16.3531132512609));
#450=CARTESIAN_POINT('Origin',(264.234322401438,61.1180328630682,14.3985916645269));
#451=CARTESIAN_POINT('',(271.060702354719,63.6784350066378,6.29119777010786));
#452=CARTESIAN_POINT('Origin',(271.109686536669,63.6968077316852,2.29153991062875));
#453=CARTESIAN_POINT('',(267.948874977735,62.5112674079239,-8.07613690687749));
#454=CARTESIAN_POINT('Origin',(264.730184702937,61.3040182452305,-10.1212731796227));
#455=CARTESIAN_POINT('',(254.742993190722,57.5580757778996,-12.3815561027099));
#456=CARTESIAN_POINT('Origin',(251.475318733974,56.3324538901589,-10.427034515976));
#457=CARTESIAN_POINT('Origin',(256.697811511971,67.9035186511318,3.54881762178265));
#458=CARTESIAN_POINT('',(261.984333592249,53.8659588428213,0.45053368215739));
#459=CARTESIAN_POINT('',(256.71656277231,67.9105517735045,0.450533681739409));
#460=CARTESIAN_POINT('',(261.96558233191,53.8589257204485,3.54881762220063));
#461=CARTESIAN_POINT('',(261.96558233191,53.8589257204485,3.54881762220063));
#462=CARTESIAN_POINT('',(256.697811511971,67.9035186511318,3.54881762178265));
#463=CARTESIAN_POINT('Ctrl Pts',(242.323479807446,62.5120712192102,20.3160544021001));
#464=CARTESIAN_POINT('Ctrl Pts',(247.591250627385,48.4674782885271,20.3160544025181));
#465=CARTESIAN_POINT('Ctrl Pts',(240.391690364933,61.7875059494843,18.5898110235312));
#466=CARTESIAN_POINT('Ctrl Pts',(245.659461184872,47.7429130188011,18.5898110239492));
#467=CARTESIAN_POINT('Ctrl Pts',(238.800519454112,61.1906980624084,16.4956906378645));
#468=CARTESIAN_POINT('Ctrl Pts',(244.068290274051,47.1461051317251,16.4956906382824));
#469=CARTESIAN_POINT('Ctrl Pts',(236.207739916989,60.2182121569558,11.4665438211345));
#470=CARTESIAN_POINT('Ctrl Pts',(241.475510736928,46.1736192262725,11.4665438215525));
#471=CARTESIAN_POINT('Ctrl Pts',(235.341473722748,59.8932976548963,8.5177645232696));
#472=CARTESIAN_POINT('Ctrl Pts',(240.609244542688,45.848704724213,8.51776452368758));
#473=CARTESIAN_POINT('Ctrl Pts',(234.566029372827,59.6024481279147,2.15473181893614));
#474=CARTESIAN_POINT('Ctrl Pts',(239.833800192766,45.5578551972315,2.15473181935412));
#475=CARTESIAN_POINT('Ctrl Pts',(234.7677778791,59.6781188805799,-1.28694927340816));
#476=CARTESIAN_POINT('Ctrl Pts',(240.035548699039,45.6335259498967,-1.28694927299018));
#477=CARTESIAN_POINT('Ctrl Pts',(236.217529280372,60.2218838948673,-7.13177131927142));
#478=CARTESIAN_POINT('Ctrl Pts',(241.485300100311,46.1772909641841,-7.13177131885344));
#479=CARTESIAN_POINT('Ctrl Pts',(237.240904545736,60.6057260249857,-9.60206223452559));
#480=CARTESIAN_POINT('Ctrl Pts',(242.508675365675,46.5611330943024,-9.60206223410763));
#481=CARTESIAN_POINT('Ctrl Pts',(239.973809491623,61.6307694197029,-13.913636178174));
#482=CARTESIAN_POINT('Ctrl Pts',(245.241580311562,47.5861764890197,-13.913636177756));
#483=CARTESIAN_POINT('Ctrl Pts',(241.615993892187,62.2467111762702,-15.7395488922973));
#484=CARTESIAN_POINT('Ctrl Pts',(246.883764712126,48.2021182455869,-15.7395488918793));
#485=CARTESIAN_POINT('Ctrl Pts',(243.534531008285,62.9663058338644,-17.2169281120106));
#486=CARTESIAN_POINT('Ctrl Pts',(248.802301828225,48.9217129031811,-17.2169281115926));
#487=CARTESIAN_POINT('',(248.80230182843,48.921712902634,-17.2169281115926));
#488=CARTESIAN_POINT('',(243.534531008285,62.9663058338644,-17.2169281120106));
#489=CARTESIAN_POINT('',(247.591250627562,48.4674782880541,20.3160544025181));
#490=CARTESIAN_POINT('Ctrl Pts',(247.591250627385,48.4674782885271,20.3160544025181));
#491=CARTESIAN_POINT('Ctrl Pts',(245.659461184872,47.7429130188011,18.5898110239492));
#492=CARTESIAN_POINT('Ctrl Pts',(244.068290274051,47.1461051317251,16.4956906382824));
#493=CARTESIAN_POINT('Ctrl Pts',(241.475510736928,46.1736192262725,11.4665438215525));
#494=CARTESIAN_POINT('Ctrl Pts',(240.609244542688,45.848704724213,8.51776452368758));
#495=CARTESIAN_POINT('Ctrl Pts',(239.833800192766,45.5578551972315,2.15473181935412));
#496=CARTESIAN_POINT('Ctrl Pts',(240.035548699039,45.6335259498967,-1.28694927299018));
#497=CARTESIAN_POINT('Ctrl Pts',(241.485300100311,46.1772909641841,-7.13177131885344));
#498=CARTESIAN_POINT('Ctrl Pts',(242.508675365675,46.5611330943024,-9.60206223410763));
#499=CARTESIAN_POINT('Ctrl Pts',(245.241580311562,47.5861764890197,-13.913636177756));
#500=CARTESIAN_POINT('Ctrl Pts',(246.883764712126,48.2021182455869,-15.7395488918793));
#501=CARTESIAN_POINT('Ctrl Pts',(248.802301828225,48.9217129031811,-17.2169281115926));
#502=CARTESIAN_POINT('',(242.323479807446,62.5120712192103,20.3160544021001));
#503=CARTESIAN_POINT('Ctrl Pts',(243.534531008285,62.9663058338644,-17.2169281120105));
#504=CARTESIAN_POINT('Ctrl Pts',(248.802301828225,48.9217129031811,-17.2169281115925));
#505=CARTESIAN_POINT('Ctrl Pts',(245.950448265335,63.8724551790325,-18.6789853679248));
#506=CARTESIAN_POINT('Ctrl Pts',(251.218219085274,49.8278622483492,-18.6789853675068));
#507=CARTESIAN_POINT('Ctrl Pts',(248.61092541906,64.8703327447329,-19.6324928983799));
#508=CARTESIAN_POINT('Ctrl Pts',(253.878696238999,50.8257398140498,-19.6324928979619));
#509=CARTESIAN_POINT('Ctrl Pts',(254.118516656642,66.936090658995,-20.4755956546893));
#510=CARTESIAN_POINT('Ctrl Pts',(259.386287476582,52.8914977283117,-20.4755956542714));
#511=CARTESIAN_POINT('Ctrl Pts',(256.939723398364,67.9942538200061,-20.3577665880265));
#512=CARTESIAN_POINT('Ctrl Pts',(262.207494218304,53.9496608893228,-20.3577665876085));
#513=CARTESIAN_POINT('Ctrl Pts',(262.296505849009,70.003447179886,-19.0716459957928));
#514=CARTESIAN_POINT('Ctrl Pts',(267.564276668948,55.9588542492028,-19.0716459953748));
#515=CARTESIAN_POINT('Ctrl Pts',(264.812371111053,70.9470844893428,-17.9406485676457));
#516=CARTESIAN_POINT('Ctrl Pts',(270.080141930992,56.9024915586595,-17.9406485672278));
#517=CARTESIAN_POINT('Ctrl Pts',(267.064836207686,71.7919270711989,-16.3444972551252));
#518=CARTESIAN_POINT('Ctrl Pts',(272.332607027625,57.7473341405157,-16.3444972547073));
#519=CARTESIAN_POINT('',(272.332607027937,57.7473341396848,-16.3444972547073));
#520=CARTESIAN_POINT('',(267.064836207686,71.7919270711989,-16.3444972551252));
#521=CARTESIAN_POINT('Ctrl Pts',(248.802301828225,48.9217129031811,-17.2169281115925));
#522=CARTESIAN_POINT('Ctrl Pts',(251.218219085274,49.8278622483492,-18.6789853675068));
#523=CARTESIAN_POINT('Ctrl Pts',(253.878696238999,50.8257398140498,-19.6324928979619));
#524=CARTESIAN_POINT('Ctrl Pts',(259.386287476582,52.8914977283117,-20.4755956542714));
#525=CARTESIAN_POINT('Ctrl Pts',(262.207494218304,53.9496608893228,-20.3577665876085));
#526=CARTESIAN_POINT('Ctrl Pts',(267.564276668948,55.9588542492028,-19.0716459953748));
#527=CARTESIAN_POINT('Ctrl Pts',(270.080141930992,56.9024915586595,-17.9406485672278));
#528=CARTESIAN_POINT('Ctrl Pts',(272.332607027625,57.7473341405157,-16.3444972547073));
#529=CARTESIAN_POINT('Origin',(253.582427081184,50.7146167250999,-10.427034550502));
#530=CARTESIAN_POINT('',(256.85010156311,51.9402385457115,-12.3815561372359));
#531=CARTESIAN_POINT('Origin',(253.582427098197,50.7146166797402,-10.427034550502));
#532=CARTESIAN_POINT('',(256.850101537932,51.9402386128405,-12.3815561372359));
#533=CARTESIAN_POINT('Origin',(266.837293087758,55.6861810942786,-10.1212732136233));
#534=CARTESIAN_POINT('',(270.055983420989,56.8934301011833,-8.07613694087813));
#535=CARTESIAN_POINT('Origin',(266.837293138065,55.6861809601548,-10.1212732136233));
#536=CARTESIAN_POINT('',(270.055983362556,56.893430256972,-8.07613694087814));
#537=CARTESIAN_POINT('Origin',(273.21679493987,58.0789705876272,2.29153991167955));
#538=CARTESIAN_POINT('',(273.167810824469,58.060597685153,6.29119777115868));
#539=CARTESIAN_POINT('Origin',(273.216795006458,58.0789704100959,2.29153991167956));
#540=CARTESIAN_POINT('',(273.16781075792,58.0605978625799,6.29119777115867));
#541=CARTESIAN_POINT('Origin',(266.341430785408,55.5001957117968,14.3985917001036));
#542=CARTESIAN_POINT('',(263.07375637007,54.274573713651,16.3531132868376));
#543=CARTESIAN_POINT('Origin',(266.341430834983,55.5001955796223,14.3985917001036));
#544=CARTESIAN_POINT('',(263.07375632866,54.2745738240561,16.3531132868376));
#545=CARTESIAN_POINT('Origin',(253.086564778833,50.5286313426179,14.092830363225));
#546=CARTESIAN_POINT('',(249.867874512191,49.3213821581793,12.0476940904798));
#547=CARTESIAN_POINT('Origin',(253.086564795115,50.5286312992078,14.092830363225));
#548=CARTESIAN_POINT('',(249.867874504035,49.3213821799246,12.0476940904798));
#549=CARTESIAN_POINT('Origin',(246.707062926721,48.1358418492695,1.68001723792212));
#550=CARTESIAN_POINT('',(246.756047108671,48.1542145743167,-2.31964062155699));
#551=CARTESIAN_POINT('Origin',(246.707062926721,48.1358418492699,1.68001723792212));
#552=CARTESIAN_POINT('',(246.756047108671,48.1542145743167,-2.31964062155699));
#553=CARTESIAN_POINT('Origin',(254.694158052616,67.1519990250945,1.98577857348738));
#554=CARTESIAN_POINT('Origin',(259.961928872555,53.1074060944113,1.98577857390536));
#555=CARTESIAN_POINT('Ctrl Pts',(265.853785006846,71.3376924565449,21.1884852589854));
#556=CARTESIAN_POINT('Ctrl Pts',(271.121555826785,57.2930995258616,21.1884852594034));
#557=CARTESIAN_POINT('Ctrl Pts',(263.437867749797,70.4315431113767,22.6505425148996));
#558=CARTESIAN_POINT('Ctrl Pts',(268.705638569736,56.3869501806934,22.6505425153176));
#559=CARTESIAN_POINT('Ctrl Pts',(260.777390595917,69.4336655460877,23.6040500453546));
#560=CARTESIAN_POINT('Ctrl Pts',(266.045161415856,55.3890726154044,23.6040500457727));
#561=CARTESIAN_POINT('Ctrl Pts',(255.269799358335,67.3679076318256,24.4471528016642));
#562=CARTESIAN_POINT('Ctrl Pts',(260.537570178274,53.3233147011424,24.4471528020821));
#563=CARTESIAN_POINT('Ctrl Pts',(252.448592616762,66.3097444704176,24.3293237350014));
#564=CARTESIAN_POINT('Ctrl Pts',(257.716363436701,52.2651515397343,24.3293237354193));
#565=CARTESIAN_POINT('Ctrl Pts',(247.091810166117,64.3005511105378,23.0432031427677));
#566=CARTESIAN_POINT('Ctrl Pts',(252.359580986056,50.2559581798545,23.0432031431856));
#567=CARTESIAN_POINT('Ctrl Pts',(244.575944904078,63.3569138010665,21.9122057146206));
#568=CARTESIAN_POINT('Ctrl Pts',(249.843715724018,49.3123208703833,21.9122057150386));
#569=CARTESIAN_POINT('Ctrl Pts',(242.323479807446,62.5120712192102,20.3160544021001));
#570=CARTESIAN_POINT('Ctrl Pts',(247.591250627385,48.4674782885271,20.3160544025181));
#571=CARTESIAN_POINT('',(271.121555827088,57.2930995250554,21.1884852594034));
#572=CARTESIAN_POINT('Ctrl Pts',(271.121555826785,57.2930995258616,21.1884852594034));
#573=CARTESIAN_POINT('Ctrl Pts',(268.705638569736,56.3869501806934,22.6505425153176));
#574=CARTESIAN_POINT('Ctrl Pts',(266.045161415856,55.3890726154044,23.6040500457727));
#575=CARTESIAN_POINT('Ctrl Pts',(260.537570178274,53.3233147011424,24.4471528020821));
#576=CARTESIAN_POINT('Ctrl Pts',(257.716363436701,52.2651515397343,24.3293237354193));
#577=CARTESIAN_POINT('Ctrl Pts',(252.359580986056,50.2559581798545,23.0432031431856));
#578=CARTESIAN_POINT('Ctrl Pts',(249.843715724018,49.3123208703833,21.9122057150386));
#579=CARTESIAN_POINT('Ctrl Pts',(247.591250627385,48.4674782885271,20.3160544025181));
#580=CARTESIAN_POINT('',(265.853785006846,71.3376924565449,21.1884852589854));
#581=CARTESIAN_POINT('Ctrl Pts',(267.064836207686,71.7919270711989,-16.3444972551252));
#582=CARTESIAN_POINT('Ctrl Pts',(272.332607027625,57.7473341405157,-16.3444972547073));
#583=CARTESIAN_POINT('Ctrl Pts',(268.996625650198,72.5164923409249,-14.6182538765563));
#584=CARTESIAN_POINT('Ctrl Pts',(274.264396470137,58.4718994102416,-14.6182538761384));
#585=CARTESIAN_POINT('Ctrl Pts',(270.587796559372,73.1133002323933,-12.5241334908896));
#586=CARTESIAN_POINT('Ctrl Pts',(275.855567379311,59.06870730171,-12.5241334904717));
#587=CARTESIAN_POINT('Ctrl Pts',(273.180576096495,74.0857861378458,-7.49498667415969));
#588=CARTESIAN_POINT('Ctrl Pts',(278.448346916435,60.0411932071627,-7.49498667374172));
#589=CARTESIAN_POINT('Ctrl Pts',(274.046842292683,74.4107006347131,-4.54620737629476));
#590=CARTESIAN_POINT('Ctrl Pts',(279.314613112622,60.3661077040299,-4.54620737587678));
#591=CARTESIAN_POINT('Ctrl Pts',(274.822286642605,74.7015501616946,1.81682532803862));
#592=CARTESIAN_POINT('Ctrl Pts',(280.090057462544,60.6569572310114,1.8168253284566));
#593=CARTESIAN_POINT('Ctrl Pts',(274.620538136027,74.625879409842,5.25850642038295));
#594=CARTESIAN_POINT('Ctrl Pts',(279.888308955966,60.5812864791587,5.25850642080093));
#595=CARTESIAN_POINT('Ctrl Pts',(273.170786734755,74.0821143955545,11.1033284662462));
#596=CARTESIAN_POINT('Ctrl Pts',(278.438557554694,60.0375214648713,11.1033284666642));
#597=CARTESIAN_POINT('Ctrl Pts',(272.147411469395,73.6982722654236,13.5736193815005));
#598=CARTESIAN_POINT('Ctrl Pts',(277.415182289335,59.6536793347403,13.5736193819184));
#599=CARTESIAN_POINT('Ctrl Pts',(269.414506523508,72.6732288707063,17.8851933251488));
#600=CARTESIAN_POINT('Ctrl Pts',(274.682277343448,58.6286359400231,17.8851933255668));
#601=CARTESIAN_POINT('Ctrl Pts',(267.772322122945,72.0572871141391,19.7111060392721));
#602=CARTESIAN_POINT('Ctrl Pts',(273.040092942884,58.0126941834558,19.7111060396901));
#603=CARTESIAN_POINT('Ctrl Pts',(265.853785006846,71.3376924565449,21.1884852589854));
#604=CARTESIAN_POINT('Ctrl Pts',(271.121555826785,57.2930995258616,21.1884852594033));
#605=CARTESIAN_POINT('Ctrl Pts',(272.332607027625,57.7473341405157,-16.3444972547073));
#606=CARTESIAN_POINT('Ctrl Pts',(274.264396470137,58.4718994102416,-14.6182538761384));
#607=CARTESIAN_POINT('Ctrl Pts',(275.855567379311,59.06870730171,-12.5241334904717));
#608=CARTESIAN_POINT('Ctrl Pts',(278.448346916435,60.0411932071627,-7.49498667374172));
#609=CARTESIAN_POINT('Ctrl Pts',(279.314613112622,60.3661077040299,-4.54620737587679));
#610=CARTESIAN_POINT('Ctrl Pts',(280.090057462544,60.6569572310114,1.8168253284566));
#611=CARTESIAN_POINT('Ctrl Pts',(279.888308955966,60.5812864791587,5.25850642080093));
#612=CARTESIAN_POINT('Ctrl Pts',(278.438557554694,60.0375214648713,11.1033284666642));
#613=CARTESIAN_POINT('Ctrl Pts',(277.415182289335,59.6536793347403,13.5736193819184));
#614=CARTESIAN_POINT('Ctrl Pts',(274.682277343448,58.6286359400231,17.8851933255668));
#615=CARTESIAN_POINT('Ctrl Pts',(273.040092942884,58.0126941834558,19.7111060396901));
#616=CARTESIAN_POINT('Ctrl Pts',(271.121555826785,57.2930995258616,21.1884852594033));
#617=CARTESIAN_POINT('Origin',(259.961928872555,53.1074060944112,1.9857785739054));
#618=UNCERTAINTY_MEASURE_WITH_UNIT(LENGTH_MEASURE(0.01),#622,
'DISTANCE_ACCURACY_VALUE',
'Maximum model space distance between geometric entities at asserted c
onnectivities');
#619=UNCERTAINTY_MEASURE_WITH_UNIT(LENGTH_MEASURE(0.01),#622,
'DISTANCE_ACCURACY_VALUE',
'Maximum model space distance between geometric entities at asserted c
onnectivities');
#620=(
GEOMETRIC_REPRESENTATION_CONTEXT(3)
GLOBAL_UNCERTAINTY_ASSIGNED_CONTEXT((#618))
GLOBAL_UNIT_ASSIGNED_CONTEXT((#622,#624,#625))
REPRESENTATION_CONTEXT('','3D')
);
#621=(
GEOMETRIC_REPRESENTATION_CONTEXT(3)
GLOBAL_UNCERTAINTY_ASSIGNED_CONTEXT((#619))
GLOBAL_UNIT_ASSIGNED_CONTEXT((#622,#624,#625))
REPRESENTATION_CONTEXT('','3D')
);
#622=(
LENGTH_UNIT()
NAMED_UNIT(*)
SI_UNIT(.MILLI.,.METRE.)
);
#623=(
LENGTH_UNIT()
NAMED_UNIT(*)
SI_UNIT($,.METRE.)
);
#624=(
NAMED_UNIT(*)
PLANE_ANGLE_UNIT()
SI_UNIT($,.RADIAN.)
);
#625=(
NAMED_UNIT(*)
SI_UNIT($,.STERADIAN.)
SOLID_ANGLE_UNIT()
);
#626=SHAPE_DEFINITION_REPRESENTATION(#627,#628);
#627=PRODUCT_DEFINITION_SHAPE('',$,#630);
#628=SHAPE_REPRESENTATION('',(#294),#620);
#629=PRODUCT_DEFINITION_CONTEXT('part definition',#634,'design');
#630=PRODUCT_DEFINITION('2026-06-22-01-02-16-261','Disco_Rodagem',#631,
#629);
#631=PRODUCT_DEFINITION_FORMATION('',$,#636);
#632=PRODUCT_RELATED_PRODUCT_CATEGORY('Disco_Rodagem','Disco_Rodagem',(#636));
#633=APPLICATION_PROTOCOL_DEFINITION('international standard',
'automotive_design',2009,#634);
#634=APPLICATION_CONTEXT(
'Core Data for Automotive Mechanical Design Process');
#635=PRODUCT_CONTEXT('part definition',#634,'mechanical');
#636=PRODUCT('2026-06-22-01-02-16-261','Disco_Rodagem',$,(#635));
#637=PRESENTATION_STYLE_ASSIGNMENT((#639));
#638=PRESENTATION_STYLE_ASSIGNMENT((#640));
#639=SURFACE_STYLE_USAGE(.BOTH.,#641);
#640=SURFACE_STYLE_USAGE(.BOTH.,#642);
#641=SURFACE_SIDE_STYLE('',(#643));
#642=SURFACE_SIDE_STYLE('',(#644));
#643=SURFACE_STYLE_FILL_AREA(#645);
#644=SURFACE_STYLE_FILL_AREA(#646);
#645=FILL_AREA_STYLE('A\X\E7o - Acetinado',(#647));
#646=FILL_AREA_STYLE('Opaque(160,160,160)',(#648));
#647=FILL_AREA_STYLE_COLOUR('A\X\E7o - Acetinado',#649);
#648=FILL_AREA_STYLE_COLOUR('Opaque(160,160,160)',#650);
#649=COLOUR_RGB('A\X\E7o - Acetinado',0.627450980392157,0.627450980392157,
0.627450980392157);
#650=COLOUR_RGB('Opaque(160,160,160)',0.627450980392157,0.627450980392157,
0.627450980392157);
ENDSEC;
END-ISO-10303-21;
