ISO-10303-21;
HEADER;
/* Generated by software containing ST-Developer
 * from STEP Tools, Inc. (www.steptools.com) 
 */

FILE_DESCRIPTION(
/* description */ (''),
/* implementation_level */ '2;1');

FILE_NAME(
/* name */ 'Discos.step',
/* time_stamp */ '2026-06-22T01:03:40-03:00',
/* author */ (''),
/* organization */ (''),
/* preprocessor_version */ 'ST-DEVELOPER v20.1',
/* originating_system */ 'Autodesk Translation Framework v15.8.0.0',
/* authorisation */ '');

FILE_SCHEMA (('AUTOMOTIVE_DESIGN { 1 0 10303 214 3 1 1 }'));
ENDSEC;

DATA;
#10=MECHANICAL_DESIGN_GEOMETRIC_PRESENTATION_REPRESENTATION('',(#19,#20),
#262);
#11=ITEM_DEFINED_TRANSFORMATION($,$,#138,#153);
#12=(
REPRESENTATION_RELATIONSHIP($,$,#273,#272)
REPRESENTATION_RELATIONSHIP_WITH_TRANSFORMATION(#11)
SHAPE_REPRESENTATION_RELATIONSHIP()
);
#13=CONTEXT_DEPENDENT_SHAPE_REPRESENTATION(#12,#271);
#14=NEXT_ASSEMBLY_USAGE_OCCURRENCE('Disco:1','Disco:1','Disco:1',#275,#276,
'Disco:1');
#15=SHAPE_REPRESENTATION_RELATIONSHIP('SRR','None',#273,#17);
#16=SHAPE_REPRESENTATION_RELATIONSHIP('SRR','None',#272,#18);
#17=ADVANCED_BREP_SHAPE_REPRESENTATION('',(#21),#261);
#18=ADVANCED_BREP_SHAPE_REPRESENTATION('',(#22),#260);
#19=STYLED_ITEM('',(#286),#21);
#20=STYLED_ITEM('',(#286),#22);
#21=MANIFOLD_SOLID_BREP('Corpo1',#123);
#22=MANIFOLD_SOLID_BREP('Corpo1',#124);
#23=FACE_BOUND('',#48,.T.);
#24=FACE_BOUND('',#50,.T.);
#25=FACE_BOUND('',#54,.T.);
#26=FACE_BOUND('',#56,.T.);
#27=PLANE('',#144);
#28=PLANE('',#145);
#29=PLANE('',#151);
#30=PLANE('',#152);
#31=CIRCLE('',#142,17.5);
#32=CIRCLE('',#143,17.5);
#33=CIRCLE('',#149,17.5);
#34=CIRCLE('',#150,17.5);
#35=CYLINDRICAL_SURFACE('',#141,17.5);
#36=CYLINDRICAL_SURFACE('',#148,17.5);
#37=FACE_OUTER_BOUND('',#45,.T.);
#38=FACE_OUTER_BOUND('',#46,.T.);
#39=FACE_OUTER_BOUND('',#47,.T.);
#40=FACE_OUTER_BOUND('',#49,.T.);
#41=FACE_OUTER_BOUND('',#51,.T.);
#42=FACE_OUTER_BOUND('',#52,.T.);
#43=FACE_OUTER_BOUND('',#53,.T.);
#44=FACE_OUTER_BOUND('',#55,.T.);
#45=EDGE_LOOP('',(#89,#90,#91,#92));
#46=EDGE_LOOP('',(#93,#94,#95,#96));
#47=EDGE_LOOP('',(#97));
#48=EDGE_LOOP('',(#98));
#49=EDGE_LOOP('',(#99));
#50=EDGE_LOOP('',(#100));
#51=EDGE_LOOP('',(#101,#102,#103,#104));
#52=EDGE_LOOP('',(#105,#106,#107,#108));
#53=EDGE_LOOP('',(#109));
#54=EDGE_LOOP('',(#110));
#55=EDGE_LOOP('',(#111));
#56=EDGE_LOOP('',(#112));
#57=LINE('',#215,#61);
#58=LINE('',#221,#62);
#59=LINE('',#246,#63);
#60=LINE('',#252,#64);
#61=VECTOR('',#160,1.75422030643415);
#62=VECTOR('',#167,17.5);
#63=VECTOR('',#176,1.75422030643415);
#64=VECTOR('',#183,17.5);
#65=ELLIPSE('',#139,1.75422030643415,1.2645);
#66=ELLIPSE('',#140,1.75422030643415,1.2645);
#67=ELLIPSE('',#146,1.75422030643415,1.2645);
#68=ELLIPSE('',#147,1.75422030643415,1.2645);
#69=VERTEX_POINT('',#212);
#70=VERTEX_POINT('',#214);
#71=VERTEX_POINT('',#218);
#72=VERTEX_POINT('',#220);
#73=VERTEX_POINT('',#243);
#74=VERTEX_POINT('',#245);
#75=VERTEX_POINT('',#249);
#76=VERTEX_POINT('',#251);
#77=EDGE_CURVE('',#69,#69,#65,.T.);
#78=EDGE_CURVE('',#69,#70,#57,.T.);
#79=EDGE_CURVE('',#70,#70,#66,.T.);
#80=EDGE_CURVE('',#71,#71,#31,.T.);
#81=EDGE_CURVE('',#71,#72,#58,.T.);
#82=EDGE_CURVE('',#72,#72,#32,.T.);
#83=EDGE_CURVE('',#73,#73,#67,.T.);
#84=EDGE_CURVE('',#73,#74,#59,.T.);
#85=EDGE_CURVE('',#74,#74,#68,.T.);
#86=EDGE_CURVE('',#75,#75,#33,.T.);
#87=EDGE_CURVE('',#75,#76,#60,.T.);
#88=EDGE_CURVE('',#76,#76,#34,.T.);
#89=ORIENTED_EDGE('',*,*,#77,.T.);
#90=ORIENTED_EDGE('',*,*,#78,.T.);
#91=ORIENTED_EDGE('',*,*,#79,.F.);
#92=ORIENTED_EDGE('',*,*,#78,.F.);
#93=ORIENTED_EDGE('',*,*,#80,.T.);
#94=ORIENTED_EDGE('',*,*,#81,.T.);
#95=ORIENTED_EDGE('',*,*,#82,.F.);
#96=ORIENTED_EDGE('',*,*,#81,.F.);
#97=ORIENTED_EDGE('',*,*,#80,.F.);
#98=ORIENTED_EDGE('',*,*,#77,.F.);
#99=ORIENTED_EDGE('',*,*,#82,.T.);
#100=ORIENTED_EDGE('',*,*,#79,.T.);
#101=ORIENTED_EDGE('',*,*,#83,.F.);
#102=ORIENTED_EDGE('',*,*,#84,.T.);
#103=ORIENTED_EDGE('',*,*,#85,.T.);
#104=ORIENTED_EDGE('',*,*,#84,.F.);
#105=ORIENTED_EDGE('',*,*,#86,.F.);
#106=ORIENTED_EDGE('',*,*,#87,.T.);
#107=ORIENTED_EDGE('',*,*,#88,.T.);
#108=ORIENTED_EDGE('',*,*,#87,.F.);
#109=ORIENTED_EDGE('',*,*,#86,.T.);
#110=ORIENTED_EDGE('',*,*,#83,.T.);
#111=ORIENTED_EDGE('',*,*,#88,.F.);
#112=ORIENTED_EDGE('',*,*,#85,.F.);
#113=(
BOUNDED_SURFACE()
B_SPLINE_SURFACE(1,2,((#194,#195,#196,#197,#198,#199,#200,#201,#202),(#203,
#204,#205,#206,#207,#208,#209,#210,#211)),.UNSPECIFIED.,.F.,.T.,.F.)
B_SPLINE_SURFACE_WITH_KNOTS((2,2),(3,2,2,2,3),(1.37561655429059E-15,2.85026913761115),
(-3.14159265358979,-1.5707963267949,0.,1.5707963267949,3.14159265358979),
 .UNSPECIFIED.)
GEOMETRIC_REPRESENTATION_ITEM()
RATIONAL_B_SPLINE_SURFACE(((1.,0.707106781186548,1.,0.707106781186548,1.,
0.707106781186548,1.,0.707106781186548,1.),(1.,0.707106781186548,1.,0.707106781186548,
1.,0.707106781186548,1.,0.707106781186548,1.)))
REPRESENTATION_ITEM('')
SURFACE()
);
#114=(
BOUNDED_SURFACE()
B_SPLINE_SURFACE(1,2,((#225,#226,#227,#228,#229,#230,#231,#232,#233),(#234,
#235,#236,#237,#238,#239,#240,#241,#242)),.UNSPECIFIED.,.F.,.T.,.F.)
B_SPLINE_SURFACE_WITH_KNOTS((2,2),(3,2,2,2,3),(-1.04102790706892E-15,2.85026913761114),
(-3.14159265358979,-1.5707963267949,0.,1.5707963267949,3.14159265358979),
 .UNSPECIFIED.)
GEOMETRIC_REPRESENTATION_ITEM()
RATIONAL_B_SPLINE_SURFACE(((1.,0.707106781186548,1.,0.707106781186548,1.,
0.707106781186548,1.,0.707106781186548,1.),(1.,0.707106781186548,1.,0.707106781186548,
1.,0.707106781186548,1.,0.707106781186548,1.)))
REPRESENTATION_ITEM('')
SURFACE()
);
#115=ADVANCED_FACE('',(#37),#113,.F.);
#116=ADVANCED_FACE('',(#38),#35,.T.);
#117=ADVANCED_FACE('',(#39,#23),#27,.F.);
#118=ADVANCED_FACE('',(#40,#24),#28,.T.);
#119=ADVANCED_FACE('',(#41),#114,.T.);
#120=ADVANCED_FACE('',(#42),#36,.T.);
#121=ADVANCED_FACE('',(#43,#25),#29,.T.);
#122=ADVANCED_FACE('',(#44,#26),#30,.F.);
#123=CLOSED_SHELL('',(#115,#116,#117,#118));
#124=CLOSED_SHELL('',(#119,#120,#121,#122));
#125=DERIVED_UNIT_ELEMENT(#127,1.);
#126=DERIVED_UNIT_ELEMENT(#264,-3.);
#127=(
MASS_UNIT()
NAMED_UNIT(*)
SI_UNIT(.KILO.,.GRAM.)
);
#128=DERIVED_UNIT((#125,#126));
#129=MEASURE_REPRESENTATION_ITEM('density measure',
POSITIVE_RATIO_MEASURE(7850.),#128);
#130=PROPERTY_DEFINITION_REPRESENTATION(#135,#132);
#131=PROPERTY_DEFINITION_REPRESENTATION(#136,#133);
#132=REPRESENTATION('material name',(#134),#261);
#133=REPRESENTATION('density',(#129),#261);
#134=DESCRIPTIVE_REPRESENTATION_ITEM('A\X\E7o','A\X\E7o');
#135=PROPERTY_DEFINITION('material property','material name',#276);
#136=PROPERTY_DEFINITION('material property','density of part',#276);
#137=AXIS2_PLACEMENT_3D('',#192,#154,#155);
#138=AXIS2_PLACEMENT_3D('',#193,#156,#157);
#139=AXIS2_PLACEMENT_3D('',#213,#158,#159);
#140=AXIS2_PLACEMENT_3D('',#216,#161,#162);
#141=AXIS2_PLACEMENT_3D('',#217,#163,#164);
#142=AXIS2_PLACEMENT_3D('',#219,#165,#166);
#143=AXIS2_PLACEMENT_3D('',#222,#168,#169);
#144=AXIS2_PLACEMENT_3D('',#223,#170,#171);
#145=AXIS2_PLACEMENT_3D('',#224,#172,#173);
#146=AXIS2_PLACEMENT_3D('',#244,#174,#175);
#147=AXIS2_PLACEMENT_3D('',#247,#177,#178);
#148=AXIS2_PLACEMENT_3D('',#248,#179,#180);
#149=AXIS2_PLACEMENT_3D('',#250,#181,#182);
#150=AXIS2_PLACEMENT_3D('',#253,#184,#185);
#151=AXIS2_PLACEMENT_3D('',#254,#186,#187);
#152=AXIS2_PLACEMENT_3D('',#255,#188,#189);
#153=AXIS2_PLACEMENT_3D('',#256,#190,#191);
#154=DIRECTION('axis',(0.,0.,1.));
#155=DIRECTION('refdir',(1.,0.,0.));
#156=DIRECTION('axis',(0.,0.,1.));
#157=DIRECTION('refdir',(1.,0.,0.));
#158=DIRECTION('center_axis',(-0.179389736092513,-0.66949160945366,0.720833064901858));
#159=DIRECTION('ref_axis',(-0.18656532553623,-0.696271273831807,-0.693108716251782));
#160=DIRECTION('',(0.179389736092513,0.66949160945366,-0.720833064901858));
#161=DIRECTION('center_axis',(-0.179389736092513,-0.66949160945366,0.720833064901858));
#162=DIRECTION('ref_axis',(-0.18656532553623,-0.696271273831807,-0.693108716251782));
#163=DIRECTION('center_axis',(0.179389736092513,0.66949160945366,-0.720833064901859));
#164=DIRECTION('ref_axis',(-0.965925826289068,0.258819045102521,1.08840511588123E-14));
#165=DIRECTION('center_axis',(0.179389736092513,0.66949160945366,-0.720833064901858));
#166=DIRECTION('ref_axis',(-0.965925826289068,0.258819045102521,1.09366011983155E-14));
#167=DIRECTION('',(0.179389736092513,0.66949160945366,-0.720833064901859));
#168=DIRECTION('center_axis',(0.179389736092513,0.66949160945366,-0.720833064901858));
#169=DIRECTION('ref_axis',(-0.965925826289068,0.258819045102521,1.09606382318953E-14));
#170=DIRECTION('center_axis',(0.179389736092513,0.66949160945366,-0.720833064901858));
#171=DIRECTION('ref_axis',(-0.965925826289068,0.258819045102521,1.09366011983155E-14));
#172=DIRECTION('center_axis',(0.179389736092513,0.66949160945366,-0.720833064901858));
#173=DIRECTION('ref_axis',(-0.965925826289068,0.258819045102521,1.09606382318953E-14));
#174=DIRECTION('center_axis',(0.179389736092521,0.66949160945366,0.720833064901856));
#175=DIRECTION('ref_axis',(-0.186565325536221,-0.696271273831807,0.693108716251784));
#176=DIRECTION('',(0.179389736092521,0.66949160945366,0.720833064901857));
#177=DIRECTION('center_axis',(0.179389736092521,0.66949160945366,0.720833064901856));
#178=DIRECTION('ref_axis',(-0.186565325536221,-0.696271273831807,0.693108716251784));
#179=DIRECTION('center_axis',(-0.179389736092521,-0.66949160945366,-0.720833064901857));
#180=DIRECTION('ref_axis',(-0.965925826289068,0.258819045102521,8.85189114677117E-16));
#181=DIRECTION('center_axis',(-0.179389736092521,-0.66949160945366,-0.720833064901856));
#182=DIRECTION('ref_axis',(-0.965925826289068,0.258819045102521,8.32639075173966E-16));
#183=DIRECTION('',(0.179389736092521,0.66949160945366,0.720833064901857));
#184=DIRECTION('center_axis',(-0.179389736092521,-0.66949160945366,-0.720833064901856));
#185=DIRECTION('ref_axis',(-0.965925826289068,0.258819045102521,8.08602041594171E-16));
#186=DIRECTION('center_axis',(-0.179389736092521,-0.66949160945366,-0.720833064901856));
#187=DIRECTION('ref_axis',(-0.965925826289068,0.258819045102521,8.32639075173965E-16));
#188=DIRECTION('center_axis',(-0.179389736092521,-0.66949160945366,-0.720833064901856));
#189=DIRECTION('ref_axis',(-0.965925826289068,0.258819045102521,8.08602041594171E-16));
#190=DIRECTION('',(0.,0.,1.));
#191=DIRECTION('',(1.,0.,0.));
#192=CARTESIAN_POINT('',(0.,0.,0.));
#193=CARTESIAN_POINT('',(0.,0.,0.));
#194=CARTESIAN_POINT('Ctrl Pts',(-36.0095180265719,25.9301635910374,89.4901264798809));
#195=CARTESIAN_POINT('Ctrl Pts',(-34.7881048192294,25.6028869085052,89.4901264798809));
#196=CARTESIAN_POINT('Ctrl Pts',(-35.1153815017615,24.3814737011627,88.2742610952655));
#197=CARTESIAN_POINT('Ctrl Pts',(-35.4426581842937,23.1600604938202,87.0583957106501));
#198=CARTESIAN_POINT('Ctrl Pts',(-36.6640713916362,23.4873371763523,87.0583957106501));
#199=CARTESIAN_POINT('Ctrl Pts',(-37.8854845989787,23.8146138588845,87.0583957106501));
#200=CARTESIAN_POINT('Ctrl Pts',(-37.5582079164466,25.036027066227,88.2742610952655));
#201=CARTESIAN_POINT('Ctrl Pts',(-37.2309312339144,26.2574402735695,89.4901264798809));
#202=CARTESIAN_POINT('Ctrl Pts',(-36.0095180265719,25.9301635910374,89.4901264798809));
#203=CARTESIAN_POINT('Ctrl Pts',(-36.9064667070345,22.5827055437691,93.0942918043902));
#204=CARTESIAN_POINT('Ctrl Pts',(-35.6850534996919,22.2554288612369,93.0942918043902));
#205=CARTESIAN_POINT('Ctrl Pts',(-36.0123301822241,21.0340156538944,91.8784264197748));
#206=CARTESIAN_POINT('Ctrl Pts',(-36.3396068647562,19.8126024465518,90.6625610351594));
#207=CARTESIAN_POINT('Ctrl Pts',(-37.5610200720988,20.139879129084,90.6625610351594));
#208=CARTESIAN_POINT('Ctrl Pts',(-38.7824332794413,20.4671558116161,90.6625610351594));
#209=CARTESIAN_POINT('Ctrl Pts',(-38.4551565969092,21.6885690189587,91.8784264197748));
#210=CARTESIAN_POINT('Ctrl Pts',(-38.127879914377,22.9099822263012,93.0942918043902));
#211=CARTESIAN_POINT('Ctrl Pts',(-36.9064667070345,22.5827055437691,93.0942918043902));
#212=CARTESIAN_POINT('',(-36.9064667070345,22.5827055437691,93.0942918043902));
#213=CARTESIAN_POINT('Origin',(-37.2337433895666,21.3612923364265,91.8784264197748));
#214=CARTESIAN_POINT('',(-36.0095180265719,25.9301635910374,89.4901264798809));
#215=CARTESIAN_POINT('',(-36.0095180265719,25.9301635910374,89.4901264798809));
#216=CARTESIAN_POINT('Origin',(-36.336794709104,24.7087503836948,88.2742610952655));
#217=CARTESIAN_POINT('Origin',(-36.336794709104,24.7087503836948,88.2742610952655));
#218=CARTESIAN_POINT('',(-20.3300414295079,16.8319590471324,91.8784264197746));
#219=CARTESIAN_POINT('Origin',(-37.2337433895666,21.3612923364265,91.8784264197748));
#220=CARTESIAN_POINT('',(-19.4330927490454,20.1794170944007,88.2742610952653));
#221=CARTESIAN_POINT('',(-19.4330927490454,20.1794170944007,88.2742610952653));
#222=CARTESIAN_POINT('Origin',(-36.336794709104,24.7087503836948,88.2742610952655));
#223=CARTESIAN_POINT('Origin',(-37.2337433895666,21.3612923364265,91.8784264197748));
#224=CARTESIAN_POINT('Origin',(-36.336794709104,24.7087503836948,88.2742610952655));
#225=CARTESIAN_POINT('Ctrl Pts',(-36.0095180265721,25.9301635910375,61.5067909044125));
#226=CARTESIAN_POINT('Ctrl Pts',(-34.7881048192296,25.6028869085053,61.5067909044125));
#227=CARTESIAN_POINT('Ctrl Pts',(-35.1153815017617,24.3814737011628,62.7226562890279));
#228=CARTESIAN_POINT('Ctrl Pts',(-35.4426581842938,23.1600604938203,63.9385216736433));
#229=CARTESIAN_POINT('Ctrl Pts',(-36.6640713916364,23.4873371763524,63.9385216736433));
#230=CARTESIAN_POINT('Ctrl Pts',(-37.8854845989789,23.8146138588845,63.9385216736433));
#231=CARTESIAN_POINT('Ctrl Pts',(-37.5582079164468,25.0360270662271,62.7226562890279));
#232=CARTESIAN_POINT('Ctrl Pts',(-37.2309312339146,26.2574402735696,61.5067909044125));
#233=CARTESIAN_POINT('Ctrl Pts',(-36.0095180265721,25.9301635910375,61.5067909044125));
#234=CARTESIAN_POINT('Ctrl Pts',(-36.9064667070347,22.5827055437691,57.9026255799032));
#235=CARTESIAN_POINT('Ctrl Pts',(-35.6850534996922,22.255428861237,57.9026255799032));
#236=CARTESIAN_POINT('Ctrl Pts',(-36.0123301822243,21.0340156538945,59.1184909645186));
#237=CARTESIAN_POINT('Ctrl Pts',(-36.3396068647564,19.8126024465519,60.334356349134));
#238=CARTESIAN_POINT('Ctrl Pts',(-37.561020072099,20.1398791290841,60.334356349134));
#239=CARTESIAN_POINT('Ctrl Pts',(-38.7824332794415,20.4671558116162,60.334356349134));
#240=CARTESIAN_POINT('Ctrl Pts',(-38.4551565969094,21.6885690189587,59.1184909645186));
#241=CARTESIAN_POINT('Ctrl Pts',(-38.1278799143772,22.9099822263013,57.9026255799032));
#242=CARTESIAN_POINT('Ctrl Pts',(-36.9064667070347,22.5827055437691,57.9026255799032));
#243=CARTESIAN_POINT('',(-36.9064667070347,22.5827055437691,57.9026255799032));
#244=CARTESIAN_POINT('Origin',(-37.2337433895668,21.3612923364266,59.1184909645186));
#245=CARTESIAN_POINT('',(-36.0095180265721,25.9301635910374,61.5067909044125));
#246=CARTESIAN_POINT('',(-36.0095180265721,25.9301635910375,61.5067909044125));
#247=CARTESIAN_POINT('Origin',(-36.3367947091042,24.7087503836949,62.7226562890279));
#248=CARTESIAN_POINT('Origin',(-36.3367947091042,24.7087503836949,62.7226562890279));
#249=CARTESIAN_POINT('',(-20.3300414295081,16.8319590471325,59.1184909645186));
#250=CARTESIAN_POINT('Origin',(-37.2337433895668,21.3612923364266,59.1184909645186));
#251=CARTESIAN_POINT('',(-19.4330927490455,20.1794170944008,62.7226562890279));
#252=CARTESIAN_POINT('',(-19.4330927490455,20.1794170944008,62.7226562890279));
#253=CARTESIAN_POINT('Origin',(-36.3367947091042,24.7087503836949,62.7226562890279));
#254=CARTESIAN_POINT('Origin',(-37.2337433895668,21.3612923364266,59.1184909645186));
#255=CARTESIAN_POINT('Origin',(-36.3367947091042,24.7087503836949,62.7226562890279));
#256=CARTESIAN_POINT('',(0.,0.,0.));
#257=UNCERTAINTY_MEASURE_WITH_UNIT(LENGTH_MEASURE(0.01),#263,
'DISTANCE_ACCURACY_VALUE',
'Maximum model space distance between geometric entities at asserted c
onnectivities');
#258=UNCERTAINTY_MEASURE_WITH_UNIT(LENGTH_MEASURE(0.01),#263,
'DISTANCE_ACCURACY_VALUE',
'Maximum model space distance between geometric entities at asserted c
onnectivities');
#259=UNCERTAINTY_MEASURE_WITH_UNIT(LENGTH_MEASURE(0.01),#263,
'DISTANCE_ACCURACY_VALUE',
'Maximum model space distance between geometric entities at asserted c
onnectivities');
#260=(
GEOMETRIC_REPRESENTATION_CONTEXT(3)
GLOBAL_UNCERTAINTY_ASSIGNED_CONTEXT((#257))
GLOBAL_UNIT_ASSIGNED_CONTEXT((#263,#265,#266))
REPRESENTATION_CONTEXT('','3D')
);
#261=(
GEOMETRIC_REPRESENTATION_CONTEXT(3)
GLOBAL_UNCERTAINTY_ASSIGNED_CONTEXT((#258))
GLOBAL_UNIT_ASSIGNED_CONTEXT((#263,#265,#266))
REPRESENTATION_CONTEXT('','3D')
);
#262=(
GEOMETRIC_REPRESENTATION_CONTEXT(3)
GLOBAL_UNCERTAINTY_ASSIGNED_CONTEXT((#259))
GLOBAL_UNIT_ASSIGNED_CONTEXT((#263,#265,#266))
REPRESENTATION_CONTEXT('','3D')
);
#263=(
LENGTH_UNIT()
NAMED_UNIT(*)
SI_UNIT(.MILLI.,.METRE.)
);
#264=(
LENGTH_UNIT()
NAMED_UNIT(*)
SI_UNIT($,.METRE.)
);
#265=(
NAMED_UNIT(*)
PLANE_ANGLE_UNIT()
SI_UNIT($,.RADIAN.)
);
#266=(
NAMED_UNIT(*)
SI_UNIT($,.STERADIAN.)
SOLID_ANGLE_UNIT()
);
#267=SHAPE_DEFINITION_REPRESENTATION(#269,#272);
#268=SHAPE_DEFINITION_REPRESENTATION(#270,#273);
#269=PRODUCT_DEFINITION_SHAPE('',$,#275);
#270=PRODUCT_DEFINITION_SHAPE('',$,#276);
#271=PRODUCT_DEFINITION_SHAPE($,$,#14);
#272=SHAPE_REPRESENTATION('',(#137,#153),#260);
#273=SHAPE_REPRESENTATION('',(#138),#261);
#274=PRODUCT_DEFINITION_CONTEXT('part definition',#282,'design');
#275=PRODUCT_DEFINITION('2026-06-22-01-03-40-148','Discos',#277,#274);
#276=PRODUCT_DEFINITION('2026-06-22-01-03-40-148_1','Disco',#278,#274);
#277=PRODUCT_DEFINITION_FORMATION('',$,#284);
#278=PRODUCT_DEFINITION_FORMATION('',$,#285);
#279=PRODUCT_RELATED_PRODUCT_CATEGORY('Discos','Discos',(#284));
#280=PRODUCT_RELATED_PRODUCT_CATEGORY('Disco','Disco',(#285));
#281=APPLICATION_PROTOCOL_DEFINITION('international standard',
'automotive_design',2009,#282);
#282=APPLICATION_CONTEXT(
'Core Data for Automotive Mechanical Design Process');
#283=PRODUCT_CONTEXT('part definition',#282,'mechanical');
#284=PRODUCT('2026-06-22-01-03-40-148','Discos',$,(#283));
#285=PRODUCT('2026-06-22-01-03-40-148_1','Disco',$,(#283));
#286=PRESENTATION_STYLE_ASSIGNMENT((#287));
#287=SURFACE_STYLE_USAGE(.BOTH.,#288);
#288=SURFACE_SIDE_STYLE('',(#289));
#289=SURFACE_STYLE_FILL_AREA(#290);
#290=FILL_AREA_STYLE('A\X\E7o - Acetinado',(#291));
#291=FILL_AREA_STYLE_COLOUR('A\X\E7o - Acetinado',#292);
#292=COLOUR_RGB('A\X\E7o - Acetinado',0.627450980392157,0.627450980392157,
0.627450980392157);
ENDSEC;
END-ISO-10303-21;
