ISO-10303-21;
HEADER;
/* Generated by software containing ST-Developer
 * from STEP Tools, Inc. (www.steptools.com) 
 */

FILE_DESCRIPTION(
/* description */ (''),
/* implementation_level */ '2;1');

FILE_NAME(
/* name */ 'Eixo_RoleteCarga.step',
/* time_stamp */ '2026-05-29T16:21:54-03:00',
/* author */ (''),
/* organization */ (''),
/* preprocessor_version */ 'ST-DEVELOPER v20.1',
/* originating_system */ 'Autodesk Translation Framework v15.8.0.0',
/* authorisation */ '');

FILE_SCHEMA (('AUTOMOTIVE_DESIGN { 1 0 10303 214 3 1 1 }'));
ENDSEC;

DATA;
#10=MECHANICAL_DESIGN_GEOMETRIC_PRESENTATION_REPRESENTATION('',(#25,#26,
#27,#28,#29,#30,#31,#32,#33,#34,#35,#36,#37,#38,#39,#40,#41,#42,#43,#44),
#1545);
#11=ITEM_DEFINED_TRANSFORMATION($,$,#879,#1011);
#12=ITEM_DEFINED_TRANSFORMATION($,$,#888,#1012);
#13=(
REPRESENTATION_RELATIONSHIP($,$,#1559,#1558)
REPRESENTATION_RELATIONSHIP_WITH_TRANSFORMATION(#11)
SHAPE_REPRESENTATION_RELATIONSHIP()
);
#14=(
REPRESENTATION_RELATIONSHIP($,$,#1560,#1558)
REPRESENTATION_RELATIONSHIP_WITH_TRANSFORMATION(#12)
SHAPE_REPRESENTATION_RELATIONSHIP()
);
#15=CONTEXT_DEPENDENT_SHAPE_REPRESENTATION(#13,#1556);
#16=CONTEXT_DEPENDENT_SHAPE_REPRESENTATION(#14,#1557);
#17=NEXT_ASSEMBLY_USAGE_OCCURRENCE('Rolete (1)(Espelhar):1',
'Rolete (1)(Espelhar):1','Rolete (1)(Espelhar):1',#1562,#1563,
'Rolete (1)(Espelhar):1');
#18=NEXT_ASSEMBLY_USAGE_OCCURRENCE('Rolete (1):1','Rolete (1):1',
'Rolete (1):1',#1562,#1564,'Rolete (1):1');
#19=SHAPE_REPRESENTATION_RELATIONSHIP('SRR','None',#1559,#22);
#20=SHAPE_REPRESENTATION_RELATIONSHIP('SRR','None',#1560,#23);
#21=SHAPE_REPRESENTATION_RELATIONSHIP('SRR','None',#1558,#24);
#22=ADVANCED_BREP_SHAPE_REPRESENTATION('',(#45),#1543);
#23=ADVANCED_BREP_SHAPE_REPRESENTATION('',(#46),#1544);
#24=ADVANCED_BREP_SHAPE_REPRESENTATION('',(#47,#48,#49,#50,#51,#52,#53,
#54,#55,#56,#57,#58,#59,#60,#61,#62,#63,#64),#1542);
#25=STYLED_ITEM('',(#1577),#45);
#26=STYLED_ITEM('',(#1577),#46);
#27=STYLED_ITEM('',(#1577),#47);
#28=STYLED_ITEM('',(#1577),#48);
#29=STYLED_ITEM('',(#1577),#49);
#30=STYLED_ITEM('',(#1577),#50);
#31=STYLED_ITEM('',(#1577),#51);
#32=STYLED_ITEM('',(#1577),#52);
#33=STYLED_ITEM('',(#1577),#53);
#34=STYLED_ITEM('',(#1577),#54);
#35=STYLED_ITEM('',(#1577),#55);
#36=STYLED_ITEM('',(#1577),#56);
#37=STYLED_ITEM('',(#1577),#57);
#38=STYLED_ITEM('',(#1577),#58);
#39=STYLED_ITEM('',(#1577),#59);
#40=STYLED_ITEM('',(#1577),#60);
#41=STYLED_ITEM('',(#1577),#61);
#42=STYLED_ITEM('',(#1577),#62);
#43=STYLED_ITEM('',(#1577),#63);
#44=STYLED_ITEM('',(#1577),#64);
#45=MANIFOLD_SOLID_BREP('Corpo1',#835);
#46=MANIFOLD_SOLID_BREP('Corpo1',#836);
#47=MANIFOLD_SOLID_BREP('Corpo1',#837);
#48=MANIFOLD_SOLID_BREP('Corpo2',#838);
#49=MANIFOLD_SOLID_BREP('Corpo3',#839);
#50=MANIFOLD_SOLID_BREP('Corpo4',#840);
#51=MANIFOLD_SOLID_BREP('Corpo5',#841);
#52=MANIFOLD_SOLID_BREP('Corpo6',#842);
#53=MANIFOLD_SOLID_BREP('Corpo7',#843);
#54=MANIFOLD_SOLID_BREP('Corpo8',#844);
#55=MANIFOLD_SOLID_BREP('Corpo9',#845);
#56=MANIFOLD_SOLID_BREP('Corpo10',#846);
#57=MANIFOLD_SOLID_BREP('Corpo11',#847);
#58=MANIFOLD_SOLID_BREP('Corpo12',#848);
#59=MANIFOLD_SOLID_BREP('Corpo13',#849);
#60=MANIFOLD_SOLID_BREP('Corpo14',#850);
#61=MANIFOLD_SOLID_BREP('Corpo15',#851);
#62=MANIFOLD_SOLID_BREP('Corpo16',#852);
#63=MANIFOLD_SOLID_BREP('Corpo17',#853);
#64=MANIFOLD_SOLID_BREP('Corpo18',#854);
#65=FACE_BOUND('',#198,.T.);
#66=FACE_BOUND('',#200,.T.);
#67=FACE_BOUND('',#204,.T.);
#68=FACE_BOUND('',#206,.T.);
#69=FACE_BOUND('',#222,.T.);
#70=FACE_BOUND('',#224,.T.);
#71=FACE_BOUND('',#228,.T.);
#72=FACE_BOUND('',#230,.T.);
#73=FACE_BOUND('',#234,.T.);
#74=FACE_BOUND('',#236,.T.);
#75=FACE_BOUND('',#240,.T.);
#76=FACE_BOUND('',#242,.T.);
#77=FACE_BOUND('',#249,.T.);
#78=FACE_BOUND('',#251,.T.);
#79=FACE_BOUND('',#255,.T.);
#80=FACE_BOUND('',#257,.T.);
#81=FACE_BOUND('',#261,.T.);
#82=FACE_BOUND('',#263,.T.);
#83=FACE_BOUND('',#267,.T.);
#84=FACE_BOUND('',#269,.T.);
#85=PLANE('',#886);
#86=PLANE('',#887);
#87=PLANE('',#895);
#88=PLANE('',#896);
#89=PLANE('',#897);
#90=PLANE('',#899);
#91=PLANE('',#902);
#92=PLANE('',#904);
#93=PLANE('',#907);
#94=PLANE('',#909);
#95=PLANE('',#912);
#96=PLANE('',#914);
#97=PLANE('',#923);
#98=PLANE('',#924);
#99=PLANE('',#931);
#100=PLANE('',#932);
#101=PLANE('',#939);
#102=PLANE('',#940);
#103=PLANE('',#947);
#104=PLANE('',#948);
#105=PLANE('',#949);
#106=PLANE('',#951);
#107=PLANE('',#960);
#108=PLANE('',#961);
#109=PLANE('',#968);
#110=PLANE('',#969);
#111=PLANE('',#976);
#112=PLANE('',#977);
#113=PLANE('',#984);
#114=PLANE('',#985);
#115=PLANE('',#986);
#116=PLANE('',#988);
#117=PLANE('',#991);
#118=PLANE('',#993);
#119=PLANE('',#996);
#120=PLANE('',#998);
#121=PLANE('',#1001);
#122=PLANE('',#1003);
#123=PLANE('',#1006);
#124=PLANE('',#1008);
#125=FACE_OUTER_BOUND('',#195,.T.);
#126=FACE_OUTER_BOUND('',#196,.T.);
#127=FACE_OUTER_BOUND('',#197,.T.);
#128=FACE_OUTER_BOUND('',#199,.T.);
#129=FACE_OUTER_BOUND('',#201,.T.);
#130=FACE_OUTER_BOUND('',#202,.T.);
#131=FACE_OUTER_BOUND('',#203,.T.);
#132=FACE_OUTER_BOUND('',#205,.T.);
#133=FACE_OUTER_BOUND('',#207,.T.);
#134=FACE_OUTER_BOUND('',#208,.T.);
#135=FACE_OUTER_BOUND('',#209,.T.);
#136=FACE_OUTER_BOUND('',#210,.T.);
#137=FACE_OUTER_BOUND('',#211,.T.);
#138=FACE_OUTER_BOUND('',#212,.T.);
#139=FACE_OUTER_BOUND('',#213,.T.);
#140=FACE_OUTER_BOUND('',#214,.T.);
#141=FACE_OUTER_BOUND('',#215,.T.);
#142=FACE_OUTER_BOUND('',#216,.T.);
#143=FACE_OUTER_BOUND('',#217,.T.);
#144=FACE_OUTER_BOUND('',#218,.T.);
#145=FACE_OUTER_BOUND('',#219,.T.);
#146=FACE_OUTER_BOUND('',#220,.T.);
#147=FACE_OUTER_BOUND('',#221,.T.);
#148=FACE_OUTER_BOUND('',#223,.T.);
#149=FACE_OUTER_BOUND('',#225,.T.);
#150=FACE_OUTER_BOUND('',#226,.T.);
#151=FACE_OUTER_BOUND('',#227,.T.);
#152=FACE_OUTER_BOUND('',#229,.T.);
#153=FACE_OUTER_BOUND('',#231,.T.);
#154=FACE_OUTER_BOUND('',#232,.T.);
#155=FACE_OUTER_BOUND('',#233,.T.);
#156=FACE_OUTER_BOUND('',#235,.T.);
#157=FACE_OUTER_BOUND('',#237,.T.);
#158=FACE_OUTER_BOUND('',#238,.T.);
#159=FACE_OUTER_BOUND('',#239,.T.);
#160=FACE_OUTER_BOUND('',#241,.T.);
#161=FACE_OUTER_BOUND('',#243,.T.);
#162=FACE_OUTER_BOUND('',#244,.T.);
#163=FACE_OUTER_BOUND('',#245,.T.);
#164=FACE_OUTER_BOUND('',#246,.T.);
#165=FACE_OUTER_BOUND('',#247,.T.);
#166=FACE_OUTER_BOUND('',#248,.T.);
#167=FACE_OUTER_BOUND('',#250,.T.);
#168=FACE_OUTER_BOUND('',#252,.T.);
#169=FACE_OUTER_BOUND('',#253,.T.);
#170=FACE_OUTER_BOUND('',#254,.T.);
#171=FACE_OUTER_BOUND('',#256,.T.);
#172=FACE_OUTER_BOUND('',#258,.T.);
#173=FACE_OUTER_BOUND('',#259,.T.);
#174=FACE_OUTER_BOUND('',#260,.T.);
#175=FACE_OUTER_BOUND('',#262,.T.);
#176=FACE_OUTER_BOUND('',#264,.T.);
#177=FACE_OUTER_BOUND('',#265,.T.);
#178=FACE_OUTER_BOUND('',#266,.T.);
#179=FACE_OUTER_BOUND('',#268,.T.);
#180=FACE_OUTER_BOUND('',#270,.T.);
#181=FACE_OUTER_BOUND('',#271,.T.);
#182=FACE_OUTER_BOUND('',#272,.T.);
#183=FACE_OUTER_BOUND('',#273,.T.);
#184=FACE_OUTER_BOUND('',#274,.T.);
#185=FACE_OUTER_BOUND('',#275,.T.);
#186=FACE_OUTER_BOUND('',#276,.T.);
#187=FACE_OUTER_BOUND('',#277,.T.);
#188=FACE_OUTER_BOUND('',#278,.T.);
#189=FACE_OUTER_BOUND('',#279,.T.);
#190=FACE_OUTER_BOUND('',#280,.T.);
#191=FACE_OUTER_BOUND('',#281,.T.);
#192=FACE_OUTER_BOUND('',#282,.T.);
#193=FACE_OUTER_BOUND('',#283,.T.);
#194=FACE_OUTER_BOUND('',#284,.T.);
#195=EDGE_LOOP('',(#555,#556,#557,#558));
#196=EDGE_LOOP('',(#559,#560,#561,#562));
#197=EDGE_LOOP('',(#563));
#198=EDGE_LOOP('',(#564));
#199=EDGE_LOOP('',(#565));
#200=EDGE_LOOP('',(#566));
#201=EDGE_LOOP('',(#567,#568,#569,#570));
#202=EDGE_LOOP('',(#571,#572,#573,#574));
#203=EDGE_LOOP('',(#575));
#204=EDGE_LOOP('',(#576));
#205=EDGE_LOOP('',(#577));
#206=EDGE_LOOP('',(#578));
#207=EDGE_LOOP('',(#579));
#208=EDGE_LOOP('',(#580));
#209=EDGE_LOOP('',(#581,#582,#583,#584));
#210=EDGE_LOOP('',(#585));
#211=EDGE_LOOP('',(#586));
#212=EDGE_LOOP('',(#587,#588,#589,#590));
#213=EDGE_LOOP('',(#591));
#214=EDGE_LOOP('',(#592));
#215=EDGE_LOOP('',(#593,#594,#595,#596));
#216=EDGE_LOOP('',(#597));
#217=EDGE_LOOP('',(#598));
#218=EDGE_LOOP('',(#599,#600,#601,#602));
#219=EDGE_LOOP('',(#603,#604,#605,#606));
#220=EDGE_LOOP('',(#607,#608,#609,#610));
#221=EDGE_LOOP('',(#611));
#222=EDGE_LOOP('',(#612));
#223=EDGE_LOOP('',(#613));
#224=EDGE_LOOP('',(#614));
#225=EDGE_LOOP('',(#615,#616,#617,#618));
#226=EDGE_LOOP('',(#619,#620,#621,#622));
#227=EDGE_LOOP('',(#623));
#228=EDGE_LOOP('',(#624));
#229=EDGE_LOOP('',(#625));
#230=EDGE_LOOP('',(#626));
#231=EDGE_LOOP('',(#627,#628,#629,#630));
#232=EDGE_LOOP('',(#631,#632,#633,#634));
#233=EDGE_LOOP('',(#635));
#234=EDGE_LOOP('',(#636));
#235=EDGE_LOOP('',(#637));
#236=EDGE_LOOP('',(#638));
#237=EDGE_LOOP('',(#639,#640,#641,#642));
#238=EDGE_LOOP('',(#643,#644,#645,#646));
#239=EDGE_LOOP('',(#647));
#240=EDGE_LOOP('',(#648));
#241=EDGE_LOOP('',(#649));
#242=EDGE_LOOP('',(#650));
#243=EDGE_LOOP('',(#651));
#244=EDGE_LOOP('',(#652));
#245=EDGE_LOOP('',(#653,#654,#655,#656));
#246=EDGE_LOOP('',(#657,#658,#659,#660));
#247=EDGE_LOOP('',(#661,#662,#663,#664));
#248=EDGE_LOOP('',(#665));
#249=EDGE_LOOP('',(#666));
#250=EDGE_LOOP('',(#667));
#251=EDGE_LOOP('',(#668));
#252=EDGE_LOOP('',(#669,#670,#671,#672));
#253=EDGE_LOOP('',(#673,#674,#675,#676));
#254=EDGE_LOOP('',(#677));
#255=EDGE_LOOP('',(#678));
#256=EDGE_LOOP('',(#679));
#257=EDGE_LOOP('',(#680));
#258=EDGE_LOOP('',(#681,#682,#683,#684));
#259=EDGE_LOOP('',(#685,#686,#687,#688));
#260=EDGE_LOOP('',(#689));
#261=EDGE_LOOP('',(#690));
#262=EDGE_LOOP('',(#691));
#263=EDGE_LOOP('',(#692));
#264=EDGE_LOOP('',(#693,#694,#695,#696));
#265=EDGE_LOOP('',(#697,#698,#699,#700));
#266=EDGE_LOOP('',(#701));
#267=EDGE_LOOP('',(#702));
#268=EDGE_LOOP('',(#703));
#269=EDGE_LOOP('',(#704));
#270=EDGE_LOOP('',(#705));
#271=EDGE_LOOP('',(#706));
#272=EDGE_LOOP('',(#707,#708,#709,#710));
#273=EDGE_LOOP('',(#711));
#274=EDGE_LOOP('',(#712));
#275=EDGE_LOOP('',(#713,#714,#715,#716));
#276=EDGE_LOOP('',(#717));
#277=EDGE_LOOP('',(#718));
#278=EDGE_LOOP('',(#719,#720,#721,#722));
#279=EDGE_LOOP('',(#723));
#280=EDGE_LOOP('',(#724));
#281=EDGE_LOOP('',(#725,#726,#727,#728));
#282=EDGE_LOOP('',(#729));
#283=EDGE_LOOP('',(#730));
#284=EDGE_LOOP('',(#731,#732,#733,#734));
#285=LINE('',#1319,#315);
#286=LINE('',#1325,#316);
#287=LINE('',#1334,#317);
#288=LINE('',#1340,#318);
#289=LINE('',#1351,#319);
#290=LINE('',#1359,#320);
#291=LINE('',#1367,#321);
#292=LINE('',#1375,#322);
#293=LINE('',#1380,#323);
#294=LINE('',#1386,#324);
#295=LINE('',#1394,#325);
#296=LINE('',#1400,#326);
#297=LINE('',#1408,#327);
#298=LINE('',#1414,#328);
#299=LINE('',#1422,#329);
#300=LINE('',#1428,#330);
#301=LINE('',#1439,#331);
#302=LINE('',#1444,#332);
#303=LINE('',#1450,#333);
#304=LINE('',#1458,#334);
#305=LINE('',#1464,#335);
#306=LINE('',#1472,#336);
#307=LINE('',#1478,#337);
#308=LINE('',#1486,#338);
#309=LINE('',#1492,#339);
#310=LINE('',#1503,#340);
#311=LINE('',#1511,#341);
#312=LINE('',#1519,#342);
#313=LINE('',#1527,#343);
#314=LINE('',#1535,#344);
#315=VECTOR('',#1021,4.);
#316=VECTOR('',#1028,10.9);
#317=VECTOR('',#1041,4.);
#318=VECTOR('',#1048,10.9);
#319=VECTOR('',#1065,4.);
#320=VECTOR('',#1076,4.);
#321=VECTOR('',#1087,4.);
#322=VECTOR('',#1098,4.);
#323=VECTOR('',#1103,4.);
#324=VECTOR('',#1110,10.9);
#325=VECTOR('',#1121,4.);
#326=VECTOR('',#1128,10.9);
#327=VECTOR('',#1139,4.);
#328=VECTOR('',#1146,10.9);
#329=VECTOR('',#1157,4.);
#330=VECTOR('',#1164,10.9);
#331=VECTOR('',#1181,4.);
#332=VECTOR('',#1186,4.);
#333=VECTOR('',#1193,10.9);
#334=VECTOR('',#1204,4.);
#335=VECTOR('',#1211,10.9);
#336=VECTOR('',#1222,4.);
#337=VECTOR('',#1229,10.9);
#338=VECTOR('',#1240,4.);
#339=VECTOR('',#1247,10.9);
#340=VECTOR('',#1264,4.);
#341=VECTOR('',#1275,4.);
#342=VECTOR('',#1286,4.);
#343=VECTOR('',#1297,4.);
#344=VECTOR('',#1308,4.);
#345=CIRCLE('',#881,4.);
#346=CIRCLE('',#882,4.);
#347=CIRCLE('',#884,10.9);
#348=CIRCLE('',#885,10.9);
#349=CIRCLE('',#890,4.);
#350=CIRCLE('',#891,4.);
#351=CIRCLE('',#893,10.9);
#352=CIRCLE('',#894,10.9);
#353=CIRCLE('',#898,4.);
#354=CIRCLE('',#900,4.);
#355=CIRCLE('',#903,4.);
#356=CIRCLE('',#905,4.);
#357=CIRCLE('',#908,4.);
#358=CIRCLE('',#910,4.);
#359=CIRCLE('',#913,4.);
#360=CIRCLE('',#915,4.);
#361=CIRCLE('',#918,4.);
#362=CIRCLE('',#919,4.);
#363=CIRCLE('',#921,10.9);
#364=CIRCLE('',#922,10.9);
#365=CIRCLE('',#926,4.);
#366=CIRCLE('',#927,4.);
#367=CIRCLE('',#929,10.9);
#368=CIRCLE('',#930,10.9);
#369=CIRCLE('',#934,4.);
#370=CIRCLE('',#935,4.);
#371=CIRCLE('',#937,10.9);
#372=CIRCLE('',#938,10.9);
#373=CIRCLE('',#942,4.);
#374=CIRCLE('',#943,4.);
#375=CIRCLE('',#945,10.9);
#376=CIRCLE('',#946,10.9);
#377=CIRCLE('',#950,4.);
#378=CIRCLE('',#952,4.);
#379=CIRCLE('',#955,4.);
#380=CIRCLE('',#956,4.);
#381=CIRCLE('',#958,10.9);
#382=CIRCLE('',#959,10.9);
#383=CIRCLE('',#963,4.);
#384=CIRCLE('',#964,4.);
#385=CIRCLE('',#966,10.9);
#386=CIRCLE('',#967,10.9);
#387=CIRCLE('',#971,4.);
#388=CIRCLE('',#972,4.);
#389=CIRCLE('',#974,10.9);
#390=CIRCLE('',#975,10.9);
#391=CIRCLE('',#979,4.);
#392=CIRCLE('',#980,4.);
#393=CIRCLE('',#982,10.9);
#394=CIRCLE('',#983,10.9);
#395=CIRCLE('',#987,4.);
#396=CIRCLE('',#989,4.);
#397=CIRCLE('',#992,4.);
#398=CIRCLE('',#994,4.);
#399=CIRCLE('',#997,4.);
#400=CIRCLE('',#999,4.);
#401=CIRCLE('',#1002,4.);
#402=CIRCLE('',#1004,4.);
#403=CIRCLE('',#1007,4.);
#404=CIRCLE('',#1009,4.);
#405=VERTEX_POINT('',#1316);
#406=VERTEX_POINT('',#1318);
#407=VERTEX_POINT('',#1322);
#408=VERTEX_POINT('',#1324);
#409=VERTEX_POINT('',#1331);
#410=VERTEX_POINT('',#1333);
#411=VERTEX_POINT('',#1337);
#412=VERTEX_POINT('',#1339);
#413=VERTEX_POINT('',#1345);
#414=VERTEX_POINT('',#1348);
#415=VERTEX_POINT('',#1353);
#416=VERTEX_POINT('',#1356);
#417=VERTEX_POINT('',#1361);
#418=VERTEX_POINT('',#1364);
#419=VERTEX_POINT('',#1369);
#420=VERTEX_POINT('',#1372);
#421=VERTEX_POINT('',#1377);
#422=VERTEX_POINT('',#1379);
#423=VERTEX_POINT('',#1383);
#424=VERTEX_POINT('',#1385);
#425=VERTEX_POINT('',#1391);
#426=VERTEX_POINT('',#1393);
#427=VERTEX_POINT('',#1397);
#428=VERTEX_POINT('',#1399);
#429=VERTEX_POINT('',#1405);
#430=VERTEX_POINT('',#1407);
#431=VERTEX_POINT('',#1411);
#432=VERTEX_POINT('',#1413);
#433=VERTEX_POINT('',#1419);
#434=VERTEX_POINT('',#1421);
#435=VERTEX_POINT('',#1425);
#436=VERTEX_POINT('',#1427);
#437=VERTEX_POINT('',#1433);
#438=VERTEX_POINT('',#1436);
#439=VERTEX_POINT('',#1441);
#440=VERTEX_POINT('',#1443);
#441=VERTEX_POINT('',#1447);
#442=VERTEX_POINT('',#1449);
#443=VERTEX_POINT('',#1455);
#444=VERTEX_POINT('',#1457);
#445=VERTEX_POINT('',#1461);
#446=VERTEX_POINT('',#1463);
#447=VERTEX_POINT('',#1469);
#448=VERTEX_POINT('',#1471);
#449=VERTEX_POINT('',#1475);
#450=VERTEX_POINT('',#1477);
#451=VERTEX_POINT('',#1483);
#452=VERTEX_POINT('',#1485);
#453=VERTEX_POINT('',#1489);
#454=VERTEX_POINT('',#1491);
#455=VERTEX_POINT('',#1497);
#456=VERTEX_POINT('',#1500);
#457=VERTEX_POINT('',#1505);
#458=VERTEX_POINT('',#1508);
#459=VERTEX_POINT('',#1513);
#460=VERTEX_POINT('',#1516);
#461=VERTEX_POINT('',#1521);
#462=VERTEX_POINT('',#1524);
#463=VERTEX_POINT('',#1529);
#464=VERTEX_POINT('',#1532);
#465=EDGE_CURVE('',#405,#405,#345,.T.);
#466=EDGE_CURVE('',#405,#406,#285,.T.);
#467=EDGE_CURVE('',#406,#406,#346,.T.);
#468=EDGE_CURVE('',#407,#407,#347,.T.);
#469=EDGE_CURVE('',#407,#408,#286,.T.);
#470=EDGE_CURVE('',#408,#408,#348,.T.);
#471=EDGE_CURVE('',#409,#409,#349,.T.);
#472=EDGE_CURVE('',#409,#410,#287,.T.);
#473=EDGE_CURVE('',#410,#410,#350,.T.);
#474=EDGE_CURVE('',#411,#411,#351,.T.);
#475=EDGE_CURVE('',#411,#412,#288,.T.);
#476=EDGE_CURVE('',#412,#412,#352,.T.);
#477=EDGE_CURVE('',#413,#413,#353,.T.);
#478=EDGE_CURVE('',#414,#414,#354,.T.);
#479=EDGE_CURVE('',#414,#413,#289,.T.);
#480=EDGE_CURVE('',#415,#415,#355,.T.);
#481=EDGE_CURVE('',#416,#416,#356,.T.);
#482=EDGE_CURVE('',#416,#415,#290,.T.);
#483=EDGE_CURVE('',#417,#417,#357,.T.);
#484=EDGE_CURVE('',#418,#418,#358,.T.);
#485=EDGE_CURVE('',#418,#417,#291,.T.);
#486=EDGE_CURVE('',#419,#419,#359,.T.);
#487=EDGE_CURVE('',#420,#420,#360,.T.);
#488=EDGE_CURVE('',#420,#419,#292,.T.);
#489=EDGE_CURVE('',#421,#421,#361,.T.);
#490=EDGE_CURVE('',#421,#422,#293,.T.);
#491=EDGE_CURVE('',#422,#422,#362,.T.);
#492=EDGE_CURVE('',#423,#423,#363,.T.);
#493=EDGE_CURVE('',#423,#424,#294,.T.);
#494=EDGE_CURVE('',#424,#424,#364,.T.);
#495=EDGE_CURVE('',#425,#425,#365,.T.);
#496=EDGE_CURVE('',#425,#426,#295,.T.);
#497=EDGE_CURVE('',#426,#426,#366,.T.);
#498=EDGE_CURVE('',#427,#427,#367,.T.);
#499=EDGE_CURVE('',#427,#428,#296,.T.);
#500=EDGE_CURVE('',#428,#428,#368,.T.);
#501=EDGE_CURVE('',#429,#429,#369,.T.);
#502=EDGE_CURVE('',#429,#430,#297,.T.);
#503=EDGE_CURVE('',#430,#430,#370,.T.);
#504=EDGE_CURVE('',#431,#431,#371,.T.);
#505=EDGE_CURVE('',#431,#432,#298,.T.);
#506=EDGE_CURVE('',#432,#432,#372,.T.);
#507=EDGE_CURVE('',#433,#433,#373,.T.);
#508=EDGE_CURVE('',#433,#434,#299,.T.);
#509=EDGE_CURVE('',#434,#434,#374,.T.);
#510=EDGE_CURVE('',#435,#435,#375,.T.);
#511=EDGE_CURVE('',#435,#436,#300,.T.);
#512=EDGE_CURVE('',#436,#436,#376,.T.);
#513=EDGE_CURVE('',#437,#437,#377,.T.);
#514=EDGE_CURVE('',#438,#438,#378,.T.);
#515=EDGE_CURVE('',#438,#437,#301,.T.);
#516=EDGE_CURVE('',#439,#439,#379,.T.);
#517=EDGE_CURVE('',#439,#440,#302,.T.);
#518=EDGE_CURVE('',#440,#440,#380,.T.);
#519=EDGE_CURVE('',#441,#441,#381,.T.);
#520=EDGE_CURVE('',#441,#442,#303,.T.);
#521=EDGE_CURVE('',#442,#442,#382,.T.);
#522=EDGE_CURVE('',#443,#443,#383,.T.);
#523=EDGE_CURVE('',#443,#444,#304,.T.);
#524=EDGE_CURVE('',#444,#444,#384,.T.);
#525=EDGE_CURVE('',#445,#445,#385,.T.);
#526=EDGE_CURVE('',#445,#446,#305,.T.);
#527=EDGE_CURVE('',#446,#446,#386,.T.);
#528=EDGE_CURVE('',#447,#447,#387,.T.);
#529=EDGE_CURVE('',#447,#448,#306,.T.);
#530=EDGE_CURVE('',#448,#448,#388,.T.);
#531=EDGE_CURVE('',#449,#449,#389,.T.);
#532=EDGE_CURVE('',#449,#450,#307,.T.);
#533=EDGE_CURVE('',#450,#450,#390,.T.);
#534=EDGE_CURVE('',#451,#451,#391,.T.);
#535=EDGE_CURVE('',#451,#452,#308,.T.);
#536=EDGE_CURVE('',#452,#452,#392,.T.);
#537=EDGE_CURVE('',#453,#453,#393,.T.);
#538=EDGE_CURVE('',#453,#454,#309,.T.);
#539=EDGE_CURVE('',#454,#454,#394,.T.);
#540=EDGE_CURVE('',#455,#455,#395,.T.);
#541=EDGE_CURVE('',#456,#456,#396,.T.);
#542=EDGE_CURVE('',#456,#455,#310,.T.);
#543=EDGE_CURVE('',#457,#457,#397,.T.);
#544=EDGE_CURVE('',#458,#458,#398,.T.);
#545=EDGE_CURVE('',#458,#457,#311,.T.);
#546=EDGE_CURVE('',#459,#459,#399,.T.);
#547=EDGE_CURVE('',#460,#460,#400,.T.);
#548=EDGE_CURVE('',#460,#459,#312,.T.);
#549=EDGE_CURVE('',#461,#461,#401,.T.);
#550=EDGE_CURVE('',#462,#462,#402,.T.);
#551=EDGE_CURVE('',#462,#461,#313,.T.);
#552=EDGE_CURVE('',#463,#463,#403,.T.);
#553=EDGE_CURVE('',#464,#464,#404,.T.);
#554=EDGE_CURVE('',#464,#463,#314,.T.);
#555=ORIENTED_EDGE('',*,*,#465,.T.);
#556=ORIENTED_EDGE('',*,*,#466,.T.);
#557=ORIENTED_EDGE('',*,*,#467,.F.);
#558=ORIENTED_EDGE('',*,*,#466,.F.);
#559=ORIENTED_EDGE('',*,*,#468,.T.);
#560=ORIENTED_EDGE('',*,*,#469,.T.);
#561=ORIENTED_EDGE('',*,*,#470,.F.);
#562=ORIENTED_EDGE('',*,*,#469,.F.);
#563=ORIENTED_EDGE('',*,*,#468,.F.);
#564=ORIENTED_EDGE('',*,*,#465,.F.);
#565=ORIENTED_EDGE('',*,*,#470,.T.);
#566=ORIENTED_EDGE('',*,*,#467,.T.);
#567=ORIENTED_EDGE('',*,*,#471,.F.);
#568=ORIENTED_EDGE('',*,*,#472,.T.);
#569=ORIENTED_EDGE('',*,*,#473,.T.);
#570=ORIENTED_EDGE('',*,*,#472,.F.);
#571=ORIENTED_EDGE('',*,*,#474,.F.);
#572=ORIENTED_EDGE('',*,*,#475,.T.);
#573=ORIENTED_EDGE('',*,*,#476,.T.);
#574=ORIENTED_EDGE('',*,*,#475,.F.);
#575=ORIENTED_EDGE('',*,*,#474,.T.);
#576=ORIENTED_EDGE('',*,*,#471,.T.);
#577=ORIENTED_EDGE('',*,*,#476,.F.);
#578=ORIENTED_EDGE('',*,*,#473,.F.);
#579=ORIENTED_EDGE('',*,*,#477,.F.);
#580=ORIENTED_EDGE('',*,*,#478,.T.);
#581=ORIENTED_EDGE('',*,*,#478,.F.);
#582=ORIENTED_EDGE('',*,*,#479,.T.);
#583=ORIENTED_EDGE('',*,*,#477,.T.);
#584=ORIENTED_EDGE('',*,*,#479,.F.);
#585=ORIENTED_EDGE('',*,*,#480,.F.);
#586=ORIENTED_EDGE('',*,*,#481,.T.);
#587=ORIENTED_EDGE('',*,*,#481,.F.);
#588=ORIENTED_EDGE('',*,*,#482,.T.);
#589=ORIENTED_EDGE('',*,*,#480,.T.);
#590=ORIENTED_EDGE('',*,*,#482,.F.);
#591=ORIENTED_EDGE('',*,*,#483,.F.);
#592=ORIENTED_EDGE('',*,*,#484,.T.);
#593=ORIENTED_EDGE('',*,*,#484,.F.);
#594=ORIENTED_EDGE('',*,*,#485,.T.);
#595=ORIENTED_EDGE('',*,*,#483,.T.);
#596=ORIENTED_EDGE('',*,*,#485,.F.);
#597=ORIENTED_EDGE('',*,*,#486,.F.);
#598=ORIENTED_EDGE('',*,*,#487,.T.);
#599=ORIENTED_EDGE('',*,*,#487,.F.);
#600=ORIENTED_EDGE('',*,*,#488,.T.);
#601=ORIENTED_EDGE('',*,*,#486,.T.);
#602=ORIENTED_EDGE('',*,*,#488,.F.);
#603=ORIENTED_EDGE('',*,*,#489,.F.);
#604=ORIENTED_EDGE('',*,*,#490,.T.);
#605=ORIENTED_EDGE('',*,*,#491,.T.);
#606=ORIENTED_EDGE('',*,*,#490,.F.);
#607=ORIENTED_EDGE('',*,*,#492,.F.);
#608=ORIENTED_EDGE('',*,*,#493,.T.);
#609=ORIENTED_EDGE('',*,*,#494,.T.);
#610=ORIENTED_EDGE('',*,*,#493,.F.);
#611=ORIENTED_EDGE('',*,*,#492,.T.);
#612=ORIENTED_EDGE('',*,*,#489,.T.);
#613=ORIENTED_EDGE('',*,*,#494,.F.);
#614=ORIENTED_EDGE('',*,*,#491,.F.);
#615=ORIENTED_EDGE('',*,*,#495,.F.);
#616=ORIENTED_EDGE('',*,*,#496,.T.);
#617=ORIENTED_EDGE('',*,*,#497,.T.);
#618=ORIENTED_EDGE('',*,*,#496,.F.);
#619=ORIENTED_EDGE('',*,*,#498,.F.);
#620=ORIENTED_EDGE('',*,*,#499,.T.);
#621=ORIENTED_EDGE('',*,*,#500,.T.);
#622=ORIENTED_EDGE('',*,*,#499,.F.);
#623=ORIENTED_EDGE('',*,*,#498,.T.);
#624=ORIENTED_EDGE('',*,*,#495,.T.);
#625=ORIENTED_EDGE('',*,*,#500,.F.);
#626=ORIENTED_EDGE('',*,*,#497,.F.);
#627=ORIENTED_EDGE('',*,*,#501,.F.);
#628=ORIENTED_EDGE('',*,*,#502,.T.);
#629=ORIENTED_EDGE('',*,*,#503,.T.);
#630=ORIENTED_EDGE('',*,*,#502,.F.);
#631=ORIENTED_EDGE('',*,*,#504,.F.);
#632=ORIENTED_EDGE('',*,*,#505,.T.);
#633=ORIENTED_EDGE('',*,*,#506,.T.);
#634=ORIENTED_EDGE('',*,*,#505,.F.);
#635=ORIENTED_EDGE('',*,*,#504,.T.);
#636=ORIENTED_EDGE('',*,*,#501,.T.);
#637=ORIENTED_EDGE('',*,*,#506,.F.);
#638=ORIENTED_EDGE('',*,*,#503,.F.);
#639=ORIENTED_EDGE('',*,*,#507,.F.);
#640=ORIENTED_EDGE('',*,*,#508,.T.);
#641=ORIENTED_EDGE('',*,*,#509,.T.);
#642=ORIENTED_EDGE('',*,*,#508,.F.);
#643=ORIENTED_EDGE('',*,*,#510,.F.);
#644=ORIENTED_EDGE('',*,*,#511,.T.);
#645=ORIENTED_EDGE('',*,*,#512,.T.);
#646=ORIENTED_EDGE('',*,*,#511,.F.);
#647=ORIENTED_EDGE('',*,*,#510,.T.);
#648=ORIENTED_EDGE('',*,*,#507,.T.);
#649=ORIENTED_EDGE('',*,*,#512,.F.);
#650=ORIENTED_EDGE('',*,*,#509,.F.);
#651=ORIENTED_EDGE('',*,*,#513,.F.);
#652=ORIENTED_EDGE('',*,*,#514,.T.);
#653=ORIENTED_EDGE('',*,*,#514,.F.);
#654=ORIENTED_EDGE('',*,*,#515,.T.);
#655=ORIENTED_EDGE('',*,*,#513,.T.);
#656=ORIENTED_EDGE('',*,*,#515,.F.);
#657=ORIENTED_EDGE('',*,*,#516,.T.);
#658=ORIENTED_EDGE('',*,*,#517,.T.);
#659=ORIENTED_EDGE('',*,*,#518,.F.);
#660=ORIENTED_EDGE('',*,*,#517,.F.);
#661=ORIENTED_EDGE('',*,*,#519,.T.);
#662=ORIENTED_EDGE('',*,*,#520,.T.);
#663=ORIENTED_EDGE('',*,*,#521,.F.);
#664=ORIENTED_EDGE('',*,*,#520,.F.);
#665=ORIENTED_EDGE('',*,*,#519,.F.);
#666=ORIENTED_EDGE('',*,*,#516,.F.);
#667=ORIENTED_EDGE('',*,*,#521,.T.);
#668=ORIENTED_EDGE('',*,*,#518,.T.);
#669=ORIENTED_EDGE('',*,*,#522,.T.);
#670=ORIENTED_EDGE('',*,*,#523,.T.);
#671=ORIENTED_EDGE('',*,*,#524,.F.);
#672=ORIENTED_EDGE('',*,*,#523,.F.);
#673=ORIENTED_EDGE('',*,*,#525,.T.);
#674=ORIENTED_EDGE('',*,*,#526,.T.);
#675=ORIENTED_EDGE('',*,*,#527,.F.);
#676=ORIENTED_EDGE('',*,*,#526,.F.);
#677=ORIENTED_EDGE('',*,*,#525,.F.);
#678=ORIENTED_EDGE('',*,*,#522,.F.);
#679=ORIENTED_EDGE('',*,*,#527,.T.);
#680=ORIENTED_EDGE('',*,*,#524,.T.);
#681=ORIENTED_EDGE('',*,*,#528,.T.);
#682=ORIENTED_EDGE('',*,*,#529,.T.);
#683=ORIENTED_EDGE('',*,*,#530,.F.);
#684=ORIENTED_EDGE('',*,*,#529,.F.);
#685=ORIENTED_EDGE('',*,*,#531,.T.);
#686=ORIENTED_EDGE('',*,*,#532,.T.);
#687=ORIENTED_EDGE('',*,*,#533,.F.);
#688=ORIENTED_EDGE('',*,*,#532,.F.);
#689=ORIENTED_EDGE('',*,*,#531,.F.);
#690=ORIENTED_EDGE('',*,*,#528,.F.);
#691=ORIENTED_EDGE('',*,*,#533,.T.);
#692=ORIENTED_EDGE('',*,*,#530,.T.);
#693=ORIENTED_EDGE('',*,*,#534,.T.);
#694=ORIENTED_EDGE('',*,*,#535,.T.);
#695=ORIENTED_EDGE('',*,*,#536,.F.);
#696=ORIENTED_EDGE('',*,*,#535,.F.);
#697=ORIENTED_EDGE('',*,*,#537,.T.);
#698=ORIENTED_EDGE('',*,*,#538,.T.);
#699=ORIENTED_EDGE('',*,*,#539,.F.);
#700=ORIENTED_EDGE('',*,*,#538,.F.);
#701=ORIENTED_EDGE('',*,*,#537,.F.);
#702=ORIENTED_EDGE('',*,*,#534,.F.);
#703=ORIENTED_EDGE('',*,*,#539,.T.);
#704=ORIENTED_EDGE('',*,*,#536,.T.);
#705=ORIENTED_EDGE('',*,*,#540,.T.);
#706=ORIENTED_EDGE('',*,*,#541,.F.);
#707=ORIENTED_EDGE('',*,*,#541,.T.);
#708=ORIENTED_EDGE('',*,*,#542,.T.);
#709=ORIENTED_EDGE('',*,*,#540,.F.);
#710=ORIENTED_EDGE('',*,*,#542,.F.);
#711=ORIENTED_EDGE('',*,*,#543,.T.);
#712=ORIENTED_EDGE('',*,*,#544,.F.);
#713=ORIENTED_EDGE('',*,*,#544,.T.);
#714=ORIENTED_EDGE('',*,*,#545,.T.);
#715=ORIENTED_EDGE('',*,*,#543,.F.);
#716=ORIENTED_EDGE('',*,*,#545,.F.);
#717=ORIENTED_EDGE('',*,*,#546,.T.);
#718=ORIENTED_EDGE('',*,*,#547,.F.);
#719=ORIENTED_EDGE('',*,*,#547,.T.);
#720=ORIENTED_EDGE('',*,*,#548,.T.);
#721=ORIENTED_EDGE('',*,*,#546,.F.);
#722=ORIENTED_EDGE('',*,*,#548,.F.);
#723=ORIENTED_EDGE('',*,*,#549,.T.);
#724=ORIENTED_EDGE('',*,*,#550,.F.);
#725=ORIENTED_EDGE('',*,*,#550,.T.);
#726=ORIENTED_EDGE('',*,*,#551,.T.);
#727=ORIENTED_EDGE('',*,*,#549,.F.);
#728=ORIENTED_EDGE('',*,*,#551,.F.);
#729=ORIENTED_EDGE('',*,*,#552,.T.);
#730=ORIENTED_EDGE('',*,*,#553,.F.);
#731=ORIENTED_EDGE('',*,*,#553,.T.);
#732=ORIENTED_EDGE('',*,*,#554,.T.);
#733=ORIENTED_EDGE('',*,*,#552,.F.);
#734=ORIENTED_EDGE('',*,*,#554,.F.);
#735=CYLINDRICAL_SURFACE('',#880,4.);
#736=CYLINDRICAL_SURFACE('',#883,10.9);
#737=CYLINDRICAL_SURFACE('',#889,4.);
#738=CYLINDRICAL_SURFACE('',#892,10.9);
#739=CYLINDRICAL_SURFACE('',#901,4.);
#740=CYLINDRICAL_SURFACE('',#906,4.);
#741=CYLINDRICAL_SURFACE('',#911,4.);
#742=CYLINDRICAL_SURFACE('',#916,4.);
#743=CYLINDRICAL_SURFACE('',#917,4.);
#744=CYLINDRICAL_SURFACE('',#920,10.9);
#745=CYLINDRICAL_SURFACE('',#925,4.);
#746=CYLINDRICAL_SURFACE('',#928,10.9);
#747=CYLINDRICAL_SURFACE('',#933,4.);
#748=CYLINDRICAL_SURFACE('',#936,10.9);
#749=CYLINDRICAL_SURFACE('',#941,4.);
#750=CYLINDRICAL_SURFACE('',#944,10.9);
#751=CYLINDRICAL_SURFACE('',#953,4.);
#752=CYLINDRICAL_SURFACE('',#954,4.);
#753=CYLINDRICAL_SURFACE('',#957,10.9);
#754=CYLINDRICAL_SURFACE('',#962,4.);
#755=CYLINDRICAL_SURFACE('',#965,10.9);
#756=CYLINDRICAL_SURFACE('',#970,4.);
#757=CYLINDRICAL_SURFACE('',#973,10.9);
#758=CYLINDRICAL_SURFACE('',#978,4.);
#759=CYLINDRICAL_SURFACE('',#981,10.9);
#760=CYLINDRICAL_SURFACE('',#990,4.);
#761=CYLINDRICAL_SURFACE('',#995,4.);
#762=CYLINDRICAL_SURFACE('',#1000,4.);
#763=CYLINDRICAL_SURFACE('',#1005,4.);
#764=CYLINDRICAL_SURFACE('',#1010,4.);
#765=ADVANCED_FACE('',(#125),#735,.F.);
#766=ADVANCED_FACE('',(#126),#736,.T.);
#767=ADVANCED_FACE('',(#127,#65),#85,.F.);
#768=ADVANCED_FACE('',(#128,#66),#86,.T.);
#769=ADVANCED_FACE('',(#129),#737,.F.);
#770=ADVANCED_FACE('',(#130),#738,.T.);
#771=ADVANCED_FACE('',(#131,#67),#87,.T.);
#772=ADVANCED_FACE('',(#132,#68),#88,.F.);
#773=ADVANCED_FACE('',(#133),#89,.F.);
#774=ADVANCED_FACE('',(#134),#90,.F.);
#775=ADVANCED_FACE('',(#135),#739,.T.);
#776=ADVANCED_FACE('',(#136),#91,.F.);
#777=ADVANCED_FACE('',(#137),#92,.F.);
#778=ADVANCED_FACE('',(#138),#740,.T.);
#779=ADVANCED_FACE('',(#139),#93,.F.);
#780=ADVANCED_FACE('',(#140),#94,.F.);
#781=ADVANCED_FACE('',(#141),#741,.T.);
#782=ADVANCED_FACE('',(#142),#95,.F.);
#783=ADVANCED_FACE('',(#143),#96,.F.);
#784=ADVANCED_FACE('',(#144),#742,.T.);
#785=ADVANCED_FACE('',(#145),#743,.F.);
#786=ADVANCED_FACE('',(#146),#744,.T.);
#787=ADVANCED_FACE('',(#147,#69),#97,.T.);
#788=ADVANCED_FACE('',(#148,#70),#98,.F.);
#789=ADVANCED_FACE('',(#149),#745,.F.);
#790=ADVANCED_FACE('',(#150),#746,.T.);
#791=ADVANCED_FACE('',(#151,#71),#99,.T.);
#792=ADVANCED_FACE('',(#152,#72),#100,.F.);
#793=ADVANCED_FACE('',(#153),#747,.F.);
#794=ADVANCED_FACE('',(#154),#748,.T.);
#795=ADVANCED_FACE('',(#155,#73),#101,.T.);
#796=ADVANCED_FACE('',(#156,#74),#102,.F.);
#797=ADVANCED_FACE('',(#157),#749,.F.);
#798=ADVANCED_FACE('',(#158),#750,.T.);
#799=ADVANCED_FACE('',(#159,#75),#103,.T.);
#800=ADVANCED_FACE('',(#160,#76),#104,.F.);
#801=ADVANCED_FACE('',(#161),#105,.F.);
#802=ADVANCED_FACE('',(#162),#106,.F.);
#803=ADVANCED_FACE('',(#163),#751,.T.);
#804=ADVANCED_FACE('',(#164),#752,.F.);
#805=ADVANCED_FACE('',(#165),#753,.T.);
#806=ADVANCED_FACE('',(#166,#77),#107,.F.);
#807=ADVANCED_FACE('',(#167,#78),#108,.T.);
#808=ADVANCED_FACE('',(#168),#754,.F.);
#809=ADVANCED_FACE('',(#169),#755,.T.);
#810=ADVANCED_FACE('',(#170,#79),#109,.F.);
#811=ADVANCED_FACE('',(#171,#80),#110,.T.);
#812=ADVANCED_FACE('',(#172),#756,.F.);
#813=ADVANCED_FACE('',(#173),#757,.T.);
#814=ADVANCED_FACE('',(#174,#81),#111,.F.);
#815=ADVANCED_FACE('',(#175,#82),#112,.T.);
#816=ADVANCED_FACE('',(#176),#758,.F.);
#817=ADVANCED_FACE('',(#177),#759,.T.);
#818=ADVANCED_FACE('',(#178,#83),#113,.F.);
#819=ADVANCED_FACE('',(#179,#84),#114,.T.);
#820=ADVANCED_FACE('',(#180),#115,.T.);
#821=ADVANCED_FACE('',(#181),#116,.T.);
#822=ADVANCED_FACE('',(#182),#760,.T.);
#823=ADVANCED_FACE('',(#183),#117,.T.);
#824=ADVANCED_FACE('',(#184),#118,.T.);
#825=ADVANCED_FACE('',(#185),#761,.T.);
#826=ADVANCED_FACE('',(#186),#119,.T.);
#827=ADVANCED_FACE('',(#187),#120,.T.);
#828=ADVANCED_FACE('',(#188),#762,.T.);
#829=ADVANCED_FACE('',(#189),#121,.T.);
#830=ADVANCED_FACE('',(#190),#122,.T.);
#831=ADVANCED_FACE('',(#191),#763,.T.);
#832=ADVANCED_FACE('',(#192),#123,.T.);
#833=ADVANCED_FACE('',(#193),#124,.T.);
#834=ADVANCED_FACE('',(#194),#764,.T.);
#835=CLOSED_SHELL('',(#765,#766,#767,#768));
#836=CLOSED_SHELL('',(#769,#770,#771,#772));
#837=CLOSED_SHELL('',(#773,#774,#775));
#838=CLOSED_SHELL('',(#776,#777,#778));
#839=CLOSED_SHELL('',(#779,#780,#781));
#840=CLOSED_SHELL('',(#782,#783,#784));
#841=CLOSED_SHELL('',(#785,#786,#787,#788));
#842=CLOSED_SHELL('',(#789,#790,#791,#792));
#843=CLOSED_SHELL('',(#793,#794,#795,#796));
#844=CLOSED_SHELL('',(#797,#798,#799,#800));
#845=CLOSED_SHELL('',(#801,#802,#803));
#846=CLOSED_SHELL('',(#804,#805,#806,#807));
#847=CLOSED_SHELL('',(#808,#809,#810,#811));
#848=CLOSED_SHELL('',(#812,#813,#814,#815));
#849=CLOSED_SHELL('',(#816,#817,#818,#819));
#850=CLOSED_SHELL('',(#820,#821,#822));
#851=CLOSED_SHELL('',(#823,#824,#825));
#852=CLOSED_SHELL('',(#826,#827,#828));
#853=CLOSED_SHELL('',(#829,#830,#831));
#854=CLOSED_SHELL('',(#832,#833,#834));
#855=DERIVED_UNIT_ELEMENT(#859,1.);
#856=DERIVED_UNIT_ELEMENT(#1547,-3.);
#857=DERIVED_UNIT_ELEMENT(#859,1.);
#858=DERIVED_UNIT_ELEMENT(#1547,-3.);
#859=(
MASS_UNIT()
NAMED_UNIT(*)
SI_UNIT(.KILO.,.GRAM.)
);
#860=DERIVED_UNIT((#855,#856));
#861=DERIVED_UNIT((#857,#858));
#862=MEASURE_REPRESENTATION_ITEM('density measure',
POSITIVE_RATIO_MEASURE(7850.),#860);
#863=MEASURE_REPRESENTATION_ITEM('density measure',
POSITIVE_RATIO_MEASURE(7850.),#861);
#864=PROPERTY_DEFINITION_REPRESENTATION(#874,#868);
#865=PROPERTY_DEFINITION_REPRESENTATION(#875,#869);
#866=PROPERTY_DEFINITION_REPRESENTATION(#876,#870);
#867=PROPERTY_DEFINITION_REPRESENTATION(#877,#871);
#868=REPRESENTATION('material name',(#872),#1543);
#869=REPRESENTATION('density',(#862),#1543);
#870=REPRESENTATION('material name',(#873),#1544);
#871=REPRESENTATION('density',(#863),#1544);
#872=DESCRIPTIVE_REPRESENTATION_ITEM('A\X\E7o','A\X\E7o');
#873=DESCRIPTIVE_REPRESENTATION_ITEM('A\X\E7o','A\X\E7o');
#874=PROPERTY_DEFINITION('material property','material name',#1563);
#875=PROPERTY_DEFINITION('material property','density of part',#1563);
#876=PROPERTY_DEFINITION('material property','material name',#1564);
#877=PROPERTY_DEFINITION('material property','density of part',#1564);
#878=AXIS2_PLACEMENT_3D('',#1313,#1013,#1014);
#879=AXIS2_PLACEMENT_3D('',#1314,#1015,#1016);
#880=AXIS2_PLACEMENT_3D('',#1315,#1017,#1018);
#881=AXIS2_PLACEMENT_3D('',#1317,#1019,#1020);
#882=AXIS2_PLACEMENT_3D('',#1320,#1022,#1023);
#883=AXIS2_PLACEMENT_3D('',#1321,#1024,#1025);
#884=AXIS2_PLACEMENT_3D('',#1323,#1026,#1027);
#885=AXIS2_PLACEMENT_3D('',#1326,#1029,#1030);
#886=AXIS2_PLACEMENT_3D('',#1327,#1031,#1032);
#887=AXIS2_PLACEMENT_3D('',#1328,#1033,#1034);
#888=AXIS2_PLACEMENT_3D('',#1329,#1035,#1036);
#889=AXIS2_PLACEMENT_3D('',#1330,#1037,#1038);
#890=AXIS2_PLACEMENT_3D('',#1332,#1039,#1040);
#891=AXIS2_PLACEMENT_3D('',#1335,#1042,#1043);
#892=AXIS2_PLACEMENT_3D('',#1336,#1044,#1045);
#893=AXIS2_PLACEMENT_3D('',#1338,#1046,#1047);
#894=AXIS2_PLACEMENT_3D('',#1341,#1049,#1050);
#895=AXIS2_PLACEMENT_3D('',#1342,#1051,#1052);
#896=AXIS2_PLACEMENT_3D('',#1343,#1053,#1054);
#897=AXIS2_PLACEMENT_3D('',#1344,#1055,#1056);
#898=AXIS2_PLACEMENT_3D('',#1346,#1057,#1058);
#899=AXIS2_PLACEMENT_3D('',#1347,#1059,#1060);
#900=AXIS2_PLACEMENT_3D('',#1349,#1061,#1062);
#901=AXIS2_PLACEMENT_3D('',#1350,#1063,#1064);
#902=AXIS2_PLACEMENT_3D('',#1352,#1066,#1067);
#903=AXIS2_PLACEMENT_3D('',#1354,#1068,#1069);
#904=AXIS2_PLACEMENT_3D('',#1355,#1070,#1071);
#905=AXIS2_PLACEMENT_3D('',#1357,#1072,#1073);
#906=AXIS2_PLACEMENT_3D('',#1358,#1074,#1075);
#907=AXIS2_PLACEMENT_3D('',#1360,#1077,#1078);
#908=AXIS2_PLACEMENT_3D('',#1362,#1079,#1080);
#909=AXIS2_PLACEMENT_3D('',#1363,#1081,#1082);
#910=AXIS2_PLACEMENT_3D('',#1365,#1083,#1084);
#911=AXIS2_PLACEMENT_3D('',#1366,#1085,#1086);
#912=AXIS2_PLACEMENT_3D('',#1368,#1088,#1089);
#913=AXIS2_PLACEMENT_3D('',#1370,#1090,#1091);
#914=AXIS2_PLACEMENT_3D('',#1371,#1092,#1093);
#915=AXIS2_PLACEMENT_3D('',#1373,#1094,#1095);
#916=AXIS2_PLACEMENT_3D('',#1374,#1096,#1097);
#917=AXIS2_PLACEMENT_3D('',#1376,#1099,#1100);
#918=AXIS2_PLACEMENT_3D('',#1378,#1101,#1102);
#919=AXIS2_PLACEMENT_3D('',#1381,#1104,#1105);
#920=AXIS2_PLACEMENT_3D('',#1382,#1106,#1107);
#921=AXIS2_PLACEMENT_3D('',#1384,#1108,#1109);
#922=AXIS2_PLACEMENT_3D('',#1387,#1111,#1112);
#923=AXIS2_PLACEMENT_3D('',#1388,#1113,#1114);
#924=AXIS2_PLACEMENT_3D('',#1389,#1115,#1116);
#925=AXIS2_PLACEMENT_3D('',#1390,#1117,#1118);
#926=AXIS2_PLACEMENT_3D('',#1392,#1119,#1120);
#927=AXIS2_PLACEMENT_3D('',#1395,#1122,#1123);
#928=AXIS2_PLACEMENT_3D('',#1396,#1124,#1125);
#929=AXIS2_PLACEMENT_3D('',#1398,#1126,#1127);
#930=AXIS2_PLACEMENT_3D('',#1401,#1129,#1130);
#931=AXIS2_PLACEMENT_3D('',#1402,#1131,#1132);
#932=AXIS2_PLACEMENT_3D('',#1403,#1133,#1134);
#933=AXIS2_PLACEMENT_3D('',#1404,#1135,#1136);
#934=AXIS2_PLACEMENT_3D('',#1406,#1137,#1138);
#935=AXIS2_PLACEMENT_3D('',#1409,#1140,#1141);
#936=AXIS2_PLACEMENT_3D('',#1410,#1142,#1143);
#937=AXIS2_PLACEMENT_3D('',#1412,#1144,#1145);
#938=AXIS2_PLACEMENT_3D('',#1415,#1147,#1148);
#939=AXIS2_PLACEMENT_3D('',#1416,#1149,#1150);
#940=AXIS2_PLACEMENT_3D('',#1417,#1151,#1152);
#941=AXIS2_PLACEMENT_3D('',#1418,#1153,#1154);
#942=AXIS2_PLACEMENT_3D('',#1420,#1155,#1156);
#943=AXIS2_PLACEMENT_3D('',#1423,#1158,#1159);
#944=AXIS2_PLACEMENT_3D('',#1424,#1160,#1161);
#945=AXIS2_PLACEMENT_3D('',#1426,#1162,#1163);
#946=AXIS2_PLACEMENT_3D('',#1429,#1165,#1166);
#947=AXIS2_PLACEMENT_3D('',#1430,#1167,#1168);
#948=AXIS2_PLACEMENT_3D('',#1431,#1169,#1170);
#949=AXIS2_PLACEMENT_3D('',#1432,#1171,#1172);
#950=AXIS2_PLACEMENT_3D('',#1434,#1173,#1174);
#951=AXIS2_PLACEMENT_3D('',#1435,#1175,#1176);
#952=AXIS2_PLACEMENT_3D('',#1437,#1177,#1178);
#953=AXIS2_PLACEMENT_3D('',#1438,#1179,#1180);
#954=AXIS2_PLACEMENT_3D('',#1440,#1182,#1183);
#955=AXIS2_PLACEMENT_3D('',#1442,#1184,#1185);
#956=AXIS2_PLACEMENT_3D('',#1445,#1187,#1188);
#957=AXIS2_PLACEMENT_3D('',#1446,#1189,#1190);
#958=AXIS2_PLACEMENT_3D('',#1448,#1191,#1192);
#959=AXIS2_PLACEMENT_3D('',#1451,#1194,#1195);
#960=AXIS2_PLACEMENT_3D('',#1452,#1196,#1197);
#961=AXIS2_PLACEMENT_3D('',#1453,#1198,#1199);
#962=AXIS2_PLACEMENT_3D('',#1454,#1200,#1201);
#963=AXIS2_PLACEMENT_3D('',#1456,#1202,#1203);
#964=AXIS2_PLACEMENT_3D('',#1459,#1205,#1206);
#965=AXIS2_PLACEMENT_3D('',#1460,#1207,#1208);
#966=AXIS2_PLACEMENT_3D('',#1462,#1209,#1210);
#967=AXIS2_PLACEMENT_3D('',#1465,#1212,#1213);
#968=AXIS2_PLACEMENT_3D('',#1466,#1214,#1215);
#969=AXIS2_PLACEMENT_3D('',#1467,#1216,#1217);
#970=AXIS2_PLACEMENT_3D('',#1468,#1218,#1219);
#971=AXIS2_PLACEMENT_3D('',#1470,#1220,#1221);
#972=AXIS2_PLACEMENT_3D('',#1473,#1223,#1224);
#973=AXIS2_PLACEMENT_3D('',#1474,#1225,#1226);
#974=AXIS2_PLACEMENT_3D('',#1476,#1227,#1228);
#975=AXIS2_PLACEMENT_3D('',#1479,#1230,#1231);
#976=AXIS2_PLACEMENT_3D('',#1480,#1232,#1233);
#977=AXIS2_PLACEMENT_3D('',#1481,#1234,#1235);
#978=AXIS2_PLACEMENT_3D('',#1482,#1236,#1237);
#979=AXIS2_PLACEMENT_3D('',#1484,#1238,#1239);
#980=AXIS2_PLACEMENT_3D('',#1487,#1241,#1242);
#981=AXIS2_PLACEMENT_3D('',#1488,#1243,#1244);
#982=AXIS2_PLACEMENT_3D('',#1490,#1245,#1246);
#983=AXIS2_PLACEMENT_3D('',#1493,#1248,#1249);
#984=AXIS2_PLACEMENT_3D('',#1494,#1250,#1251);
#985=AXIS2_PLACEMENT_3D('',#1495,#1252,#1253);
#986=AXIS2_PLACEMENT_3D('',#1496,#1254,#1255);
#987=AXIS2_PLACEMENT_3D('',#1498,#1256,#1257);
#988=AXIS2_PLACEMENT_3D('',#1499,#1258,#1259);
#989=AXIS2_PLACEMENT_3D('',#1501,#1260,#1261);
#990=AXIS2_PLACEMENT_3D('',#1502,#1262,#1263);
#991=AXIS2_PLACEMENT_3D('',#1504,#1265,#1266);
#992=AXIS2_PLACEMENT_3D('',#1506,#1267,#1268);
#993=AXIS2_PLACEMENT_3D('',#1507,#1269,#1270);
#994=AXIS2_PLACEMENT_3D('',#1509,#1271,#1272);
#995=AXIS2_PLACEMENT_3D('',#1510,#1273,#1274);
#996=AXIS2_PLACEMENT_3D('',#1512,#1276,#1277);
#997=AXIS2_PLACEMENT_3D('',#1514,#1278,#1279);
#998=AXIS2_PLACEMENT_3D('',#1515,#1280,#1281);
#999=AXIS2_PLACEMENT_3D('',#1517,#1282,#1283);
#1000=AXIS2_PLACEMENT_3D('',#1518,#1284,#1285);
#1001=AXIS2_PLACEMENT_3D('',#1520,#1287,#1288);
#1002=AXIS2_PLACEMENT_3D('',#1522,#1289,#1290);
#1003=AXIS2_PLACEMENT_3D('',#1523,#1291,#1292);
#1004=AXIS2_PLACEMENT_3D('',#1525,#1293,#1294);
#1005=AXIS2_PLACEMENT_3D('',#1526,#1295,#1296);
#1006=AXIS2_PLACEMENT_3D('',#1528,#1298,#1299);
#1007=AXIS2_PLACEMENT_3D('',#1530,#1300,#1301);
#1008=AXIS2_PLACEMENT_3D('',#1531,#1302,#1303);
#1009=AXIS2_PLACEMENT_3D('',#1533,#1304,#1305);
#1010=AXIS2_PLACEMENT_3D('',#1534,#1306,#1307);
#1011=AXIS2_PLACEMENT_3D('',#1536,#1309,#1310);
#1012=AXIS2_PLACEMENT_3D('',#1537,#1311,#1312);
#1013=DIRECTION('axis',(0.,0.,1.));
#1014=DIRECTION('refdir',(1.,0.,0.));
#1015=DIRECTION('axis',(0.,0.,1.));
#1016=DIRECTION('refdir',(1.,0.,0.));
#1017=DIRECTION('center_axis',(0.,0.,-1.));
#1018=DIRECTION('ref_axis',(-1.,0.,0.));
#1019=DIRECTION('center_axis',(0.,0.,1.));
#1020=DIRECTION('ref_axis',(-1.,0.,0.));
#1021=DIRECTION('',(0.,0.,-1.));
#1022=DIRECTION('center_axis',(0.,0.,1.));
#1023=DIRECTION('ref_axis',(-1.,0.,0.));
#1024=DIRECTION('center_axis',(0.,0.,-1.));
#1025=DIRECTION('ref_axis',(-1.,0.,0.));
#1026=DIRECTION('center_axis',(0.,0.,-1.));
#1027=DIRECTION('ref_axis',(-1.,0.,0.));
#1028=DIRECTION('',(0.,0.,-1.));
#1029=DIRECTION('center_axis',(0.,0.,-1.));
#1030=DIRECTION('ref_axis',(-1.,0.,0.));
#1031=DIRECTION('center_axis',(0.,0.,-1.));
#1032=DIRECTION('ref_axis',(-1.,0.,0.));
#1033=DIRECTION('center_axis',(0.,0.,-1.));
#1034=DIRECTION('ref_axis',(-1.,0.,0.));
#1035=DIRECTION('axis',(0.,0.,1.));
#1036=DIRECTION('refdir',(1.,0.,0.));
#1037=DIRECTION('center_axis',(0.,0.,-1.));
#1038=DIRECTION('ref_axis',(-1.,0.,0.));
#1039=DIRECTION('center_axis',(0.,0.,1.));
#1040=DIRECTION('ref_axis',(-1.,0.,0.));
#1041=DIRECTION('',(0.,0.,1.));
#1042=DIRECTION('center_axis',(0.,0.,1.));
#1043=DIRECTION('ref_axis',(-1.,0.,0.));
#1044=DIRECTION('center_axis',(0.,0.,-1.));
#1045=DIRECTION('ref_axis',(-1.,0.,0.));
#1046=DIRECTION('center_axis',(0.,0.,-1.));
#1047=DIRECTION('ref_axis',(-1.,0.,0.));
#1048=DIRECTION('',(0.,0.,1.));
#1049=DIRECTION('center_axis',(0.,0.,-1.));
#1050=DIRECTION('ref_axis',(-1.,0.,0.));
#1051=DIRECTION('center_axis',(0.,0.,-1.));
#1052=DIRECTION('ref_axis',(-1.,0.,0.));
#1053=DIRECTION('center_axis',(0.,0.,-1.));
#1054=DIRECTION('ref_axis',(-1.,0.,0.));
#1055=DIRECTION('center_axis',(-1.30012959462683E-16,4.51073065922285E-34,
-1.));
#1056=DIRECTION('ref_axis',(3.46944695195361E-18,1.,1.21450428426589E-47));
#1057=DIRECTION('center_axis',(-1.30012959462683E-16,4.51073065922285E-34,
-1.));
#1058=DIRECTION('ref_axis',(1.,-3.46944695195361E-18,-8.32667268468866E-17));
#1059=DIRECTION('center_axis',(8.32667268468867E-17,-2.88889491658097E-34,
1.));
#1060=DIRECTION('ref_axis',(1.,-3.46944695195361E-18,-8.32667268468867E-17));
#1061=DIRECTION('center_axis',(-8.32667268468867E-17,2.88889491658097E-34,
-1.));
#1062=DIRECTION('ref_axis',(1.,-3.46944695195361E-18,-8.32667268468866E-17));
#1063=DIRECTION('center_axis',(-8.32667268468867E-17,2.88889491658097E-34,
-1.));
#1064=DIRECTION('ref_axis',(1.,-3.46944695195361E-18,-8.32667268468866E-17));
#1065=DIRECTION('',(8.32667268468866E-17,-2.88889491658097E-34,1.));
#1066=DIRECTION('center_axis',(-1.30012959462683E-16,4.51073065922285E-34,
-1.));
#1067=DIRECTION('ref_axis',(3.46944695195361E-18,1.,1.21450428426589E-47));
#1068=DIRECTION('center_axis',(-1.30012959462683E-16,4.51073065922285E-34,
-1.));
#1069=DIRECTION('ref_axis',(1.,-3.46944695195361E-18,-8.32667268468866E-17));
#1070=DIRECTION('center_axis',(8.32667268468867E-17,-2.88889491658097E-34,
1.));
#1071=DIRECTION('ref_axis',(1.,-3.46944695195361E-18,-8.32667268468867E-17));
#1072=DIRECTION('center_axis',(-8.32667268468867E-17,2.88889491658097E-34,
-1.));
#1073=DIRECTION('ref_axis',(1.,-3.46944695195361E-18,-8.32667268468866E-17));
#1074=DIRECTION('center_axis',(-8.32667268468867E-17,2.88889491658097E-34,
-1.));
#1075=DIRECTION('ref_axis',(1.,-3.46944695195361E-18,-8.32667268468866E-17));
#1076=DIRECTION('',(8.32667268468866E-17,-2.88889491658097E-34,1.));
#1077=DIRECTION('center_axis',(-1.30012959462683E-16,4.51073065922285E-34,
-1.));
#1078=DIRECTION('ref_axis',(3.46944695195361E-18,1.,1.20167501365745E-47));
#1079=DIRECTION('center_axis',(-1.30012959462683E-16,4.51073065922285E-34,
-1.));
#1080=DIRECTION('ref_axis',(1.,-3.46944695195361E-18,-8.32667268468867E-17));
#1081=DIRECTION('center_axis',(8.32667268468867E-17,-2.88889491658097E-34,
1.));
#1082=DIRECTION('ref_axis',(1.,-3.46944695195361E-18,-8.32667268468867E-17));
#1083=DIRECTION('center_axis',(-8.32667268468867E-17,2.88889491658097E-34,
-1.));
#1084=DIRECTION('ref_axis',(1.,-3.46944695195361E-18,-8.32667268468867E-17));
#1085=DIRECTION('center_axis',(-8.32667268468867E-17,2.88889491658097E-34,
-1.));
#1086=DIRECTION('ref_axis',(1.,-3.46944695195361E-18,-8.32667268468867E-17));
#1087=DIRECTION('',(8.32667268468867E-17,-2.88889491658097E-34,1.));
#1088=DIRECTION('center_axis',(-1.30012959462683E-16,4.51073065922285E-34,
-1.));
#1089=DIRECTION('ref_axis',(3.46944695195361E-18,1.,1.21450428426589E-47));
#1090=DIRECTION('center_axis',(-1.30012959462683E-16,4.51073065922285E-34,
-1.));
#1091=DIRECTION('ref_axis',(1.,-3.46944695195361E-18,-8.32667268468866E-17));
#1092=DIRECTION('center_axis',(8.32667268468867E-17,-2.88889491658097E-34,
1.));
#1093=DIRECTION('ref_axis',(1.,-3.46944695195361E-18,-8.32667268468867E-17));
#1094=DIRECTION('center_axis',(-8.32667268468867E-17,2.88889491658097E-34,
-1.));
#1095=DIRECTION('ref_axis',(1.,-3.46944695195361E-18,-8.32667268468866E-17));
#1096=DIRECTION('center_axis',(-8.32667268468867E-17,2.88889491658097E-34,
-1.));
#1097=DIRECTION('ref_axis',(1.,-3.46944695195361E-18,-8.32667268468866E-17));
#1098=DIRECTION('',(8.32667268468866E-17,-2.88889491658097E-34,1.));
#1099=DIRECTION('center_axis',(-1.11022302462515E-16,3.85185988877459E-34,
-1.));
#1100=DIRECTION('ref_axis',(-1.,3.46944695195361E-18,1.11022302462515E-16));
#1101=DIRECTION('center_axis',(1.11022302462515E-16,-3.85185988877459E-34,
1.));
#1102=DIRECTION('ref_axis',(-1.,3.46944695195361E-18,1.11022302462515E-16));
#1103=DIRECTION('',(1.11022302462515E-16,-3.85185988877459E-34,1.));
#1104=DIRECTION('center_axis',(1.11022302462515E-16,-3.85185988877459E-34,
1.));
#1105=DIRECTION('ref_axis',(-1.,3.46944695195361E-18,1.11022302462515E-16));
#1106=DIRECTION('center_axis',(-1.11022302462515E-16,3.85185988877459E-34,
-1.));
#1107=DIRECTION('ref_axis',(-1.,3.46944695195361E-18,1.11022302462515E-16));
#1108=DIRECTION('center_axis',(-1.11022302462515E-16,3.85185988877459E-34,
-1.));
#1109=DIRECTION('ref_axis',(-1.,3.46944695195361E-18,1.11022302462515E-16));
#1110=DIRECTION('',(1.11022302462515E-16,-3.85185988877459E-34,1.));
#1111=DIRECTION('center_axis',(-1.11022302462515E-16,3.85185988877459E-34,
-1.));
#1112=DIRECTION('ref_axis',(-1.,3.46944695195361E-18,1.11022302462515E-16));
#1113=DIRECTION('center_axis',(-1.11022302462515E-16,3.85185988877459E-34,
-1.));
#1114=DIRECTION('ref_axis',(-1.,3.46944695195361E-18,1.11022302462515E-16));
#1115=DIRECTION('center_axis',(-1.11022302462515E-16,3.85185988877459E-34,
-1.));
#1116=DIRECTION('ref_axis',(-1.,3.46944695195361E-18,1.11022302462515E-16));
#1117=DIRECTION('center_axis',(-1.11022302462515E-16,3.85185988877459E-34,
-1.));
#1118=DIRECTION('ref_axis',(-1.,3.46944695195361E-18,1.11022302462515E-16));
#1119=DIRECTION('center_axis',(1.11022302462515E-16,-3.85185988877459E-34,
1.));
#1120=DIRECTION('ref_axis',(-1.,3.46944695195361E-18,1.11022302462515E-16));
#1121=DIRECTION('',(1.11022302462515E-16,-3.85185988877459E-34,1.));
#1122=DIRECTION('center_axis',(1.11022302462515E-16,-3.85185988877459E-34,
1.));
#1123=DIRECTION('ref_axis',(-1.,3.46944695195361E-18,1.11022302462515E-16));
#1124=DIRECTION('center_axis',(-1.11022302462515E-16,3.85185988877459E-34,
-1.));
#1125=DIRECTION('ref_axis',(-1.,3.46944695195361E-18,1.11022302462515E-16));
#1126=DIRECTION('center_axis',(-1.11022302462515E-16,3.85185988877459E-34,
-1.));
#1127=DIRECTION('ref_axis',(-1.,3.46944695195361E-18,1.11022302462515E-16));
#1128=DIRECTION('',(1.11022302462515E-16,-3.85185988877459E-34,1.));
#1129=DIRECTION('center_axis',(-1.11022302462515E-16,3.85185988877459E-34,
-1.));
#1130=DIRECTION('ref_axis',(-1.,3.46944695195361E-18,1.11022302462515E-16));
#1131=DIRECTION('center_axis',(-1.11022302462515E-16,3.85185988877459E-34,
-1.));
#1132=DIRECTION('ref_axis',(-1.,3.46944695195361E-18,1.11022302462515E-16));
#1133=DIRECTION('center_axis',(-1.11022302462515E-16,3.85185988877459E-34,
-1.));
#1134=DIRECTION('ref_axis',(-1.,3.46944695195361E-18,1.11022302462515E-16));
#1135=DIRECTION('center_axis',(-1.11022302462515E-16,3.85185988877459E-34,
-1.));
#1136=DIRECTION('ref_axis',(-1.,3.46944695195361E-18,1.11022302462515E-16));
#1137=DIRECTION('center_axis',(1.11022302462515E-16,-3.85185988877459E-34,
1.));
#1138=DIRECTION('ref_axis',(-1.,3.46944695195361E-18,1.11022302462515E-16));
#1139=DIRECTION('',(1.11022302462515E-16,-3.85185988877459E-34,1.));
#1140=DIRECTION('center_axis',(1.11022302462515E-16,-3.85185988877459E-34,
1.));
#1141=DIRECTION('ref_axis',(-1.,3.46944695195361E-18,1.11022302462515E-16));
#1142=DIRECTION('center_axis',(-1.11022302462515E-16,3.85185988877459E-34,
-1.));
#1143=DIRECTION('ref_axis',(-1.,3.46944695195361E-18,1.11022302462515E-16));
#1144=DIRECTION('center_axis',(-1.11022302462515E-16,3.85185988877459E-34,
-1.));
#1145=DIRECTION('ref_axis',(-1.,3.46944695195361E-18,1.11022302462515E-16));
#1146=DIRECTION('',(1.11022302462515E-16,-3.85185988877459E-34,1.));
#1147=DIRECTION('center_axis',(-1.11022302462515E-16,3.85185988877459E-34,
-1.));
#1148=DIRECTION('ref_axis',(-1.,3.46944695195361E-18,1.11022302462515E-16));
#1149=DIRECTION('center_axis',(-1.11022302462515E-16,3.85185988877459E-34,
-1.));
#1150=DIRECTION('ref_axis',(-1.,3.46944695195361E-18,1.11022302462515E-16));
#1151=DIRECTION('center_axis',(-1.11022302462515E-16,3.85185988877459E-34,
-1.));
#1152=DIRECTION('ref_axis',(-1.,3.46944695195361E-18,1.11022302462515E-16));
#1153=DIRECTION('center_axis',(-1.11022302462515E-16,3.85185988877459E-34,
-1.));
#1154=DIRECTION('ref_axis',(-1.,3.46944695195361E-18,1.11022302462515E-16));
#1155=DIRECTION('center_axis',(1.11022302462515E-16,-3.85185988877459E-34,
1.));
#1156=DIRECTION('ref_axis',(-1.,3.46944695195361E-18,1.11022302462515E-16));
#1157=DIRECTION('',(1.11022302462515E-16,-3.85185988877459E-34,1.));
#1158=DIRECTION('center_axis',(1.11022302462515E-16,-3.85185988877459E-34,
1.));
#1159=DIRECTION('ref_axis',(-1.,3.46944695195361E-18,1.11022302462515E-16));
#1160=DIRECTION('center_axis',(-1.11022302462515E-16,3.85185988877459E-34,
-1.));
#1161=DIRECTION('ref_axis',(-1.,3.46944695195361E-18,1.11022302462515E-16));
#1162=DIRECTION('center_axis',(-1.11022302462515E-16,3.85185988877459E-34,
-1.));
#1163=DIRECTION('ref_axis',(-1.,3.46944695195361E-18,1.11022302462515E-16));
#1164=DIRECTION('',(1.11022302462515E-16,-3.85185988877459E-34,1.));
#1165=DIRECTION('center_axis',(-1.11022302462515E-16,3.85185988877459E-34,
-1.));
#1166=DIRECTION('ref_axis',(-1.,3.46944695195361E-18,1.11022302462515E-16));
#1167=DIRECTION('center_axis',(-1.11022302462515E-16,3.85185988877459E-34,
-1.));
#1168=DIRECTION('ref_axis',(-1.,3.46944695195361E-18,1.11022302462515E-16));
#1169=DIRECTION('center_axis',(-1.11022302462515E-16,3.85185988877459E-34,
-1.));
#1170=DIRECTION('ref_axis',(-1.,3.46944695195361E-18,1.11022302462515E-16));
#1171=DIRECTION('center_axis',(-1.30012959462683E-16,4.51073065922285E-34,
-1.));
#1172=DIRECTION('ref_axis',(3.46944695195361E-18,1.,1.26582136669966E-47));
#1173=DIRECTION('center_axis',(-1.30012959462683E-16,4.51073065922285E-34,
-1.));
#1174=DIRECTION('ref_axis',(1.,-3.46944695195361E-18,-8.32667268468865E-17));
#1175=DIRECTION('center_axis',(8.32667268468865E-17,-2.88889491658097E-34,
1.));
#1176=DIRECTION('ref_axis',(1.,-3.46944695195361E-18,-8.32667268468865E-17));
#1177=DIRECTION('center_axis',(-8.32667268468865E-17,2.88889491658097E-34,
-1.));
#1178=DIRECTION('ref_axis',(1.,-3.46944695195361E-18,-8.32667268468865E-17));
#1179=DIRECTION('center_axis',(-8.32667268468865E-17,2.88889491658097E-34,
-1.));
#1180=DIRECTION('ref_axis',(1.,-3.46944695195361E-18,-8.32667268468865E-17));
#1181=DIRECTION('',(8.32667268468865E-17,-2.88889491658097E-34,1.));
#1182=DIRECTION('center_axis',(-1.11022302462515E-16,6.54816181091661E-33,
-1.));
#1183=DIRECTION('ref_axis',(-1.,3.46944695195361E-18,1.11022302462515E-16));
#1184=DIRECTION('center_axis',(1.11022302462515E-16,-6.54816181091661E-33,
1.));
#1185=DIRECTION('ref_axis',(-1.,3.46944695195361E-18,1.11022302462515E-16));
#1186=DIRECTION('',(-1.11022302462515E-16,6.54816181091661E-33,-1.));
#1187=DIRECTION('center_axis',(1.11022302462515E-16,-6.54816181091661E-33,
1.));
#1188=DIRECTION('ref_axis',(-1.,3.46944695195361E-18,1.11022302462515E-16));
#1189=DIRECTION('center_axis',(-1.11022302462515E-16,6.54816181091661E-33,
-1.));
#1190=DIRECTION('ref_axis',(-1.,3.46944695195361E-18,1.11022302462515E-16));
#1191=DIRECTION('center_axis',(-1.11022302462515E-16,6.54816181091661E-33,
-1.));
#1192=DIRECTION('ref_axis',(-1.,3.46944695195361E-18,1.11022302462515E-16));
#1193=DIRECTION('',(-1.11022302462515E-16,6.54816181091661E-33,-1.));
#1194=DIRECTION('center_axis',(-1.11022302462515E-16,6.54816181091661E-33,
-1.));
#1195=DIRECTION('ref_axis',(-1.,3.46944695195361E-18,1.11022302462515E-16));
#1196=DIRECTION('center_axis',(-1.11022302462515E-16,6.54816181091661E-33,
-1.));
#1197=DIRECTION('ref_axis',(-1.,3.46944695195361E-18,1.11022302462515E-16));
#1198=DIRECTION('center_axis',(-1.11022302462515E-16,6.54816181091661E-33,
-1.));
#1199=DIRECTION('ref_axis',(-1.,3.46944695195361E-18,1.11022302462515E-16));
#1200=DIRECTION('center_axis',(-1.11022302462515E-16,6.54816181091661E-33,
-1.));
#1201=DIRECTION('ref_axis',(-1.,3.46944695195361E-18,1.11022302462515E-16));
#1202=DIRECTION('center_axis',(1.11022302462515E-16,-6.54816181091661E-33,
1.));
#1203=DIRECTION('ref_axis',(-1.,3.46944695195361E-18,1.11022302462515E-16));
#1204=DIRECTION('',(-1.11022302462515E-16,6.54816181091661E-33,-1.));
#1205=DIRECTION('center_axis',(1.11022302462515E-16,-6.54816181091661E-33,
1.));
#1206=DIRECTION('ref_axis',(-1.,3.46944695195361E-18,1.11022302462515E-16));
#1207=DIRECTION('center_axis',(-1.11022302462515E-16,6.54816181091661E-33,
-1.));
#1208=DIRECTION('ref_axis',(-1.,3.46944695195361E-18,1.11022302462515E-16));
#1209=DIRECTION('center_axis',(-1.11022302462515E-16,6.54816181091661E-33,
-1.));
#1210=DIRECTION('ref_axis',(-1.,3.46944695195361E-18,1.11022302462515E-16));
#1211=DIRECTION('',(-1.11022302462515E-16,6.54816181091661E-33,-1.));
#1212=DIRECTION('center_axis',(-1.11022302462515E-16,6.54816181091661E-33,
-1.));
#1213=DIRECTION('ref_axis',(-1.,3.46944695195361E-18,1.11022302462515E-16));
#1214=DIRECTION('center_axis',(-1.11022302462515E-16,6.54816181091661E-33,
-1.));
#1215=DIRECTION('ref_axis',(-1.,3.46944695195361E-18,1.11022302462515E-16));
#1216=DIRECTION('center_axis',(-1.11022302462515E-16,6.54816181091661E-33,
-1.));
#1217=DIRECTION('ref_axis',(-1.,3.46944695195361E-18,1.11022302462515E-16));
#1218=DIRECTION('center_axis',(-1.11022302462515E-16,6.54816181091661E-33,
-1.));
#1219=DIRECTION('ref_axis',(-1.,3.46944695195361E-18,1.11022302462515E-16));
#1220=DIRECTION('center_axis',(1.11022302462515E-16,-6.54816181091661E-33,
1.));
#1221=DIRECTION('ref_axis',(-1.,3.46944695195361E-18,1.11022302462515E-16));
#1222=DIRECTION('',(-1.11022302462515E-16,6.54816181091661E-33,-1.));
#1223=DIRECTION('center_axis',(1.11022302462515E-16,-6.54816181091661E-33,
1.));
#1224=DIRECTION('ref_axis',(-1.,3.46944695195361E-18,1.11022302462515E-16));
#1225=DIRECTION('center_axis',(-1.11022302462515E-16,6.54816181091661E-33,
-1.));
#1226=DIRECTION('ref_axis',(-1.,3.46944695195361E-18,1.11022302462515E-16));
#1227=DIRECTION('center_axis',(-1.11022302462515E-16,6.54816181091661E-33,
-1.));
#1228=DIRECTION('ref_axis',(-1.,3.46944695195361E-18,1.11022302462515E-16));
#1229=DIRECTION('',(-1.11022302462515E-16,6.54816181091661E-33,-1.));
#1230=DIRECTION('center_axis',(-1.11022302462515E-16,6.54816181091661E-33,
-1.));
#1231=DIRECTION('ref_axis',(-1.,3.46944695195361E-18,1.11022302462515E-16));
#1232=DIRECTION('center_axis',(-1.11022302462515E-16,6.54816181091661E-33,
-1.));
#1233=DIRECTION('ref_axis',(-1.,3.46944695195361E-18,1.11022302462515E-16));
#1234=DIRECTION('center_axis',(-1.11022302462515E-16,6.54816181091661E-33,
-1.));
#1235=DIRECTION('ref_axis',(-1.,3.46944695195361E-18,1.11022302462515E-16));
#1236=DIRECTION('center_axis',(-1.11022302462515E-16,6.54816181091661E-33,
-1.));
#1237=DIRECTION('ref_axis',(-1.,3.46944695195361E-18,1.11022302462515E-16));
#1238=DIRECTION('center_axis',(1.11022302462515E-16,-6.54816181091661E-33,
1.));
#1239=DIRECTION('ref_axis',(-1.,3.46944695195361E-18,1.11022302462515E-16));
#1240=DIRECTION('',(-1.11022302462515E-16,6.54816181091661E-33,-1.));
#1241=DIRECTION('center_axis',(1.11022302462515E-16,-6.54816181091661E-33,
1.));
#1242=DIRECTION('ref_axis',(-1.,3.46944695195361E-18,1.11022302462515E-16));
#1243=DIRECTION('center_axis',(-1.11022302462515E-16,6.54816181091661E-33,
-1.));
#1244=DIRECTION('ref_axis',(-1.,3.46944695195361E-18,1.11022302462515E-16));
#1245=DIRECTION('center_axis',(-1.11022302462515E-16,6.54816181091661E-33,
-1.));
#1246=DIRECTION('ref_axis',(-1.,3.46944695195361E-18,1.11022302462515E-16));
#1247=DIRECTION('',(-1.11022302462515E-16,6.54816181091661E-33,-1.));
#1248=DIRECTION('center_axis',(-1.11022302462515E-16,6.54816181091661E-33,
-1.));
#1249=DIRECTION('ref_axis',(-1.,3.46944695195361E-18,1.11022302462515E-16));
#1250=DIRECTION('center_axis',(-1.11022302462515E-16,6.54816181091661E-33,
-1.));
#1251=DIRECTION('ref_axis',(-1.,3.46944695195361E-18,1.11022302462515E-16));
#1252=DIRECTION('center_axis',(-1.11022302462515E-16,6.54816181091661E-33,
-1.));
#1253=DIRECTION('ref_axis',(-1.,3.46944695195361E-18,1.11022302462515E-16));
#1254=DIRECTION('center_axis',(1.30012959462683E-16,-4.51073065922285E-34,
-1.));
#1255=DIRECTION('ref_axis',(3.46944695195361E-18,1.,-1.21450428426589E-47));
#1256=DIRECTION('center_axis',(1.30012959462683E-16,-4.51073065922285E-34,
-1.));
#1257=DIRECTION('ref_axis',(1.,-3.46944695195361E-18,8.32667268468867E-17));
#1258=DIRECTION('center_axis',(-8.32667268468867E-17,2.88889491658097E-34,
1.));
#1259=DIRECTION('ref_axis',(1.,-3.46944695195361E-18,8.32667268468867E-17));
#1260=DIRECTION('center_axis',(8.32667268468867E-17,-2.88889491658097E-34,
-1.));
#1261=DIRECTION('ref_axis',(1.,-3.46944695195361E-18,8.32667268468867E-17));
#1262=DIRECTION('center_axis',(8.32667268468867E-17,-2.88889491658097E-34,
-1.));
#1263=DIRECTION('ref_axis',(1.,-3.46944695195361E-18,8.32667268468867E-17));
#1264=DIRECTION('',(8.32667268468867E-17,-2.88889491658097E-34,-1.));
#1265=DIRECTION('center_axis',(1.30012959462683E-16,-4.51073065922285E-34,
-1.));
#1266=DIRECTION('ref_axis',(3.46944695195361E-18,1.,-1.20167501365745E-47));
#1267=DIRECTION('center_axis',(1.30012959462683E-16,-4.51073065922285E-34,
-1.));
#1268=DIRECTION('ref_axis',(1.,-3.46944695195361E-18,8.32667268468867E-17));
#1269=DIRECTION('center_axis',(-8.32667268468867E-17,2.88889491658097E-34,
1.));
#1270=DIRECTION('ref_axis',(1.,-3.46944695195361E-18,8.32667268468867E-17));
#1271=DIRECTION('center_axis',(8.32667268468867E-17,-2.88889491658097E-34,
-1.));
#1272=DIRECTION('ref_axis',(1.,-3.46944695195361E-18,8.32667268468867E-17));
#1273=DIRECTION('center_axis',(8.32667268468867E-17,-2.88889491658097E-34,
-1.));
#1274=DIRECTION('ref_axis',(1.,-3.46944695195361E-18,8.32667268468867E-17));
#1275=DIRECTION('',(8.32667268468867E-17,-2.88889491658097E-34,-1.));
#1276=DIRECTION('center_axis',(1.30012959462683E-16,-4.51073065922285E-34,
-1.));
#1277=DIRECTION('ref_axis',(3.46944695195361E-18,1.,-1.21450428426589E-47));
#1278=DIRECTION('center_axis',(1.30012959462683E-16,-4.51073065922285E-34,
-1.));
#1279=DIRECTION('ref_axis',(1.,-3.46944695195361E-18,8.32667268468867E-17));
#1280=DIRECTION('center_axis',(-8.32667268468867E-17,2.88889491658097E-34,
1.));
#1281=DIRECTION('ref_axis',(1.,-3.46944695195361E-18,8.32667268468867E-17));
#1282=DIRECTION('center_axis',(8.32667268468867E-17,-2.88889491658097E-34,
-1.));
#1283=DIRECTION('ref_axis',(1.,-3.46944695195361E-18,8.32667268468867E-17));
#1284=DIRECTION('center_axis',(8.32667268468867E-17,-2.88889491658097E-34,
-1.));
#1285=DIRECTION('ref_axis',(1.,-3.46944695195361E-18,8.32667268468867E-17));
#1286=DIRECTION('',(8.32667268468867E-17,-2.88889491658097E-34,-1.));
#1287=DIRECTION('center_axis',(1.30012959462683E-16,-4.51073065922285E-34,
-1.));
#1288=DIRECTION('ref_axis',(3.46944695195361E-18,1.,-1.21450428426589E-47));
#1289=DIRECTION('center_axis',(1.30012959462683E-16,-4.51073065922285E-34,
-1.));
#1290=DIRECTION('ref_axis',(1.,-3.46944695195361E-18,8.32667268468867E-17));
#1291=DIRECTION('center_axis',(-8.32667268468867E-17,2.88889491658097E-34,
1.));
#1292=DIRECTION('ref_axis',(1.,-3.46944695195361E-18,8.32667268468867E-17));
#1293=DIRECTION('center_axis',(8.32667268468867E-17,-2.88889491658097E-34,
-1.));
#1294=DIRECTION('ref_axis',(1.,-3.46944695195361E-18,8.32667268468867E-17));
#1295=DIRECTION('center_axis',(8.32667268468867E-17,-2.88889491658097E-34,
-1.));
#1296=DIRECTION('ref_axis',(1.,-3.46944695195361E-18,8.32667268468867E-17));
#1297=DIRECTION('',(8.32667268468867E-17,-2.88889491658097E-34,-1.));
#1298=DIRECTION('center_axis',(1.30012959462683E-16,-4.51073065922285E-34,
-1.));
#1299=DIRECTION('ref_axis',(3.46944695195361E-18,1.,-1.26582136669966E-47));
#1300=DIRECTION('center_axis',(1.30012959462683E-16,-4.51073065922285E-34,
-1.));
#1301=DIRECTION('ref_axis',(1.,-3.46944695195361E-18,8.32667268468865E-17));
#1302=DIRECTION('center_axis',(-8.32667268468865E-17,2.88889491658097E-34,
1.));
#1303=DIRECTION('ref_axis',(1.,-3.46944695195361E-18,8.32667268468865E-17));
#1304=DIRECTION('center_axis',(8.32667268468865E-17,-2.88889491658097E-34,
-1.));
#1305=DIRECTION('ref_axis',(1.,-3.46944695195361E-18,8.32667268468865E-17));
#1306=DIRECTION('center_axis',(8.32667268468865E-17,-2.88889491658097E-34,
-1.));
#1307=DIRECTION('ref_axis',(1.,-3.46944695195361E-18,8.32667268468865E-17));
#1308=DIRECTION('',(8.32667268468865E-17,-2.88889491658097E-34,-1.));
#1309=DIRECTION('',(0.,0.,1.));
#1310=DIRECTION('',(1.,0.,0.));
#1311=DIRECTION('',(0.,0.,1.));
#1312=DIRECTION('',(1.,0.,0.));
#1313=CARTESIAN_POINT('',(0.,0.,0.));
#1314=CARTESIAN_POINT('',(0.,0.,0.));
#1315=CARTESIAN_POINT('Origin',(-150.,31.000000089407,-144.));
#1316=CARTESIAN_POINT('',(-146.,31.000000089407,-124.));
#1317=CARTESIAN_POINT('Origin',(-150.,31.000000089407,-124.));
#1318=CARTESIAN_POINT('',(-146.,31.000000089407,-144.));
#1319=CARTESIAN_POINT('',(-146.,31.000000089407,-144.));
#1320=CARTESIAN_POINT('Origin',(-150.,31.000000089407,-144.));
#1321=CARTESIAN_POINT('Origin',(-150.,31.000000089407,-144.));
#1322=CARTESIAN_POINT('',(-139.1,31.000000089407,-124.));
#1323=CARTESIAN_POINT('Origin',(-150.,31.000000089407,-124.));
#1324=CARTESIAN_POINT('',(-139.1,31.000000089407,-144.));
#1325=CARTESIAN_POINT('',(-139.1,31.000000089407,-144.));
#1326=CARTESIAN_POINT('Origin',(-150.,31.000000089407,-144.));
#1327=CARTESIAN_POINT('Origin',(-150.,31.000000089407,-124.));
#1328=CARTESIAN_POINT('Origin',(-150.,31.000000089407,-144.));
#1329=CARTESIAN_POINT('',(0.,0.,0.));
#1330=CARTESIAN_POINT('Origin',(-150.,31.000000089407,144.));
#1331=CARTESIAN_POINT('',(-146.,31.000000089407,124.));
#1332=CARTESIAN_POINT('Origin',(-150.,31.000000089407,124.));
#1333=CARTESIAN_POINT('',(-146.,31.000000089407,144.));
#1334=CARTESIAN_POINT('',(-146.,31.000000089407,144.));
#1335=CARTESIAN_POINT('Origin',(-150.,31.000000089407,144.));
#1336=CARTESIAN_POINT('Origin',(-150.,31.000000089407,144.));
#1337=CARTESIAN_POINT('',(-139.1,31.000000089407,124.));
#1338=CARTESIAN_POINT('Origin',(-150.,31.000000089407,124.));
#1339=CARTESIAN_POINT('',(-139.1,31.000000089407,144.));
#1340=CARTESIAN_POINT('',(-139.1,31.000000089407,144.));
#1341=CARTESIAN_POINT('Origin',(-150.,31.000000089407,144.));
#1342=CARTESIAN_POINT('Origin',(-150.,31.000000089407,124.));
#1343=CARTESIAN_POINT('Origin',(-150.,31.000000089407,144.));
#1344=CARTESIAN_POINT('Origin',(-200.,-21.0000002384186,-125.000001788139));
#1345=CARTESIAN_POINT('',(-46.1679839759319,-17.,-125.000001788139));
#1346=CARTESIAN_POINT('Origin',(-42.1679839759319,-17.,-125.000001788139));
#1347=CARTESIAN_POINT('Origin',(-42.1679839759319,-17.,-188.));
#1348=CARTESIAN_POINT('',(-46.1679839759319,-17.,-188.));
#1349=CARTESIAN_POINT('Origin',(-42.1679839759319,-17.,-188.));
#1350=CARTESIAN_POINT('Origin',(-42.1679839759319,-17.,152.));
#1351=CARTESIAN_POINT('',(-46.1679839759319,-17.,152.));
#1352=CARTESIAN_POINT('Origin',(-200.,-21.0000002384186,-125.000001788139));
#1353=CARTESIAN_POINT('',(-126.167983975932,-17.,-125.000001788139));
#1354=CARTESIAN_POINT('Origin',(-122.167983975932,-17.,-125.000001788139));
#1355=CARTESIAN_POINT('Origin',(-122.167983975932,-17.,-188.));
#1356=CARTESIAN_POINT('',(-126.167983975932,-17.,-188.));
#1357=CARTESIAN_POINT('Origin',(-122.167983975932,-17.,-188.));
#1358=CARTESIAN_POINT('Origin',(-122.167983975932,-17.,152.));
#1359=CARTESIAN_POINT('',(-126.167983975932,-17.,152.));
#1360=CARTESIAN_POINT('Origin',(-200.,-21.0000002384186,-125.000001788139));
#1361=CARTESIAN_POINT('',(113.832016024068,-17.,-125.000001788139));
#1362=CARTESIAN_POINT('Origin',(117.832016024068,-17.,-125.000001788139));
#1363=CARTESIAN_POINT('Origin',(117.832016024068,-17.,-188.));
#1364=CARTESIAN_POINT('',(113.832016024068,-17.,-188.));
#1365=CARTESIAN_POINT('Origin',(117.832016024068,-17.,-188.));
#1366=CARTESIAN_POINT('Origin',(117.832016024068,-17.,152.));
#1367=CARTESIAN_POINT('',(113.832016024068,-17.,152.));
#1368=CARTESIAN_POINT('Origin',(-200.,-21.0000002384186,-125.000001788139));
#1369=CARTESIAN_POINT('',(33.8320160240681,-17.,-125.000001788139));
#1370=CARTESIAN_POINT('Origin',(37.8320160240681,-17.,-125.000001788139));
#1371=CARTESIAN_POINT('Origin',(37.8320160240681,-17.,-188.));
#1372=CARTESIAN_POINT('',(33.8320160240681,-17.,-188.));
#1373=CARTESIAN_POINT('Origin',(37.8320160240681,-17.,-188.));
#1374=CARTESIAN_POINT('Origin',(37.8320160240681,-17.,152.));
#1375=CARTESIAN_POINT('',(33.8320160240681,-17.,152.));
#1376=CARTESIAN_POINT('Origin',(117.832016024068,-17.,-125.));
#1377=CARTESIAN_POINT('',(121.832016024068,-17.,-145.));
#1378=CARTESIAN_POINT('Origin',(117.832016024068,-17.,-145.));
#1379=CARTESIAN_POINT('',(121.832016024068,-17.,-125.));
#1380=CARTESIAN_POINT('',(121.832016024068,-17.,-125.));
#1381=CARTESIAN_POINT('Origin',(117.832016024068,-17.,-125.));
#1382=CARTESIAN_POINT('Origin',(117.832016024068,-17.,-125.));
#1383=CARTESIAN_POINT('',(128.732016024068,-17.,-145.));
#1384=CARTESIAN_POINT('Origin',(117.832016024068,-17.,-145.));
#1385=CARTESIAN_POINT('',(128.732016024068,-17.,-125.));
#1386=CARTESIAN_POINT('',(128.732016024068,-17.,-125.));
#1387=CARTESIAN_POINT('Origin',(117.832016024068,-17.,-125.));
#1388=CARTESIAN_POINT('Origin',(117.832016024068,-17.,-145.));
#1389=CARTESIAN_POINT('Origin',(117.832016024068,-17.,-125.));
#1390=CARTESIAN_POINT('Origin',(37.832016024068,-17.,-125.));
#1391=CARTESIAN_POINT('',(41.832016024068,-17.,-145.));
#1392=CARTESIAN_POINT('Origin',(37.832016024068,-17.,-145.));
#1393=CARTESIAN_POINT('',(41.832016024068,-17.,-125.));
#1394=CARTESIAN_POINT('',(41.832016024068,-17.,-125.));
#1395=CARTESIAN_POINT('Origin',(37.832016024068,-17.,-125.));
#1396=CARTESIAN_POINT('Origin',(37.832016024068,-17.,-125.));
#1397=CARTESIAN_POINT('',(48.732016024068,-17.,-145.));
#1398=CARTESIAN_POINT('Origin',(37.832016024068,-17.,-145.));
#1399=CARTESIAN_POINT('',(48.732016024068,-17.,-125.));
#1400=CARTESIAN_POINT('',(48.732016024068,-17.,-125.));
#1401=CARTESIAN_POINT('Origin',(37.832016024068,-17.,-125.));
#1402=CARTESIAN_POINT('Origin',(37.832016024068,-17.,-145.));
#1403=CARTESIAN_POINT('Origin',(37.832016024068,-17.,-125.));
#1404=CARTESIAN_POINT('Origin',(-42.167983975932,-17.,-125.));
#1405=CARTESIAN_POINT('',(-38.167983975932,-17.,-145.));
#1406=CARTESIAN_POINT('Origin',(-42.167983975932,-17.,-145.));
#1407=CARTESIAN_POINT('',(-38.167983975932,-17.,-125.));
#1408=CARTESIAN_POINT('',(-38.167983975932,-17.,-125.));
#1409=CARTESIAN_POINT('Origin',(-42.167983975932,-17.,-125.));
#1410=CARTESIAN_POINT('Origin',(-42.167983975932,-17.,-125.));
#1411=CARTESIAN_POINT('',(-31.267983975932,-17.,-145.));
#1412=CARTESIAN_POINT('Origin',(-42.167983975932,-17.,-145.));
#1413=CARTESIAN_POINT('',(-31.267983975932,-17.,-125.));
#1414=CARTESIAN_POINT('',(-31.267983975932,-17.,-125.));
#1415=CARTESIAN_POINT('Origin',(-42.167983975932,-17.,-125.));
#1416=CARTESIAN_POINT('Origin',(-42.167983975932,-17.,-145.));
#1417=CARTESIAN_POINT('Origin',(-42.167983975932,-17.,-125.));
#1418=CARTESIAN_POINT('Origin',(-122.167983975932,-17.,-125.));
#1419=CARTESIAN_POINT('',(-118.167983975932,-17.,-145.));
#1420=CARTESIAN_POINT('Origin',(-122.167983975932,-17.,-145.));
#1421=CARTESIAN_POINT('',(-118.167983975932,-17.,-125.));
#1422=CARTESIAN_POINT('',(-118.167983975932,-17.,-125.));
#1423=CARTESIAN_POINT('Origin',(-122.167983975932,-17.,-125.));
#1424=CARTESIAN_POINT('Origin',(-122.167983975932,-17.,-125.));
#1425=CARTESIAN_POINT('',(-111.267983975932,-17.,-145.));
#1426=CARTESIAN_POINT('Origin',(-122.167983975932,-17.,-145.));
#1427=CARTESIAN_POINT('',(-111.267983975932,-17.,-125.));
#1428=CARTESIAN_POINT('',(-111.267983975932,-17.,-125.));
#1429=CARTESIAN_POINT('Origin',(-122.167983975932,-17.,-125.));
#1430=CARTESIAN_POINT('Origin',(-122.167983975932,-17.,-145.));
#1431=CARTESIAN_POINT('Origin',(-122.167983975932,-17.,-125.));
#1432=CARTESIAN_POINT('Origin',(-467.832016024069,26.9999998509883,-125.000001788139));
#1433=CARTESIAN_POINT('',(-154.000000000001,31.0000000894069,-125.000001788139));
#1434=CARTESIAN_POINT('Origin',(-150.000000000001,31.0000000894069,-125.000001788139));
#1435=CARTESIAN_POINT('Origin',(-150.000000000001,31.0000000894069,-179.907));
#1436=CARTESIAN_POINT('',(-154.000000000001,31.0000000894069,-179.907));
#1437=CARTESIAN_POINT('Origin',(-150.000000000001,31.0000000894069,-179.907));
#1438=CARTESIAN_POINT('Origin',(-150.000000000001,31.0000000894069,160.093));
#1439=CARTESIAN_POINT('',(-154.000000000001,31.0000000894069,160.093));
#1440=CARTESIAN_POINT('Origin',(117.832016024068,-17.,125.));
#1441=CARTESIAN_POINT('',(121.832016024068,-17.,145.));
#1442=CARTESIAN_POINT('Origin',(117.832016024068,-17.,145.));
#1443=CARTESIAN_POINT('',(121.832016024068,-17.,125.));
#1444=CARTESIAN_POINT('',(121.832016024068,-17.,125.));
#1445=CARTESIAN_POINT('Origin',(117.832016024068,-17.,125.));
#1446=CARTESIAN_POINT('Origin',(117.832016024068,-17.,125.));
#1447=CARTESIAN_POINT('',(128.732016024068,-17.,145.));
#1448=CARTESIAN_POINT('Origin',(117.832016024068,-17.,145.));
#1449=CARTESIAN_POINT('',(128.732016024068,-17.,125.));
#1450=CARTESIAN_POINT('',(128.732016024068,-17.,125.));
#1451=CARTESIAN_POINT('Origin',(117.832016024068,-17.,125.));
#1452=CARTESIAN_POINT('Origin',(117.832016024068,-17.,145.));
#1453=CARTESIAN_POINT('Origin',(117.832016024068,-17.,125.));
#1454=CARTESIAN_POINT('Origin',(37.832016024068,-17.,125.));
#1455=CARTESIAN_POINT('',(41.832016024068,-17.,145.));
#1456=CARTESIAN_POINT('Origin',(37.832016024068,-17.,145.));
#1457=CARTESIAN_POINT('',(41.832016024068,-17.,125.));
#1458=CARTESIAN_POINT('',(41.832016024068,-17.,125.));
#1459=CARTESIAN_POINT('Origin',(37.832016024068,-17.,125.));
#1460=CARTESIAN_POINT('Origin',(37.832016024068,-17.,125.));
#1461=CARTESIAN_POINT('',(48.732016024068,-17.,145.));
#1462=CARTESIAN_POINT('Origin',(37.832016024068,-17.,145.));
#1463=CARTESIAN_POINT('',(48.732016024068,-17.,125.));
#1464=CARTESIAN_POINT('',(48.732016024068,-17.,125.));
#1465=CARTESIAN_POINT('Origin',(37.832016024068,-17.,125.));
#1466=CARTESIAN_POINT('Origin',(37.832016024068,-17.,145.));
#1467=CARTESIAN_POINT('Origin',(37.832016024068,-17.,125.));
#1468=CARTESIAN_POINT('Origin',(-42.167983975932,-17.,125.));
#1469=CARTESIAN_POINT('',(-38.167983975932,-17.,145.));
#1470=CARTESIAN_POINT('Origin',(-42.167983975932,-17.,145.));
#1471=CARTESIAN_POINT('',(-38.167983975932,-17.,125.));
#1472=CARTESIAN_POINT('',(-38.167983975932,-17.,125.));
#1473=CARTESIAN_POINT('Origin',(-42.167983975932,-17.,125.));
#1474=CARTESIAN_POINT('Origin',(-42.167983975932,-17.,125.));
#1475=CARTESIAN_POINT('',(-31.267983975932,-17.,145.));
#1476=CARTESIAN_POINT('Origin',(-42.167983975932,-17.,145.));
#1477=CARTESIAN_POINT('',(-31.267983975932,-17.,125.));
#1478=CARTESIAN_POINT('',(-31.267983975932,-17.,125.));
#1479=CARTESIAN_POINT('Origin',(-42.167983975932,-17.,125.));
#1480=CARTESIAN_POINT('Origin',(-42.167983975932,-17.,145.));
#1481=CARTESIAN_POINT('Origin',(-42.167983975932,-17.,125.));
#1482=CARTESIAN_POINT('Origin',(-122.167983975932,-17.,125.));
#1483=CARTESIAN_POINT('',(-118.167983975932,-17.,145.));
#1484=CARTESIAN_POINT('Origin',(-122.167983975932,-17.,145.));
#1485=CARTESIAN_POINT('',(-118.167983975932,-17.,125.));
#1486=CARTESIAN_POINT('',(-118.167983975932,-17.,125.));
#1487=CARTESIAN_POINT('Origin',(-122.167983975932,-17.,125.));
#1488=CARTESIAN_POINT('Origin',(-122.167983975932,-17.,125.));
#1489=CARTESIAN_POINT('',(-111.267983975932,-17.,145.));
#1490=CARTESIAN_POINT('Origin',(-122.167983975932,-17.,145.));
#1491=CARTESIAN_POINT('',(-111.267983975932,-17.,125.));
#1492=CARTESIAN_POINT('',(-111.267983975932,-17.,125.));
#1493=CARTESIAN_POINT('Origin',(-122.167983975932,-17.,125.));
#1494=CARTESIAN_POINT('Origin',(-122.167983975932,-17.,145.));
#1495=CARTESIAN_POINT('Origin',(-122.167983975932,-17.,125.));
#1496=CARTESIAN_POINT('Origin',(-200.,-21.0000002384186,125.000001788139));
#1497=CARTESIAN_POINT('',(-46.1679839759319,-17.,125.000001788139));
#1498=CARTESIAN_POINT('Origin',(-42.1679839759319,-17.,125.000001788139));
#1499=CARTESIAN_POINT('Origin',(-42.1679839759319,-17.,188.));
#1500=CARTESIAN_POINT('',(-46.1679839759319,-17.,188.));
#1501=CARTESIAN_POINT('Origin',(-42.1679839759319,-17.,188.));
#1502=CARTESIAN_POINT('Origin',(-42.1679839759319,-17.,-152.));
#1503=CARTESIAN_POINT('',(-46.1679839759319,-17.,-152.));
#1504=CARTESIAN_POINT('Origin',(-200.,-21.0000002384186,125.000001788139));
#1505=CARTESIAN_POINT('',(113.832016024068,-17.,125.000001788139));
#1506=CARTESIAN_POINT('Origin',(117.832016024068,-17.,125.000001788139));
#1507=CARTESIAN_POINT('Origin',(117.832016024068,-17.,188.));
#1508=CARTESIAN_POINT('',(113.832016024068,-17.,188.));
#1509=CARTESIAN_POINT('Origin',(117.832016024068,-17.,188.));
#1510=CARTESIAN_POINT('Origin',(117.832016024068,-17.,-152.));
#1511=CARTESIAN_POINT('',(113.832016024068,-17.,-152.));
#1512=CARTESIAN_POINT('Origin',(-200.,-21.0000002384186,125.000001788139));
#1513=CARTESIAN_POINT('',(-126.167983975932,-17.,125.000001788139));
#1514=CARTESIAN_POINT('Origin',(-122.167983975932,-17.,125.000001788139));
#1515=CARTESIAN_POINT('Origin',(-122.167983975932,-17.,188.));
#1516=CARTESIAN_POINT('',(-126.167983975932,-17.,188.));
#1517=CARTESIAN_POINT('Origin',(-122.167983975932,-17.,188.));
#1518=CARTESIAN_POINT('Origin',(-122.167983975932,-17.,-152.));
#1519=CARTESIAN_POINT('',(-126.167983975932,-17.,-152.));
#1520=CARTESIAN_POINT('Origin',(-200.,-21.0000002384186,125.000001788139));
#1521=CARTESIAN_POINT('',(33.8320160240681,-17.,125.000001788139));
#1522=CARTESIAN_POINT('Origin',(37.8320160240681,-17.,125.000001788139));
#1523=CARTESIAN_POINT('Origin',(37.8320160240681,-17.,188.));
#1524=CARTESIAN_POINT('',(33.8320160240681,-17.,188.));
#1525=CARTESIAN_POINT('Origin',(37.8320160240681,-17.,188.));
#1526=CARTESIAN_POINT('Origin',(37.8320160240681,-17.,-152.));
#1527=CARTESIAN_POINT('',(33.8320160240681,-17.,-152.));
#1528=CARTESIAN_POINT('Origin',(-467.832016024069,26.9999998509883,125.000001788139));
#1529=CARTESIAN_POINT('',(-154.000000000001,31.0000000894069,125.000001788139));
#1530=CARTESIAN_POINT('Origin',(-150.000000000001,31.0000000894069,125.000001788139));
#1531=CARTESIAN_POINT('Origin',(-150.000000000001,31.0000000894069,179.907));
#1532=CARTESIAN_POINT('',(-154.000000000001,31.0000000894069,179.907));
#1533=CARTESIAN_POINT('Origin',(-150.000000000001,31.0000000894069,179.907));
#1534=CARTESIAN_POINT('Origin',(-150.000000000001,31.0000000894069,-160.093));
#1535=CARTESIAN_POINT('',(-154.000000000001,31.0000000894069,-160.093));
#1536=CARTESIAN_POINT('',(0.,0.,-1.00000000000001));
#1537=CARTESIAN_POINT('',(0.,0.,1.00000000000001));
#1538=UNCERTAINTY_MEASURE_WITH_UNIT(LENGTH_MEASURE(0.01),#1546,
'DISTANCE_ACCURACY_VALUE',
'Maximum model space distance between geometric entities at asserted c
onnectivities');
#1539=UNCERTAINTY_MEASURE_WITH_UNIT(LENGTH_MEASURE(0.01),#1546,
'DISTANCE_ACCURACY_VALUE',
'Maximum model space distance between geometric entities at asserted c
onnectivities');
#1540=UNCERTAINTY_MEASURE_WITH_UNIT(LENGTH_MEASURE(0.01),#1546,
'DISTANCE_ACCURACY_VALUE',
'Maximum model space distance between geometric entities at asserted c
onnectivities');
#1541=UNCERTAINTY_MEASURE_WITH_UNIT(LENGTH_MEASURE(0.01),#1546,
'DISTANCE_ACCURACY_VALUE',
'Maximum model space distance between geometric entities at asserted c
onnectivities');
#1542=(
GEOMETRIC_REPRESENTATION_CONTEXT(3)
GLOBAL_UNCERTAINTY_ASSIGNED_CONTEXT((#1538))
GLOBAL_UNIT_ASSIGNED_CONTEXT((#1546,#1548,#1549))
REPRESENTATION_CONTEXT('','3D')
);
#1543=(
GEOMETRIC_REPRESENTATION_CONTEXT(3)
GLOBAL_UNCERTAINTY_ASSIGNED_CONTEXT((#1539))
GLOBAL_UNIT_ASSIGNED_CONTEXT((#1546,#1548,#1549))
REPRESENTATION_CONTEXT('','3D')
);
#1544=(
GEOMETRIC_REPRESENTATION_CONTEXT(3)
GLOBAL_UNCERTAINTY_ASSIGNED_CONTEXT((#1540))
GLOBAL_UNIT_ASSIGNED_CONTEXT((#1546,#1548,#1549))
REPRESENTATION_CONTEXT('','3D')
);
#1545=(
GEOMETRIC_REPRESENTATION_CONTEXT(3)
GLOBAL_UNCERTAINTY_ASSIGNED_CONTEXT((#1541))
GLOBAL_UNIT_ASSIGNED_CONTEXT((#1546,#1548,#1549))
REPRESENTATION_CONTEXT('','3D')
);
#1546=(
LENGTH_UNIT()
NAMED_UNIT(*)
SI_UNIT(.MILLI.,.METRE.)
);
#1547=(
LENGTH_UNIT()
NAMED_UNIT(*)
SI_UNIT($,.METRE.)
);
#1548=(
NAMED_UNIT(*)
PLANE_ANGLE_UNIT()
SI_UNIT($,.RADIAN.)
);
#1549=(
NAMED_UNIT(*)
SI_UNIT($,.STERADIAN.)
SOLID_ANGLE_UNIT()
);
#1550=SHAPE_DEFINITION_REPRESENTATION(#1553,#1558);
#1551=SHAPE_DEFINITION_REPRESENTATION(#1554,#1559);
#1552=SHAPE_DEFINITION_REPRESENTATION(#1555,#1560);
#1553=PRODUCT_DEFINITION_SHAPE('',$,#1562);
#1554=PRODUCT_DEFINITION_SHAPE('',$,#1563);
#1555=PRODUCT_DEFINITION_SHAPE('',$,#1564);
#1556=PRODUCT_DEFINITION_SHAPE($,$,#17);
#1557=PRODUCT_DEFINITION_SHAPE($,$,#18);
#1558=SHAPE_REPRESENTATION('',(#878,#1011,#1012),#1542);
#1559=SHAPE_REPRESENTATION('',(#879),#1543);
#1560=SHAPE_REPRESENTATION('',(#888),#1544);
#1561=PRODUCT_DEFINITION_CONTEXT('part definition',#1572,'design');
#1562=PRODUCT_DEFINITION('2026-05-29-16-21-54-326','Eixo_RoleteCarga',#1565,
#1561);
#1563=PRODUCT_DEFINITION('2026-05-29-16-21-54-326_1',
'Rolete (1)(Espelhar)',#1566,#1561);
#1564=PRODUCT_DEFINITION('2026-05-29-16-21-54-325','Rolete (1)',#1567,#1561);
#1565=PRODUCT_DEFINITION_FORMATION('',$,#1574);
#1566=PRODUCT_DEFINITION_FORMATION('',$,#1575);
#1567=PRODUCT_DEFINITION_FORMATION('',$,#1576);
#1568=PRODUCT_RELATED_PRODUCT_CATEGORY('Eixo_RoleteCarga',
'Eixo_RoleteCarga',(#1574));
#1569=PRODUCT_RELATED_PRODUCT_CATEGORY('Rolete (1)(Espelhar)',
'Rolete (1)(Espelhar)',(#1575));
#1570=PRODUCT_RELATED_PRODUCT_CATEGORY('Rolete (1)','Rolete (1)',(#1576));
#1571=APPLICATION_PROTOCOL_DEFINITION('international standard',
'automotive_design',2009,#1572);
#1572=APPLICATION_CONTEXT(
'Core Data for Automotive Mechanical Design Process');
#1573=PRODUCT_CONTEXT('part definition',#1572,'mechanical');
#1574=PRODUCT('2026-05-29-16-21-54-326','Eixo_RoleteCarga',$,(#1573));
#1575=PRODUCT('2026-05-29-16-21-54-326_1','Rolete (1)(Espelhar)',$,(#1573));
#1576=PRODUCT('2026-05-29-16-21-54-325','Rolete (1)',$,(#1573));
#1577=PRESENTATION_STYLE_ASSIGNMENT((#1578));
#1578=SURFACE_STYLE_USAGE(.BOTH.,#1579);
#1579=SURFACE_SIDE_STYLE('',(#1580));
#1580=SURFACE_STYLE_FILL_AREA(#1581);
#1581=FILL_AREA_STYLE('A\X\E7o - Acetinado',(#1582));
#1582=FILL_AREA_STYLE_COLOUR('A\X\E7o - Acetinado',#1583);
#1583=COLOUR_RGB('A\X\E7o - Acetinado',0.627450980392157,0.627450980392157,
0.627450980392157);
ENDSEC;
END-ISO-10303-21;
