ISO-10303-21;
HEADER;
/* Generated by software containing ST-Developer
 * from STEP Tools, Inc. (www.steptools.com) 
 */

FILE_DESCRIPTION(
/* description */ (''),
/* implementation_level */ '2;1');

FILE_NAME(
/* name */ 'Eixo_Discos.step',
/* time_stamp */ '2026-06-22T01:03:31-03:00',
/* author */ (''),
/* organization */ (''),
/* preprocessor_version */ 'ST-DEVELOPER v20.1',
/* originating_system */ 'Autodesk Translation Framework v15.8.0.0',
/* authorisation */ '');

FILE_SCHEMA (('AUTOMOTIVE_DESIGN { 1 0 10303 214 3 1 1 }'));
ENDSEC;

DATA;
#10=MECHANICAL_DESIGN_GEOMETRIC_PRESENTATION_REPRESENTATION('',(#13),#995);
#11=SHAPE_REPRESENTATION_RELATIONSHIP('SRR','None',#1002,#12);
#12=ADVANCED_BREP_SHAPE_REPRESENTATION('',(#14),#994);
#13=STYLED_ITEM('',(#1011),#14);
#14=MANIFOLD_SOLID_BREP('Corpo1',#615);
#15=FACE_BOUND('',#86,.T.);
#16=FACE_BOUND('',#93,.T.);
#17=FACE_BOUND('',#97,.T.);
#18=PLANE('',#632);
#19=PLANE('',#636);
#20=PLANE('',#637);
#21=PLANE('',#638);
#22=PLANE('',#639);
#23=PLANE('',#640);
#24=PLANE('',#641);
#25=PLANE('',#643);
#26=PLANE('',#646);
#27=PLANE('',#647);
#28=PLANE('',#648);
#29=PLANE('',#649);
#30=PLANE('',#650);
#31=PLANE('',#651);
#32=PLANE('',#652);
#33=PLANE('',#653);
#34=PLANE('',#654);
#35=PLANE('',#655);
#36=PLANE('',#656);
#37=PLANE('',#657);
#38=PLANE('',#658);
#39=PLANE('',#659);
#40=PLANE('',#660);
#41=PLANE('',#661);
#42=PLANE('',#662);
#43=PLANE('',#663);
#44=PLANE('',#664);
#45=PLANE('',#665);
#46=FACE_OUTER_BOUND('',#77,.T.);
#47=FACE_OUTER_BOUND('',#78,.T.);
#48=FACE_OUTER_BOUND('',#79,.T.);
#49=FACE_OUTER_BOUND('',#80,.T.);
#50=FACE_OUTER_BOUND('',#81,.T.);
#51=FACE_OUTER_BOUND('',#82,.T.);
#52=FACE_OUTER_BOUND('',#83,.T.);
#53=FACE_OUTER_BOUND('',#84,.T.);
#54=FACE_OUTER_BOUND('',#85,.T.);
#55=FACE_OUTER_BOUND('',#87,.T.);
#56=FACE_OUTER_BOUND('',#88,.T.);
#57=FACE_OUTER_BOUND('',#89,.T.);
#58=FACE_OUTER_BOUND('',#90,.T.);
#59=FACE_OUTER_BOUND('',#91,.T.);
#60=FACE_OUTER_BOUND('',#92,.T.);
#61=FACE_OUTER_BOUND('',#94,.T.);
#62=FACE_OUTER_BOUND('',#95,.T.);
#63=FACE_OUTER_BOUND('',#96,.T.);
#64=FACE_OUTER_BOUND('',#98,.T.);
#65=FACE_OUTER_BOUND('',#99,.T.);
#66=FACE_OUTER_BOUND('',#100,.T.);
#67=FACE_OUTER_BOUND('',#101,.T.);
#68=FACE_OUTER_BOUND('',#102,.T.);
#69=FACE_OUTER_BOUND('',#103,.T.);
#70=FACE_OUTER_BOUND('',#104,.T.);
#71=FACE_OUTER_BOUND('',#105,.T.);
#72=FACE_OUTER_BOUND('',#106,.T.);
#73=FACE_OUTER_BOUND('',#107,.T.);
#74=FACE_OUTER_BOUND('',#108,.T.);
#75=FACE_OUTER_BOUND('',#109,.T.);
#76=FACE_OUTER_BOUND('',#110,.T.);
#77=EDGE_LOOP('',(#413,#414,#415,#416));
#78=EDGE_LOOP('',(#417,#418,#419,#420,#421,#422,#423,#424,#425,#426,#427,
#428,#429));
#79=EDGE_LOOP('',(#430,#431,#432,#433));
#80=EDGE_LOOP('',(#434,#435,#436,#437));
#81=EDGE_LOOP('',(#438,#439,#440,#441));
#82=EDGE_LOOP('',(#442,#443,#444,#445));
#83=EDGE_LOOP('',(#446,#447,#448,#449));
#84=EDGE_LOOP('',(#450,#451,#452,#453));
#85=EDGE_LOOP('',(#454,#455,#456,#457));
#86=EDGE_LOOP('',(#458));
#87=EDGE_LOOP('',(#459));
#88=EDGE_LOOP('',(#460,#461,#462,#463));
#89=EDGE_LOOP('',(#464,#465,#466,#467));
#90=EDGE_LOOP('',(#468,#469,#470,#471,#472,#473,#474,#475,#476,#477,#478,
#479,#480));
#91=EDGE_LOOP('',(#481,#482,#483,#484));
#92=EDGE_LOOP('',(#485,#486,#487,#488,#489,#490,#491,#492,#493,#494,#495,
#496));
#93=EDGE_LOOP('',(#497,#498,#499,#500));
#94=EDGE_LOOP('',(#501,#502,#503,#504));
#95=EDGE_LOOP('',(#505,#506,#507,#508));
#96=EDGE_LOOP('',(#509,#510,#511,#512,#513,#514,#515,#516,#517,#518,#519,
#520));
#97=EDGE_LOOP('',(#521,#522,#523,#524));
#98=EDGE_LOOP('',(#525,#526,#527,#528));
#99=EDGE_LOOP('',(#529,#530,#531,#532));
#100=EDGE_LOOP('',(#533,#534,#535,#536));
#101=EDGE_LOOP('',(#537,#538,#539,#540));
#102=EDGE_LOOP('',(#541,#542,#543,#544));
#103=EDGE_LOOP('',(#545,#546,#547,#548));
#104=EDGE_LOOP('',(#549,#550,#551,#552));
#105=EDGE_LOOP('',(#553,#554,#555,#556));
#106=EDGE_LOOP('',(#557,#558,#559,#560,#561,#562));
#107=EDGE_LOOP('',(#563,#564,#565,#566,#567,#568));
#108=EDGE_LOOP('',(#569,#570,#571,#572));
#109=EDGE_LOOP('',(#573,#574,#575,#576));
#110=EDGE_LOOP('',(#577,#578,#579,#580));
#111=LINE('',#826,#189);
#112=LINE('',#829,#190);
#113=LINE('',#832,#191);
#114=LINE('',#834,#192);
#115=LINE('',#838,#193);
#116=LINE('',#840,#194);
#117=LINE('',#842,#195);
#118=LINE('',#844,#196);
#119=LINE('',#846,#197);
#120=LINE('',#848,#198);
#121=LINE('',#850,#199);
#122=LINE('',#852,#200);
#123=LINE('',#853,#201);
#124=LINE('',#858,#202);
#125=LINE('',#859,#203);
#126=LINE('',#862,#204);
#127=LINE('',#863,#205);
#128=LINE('',#866,#206);
#129=LINE('',#868,#207);
#130=LINE('',#869,#208);
#131=LINE('',#872,#209);
#132=LINE('',#873,#210);
#133=LINE('',#876,#211);
#134=LINE('',#877,#212);
#135=LINE('',#879,#213);
#136=LINE('',#882,#214);
#137=LINE('',#883,#215);
#138=LINE('',#890,#216);
#139=LINE('',#892,#217);
#140=LINE('',#895,#218);
#141=LINE('',#897,#219);
#142=LINE('',#899,#220);
#143=LINE('',#900,#221);
#144=LINE('',#902,#222);
#145=LINE('',#905,#223);
#146=LINE('',#907,#224);
#147=LINE('',#909,#225);
#148=LINE('',#911,#226);
#149=LINE('',#913,#227);
#150=LINE('',#915,#228);
#151=LINE('',#917,#229);
#152=LINE('',#919,#230);
#153=LINE('',#920,#231);
#154=LINE('',#923,#232);
#155=LINE('',#925,#233);
#156=LINE('',#927,#234);
#157=LINE('',#928,#235);
#158=LINE('',#931,#236);
#159=LINE('',#932,#237);
#160=LINE('',#935,#238);
#161=LINE('',#936,#239);
#162=LINE('',#939,#240);
#163=LINE('',#941,#241);
#164=LINE('',#943,#242);
#165=LINE('',#945,#243);
#166=LINE('',#947,#244);
#167=LINE('',#949,#245);
#168=LINE('',#950,#246);
#169=LINE('',#953,#247);
#170=LINE('',#955,#248);
#171=LINE('',#957,#249);
#172=LINE('',#958,#250);
#173=LINE('',#960,#251);
#174=LINE('',#961,#252);
#175=LINE('',#963,#253);
#176=LINE('',#965,#254);
#177=LINE('',#968,#255);
#178=LINE('',#970,#256);
#179=LINE('',#972,#257);
#180=LINE('',#974,#258);
#181=LINE('',#977,#259);
#182=LINE('',#979,#260);
#183=LINE('',#980,#261);
#184=LINE('',#983,#262);
#185=LINE('',#985,#263);
#186=LINE('',#986,#264);
#187=LINE('',#988,#265);
#188=LINE('',#990,#266);
#189=VECTOR('',#672,7.5);
#190=VECTOR('',#675,10.);
#191=VECTOR('',#678,10.);
#192=VECTOR('',#679,10.);
#193=VECTOR('',#682,10.);
#194=VECTOR('',#683,10.);
#195=VECTOR('',#684,10.);
#196=VECTOR('',#685,10.);
#197=VECTOR('',#686,10.);
#198=VECTOR('',#687,10.);
#199=VECTOR('',#688,10.);
#200=VECTOR('',#689,10.);
#201=VECTOR('',#690,10.);
#202=VECTOR('',#695,10.);
#203=VECTOR('',#696,10.);
#204=VECTOR('',#699,10.);
#205=VECTOR('',#700,10.);
#206=VECTOR('',#703,10.);
#207=VECTOR('',#704,10.);
#208=VECTOR('',#705,10.);
#209=VECTOR('',#708,10.);
#210=VECTOR('',#709,10.);
#211=VECTOR('',#712,10.);
#212=VECTOR('',#713,10.);
#213=VECTOR('',#716,10.);
#214=VECTOR('',#719,10.);
#215=VECTOR('',#720,10.);
#216=VECTOR('',#729,1.5);
#217=VECTOR('',#732,10.);
#218=VECTOR('',#735,10.);
#219=VECTOR('',#736,10.);
#220=VECTOR('',#737,10.);
#221=VECTOR('',#738,10.);
#222=VECTOR('',#741,10.);
#223=VECTOR('',#744,10.);
#224=VECTOR('',#745,10.);
#225=VECTOR('',#746,10.);
#226=VECTOR('',#747,10.);
#227=VECTOR('',#748,10.);
#228=VECTOR('',#749,10.);
#229=VECTOR('',#750,10.);
#230=VECTOR('',#751,10.);
#231=VECTOR('',#752,10.);
#232=VECTOR('',#753,10.);
#233=VECTOR('',#754,10.);
#234=VECTOR('',#755,10.);
#235=VECTOR('',#756,10.);
#236=VECTOR('',#759,10.);
#237=VECTOR('',#760,10.);
#238=VECTOR('',#763,10.);
#239=VECTOR('',#764,10.);
#240=VECTOR('',#767,10.);
#241=VECTOR('',#768,10.);
#242=VECTOR('',#769,10.);
#243=VECTOR('',#770,10.);
#244=VECTOR('',#771,10.);
#245=VECTOR('',#772,10.);
#246=VECTOR('',#773,10.);
#247=VECTOR('',#774,10.);
#248=VECTOR('',#775,10.);
#249=VECTOR('',#776,10.);
#250=VECTOR('',#777,10.);
#251=VECTOR('',#780,10.);
#252=VECTOR('',#781,10.);
#253=VECTOR('',#784,10.);
#254=VECTOR('',#787,10.);
#255=VECTOR('',#792,10.);
#256=VECTOR('',#795,10.);
#257=VECTOR('',#798,10.);
#258=VECTOR('',#801,10.);
#259=VECTOR('',#804,10.);
#260=VECTOR('',#805,10.);
#261=VECTOR('',#806,10.);
#262=VECTOR('',#809,10.);
#263=VECTOR('',#810,10.);
#264=VECTOR('',#811,10.);
#265=VECTOR('',#814,10.);
#266=VECTOR('',#817,10.);
#267=CIRCLE('',#630,7.5);
#268=CIRCLE('',#631,7.5);
#269=CIRCLE('',#633,7.5);
#270=CIRCLE('',#635,7.5);
#271=CIRCLE('',#642,1.465);
#272=CIRCLE('',#644,1.465);
#273=VERTEX_POINT('',#822);
#274=VERTEX_POINT('',#823);
#275=VERTEX_POINT('',#825);
#276=VERTEX_POINT('',#827);
#277=VERTEX_POINT('',#831);
#278=VERTEX_POINT('',#833);
#279=VERTEX_POINT('',#835);
#280=VERTEX_POINT('',#837);
#281=VERTEX_POINT('',#839);
#282=VERTEX_POINT('',#841);
#283=VERTEX_POINT('',#843);
#284=VERTEX_POINT('',#845);
#285=VERTEX_POINT('',#847);
#286=VERTEX_POINT('',#849);
#287=VERTEX_POINT('',#851);
#288=VERTEX_POINT('',#855);
#289=VERTEX_POINT('',#856);
#290=VERTEX_POINT('',#861);
#291=VERTEX_POINT('',#865);
#292=VERTEX_POINT('',#867);
#293=VERTEX_POINT('',#871);
#294=VERTEX_POINT('',#875);
#295=VERTEX_POINT('',#881);
#296=VERTEX_POINT('',#884);
#297=VERTEX_POINT('',#887);
#298=VERTEX_POINT('',#894);
#299=VERTEX_POINT('',#896);
#300=VERTEX_POINT('',#898);
#301=VERTEX_POINT('',#904);
#302=VERTEX_POINT('',#906);
#303=VERTEX_POINT('',#908);
#304=VERTEX_POINT('',#910);
#305=VERTEX_POINT('',#912);
#306=VERTEX_POINT('',#914);
#307=VERTEX_POINT('',#916);
#308=VERTEX_POINT('',#918);
#309=VERTEX_POINT('',#921);
#310=VERTEX_POINT('',#922);
#311=VERTEX_POINT('',#924);
#312=VERTEX_POINT('',#926);
#313=VERTEX_POINT('',#930);
#314=VERTEX_POINT('',#934);
#315=VERTEX_POINT('',#938);
#316=VERTEX_POINT('',#940);
#317=VERTEX_POINT('',#942);
#318=VERTEX_POINT('',#944);
#319=VERTEX_POINT('',#946);
#320=VERTEX_POINT('',#948);
#321=VERTEX_POINT('',#951);
#322=VERTEX_POINT('',#952);
#323=VERTEX_POINT('',#954);
#324=VERTEX_POINT('',#956);
#325=VERTEX_POINT('',#976);
#326=VERTEX_POINT('',#978);
#327=VERTEX_POINT('',#982);
#328=VERTEX_POINT('',#984);
#329=EDGE_CURVE('',#273,#274,#267,.T.);
#330=EDGE_CURVE('',#274,#275,#111,.T.);
#331=EDGE_CURVE('',#275,#276,#268,.T.);
#332=EDGE_CURVE('',#273,#276,#112,.T.);
#333=EDGE_CURVE('',#277,#275,#113,.T.);
#334=EDGE_CURVE('',#277,#278,#114,.T.);
#335=EDGE_CURVE('',#279,#278,#269,.T.);
#336=EDGE_CURVE('',#279,#280,#115,.T.);
#337=EDGE_CURVE('',#280,#281,#116,.T.);
#338=EDGE_CURVE('',#281,#282,#117,.T.);
#339=EDGE_CURVE('',#282,#283,#118,.T.);
#340=EDGE_CURVE('',#283,#284,#119,.T.);
#341=EDGE_CURVE('',#285,#284,#120,.T.);
#342=EDGE_CURVE('',#286,#285,#121,.T.);
#343=EDGE_CURVE('',#286,#287,#122,.T.);
#344=EDGE_CURVE('',#287,#276,#123,.T.);
#345=EDGE_CURVE('',#288,#289,#270,.T.);
#346=EDGE_CURVE('',#289,#279,#124,.T.);
#347=EDGE_CURVE('',#278,#288,#125,.T.);
#348=EDGE_CURVE('',#290,#289,#126,.T.);
#349=EDGE_CURVE('',#280,#290,#127,.T.);
#350=EDGE_CURVE('',#284,#291,#128,.T.);
#351=EDGE_CURVE('',#292,#283,#129,.T.);
#352=EDGE_CURVE('',#292,#291,#130,.T.);
#353=EDGE_CURVE('',#293,#274,#131,.T.);
#354=EDGE_CURVE('',#293,#277,#132,.T.);
#355=EDGE_CURVE('',#294,#292,#133,.T.);
#356=EDGE_CURVE('',#294,#282,#134,.T.);
#357=EDGE_CURVE('',#288,#293,#135,.T.);
#358=EDGE_CURVE('',#281,#295,#136,.T.);
#359=EDGE_CURVE('',#295,#290,#137,.T.);
#360=EDGE_CURVE('',#296,#296,#271,.T.);
#361=EDGE_CURVE('',#297,#297,#272,.T.);
#362=EDGE_CURVE('',#297,#296,#138,.T.);
#363=EDGE_CURVE('',#294,#295,#139,.T.);
#364=EDGE_CURVE('',#273,#298,#140,.T.);
#365=EDGE_CURVE('',#299,#298,#141,.T.);
#366=EDGE_CURVE('',#300,#299,#142,.T.);
#367=EDGE_CURVE('',#300,#291,#143,.T.);
#368=EDGE_CURVE('',#298,#287,#144,.T.);
#369=EDGE_CURVE('',#286,#301,#145,.T.);
#370=EDGE_CURVE('',#302,#301,#146,.T.);
#371=EDGE_CURVE('',#303,#302,#147,.T.);
#372=EDGE_CURVE('',#304,#303,#148,.T.);
#373=EDGE_CURVE('',#305,#304,#149,.T.);
#374=EDGE_CURVE('',#305,#306,#150,.T.);
#375=EDGE_CURVE('',#306,#307,#151,.T.);
#376=EDGE_CURVE('',#308,#307,#152,.T.);
#377=EDGE_CURVE('',#308,#299,#153,.T.);
#378=EDGE_CURVE('',#309,#310,#154,.T.);
#379=EDGE_CURVE('',#311,#310,#155,.T.);
#380=EDGE_CURVE('',#311,#312,#156,.T.);
#381=EDGE_CURVE('',#309,#312,#157,.T.);
#382=EDGE_CURVE('',#285,#313,#158,.T.);
#383=EDGE_CURVE('',#301,#313,#159,.T.);
#384=EDGE_CURVE('',#314,#308,#160,.T.);
#385=EDGE_CURVE('',#314,#300,#161,.T.);
#386=EDGE_CURVE('',#315,#314,#162,.T.);
#387=EDGE_CURVE('',#316,#315,#163,.T.);
#388=EDGE_CURVE('',#317,#316,#164,.T.);
#389=EDGE_CURVE('',#317,#318,#165,.T.);
#390=EDGE_CURVE('',#318,#319,#166,.T.);
#391=EDGE_CURVE('',#319,#320,#167,.T.);
#392=EDGE_CURVE('',#313,#320,#168,.T.);
#393=EDGE_CURVE('',#321,#322,#169,.T.);
#394=EDGE_CURVE('',#323,#322,#170,.T.);
#395=EDGE_CURVE('',#323,#324,#171,.T.);
#396=EDGE_CURVE('',#321,#324,#172,.T.);
#397=EDGE_CURVE('',#309,#324,#173,.T.);
#398=EDGE_CURVE('',#321,#312,#174,.T.);
#399=EDGE_CURVE('',#311,#322,#175,.T.);
#400=EDGE_CURVE('',#323,#310,#176,.T.);
#401=EDGE_CURVE('',#307,#315,#177,.T.);
#402=EDGE_CURVE('',#320,#302,#178,.T.);
#403=EDGE_CURVE('',#303,#319,#179,.T.);
#404=EDGE_CURVE('',#316,#306,#180,.T.);
#405=EDGE_CURVE('',#325,#305,#181,.T.);
#406=EDGE_CURVE('',#326,#325,#182,.T.);
#407=EDGE_CURVE('',#326,#317,#183,.T.);
#408=EDGE_CURVE('',#318,#327,#184,.T.);
#409=EDGE_CURVE('',#327,#328,#185,.T.);
#410=EDGE_CURVE('',#328,#304,#186,.T.);
#411=EDGE_CURVE('',#325,#328,#187,.T.);
#412=EDGE_CURVE('',#326,#327,#188,.T.);
#413=ORIENTED_EDGE('',*,*,#329,.T.);
#414=ORIENTED_EDGE('',*,*,#330,.T.);
#415=ORIENTED_EDGE('',*,*,#331,.T.);
#416=ORIENTED_EDGE('',*,*,#332,.F.);
#417=ORIENTED_EDGE('',*,*,#331,.F.);
#418=ORIENTED_EDGE('',*,*,#333,.F.);
#419=ORIENTED_EDGE('',*,*,#334,.T.);
#420=ORIENTED_EDGE('',*,*,#335,.F.);
#421=ORIENTED_EDGE('',*,*,#336,.T.);
#422=ORIENTED_EDGE('',*,*,#337,.T.);
#423=ORIENTED_EDGE('',*,*,#338,.T.);
#424=ORIENTED_EDGE('',*,*,#339,.T.);
#425=ORIENTED_EDGE('',*,*,#340,.T.);
#426=ORIENTED_EDGE('',*,*,#341,.F.);
#427=ORIENTED_EDGE('',*,*,#342,.F.);
#428=ORIENTED_EDGE('',*,*,#343,.T.);
#429=ORIENTED_EDGE('',*,*,#344,.T.);
#430=ORIENTED_EDGE('',*,*,#345,.T.);
#431=ORIENTED_EDGE('',*,*,#346,.T.);
#432=ORIENTED_EDGE('',*,*,#335,.T.);
#433=ORIENTED_EDGE('',*,*,#347,.T.);
#434=ORIENTED_EDGE('',*,*,#346,.F.);
#435=ORIENTED_EDGE('',*,*,#348,.F.);
#436=ORIENTED_EDGE('',*,*,#349,.F.);
#437=ORIENTED_EDGE('',*,*,#336,.F.);
#438=ORIENTED_EDGE('',*,*,#350,.F.);
#439=ORIENTED_EDGE('',*,*,#340,.F.);
#440=ORIENTED_EDGE('',*,*,#351,.F.);
#441=ORIENTED_EDGE('',*,*,#352,.T.);
#442=ORIENTED_EDGE('',*,*,#330,.F.);
#443=ORIENTED_EDGE('',*,*,#353,.F.);
#444=ORIENTED_EDGE('',*,*,#354,.T.);
#445=ORIENTED_EDGE('',*,*,#333,.T.);
#446=ORIENTED_EDGE('',*,*,#355,.T.);
#447=ORIENTED_EDGE('',*,*,#351,.T.);
#448=ORIENTED_EDGE('',*,*,#339,.F.);
#449=ORIENTED_EDGE('',*,*,#356,.F.);
#450=ORIENTED_EDGE('',*,*,#347,.F.);
#451=ORIENTED_EDGE('',*,*,#334,.F.);
#452=ORIENTED_EDGE('',*,*,#354,.F.);
#453=ORIENTED_EDGE('',*,*,#357,.F.);
#454=ORIENTED_EDGE('',*,*,#358,.F.);
#455=ORIENTED_EDGE('',*,*,#337,.F.);
#456=ORIENTED_EDGE('',*,*,#349,.T.);
#457=ORIENTED_EDGE('',*,*,#359,.F.);
#458=ORIENTED_EDGE('',*,*,#360,.F.);
#459=ORIENTED_EDGE('',*,*,#361,.F.);
#460=ORIENTED_EDGE('',*,*,#361,.T.);
#461=ORIENTED_EDGE('',*,*,#362,.T.);
#462=ORIENTED_EDGE('',*,*,#360,.T.);
#463=ORIENTED_EDGE('',*,*,#362,.F.);
#464=ORIENTED_EDGE('',*,*,#358,.T.);
#465=ORIENTED_EDGE('',*,*,#363,.F.);
#466=ORIENTED_EDGE('',*,*,#356,.T.);
#467=ORIENTED_EDGE('',*,*,#338,.F.);
#468=ORIENTED_EDGE('',*,*,#329,.F.);
#469=ORIENTED_EDGE('',*,*,#364,.T.);
#470=ORIENTED_EDGE('',*,*,#365,.F.);
#471=ORIENTED_EDGE('',*,*,#366,.F.);
#472=ORIENTED_EDGE('',*,*,#367,.T.);
#473=ORIENTED_EDGE('',*,*,#352,.F.);
#474=ORIENTED_EDGE('',*,*,#355,.F.);
#475=ORIENTED_EDGE('',*,*,#363,.T.);
#476=ORIENTED_EDGE('',*,*,#359,.T.);
#477=ORIENTED_EDGE('',*,*,#348,.T.);
#478=ORIENTED_EDGE('',*,*,#345,.F.);
#479=ORIENTED_EDGE('',*,*,#357,.T.);
#480=ORIENTED_EDGE('',*,*,#353,.T.);
#481=ORIENTED_EDGE('',*,*,#368,.F.);
#482=ORIENTED_EDGE('',*,*,#364,.F.);
#483=ORIENTED_EDGE('',*,*,#332,.T.);
#484=ORIENTED_EDGE('',*,*,#344,.F.);
#485=ORIENTED_EDGE('',*,*,#368,.T.);
#486=ORIENTED_EDGE('',*,*,#343,.F.);
#487=ORIENTED_EDGE('',*,*,#369,.T.);
#488=ORIENTED_EDGE('',*,*,#370,.F.);
#489=ORIENTED_EDGE('',*,*,#371,.F.);
#490=ORIENTED_EDGE('',*,*,#372,.F.);
#491=ORIENTED_EDGE('',*,*,#373,.F.);
#492=ORIENTED_EDGE('',*,*,#374,.T.);
#493=ORIENTED_EDGE('',*,*,#375,.T.);
#494=ORIENTED_EDGE('',*,*,#376,.F.);
#495=ORIENTED_EDGE('',*,*,#377,.T.);
#496=ORIENTED_EDGE('',*,*,#365,.T.);
#497=ORIENTED_EDGE('',*,*,#378,.T.);
#498=ORIENTED_EDGE('',*,*,#379,.F.);
#499=ORIENTED_EDGE('',*,*,#380,.T.);
#500=ORIENTED_EDGE('',*,*,#381,.F.);
#501=ORIENTED_EDGE('',*,*,#342,.T.);
#502=ORIENTED_EDGE('',*,*,#382,.T.);
#503=ORIENTED_EDGE('',*,*,#383,.F.);
#504=ORIENTED_EDGE('',*,*,#369,.F.);
#505=ORIENTED_EDGE('',*,*,#366,.T.);
#506=ORIENTED_EDGE('',*,*,#377,.F.);
#507=ORIENTED_EDGE('',*,*,#384,.F.);
#508=ORIENTED_EDGE('',*,*,#385,.T.);
#509=ORIENTED_EDGE('',*,*,#350,.T.);
#510=ORIENTED_EDGE('',*,*,#367,.F.);
#511=ORIENTED_EDGE('',*,*,#385,.F.);
#512=ORIENTED_EDGE('',*,*,#386,.F.);
#513=ORIENTED_EDGE('',*,*,#387,.F.);
#514=ORIENTED_EDGE('',*,*,#388,.F.);
#515=ORIENTED_EDGE('',*,*,#389,.T.);
#516=ORIENTED_EDGE('',*,*,#390,.T.);
#517=ORIENTED_EDGE('',*,*,#391,.T.);
#518=ORIENTED_EDGE('',*,*,#392,.F.);
#519=ORIENTED_EDGE('',*,*,#382,.F.);
#520=ORIENTED_EDGE('',*,*,#341,.T.);
#521=ORIENTED_EDGE('',*,*,#393,.T.);
#522=ORIENTED_EDGE('',*,*,#394,.F.);
#523=ORIENTED_EDGE('',*,*,#395,.T.);
#524=ORIENTED_EDGE('',*,*,#396,.F.);
#525=ORIENTED_EDGE('',*,*,#397,.F.);
#526=ORIENTED_EDGE('',*,*,#381,.T.);
#527=ORIENTED_EDGE('',*,*,#398,.F.);
#528=ORIENTED_EDGE('',*,*,#396,.T.);
#529=ORIENTED_EDGE('',*,*,#398,.T.);
#530=ORIENTED_EDGE('',*,*,#380,.F.);
#531=ORIENTED_EDGE('',*,*,#399,.T.);
#532=ORIENTED_EDGE('',*,*,#393,.F.);
#533=ORIENTED_EDGE('',*,*,#400,.F.);
#534=ORIENTED_EDGE('',*,*,#394,.T.);
#535=ORIENTED_EDGE('',*,*,#399,.F.);
#536=ORIENTED_EDGE('',*,*,#379,.T.);
#537=ORIENTED_EDGE('',*,*,#397,.T.);
#538=ORIENTED_EDGE('',*,*,#395,.F.);
#539=ORIENTED_EDGE('',*,*,#400,.T.);
#540=ORIENTED_EDGE('',*,*,#378,.F.);
#541=ORIENTED_EDGE('',*,*,#386,.T.);
#542=ORIENTED_EDGE('',*,*,#384,.T.);
#543=ORIENTED_EDGE('',*,*,#376,.T.);
#544=ORIENTED_EDGE('',*,*,#401,.T.);
#545=ORIENTED_EDGE('',*,*,#370,.T.);
#546=ORIENTED_EDGE('',*,*,#383,.T.);
#547=ORIENTED_EDGE('',*,*,#392,.T.);
#548=ORIENTED_EDGE('',*,*,#402,.T.);
#549=ORIENTED_EDGE('',*,*,#371,.T.);
#550=ORIENTED_EDGE('',*,*,#402,.F.);
#551=ORIENTED_EDGE('',*,*,#391,.F.);
#552=ORIENTED_EDGE('',*,*,#403,.F.);
#553=ORIENTED_EDGE('',*,*,#375,.F.);
#554=ORIENTED_EDGE('',*,*,#404,.F.);
#555=ORIENTED_EDGE('',*,*,#387,.T.);
#556=ORIENTED_EDGE('',*,*,#401,.F.);
#557=ORIENTED_EDGE('',*,*,#404,.T.);
#558=ORIENTED_EDGE('',*,*,#374,.F.);
#559=ORIENTED_EDGE('',*,*,#405,.F.);
#560=ORIENTED_EDGE('',*,*,#406,.F.);
#561=ORIENTED_EDGE('',*,*,#407,.T.);
#562=ORIENTED_EDGE('',*,*,#388,.T.);
#563=ORIENTED_EDGE('',*,*,#403,.T.);
#564=ORIENTED_EDGE('',*,*,#390,.F.);
#565=ORIENTED_EDGE('',*,*,#408,.T.);
#566=ORIENTED_EDGE('',*,*,#409,.T.);
#567=ORIENTED_EDGE('',*,*,#410,.T.);
#568=ORIENTED_EDGE('',*,*,#372,.T.);
#569=ORIENTED_EDGE('',*,*,#405,.T.);
#570=ORIENTED_EDGE('',*,*,#373,.T.);
#571=ORIENTED_EDGE('',*,*,#410,.F.);
#572=ORIENTED_EDGE('',*,*,#411,.F.);
#573=ORIENTED_EDGE('',*,*,#406,.T.);
#574=ORIENTED_EDGE('',*,*,#411,.T.);
#575=ORIENTED_EDGE('',*,*,#409,.F.);
#576=ORIENTED_EDGE('',*,*,#412,.F.);
#577=ORIENTED_EDGE('',*,*,#407,.F.);
#578=ORIENTED_EDGE('',*,*,#412,.T.);
#579=ORIENTED_EDGE('',*,*,#408,.F.);
#580=ORIENTED_EDGE('',*,*,#389,.F.);
#581=CYLINDRICAL_SURFACE('',#629,7.5);
#582=CYLINDRICAL_SURFACE('',#634,7.5);
#583=CYLINDRICAL_SURFACE('',#645,1.465);
#584=ADVANCED_FACE('',(#46),#581,.T.);
#585=ADVANCED_FACE('',(#47),#18,.T.);
#586=ADVANCED_FACE('',(#48),#582,.T.);
#587=ADVANCED_FACE('',(#49),#19,.T.);
#588=ADVANCED_FACE('',(#50),#20,.T.);
#589=ADVANCED_FACE('',(#51),#21,.T.);
#590=ADVANCED_FACE('',(#52),#22,.T.);
#591=ADVANCED_FACE('',(#53),#23,.T.);
#592=ADVANCED_FACE('',(#54,#15),#24,.F.);
#593=ADVANCED_FACE('',(#55),#25,.T.);
#594=ADVANCED_FACE('',(#56),#583,.F.);
#595=ADVANCED_FACE('',(#57),#26,.T.);
#596=ADVANCED_FACE('',(#58),#27,.T.);
#597=ADVANCED_FACE('',(#59),#28,.F.);
#598=ADVANCED_FACE('',(#60,#16),#29,.T.);
#599=ADVANCED_FACE('',(#61),#30,.T.);
#600=ADVANCED_FACE('',(#62),#31,.T.);
#601=ADVANCED_FACE('',(#63,#17),#32,.T.);
#602=ADVANCED_FACE('',(#64),#33,.T.);
#603=ADVANCED_FACE('',(#65),#34,.F.);
#604=ADVANCED_FACE('',(#66),#35,.T.);
#605=ADVANCED_FACE('',(#67),#36,.F.);
#606=ADVANCED_FACE('',(#68),#37,.T.);
#607=ADVANCED_FACE('',(#69),#38,.T.);
#608=ADVANCED_FACE('',(#70),#39,.T.);
#609=ADVANCED_FACE('',(#71),#40,.T.);
#610=ADVANCED_FACE('',(#72),#41,.T.);
#611=ADVANCED_FACE('',(#73),#42,.T.);
#612=ADVANCED_FACE('',(#74),#43,.T.);
#613=ADVANCED_FACE('',(#75),#44,.T.);
#614=ADVANCED_FACE('',(#76),#45,.T.);
#615=CLOSED_SHELL('',(#584,#585,#586,#587,#588,#589,#590,#591,#592,#593,
#594,#595,#596,#597,#598,#599,#600,#601,#602,#603,#604,#605,#606,#607,#608,
#609,#610,#611,#612,#613,#614));
#616=DERIVED_UNIT_ELEMENT(#618,1.);
#617=DERIVED_UNIT_ELEMENT(#997,-3.);
#618=(
MASS_UNIT()
NAMED_UNIT(*)
SI_UNIT(.KILO.,.GRAM.)
);
#619=DERIVED_UNIT((#616,#617));
#620=MEASURE_REPRESENTATION_ITEM('density measure',
POSITIVE_RATIO_MEASURE(7850.),#619);
#621=PROPERTY_DEFINITION_REPRESENTATION(#626,#623);
#622=PROPERTY_DEFINITION_REPRESENTATION(#627,#624);
#623=REPRESENTATION('material name',(#625),#994);
#624=REPRESENTATION('density',(#620),#994);
#625=DESCRIPTIVE_REPRESENTATION_ITEM('A\X\E7o','A\X\E7o');
#626=PROPERTY_DEFINITION('material property','material name',#1004);
#627=PROPERTY_DEFINITION('material property','density of part',#1004);
#628=AXIS2_PLACEMENT_3D('',#820,#666,#667);
#629=AXIS2_PLACEMENT_3D('',#821,#668,#669);
#630=AXIS2_PLACEMENT_3D('',#824,#670,#671);
#631=AXIS2_PLACEMENT_3D('',#828,#673,#674);
#632=AXIS2_PLACEMENT_3D('',#830,#676,#677);
#633=AXIS2_PLACEMENT_3D('',#836,#680,#681);
#634=AXIS2_PLACEMENT_3D('',#854,#691,#692);
#635=AXIS2_PLACEMENT_3D('',#857,#693,#694);
#636=AXIS2_PLACEMENT_3D('',#860,#697,#698);
#637=AXIS2_PLACEMENT_3D('',#864,#701,#702);
#638=AXIS2_PLACEMENT_3D('',#870,#706,#707);
#639=AXIS2_PLACEMENT_3D('',#874,#710,#711);
#640=AXIS2_PLACEMENT_3D('',#878,#714,#715);
#641=AXIS2_PLACEMENT_3D('',#880,#717,#718);
#642=AXIS2_PLACEMENT_3D('',#885,#721,#722);
#643=AXIS2_PLACEMENT_3D('',#886,#723,#724);
#644=AXIS2_PLACEMENT_3D('',#888,#725,#726);
#645=AXIS2_PLACEMENT_3D('',#889,#727,#728);
#646=AXIS2_PLACEMENT_3D('',#891,#730,#731);
#647=AXIS2_PLACEMENT_3D('',#893,#733,#734);
#648=AXIS2_PLACEMENT_3D('',#901,#739,#740);
#649=AXIS2_PLACEMENT_3D('',#903,#742,#743);
#650=AXIS2_PLACEMENT_3D('',#929,#757,#758);
#651=AXIS2_PLACEMENT_3D('',#933,#761,#762);
#652=AXIS2_PLACEMENT_3D('',#937,#765,#766);
#653=AXIS2_PLACEMENT_3D('',#959,#778,#779);
#654=AXIS2_PLACEMENT_3D('',#962,#782,#783);
#655=AXIS2_PLACEMENT_3D('',#964,#785,#786);
#656=AXIS2_PLACEMENT_3D('',#966,#788,#789);
#657=AXIS2_PLACEMENT_3D('',#967,#790,#791);
#658=AXIS2_PLACEMENT_3D('',#969,#793,#794);
#659=AXIS2_PLACEMENT_3D('',#971,#796,#797);
#660=AXIS2_PLACEMENT_3D('',#973,#799,#800);
#661=AXIS2_PLACEMENT_3D('',#975,#802,#803);
#662=AXIS2_PLACEMENT_3D('',#981,#807,#808);
#663=AXIS2_PLACEMENT_3D('',#987,#812,#813);
#664=AXIS2_PLACEMENT_3D('',#989,#815,#816);
#665=AXIS2_PLACEMENT_3D('',#991,#818,#819);
#666=DIRECTION('axis',(0.,0.,1.));
#667=DIRECTION('refdir',(1.,0.,0.));
#668=DIRECTION('center_axis',(6.08565552895355E-15,-1.93685336841284E-17,
1.));
#669=DIRECTION('ref_axis',(0.287327026593118,-0.957832542665553,-1.72657169831864E-15));
#670=DIRECTION('center_axis',(6.00908212078366E-15,1.18329135783152E-30,
1.));
#671=DIRECTION('ref_axis',(0.287327026593118,-0.957832542665553,-1.72657169831864E-15));
#672=DIRECTION('',(6.08565552895355E-15,-1.93685336841284E-17,1.));
#673=DIRECTION('center_axis',(-6.00908212078366E-15,-1.18329135783152E-30,
-1.));
#674=DIRECTION('ref_axis',(0.287327026593118,-0.957832542665553,-1.72657169831864E-15));
#675=DIRECTION('',(6.00908212078366E-15,1.18329135783152E-30,1.));
#676=DIRECTION('center_axis',(6.00908212078366E-15,1.18329135783152E-30,
1.));
#677=DIRECTION('ref_axis',(0.258819045102521,-0.965925826289068,-1.55526489644385E-15));
#678=DIRECTION('',(-0.245217937455678,-0.969467979435104,1.37994534984692E-15));
#679=DIRECTION('',(0.458879963380174,0.888498271921904,-2.68423014487845E-15));
#680=DIRECTION('center_axis',(-6.00908212078366E-15,-1.18329135783152E-30,
-1.));
#681=DIRECTION('ref_axis',(0.971724825226232,-0.236116208759686,-5.91534282088396E-15));
#682=DIRECTION('',(5.55111512312584E-17,1.,1.10100434885638E-16));
#683=DIRECTION('',(-1.,-1.4791141972894E-31,6.06270573520797E-15));
#684=DIRECTION('',(-5.55111512312584E-17,-1.,-1.10100434885638E-16));
#685=DIRECTION('',(-0.458879963380173,-0.888498271921905,2.68423014487845E-15));
#686=DIRECTION('',(-0.245217937455678,-0.969467979435104,1.37994534984692E-15));
#687=DIRECTION('',(0.965925826289068,0.258819045102521,-5.80432761275682E-15));
#688=DIRECTION('',(-0.258819045102521,0.965925826289068,1.55526489644385E-15));
#689=DIRECTION('',(0.965925826289068,0.258819045102521,-5.80432761275682E-15));
#690=DIRECTION('',(0.245217937455661,0.969467979435108,-1.47353472366026E-15));
#691=DIRECTION('center_axis',(-6.06270573520797E-15,1.10100435840333E-16,
-1.));
#692=DIRECTION('ref_axis',(0.971724825226232,-0.236116208759686,-5.91534282088396E-15));
#693=DIRECTION('center_axis',(6.00908212078366E-15,1.18329135783152E-30,
1.));
#694=DIRECTION('ref_axis',(0.971724825226232,-0.236116208759686,-5.91534282088396E-15));
#695=DIRECTION('',(6.06270573520797E-15,-1.10100435840333E-16,1.));
#696=DIRECTION('',(-6.06270573520797E-15,1.10100435840333E-16,-1.));
#697=DIRECTION('center_axis',(1.,1.4791141972894E-31,-6.06270573520797E-15));
#698=DIRECTION('ref_axis',(-6.06270573520797E-15,1.10100434885638E-16,-1.));
#699=DIRECTION('',(-5.55111512312584E-17,-1.,-1.10100434885638E-16));
#700=DIRECTION('',(-6.06270573520797E-15,1.10100434885638E-16,-1.));
#701=DIRECTION('center_axis',(-0.969467979435104,0.245217937455678,5.90459768107423E-15));
#702=DIRECTION('ref_axis',(-6.06270573573925E-15,1.1010043481164E-16,-1.));
#703=DIRECTION('',(-6.09647789141615E-15,-2.34176261628743E-17,-1.));
#704=DIRECTION('',(6.06270573573925E-15,-1.1010043481164E-16,1.));
#705=DIRECTION('',(-0.245217937455678,-0.969467979435104,1.37994534984692E-15));
#706=DIRECTION('center_axis',(0.969467979435104,-0.245217937455678,-5.90459768107423E-15));
#707=DIRECTION('ref_axis',(6.06270573573925E-15,-1.1010043481164E-16,1.));
#708=DIRECTION('',(-0.245217937455678,-0.969467979435104,1.37994534984692E-15));
#709=DIRECTION('',(6.06270573573925E-15,-1.1010043481164E-16,1.));
#710=DIRECTION('center_axis',(-0.888498271921905,0.458879963380173,5.43722645286985E-15));
#711=DIRECTION('ref_axis',(-0.458879963380173,-0.888498271921905,2.68423014487845E-15));
#712=DIRECTION('',(-0.458879963380173,-0.888498271921905,2.68423014487845E-15));
#713=DIRECTION('',(6.06270573520797E-15,-1.10100434885638E-16,1.));
#714=DIRECTION('center_axis',(0.888498271921904,-0.458879963380174,-5.43722645286985E-15));
#715=DIRECTION('ref_axis',(0.458879963380174,0.888498271921904,-2.68423014487845E-15));
#716=DIRECTION('',(-0.458879963380174,-0.888498271921904,2.68423014487845E-15));
#717=DIRECTION('center_axis',(-5.55111512312584E-17,-1.,-1.10100434885638E-16));
#718=DIRECTION('ref_axis',(-6.06270573520797E-15,1.10100434885638E-16,-1.));
#719=DIRECTION('',(-6.06270573520797E-15,1.10100434885638E-16,-1.));
#720=DIRECTION('',(1.,1.4791141972894E-31,-6.06270573520797E-15));
#721=DIRECTION('center_axis',(5.55111512312584E-17,1.,1.10100434885638E-16));
#722=DIRECTION('ref_axis',(1.,2.44400631700768E-17,-1.20717878559916E-14));
#723=DIRECTION('center_axis',(5.55111512312584E-17,1.,1.10100434885638E-16));
#724=DIRECTION('ref_axis',(1.,8.13512808509161E-31,-1.20717878559916E-14));
#725=DIRECTION('center_axis',(-5.55111512312584E-17,-1.,-1.10100434885638E-16));
#726=DIRECTION('ref_axis',(1.,2.44400631700768E-17,-1.20717878559916E-14));
#727=DIRECTION('center_axis',(5.55111512312584E-17,1.,1.10100434885638E-16));
#728=DIRECTION('ref_axis',(1.,2.44400631700768E-17,-1.20717878559916E-14));
#729=DIRECTION('',(5.55111512312584E-17,1.,1.10100434885638E-16));
#730=DIRECTION('center_axis',(-1.,-1.4791141972894E-31,6.06270573520797E-15));
#731=DIRECTION('ref_axis',(6.06270573520797E-15,-1.10100434885638E-16,1.));
#732=DIRECTION('',(5.55111512312584E-17,1.,1.10100434885638E-16));
#733=DIRECTION('center_axis',(-6.00908212078366E-15,-1.18329135783152E-30,
-1.));
#734=DIRECTION('ref_axis',(-0.258819045102521,0.965925826289068,1.55526489644385E-15));
#735=DIRECTION('',(-0.245217937455661,-0.969467979435108,1.47353472366026E-15));
#736=DIRECTION('',(0.965925826289068,0.258819045102521,-5.80432761275682E-15));
#737=DIRECTION('',(0.258819045102521,-0.965925826289068,-1.55526489644385E-15));
#738=DIRECTION('',(0.965925826289068,0.258819045102521,-5.80432761275682E-15));
#739=DIRECTION('center_axis',(-0.969467979435108,0.245217937455661,5.82561270189577E-15));
#740=DIRECTION('ref_axis',(-0.245217937455661,-0.969467979435108,1.37994535563179E-15));
#741=DIRECTION('',(6.00908212078366E-15,1.18329135783151E-30,1.));
#742=DIRECTION('center_axis',(0.258819045102521,-0.965925826289068,-1.55526489644385E-15));
#743=DIRECTION('ref_axis',(0.965925826289068,0.258819045102521,2.04754508026832E-16));
#744=DIRECTION('',(6.00908212078366E-15,1.18329135783152E-30,1.));
#745=DIRECTION('',(0.965925826289068,0.258819045102521,-5.80432761275682E-15));
#746=DIRECTION('',(6.00908212078366E-15,1.18329135783152E-30,1.));
#747=DIRECTION('',(0.965925826289068,0.258819045102521,2.04754508026832E-16));
#748=DIRECTION('',(1.71950975107885E-15,-1.14938745233726E-15,1.));
#749=DIRECTION('',(0.965925826289068,0.258819045102521,2.04754508026832E-16));
#750=DIRECTION('',(-6.00908212078366E-15,-1.18329135783152E-30,-1.));
#751=DIRECTION('',(-0.965925826289068,-0.258819045102521,5.80432761275682E-15));
#752=DIRECTION('',(6.00908212078366E-15,1.18329135783152E-30,1.));
#753=DIRECTION('',(6.00908212078366E-15,1.18329135783151E-30,1.));
#754=DIRECTION('',(-0.965925826289068,-0.258819045102521,5.80432761275682E-15));
#755=DIRECTION('',(-6.00908212078366E-15,-1.18329135783151E-30,-1.));
#756=DIRECTION('',(0.965925826289068,0.258819045102521,-5.80432761275682E-15));
#757=DIRECTION('center_axis',(0.965925826289068,0.258819045102521,-5.80432761275682E-15));
#758=DIRECTION('ref_axis',(-0.258819045102521,0.965925826289068,1.55526489644385E-15));
#759=DIRECTION('',(6.00908212078366E-15,1.18329135783152E-30,1.));
#760=DIRECTION('',(-0.258819045102521,0.965925826289068,1.55526489644385E-15));
#761=DIRECTION('center_axis',(0.965925826289068,0.258819045102521,-5.80432761275682E-15));
#762=DIRECTION('ref_axis',(-0.258819045102521,0.965925826289068,1.55526489644385E-15));
#763=DIRECTION('',(0.258819045102521,-0.965925826289068,-1.55526489644385E-15));
#764=DIRECTION('',(6.00908212078366E-15,1.18329135783152E-30,1.));
#765=DIRECTION('center_axis',(-0.258819045102521,0.965925826289068,1.55526489644385E-15));
#766=DIRECTION('ref_axis',(-0.965925826289068,-0.258819045102521,-2.04754508026832E-16));
#767=DIRECTION('',(0.965925826289068,0.258819045102521,-5.80432761275682E-15));
#768=DIRECTION('',(-6.00908212078366E-15,-1.18329135783152E-30,-1.));
#769=DIRECTION('',(0.965925826289068,0.258819045102521,2.04754508026832E-16));
#770=DIRECTION('',(1.71950975107885E-15,-1.14938745233726E-15,1.));
#771=DIRECTION('',(0.965925826289068,0.258819045102521,-1.3634355142562E-15));
#772=DIRECTION('',(6.00908212078366E-15,1.18329135783152E-30,1.));
#773=DIRECTION('',(-0.965925826289068,-0.258819045102521,5.80432761275682E-15));
#774=DIRECTION('',(6.00908212078366E-15,1.18329135783151E-30,1.));
#775=DIRECTION('',(0.965925826289068,0.258819045102521,-5.80432761275682E-15));
#776=DIRECTION('',(-6.00908212078366E-15,-1.18329135783151E-30,-1.));
#777=DIRECTION('',(-0.965925826289068,-0.258819045102521,5.80432761275682E-15));
#778=DIRECTION('center_axis',(6.00908212078366E-15,1.18329135783152E-30,
1.));
#779=DIRECTION('ref_axis',(1.,1.66533453693774E-16,-6.00908212078366E-15));
#780=DIRECTION('',(-0.258819045102521,0.965925826289068,1.55526489644385E-15));
#781=DIRECTION('',(0.258819045102521,-0.965925826289068,-1.55526489644385E-15));
#782=DIRECTION('center_axis',(0.965925826289068,0.258819045102521,-5.80432761275682E-15));
#783=DIRECTION('ref_axis',(0.258819045102521,-0.965925826289068,-1.55526489644385E-15));
#784=DIRECTION('',(-0.258819045102521,0.965925826289068,1.55526489644385E-15));
#785=DIRECTION('center_axis',(-6.00908212078366E-15,-1.18329135783152E-30,
-1.));
#786=DIRECTION('ref_axis',(-1.,-1.66533453693774E-16,6.00908212078366E-15));
#787=DIRECTION('',(0.258819045102521,-0.965925826289068,-1.55526489644385E-15));
#788=DIRECTION('center_axis',(-0.965925826289068,-0.258819045102521,5.80432761275682E-15));
#789=DIRECTION('ref_axis',(-0.258819045102521,0.965925826289068,1.55526489644385E-15));
#790=DIRECTION('center_axis',(-6.00908212078366E-15,-1.18329135783152E-30,
-1.));
#791=DIRECTION('ref_axis',(-1.,-1.66533453693774E-16,6.00908212078366E-15));
#792=DIRECTION('',(-0.258819045102521,0.965925826289068,1.55526489644385E-15));
#793=DIRECTION('center_axis',(6.00908212078366E-15,1.18329135783152E-30,
1.));
#794=DIRECTION('ref_axis',(1.,1.66533453693774E-16,-6.00908212078366E-15));
#795=DIRECTION('',(0.258819045102521,-0.965925826289068,-1.55526489644385E-15));
#796=DIRECTION('center_axis',(-0.965925826289068,-0.258819045102521,5.80432761275682E-15));
#797=DIRECTION('ref_axis',(6.00908212078366E-15,1.18329135783152E-30,1.));
#798=DIRECTION('',(-0.258819045102521,0.965925826289068,1.55526489644385E-15));
#799=DIRECTION('center_axis',(-0.965925826289068,-0.258819045102521,5.80432761275682E-15));
#800=DIRECTION('ref_axis',(6.00908212078366E-15,1.18329135783152E-30,1.));
#801=DIRECTION('',(0.258819045102521,-0.965925826289068,-1.55212723766925E-15));
#802=DIRECTION('center_axis',(-2.19580794620129E-16,1.54804386153283E-15,
-1.));
#803=DIRECTION('ref_axis',(-0.965925826289068,-0.258819045102521,-1.88564473538089E-16));
#804=DIRECTION('',(0.98119994557144,-0.192993955373226,-5.14215771658264E-16));
#805=DIRECTION('',(0.437870045411694,-0.899038276899911,-1.48789853834981E-15));
#806=DIRECTION('',(0.98119994557144,-0.192993955373226,-5.14215771658265E-16));
#807=DIRECTION('center_axis',(1.71950975107885E-15,-1.14938745233726E-15,
1.));
#808=DIRECTION('ref_axis',(0.965925826289068,0.258819045102521,-1.36343551425619E-15));
#809=DIRECTION('',(-0.98119994557144,0.192993955373226,5.14215771658265E-16));
#810=DIRECTION('',(0.437870045411694,-0.899038276899911,-1.48789853834981E-15));
#811=DIRECTION('',(0.98119994557144,-0.192993955373226,-5.14215771658264E-16));
#812=DIRECTION('center_axis',(-0.192993955373226,-0.98119994557144,-7.95923917510279E-16));
#813=DIRECTION('ref_axis',(0.98119994557144,-0.192993955373226,-5.14215771658264E-16));
#814=DIRECTION('',(1.71950975107885E-15,-1.14938745233726E-15,1.));
#815=DIRECTION('center_axis',(-0.899038276899911,-0.437870045411694,1.04262274777197E-15));
#816=DIRECTION('ref_axis',(0.437870045411694,-0.899038276899911,-1.48789853834981E-15));
#817=DIRECTION('',(1.71950975107885E-15,-1.14938745233726E-15,1.));
#818=DIRECTION('center_axis',(0.192993955373226,0.98119994557144,7.95923917510279E-16));
#819=DIRECTION('ref_axis',(-0.98119994557144,0.192993955373226,5.14215771658265E-16));
#820=CARTESIAN_POINT('',(0.,0.,0.));
#821=CARTESIAN_POINT('Origin',(150.240851845982,53.2358022137135,96.4984600597659));
#822=CARTESIAN_POINT('',(152.39580454543,46.0520581437219,96.4984600597658));
#823=CARTESIAN_POINT('',(157.511861691745,51.396667682796,96.4984600597658));
#824=CARTESIAN_POINT('Origin',(150.240851845982,53.2358022137135,96.4984600597656));
#825=CARTESIAN_POINT('',(157.511861691745,51.396667682796,106.498460059766));
#826=CARTESIAN_POINT('',(157.511861691745,51.396667682796,96.4984600597658));
#827=CARTESIAN_POINT('',(152.395804545431,46.0520581437219,106.498460059766));
#828=CARTESIAN_POINT('Origin',(150.240851845982,53.2358022137135,106.498460059766));
#829=CARTESIAN_POINT('',(152.39580454543,46.0520581437219,96.4984600597658));
#830=CARTESIAN_POINT('Origin',(93.9648431077579,34.074400150998,106.498460059766));
#831=CARTESIAN_POINT('',(158.092013736525,53.6902961035115,106.498460059766));
#832=CARTESIAN_POINT('',(158.092013736525,53.6902961035115,106.498460059766));
#833=CARTESIAN_POINT('',(160.5145040954,58.3808005259603,106.498460059766));
#834=CARTESIAN_POINT('',(161.350767055986,60.0000000000004,106.498460059766));
#835=CARTESIAN_POINT('',(161.350767055986,61.8224002513116,106.498460059766));
#836=CARTESIAN_POINT('Origin',(153.850767055986,61.8224002513116,106.498460059766));
#837=CARTESIAN_POINT('',(161.350767055986,75.0000000000004,106.498460059766));
#838=CARTESIAN_POINT('',(161.350767055986,68.0000000000004,106.498460059766));
#839=CARTESIAN_POINT('',(157.350759276215,75.0000000000002,106.498460059766));
#840=CARTESIAN_POINT('',(159.350763166101,75.0000000000004,106.498460059766));
#841=CARTESIAN_POINT('',(157.350759276215,60.0000000000002,106.498460059766));
#842=CARTESIAN_POINT('',(157.350759276215,68.0000000000002,106.498460059766));
#843=CARTESIAN_POINT('',(154.554173544667,54.5851599807081,106.498460059766));
#844=CARTESIAN_POINT('',(157.350759276215,60.0000000000002,106.498460059766));
#845=CARTESIAN_POINT('',(153.393993352202,49.9983929658646,106.498460059766));
#846=CARTESIAN_POINT('',(154.554173544667,54.5851599807081,106.498460059766));
#847=CARTESIAN_POINT('',(93.9648431077579,34.074400150998,106.498460059766));
#848=CARTESIAN_POINT('',(93.9648431077579,34.074400150998,106.498460059766));
#849=CARTESIAN_POINT('',(94.8845947429138,30.6418403182514,106.498460059766));
#850=CARTESIAN_POINT('',(94.4247189253358,32.3581202346247,106.498460059766));
#851=CARTESIAN_POINT('',(152.3957677522,46.0519126818563,106.498460059766));
#852=CARTESIAN_POINT('',(94.8845947429138,30.6418403182514,106.498460059766));
#853=CARTESIAN_POINT('',(149.21529408845,33.4779247899621,106.498460059766));
#854=CARTESIAN_POINT('Origin',(153.850767055986,61.8224002513116,100.998460059766));
#855=CARTESIAN_POINT('',(160.5145040954,58.3808005259603,96.4984600597658));
#856=CARTESIAN_POINT('',(161.350767055986,61.8224002513116,96.4984600597658));
#857=CARTESIAN_POINT('Origin',(153.850767055986,61.8224002513116,96.4984600597656));
#858=CARTESIAN_POINT('',(161.350767055986,61.8224002513116,100.998460059766));
#859=CARTESIAN_POINT('',(160.5145040954,58.3808005259603,100.998460059766));
#860=CARTESIAN_POINT('Origin',(161.350767055986,68.0000000000004,105.498460059766));
#861=CARTESIAN_POINT('',(161.350767055986,75.0000000000004,96.4984600597658));
#862=CARTESIAN_POINT('',(161.350767055986,68.0000000000004,96.4984600597658));
#863=CARTESIAN_POINT('',(161.350767055986,75.0000000000004,97.4984600597658));
#864=CARTESIAN_POINT('Origin',(154.554173544667,54.5851599807081,106.498460059766));
#865=CARTESIAN_POINT('',(153.393993352202,49.9983929658646,96.4984600597658));
#866=CARTESIAN_POINT('',(153.393993352202,49.9983929658646,101.498460059766));
#867=CARTESIAN_POINT('',(154.554173544667,54.5851599807081,96.4984600597658));
#868=CARTESIAN_POINT('',(154.554173544667,54.5851599807081,96.4984600597658));
#869=CARTESIAN_POINT('',(154.554173544667,54.5851599807081,96.4984600597658));
#870=CARTESIAN_POINT('Origin',(158.092013736525,53.6902961035115,96.4984600597658));
#871=CARTESIAN_POINT('',(158.092013736525,53.6902961035115,96.4984600597658));
#872=CARTESIAN_POINT('',(158.092013736525,53.6902961035115,96.4984600597658));
#873=CARTESIAN_POINT('',(158.092013736525,53.6902961035115,96.4984600597658));
#874=CARTESIAN_POINT('Origin',(157.350759276215,60.0000000000002,96.4984600597658));
#875=CARTESIAN_POINT('',(157.350759276215,60.0000000000002,96.4984600597658));
#876=CARTESIAN_POINT('',(157.350759276215,60.0000000000002,96.4984600597658));
#877=CARTESIAN_POINT('',(157.350759276215,60.0000000000002,105.498460059766));
#878=CARTESIAN_POINT('Origin',(158.092013736525,53.6902961035115,96.4984600597658));
#879=CARTESIAN_POINT('',(161.350767055986,60.0000000000004,96.4984600597658));
#880=CARTESIAN_POINT('Origin',(161.350767055986,75.0000000000004,97.4984600597658));
#881=CARTESIAN_POINT('',(157.350759276215,75.0000000000002,96.4984600597658));
#882=CARTESIAN_POINT('',(157.350759276215,75.0000000000004,97.4984600597658));
#883=CARTESIAN_POINT('',(161.350767055986,75.0000000000004,96.4984600597658));
#884=CARTESIAN_POINT('',(158.023683491945,75.0000000000004,101.498460754752));
#885=CARTESIAN_POINT('Origin',(159.488683491945,75.0000000000004,101.498460754752));
#886=CARTESIAN_POINT('Origin',(159.488683491945,72.0000000000003,101.498460754752));
#887=CARTESIAN_POINT('',(158.023683491945,72.0000000000003,101.498460754752));
#888=CARTESIAN_POINT('Origin',(159.488683491945,72.0000000000003,101.498460754752));
#889=CARTESIAN_POINT('Origin',(159.488683491945,78.0000000000003,101.498460754752));
#890=CARTESIAN_POINT('',(158.023683491945,78.0000000000003,101.498460754752));
#891=CARTESIAN_POINT('Origin',(157.350759276215,68.0000000000002,97.4984600597658));
#892=CARTESIAN_POINT('',(157.350759276215,68.0000000000002,96.4984600597658));
#893=CARTESIAN_POINT('Origin',(94.8845947429137,30.6418403182514,96.4984600597659));
#894=CARTESIAN_POINT('',(152.3957677522,46.0519126818563,96.4984600597656));
#895=CARTESIAN_POINT('',(148.834934431099,31.9741746471448,96.4984600597656));
#896=CARTESIAN_POINT('',(94.8845947429137,30.6418403182514,96.4984600597659));
#897=CARTESIAN_POINT('',(94.8845947429137,30.6418403182514,96.4984600597659));
#898=CARTESIAN_POINT('',(93.9648431077578,34.074400150998,96.4984600597659));
#899=CARTESIAN_POINT('',(94.8845947429137,30.6418403182514,96.4984600597659));
#900=CARTESIAN_POINT('',(93.9648431077578,34.074400150998,96.4984600597659));
#901=CARTESIAN_POINT('Origin',(152.39580454543,46.0520581437219,96.4984600597658));
#902=CARTESIAN_POINT('',(152.395768024275,46.0519137575015,96.4984600597655));
#903=CARTESIAN_POINT('Origin',(40.7927479510428,16.1479746560046,96.4984600597659));
#904=CARTESIAN_POINT('',(94.8845947429139,30.6418403182514,124.498460059766));
#905=CARTESIAN_POINT('',(94.8845947429138,30.6418403182514,104.498460059766));
#906=CARTESIAN_POINT('',(44.6564516895218,17.1832499497801,124.498460059766));
#907=CARTESIAN_POINT('',(89.089039698819,29.088926024496,124.498460059766));
#908=CARTESIAN_POINT('',(44.6564510274245,17.1832497723717,104.498460059766));
#909=CARTESIAN_POINT('',(44.6564516895217,17.1832499497801,108.498460164074));
#910=CARTESIAN_POINT('',(40.7927479510428,16.1479746560046,104.498460059766));
#911=CARTESIAN_POINT('',(40.7927479510428,16.1479746560046,104.498460059766));
#912=CARTESIAN_POINT('',(40.7927479510428,16.1479746560046,96.4984600597659));
#913=CARTESIAN_POINT('',(40.7927479510428,16.1479746560046,96.4984600597659));
#914=CARTESIAN_POINT('',(44.6564510274245,17.1832497723717,96.4984600597659));
#915=CARTESIAN_POINT('',(40.7927479510428,16.1479746560046,96.4984600597659));
#916=CARTESIAN_POINT('',(44.6564510274244,17.1832497723717,76.4984600597658));
#917=CARTESIAN_POINT('',(44.6564510274244,17.1832497723717,86.4984600597658));
#918=CARTESIAN_POINT('',(94.8845947429136,30.6418403182514,76.4984600597657));
#919=CARTESIAN_POINT('',(89.0890396988187,29.088926024496,76.4984600597657));
#920=CARTESIAN_POINT('',(94.8845947429138,30.6418403182514,104.498460059766));
#921=CARTESIAN_POINT('',(50.4518006832854,18.7361090325156,85.4984599256558));
#922=CARTESIAN_POINT('',(50.4518006832856,18.7361090325156,115.498460164074));
#923=CARTESIAN_POINT('',(50.4518004325998,18.7361099680876,102.49846011192));
#924=CARTESIAN_POINT('',(89.0890396988189,29.088926024496,115.498460164074));
#925=CARTESIAN_POINT('',(64.940893699588,22.6184508080363,115.498460164074));
#926=CARTESIAN_POINT('',(89.0890396988187,29.088926024496,85.4984599256555));
#927=CARTESIAN_POINT('',(89.089039448133,29.0889269600681,94.4984599927106));
#928=CARTESIAN_POINT('',(64.9408936995878,22.6184508080363,85.4984599256557));
#929=CARTESIAN_POINT('Origin',(94.8845947429138,30.6418403182514,104.498460059766));
#930=CARTESIAN_POINT('',(93.9648431077579,34.0744001509979,124.498460059766));
#931=CARTESIAN_POINT('',(93.9648431077578,34.0744001509979,114.498460059766));
#932=CARTESIAN_POINT('',(94.6546568341249,31.499980276438,124.498460059766));
#933=CARTESIAN_POINT('Origin',(94.8845947429138,30.6418403182514,104.498460059766));
#934=CARTESIAN_POINT('',(93.9648431077576,34.0744001509979,76.4984600597657));
#935=CARTESIAN_POINT('',(94.6546568341246,31.499980276438,76.4984600597657));
#936=CARTESIAN_POINT('',(93.9648431077578,34.0744001509979,114.498460059766));
#937=CARTESIAN_POINT('Origin',(131.635950064034,44.1683428379186,96.498460059766));
#938=CARTESIAN_POINT('',(43.7366993922684,20.6158096051183,76.4984600597658));
#939=CARTESIAN_POINT('',(89.1351621421165,32.7802910365544,76.4984600597655));
#940=CARTESIAN_POINT('',(43.7366993922685,20.6158096051183,96.4984600597659));
#941=CARTESIAN_POINT('',(43.7366993922685,20.6158096051183,96.4984600597658));
#942=CARTESIAN_POINT('',(39.8729965665726,19.5805335531792,96.4984600597659));
#943=CARTESIAN_POINT('',(39.8729965665726,19.5805335531792,96.4984600597659));
#944=CARTESIAN_POINT('',(39.8729965665726,19.5805335531792,104.498460059766));
#945=CARTESIAN_POINT('',(39.8729965665726,19.5805335531792,96.4984600597659));
#946=CARTESIAN_POINT('',(43.7366993922686,20.6158096051183,104.498460059766));
#947=CARTESIAN_POINT('',(131.635950064034,44.1683428379186,104.498460059766));
#948=CARTESIAN_POINT('',(43.7367000543659,20.6158097825266,124.498460059766));
#949=CARTESIAN_POINT('',(43.7367000543658,20.6158097825266,114.498460059766));
#950=CARTESIAN_POINT('',(111.351507824872,38.7331429210195,124.498460059766));
#951=CARTESIAN_POINT('',(88.1692880636627,32.5214858572426,85.4984599256555));
#952=CARTESIAN_POINT('',(88.1692880636629,32.5214858572426,115.498460164074));
#953=CARTESIAN_POINT('',(88.1692880636628,32.5214858572426,102.49846011192));
#954=CARTESIAN_POINT('',(49.5320490481296,22.1686688652622,115.498460164074));
#955=CARTESIAN_POINT('',(109.902619063849,38.3449143475806,115.498460164074));
#956=CARTESIAN_POINT('',(49.5320490481295,22.1686688652622,85.4984599256558));
#957=CARTESIAN_POINT('',(49.5320490481295,22.1686688652622,94.4984599927111));
#958=CARTESIAN_POINT('',(109.902619063848,38.3449143475806,85.4984599256554));
#959=CARTESIAN_POINT('Origin',(89.0890396988187,29.088926024496,85.4984599256555));
#960=CARTESIAN_POINT('',(50.4518006832854,18.7361090325156,85.4984599256558));
#961=CARTESIAN_POINT('',(88.6291638812407,30.8052059408693,85.4984599256555));
#962=CARTESIAN_POINT('Origin',(88.1692880636629,32.5214858572426,104.498460059766));
#963=CARTESIAN_POINT('',(88.1692880636629,32.5214858572426,115.498460164074));
#964=CARTESIAN_POINT('Origin',(88.1692880636629,32.5214858572426,115.498460164074));
#965=CARTESIAN_POINT('',(49.9919248657076,20.4523889488889,115.498460164074));
#966=CARTESIAN_POINT('Origin',(50.4518006832856,18.7361090325156,104.498460059766));
#967=CARTESIAN_POINT('Origin',(91.5269414032881,31.581663087747,76.4984600597657));
#968=CARTESIAN_POINT('',(44.1965758719435,18.8995298661534,76.4984600597658));
#969=CARTESIAN_POINT('Origin',(91.5269414032884,31.581663087747,124.498460059766));
#970=CARTESIAN_POINT('',(44.6564516895218,17.1832499497801,124.498460059766));
#971=CARTESIAN_POINT('Origin',(44.1965758719437,18.8995298661534,111.49846011192));
#972=CARTESIAN_POINT('',(43.1998749156002,22.6192658267915,104.498460059766));
#973=CARTESIAN_POINT('Origin',(44.1965758719436,18.8995298661534,89.4984599927109));
#974=CARTESIAN_POINT('',(43.1998749156001,22.6192658267915,96.4984600597659));
#975=CARTESIAN_POINT('Origin',(65.0945901244555,34.3122415328113,96.498460059766));
#976=CARTESIAN_POINT('',(-0.615041017946432,24.292546017279,96.498460059766));
#977=CARTESIAN_POINT('',(-0.615041017946432,24.292546017279,96.498460059766));
#978=CARTESIAN_POINT('',(-2.3665211995932,27.8886991248786,96.498460059766));
#979=CARTESIAN_POINT('',(-2.3665211995932,27.8886991248786,96.498460059766));
#980=CARTESIAN_POINT('',(-2.3665211995932,27.8886991248786,96.498460059766));
#981=CARTESIAN_POINT('Origin',(65.0945901244556,34.3122415328113,104.498460059766));
#982=CARTESIAN_POINT('',(-2.3665211995932,27.8886991248786,104.498460059766));
#983=CARTESIAN_POINT('',(-2.3665211995932,27.8886991248786,104.498460059766));
#984=CARTESIAN_POINT('',(-0.615041017946432,24.2925460172789,104.498460059766));
#985=CARTESIAN_POINT('',(-2.3665211995932,27.8886991248786,104.498460059766));
#986=CARTESIAN_POINT('',(-0.615041017946432,24.2925460172789,104.498460059766));
#987=CARTESIAN_POINT('Origin',(-0.615041017946432,24.292546017279,96.498460059766));
#988=CARTESIAN_POINT('',(-0.615041017946432,24.292546017279,96.498460059766));
#989=CARTESIAN_POINT('Origin',(-2.3665211995932,27.8886991248786,96.498460059766));
#990=CARTESIAN_POINT('',(-2.3665211995932,27.8886991248786,96.498460059766));
#991=CARTESIAN_POINT('Origin',(39.8729965665726,19.5805335531792,96.4984600597659));
#992=UNCERTAINTY_MEASURE_WITH_UNIT(LENGTH_MEASURE(0.01),#996,
'DISTANCE_ACCURACY_VALUE',
'Maximum model space distance between geometric entities at asserted c
onnectivities');
#993=UNCERTAINTY_MEASURE_WITH_UNIT(LENGTH_MEASURE(0.01),#996,
'DISTANCE_ACCURACY_VALUE',
'Maximum model space distance between geometric entities at asserted c
onnectivities');
#994=(
GEOMETRIC_REPRESENTATION_CONTEXT(3)
GLOBAL_UNCERTAINTY_ASSIGNED_CONTEXT((#992))
GLOBAL_UNIT_ASSIGNED_CONTEXT((#996,#998,#999))
REPRESENTATION_CONTEXT('','3D')
);
#995=(
GEOMETRIC_REPRESENTATION_CONTEXT(3)
GLOBAL_UNCERTAINTY_ASSIGNED_CONTEXT((#993))
GLOBAL_UNIT_ASSIGNED_CONTEXT((#996,#998,#999))
REPRESENTATION_CONTEXT('','3D')
);
#996=(
LENGTH_UNIT()
NAMED_UNIT(*)
SI_UNIT(.MILLI.,.METRE.)
);
#997=(
LENGTH_UNIT()
NAMED_UNIT(*)
SI_UNIT($,.METRE.)
);
#998=(
NAMED_UNIT(*)
PLANE_ANGLE_UNIT()
SI_UNIT($,.RADIAN.)
);
#999=(
NAMED_UNIT(*)
SI_UNIT($,.STERADIAN.)
SOLID_ANGLE_UNIT()
);
#1000=SHAPE_DEFINITION_REPRESENTATION(#1001,#1002);
#1001=PRODUCT_DEFINITION_SHAPE('',$,#1004);
#1002=SHAPE_REPRESENTATION('',(#628),#994);
#1003=PRODUCT_DEFINITION_CONTEXT('part definition',#1008,'design');
#1004=PRODUCT_DEFINITION('2026-06-22-01-03-31-279','Eixo_Discos',#1005,
#1003);
#1005=PRODUCT_DEFINITION_FORMATION('',$,#1010);
#1006=PRODUCT_RELATED_PRODUCT_CATEGORY('Eixo_Discos','Eixo_Discos',(#1010));
#1007=APPLICATION_PROTOCOL_DEFINITION('international standard',
'automotive_design',2009,#1008);
#1008=APPLICATION_CONTEXT(
'Core Data for Automotive Mechanical Design Process');
#1009=PRODUCT_CONTEXT('part definition',#1008,'mechanical');
#1010=PRODUCT('2026-06-22-01-03-31-279','Eixo_Discos',$,(#1009));
#1011=PRESENTATION_STYLE_ASSIGNMENT((#1012));
#1012=SURFACE_STYLE_USAGE(.BOTH.,#1013);
#1013=SURFACE_SIDE_STYLE('',(#1014));
#1014=SURFACE_STYLE_FILL_AREA(#1015);
#1015=FILL_AREA_STYLE('A\X\E7o - Acetinado',(#1016));
#1016=FILL_AREA_STYLE_COLOUR('A\X\E7o - Acetinado',#1017);
#1017=COLOUR_RGB('A\X\E7o - Acetinado',0.627450980392157,0.627450980392157,
0.627450980392157);
ENDSEC;
END-ISO-10303-21;
