ISO-10303-21;
HEADER;
/* Generated by software containing ST-Developer
 * from STEP Tools, Inc. (www.steptools.com) 
 */

FILE_DESCRIPTION(
/* description */ (''),
/* implementation_level */ '2;1');

FILE_NAME(
/* name */ 'Haste_Disco.step',
/* time_stamp */ '2026-06-22T01:03:35-03:00',
/* author */ (''),
/* organization */ (''),
/* preprocessor_version */ 'ST-DEVELOPER v20.1',
/* originating_system */ 'Autodesk Translation Framework v15.8.0.0',
/* authorisation */ '');

FILE_SCHEMA (('AUTOMOTIVE_DESIGN { 1 0 10303 214 3 1 1 }'));
ENDSEC;

DATA;
#10=MECHANICAL_DESIGN_GEOMETRIC_PRESENTATION_REPRESENTATION('',(#13),#294);
#11=SHAPE_REPRESENTATION_RELATIONSHIP('SRR','None',#301,#12);
#12=ADVANCED_BREP_SHAPE_REPRESENTATION('',(#14),#293);
#13=STYLED_ITEM('',(#310),#14);
#14=MANIFOLD_SOLID_BREP('Corpo1',#134);
#15=LINE('',#262,#16);
#16=VECTOR('',#199,1.2645);
#17=CIRCLE('',#161,1.2645);
#18=CIRCLE('',#162,1.2645);
#19=CIRCLE('',#163,1.2645);
#20=CIRCLE('',#164,1.2645);
#21=CYLINDRICAL_SURFACE('',#157,1.2645);
#22=B_SPLINE_CURVE_WITH_KNOTS('',1,(#240,#241),.UNSPECIFIED.,.F.,.F.,(2,
2),(-2.85026913761115,-0.00658931586676611),.UNSPECIFIED.);
#23=B_SPLINE_CURVE_WITH_KNOTS('',1,(#285,#286),.UNSPECIFIED.,.F.,.F.,(2,
2),(-2.85026913761112,-0.00658935122030456),.UNSPECIFIED.);
#24=(
BOUNDED_SURFACE()
B_SPLINE_SURFACE(1,2,((#221,#222,#223,#224,#225,#226,#227,#228,#229),(#230,
#231,#232,#233,#234,#235,#236,#237,#238)),.UNSPECIFIED.,.F.,.T.,.F.)
B_SPLINE_SURFACE_WITH_KNOTS((2,2),(3,2,2,2,3),(-4.84480001883228E-15,2.85026913761115),
(-3.14159265358979,-1.5707963267949,0.,1.5707963267949,3.14159265358979),
 .UNSPECIFIED.)
GEOMETRIC_REPRESENTATION_ITEM()
RATIONAL_B_SPLINE_SURFACE(((1.,0.707106781186548,1.,0.707106781186548,1.,
0.707106781186548,1.,0.707106781186548,1.),(1.,0.707106781186548,1.,0.707106781186548,
1.,0.707106781186548,1.,0.707106781186548,1.)))
REPRESENTATION_ITEM('')
SURFACE()
);
#25=(
BOUNDED_SURFACE()
B_SPLINE_SURFACE(1,2,((#266,#267,#268,#269,#270,#271,#272,#273,#274),(#275,
#276,#277,#278,#279,#280,#281,#282,#283)),.UNSPECIFIED.,.F.,.T.,.F.)
B_SPLINE_SURFACE_WITH_KNOTS((2,2),(3,2,2,2,3),(-2.19615992058664E-15,2.85026913761112),
(-3.14159265358979,-1.5707963267949,0.,1.5707963267949,3.14159265358979),
 .UNSPECIFIED.)
GEOMETRIC_REPRESENTATION_ITEM()
RATIONAL_B_SPLINE_SURFACE(((1.,0.707106781186548,1.,0.707106781186548,1.,
0.707106781186548,1.,0.707106781186548,1.),(1.,0.707106781186548,1.,0.707106781186548,
1.,0.707106781186548,1.,0.707106781186548,1.)))
REPRESENTATION_ITEM('')
SURFACE()
);
#26=FACE_OUTER_BOUND('',#33,.T.);
#27=FACE_OUTER_BOUND('',#34,.T.);
#28=FACE_OUTER_BOUND('',#35,.T.);
#29=FACE_OUTER_BOUND('',#36,.T.);
#30=FACE_OUTER_BOUND('',#37,.T.);
#31=FACE_OUTER_BOUND('',#38,.T.);
#32=FACE_OUTER_BOUND('',#39,.T.);
#33=EDGE_LOOP('',(#85));
#34=EDGE_LOOP('',(#86));
#35=EDGE_LOOP('',(#87,#88,#89,#90,#91,#92,#93,#94));
#36=EDGE_LOOP('',(#95,#96,#97,#98,#99,#100,#101,#102,#103,#104,#105,#106));
#37=EDGE_LOOP('',(#107,#108,#109,#110,#111,#112,#113,#114));
#38=EDGE_LOOP('',(#115,#116,#117,#118));
#39=EDGE_LOOP('',(#119,#120,#121,#122));
#40=ELLIPSE('',#149,1.75422030643415,1.2645);
#41=ELLIPSE('',#151,1.75422030643415,1.2645);
#42=ELLIPSE('',#152,2.43360133136094,1.2645);
#43=ELLIPSE('',#153,4.04856412930634,1.2645);
#44=ELLIPSE('',#154,1.75422030643415,1.2645);
#45=ELLIPSE('',#155,4.04856412930634,1.2645);
#46=ELLIPSE('',#156,2.43360133136094,1.2645);
#47=ELLIPSE('',#158,4.04856412930632,1.2645);
#48=ELLIPSE('',#159,1.75422030643415,1.2645);
#49=ELLIPSE('',#160,4.04856412930632,1.2645);
#50=ELLIPSE('',#165,2.43360133136096,1.2645);
#51=ELLIPSE('',#166,2.43360133136096,1.2645);
#52=VERTEX_POINT('',#216);
#53=VERTEX_POINT('',#219);
#54=VERTEX_POINT('',#239);
#55=VERTEX_POINT('',#242);
#56=VERTEX_POINT('',#244);
#57=VERTEX_POINT('',#246);
#58=VERTEX_POINT('',#248);
#59=VERTEX_POINT('',#252);
#60=VERTEX_POINT('',#253);
#61=VERTEX_POINT('',#255);
#62=VERTEX_POINT('',#257);
#63=VERTEX_POINT('',#259);
#64=VERTEX_POINT('',#261);
#65=VERTEX_POINT('',#284);
#66=EDGE_CURVE('',#52,#52,#40,.T.);
#67=EDGE_CURVE('',#53,#53,#41,.T.);
#68=EDGE_CURVE('',#53,#54,#22,.T.);
#69=EDGE_CURVE('',#55,#54,#42,.T.);
#70=EDGE_CURVE('',#56,#55,#43,.T.);
#71=EDGE_CURVE('',#57,#56,#44,.T.);
#72=EDGE_CURVE('',#58,#57,#45,.T.);
#73=EDGE_CURVE('',#54,#58,#46,.T.);
#74=EDGE_CURVE('',#59,#60,#47,.T.);
#75=EDGE_CURVE('',#60,#61,#48,.T.);
#76=EDGE_CURVE('',#61,#62,#49,.T.);
#77=EDGE_CURVE('',#63,#62,#17,.T.);
#78=EDGE_CURVE('',#63,#64,#15,.T.);
#79=EDGE_CURVE('',#58,#64,#18,.T.);
#80=EDGE_CURVE('',#64,#55,#19,.T.);
#81=EDGE_CURVE('',#59,#63,#20,.T.);
#82=EDGE_CURVE('',#52,#65,#23,.T.);
#83=EDGE_CURVE('',#62,#65,#50,.T.);
#84=EDGE_CURVE('',#65,#59,#51,.T.);
#85=ORIENTED_EDGE('',*,*,#66,.T.);
#86=ORIENTED_EDGE('',*,*,#67,.T.);
#87=ORIENTED_EDGE('',*,*,#67,.F.);
#88=ORIENTED_EDGE('',*,*,#68,.T.);
#89=ORIENTED_EDGE('',*,*,#69,.F.);
#90=ORIENTED_EDGE('',*,*,#70,.F.);
#91=ORIENTED_EDGE('',*,*,#71,.F.);
#92=ORIENTED_EDGE('',*,*,#72,.F.);
#93=ORIENTED_EDGE('',*,*,#73,.F.);
#94=ORIENTED_EDGE('',*,*,#68,.F.);
#95=ORIENTED_EDGE('',*,*,#74,.T.);
#96=ORIENTED_EDGE('',*,*,#75,.T.);
#97=ORIENTED_EDGE('',*,*,#76,.T.);
#98=ORIENTED_EDGE('',*,*,#77,.F.);
#99=ORIENTED_EDGE('',*,*,#78,.T.);
#100=ORIENTED_EDGE('',*,*,#79,.F.);
#101=ORIENTED_EDGE('',*,*,#72,.T.);
#102=ORIENTED_EDGE('',*,*,#71,.T.);
#103=ORIENTED_EDGE('',*,*,#70,.T.);
#104=ORIENTED_EDGE('',*,*,#80,.F.);
#105=ORIENTED_EDGE('',*,*,#78,.F.);
#106=ORIENTED_EDGE('',*,*,#81,.F.);
#107=ORIENTED_EDGE('',*,*,#66,.F.);
#108=ORIENTED_EDGE('',*,*,#82,.T.);
#109=ORIENTED_EDGE('',*,*,#83,.F.);
#110=ORIENTED_EDGE('',*,*,#76,.F.);
#111=ORIENTED_EDGE('',*,*,#75,.F.);
#112=ORIENTED_EDGE('',*,*,#74,.F.);
#113=ORIENTED_EDGE('',*,*,#84,.F.);
#114=ORIENTED_EDGE('',*,*,#82,.F.);
#115=ORIENTED_EDGE('',*,*,#83,.T.);
#116=ORIENTED_EDGE('',*,*,#84,.T.);
#117=ORIENTED_EDGE('',*,*,#81,.T.);
#118=ORIENTED_EDGE('',*,*,#77,.T.);
#119=ORIENTED_EDGE('',*,*,#69,.T.);
#120=ORIENTED_EDGE('',*,*,#73,.T.);
#121=ORIENTED_EDGE('',*,*,#79,.T.);
#122=ORIENTED_EDGE('',*,*,#80,.T.);
#123=PLANE('',#148);
#124=PLANE('',#150);
#125=PLANE('',#167);
#126=PLANE('',#168);
#127=ADVANCED_FACE('',(#26),#123,.F.);
#128=ADVANCED_FACE('',(#27),#124,.F.);
#129=ADVANCED_FACE('',(#28),#24,.F.);
#130=ADVANCED_FACE('',(#29),#21,.T.);
#131=ADVANCED_FACE('',(#30),#25,.F.);
#132=ADVANCED_FACE('',(#31),#125,.T.);
#133=ADVANCED_FACE('',(#32),#126,.F.);
#134=CLOSED_SHELL('',(#127,#128,#129,#130,#131,#132,#133));
#135=DERIVED_UNIT_ELEMENT(#137,1.);
#136=DERIVED_UNIT_ELEMENT(#296,-3.);
#137=(
MASS_UNIT()
NAMED_UNIT(*)
SI_UNIT(.KILO.,.GRAM.)
);
#138=DERIVED_UNIT((#135,#136));
#139=MEASURE_REPRESENTATION_ITEM('density measure',
POSITIVE_RATIO_MEASURE(7850.),#138);
#140=PROPERTY_DEFINITION_REPRESENTATION(#145,#142);
#141=PROPERTY_DEFINITION_REPRESENTATION(#146,#143);
#142=REPRESENTATION('material name',(#144),#293);
#143=REPRESENTATION('density',(#139),#293);
#144=DESCRIPTIVE_REPRESENTATION_ITEM('A\X\E7o','A\X\E7o');
#145=PROPERTY_DEFINITION('material property','material name',#303);
#146=PROPERTY_DEFINITION('material property','density of part',#303);
#147=AXIS2_PLACEMENT_3D('',#214,#169,#170);
#148=AXIS2_PLACEMENT_3D('',#215,#171,#172);
#149=AXIS2_PLACEMENT_3D('',#217,#173,#174);
#150=AXIS2_PLACEMENT_3D('',#218,#175,#176);
#151=AXIS2_PLACEMENT_3D('',#220,#177,#178);
#152=AXIS2_PLACEMENT_3D('',#243,#179,#180);
#153=AXIS2_PLACEMENT_3D('',#245,#181,#182);
#154=AXIS2_PLACEMENT_3D('',#247,#183,#184);
#155=AXIS2_PLACEMENT_3D('',#249,#185,#186);
#156=AXIS2_PLACEMENT_3D('',#250,#187,#188);
#157=AXIS2_PLACEMENT_3D('',#251,#189,#190);
#158=AXIS2_PLACEMENT_3D('',#254,#191,#192);
#159=AXIS2_PLACEMENT_3D('',#256,#193,#194);
#160=AXIS2_PLACEMENT_3D('',#258,#195,#196);
#161=AXIS2_PLACEMENT_3D('',#260,#197,#198);
#162=AXIS2_PLACEMENT_3D('',#263,#200,#201);
#163=AXIS2_PLACEMENT_3D('',#264,#202,#203);
#164=AXIS2_PLACEMENT_3D('',#265,#204,#205);
#165=AXIS2_PLACEMENT_3D('',#287,#206,#207);
#166=AXIS2_PLACEMENT_3D('',#288,#208,#209);
#167=AXIS2_PLACEMENT_3D('',#289,#210,#211);
#168=AXIS2_PLACEMENT_3D('',#290,#212,#213);
#169=DIRECTION('axis',(0.,0.,1.));
#170=DIRECTION('refdir',(1.,0.,0.));
#171=DIRECTION('center_axis',(4.6755100888629E-15,0.693108716251784,0.720833064901856));
#172=DIRECTION('ref_axis',(4.14660303827931E-15,-0.720833064901856,0.693108716251785));
#173=DIRECTION('center_axis',(-4.6755100888629E-15,-0.693108716251784,-0.720833064901856));
#174=DIRECTION('ref_axis',(5.11188908610994E-15,-0.720833064901856,0.693108716251785));
#175=DIRECTION('center_axis',(-4.17590972778158E-15,0.693108716251784,-0.720833064901856));
#176=DIRECTION('ref_axis',(4.03558073581679E-15,0.720833064901856,0.693108716251784));
#177=DIRECTION('center_axis',(4.17590972778158E-15,-0.693108716251784,0.720833064901856));
#178=DIRECTION('ref_axis',(-4.9141119346753E-15,-0.720833064901856,-0.693108716251784));
#179=DIRECTION('center_axis',(-6.66301557847056E-15,1.55937659875962E-15,
-1.));
#180=DIRECTION('ref_axis',(-5.41744378897553E-16,-1.,-1.47871781307912E-15));
#181=DIRECTION('center_axis',(4.16954000119562E-15,0.949972696931035,0.312332955490732));
#182=DIRECTION('ref_axis',(-5.98221384003718E-15,0.312332955490732,-0.949972696931035));
#183=DIRECTION('center_axis',(-2.70486422015325E-15,0.693108716251785,-0.720833064901855));
#184=DIRECTION('ref_axis',(-4.9141119346753E-15,-0.720833064901856,-0.693108716251785));
#185=DIRECTION('center_axis',(4.16954000119562E-15,0.949972696931035,0.312332955490732));
#186=DIRECTION('ref_axis',(-5.98221384003718E-15,0.312332955490732,-0.949972696931035));
#187=DIRECTION('center_axis',(-6.66301557847056E-15,1.55937659875962E-15,
-1.));
#188=DIRECTION('ref_axis',(-5.41744378897553E-16,-1.,-1.47871781307912E-15));
#189=DIRECTION('center_axis',(-6.66301557847055E-15,1.55937659875961E-15,
-1.));
#190=DIRECTION('ref_axis',(-0.866025403784439,-0.5,4.99065245738715E-15));
#191=DIRECTION('center_axis',(3.82374399767542E-16,0.949972696931037,-0.312332955490728));
#192=DIRECTION('ref_axis',(6.22216190940702E-15,0.312332955490728,0.949972696931036));
#193=DIRECTION('center_axis',(6.03553329402873E-15,0.693108716251783,0.720833064901857));
#194=DIRECTION('ref_axis',(5.11188908610995E-15,-0.720833064901856,0.693108716251785));
#195=DIRECTION('center_axis',(3.82374399767542E-16,0.949972696931037,-0.312332955490728));
#196=DIRECTION('ref_axis',(6.22216190940702E-15,0.312332955490728,0.949972696931036));
#197=DIRECTION('center_axis',(-6.66301557847056E-15,1.55937659875962E-15,
-1.));
#198=DIRECTION('ref_axis',(-0.866025403784439,-0.5,4.99065245738715E-15));
#199=DIRECTION('',(6.66301557847055E-15,-1.55937659875961E-15,1.));
#200=DIRECTION('center_axis',(6.66301557847056E-15,-1.55937659875962E-15,
1.));
#201=DIRECTION('ref_axis',(-0.866025403784439,-0.5,4.99065245738715E-15));
#202=DIRECTION('center_axis',(6.66301557847056E-15,-1.55937659875962E-15,
1.));
#203=DIRECTION('ref_axis',(-0.866025403784439,-0.5,4.99065245738715E-15));
#204=DIRECTION('center_axis',(-6.66301557847056E-15,1.55937659875962E-15,
-1.));
#205=DIRECTION('ref_axis',(-0.866025403784439,-0.5,4.99065245738715E-15));
#206=DIRECTION('center_axis',(6.66301557847056E-15,-1.55937659875962E-15,
1.));
#207=DIRECTION('ref_axis',(6.2728296503925E-16,-1.,-1.59276926126807E-15));
#208=DIRECTION('center_axis',(6.66301557847056E-15,-1.55937659875962E-15,
1.));
#209=DIRECTION('ref_axis',(6.2728296503925E-16,-1.,-1.59276926126807E-15));
#210=DIRECTION('center_axis',(-6.66301557847056E-15,1.55937659875962E-15,
-1.));
#211=DIRECTION('ref_axis',(-0.866025403784439,-0.5,4.99065245738716E-15));
#212=DIRECTION('center_axis',(-6.66301557847056E-15,1.55937659875962E-15,
-1.));
#213=DIRECTION('ref_axis',(-0.866025403784439,-0.5,4.99065245738716E-15));
#214=CARTESIAN_POINT('',(0.,0.,0.));
#215=CARTESIAN_POINT('Origin',(-41.6107671570369,22.6344575117417,117.894293680562));
#216=CARTESIAN_POINT('',(-37.2337433895665,22.6257923364266,117.902625579903));
#217=CARTESIAN_POINT('Origin',(-37.2337433895665,21.3612923364266,119.118490964519));
#218=CARTESIAN_POINT('Origin',(-41.6107671570367,20.0344575698562,150.602623759611));
#219=CARTESIAN_POINT('',(-37.2337433895662,22.6257923364266,153.09429180439));
#220=CARTESIAN_POINT('Origin',(-37.2337433895662,21.3612923364265,151.878426419775));
#221=CARTESIAN_POINT('Ctrl Pts',(-37.2337433895663,26.0913359176855,149.490126479881));
#222=CARTESIAN_POINT('Ctrl Pts',(-38.4982433895663,26.0913359176855,149.490126479881));
#223=CARTESIAN_POINT('Ctrl Pts',(-38.4982433895663,24.8268359176855,148.274261095266));
#224=CARTESIAN_POINT('Ctrl Pts',(-38.4982433895663,23.5623359176855,147.05839571065));
#225=CARTESIAN_POINT('Ctrl Pts',(-37.2337433895663,23.5623359176855,147.05839571065));
#226=CARTESIAN_POINT('Ctrl Pts',(-35.9692433895663,23.5623359176855,147.05839571065));
#227=CARTESIAN_POINT('Ctrl Pts',(-35.9692433895663,24.8268359176855,148.274261095265));
#228=CARTESIAN_POINT('Ctrl Pts',(-35.9692433895663,26.0913359176855,149.490126479881));
#229=CARTESIAN_POINT('Ctrl Pts',(-37.2337433895663,26.0913359176855,149.490126479881));
#230=CARTESIAN_POINT('Ctrl Pts',(-37.2337433895662,22.6257923364265,153.09429180439));
#231=CARTESIAN_POINT('Ctrl Pts',(-38.4982433895663,22.6257923364265,153.09429180439));
#232=CARTESIAN_POINT('Ctrl Pts',(-38.4982433895663,21.3612923364265,151.878426419775));
#233=CARTESIAN_POINT('Ctrl Pts',(-38.4982433895663,20.0967923364265,150.662561035159));
#234=CARTESIAN_POINT('Ctrl Pts',(-37.2337433895663,20.0967923364265,150.662561035159));
#235=CARTESIAN_POINT('Ctrl Pts',(-35.9692433895663,20.0967923364265,150.662561035159));
#236=CARTESIAN_POINT('Ctrl Pts',(-35.9692433895663,21.3612923364265,151.878426419775));
#237=CARTESIAN_POINT('Ctrl Pts',(-35.9692433895662,22.6257923364265,153.09429180439));
#238=CARTESIAN_POINT('Ctrl Pts',(-37.2337433895662,22.6257923364265,153.09429180439));
#239=CARTESIAN_POINT('',(-37.2337433895663,26.0833241966148,149.498458669794));
#240=CARTESIAN_POINT('Ctrl Pts',(-37.2337433895662,22.6257923364265,153.09429180439));
#241=CARTESIAN_POINT('Ctrl Pts',(-37.2337433895663,26.0833241966148,149.498458669794));
#242=CARTESIAN_POINT('',(-38.4324759417555,24.4243430378454,149.498458669794));
#243=CARTESIAN_POINT('Origin',(-37.2337433895663,23.6497228652538,149.498458669794));
#244=CARTESIAN_POINT('',(-38.4982433895663,24.8268359176855,148.274261095266));
#245=CARTESIAN_POINT('Origin',(-37.2337433895663,24.8268359176855,148.274261095266));
#246=CARTESIAN_POINT('',(-35.9692433895663,24.8268359176855,148.274261095266));
#247=CARTESIAN_POINT('Origin',(-37.2337433895663,24.8268359176855,148.274261095266));
#248=CARTESIAN_POINT('',(-36.0350108373771,24.4243430378454,149.498458669794));
#249=CARTESIAN_POINT('Origin',(-37.2337433895663,24.8268359176855,148.274261095266));
#250=CARTESIAN_POINT('Origin',(-37.2337433895663,23.6497228652538,149.498458669794));
#251=CARTESIAN_POINT('Origin',(-37.2337433895663,24.8268359176855,142.498458669794));
#252=CARTESIAN_POINT('',(-38.4324759368206,24.4243430231474,121.498458669794));
#253=CARTESIAN_POINT('',(-38.4982433895664,24.8268359176855,122.722656289028));
#254=CARTESIAN_POINT('Origin',(-37.2337433895664,24.8268359176855,122.722656289028));
#255=CARTESIAN_POINT('',(-35.9692433895664,24.8268359176855,122.722656289028));
#256=CARTESIAN_POINT('Origin',(-37.2337433895664,24.8268359176855,122.722656289028));
#257=CARTESIAN_POINT('',(-36.0350108423123,24.4243430231475,121.498458669794));
#258=CARTESIAN_POINT('Origin',(-37.2337433895664,24.8268359176855,122.722656289028));
#259=CARTESIAN_POINT('',(-36.138654266481,25.4590859176855,121.498458669794));
#260=CARTESIAN_POINT('Origin',(-37.2337433895665,24.8268359176855,121.498458669794));
#261=CARTESIAN_POINT('',(-36.1386542664808,25.4590859176855,149.498458669794));
#262=CARTESIAN_POINT('',(-36.1386542664809,25.4590859176855,142.498458669794));
#263=CARTESIAN_POINT('Origin',(-37.2337433895663,24.8268359176855,149.498458669794));
#264=CARTESIAN_POINT('Origin',(-37.2337433895663,24.8268359176855,149.498458669794));
#265=CARTESIAN_POINT('Origin',(-37.2337433895665,24.8268359176855,121.498458669794));
#266=CARTESIAN_POINT('Ctrl Pts',(-37.2337433895665,26.0913359176855,121.506790904412));
#267=CARTESIAN_POINT('Ctrl Pts',(-35.9692433895665,26.0913359176855,121.506790904412));
#268=CARTESIAN_POINT('Ctrl Pts',(-35.9692433895664,24.8268359176855,122.722656289028));
#269=CARTESIAN_POINT('Ctrl Pts',(-35.9692433895664,23.5623359176855,123.938521673643));
#270=CARTESIAN_POINT('Ctrl Pts',(-37.2337433895664,23.5623359176855,123.938521673643));
#271=CARTESIAN_POINT('Ctrl Pts',(-38.4982433895664,23.5623359176855,123.938521673643));
#272=CARTESIAN_POINT('Ctrl Pts',(-38.4982433895664,24.8268359176855,122.722656289028));
#273=CARTESIAN_POINT('Ctrl Pts',(-38.4982433895665,26.0913359176855,121.506790904412));
#274=CARTESIAN_POINT('Ctrl Pts',(-37.2337433895665,26.0913359176855,121.506790904412));
#275=CARTESIAN_POINT('Ctrl Pts',(-37.2337433895665,22.6257923364266,117.902625579903));
#276=CARTESIAN_POINT('Ctrl Pts',(-35.9692433895665,22.6257923364266,117.902625579903));
#277=CARTESIAN_POINT('Ctrl Pts',(-35.9692433895665,21.3612923364266,119.118490964519));
#278=CARTESIAN_POINT('Ctrl Pts',(-35.9692433895665,20.0967923364266,120.334356349134));
#279=CARTESIAN_POINT('Ctrl Pts',(-37.2337433895665,20.0967923364266,120.334356349134));
#280=CARTESIAN_POINT('Ctrl Pts',(-38.4982433895665,20.0967923364266,120.334356349134));
#281=CARTESIAN_POINT('Ctrl Pts',(-38.4982433895665,21.3612923364266,119.118490964519));
#282=CARTESIAN_POINT('Ctrl Pts',(-38.4982433895665,22.6257923364266,117.902625579903));
#283=CARTESIAN_POINT('Ctrl Pts',(-37.2337433895665,22.6257923364266,117.902625579903));
#284=CARTESIAN_POINT('',(-37.2337433895665,26.0833241536297,121.498458669794));
#285=CARTESIAN_POINT('Ctrl Pts',(-37.2337433895665,22.6257923364266,117.902625579903));
#286=CARTESIAN_POINT('Ctrl Pts',(-37.2337433895665,26.0833241536297,121.498458669794));
#287=CARTESIAN_POINT('Origin',(-37.2337433895665,23.6497228222687,121.498458669794));
#288=CARTESIAN_POINT('Origin',(-37.2337433895665,23.6497228222687,121.498458669794));
#289=CARTESIAN_POINT('Origin',(-34.6064971818842,17.0578217954488,121.498458669794));
#290=CARTESIAN_POINT('Origin',(-34.606497181884,17.0578217954487,149.498458669794));
#291=UNCERTAINTY_MEASURE_WITH_UNIT(LENGTH_MEASURE(0.01),#295,
'DISTANCE_ACCURACY_VALUE',
'Maximum model space distance between geometric entities at asserted c
onnectivities');
#292=UNCERTAINTY_MEASURE_WITH_UNIT(LENGTH_MEASURE(0.01),#295,
'DISTANCE_ACCURACY_VALUE',
'Maximum model space distance between geometric entities at asserted c
onnectivities');
#293=(
GEOMETRIC_REPRESENTATION_CONTEXT(3)
GLOBAL_UNCERTAINTY_ASSIGNED_CONTEXT((#291))
GLOBAL_UNIT_ASSIGNED_CONTEXT((#295,#297,#298))
REPRESENTATION_CONTEXT('','3D')
);
#294=(
GEOMETRIC_REPRESENTATION_CONTEXT(3)
GLOBAL_UNCERTAINTY_ASSIGNED_CONTEXT((#292))
GLOBAL_UNIT_ASSIGNED_CONTEXT((#295,#297,#298))
REPRESENTATION_CONTEXT('','3D')
);
#295=(
LENGTH_UNIT()
NAMED_UNIT(*)
SI_UNIT(.MILLI.,.METRE.)
);
#296=(
LENGTH_UNIT()
NAMED_UNIT(*)
SI_UNIT($,.METRE.)
);
#297=(
NAMED_UNIT(*)
PLANE_ANGLE_UNIT()
SI_UNIT($,.RADIAN.)
);
#298=(
NAMED_UNIT(*)
SI_UNIT($,.STERADIAN.)
SOLID_ANGLE_UNIT()
);
#299=SHAPE_DEFINITION_REPRESENTATION(#300,#301);
#300=PRODUCT_DEFINITION_SHAPE('',$,#303);
#301=SHAPE_REPRESENTATION('',(#147),#293);
#302=PRODUCT_DEFINITION_CONTEXT('part definition',#307,'design');
#303=PRODUCT_DEFINITION('2026-06-22-01-03-35-408','Haste_Disco',#304,#302);
#304=PRODUCT_DEFINITION_FORMATION('',$,#309);
#305=PRODUCT_RELATED_PRODUCT_CATEGORY('Haste_Disco','Haste_Disco',(#309));
#306=APPLICATION_PROTOCOL_DEFINITION('international standard',
'automotive_design',2009,#307);
#307=APPLICATION_CONTEXT(
'Core Data for Automotive Mechanical Design Process');
#308=PRODUCT_CONTEXT('part definition',#307,'mechanical');
#309=PRODUCT('2026-06-22-01-03-35-408','Haste_Disco',$,(#308));
#310=PRESENTATION_STYLE_ASSIGNMENT((#311));
#311=SURFACE_STYLE_USAGE(.BOTH.,#312);
#312=SURFACE_SIDE_STYLE('',(#313));
#313=SURFACE_STYLE_FILL_AREA(#314);
#314=FILL_AREA_STYLE('A\X\E7o - Acetinado',(#315));
#315=FILL_AREA_STYLE_COLOUR('A\X\E7o - Acetinado',#316);
#316=COLOUR_RGB('A\X\E7o - Acetinado',0.627450980392157,0.627450980392157,
0.627450980392157);
ENDSEC;
END-ISO-10303-21;
