ISO-10303-21;
HEADER;
/* Generated by software containing ST-Developer
 * from STEP Tools, Inc. (www.steptools.com) 
 */

FILE_DESCRIPTION(
/* description */ (''),
/* implementation_level */ '2;1');

FILE_NAME(
/* name */ 'Lateral_Esquerda.step',
/* time_stamp */ '2026-05-29T16:09:17-03:00',
/* author */ (''),
/* organization */ (''),
/* preprocessor_version */ 'ST-DEVELOPER v20.1',
/* originating_system */ 'Autodesk Translation Framework v15.8.0.0',
/* authorisation */ '');

FILE_SCHEMA (('AUTOMOTIVE_DESIGN { 1 0 10303 214 3 1 1 }'));
ENDSEC;

DATA;
#10=MECHANICAL_DESIGN_GEOMETRIC_PRESENTATION_REPRESENTATION('',(#13),#729);
#11=SHAPE_REPRESENTATION_RELATIONSHIP('SRR','None',#736,#12);
#12=ADVANCED_BREP_SHAPE_REPRESENTATION('',(#14),#728);
#13=STYLED_ITEM('',(#746),#14);
#14=MANIFOLD_SOLID_BREP('Corpo1',#434);
#15=FACE_BOUND('',#76,.T.);
#16=FACE_BOUND('',#77,.T.);
#17=FACE_BOUND('',#78,.T.);
#18=FACE_BOUND('',#79,.T.);
#19=FACE_BOUND('',#80,.T.);
#20=FACE_BOUND('',#81,.T.);
#21=FACE_BOUND('',#84,.T.);
#22=FACE_BOUND('',#85,.T.);
#23=FACE_BOUND('',#86,.T.);
#24=FACE_BOUND('',#87,.T.);
#25=FACE_BOUND('',#88,.T.);
#26=FACE_BOUND('',#89,.T.);
#27=PLANE('',#457);
#28=PLANE('',#461);
#29=PLANE('',#465);
#30=PLANE('',#469);
#31=PLANE('',#476);
#32=PLANE('',#477);
#33=PLANE('',#478);
#34=PLANE('',#479);
#35=PLANE('',#481);
#36=PLANE('',#482);
#37=PLANE('',#485);
#38=PLANE('',#486);
#39=FACE_OUTER_BOUND('',#60,.T.);
#40=FACE_OUTER_BOUND('',#61,.T.);
#41=FACE_OUTER_BOUND('',#62,.T.);
#42=FACE_OUTER_BOUND('',#63,.T.);
#43=FACE_OUTER_BOUND('',#64,.T.);
#44=FACE_OUTER_BOUND('',#65,.T.);
#45=FACE_OUTER_BOUND('',#66,.T.);
#46=FACE_OUTER_BOUND('',#67,.T.);
#47=FACE_OUTER_BOUND('',#68,.T.);
#48=FACE_OUTER_BOUND('',#69,.T.);
#49=FACE_OUTER_BOUND('',#70,.T.);
#50=FACE_OUTER_BOUND('',#71,.T.);
#51=FACE_OUTER_BOUND('',#72,.T.);
#52=FACE_OUTER_BOUND('',#73,.T.);
#53=FACE_OUTER_BOUND('',#74,.T.);
#54=FACE_OUTER_BOUND('',#75,.T.);
#55=FACE_OUTER_BOUND('',#82,.T.);
#56=FACE_OUTER_BOUND('',#83,.T.);
#57=FACE_OUTER_BOUND('',#90,.T.);
#58=FACE_OUTER_BOUND('',#91,.T.);
#59=FACE_OUTER_BOUND('',#92,.T.);
#60=EDGE_LOOP('',(#288,#289,#290,#291));
#61=EDGE_LOOP('',(#292,#293,#294,#295));
#62=EDGE_LOOP('',(#296,#297,#298,#299));
#63=EDGE_LOOP('',(#300,#301,#302,#303));
#64=EDGE_LOOP('',(#304,#305,#306,#307));
#65=EDGE_LOOP('',(#308,#309,#310,#311));
#66=EDGE_LOOP('',(#312,#313,#314,#315));
#67=EDGE_LOOP('',(#316,#317,#318,#319));
#68=EDGE_LOOP('',(#320,#321,#322,#323));
#69=EDGE_LOOP('',(#324,#325,#326,#327));
#70=EDGE_LOOP('',(#328,#329,#330,#331));
#71=EDGE_LOOP('',(#332,#333,#334,#335));
#72=EDGE_LOOP('',(#336,#337,#338,#339,#340));
#73=EDGE_LOOP('',(#341,#342,#343,#344));
#74=EDGE_LOOP('',(#345,#346,#347,#348));
#75=EDGE_LOOP('',(#349,#350,#351,#352,#353,#354));
#76=EDGE_LOOP('',(#355));
#77=EDGE_LOOP('',(#356));
#78=EDGE_LOOP('',(#357,#358,#359,#360,#361,#362,#363,#364));
#79=EDGE_LOOP('',(#365));
#80=EDGE_LOOP('',(#366));
#81=EDGE_LOOP('',(#367));
#82=EDGE_LOOP('',(#368,#369,#370,#371));
#83=EDGE_LOOP('',(#372,#373,#374,#375,#376,#377,#378));
#84=EDGE_LOOP('',(#379));
#85=EDGE_LOOP('',(#380));
#86=EDGE_LOOP('',(#381,#382,#383,#384,#385,#386,#387,#388));
#87=EDGE_LOOP('',(#389));
#88=EDGE_LOOP('',(#390));
#89=EDGE_LOOP('',(#391));
#90=EDGE_LOOP('',(#392,#393,#394,#395));
#91=EDGE_LOOP('',(#396,#397,#398,#399));
#92=EDGE_LOOP('',(#400,#401,#402,#403));
#93=LINE('',#612,#133);
#94=LINE('',#618,#134);
#95=LINE('',#624,#135);
#96=LINE('',#629,#136);
#97=LINE('',#631,#137);
#98=LINE('',#633,#138);
#99=LINE('',#634,#139);
#100=LINE('',#640,#140);
#101=LINE('',#643,#141);
#102=LINE('',#645,#142);
#103=LINE('',#646,#143);
#104=LINE('',#652,#144);
#105=LINE('',#655,#145);
#106=LINE('',#657,#146);
#107=LINE('',#658,#147);
#108=LINE('',#664,#148);
#109=LINE('',#667,#149);
#110=LINE('',#669,#150);
#111=LINE('',#670,#151);
#112=LINE('',#678,#152);
#113=LINE('',#683,#153);
#114=LINE('',#685,#154);
#115=LINE('',#687,#155);
#116=LINE('',#689,#156);
#117=LINE('',#690,#157);
#118=LINE('',#694,#158);
#119=LINE('',#696,#159);
#120=LINE('',#698,#160);
#121=LINE('',#699,#161);
#122=LINE('',#701,#162);
#123=LINE('',#702,#163);
#124=LINE('',#705,#164);
#125=LINE('',#707,#165);
#126=LINE('',#708,#166);
#127=LINE('',#713,#167);
#128=LINE('',#714,#168);
#129=LINE('',#717,#169);
#130=LINE('',#718,#170);
#131=LINE('',#722,#171);
#132=LINE('',#724,#172);
#133=VECTOR('',#493,2.00000000000001);
#134=VECTOR('',#500,1.99999999999999);
#135=VECTOR('',#507,2.00000000000001);
#136=VECTOR('',#512,10.);
#137=VECTOR('',#513,10.);
#138=VECTOR('',#514,10.);
#139=VECTOR('',#515,10.);
#140=VECTOR('',#522,10.);
#141=VECTOR('',#525,10.);
#142=VECTOR('',#526,10.);
#143=VECTOR('',#527,10.);
#144=VECTOR('',#534,10.);
#145=VECTOR('',#537,10.);
#146=VECTOR('',#538,10.);
#147=VECTOR('',#539,10.);
#148=VECTOR('',#546,10.);
#149=VECTOR('',#549,10.);
#150=VECTOR('',#550,10.);
#151=VECTOR('',#551,10.);
#152=VECTOR('',#562,2.00000000000001);
#153=VECTOR('',#567,10.);
#154=VECTOR('',#568,10.);
#155=VECTOR('',#569,10.);
#156=VECTOR('',#570,10.);
#157=VECTOR('',#571,10.);
#158=VECTOR('',#574,10.);
#159=VECTOR('',#575,10.);
#160=VECTOR('',#576,10.);
#161=VECTOR('',#577,10.);
#162=VECTOR('',#580,10.);
#163=VECTOR('',#581,10.);
#164=VECTOR('',#584,10.);
#165=VECTOR('',#585,10.);
#166=VECTOR('',#586,10.);
#167=VECTOR('',#591,10.);
#168=VECTOR('',#592,10.);
#169=VECTOR('',#595,10.);
#170=VECTOR('',#596,10.);
#171=VECTOR('',#601,10.9);
#172=VECTOR('',#604,10.);
#173=CIRCLE('',#449,2.00000000000001);
#174=CIRCLE('',#450,2.00000000000001);
#175=CIRCLE('',#452,1.99999999999999);
#176=CIRCLE('',#453,1.99999999999999);
#177=CIRCLE('',#455,2.00000000000001);
#178=CIRCLE('',#456,2.00000000000001);
#179=CIRCLE('',#459,0.999999999999339);
#180=CIRCLE('',#460,0.999999999999339);
#181=CIRCLE('',#463,1.00000000000001);
#182=CIRCLE('',#464,1.00000000000001);
#183=CIRCLE('',#467,0.999999999999979);
#184=CIRCLE('',#468,0.999999999999979);
#185=CIRCLE('',#471,1.00000000000003);
#186=CIRCLE('',#472,1.00000000000003);
#187=CIRCLE('',#474,2.00000000000001);
#188=CIRCLE('',#475,2.00000000000001);
#189=CIRCLE('',#480,10.9);
#190=CIRCLE('',#483,10.9);
#191=VERTEX_POINT('',#609);
#192=VERTEX_POINT('',#611);
#193=VERTEX_POINT('',#615);
#194=VERTEX_POINT('',#617);
#195=VERTEX_POINT('',#621);
#196=VERTEX_POINT('',#623);
#197=VERTEX_POINT('',#627);
#198=VERTEX_POINT('',#628);
#199=VERTEX_POINT('',#630);
#200=VERTEX_POINT('',#632);
#201=VERTEX_POINT('',#636);
#202=VERTEX_POINT('',#638);
#203=VERTEX_POINT('',#642);
#204=VERTEX_POINT('',#644);
#205=VERTEX_POINT('',#648);
#206=VERTEX_POINT('',#650);
#207=VERTEX_POINT('',#654);
#208=VERTEX_POINT('',#656);
#209=VERTEX_POINT('',#660);
#210=VERTEX_POINT('',#662);
#211=VERTEX_POINT('',#666);
#212=VERTEX_POINT('',#668);
#213=VERTEX_POINT('',#675);
#214=VERTEX_POINT('',#677);
#215=VERTEX_POINT('',#681);
#216=VERTEX_POINT('',#682);
#217=VERTEX_POINT('',#684);
#218=VERTEX_POINT('',#686);
#219=VERTEX_POINT('',#688);
#220=VERTEX_POINT('',#692);
#221=VERTEX_POINT('',#693);
#222=VERTEX_POINT('',#695);
#223=VERTEX_POINT('',#697);
#224=VERTEX_POINT('',#704);
#225=VERTEX_POINT('',#706);
#226=VERTEX_POINT('',#709);
#227=VERTEX_POINT('',#712);
#228=VERTEX_POINT('',#716);
#229=VERTEX_POINT('',#719);
#230=EDGE_CURVE('',#191,#191,#173,.T.);
#231=EDGE_CURVE('',#191,#192,#93,.T.);
#232=EDGE_CURVE('',#192,#192,#174,.T.);
#233=EDGE_CURVE('',#193,#193,#175,.T.);
#234=EDGE_CURVE('',#193,#194,#94,.T.);
#235=EDGE_CURVE('',#194,#194,#176,.T.);
#236=EDGE_CURVE('',#195,#195,#177,.T.);
#237=EDGE_CURVE('',#195,#196,#95,.T.);
#238=EDGE_CURVE('',#196,#196,#178,.T.);
#239=EDGE_CURVE('',#197,#198,#96,.T.);
#240=EDGE_CURVE('',#199,#197,#97,.T.);
#241=EDGE_CURVE('',#200,#199,#98,.T.);
#242=EDGE_CURVE('',#200,#198,#99,.T.);
#243=EDGE_CURVE('',#198,#201,#179,.T.);
#244=EDGE_CURVE('',#202,#200,#180,.T.);
#245=EDGE_CURVE('',#202,#201,#100,.T.);
#246=EDGE_CURVE('',#201,#203,#101,.T.);
#247=EDGE_CURVE('',#204,#202,#102,.T.);
#248=EDGE_CURVE('',#204,#203,#103,.T.);
#249=EDGE_CURVE('',#203,#205,#181,.T.);
#250=EDGE_CURVE('',#206,#204,#182,.T.);
#251=EDGE_CURVE('',#206,#205,#104,.T.);
#252=EDGE_CURVE('',#205,#207,#105,.T.);
#253=EDGE_CURVE('',#208,#206,#106,.T.);
#254=EDGE_CURVE('',#208,#207,#107,.T.);
#255=EDGE_CURVE('',#207,#209,#183,.T.);
#256=EDGE_CURVE('',#210,#208,#184,.T.);
#257=EDGE_CURVE('',#210,#209,#108,.T.);
#258=EDGE_CURVE('',#209,#211,#109,.T.);
#259=EDGE_CURVE('',#212,#210,#110,.T.);
#260=EDGE_CURVE('',#212,#211,#111,.T.);
#261=EDGE_CURVE('',#211,#197,#185,.T.);
#262=EDGE_CURVE('',#199,#212,#186,.T.);
#263=EDGE_CURVE('',#213,#213,#187,.T.);
#264=EDGE_CURVE('',#213,#214,#112,.T.);
#265=EDGE_CURVE('',#214,#214,#188,.T.);
#266=EDGE_CURVE('',#215,#216,#113,.T.);
#267=EDGE_CURVE('',#217,#215,#114,.T.);
#268=EDGE_CURVE('',#218,#217,#115,.T.);
#269=EDGE_CURVE('',#219,#218,#116,.T.);
#270=EDGE_CURVE('',#216,#219,#117,.T.);
#271=EDGE_CURVE('',#220,#221,#118,.T.);
#272=EDGE_CURVE('',#222,#220,#119,.T.);
#273=EDGE_CURVE('',#223,#222,#120,.T.);
#274=EDGE_CURVE('',#221,#223,#121,.T.);
#275=EDGE_CURVE('',#215,#222,#122,.T.);
#276=EDGE_CURVE('',#217,#220,#123,.T.);
#277=EDGE_CURVE('',#221,#224,#124,.T.);
#278=EDGE_CURVE('',#224,#225,#125,.T.);
#279=EDGE_CURVE('',#225,#218,#126,.T.);
#280=EDGE_CURVE('',#226,#226,#189,.T.);
#281=EDGE_CURVE('',#223,#227,#127,.T.);
#282=EDGE_CURVE('',#227,#224,#128,.T.);
#283=EDGE_CURVE('',#219,#228,#129,.T.);
#284=EDGE_CURVE('',#227,#228,#130,.T.);
#285=EDGE_CURVE('',#229,#229,#190,.T.);
#286=EDGE_CURVE('',#229,#226,#131,.T.);
#287=EDGE_CURVE('',#228,#225,#132,.T.);
#288=ORIENTED_EDGE('',*,*,#230,.F.);
#289=ORIENTED_EDGE('',*,*,#231,.T.);
#290=ORIENTED_EDGE('',*,*,#232,.F.);
#291=ORIENTED_EDGE('',*,*,#231,.F.);
#292=ORIENTED_EDGE('',*,*,#233,.F.);
#293=ORIENTED_EDGE('',*,*,#234,.T.);
#294=ORIENTED_EDGE('',*,*,#235,.F.);
#295=ORIENTED_EDGE('',*,*,#234,.F.);
#296=ORIENTED_EDGE('',*,*,#236,.F.);
#297=ORIENTED_EDGE('',*,*,#237,.T.);
#298=ORIENTED_EDGE('',*,*,#238,.F.);
#299=ORIENTED_EDGE('',*,*,#237,.F.);
#300=ORIENTED_EDGE('',*,*,#239,.F.);
#301=ORIENTED_EDGE('',*,*,#240,.F.);
#302=ORIENTED_EDGE('',*,*,#241,.F.);
#303=ORIENTED_EDGE('',*,*,#242,.T.);
#304=ORIENTED_EDGE('',*,*,#243,.F.);
#305=ORIENTED_EDGE('',*,*,#242,.F.);
#306=ORIENTED_EDGE('',*,*,#244,.F.);
#307=ORIENTED_EDGE('',*,*,#245,.T.);
#308=ORIENTED_EDGE('',*,*,#246,.F.);
#309=ORIENTED_EDGE('',*,*,#245,.F.);
#310=ORIENTED_EDGE('',*,*,#247,.F.);
#311=ORIENTED_EDGE('',*,*,#248,.T.);
#312=ORIENTED_EDGE('',*,*,#249,.F.);
#313=ORIENTED_EDGE('',*,*,#248,.F.);
#314=ORIENTED_EDGE('',*,*,#250,.F.);
#315=ORIENTED_EDGE('',*,*,#251,.T.);
#316=ORIENTED_EDGE('',*,*,#252,.F.);
#317=ORIENTED_EDGE('',*,*,#251,.F.);
#318=ORIENTED_EDGE('',*,*,#253,.F.);
#319=ORIENTED_EDGE('',*,*,#254,.T.);
#320=ORIENTED_EDGE('',*,*,#255,.F.);
#321=ORIENTED_EDGE('',*,*,#254,.F.);
#322=ORIENTED_EDGE('',*,*,#256,.F.);
#323=ORIENTED_EDGE('',*,*,#257,.T.);
#324=ORIENTED_EDGE('',*,*,#258,.F.);
#325=ORIENTED_EDGE('',*,*,#257,.F.);
#326=ORIENTED_EDGE('',*,*,#259,.F.);
#327=ORIENTED_EDGE('',*,*,#260,.T.);
#328=ORIENTED_EDGE('',*,*,#261,.F.);
#329=ORIENTED_EDGE('',*,*,#260,.F.);
#330=ORIENTED_EDGE('',*,*,#262,.F.);
#331=ORIENTED_EDGE('',*,*,#240,.T.);
#332=ORIENTED_EDGE('',*,*,#263,.F.);
#333=ORIENTED_EDGE('',*,*,#264,.T.);
#334=ORIENTED_EDGE('',*,*,#265,.F.);
#335=ORIENTED_EDGE('',*,*,#264,.F.);
#336=ORIENTED_EDGE('',*,*,#266,.F.);
#337=ORIENTED_EDGE('',*,*,#267,.F.);
#338=ORIENTED_EDGE('',*,*,#268,.F.);
#339=ORIENTED_EDGE('',*,*,#269,.F.);
#340=ORIENTED_EDGE('',*,*,#270,.F.);
#341=ORIENTED_EDGE('',*,*,#271,.F.);
#342=ORIENTED_EDGE('',*,*,#272,.F.);
#343=ORIENTED_EDGE('',*,*,#273,.F.);
#344=ORIENTED_EDGE('',*,*,#274,.F.);
#345=ORIENTED_EDGE('',*,*,#267,.T.);
#346=ORIENTED_EDGE('',*,*,#275,.T.);
#347=ORIENTED_EDGE('',*,*,#272,.T.);
#348=ORIENTED_EDGE('',*,*,#276,.F.);
#349=ORIENTED_EDGE('',*,*,#268,.T.);
#350=ORIENTED_EDGE('',*,*,#276,.T.);
#351=ORIENTED_EDGE('',*,*,#271,.T.);
#352=ORIENTED_EDGE('',*,*,#277,.T.);
#353=ORIENTED_EDGE('',*,*,#278,.T.);
#354=ORIENTED_EDGE('',*,*,#279,.T.);
#355=ORIENTED_EDGE('',*,*,#280,.T.);
#356=ORIENTED_EDGE('',*,*,#263,.T.);
#357=ORIENTED_EDGE('',*,*,#253,.T.);
#358=ORIENTED_EDGE('',*,*,#250,.T.);
#359=ORIENTED_EDGE('',*,*,#247,.T.);
#360=ORIENTED_EDGE('',*,*,#244,.T.);
#361=ORIENTED_EDGE('',*,*,#241,.T.);
#362=ORIENTED_EDGE('',*,*,#262,.T.);
#363=ORIENTED_EDGE('',*,*,#259,.T.);
#364=ORIENTED_EDGE('',*,*,#256,.T.);
#365=ORIENTED_EDGE('',*,*,#236,.T.);
#366=ORIENTED_EDGE('',*,*,#233,.T.);
#367=ORIENTED_EDGE('',*,*,#230,.T.);
#368=ORIENTED_EDGE('',*,*,#274,.T.);
#369=ORIENTED_EDGE('',*,*,#281,.T.);
#370=ORIENTED_EDGE('',*,*,#282,.T.);
#371=ORIENTED_EDGE('',*,*,#277,.F.);
#372=ORIENTED_EDGE('',*,*,#270,.T.);
#373=ORIENTED_EDGE('',*,*,#283,.T.);
#374=ORIENTED_EDGE('',*,*,#284,.F.);
#375=ORIENTED_EDGE('',*,*,#281,.F.);
#376=ORIENTED_EDGE('',*,*,#273,.T.);
#377=ORIENTED_EDGE('',*,*,#275,.F.);
#378=ORIENTED_EDGE('',*,*,#266,.T.);
#379=ORIENTED_EDGE('',*,*,#285,.T.);
#380=ORIENTED_EDGE('',*,*,#265,.T.);
#381=ORIENTED_EDGE('',*,*,#252,.T.);
#382=ORIENTED_EDGE('',*,*,#255,.T.);
#383=ORIENTED_EDGE('',*,*,#258,.T.);
#384=ORIENTED_EDGE('',*,*,#261,.T.);
#385=ORIENTED_EDGE('',*,*,#239,.T.);
#386=ORIENTED_EDGE('',*,*,#243,.T.);
#387=ORIENTED_EDGE('',*,*,#246,.T.);
#388=ORIENTED_EDGE('',*,*,#249,.T.);
#389=ORIENTED_EDGE('',*,*,#238,.T.);
#390=ORIENTED_EDGE('',*,*,#235,.T.);
#391=ORIENTED_EDGE('',*,*,#232,.T.);
#392=ORIENTED_EDGE('',*,*,#285,.F.);
#393=ORIENTED_EDGE('',*,*,#286,.T.);
#394=ORIENTED_EDGE('',*,*,#280,.F.);
#395=ORIENTED_EDGE('',*,*,#286,.F.);
#396=ORIENTED_EDGE('',*,*,#269,.T.);
#397=ORIENTED_EDGE('',*,*,#279,.F.);
#398=ORIENTED_EDGE('',*,*,#287,.F.);
#399=ORIENTED_EDGE('',*,*,#283,.F.);
#400=ORIENTED_EDGE('',*,*,#284,.T.);
#401=ORIENTED_EDGE('',*,*,#287,.T.);
#402=ORIENTED_EDGE('',*,*,#278,.F.);
#403=ORIENTED_EDGE('',*,*,#282,.F.);
#404=CYLINDRICAL_SURFACE('',#448,2.00000000000001);
#405=CYLINDRICAL_SURFACE('',#451,1.99999999999999);
#406=CYLINDRICAL_SURFACE('',#454,2.00000000000001);
#407=CYLINDRICAL_SURFACE('',#458,0.999999999999339);
#408=CYLINDRICAL_SURFACE('',#462,1.00000000000001);
#409=CYLINDRICAL_SURFACE('',#466,0.999999999999979);
#410=CYLINDRICAL_SURFACE('',#470,1.00000000000003);
#411=CYLINDRICAL_SURFACE('',#473,2.00000000000001);
#412=CYLINDRICAL_SURFACE('',#484,10.9);
#413=ADVANCED_FACE('',(#39),#404,.F.);
#414=ADVANCED_FACE('',(#40),#405,.F.);
#415=ADVANCED_FACE('',(#41),#406,.F.);
#416=ADVANCED_FACE('',(#42),#27,.F.);
#417=ADVANCED_FACE('',(#43),#407,.F.);
#418=ADVANCED_FACE('',(#44),#28,.F.);
#419=ADVANCED_FACE('',(#45),#408,.F.);
#420=ADVANCED_FACE('',(#46),#29,.F.);
#421=ADVANCED_FACE('',(#47),#409,.F.);
#422=ADVANCED_FACE('',(#48),#30,.F.);
#423=ADVANCED_FACE('',(#49),#410,.F.);
#424=ADVANCED_FACE('',(#50),#411,.F.);
#425=ADVANCED_FACE('',(#51),#31,.F.);
#426=ADVANCED_FACE('',(#52),#32,.F.);
#427=ADVANCED_FACE('',(#53),#33,.T.);
#428=ADVANCED_FACE('',(#54,#15,#16,#17,#18,#19,#20),#34,.T.);
#429=ADVANCED_FACE('',(#55),#35,.T.);
#430=ADVANCED_FACE('',(#56,#21,#22,#23,#24,#25,#26),#36,.F.);
#431=ADVANCED_FACE('',(#57),#412,.F.);
#432=ADVANCED_FACE('',(#58),#37,.T.);
#433=ADVANCED_FACE('',(#59),#38,.T.);
#434=CLOSED_SHELL('',(#413,#414,#415,#416,#417,#418,#419,#420,#421,#422,
#423,#424,#425,#426,#427,#428,#429,#430,#431,#432,#433));
#435=DERIVED_UNIT_ELEMENT(#437,1.);
#436=DERIVED_UNIT_ELEMENT(#731,-3.);
#437=(
MASS_UNIT()
NAMED_UNIT(*)
SI_UNIT(.KILO.,.GRAM.)
);
#438=DERIVED_UNIT((#435,#436));
#439=MEASURE_REPRESENTATION_ITEM('density measure',
POSITIVE_RATIO_MEASURE(7850.),#438);
#440=PROPERTY_DEFINITION_REPRESENTATION(#445,#442);
#441=PROPERTY_DEFINITION_REPRESENTATION(#446,#443);
#442=REPRESENTATION('material name',(#444),#728);
#443=REPRESENTATION('density',(#439),#728);
#444=DESCRIPTIVE_REPRESENTATION_ITEM('A\X\E7o','A\X\E7o');
#445=PROPERTY_DEFINITION('material property','material name',#738);
#446=PROPERTY_DEFINITION('material property','density of part',#738);
#447=AXIS2_PLACEMENT_3D('',#607,#487,#488);
#448=AXIS2_PLACEMENT_3D('',#608,#489,#490);
#449=AXIS2_PLACEMENT_3D('',#610,#491,#492);
#450=AXIS2_PLACEMENT_3D('',#613,#494,#495);
#451=AXIS2_PLACEMENT_3D('',#614,#496,#497);
#452=AXIS2_PLACEMENT_3D('',#616,#498,#499);
#453=AXIS2_PLACEMENT_3D('',#619,#501,#502);
#454=AXIS2_PLACEMENT_3D('',#620,#503,#504);
#455=AXIS2_PLACEMENT_3D('',#622,#505,#506);
#456=AXIS2_PLACEMENT_3D('',#625,#508,#509);
#457=AXIS2_PLACEMENT_3D('',#626,#510,#511);
#458=AXIS2_PLACEMENT_3D('',#635,#516,#517);
#459=AXIS2_PLACEMENT_3D('',#637,#518,#519);
#460=AXIS2_PLACEMENT_3D('',#639,#520,#521);
#461=AXIS2_PLACEMENT_3D('',#641,#523,#524);
#462=AXIS2_PLACEMENT_3D('',#647,#528,#529);
#463=AXIS2_PLACEMENT_3D('',#649,#530,#531);
#464=AXIS2_PLACEMENT_3D('',#651,#532,#533);
#465=AXIS2_PLACEMENT_3D('',#653,#535,#536);
#466=AXIS2_PLACEMENT_3D('',#659,#540,#541);
#467=AXIS2_PLACEMENT_3D('',#661,#542,#543);
#468=AXIS2_PLACEMENT_3D('',#663,#544,#545);
#469=AXIS2_PLACEMENT_3D('',#665,#547,#548);
#470=AXIS2_PLACEMENT_3D('',#671,#552,#553);
#471=AXIS2_PLACEMENT_3D('',#672,#554,#555);
#472=AXIS2_PLACEMENT_3D('',#673,#556,#557);
#473=AXIS2_PLACEMENT_3D('',#674,#558,#559);
#474=AXIS2_PLACEMENT_3D('',#676,#560,#561);
#475=AXIS2_PLACEMENT_3D('',#679,#563,#564);
#476=AXIS2_PLACEMENT_3D('',#680,#565,#566);
#477=AXIS2_PLACEMENT_3D('',#691,#572,#573);
#478=AXIS2_PLACEMENT_3D('',#700,#578,#579);
#479=AXIS2_PLACEMENT_3D('',#703,#582,#583);
#480=AXIS2_PLACEMENT_3D('',#710,#587,#588);
#481=AXIS2_PLACEMENT_3D('',#711,#589,#590);
#482=AXIS2_PLACEMENT_3D('',#715,#593,#594);
#483=AXIS2_PLACEMENT_3D('',#720,#597,#598);
#484=AXIS2_PLACEMENT_3D('',#721,#599,#600);
#485=AXIS2_PLACEMENT_3D('',#723,#602,#603);
#486=AXIS2_PLACEMENT_3D('',#725,#605,#606);
#487=DIRECTION('axis',(0.,0.,1.));
#488=DIRECTION('refdir',(1.,0.,0.));
#489=DIRECTION('center_axis',(0.,0.,-1.));
#490=DIRECTION('ref_axis',(1.,0.,0.));
#491=DIRECTION('center_axis',(0.,0.,-1.));
#492=DIRECTION('ref_axis',(1.,0.,0.));
#493=DIRECTION('',(0.,0.,-1.));
#494=DIRECTION('center_axis',(0.,0.,1.));
#495=DIRECTION('ref_axis',(1.,0.,0.));
#496=DIRECTION('center_axis',(0.,0.,-1.));
#497=DIRECTION('ref_axis',(1.,0.,0.));
#498=DIRECTION('center_axis',(0.,0.,-1.));
#499=DIRECTION('ref_axis',(1.,0.,0.));
#500=DIRECTION('',(0.,0.,-1.));
#501=DIRECTION('center_axis',(0.,0.,1.));
#502=DIRECTION('ref_axis',(1.,0.,0.));
#503=DIRECTION('center_axis',(0.,0.,-1.));
#504=DIRECTION('ref_axis',(1.,0.,0.));
#505=DIRECTION('center_axis',(0.,0.,-1.));
#506=DIRECTION('ref_axis',(1.,0.,0.));
#507=DIRECTION('',(0.,0.,-1.));
#508=DIRECTION('center_axis',(0.,0.,1.));
#509=DIRECTION('ref_axis',(1.,0.,0.));
#510=DIRECTION('center_axis',(1.,0.,0.));
#511=DIRECTION('ref_axis',(0.,-1.,0.));
#512=DIRECTION('',(0.,1.,0.));
#513=DIRECTION('',(0.,0.,-1.));
#514=DIRECTION('',(0.,-1.,0.));
#515=DIRECTION('',(0.,0.,-1.));
#516=DIRECTION('center_axis',(0.,0.,-1.));
#517=DIRECTION('ref_axis',(1.,-1.77635683940142E-14,0.));
#518=DIRECTION('center_axis',(0.,0.,1.));
#519=DIRECTION('ref_axis',(1.,-1.77635683940142E-14,0.));
#520=DIRECTION('center_axis',(0.,0.,-1.));
#521=DIRECTION('ref_axis',(1.,-1.77635683940142E-14,0.));
#522=DIRECTION('',(0.,0.,-1.));
#523=DIRECTION('center_axis',(0.,1.,0.));
#524=DIRECTION('ref_axis',(1.,0.,0.));
#525=DIRECTION('',(-1.,0.,0.));
#526=DIRECTION('',(1.,0.,0.));
#527=DIRECTION('',(0.,0.,-1.));
#528=DIRECTION('center_axis',(0.,0.,-1.));
#529=DIRECTION('ref_axis',(5.32907051820068E-14,1.,0.));
#530=DIRECTION('center_axis',(0.,0.,1.));
#531=DIRECTION('ref_axis',(5.32907051820068E-14,1.,0.));
#532=DIRECTION('center_axis',(0.,0.,-1.));
#533=DIRECTION('ref_axis',(5.32907051820068E-14,1.,0.));
#534=DIRECTION('',(0.,0.,-1.));
#535=DIRECTION('center_axis',(-1.,0.,0.));
#536=DIRECTION('ref_axis',(0.,1.,0.));
#537=DIRECTION('',(0.,-1.,0.));
#538=DIRECTION('',(0.,1.,0.));
#539=DIRECTION('',(0.,0.,-1.));
#540=DIRECTION('center_axis',(0.,0.,-1.));
#541=DIRECTION('ref_axis',(-1.,3.1086244689505E-14,0.));
#542=DIRECTION('center_axis',(0.,0.,1.));
#543=DIRECTION('ref_axis',(-1.,3.1086244689505E-14,0.));
#544=DIRECTION('center_axis',(0.,0.,-1.));
#545=DIRECTION('ref_axis',(-1.,3.1086244689505E-14,0.));
#546=DIRECTION('',(0.,0.,-1.));
#547=DIRECTION('center_axis',(2.33731163078989E-16,-1.,0.));
#548=DIRECTION('ref_axis',(-1.,-2.33731163078989E-16,0.));
#549=DIRECTION('',(1.,2.33731163078989E-16,0.));
#550=DIRECTION('',(-1.,-2.33731163078989E-16,0.));
#551=DIRECTION('',(0.,0.,-1.));
#552=DIRECTION('center_axis',(0.,0.,-1.));
#553=DIRECTION('ref_axis',(0.,-1.,0.));
#554=DIRECTION('center_axis',(0.,0.,1.));
#555=DIRECTION('ref_axis',(0.,-1.,0.));
#556=DIRECTION('center_axis',(0.,0.,-1.));
#557=DIRECTION('ref_axis',(0.,-1.,0.));
#558=DIRECTION('center_axis',(0.,0.,-1.));
#559=DIRECTION('ref_axis',(1.,0.,0.));
#560=DIRECTION('center_axis',(0.,0.,-1.));
#561=DIRECTION('ref_axis',(1.,0.,0.));
#562=DIRECTION('',(0.,0.,-1.));
#563=DIRECTION('center_axis',(0.,0.,1.));
#564=DIRECTION('ref_axis',(1.,0.,0.));
#565=DIRECTION('center_axis',(1.,0.,0.));
#566=DIRECTION('ref_axis',(0.,-1.,0.));
#567=DIRECTION('',(0.,1.,0.));
#568=DIRECTION('',(0.,0.,-1.));
#569=DIRECTION('',(0.,-1.,0.));
#570=DIRECTION('',(0.,0.,1.));
#571=DIRECTION('',(0.,1.,0.));
#572=DIRECTION('center_axis',(-1.,0.,0.));
#573=DIRECTION('ref_axis',(0.,1.,0.));
#574=DIRECTION('',(0.,1.,0.));
#575=DIRECTION('',(0.,0.,1.));
#576=DIRECTION('',(0.,-1.,0.));
#577=DIRECTION('',(0.,0.,-1.));
#578=DIRECTION('center_axis',(0.,-1.,0.));
#579=DIRECTION('ref_axis',(1.,0.,0.));
#580=DIRECTION('',(1.,0.,0.));
#581=DIRECTION('',(1.,0.,0.));
#582=DIRECTION('center_axis',(0.,0.,1.));
#583=DIRECTION('ref_axis',(1.,0.,0.));
#584=DIRECTION('',(-0.894427190999916,0.447213595499958,0.));
#585=DIRECTION('',(-1.,0.,0.));
#586=DIRECTION('',(-0.894427190999916,-0.447213595499958,0.));
#587=DIRECTION('center_axis',(0.,0.,-1.));
#588=DIRECTION('ref_axis',(-1.,0.,0.));
#589=DIRECTION('center_axis',(0.447213595499958,0.894427190999916,0.));
#590=DIRECTION('ref_axis',(-0.894427190999916,0.447213595499958,0.));
#591=DIRECTION('',(-0.894427190999916,0.447213595499958,0.));
#592=DIRECTION('',(0.,0.,1.));
#593=DIRECTION('center_axis',(0.,0.,1.));
#594=DIRECTION('ref_axis',(1.,0.,0.));
#595=DIRECTION('',(0.894427190999916,0.447213595499958,0.));
#596=DIRECTION('',(-1.,0.,0.));
#597=DIRECTION('center_axis',(0.,0.,1.));
#598=DIRECTION('ref_axis',(-1.,0.,0.));
#599=DIRECTION('center_axis',(0.,0.,1.));
#600=DIRECTION('ref_axis',(-1.,0.,0.));
#601=DIRECTION('',(0.,0.,1.));
#602=DIRECTION('center_axis',(-0.447213595499958,0.894427190999916,0.));
#603=DIRECTION('ref_axis',(-0.894427190999916,-0.447213595499958,0.));
#604=DIRECTION('',(0.,0.,1.));
#605=DIRECTION('center_axis',(0.,1.,0.));
#606=DIRECTION('ref_axis',(-1.,0.,0.));
#607=CARTESIAN_POINT('',(0.,0.,0.));
#608=CARTESIAN_POINT('Origin',(154.250000000001,65.2000000894073,150.));
#609=CARTESIAN_POINT('',(152.250000000001,65.2000000894073,150.));
#610=CARTESIAN_POINT('Origin',(154.250000000001,65.2000000894073,150.));
#611=CARTESIAN_POINT('',(152.250000000001,65.2000000894073,144.));
#612=CARTESIAN_POINT('',(152.250000000001,65.2000000894073,150.));
#613=CARTESIAN_POINT('Origin',(154.250000000001,65.2000000894073,144.));
#614=CARTESIAN_POINT('Origin',(145.750000000001,65.2000000894075,150.));
#615=CARTESIAN_POINT('',(143.750000000001,65.2000000894075,150.));
#616=CARTESIAN_POINT('Origin',(145.750000000001,65.2000000894075,150.));
#617=CARTESIAN_POINT('',(143.750000000001,65.2000000894075,144.));
#618=CARTESIAN_POINT('',(143.750000000001,65.2000000894075,150.));
#619=CARTESIAN_POINT('Origin',(145.750000000001,65.2000000894075,144.));
#620=CARTESIAN_POINT('Origin',(145.75,17.2000000894074,150.));
#621=CARTESIAN_POINT('',(143.75,17.2000000894074,150.));
#622=CARTESIAN_POINT('Origin',(145.75,17.2000000894074,150.));
#623=CARTESIAN_POINT('',(143.75,17.2000000894074,144.));
#624=CARTESIAN_POINT('',(143.75,17.2000000894074,150.));
#625=CARTESIAN_POINT('Origin',(145.75,17.2000000894074,144.));
#626=CARTESIAN_POINT('Origin',(159.5,60.2000000894073,150.));
#627=CARTESIAN_POINT('',(159.5,22.2000000894072,144.));
#628=CARTESIAN_POINT('',(159.5,60.2000000894073,144.));
#629=CARTESIAN_POINT('',(159.5,55.1000000447036,144.));
#630=CARTESIAN_POINT('',(159.5,22.2000000894072,150.));
#631=CARTESIAN_POINT('',(159.5,22.2000000894072,150.));
#632=CARTESIAN_POINT('',(159.5,60.2000000894073,150.));
#633=CARTESIAN_POINT('',(159.5,55.1000000447036,150.));
#634=CARTESIAN_POINT('',(159.5,60.2000000894073,150.));
#635=CARTESIAN_POINT('Origin',(158.500000000001,60.2000000894073,150.));
#636=CARTESIAN_POINT('',(158.500000000001,61.2000000894076,144.));
#637=CARTESIAN_POINT('Origin',(158.500000000001,60.2000000894073,144.));
#638=CARTESIAN_POINT('',(158.500000000001,61.2000000894076,150.));
#639=CARTESIAN_POINT('Origin',(158.500000000001,60.2000000894073,150.));
#640=CARTESIAN_POINT('',(158.500000000001,61.2000000894076,150.));
#641=CARTESIAN_POINT('Origin',(141.500000000001,61.2000000894076,150.));
#642=CARTESIAN_POINT('',(141.500000000001,61.2000000894076,144.));
#643=CARTESIAN_POINT('',(70.7500000000003,61.2000000894076,144.));
#644=CARTESIAN_POINT('',(141.500000000001,61.2000000894076,150.));
#645=CARTESIAN_POINT('',(70.7500000000003,61.2000000894076,150.));
#646=CARTESIAN_POINT('',(141.500000000001,61.2000000894076,150.));
#647=CARTESIAN_POINT('Origin',(141.500000000001,60.2000000894076,150.));
#648=CARTESIAN_POINT('',(140.500000000001,60.2000000894076,144.));
#649=CARTESIAN_POINT('Origin',(141.500000000001,60.2000000894076,144.));
#650=CARTESIAN_POINT('',(140.500000000001,60.2000000894076,150.));
#651=CARTESIAN_POINT('Origin',(141.500000000001,60.2000000894076,150.));
#652=CARTESIAN_POINT('',(140.500000000001,60.2000000894076,150.));
#653=CARTESIAN_POINT('Origin',(140.500000000001,22.2000000894075,150.));
#654=CARTESIAN_POINT('',(140.500000000001,22.2000000894075,144.));
#655=CARTESIAN_POINT('',(140.500000000001,36.1000000447038,144.));
#656=CARTESIAN_POINT('',(140.500000000001,22.2000000894075,150.));
#657=CARTESIAN_POINT('',(140.500000000001,36.1000000447038,150.));
#658=CARTESIAN_POINT('',(140.500000000001,22.2000000894075,150.));
#659=CARTESIAN_POINT('Origin',(141.5,22.2000000894075,150.));
#660=CARTESIAN_POINT('',(141.5,21.2000000894072,144.));
#661=CARTESIAN_POINT('Origin',(141.5,22.2000000894075,144.));
#662=CARTESIAN_POINT('',(141.5,21.2000000894072,150.));
#663=CARTESIAN_POINT('Origin',(141.5,22.2000000894075,150.));
#664=CARTESIAN_POINT('',(141.5,21.2000000894072,150.));
#665=CARTESIAN_POINT('Origin',(158.5,21.2000000894072,150.));
#666=CARTESIAN_POINT('',(158.5,21.2000000894072,144.));
#667=CARTESIAN_POINT('',(79.2499999999999,21.2000000894071,144.));
#668=CARTESIAN_POINT('',(158.5,21.2000000894072,150.));
#669=CARTESIAN_POINT('',(79.2499999999999,21.2000000894071,150.));
#670=CARTESIAN_POINT('',(158.5,21.2000000894072,150.));
#671=CARTESIAN_POINT('Origin',(158.5,22.2000000894072,150.));
#672=CARTESIAN_POINT('Origin',(158.5,22.2000000894072,144.));
#673=CARTESIAN_POINT('Origin',(158.5,22.2000000894072,150.));
#674=CARTESIAN_POINT('Origin',(154.25,17.2000000894072,150.));
#675=CARTESIAN_POINT('',(152.25,17.2000000894072,150.));
#676=CARTESIAN_POINT('Origin',(154.25,17.2000000894072,150.));
#677=CARTESIAN_POINT('',(152.25,17.2000000894072,144.));
#678=CARTESIAN_POINT('',(152.25,17.2000000894072,150.));
#679=CARTESIAN_POINT('Origin',(154.25,17.2000000894072,144.));
#680=CARTESIAN_POINT('Origin',(-189.,85.5,150.));
#681=CARTESIAN_POINT('',(-189.,0.,144.));
#682=CARTESIAN_POINT('',(-189.000002980232,80.0000011920929,144.));
#683=CARTESIAN_POINT('',(-189.,67.75,144.));
#684=CARTESIAN_POINT('',(-189.,0.,150.));
#685=CARTESIAN_POINT('',(-189.,0.,147.));
#686=CARTESIAN_POINT('',(-189.,85.5,150.));
#687=CARTESIAN_POINT('',(-189.,67.75,150.));
#688=CARTESIAN_POINT('',(-189.,85.5,144.));
#689=CARTESIAN_POINT('',(-189.,85.5,147.));
#690=CARTESIAN_POINT('',(-189.,67.75,144.));
#691=CARTESIAN_POINT('Origin',(189.,0.,150.));
#692=CARTESIAN_POINT('',(189.,0.,150.));
#693=CARTESIAN_POINT('',(189.,76.5,150.));
#694=CARTESIAN_POINT('',(189.,25.,150.));
#695=CARTESIAN_POINT('',(189.,0.,144.));
#696=CARTESIAN_POINT('',(189.,0.,147.));
#697=CARTESIAN_POINT('',(189.,76.5,144.));
#698=CARTESIAN_POINT('',(189.,25.,144.));
#699=CARTESIAN_POINT('',(189.,76.5,147.));
#700=CARTESIAN_POINT('Origin',(-200.,0.,144.));
#701=CARTESIAN_POINT('',(-200.,0.,144.));
#702=CARTESIAN_POINT('',(-200.,0.,150.));
#703=CARTESIAN_POINT('Origin',(0.,50.,150.));
#704=CARTESIAN_POINT('',(142.,100.,150.));
#705=CARTESIAN_POINT('',(200.,71.,150.));
#706=CARTESIAN_POINT('',(-160.,100.,150.));
#707=CARTESIAN_POINT('',(200.,100.,150.));
#708=CARTESIAN_POINT('',(-200.,80.,150.));
#709=CARTESIAN_POINT('',(-139.1,31.000000089407,150.));
#710=CARTESIAN_POINT('Origin',(-150.,31.000000089407,150.));
#711=CARTESIAN_POINT('Origin',(200.,71.,144.));
#712=CARTESIAN_POINT('',(142.,100.,144.));
#713=CARTESIAN_POINT('',(200.,71.,144.));
#714=CARTESIAN_POINT('',(142.,100.,144.));
#715=CARTESIAN_POINT('Origin',(2.66453525910041E-16,50.,144.));
#716=CARTESIAN_POINT('',(-160.,100.,144.));
#717=CARTESIAN_POINT('',(-200.,80.,144.));
#718=CARTESIAN_POINT('',(200.,100.,144.));
#719=CARTESIAN_POINT('',(-139.1,31.000000089407,144.));
#720=CARTESIAN_POINT('Origin',(-150.,31.000000089407,144.));
#721=CARTESIAN_POINT('Origin',(-150.,31.000000089407,144.));
#722=CARTESIAN_POINT('',(-139.1,31.000000089407,144.));
#723=CARTESIAN_POINT('Origin',(-160.,100.,144.));
#724=CARTESIAN_POINT('',(-160.,100.,144.));
#725=CARTESIAN_POINT('Origin',(142.,100.,144.));
#726=UNCERTAINTY_MEASURE_WITH_UNIT(LENGTH_MEASURE(0.01),#730,
'DISTANCE_ACCURACY_VALUE',
'Maximum model space distance between geometric entities at asserted c
onnectivities');
#727=UNCERTAINTY_MEASURE_WITH_UNIT(LENGTH_MEASURE(0.01),#730,
'DISTANCE_ACCURACY_VALUE',
'Maximum model space distance between geometric entities at asserted c
onnectivities');
#728=(
GEOMETRIC_REPRESENTATION_CONTEXT(3)
GLOBAL_UNCERTAINTY_ASSIGNED_CONTEXT((#726))
GLOBAL_UNIT_ASSIGNED_CONTEXT((#730,#732,#733))
REPRESENTATION_CONTEXT('','3D')
);
#729=(
GEOMETRIC_REPRESENTATION_CONTEXT(3)
GLOBAL_UNCERTAINTY_ASSIGNED_CONTEXT((#727))
GLOBAL_UNIT_ASSIGNED_CONTEXT((#730,#732,#733))
REPRESENTATION_CONTEXT('','3D')
);
#730=(
LENGTH_UNIT()
NAMED_UNIT(*)
SI_UNIT(.MILLI.,.METRE.)
);
#731=(
LENGTH_UNIT()
NAMED_UNIT(*)
SI_UNIT($,.METRE.)
);
#732=(
NAMED_UNIT(*)
PLANE_ANGLE_UNIT()
SI_UNIT($,.RADIAN.)
);
#733=(
NAMED_UNIT(*)
SI_UNIT($,.STERADIAN.)
SOLID_ANGLE_UNIT()
);
#734=SHAPE_DEFINITION_REPRESENTATION(#735,#736);
#735=PRODUCT_DEFINITION_SHAPE('',$,#738);
#736=SHAPE_REPRESENTATION('',(#447),#728);
#737=PRODUCT_DEFINITION_CONTEXT('part definition',#742,'design');
#738=PRODUCT_DEFINITION('2026-05-29-16-09-17-748','Lateral_Esquerda',#739,
#737);
#739=PRODUCT_DEFINITION_FORMATION('',$,#744);
#740=PRODUCT_RELATED_PRODUCT_CATEGORY('Lateral_Esquerda',
'Lateral_Esquerda',(#744));
#741=APPLICATION_PROTOCOL_DEFINITION('international standard',
'automotive_design',2009,#742);
#742=APPLICATION_CONTEXT(
'Core Data for Automotive Mechanical Design Process');
#743=PRODUCT_CONTEXT('part definition',#742,'mechanical');
#744=PRODUCT('2026-05-29-16-09-17-748','Lateral_Esquerda',$,(#743));
#745=PRESENTATION_STYLE_ASSIGNMENT((#747));
#746=PRESENTATION_STYLE_ASSIGNMENT((#748));
#747=SURFACE_STYLE_USAGE(.BOTH.,#749);
#748=SURFACE_STYLE_USAGE(.BOTH.,#750);
#749=SURFACE_SIDE_STYLE('',(#751));
#750=SURFACE_SIDE_STYLE('',(#752));
#751=SURFACE_STYLE_FILL_AREA(#753);
#752=SURFACE_STYLE_FILL_AREA(#754);
#753=FILL_AREA_STYLE('A\X\E7o - Acetinado',(#755));
#754=FILL_AREA_STYLE('Placa de MDF',(#756));
#755=FILL_AREA_STYLE_COLOUR('A\X\E7o - Acetinado',#757);
#756=FILL_AREA_STYLE_COLOUR('Placa de MDF',#758);
#757=COLOUR_RGB('A\X\E7o - Acetinado',0.627450980392157,0.627450980392157,
0.627450980392157);
#758=COLOUR_RGB('Placa de MDF',0.,0.,0.);
ENDSEC;
END-ISO-10303-21;
