ISO-10303-21;
HEADER;
/* Generated by software containing ST-Developer
 * from STEP Tools, Inc. (www.steptools.com) 
 */

FILE_DESCRIPTION(
/* description */ (''),
/* implementation_level */ '2;1');

FILE_NAME(
/* name */ 'tampa.step',
/* time_stamp */ '2026-05-29T16:22:00-03:00',
/* author */ (''),
/* organization */ (''),
/* preprocessor_version */ 'ST-DEVELOPER v20.1',
/* originating_system */ 'Autodesk Translation Framework v15.8.0.0',
/* authorisation */ '');

FILE_SCHEMA (('AUTOMOTIVE_DESIGN { 1 0 10303 214 3 1 1 }'));
ENDSEC;

DATA;
#10=MECHANICAL_DESIGN_GEOMETRIC_PRESENTATION_REPRESENTATION('',(#69,#70,
#71,#72),#1259);
#11=CONTEXT_DEPENDENT_OVER_RIDING_STYLED_ITEM('',(#1299),#1277,#72,(#56));
#12=CONTEXT_DEPENDENT_OVER_RIDING_STYLED_ITEM('',(#1299),#1278,#72,(#56,
#54));
#13=MAPPED_ITEM('',#14,#827);
#14=REPRESENTATION_MAP(#827,#1275);
#15=FACE_BOUND('',#151,.T.);
#16=FACE_BOUND('',#152,.T.);
#17=FACE_BOUND('',#153,.T.);
#18=FACE_BOUND('',#154,.T.);
#19=FACE_BOUND('',#155,.T.);
#20=FACE_BOUND('',#156,.T.);
#21=FACE_BOUND('',#158,.T.);
#22=FACE_BOUND('',#159,.T.);
#23=FACE_BOUND('',#160,.T.);
#24=FACE_BOUND('',#161,.T.);
#25=FACE_BOUND('',#162,.T.);
#26=FACE_BOUND('',#163,.T.);
#27=ELLIPSE('',#802,0.3,0.299998910499936);
#28=ELLIPSE('',#803,0.3,0.299998910499936);
#29=ELLIPSE('',#805,0.3,0.299998910499936);
#30=ELLIPSE('',#806,0.3,0.299998910499936);
#31=ELLIPSE('',#812,0.3,0.299998910499936);
#32=ELLIPSE('',#813,0.3,0.299998910499936);
#33=ELLIPSE('',#815,0.3,0.299998910499936);
#34=ELLIPSE('',#816,0.3,0.299998910499936);
#35=(
BOUNDED_SURFACE()
B_SPLINE_SURFACE(1,2,((#1138,#1139,#1140),(#1141,#1142,#1143)),
 .UNSPECIFIED.,.F.,.F.,.F.)
B_SPLINE_SURFACE_WITH_KNOTS((2,2),(3,3),(0.,10.),(-0.846995381025169,0.675033410259134),
 .UNSPECIFIED.)
GEOMETRIC_REPRESENTATION_ITEM()
RATIONAL_B_SPLINE_SURFACE(((1.,0.724136799021492,1.),(1.,0.724136799021492,
1.)))
REPRESENTATION_ITEM('')
SURFACE()
);
#36=(
BOUNDED_SURFACE()
B_SPLINE_SURFACE(1,2,((#1158,#1159,#1160),(#1161,#1162,#1163)),
 .UNSPECIFIED.,.F.,.F.,.F.)
B_SPLINE_SURFACE_WITH_KNOTS((2,2),(3,3),(0.,10.),(0.675033410243103,1.45391626094993),
 .UNSPECIFIED.)
GEOMETRIC_REPRESENTATION_ITEM()
RATIONAL_B_SPLINE_SURFACE(((1.,0.925121279167467,1.),(1.,0.925121279167467,
1.)))
REPRESENTATION_ITEM('')
SURFACE()
);
#37=(
BOUNDED_SURFACE()
B_SPLINE_SURFACE(1,2,((#1199,#1200,#1201),(#1202,#1203,#1204)),
 .UNSPECIFIED.,.F.,.F.,.F.)
B_SPLINE_SURFACE_WITH_KNOTS((2,2),(3,3),(0.,10.),(-0.846995381020552,0.675033410259126),
 .UNSPECIFIED.)
GEOMETRIC_REPRESENTATION_ITEM()
RATIONAL_B_SPLINE_SURFACE(((1.,0.724136799023087,1.),(1.,0.724136799023087,
1.)))
REPRESENTATION_ITEM('')
SURFACE()
);
#38=(
BOUNDED_SURFACE()
B_SPLINE_SURFACE(1,2,((#1216,#1217,#1218),(#1219,#1220,#1221)),
 .UNSPECIFIED.,.F.,.F.,.F.)
B_SPLINE_SURFACE_WITH_KNOTS((2,2),(3,3),(0.,10.),(0.675033410243053,1.45391626094998),
 .UNSPECIFIED.)
GEOMETRIC_REPRESENTATION_ITEM()
RATIONAL_B_SPLINE_SURFACE(((1.,0.925121279167448,1.),(1.,0.925121279167448,
1.)))
REPRESENTATION_ITEM('')
SURFACE()
);
#39=CIRCLE('',#794,1.49999787923548);
#40=CIRCLE('',#795,1.49999787923548);
#41=CIRCLE('',#797,1.49999787923548);
#42=CIRCLE('',#798,1.49999787923548);
#43=CIRCLE('',#800,1.49999787923548);
#44=CIRCLE('',#801,1.49999787923548);
#45=CIRCLE('',#819,1.49999787923548);
#46=CIRCLE('',#820,1.49999787923548);
#47=CYLINDRICAL_SURFACE('',#793,1.49999787923548);
#48=CYLINDRICAL_SURFACE('',#796,1.49999787923548);
#49=CYLINDRICAL_SURFACE('',#799,1.49999787923548);
#50=CYLINDRICAL_SURFACE('',#818,1.49999787923548);
#51=ITEM_DEFINED_TRANSFORMATION($,$,#773,#786);
#52=ITEM_DEFINED_TRANSFORMATION($,$,#771,#825);
#53=ITEM_DEFINED_TRANSFORMATION($,$,#772,#826);
#54=(
REPRESENTATION_RELATIONSHIP($,$,#1278,#1277)
REPRESENTATION_RELATIONSHIP_WITH_TRANSFORMATION(#51)
SHAPE_REPRESENTATION_RELATIONSHIP()
);
#55=(
REPRESENTATION_RELATIONSHIP($,$,#1276,#1275)
REPRESENTATION_RELATIONSHIP_WITH_TRANSFORMATION(#52)
SHAPE_REPRESENTATION_RELATIONSHIP()
);
#56=(
REPRESENTATION_RELATIONSHIP($,$,#1277,#1275)
REPRESENTATION_RELATIONSHIP_WITH_TRANSFORMATION(#53)
SHAPE_REPRESENTATION_RELATIONSHIP()
);
#57=CONTEXT_DEPENDENT_SHAPE_REPRESENTATION(#54,#1272);
#58=CONTEXT_DEPENDENT_SHAPE_REPRESENTATION(#55,#1273);
#59=CONTEXT_DEPENDENT_SHAPE_REPRESENTATION(#56,#1274);
#60=NEXT_ASSEMBLY_USAGE_OCCURRENCE('Fronta_Tampa:1','Fronta_Tampa:1',
'Fronta_Tampa:1',#1282,#1283,'Fronta_Tampa:1');
#61=NEXT_ASSEMBLY_USAGE_OCCURRENCE('Frontal_Traseira_Tampa:1',
'Frontal_Traseira_Tampa:1','Frontal_Traseira_Tampa:1',#1280,#1281,
'Frontal_Traseira_Tampa:1');
#62=NEXT_ASSEMBLY_USAGE_OCCURRENCE('Fronta_Traseira_Tampa:1',
'Fronta_Traseira_Tampa:1','Fronta_Traseira_Tampa:1',#1280,#1282,
'Fronta_Traseira_Tampa:1');
#63=SHAPE_REPRESENTATION_RELATIONSHIP('SRR','None',#1278,#66);
#64=SHAPE_REPRESENTATION_RELATIONSHIP('SRR','None',#1277,#67);
#65=SHAPE_REPRESENTATION_RELATIONSHIP('SRR','None',#1275,#68);
#66=ADVANCED_BREP_SHAPE_REPRESENTATION('',(#73),#1258);
#67=ADVANCED_BREP_SHAPE_REPRESENTATION('',(#74),#1257);
#68=ADVANCED_BREP_SHAPE_REPRESENTATION('',(#75),#1255);
#69=STYLED_ITEM('',(#1299),#73);
#70=STYLED_ITEM('',(#1299),#74);
#71=STYLED_ITEM('',(#1299),#75);
#72=STYLED_ITEM('',(#1300),#13);
#73=MANIFOLD_SOLID_BREP('Corpo1',#744);
#74=MANIFOLD_SOLID_BREP('Corpo1',#745);
#75=MANIFOLD_SOLID_BREP('Corpo1',#746);
#76=FACE_OUTER_BOUND('',#114,.T.);
#77=FACE_OUTER_BOUND('',#115,.T.);
#78=FACE_OUTER_BOUND('',#116,.T.);
#79=FACE_OUTER_BOUND('',#117,.T.);
#80=FACE_OUTER_BOUND('',#118,.T.);
#81=FACE_OUTER_BOUND('',#119,.T.);
#82=FACE_OUTER_BOUND('',#120,.T.);
#83=FACE_OUTER_BOUND('',#121,.T.);
#84=FACE_OUTER_BOUND('',#122,.T.);
#85=FACE_OUTER_BOUND('',#123,.T.);
#86=FACE_OUTER_BOUND('',#124,.T.);
#87=FACE_OUTER_BOUND('',#125,.T.);
#88=FACE_OUTER_BOUND('',#126,.T.);
#89=FACE_OUTER_BOUND('',#127,.T.);
#90=FACE_OUTER_BOUND('',#128,.T.);
#91=FACE_OUTER_BOUND('',#129,.T.);
#92=FACE_OUTER_BOUND('',#130,.T.);
#93=FACE_OUTER_BOUND('',#131,.T.);
#94=FACE_OUTER_BOUND('',#132,.T.);
#95=FACE_OUTER_BOUND('',#133,.T.);
#96=FACE_OUTER_BOUND('',#134,.T.);
#97=FACE_OUTER_BOUND('',#135,.T.);
#98=FACE_OUTER_BOUND('',#136,.T.);
#99=FACE_OUTER_BOUND('',#137,.T.);
#100=FACE_OUTER_BOUND('',#138,.T.);
#101=FACE_OUTER_BOUND('',#139,.T.);
#102=FACE_OUTER_BOUND('',#140,.T.);
#103=FACE_OUTER_BOUND('',#141,.T.);
#104=FACE_OUTER_BOUND('',#142,.T.);
#105=FACE_OUTER_BOUND('',#143,.T.);
#106=FACE_OUTER_BOUND('',#144,.T.);
#107=FACE_OUTER_BOUND('',#145,.T.);
#108=FACE_OUTER_BOUND('',#146,.T.);
#109=FACE_OUTER_BOUND('',#147,.T.);
#110=FACE_OUTER_BOUND('',#148,.T.);
#111=FACE_OUTER_BOUND('',#149,.T.);
#112=FACE_OUTER_BOUND('',#150,.T.);
#113=FACE_OUTER_BOUND('',#157,.T.);
#114=EDGE_LOOP('',(#484,#485,#486,#487));
#115=EDGE_LOOP('',(#488,#489,#490,#491));
#116=EDGE_LOOP('',(#492,#493,#494,#495));
#117=EDGE_LOOP('',(#496,#497,#498,#499));
#118=EDGE_LOOP('',(#500,#501,#502,#503));
#119=EDGE_LOOP('',(#504,#505,#506,#507));
#120=EDGE_LOOP('',(#508,#509,#510,#511));
#121=EDGE_LOOP('',(#512,#513,#514,#515));
#122=EDGE_LOOP('',(#516,#517,#518,#519));
#123=EDGE_LOOP('',(#520,#521,#522,#523));
#124=EDGE_LOOP('',(#524,#525,#526,#527));
#125=EDGE_LOOP('',(#528,#529,#530,#531));
#126=EDGE_LOOP('',(#532,#533,#534,#535));
#127=EDGE_LOOP('',(#536,#537,#538,#539));
#128=EDGE_LOOP('',(#540,#541,#542,#543));
#129=EDGE_LOOP('',(#544,#545,#546,#547));
#130=EDGE_LOOP('',(#548,#549,#550,#551));
#131=EDGE_LOOP('',(#552,#553,#554,#555));
#132=EDGE_LOOP('',(#556,#557,#558,#559));
#133=EDGE_LOOP('',(#560,#561,#562,#563));
#134=EDGE_LOOP('',(#564,#565,#566,#567));
#135=EDGE_LOOP('',(#568,#569,#570,#571));
#136=EDGE_LOOP('',(#572,#573,#574,#575));
#137=EDGE_LOOP('',(#576,#577,#578,#579));
#138=EDGE_LOOP('',(#580,#581,#582,#583));
#139=EDGE_LOOP('',(#584,#585,#586,#587));
#140=EDGE_LOOP('',(#588,#589,#590,#591));
#141=EDGE_LOOP('',(#592,#593,#594,#595));
#142=EDGE_LOOP('',(#596,#597,#598,#599));
#143=EDGE_LOOP('',(#600,#601,#602,#603));
#144=EDGE_LOOP('',(#604,#605,#606,#607));
#145=EDGE_LOOP('',(#608,#609,#610,#611));
#146=EDGE_LOOP('',(#612,#613,#614,#615));
#147=EDGE_LOOP('',(#616,#617,#618,#619));
#148=EDGE_LOOP('',(#620,#621,#622,#623));
#149=EDGE_LOOP('',(#624,#625,#626,#627));
#150=EDGE_LOOP('',(#628,#629,#630,#631));
#151=EDGE_LOOP('',(#632,#633,#634,#635));
#152=EDGE_LOOP('',(#636));
#153=EDGE_LOOP('',(#637,#638,#639,#640,#641,#642,#643,#644,#645,#646,#647,
#648));
#154=EDGE_LOOP('',(#649));
#155=EDGE_LOOP('',(#650));
#156=EDGE_LOOP('',(#651));
#157=EDGE_LOOP('',(#652,#653,#654,#655));
#158=EDGE_LOOP('',(#656,#657,#658,#659));
#159=EDGE_LOOP('',(#660));
#160=EDGE_LOOP('',(#661,#662,#663,#664,#665,#666,#667,#668,#669,#670,#671,
#672));
#161=EDGE_LOOP('',(#673));
#162=EDGE_LOOP('',(#674));
#163=EDGE_LOOP('',(#675));
#164=LINE('',#1031,#244);
#165=LINE('',#1033,#245);
#166=LINE('',#1035,#246);
#167=LINE('',#1036,#247);
#168=LINE('',#1039,#248);
#169=LINE('',#1041,#249);
#170=LINE('',#1042,#250);
#171=LINE('',#1045,#251);
#172=LINE('',#1047,#252);
#173=LINE('',#1048,#253);
#174=LINE('',#1050,#254);
#175=LINE('',#1051,#255);
#176=LINE('',#1057,#256);
#177=LINE('',#1059,#257);
#178=LINE('',#1061,#258);
#179=LINE('',#1062,#259);
#180=LINE('',#1065,#260);
#181=LINE('',#1067,#261);
#182=LINE('',#1068,#262);
#183=LINE('',#1071,#263);
#184=LINE('',#1073,#264);
#185=LINE('',#1074,#265);
#186=LINE('',#1076,#266);
#187=LINE('',#1077,#267);
#188=LINE('',#1084,#268);
#189=LINE('',#1086,#269);
#190=LINE('',#1088,#270);
#191=LINE('',#1089,#271);
#192=LINE('',#1092,#272);
#193=LINE('',#1094,#273);
#194=LINE('',#1095,#274);
#195=LINE('',#1098,#275);
#196=LINE('',#1100,#276);
#197=LINE('',#1101,#277);
#198=LINE('',#1103,#278);
#199=LINE('',#1104,#279);
#200=LINE('',#1108,#280);
#201=LINE('',#1110,#281);
#202=LINE('',#1112,#282);
#203=LINE('',#1113,#283);
#204=LINE('',#1116,#284);
#205=LINE('',#1118,#285);
#206=LINE('',#1119,#286);
#207=LINE('',#1124,#287);
#208=LINE('',#1130,#288);
#209=LINE('',#1136,#289);
#210=LINE('',#1148,#290);
#211=LINE('',#1151,#291);
#212=LINE('',#1154,#292);
#213=LINE('',#1156,#293);
#214=LINE('',#1157,#294);
#215=LINE('',#1168,#295);
#216=LINE('',#1171,#296);
#217=LINE('',#1173,#297);
#218=LINE('',#1174,#298);
#219=LINE('',#1177,#299);
#220=LINE('',#1179,#300);
#221=LINE('',#1180,#301);
#222=LINE('',#1183,#302);
#223=LINE('',#1185,#303);
#224=LINE('',#1186,#304);
#225=LINE('',#1189,#305);
#226=LINE('',#1191,#306);
#227=LINE('',#1192,#307);
#228=LINE('',#1195,#308);
#229=LINE('',#1197,#309);
#230=LINE('',#1198,#310);
#231=LINE('',#1209,#311);
#232=LINE('',#1212,#312);
#233=LINE('',#1214,#313);
#234=LINE('',#1215,#314);
#235=LINE('',#1226,#315);
#236=LINE('',#1228,#316);
#237=LINE('',#1229,#317);
#238=LINE('',#1234,#318);
#239=LINE('',#1238,#319);
#240=LINE('',#1240,#320);
#241=LINE('',#1241,#321);
#242=LINE('',#1243,#322);
#243=LINE('',#1244,#323);
#244=VECTOR('',#838,10.);
#245=VECTOR('',#839,10.);
#246=VECTOR('',#840,10.);
#247=VECTOR('',#841,10.);
#248=VECTOR('',#844,10.);
#249=VECTOR('',#845,10.);
#250=VECTOR('',#846,10.);
#251=VECTOR('',#849,10.);
#252=VECTOR('',#850,10.);
#253=VECTOR('',#851,10.);
#254=VECTOR('',#854,10.);
#255=VECTOR('',#855,10.);
#256=VECTOR('',#862,10.);
#257=VECTOR('',#863,10.);
#258=VECTOR('',#864,10.);
#259=VECTOR('',#865,10.);
#260=VECTOR('',#868,10.);
#261=VECTOR('',#869,10.);
#262=VECTOR('',#870,10.);
#263=VECTOR('',#873,10.);
#264=VECTOR('',#874,10.);
#265=VECTOR('',#875,10.);
#266=VECTOR('',#878,10.);
#267=VECTOR('',#879,10.);
#268=VECTOR('',#888,10.);
#269=VECTOR('',#889,10.);
#270=VECTOR('',#890,10.);
#271=VECTOR('',#891,10.);
#272=VECTOR('',#894,10.);
#273=VECTOR('',#895,10.);
#274=VECTOR('',#896,10.);
#275=VECTOR('',#899,10.);
#276=VECTOR('',#900,10.);
#277=VECTOR('',#901,10.);
#278=VECTOR('',#904,10.);
#279=VECTOR('',#905,10.);
#280=VECTOR('',#908,10.);
#281=VECTOR('',#909,10.);
#282=VECTOR('',#910,10.);
#283=VECTOR('',#911,10.);
#284=VECTOR('',#914,10.);
#285=VECTOR('',#915,10.);
#286=VECTOR('',#916,10.);
#287=VECTOR('',#921,1.49999787923548);
#288=VECTOR('',#928,1.49999787923548);
#289=VECTOR('',#935,1.49999787923548);
#290=VECTOR('',#940,10.);
#291=VECTOR('',#943,10.);
#292=VECTOR('',#946,10.);
#293=VECTOR('',#947,10.);
#294=VECTOR('',#948,10.);
#295=VECTOR('',#953,10.);
#296=VECTOR('',#956,10.);
#297=VECTOR('',#957,10.);
#298=VECTOR('',#958,10.);
#299=VECTOR('',#961,10.);
#300=VECTOR('',#962,10.);
#301=VECTOR('',#963,10.);
#302=VECTOR('',#966,10.);
#303=VECTOR('',#967,10.);
#304=VECTOR('',#968,10.);
#305=VECTOR('',#971,10.);
#306=VECTOR('',#972,10.);
#307=VECTOR('',#973,10.);
#308=VECTOR('',#976,10.);
#309=VECTOR('',#977,10.);
#310=VECTOR('',#978,10.);
#311=VECTOR('',#983,10.);
#312=VECTOR('',#986,10.);
#313=VECTOR('',#987,10.);
#314=VECTOR('',#988,10.);
#315=VECTOR('',#993,10.);
#316=VECTOR('',#996,10.);
#317=VECTOR('',#997,10.);
#318=VECTOR('',#1002,1.49999787923548);
#319=VECTOR('',#1007,10.);
#320=VECTOR('',#1008,10.);
#321=VECTOR('',#1009,10.);
#322=VECTOR('',#1012,10.);
#323=VECTOR('',#1013,10.);
#324=VERTEX_POINT('',#1029);
#325=VERTEX_POINT('',#1030);
#326=VERTEX_POINT('',#1032);
#327=VERTEX_POINT('',#1034);
#328=VERTEX_POINT('',#1038);
#329=VERTEX_POINT('',#1040);
#330=VERTEX_POINT('',#1044);
#331=VERTEX_POINT('',#1046);
#332=VERTEX_POINT('',#1055);
#333=VERTEX_POINT('',#1056);
#334=VERTEX_POINT('',#1058);
#335=VERTEX_POINT('',#1060);
#336=VERTEX_POINT('',#1064);
#337=VERTEX_POINT('',#1066);
#338=VERTEX_POINT('',#1070);
#339=VERTEX_POINT('',#1072);
#340=VERTEX_POINT('',#1082);
#341=VERTEX_POINT('',#1083);
#342=VERTEX_POINT('',#1085);
#343=VERTEX_POINT('',#1087);
#344=VERTEX_POINT('',#1091);
#345=VERTEX_POINT('',#1093);
#346=VERTEX_POINT('',#1097);
#347=VERTEX_POINT('',#1099);
#348=VERTEX_POINT('',#1106);
#349=VERTEX_POINT('',#1107);
#350=VERTEX_POINT('',#1109);
#351=VERTEX_POINT('',#1111);
#352=VERTEX_POINT('',#1115);
#353=VERTEX_POINT('',#1117);
#354=VERTEX_POINT('',#1121);
#355=VERTEX_POINT('',#1123);
#356=VERTEX_POINT('',#1127);
#357=VERTEX_POINT('',#1129);
#358=VERTEX_POINT('',#1133);
#359=VERTEX_POINT('',#1135);
#360=VERTEX_POINT('',#1144);
#361=VERTEX_POINT('',#1145);
#362=VERTEX_POINT('',#1147);
#363=VERTEX_POINT('',#1149);
#364=VERTEX_POINT('',#1153);
#365=VERTEX_POINT('',#1155);
#366=VERTEX_POINT('',#1164);
#367=VERTEX_POINT('',#1166);
#368=VERTEX_POINT('',#1170);
#369=VERTEX_POINT('',#1172);
#370=VERTEX_POINT('',#1176);
#371=VERTEX_POINT('',#1178);
#372=VERTEX_POINT('',#1182);
#373=VERTEX_POINT('',#1184);
#374=VERTEX_POINT('',#1188);
#375=VERTEX_POINT('',#1190);
#376=VERTEX_POINT('',#1194);
#377=VERTEX_POINT('',#1196);
#378=VERTEX_POINT('',#1205);
#379=VERTEX_POINT('',#1207);
#380=VERTEX_POINT('',#1211);
#381=VERTEX_POINT('',#1213);
#382=VERTEX_POINT('',#1222);
#383=VERTEX_POINT('',#1224);
#384=VERTEX_POINT('',#1231);
#385=VERTEX_POINT('',#1233);
#386=VERTEX_POINT('',#1237);
#387=VERTEX_POINT('',#1239);
#388=EDGE_CURVE('',#324,#325,#164,.T.);
#389=EDGE_CURVE('',#325,#326,#165,.T.);
#390=EDGE_CURVE('',#326,#327,#166,.T.);
#391=EDGE_CURVE('',#327,#324,#167,.T.);
#392=EDGE_CURVE('',#328,#324,#168,.T.);
#393=EDGE_CURVE('',#329,#327,#169,.T.);
#394=EDGE_CURVE('',#328,#329,#170,.T.);
#395=EDGE_CURVE('',#330,#328,#171,.T.);
#396=EDGE_CURVE('',#331,#329,#172,.T.);
#397=EDGE_CURVE('',#330,#331,#173,.T.);
#398=EDGE_CURVE('',#330,#325,#174,.T.);
#399=EDGE_CURVE('',#331,#326,#175,.T.);
#400=EDGE_CURVE('',#332,#333,#176,.T.);
#401=EDGE_CURVE('',#333,#334,#177,.T.);
#402=EDGE_CURVE('',#334,#335,#178,.T.);
#403=EDGE_CURVE('',#335,#332,#179,.T.);
#404=EDGE_CURVE('',#332,#336,#180,.T.);
#405=EDGE_CURVE('',#337,#335,#181,.T.);
#406=EDGE_CURVE('',#336,#337,#182,.T.);
#407=EDGE_CURVE('',#336,#338,#183,.T.);
#408=EDGE_CURVE('',#339,#337,#184,.T.);
#409=EDGE_CURVE('',#338,#339,#185,.T.);
#410=EDGE_CURVE('',#338,#333,#186,.T.);
#411=EDGE_CURVE('',#339,#334,#187,.T.);
#412=EDGE_CURVE('',#340,#341,#188,.T.);
#413=EDGE_CURVE('',#342,#340,#189,.T.);
#414=EDGE_CURVE('',#343,#342,#190,.T.);
#415=EDGE_CURVE('',#343,#341,#191,.T.);
#416=EDGE_CURVE('',#341,#344,#192,.T.);
#417=EDGE_CURVE('',#345,#343,#193,.T.);
#418=EDGE_CURVE('',#345,#344,#194,.T.);
#419=EDGE_CURVE('',#344,#346,#195,.T.);
#420=EDGE_CURVE('',#347,#345,#196,.T.);
#421=EDGE_CURVE('',#347,#346,#197,.T.);
#422=EDGE_CURVE('',#346,#340,#198,.T.);
#423=EDGE_CURVE('',#342,#347,#199,.T.);
#424=EDGE_CURVE('',#348,#349,#200,.T.);
#425=EDGE_CURVE('',#349,#350,#201,.T.);
#426=EDGE_CURVE('',#350,#351,#202,.T.);
#427=EDGE_CURVE('',#351,#348,#203,.T.);
#428=EDGE_CURVE('',#352,#348,#204,.T.);
#429=EDGE_CURVE('',#353,#351,#205,.T.);
#430=EDGE_CURVE('',#353,#352,#206,.T.);
#431=EDGE_CURVE('',#354,#354,#39,.T.);
#432=EDGE_CURVE('',#354,#355,#207,.T.);
#433=EDGE_CURVE('',#355,#355,#40,.T.);
#434=EDGE_CURVE('',#356,#356,#41,.T.);
#435=EDGE_CURVE('',#356,#357,#208,.T.);
#436=EDGE_CURVE('',#357,#357,#42,.T.);
#437=EDGE_CURVE('',#358,#358,#43,.T.);
#438=EDGE_CURVE('',#358,#359,#209,.T.);
#439=EDGE_CURVE('',#359,#359,#44,.T.);
#440=EDGE_CURVE('',#360,#361,#27,.T.);
#441=EDGE_CURVE('',#362,#360,#210,.T.);
#442=EDGE_CURVE('',#363,#362,#28,.T.);
#443=EDGE_CURVE('',#363,#361,#211,.T.);
#444=EDGE_CURVE('',#361,#364,#212,.T.);
#445=EDGE_CURVE('',#365,#363,#213,.T.);
#446=EDGE_CURVE('',#365,#364,#214,.T.);
#447=EDGE_CURVE('',#364,#366,#29,.T.);
#448=EDGE_CURVE('',#367,#365,#30,.T.);
#449=EDGE_CURVE('',#367,#366,#215,.T.);
#450=EDGE_CURVE('',#366,#368,#216,.T.);
#451=EDGE_CURVE('',#369,#367,#217,.T.);
#452=EDGE_CURVE('',#369,#368,#218,.T.);
#453=EDGE_CURVE('',#368,#370,#219,.T.);
#454=EDGE_CURVE('',#371,#369,#220,.T.);
#455=EDGE_CURVE('',#371,#370,#221,.T.);
#456=EDGE_CURVE('',#370,#372,#222,.T.);
#457=EDGE_CURVE('',#373,#371,#223,.T.);
#458=EDGE_CURVE('',#373,#372,#224,.T.);
#459=EDGE_CURVE('',#372,#374,#225,.T.);
#460=EDGE_CURVE('',#375,#373,#226,.T.);
#461=EDGE_CURVE('',#375,#374,#227,.T.);
#462=EDGE_CURVE('',#374,#376,#228,.T.);
#463=EDGE_CURVE('',#377,#375,#229,.T.);
#464=EDGE_CURVE('',#377,#376,#230,.T.);
#465=EDGE_CURVE('',#376,#378,#31,.T.);
#466=EDGE_CURVE('',#379,#377,#32,.T.);
#467=EDGE_CURVE('',#379,#378,#231,.T.);
#468=EDGE_CURVE('',#378,#380,#232,.T.);
#469=EDGE_CURVE('',#381,#379,#233,.T.);
#470=EDGE_CURVE('',#381,#380,#234,.T.);
#471=EDGE_CURVE('',#380,#382,#33,.T.);
#472=EDGE_CURVE('',#383,#381,#34,.T.);
#473=EDGE_CURVE('',#383,#382,#235,.T.);
#474=EDGE_CURVE('',#382,#360,#236,.T.);
#475=EDGE_CURVE('',#362,#383,#237,.T.);
#476=EDGE_CURVE('',#384,#384,#45,.T.);
#477=EDGE_CURVE('',#384,#385,#238,.T.);
#478=EDGE_CURVE('',#385,#385,#46,.T.);
#479=EDGE_CURVE('',#352,#386,#239,.T.);
#480=EDGE_CURVE('',#387,#353,#240,.T.);
#481=EDGE_CURVE('',#386,#387,#241,.T.);
#482=EDGE_CURVE('',#386,#349,#242,.T.);
#483=EDGE_CURVE('',#387,#350,#243,.T.);
#484=ORIENTED_EDGE('',*,*,#388,.T.);
#485=ORIENTED_EDGE('',*,*,#389,.T.);
#486=ORIENTED_EDGE('',*,*,#390,.T.);
#487=ORIENTED_EDGE('',*,*,#391,.T.);
#488=ORIENTED_EDGE('',*,*,#392,.T.);
#489=ORIENTED_EDGE('',*,*,#391,.F.);
#490=ORIENTED_EDGE('',*,*,#393,.F.);
#491=ORIENTED_EDGE('',*,*,#394,.F.);
#492=ORIENTED_EDGE('',*,*,#395,.T.);
#493=ORIENTED_EDGE('',*,*,#394,.T.);
#494=ORIENTED_EDGE('',*,*,#396,.F.);
#495=ORIENTED_EDGE('',*,*,#397,.F.);
#496=ORIENTED_EDGE('',*,*,#398,.F.);
#497=ORIENTED_EDGE('',*,*,#397,.T.);
#498=ORIENTED_EDGE('',*,*,#399,.T.);
#499=ORIENTED_EDGE('',*,*,#389,.F.);
#500=ORIENTED_EDGE('',*,*,#399,.F.);
#501=ORIENTED_EDGE('',*,*,#396,.T.);
#502=ORIENTED_EDGE('',*,*,#393,.T.);
#503=ORIENTED_EDGE('',*,*,#390,.F.);
#504=ORIENTED_EDGE('',*,*,#392,.F.);
#505=ORIENTED_EDGE('',*,*,#395,.F.);
#506=ORIENTED_EDGE('',*,*,#398,.T.);
#507=ORIENTED_EDGE('',*,*,#388,.F.);
#508=ORIENTED_EDGE('',*,*,#400,.T.);
#509=ORIENTED_EDGE('',*,*,#401,.T.);
#510=ORIENTED_EDGE('',*,*,#402,.T.);
#511=ORIENTED_EDGE('',*,*,#403,.T.);
#512=ORIENTED_EDGE('',*,*,#404,.F.);
#513=ORIENTED_EDGE('',*,*,#403,.F.);
#514=ORIENTED_EDGE('',*,*,#405,.F.);
#515=ORIENTED_EDGE('',*,*,#406,.F.);
#516=ORIENTED_EDGE('',*,*,#407,.F.);
#517=ORIENTED_EDGE('',*,*,#406,.T.);
#518=ORIENTED_EDGE('',*,*,#408,.F.);
#519=ORIENTED_EDGE('',*,*,#409,.F.);
#520=ORIENTED_EDGE('',*,*,#410,.F.);
#521=ORIENTED_EDGE('',*,*,#409,.T.);
#522=ORIENTED_EDGE('',*,*,#411,.T.);
#523=ORIENTED_EDGE('',*,*,#401,.F.);
#524=ORIENTED_EDGE('',*,*,#411,.F.);
#525=ORIENTED_EDGE('',*,*,#408,.T.);
#526=ORIENTED_EDGE('',*,*,#405,.T.);
#527=ORIENTED_EDGE('',*,*,#402,.F.);
#528=ORIENTED_EDGE('',*,*,#410,.T.);
#529=ORIENTED_EDGE('',*,*,#400,.F.);
#530=ORIENTED_EDGE('',*,*,#404,.T.);
#531=ORIENTED_EDGE('',*,*,#407,.T.);
#532=ORIENTED_EDGE('',*,*,#412,.F.);
#533=ORIENTED_EDGE('',*,*,#413,.F.);
#534=ORIENTED_EDGE('',*,*,#414,.F.);
#535=ORIENTED_EDGE('',*,*,#415,.T.);
#536=ORIENTED_EDGE('',*,*,#416,.F.);
#537=ORIENTED_EDGE('',*,*,#415,.F.);
#538=ORIENTED_EDGE('',*,*,#417,.F.);
#539=ORIENTED_EDGE('',*,*,#418,.T.);
#540=ORIENTED_EDGE('',*,*,#419,.F.);
#541=ORIENTED_EDGE('',*,*,#418,.F.);
#542=ORIENTED_EDGE('',*,*,#420,.F.);
#543=ORIENTED_EDGE('',*,*,#421,.T.);
#544=ORIENTED_EDGE('',*,*,#422,.F.);
#545=ORIENTED_EDGE('',*,*,#421,.F.);
#546=ORIENTED_EDGE('',*,*,#423,.F.);
#547=ORIENTED_EDGE('',*,*,#413,.T.);
#548=ORIENTED_EDGE('',*,*,#424,.T.);
#549=ORIENTED_EDGE('',*,*,#425,.T.);
#550=ORIENTED_EDGE('',*,*,#426,.T.);
#551=ORIENTED_EDGE('',*,*,#427,.T.);
#552=ORIENTED_EDGE('',*,*,#428,.T.);
#553=ORIENTED_EDGE('',*,*,#427,.F.);
#554=ORIENTED_EDGE('',*,*,#429,.F.);
#555=ORIENTED_EDGE('',*,*,#430,.T.);
#556=ORIENTED_EDGE('',*,*,#431,.F.);
#557=ORIENTED_EDGE('',*,*,#432,.T.);
#558=ORIENTED_EDGE('',*,*,#433,.F.);
#559=ORIENTED_EDGE('',*,*,#432,.F.);
#560=ORIENTED_EDGE('',*,*,#434,.F.);
#561=ORIENTED_EDGE('',*,*,#435,.T.);
#562=ORIENTED_EDGE('',*,*,#436,.F.);
#563=ORIENTED_EDGE('',*,*,#435,.F.);
#564=ORIENTED_EDGE('',*,*,#437,.F.);
#565=ORIENTED_EDGE('',*,*,#438,.T.);
#566=ORIENTED_EDGE('',*,*,#439,.F.);
#567=ORIENTED_EDGE('',*,*,#438,.F.);
#568=ORIENTED_EDGE('',*,*,#440,.F.);
#569=ORIENTED_EDGE('',*,*,#441,.F.);
#570=ORIENTED_EDGE('',*,*,#442,.F.);
#571=ORIENTED_EDGE('',*,*,#443,.T.);
#572=ORIENTED_EDGE('',*,*,#444,.F.);
#573=ORIENTED_EDGE('',*,*,#443,.F.);
#574=ORIENTED_EDGE('',*,*,#445,.F.);
#575=ORIENTED_EDGE('',*,*,#446,.T.);
#576=ORIENTED_EDGE('',*,*,#447,.F.);
#577=ORIENTED_EDGE('',*,*,#446,.F.);
#578=ORIENTED_EDGE('',*,*,#448,.F.);
#579=ORIENTED_EDGE('',*,*,#449,.T.);
#580=ORIENTED_EDGE('',*,*,#450,.F.);
#581=ORIENTED_EDGE('',*,*,#449,.F.);
#582=ORIENTED_EDGE('',*,*,#451,.F.);
#583=ORIENTED_EDGE('',*,*,#452,.T.);
#584=ORIENTED_EDGE('',*,*,#453,.F.);
#585=ORIENTED_EDGE('',*,*,#452,.F.);
#586=ORIENTED_EDGE('',*,*,#454,.F.);
#587=ORIENTED_EDGE('',*,*,#455,.T.);
#588=ORIENTED_EDGE('',*,*,#456,.F.);
#589=ORIENTED_EDGE('',*,*,#455,.F.);
#590=ORIENTED_EDGE('',*,*,#457,.F.);
#591=ORIENTED_EDGE('',*,*,#458,.T.);
#592=ORIENTED_EDGE('',*,*,#459,.F.);
#593=ORIENTED_EDGE('',*,*,#458,.F.);
#594=ORIENTED_EDGE('',*,*,#460,.F.);
#595=ORIENTED_EDGE('',*,*,#461,.T.);
#596=ORIENTED_EDGE('',*,*,#462,.F.);
#597=ORIENTED_EDGE('',*,*,#461,.F.);
#598=ORIENTED_EDGE('',*,*,#463,.F.);
#599=ORIENTED_EDGE('',*,*,#464,.T.);
#600=ORIENTED_EDGE('',*,*,#465,.F.);
#601=ORIENTED_EDGE('',*,*,#464,.F.);
#602=ORIENTED_EDGE('',*,*,#466,.F.);
#603=ORIENTED_EDGE('',*,*,#467,.T.);
#604=ORIENTED_EDGE('',*,*,#468,.F.);
#605=ORIENTED_EDGE('',*,*,#467,.F.);
#606=ORIENTED_EDGE('',*,*,#469,.F.);
#607=ORIENTED_EDGE('',*,*,#470,.T.);
#608=ORIENTED_EDGE('',*,*,#471,.F.);
#609=ORIENTED_EDGE('',*,*,#470,.F.);
#610=ORIENTED_EDGE('',*,*,#472,.F.);
#611=ORIENTED_EDGE('',*,*,#473,.T.);
#612=ORIENTED_EDGE('',*,*,#474,.F.);
#613=ORIENTED_EDGE('',*,*,#473,.F.);
#614=ORIENTED_EDGE('',*,*,#475,.F.);
#615=ORIENTED_EDGE('',*,*,#441,.T.);
#616=ORIENTED_EDGE('',*,*,#476,.F.);
#617=ORIENTED_EDGE('',*,*,#477,.T.);
#618=ORIENTED_EDGE('',*,*,#478,.F.);
#619=ORIENTED_EDGE('',*,*,#477,.F.);
#620=ORIENTED_EDGE('',*,*,#479,.F.);
#621=ORIENTED_EDGE('',*,*,#430,.F.);
#622=ORIENTED_EDGE('',*,*,#480,.F.);
#623=ORIENTED_EDGE('',*,*,#481,.F.);
#624=ORIENTED_EDGE('',*,*,#482,.F.);
#625=ORIENTED_EDGE('',*,*,#481,.T.);
#626=ORIENTED_EDGE('',*,*,#483,.T.);
#627=ORIENTED_EDGE('',*,*,#425,.F.);
#628=ORIENTED_EDGE('',*,*,#483,.F.);
#629=ORIENTED_EDGE('',*,*,#480,.T.);
#630=ORIENTED_EDGE('',*,*,#429,.T.);
#631=ORIENTED_EDGE('',*,*,#426,.F.);
#632=ORIENTED_EDGE('',*,*,#420,.T.);
#633=ORIENTED_EDGE('',*,*,#417,.T.);
#634=ORIENTED_EDGE('',*,*,#414,.T.);
#635=ORIENTED_EDGE('',*,*,#423,.T.);
#636=ORIENTED_EDGE('',*,*,#476,.T.);
#637=ORIENTED_EDGE('',*,*,#460,.T.);
#638=ORIENTED_EDGE('',*,*,#457,.T.);
#639=ORIENTED_EDGE('',*,*,#454,.T.);
#640=ORIENTED_EDGE('',*,*,#451,.T.);
#641=ORIENTED_EDGE('',*,*,#448,.T.);
#642=ORIENTED_EDGE('',*,*,#445,.T.);
#643=ORIENTED_EDGE('',*,*,#442,.T.);
#644=ORIENTED_EDGE('',*,*,#475,.T.);
#645=ORIENTED_EDGE('',*,*,#472,.T.);
#646=ORIENTED_EDGE('',*,*,#469,.T.);
#647=ORIENTED_EDGE('',*,*,#466,.T.);
#648=ORIENTED_EDGE('',*,*,#463,.T.);
#649=ORIENTED_EDGE('',*,*,#437,.T.);
#650=ORIENTED_EDGE('',*,*,#434,.T.);
#651=ORIENTED_EDGE('',*,*,#431,.T.);
#652=ORIENTED_EDGE('',*,*,#428,.F.);
#653=ORIENTED_EDGE('',*,*,#479,.T.);
#654=ORIENTED_EDGE('',*,*,#482,.T.);
#655=ORIENTED_EDGE('',*,*,#424,.F.);
#656=ORIENTED_EDGE('',*,*,#419,.T.);
#657=ORIENTED_EDGE('',*,*,#422,.T.);
#658=ORIENTED_EDGE('',*,*,#412,.T.);
#659=ORIENTED_EDGE('',*,*,#416,.T.);
#660=ORIENTED_EDGE('',*,*,#478,.T.);
#661=ORIENTED_EDGE('',*,*,#459,.T.);
#662=ORIENTED_EDGE('',*,*,#462,.T.);
#663=ORIENTED_EDGE('',*,*,#465,.T.);
#664=ORIENTED_EDGE('',*,*,#468,.T.);
#665=ORIENTED_EDGE('',*,*,#471,.T.);
#666=ORIENTED_EDGE('',*,*,#474,.T.);
#667=ORIENTED_EDGE('',*,*,#440,.T.);
#668=ORIENTED_EDGE('',*,*,#444,.T.);
#669=ORIENTED_EDGE('',*,*,#447,.T.);
#670=ORIENTED_EDGE('',*,*,#450,.T.);
#671=ORIENTED_EDGE('',*,*,#453,.T.);
#672=ORIENTED_EDGE('',*,*,#456,.T.);
#673=ORIENTED_EDGE('',*,*,#439,.T.);
#674=ORIENTED_EDGE('',*,*,#436,.T.);
#675=ORIENTED_EDGE('',*,*,#433,.T.);
#676=PLANE('',#774);
#677=PLANE('',#775);
#678=PLANE('',#776);
#679=PLANE('',#777);
#680=PLANE('',#778);
#681=PLANE('',#779);
#682=PLANE('',#780);
#683=PLANE('',#781);
#684=PLANE('',#782);
#685=PLANE('',#783);
#686=PLANE('',#784);
#687=PLANE('',#785);
#688=PLANE('',#787);
#689=PLANE('',#788);
#690=PLANE('',#789);
#691=PLANE('',#790);
#692=PLANE('',#791);
#693=PLANE('',#792);
#694=PLANE('',#804);
#695=PLANE('',#807);
#696=PLANE('',#808);
#697=PLANE('',#809);
#698=PLANE('',#810);
#699=PLANE('',#811);
#700=PLANE('',#814);
#701=PLANE('',#817);
#702=PLANE('',#821);
#703=PLANE('',#822);
#704=PLANE('',#823);
#705=PLANE('',#824);
#706=ADVANCED_FACE('',(#76),#676,.T.);
#707=ADVANCED_FACE('',(#77),#677,.T.);
#708=ADVANCED_FACE('',(#78),#678,.T.);
#709=ADVANCED_FACE('',(#79),#679,.T.);
#710=ADVANCED_FACE('',(#80),#680,.T.);
#711=ADVANCED_FACE('',(#81),#681,.F.);
#712=ADVANCED_FACE('',(#82),#682,.T.);
#713=ADVANCED_FACE('',(#83),#683,.T.);
#714=ADVANCED_FACE('',(#84),#684,.T.);
#715=ADVANCED_FACE('',(#85),#685,.T.);
#716=ADVANCED_FACE('',(#86),#686,.T.);
#717=ADVANCED_FACE('',(#87),#687,.F.);
#718=ADVANCED_FACE('',(#88),#688,.F.);
#719=ADVANCED_FACE('',(#89),#689,.F.);
#720=ADVANCED_FACE('',(#90),#690,.F.);
#721=ADVANCED_FACE('',(#91),#691,.F.);
#722=ADVANCED_FACE('',(#92),#692,.T.);
#723=ADVANCED_FACE('',(#93),#693,.T.);
#724=ADVANCED_FACE('',(#94),#47,.F.);
#725=ADVANCED_FACE('',(#95),#48,.F.);
#726=ADVANCED_FACE('',(#96),#49,.F.);
#727=ADVANCED_FACE('',(#97),#35,.T.);
#728=ADVANCED_FACE('',(#98),#694,.F.);
#729=ADVANCED_FACE('',(#99),#36,.T.);
#730=ADVANCED_FACE('',(#100),#695,.F.);
#731=ADVANCED_FACE('',(#101),#696,.F.);
#732=ADVANCED_FACE('',(#102),#697,.F.);
#733=ADVANCED_FACE('',(#103),#698,.F.);
#734=ADVANCED_FACE('',(#104),#699,.F.);
#735=ADVANCED_FACE('',(#105),#37,.T.);
#736=ADVANCED_FACE('',(#106),#700,.F.);
#737=ADVANCED_FACE('',(#107),#38,.T.);
#738=ADVANCED_FACE('',(#108),#701,.F.);
#739=ADVANCED_FACE('',(#109),#50,.F.);
#740=ADVANCED_FACE('',(#110),#702,.T.);
#741=ADVANCED_FACE('',(#111),#703,.T.);
#742=ADVANCED_FACE('',(#112,#15,#16,#17,#18,#19,#20),#704,.T.);
#743=ADVANCED_FACE('',(#113,#21,#22,#23,#24,#25,#26),#705,.F.);
#744=CLOSED_SHELL('',(#706,#707,#708,#709,#710,#711));
#745=CLOSED_SHELL('',(#712,#713,#714,#715,#716,#717));
#746=CLOSED_SHELL('',(#718,#719,#720,#721,#722,#723,#724,#725,#726,#727,
#728,#729,#730,#731,#732,#733,#734,#735,#736,#737,#738,#739,#740,#741,#742,
#743));
#747=DERIVED_UNIT_ELEMENT(#751,1.);
#748=DERIVED_UNIT_ELEMENT(#1261,-3.);
#749=DERIVED_UNIT_ELEMENT(#751,1.);
#750=DERIVED_UNIT_ELEMENT(#1261,-3.);
#751=(
MASS_UNIT()
NAMED_UNIT(*)
SI_UNIT(.KILO.,.GRAM.)
);
#752=DERIVED_UNIT((#747,#748));
#753=DERIVED_UNIT((#749,#750));
#754=MEASURE_REPRESENTATION_ITEM('density measure',
POSITIVE_RATIO_MEASURE(7850.),#752);
#755=MEASURE_REPRESENTATION_ITEM('density measure',
POSITIVE_RATIO_MEASURE(7850.),#753);
#756=PROPERTY_DEFINITION_REPRESENTATION(#766,#760);
#757=PROPERTY_DEFINITION_REPRESENTATION(#767,#761);
#758=PROPERTY_DEFINITION_REPRESENTATION(#768,#762);
#759=PROPERTY_DEFINITION_REPRESENTATION(#769,#763);
#760=REPRESENTATION('material name',(#764),#1256);
#761=REPRESENTATION('density',(#754),#1256);
#762=REPRESENTATION('material name',(#765),#1258);
#763=REPRESENTATION('density',(#755),#1258);
#764=DESCRIPTIVE_REPRESENTATION_ITEM('A\X\E7o','A\X\E7o');
#765=DESCRIPTIVE_REPRESENTATION_ITEM('A\X\E7o','A\X\E7o');
#766=PROPERTY_DEFINITION('material property','material name',#1281);
#767=PROPERTY_DEFINITION('material property','density of part',#1281);
#768=PROPERTY_DEFINITION('material property','material name',#1283);
#769=PROPERTY_DEFINITION('material property','density of part',#1283);
#770=AXIS2_PLACEMENT_3D('',#1024,#828,#829);
#771=AXIS2_PLACEMENT_3D('',#1025,#830,#831);
#772=AXIS2_PLACEMENT_3D('',#1026,#832,#833);
#773=AXIS2_PLACEMENT_3D('',#1027,#834,#835);
#774=AXIS2_PLACEMENT_3D('',#1028,#836,#837);
#775=AXIS2_PLACEMENT_3D('',#1037,#842,#843);
#776=AXIS2_PLACEMENT_3D('',#1043,#847,#848);
#777=AXIS2_PLACEMENT_3D('',#1049,#852,#853);
#778=AXIS2_PLACEMENT_3D('',#1052,#856,#857);
#779=AXIS2_PLACEMENT_3D('',#1053,#858,#859);
#780=AXIS2_PLACEMENT_3D('',#1054,#860,#861);
#781=AXIS2_PLACEMENT_3D('',#1063,#866,#867);
#782=AXIS2_PLACEMENT_3D('',#1069,#871,#872);
#783=AXIS2_PLACEMENT_3D('',#1075,#876,#877);
#784=AXIS2_PLACEMENT_3D('',#1078,#880,#881);
#785=AXIS2_PLACEMENT_3D('',#1079,#882,#883);
#786=AXIS2_PLACEMENT_3D('',#1080,#884,#885);
#787=AXIS2_PLACEMENT_3D('',#1081,#886,#887);
#788=AXIS2_PLACEMENT_3D('',#1090,#892,#893);
#789=AXIS2_PLACEMENT_3D('',#1096,#897,#898);
#790=AXIS2_PLACEMENT_3D('',#1102,#902,#903);
#791=AXIS2_PLACEMENT_3D('',#1105,#906,#907);
#792=AXIS2_PLACEMENT_3D('',#1114,#912,#913);
#793=AXIS2_PLACEMENT_3D('',#1120,#917,#918);
#794=AXIS2_PLACEMENT_3D('',#1122,#919,#920);
#795=AXIS2_PLACEMENT_3D('',#1125,#922,#923);
#796=AXIS2_PLACEMENT_3D('',#1126,#924,#925);
#797=AXIS2_PLACEMENT_3D('',#1128,#926,#927);
#798=AXIS2_PLACEMENT_3D('',#1131,#929,#930);
#799=AXIS2_PLACEMENT_3D('',#1132,#931,#932);
#800=AXIS2_PLACEMENT_3D('',#1134,#933,#934);
#801=AXIS2_PLACEMENT_3D('',#1137,#936,#937);
#802=AXIS2_PLACEMENT_3D('',#1146,#938,#939);
#803=AXIS2_PLACEMENT_3D('',#1150,#941,#942);
#804=AXIS2_PLACEMENT_3D('',#1152,#944,#945);
#805=AXIS2_PLACEMENT_3D('',#1165,#949,#950);
#806=AXIS2_PLACEMENT_3D('',#1167,#951,#952);
#807=AXIS2_PLACEMENT_3D('',#1169,#954,#955);
#808=AXIS2_PLACEMENT_3D('',#1175,#959,#960);
#809=AXIS2_PLACEMENT_3D('',#1181,#964,#965);
#810=AXIS2_PLACEMENT_3D('',#1187,#969,#970);
#811=AXIS2_PLACEMENT_3D('',#1193,#974,#975);
#812=AXIS2_PLACEMENT_3D('',#1206,#979,#980);
#813=AXIS2_PLACEMENT_3D('',#1208,#981,#982);
#814=AXIS2_PLACEMENT_3D('',#1210,#984,#985);
#815=AXIS2_PLACEMENT_3D('',#1223,#989,#990);
#816=AXIS2_PLACEMENT_3D('',#1225,#991,#992);
#817=AXIS2_PLACEMENT_3D('',#1227,#994,#995);
#818=AXIS2_PLACEMENT_3D('',#1230,#998,#999);
#819=AXIS2_PLACEMENT_3D('',#1232,#1000,#1001);
#820=AXIS2_PLACEMENT_3D('',#1235,#1003,#1004);
#821=AXIS2_PLACEMENT_3D('',#1236,#1005,#1006);
#822=AXIS2_PLACEMENT_3D('',#1242,#1010,#1011);
#823=AXIS2_PLACEMENT_3D('',#1245,#1014,#1015);
#824=AXIS2_PLACEMENT_3D('',#1246,#1016,#1017);
#825=AXIS2_PLACEMENT_3D('',#1247,#1018,#1019);
#826=AXIS2_PLACEMENT_3D('',#1248,#1020,#1021);
#827=AXIS2_PLACEMENT_3D('',#1249,#1022,#1023);
#828=DIRECTION('axis',(0.,0.,1.));
#829=DIRECTION('refdir',(1.,0.,0.));
#830=DIRECTION('axis',(0.,0.,1.));
#831=DIRECTION('refdir',(1.,0.,0.));
#832=DIRECTION('axis',(0.,0.,1.));
#833=DIRECTION('refdir',(1.,0.,0.));
#834=DIRECTION('axis',(0.,0.,1.));
#835=DIRECTION('refdir',(1.,0.,0.));
#836=DIRECTION('center_axis',(0.,0.,1.));
#837=DIRECTION('ref_axis',(1.,0.,0.));
#838=DIRECTION('',(0.894427190999916,0.447213595499957,0.));
#839=DIRECTION('',(-0.44721359549996,0.894427190999915,0.));
#840=DIRECTION('',(-0.894427190999916,-0.447213595499957,0.));
#841=DIRECTION('',(0.44721359549996,-0.894427190999915,0.));
#842=DIRECTION('center_axis',(-0.894427190999915,-0.44721359549996,0.));
#843=DIRECTION('ref_axis',(0.,0.,1.));
#844=DIRECTION('',(0.,0.,1.));
#845=DIRECTION('',(0.,0.,1.));
#846=DIRECTION('',(-0.44721359549996,0.894427190999915,0.));
#847=DIRECTION('center_axis',(0.,0.,-1.));
#848=DIRECTION('ref_axis',(-0.894427190999916,-0.447213595499957,0.));
#849=DIRECTION('',(-0.894427190999916,-0.447213595499957,0.));
#850=DIRECTION('',(-0.894427190999916,-0.447213595499957,0.));
#851=DIRECTION('',(-0.44721359549996,0.894427190999915,0.));
#852=DIRECTION('center_axis',(0.894427190999915,0.44721359549996,0.));
#853=DIRECTION('ref_axis',(0.,0.,-1.));
#854=DIRECTION('',(0.,0.,1.));
#855=DIRECTION('',(0.,0.,1.));
#856=DIRECTION('center_axis',(-0.44721359549996,0.894427190999915,0.));
#857=DIRECTION('ref_axis',(0.,0.,1.));
#858=DIRECTION('center_axis',(-0.447213595499958,0.894427190999916,0.));
#859=DIRECTION('ref_axis',(0.,0.,1.));
#860=DIRECTION('center_axis',(0.,0.,1.));
#861=DIRECTION('ref_axis',(1.,0.,0.));
#862=DIRECTION('',(0.894427190999916,-0.447213595499958,0.));
#863=DIRECTION('',(0.447213595499959,0.894427190999915,0.));
#864=DIRECTION('',(-0.894427190999916,0.447213595499958,0.));
#865=DIRECTION('',(-0.447213595499959,-0.894427190999915,0.));
#866=DIRECTION('center_axis',(-0.894427190999915,0.447213595499959,0.));
#867=DIRECTION('ref_axis',(0.,0.,1.));
#868=DIRECTION('',(0.,0.,-1.));
#869=DIRECTION('',(0.,0.,1.));
#870=DIRECTION('',(0.447213595499959,0.894427190999915,0.));
#871=DIRECTION('center_axis',(0.,0.,-1.));
#872=DIRECTION('ref_axis',(-0.894427190999916,0.447213595499958,0.));
#873=DIRECTION('',(0.894427190999916,-0.447213595499958,0.));
#874=DIRECTION('',(-0.894427190999916,0.447213595499958,0.));
#875=DIRECTION('',(0.447213595499959,0.894427190999915,0.));
#876=DIRECTION('center_axis',(0.894427190999915,-0.447213595499959,0.));
#877=DIRECTION('ref_axis',(0.,0.,-1.));
#878=DIRECTION('',(0.,0.,1.));
#879=DIRECTION('',(0.,0.,1.));
#880=DIRECTION('center_axis',(0.447213595499959,0.894427190999915,0.));
#881=DIRECTION('ref_axis',(0.,0.,1.));
#882=DIRECTION('center_axis',(0.447213595499958,0.894427190999916,2.22044604925032E-15));
#883=DIRECTION('ref_axis',(9.93013661298911E-16,1.98602732259782E-15,-1.));
#884=DIRECTION('',(0.,0.,1.));
#885=DIRECTION('',(1.,0.,0.));
#886=DIRECTION('center_axis',(1.,0.,0.));
#887=DIRECTION('ref_axis',(0.,0.,1.));
#888=DIRECTION('',(0.,0.,-1.));
#889=DIRECTION('',(0.,-1.,0.));
#890=DIRECTION('',(0.,0.,1.));
#891=DIRECTION('',(0.,-1.,0.));
#892=DIRECTION('center_axis',(0.,0.,-1.));
#893=DIRECTION('ref_axis',(1.,0.,0.));
#894=DIRECTION('',(-1.,0.,0.));
#895=DIRECTION('',(1.,0.,0.));
#896=DIRECTION('',(0.,-1.,0.));
#897=DIRECTION('center_axis',(-1.,0.,0.));
#898=DIRECTION('ref_axis',(0.,0.,-1.));
#899=DIRECTION('',(0.,0.,1.));
#900=DIRECTION('',(0.,0.,-1.));
#901=DIRECTION('',(0.,-1.,0.));
#902=DIRECTION('center_axis',(0.,0.,1.));
#903=DIRECTION('ref_axis',(-1.,0.,0.));
#904=DIRECTION('',(1.,0.,0.));
#905=DIRECTION('',(-1.,0.,0.));
#906=DIRECTION('center_axis',(0.,0.,1.));
#907=DIRECTION('ref_axis',(1.,0.,0.));
#908=DIRECTION('',(1.,0.,0.));
#909=DIRECTION('',(0.,1.,0.));
#910=DIRECTION('',(-1.,0.,0.));
#911=DIRECTION('',(0.,-1.,0.));
#912=DIRECTION('center_axis',(-1.,0.,0.));
#913=DIRECTION('ref_axis',(0.,0.,1.));
#914=DIRECTION('',(0.,0.,1.));
#915=DIRECTION('',(0.,0.,1.));
#916=DIRECTION('',(0.,-1.,0.));
#917=DIRECTION('center_axis',(0.,-1.,0.));
#918=DIRECTION('ref_axis',(-1.,0.,0.));
#919=DIRECTION('center_axis',(0.,-1.,0.));
#920=DIRECTION('ref_axis',(-1.,0.,0.));
#921=DIRECTION('',(0.,-1.,0.));
#922=DIRECTION('center_axis',(0.,1.,0.));
#923=DIRECTION('ref_axis',(-1.,0.,0.));
#924=DIRECTION('center_axis',(0.,-1.,0.));
#925=DIRECTION('ref_axis',(-1.,0.,0.));
#926=DIRECTION('center_axis',(0.,-1.,0.));
#927=DIRECTION('ref_axis',(-1.,0.,0.));
#928=DIRECTION('',(0.,-1.,0.));
#929=DIRECTION('center_axis',(0.,1.,0.));
#930=DIRECTION('ref_axis',(-1.,0.,0.));
#931=DIRECTION('center_axis',(0.,-1.,0.));
#932=DIRECTION('ref_axis',(-1.,0.,0.));
#933=DIRECTION('center_axis',(0.,-1.,0.));
#934=DIRECTION('ref_axis',(-1.,0.,0.));
#935=DIRECTION('',(0.,-1.,0.));
#936=DIRECTION('center_axis',(0.,1.,0.));
#937=DIRECTION('ref_axis',(-1.,0.,0.));
#938=DIRECTION('center_axis',(0.,1.,0.));
#939=DIRECTION('ref_axis',(-0.623945805984097,0.,-0.781467613657057));
#940=DIRECTION('',(0.,-1.,0.));
#941=DIRECTION('center_axis',(0.,-1.,0.));
#942=DIRECTION('ref_axis',(-0.623945805984097,0.,-0.781467613657057));
#943=DIRECTION('',(0.,-1.,0.));
#944=DIRECTION('center_axis',(-1.,0.,0.));
#945=DIRECTION('ref_axis',(0.,0.,-1.));
#946=DIRECTION('',(0.,0.,1.));
#947=DIRECTION('',(0.,0.,-1.));
#948=DIRECTION('',(0.,-1.,0.));
#949=DIRECTION('center_axis',(0.,1.,0.));
#950=DIRECTION('ref_axis',(0.623945805971531,0.,0.781467613667091));
#951=DIRECTION('center_axis',(0.,-1.,0.));
#952=DIRECTION('ref_axis',(0.623945805971531,0.,0.781467613667091));
#953=DIRECTION('',(0.,-1.,0.));
#954=DIRECTION('center_axis',(-0.00125336903604254,0.,0.999999214532721));
#955=DIRECTION('ref_axis',(-0.999999214532721,0.,-0.00125336903604254));
#956=DIRECTION('',(0.999999214532721,0.,0.00125336903604254));
#957=DIRECTION('',(-0.999999214532721,0.,-0.00125336903604254));
#958=DIRECTION('',(0.,-1.,0.));
#959=DIRECTION('center_axis',(-0.65214820610566,0.,0.758091496636896));
#960=DIRECTION('ref_axis',(-0.758091496636896,0.,-0.65214820610566));
#961=DIRECTION('',(0.758091496636896,0.,0.65214820610566));
#962=DIRECTION('',(-0.758091496636896,0.,-0.65214820610566));
#963=DIRECTION('',(0.,-1.,0.));
#964=DIRECTION('center_axis',(-0.00125336903603991,0.,0.999999214532721));
#965=DIRECTION('ref_axis',(-0.999999214532721,0.,-0.00125336903603991));
#966=DIRECTION('',(0.999999214532721,0.,0.00125336903603991));
#967=DIRECTION('',(-0.999999214532721,0.,-0.00125336903603991));
#968=DIRECTION('',(0.,-1.,0.));
#969=DIRECTION('center_axis',(0.657747344088935,0.,0.75323862841994));
#970=DIRECTION('ref_axis',(-0.75323862841994,0.,0.657747344088935));
#971=DIRECTION('',(0.75323862841994,0.,-0.657747344088935));
#972=DIRECTION('',(-0.75323862841994,0.,0.657747344088935));
#973=DIRECTION('',(0.,-1.,0.));
#974=DIRECTION('center_axis',(-0.00125336903603895,0.,0.999999214532721));
#975=DIRECTION('ref_axis',(-0.999999214532721,0.,-0.00125336903603895));
#976=DIRECTION('',(0.999999214532721,0.,0.00125336903603895));
#977=DIRECTION('',(-0.999999214532721,0.,-0.00125336903603895));
#978=DIRECTION('',(0.,-1.,0.));
#979=DIRECTION('center_axis',(0.,1.,0.));
#980=DIRECTION('ref_axis',(0.623945805984091,0.,0.781467613657062));
#981=DIRECTION('center_axis',(0.,-1.,0.));
#982=DIRECTION('ref_axis',(0.623945805984091,0.,0.781467613657062));
#983=DIRECTION('',(0.,-1.,0.));
#984=DIRECTION('center_axis',(1.,0.,0.));
#985=DIRECTION('ref_axis',(0.,0.,1.));
#986=DIRECTION('',(0.,0.,-1.));
#987=DIRECTION('',(0.,0.,1.));
#988=DIRECTION('',(0.,-1.,0.));
#989=DIRECTION('center_axis',(0.,1.,0.));
#990=DIRECTION('ref_axis',(-0.62394580597153,0.,-0.781467613667091));
#991=DIRECTION('center_axis',(0.,-1.,0.));
#992=DIRECTION('ref_axis',(-0.62394580597153,0.,-0.781467613667091));
#993=DIRECTION('',(0.,-1.,0.));
#994=DIRECTION('center_axis',(0.00125336903604254,0.,-0.999999214532721));
#995=DIRECTION('ref_axis',(0.999999214532721,0.,0.00125336903604254));
#996=DIRECTION('',(-0.999999214532721,0.,-0.00125336903604254));
#997=DIRECTION('',(0.999999214532721,0.,0.00125336903604254));
#998=DIRECTION('center_axis',(0.,-1.,0.));
#999=DIRECTION('ref_axis',(-1.,0.,0.));
#1000=DIRECTION('center_axis',(0.,-1.,0.));
#1001=DIRECTION('ref_axis',(-1.,0.,0.));
#1002=DIRECTION('',(0.,-1.,0.));
#1003=DIRECTION('center_axis',(0.,1.,0.));
#1004=DIRECTION('ref_axis',(-1.,0.,0.));
#1005=DIRECTION('center_axis',(0.,0.,-1.));
#1006=DIRECTION('ref_axis',(-1.,0.,0.));
#1007=DIRECTION('',(1.,0.,0.));
#1008=DIRECTION('',(-1.,0.,0.));
#1009=DIRECTION('',(0.,1.,0.));
#1010=DIRECTION('center_axis',(1.,0.,0.));
#1011=DIRECTION('ref_axis',(0.,0.,-1.));
#1012=DIRECTION('',(0.,0.,1.));
#1013=DIRECTION('',(0.,0.,1.));
#1014=DIRECTION('center_axis',(0.,1.,0.));
#1015=DIRECTION('ref_axis',(0.,0.,1.));
#1016=DIRECTION('center_axis',(0.,1.,0.));
#1017=DIRECTION('ref_axis',(1.,0.,0.));
#1018=DIRECTION('',(0.,0.,1.));
#1019=DIRECTION('',(1.,0.,0.));
#1020=DIRECTION('',(0.,0.,1.));
#1021=DIRECTION('',(1.,0.,0.));
#1022=DIRECTION('center_axis',(0.,0.,1.));
#1023=DIRECTION('ref_axis',(1.,0.,0.));
#1024=CARTESIAN_POINT('',(0.,0.,0.));
#1025=CARTESIAN_POINT('',(0.,0.,0.));
#1026=CARTESIAN_POINT('',(0.,0.,0.));
#1027=CARTESIAN_POINT('',(0.,0.,0.));
#1028=CARTESIAN_POINT('Origin',(-191.853243593989,84.0733782030057,147.));
#1029=CARTESIAN_POINT('',(-191.853243593989,84.0733782030057,147.));
#1030=CARTESIAN_POINT('',(-161.442719099992,99.2786404500042,147.));
#1031=CARTESIAN_POINT('',(-191.853243593989,84.0733782030057,147.));
#1032=CARTESIAN_POINT('',(-162.784359886491,101.961922023004,147.));
#1033=CARTESIAN_POINT('',(-161.442719099992,99.2786404500042,147.));
#1034=CARTESIAN_POINT('',(-193.194884380489,86.7566597760054,147.));
#1035=CARTESIAN_POINT('',(-193.194884380489,86.7566597760054,147.));
#1036=CARTESIAN_POINT('',(-191.853243593989,84.0733782030057,147.));
#1037=CARTESIAN_POINT('Origin',(-191.853243593989,84.0733782030057,-145.));
#1038=CARTESIAN_POINT('',(-191.853243593989,84.0733782030057,-145.));
#1039=CARTESIAN_POINT('',(-191.853243593989,84.0733782030057,-145.));
#1040=CARTESIAN_POINT('',(-193.194884380489,86.7566597760054,-145.));
#1041=CARTESIAN_POINT('',(-193.194884380489,86.7566597760054,-145.));
#1042=CARTESIAN_POINT('',(-191.853243593989,84.0733782030057,-145.));
#1043=CARTESIAN_POINT('Origin',(-161.442719099992,99.2786404500042,-145.));
#1044=CARTESIAN_POINT('',(-161.442719099992,99.2786404500042,-145.));
#1045=CARTESIAN_POINT('',(-161.442719099992,99.2786404500042,-145.));
#1046=CARTESIAN_POINT('',(-162.784359886491,101.961922023004,-145.));
#1047=CARTESIAN_POINT('',(-162.784359886491,101.961922023004,-145.));
#1048=CARTESIAN_POINT('',(-161.442719099992,99.2786404500042,-145.));
#1049=CARTESIAN_POINT('Origin',(-161.442719099992,99.2786404500042,145.));
#1050=CARTESIAN_POINT('',(-161.442719099992,99.2786404500042,145.));
#1051=CARTESIAN_POINT('',(-162.784359886491,101.961922023004,145.));
#1052=CARTESIAN_POINT('Origin',(-177.98962213349,94.3592908995048,0.));
#1053=CARTESIAN_POINT('Origin',(-176.64798134699,91.676009326505,0.));
#1054=CARTESIAN_POINT('Origin',(142.,100.,147.));
#1055=CARTESIAN_POINT('',(142.,100.,147.));
#1056=CARTESIAN_POINT('',(190.299068313996,75.8504658430023,147.));
#1057=CARTESIAN_POINT('',(190.299068313996,75.8504658430023,147.));
#1058=CARTESIAN_POINT('',(191.640709100495,78.533747416002,147.));
#1059=CARTESIAN_POINT('',(190.299068313996,75.8504658430023,147.));
#1060=CARTESIAN_POINT('',(143.3416407865,102.683281573,147.));
#1061=CARTESIAN_POINT('',(191.640709100495,78.533747416002,147.));
#1062=CARTESIAN_POINT('',(142.,100.,147.));
#1063=CARTESIAN_POINT('Origin',(142.,100.,-145.));
#1064=CARTESIAN_POINT('',(142.,100.,-145.));
#1065=CARTESIAN_POINT('',(142.,100.,145.));
#1066=CARTESIAN_POINT('',(143.3416407865,102.683281573,-145.));
#1067=CARTESIAN_POINT('',(143.3416407865,102.683281573,145.));
#1068=CARTESIAN_POINT('',(142.,100.,-145.));
#1069=CARTESIAN_POINT('Origin',(190.299068313996,75.8504658430023,-145.));
#1070=CARTESIAN_POINT('',(190.299068313996,75.8504658430023,-145.));
#1071=CARTESIAN_POINT('',(142.,100.,-145.));
#1072=CARTESIAN_POINT('',(191.640709100495,78.533747416002,-145.));
#1073=CARTESIAN_POINT('',(143.3416407865,102.683281573,-145.));
#1074=CARTESIAN_POINT('',(190.299068313996,75.8504658430023,-145.));
#1075=CARTESIAN_POINT('Origin',(190.299068313996,75.8504658430023,145.));
#1076=CARTESIAN_POINT('',(190.299068313996,75.8504658430023,-145.));
#1077=CARTESIAN_POINT('',(191.640709100495,78.533747416002,145.));
#1078=CARTESIAN_POINT('Origin',(167.491174943498,90.6085144945009,-3.5527136788005E-14));
#1079=CARTESIAN_POINT('Origin',(166.149534156998,87.9252329215014,-3.55271367880043E-14));
#1080=CARTESIAN_POINT('',(0.,0.,0.));
#1081=CARTESIAN_POINT('Origin',(110.,103.,-118.999999985099));
#1082=CARTESIAN_POINT('',(110.,100.,121.000000014901));
#1083=CARTESIAN_POINT('',(110.,100.,-118.999999985099));
#1084=CARTESIAN_POINT('',(110.,100.,-59.4999999925494));
#1085=CARTESIAN_POINT('',(110.,103.,121.000000014901));
#1086=CARTESIAN_POINT('',(110.,103.,121.000000014901));
#1087=CARTESIAN_POINT('',(110.,103.,-118.999999985099));
#1088=CARTESIAN_POINT('',(110.,103.,-59.4999999925494));
#1089=CARTESIAN_POINT('',(110.,103.,-118.999999985099));
#1090=CARTESIAN_POINT('Origin',(-110.,103.,-118.999999985099));
#1091=CARTESIAN_POINT('',(-110.,100.,-118.999999985099));
#1092=CARTESIAN_POINT('',(-59.5000000670552,100.,-118.999999985099));
#1093=CARTESIAN_POINT('',(-110.,103.,-118.999999985099));
#1094=CARTESIAN_POINT('',(-59.5000000670552,103.,-118.999999985099));
#1095=CARTESIAN_POINT('',(-110.,103.,-118.999999985099));
#1096=CARTESIAN_POINT('Origin',(-110.,103.,121.000000014901));
#1097=CARTESIAN_POINT('',(-110.,100.,121.000000014901));
#1098=CARTESIAN_POINT('',(-110.,100.,60.5000000074506));
#1099=CARTESIAN_POINT('',(-110.,103.,121.000000014901));
#1100=CARTESIAN_POINT('',(-110.,103.,60.5000000074506));
#1101=CARTESIAN_POINT('',(-110.,103.,121.000000014901));
#1102=CARTESIAN_POINT('Origin',(110.,103.,121.000000014901));
#1103=CARTESIAN_POINT('',(50.4999999329448,100.,121.000000014901));
#1104=CARTESIAN_POINT('',(50.4999999329448,103.,121.000000014901));
#1105=CARTESIAN_POINT('Origin',(-160.000002384186,100.,147.000002160668));
#1106=CARTESIAN_POINT('',(-162.000002384186,100.,147.000002160668));
#1107=CARTESIAN_POINT('',(142.000002115965,100.,147.000002160668));
#1108=CARTESIAN_POINT('',(142.000002115965,100.,147.000002160668));
#1109=CARTESIAN_POINT('',(142.000002115965,103.,147.000002160668));
#1110=CARTESIAN_POINT('',(142.000002115965,100.,147.000002160668));
#1111=CARTESIAN_POINT('',(-162.000002384186,103.,147.000002160668));
#1112=CARTESIAN_POINT('',(-160.000002384186,103.,147.000002160668));
#1113=CARTESIAN_POINT('',(-162.000002384186,100.,147.000002160668));
#1114=CARTESIAN_POINT('Origin',(-162.000002384186,100.,-145.000002160668));
#1115=CARTESIAN_POINT('',(-162.000002384186,100.,-145.000002160668));
#1116=CARTESIAN_POINT('',(-162.000002384186,100.,145.000002160668));
#1117=CARTESIAN_POINT('',(-162.000002384186,103.,-145.000002160668));
#1118=CARTESIAN_POINT('',(-162.000002384186,103.,145.000002160668));
#1119=CARTESIAN_POINT('',(-162.000002384186,100.,-145.000002160668));
#1120=CARTESIAN_POINT('Origin',(-125.439945368959,103.,38.4398176405879));
#1121=CARTESIAN_POINT('',(-123.939947489723,103.,38.4398176405879));
#1122=CARTESIAN_POINT('Origin',(-125.439945368959,103.,38.4398176405879));
#1123=CARTESIAN_POINT('',(-123.939947489723,100.,38.4398176405879));
#1124=CARTESIAN_POINT('',(-123.939947489723,103.,38.4398176405879));
#1125=CARTESIAN_POINT('Origin',(-125.439945368959,100.,38.4398176405879));
#1126=CARTESIAN_POINT('Origin',(-156.139853303997,103.,38.4013392963494));
#1127=CARTESIAN_POINT('',(-154.639855424761,103.,38.4013392963494));
#1128=CARTESIAN_POINT('Origin',(-156.139853303997,103.,38.4013392963494));
#1129=CARTESIAN_POINT('',(-154.639855424761,100.,38.4013392963494));
#1130=CARTESIAN_POINT('',(-154.639855424761,103.,38.4013392963494));
#1131=CARTESIAN_POINT('Origin',(-156.139853303997,100.,38.4013392963494));
#1132=CARTESIAN_POINT('Origin',(-156.046116526163,103.,-36.5984957560266));
#1133=CARTESIAN_POINT('',(-154.546118646928,103.,-36.5984957560266));
#1134=CARTESIAN_POINT('Origin',(-156.046116526163,103.,-36.5984957560266));
#1135=CARTESIAN_POINT('',(-154.546118646928,100.,-36.5984957560266));
#1136=CARTESIAN_POINT('',(-154.546118646928,103.,-36.5984957560266));
#1137=CARTESIAN_POINT('Origin',(-156.046116526163,100.,-36.5984957560266));
#1138=CARTESIAN_POINT('Ctrl Pts',(-153.631267739215,103.,-34.2240739540929));
#1139=CARTESIAN_POINT('Ctrl Pts',(-153.616983006838,103.,-34.5094314072308));
#1140=CARTESIAN_POINT('Ctrl Pts',(-153.331268638872,103.,-34.5090733014076));
#1141=CARTESIAN_POINT('Ctrl Pts',(-153.631267739215,100.,-34.2240739540929));
#1142=CARTESIAN_POINT('Ctrl Pts',(-153.616983006838,100.,-34.5094314072308));
#1143=CARTESIAN_POINT('Ctrl Pts',(-153.331268638872,100.,-34.5090733014076));
#1144=CARTESIAN_POINT('',(-153.331268638872,100.,-34.5090733014076));
#1145=CARTESIAN_POINT('',(-153.631267739215,100.,-34.2240739540929));
#1146=CARTESIAN_POINT('Origin',(-153.331643585984,100.,-34.2090739611981));
#1147=CARTESIAN_POINT('',(-153.331268638872,103.,-34.5090733014076));
#1148=CARTESIAN_POINT('',(-153.331268638872,103.,-34.5090733014076));
#1149=CARTESIAN_POINT('',(-153.631267739215,103.,-34.2240739540929));
#1150=CARTESIAN_POINT('Origin',(-153.331643585984,103.,-34.2090739611981));
#1151=CARTESIAN_POINT('',(-153.631267739215,103.,-34.2240739540929));
#1152=CARTESIAN_POINT('Origin',(-153.631267739215,103.,36.9040151262254));
#1153=CARTESIAN_POINT('',(-153.631267739215,100.,36.9040151262254));
#1154=CARTESIAN_POINT('',(-153.631267739215,100.,18.4520075631127));
#1155=CARTESIAN_POINT('',(-153.631267739215,103.,36.9040151262254));
#1156=CARTESIAN_POINT('',(-153.631267739215,103.,18.4520075631127));
#1157=CARTESIAN_POINT('',(-153.631267739215,103.,36.9040151262254));
#1158=CARTESIAN_POINT('Ctrl Pts',(-153.42063103374,103.,36.9907694485242));
#1159=CARTESIAN_POINT('Ctrl Pts',(-153.543751297555,103.,36.9906151332766));
#1160=CARTESIAN_POINT('Ctrl Pts',(-153.631267739215,103.,36.9040151262254));
#1161=CARTESIAN_POINT('Ctrl Pts',(-153.42063103374,100.,36.9907694485242));
#1162=CARTESIAN_POINT('Ctrl Pts',(-153.543751297555,100.,36.9906151332766));
#1163=CARTESIAN_POINT('Ctrl Pts',(-153.631267739215,100.,36.9040151262254));
#1164=CARTESIAN_POINT('',(-153.42063103374,100.,36.9907694485242));
#1165=CARTESIAN_POINT('Origin',(-153.420256086629,100.,36.6907701083147));
#1166=CARTESIAN_POINT('',(-153.42063103374,103.,36.9907694485242));
#1167=CARTESIAN_POINT('Origin',(-153.420256086629,103.,36.6907701083147));
#1168=CARTESIAN_POINT('',(-153.42063103374,103.,36.9907694485242));
#1169=CARTESIAN_POINT('Origin',(-146.937568276513,103.,36.9988951250253));
#1170=CARTESIAN_POINT('',(-146.937568276513,100.,36.9988951250253));
#1171=CARTESIAN_POINT('',(-77.9920791672619,100.,37.0853093341252));
#1172=CARTESIAN_POINT('',(-146.937568276513,103.,36.9988951250253));
#1173=CARTESIAN_POINT('',(-77.9920791672619,103.,37.0853093341252));
#1174=CARTESIAN_POINT('',(-146.937568276513,103.,36.9988951250253));
#1175=CARTESIAN_POINT('Origin',(-143.90262659686,103.,39.6097036894292));
#1176=CARTESIAN_POINT('',(-143.90262659686,100.,39.6097036894292));
#1177=CARTESIAN_POINT('',(-114.929454882991,100.,64.5338745081405));
#1178=CARTESIAN_POINT('',(-143.90262659686,103.,39.6097036894292));
#1179=CARTESIAN_POINT('',(-114.929454882991,103.,64.5338745081405));
#1180=CARTESIAN_POINT('',(-143.90262659686,103.,39.6097036894292));
#1181=CARTESIAN_POINT('Origin',(-138.902641591153,103.,39.6159705207384));
#1182=CARTESIAN_POINT('',(-138.902641591153,100.,39.6159705207384));
#1183=CARTESIAN_POINT('',(-73.976249592757,100.,39.6973473140098));
#1184=CARTESIAN_POINT('',(-138.902641591153,103.,39.6159705207384));
#1185=CARTESIAN_POINT('',(-73.976249592757,103.,39.6973473140098));
#1186=CARTESIAN_POINT('',(-138.902641591153,103.,39.6159705207384));
#1187=CARTESIAN_POINT('Origin',(-135.921432906534,103.,37.01270241884));
#1188=CARTESIAN_POINT('',(-135.921432906534,100.,37.01270241884));
#1189=CARTESIAN_POINT('',(-90.7470260656324,100.,-2.434751547674));
#1190=CARTESIAN_POINT('',(-135.921432906534,103.,37.01270241884));
#1191=CARTESIAN_POINT('',(-90.7470260656324,103.,-2.434751547674));
#1192=CARTESIAN_POINT('',(-135.921432906534,103.,37.01270241884));
#1193=CARTESIAN_POINT('Origin',(-129.520702706463,103.,37.0207249021822));
#1194=CARTESIAN_POINT('',(-129.520702706463,100.,37.0207249021822));
#1195=CARTESIAN_POINT('',(-69.2836463822368,100.,37.0962242227034));
#1196=CARTESIAN_POINT('',(-129.520702706463,103.,37.0207249021822));
#1197=CARTESIAN_POINT('',(-69.2836463822368,103.,37.0962242227034));
#1198=CARTESIAN_POINT('',(-129.520702706463,103.,37.0207249021822));
#1199=CARTESIAN_POINT('Ctrl Pts',(-129.220703606121,103.,36.7357255548689));
#1200=CARTESIAN_POINT('Ctrl Pts',(-129.234988338499,103.,37.0210830080055));
#1201=CARTESIAN_POINT('Ctrl Pts',(-129.520702706463,103.,37.0207249021822));
#1202=CARTESIAN_POINT('Ctrl Pts',(-129.220703606121,100.,36.7357255548689));
#1203=CARTESIAN_POINT('Ctrl Pts',(-129.234988338499,100.,37.0210830080055));
#1204=CARTESIAN_POINT('Ctrl Pts',(-129.520702706463,100.,37.0207249021822));
#1205=CARTESIAN_POINT('',(-129.220703606121,100.,36.7357255548689));
#1206=CARTESIAN_POINT('Origin',(-129.520327759352,100.,36.7207255619727));
#1207=CARTESIAN_POINT('',(-129.220703606121,103.,36.7357255548689));
#1208=CARTESIAN_POINT('Origin',(-129.520327759352,103.,36.7207255619727));
#1209=CARTESIAN_POINT('',(-129.220703606121,103.,36.7357255548689));
#1210=CARTESIAN_POINT('Origin',(-129.220703606121,103.,-34.3923635254508));
#1211=CARTESIAN_POINT('',(-129.220703606121,100.,-34.3923635254508));
#1212=CARTESIAN_POINT('',(-129.220703606121,100.,-17.1961817627254));
#1213=CARTESIAN_POINT('',(-129.220703606121,103.,-34.3923635254508));
#1214=CARTESIAN_POINT('',(-129.220703606121,103.,-17.1961817627254));
#1215=CARTESIAN_POINT('',(-129.220703606121,103.,-34.3923635254508));
#1216=CARTESIAN_POINT('Ctrl Pts',(-129.431340311595,103.,-34.4791178477496));
#1217=CARTESIAN_POINT('Ctrl Pts',(-129.30822004778,103.,-34.478963532502));
#1218=CARTESIAN_POINT('Ctrl Pts',(-129.220703606121,103.,-34.3923635254508));
#1219=CARTESIAN_POINT('Ctrl Pts',(-129.431340311595,100.,-34.4791178477496));
#1220=CARTESIAN_POINT('Ctrl Pts',(-129.30822004778,100.,-34.478963532502));
#1221=CARTESIAN_POINT('Ctrl Pts',(-129.220703606121,100.,-34.3923635254508));
#1222=CARTESIAN_POINT('',(-129.431340311595,100.,-34.4791178477496));
#1223=CARTESIAN_POINT('Origin',(-129.431715258706,100.,-34.1791185075401));
#1224=CARTESIAN_POINT('',(-129.431340311595,103.,-34.4791178477496));
#1225=CARTESIAN_POINT('Origin',(-129.431715258706,103.,-34.1791185075401));
#1226=CARTESIAN_POINT('',(-129.431340311595,103.,-34.4791178477496));
#1227=CARTESIAN_POINT('Origin',(-153.331268638872,103.,-34.5090733014077));
#1228=CARTESIAN_POINT('',(-81.1441214689531,100.,-34.4185960952778));
#1229=CARTESIAN_POINT('',(-81.1441214689531,103.,-34.4185960952778));
#1230=CARTESIAN_POINT('Origin',(-125.346208591125,103.,-36.5600174117881));
#1231=CARTESIAN_POINT('',(-123.84621071189,103.,-36.5600174117881));
#1232=CARTESIAN_POINT('Origin',(-125.346208591125,103.,-36.5600174117881));
#1233=CARTESIAN_POINT('',(-123.84621071189,100.,-36.5600174117881));
#1234=CARTESIAN_POINT('',(-123.84621071189,103.,-36.5600174117881));
#1235=CARTESIAN_POINT('Origin',(-125.346208591125,100.,-36.5600174117881));
#1236=CARTESIAN_POINT('Origin',(142.000002115965,100.,-145.000002160668));
#1237=CARTESIAN_POINT('',(142.000002115965,100.,-145.000002160668));
#1238=CARTESIAN_POINT('',(-160.000002384186,100.,-145.000002160668));
#1239=CARTESIAN_POINT('',(142.000002115965,103.,-145.000002160668));
#1240=CARTESIAN_POINT('',(-160.000002384186,103.,-145.000002160668));
#1241=CARTESIAN_POINT('',(142.000002115965,100.,-145.000002160668));
#1242=CARTESIAN_POINT('Origin',(142.000002115965,100.,145.000002160668));
#1243=CARTESIAN_POINT('',(142.000002115965,100.,145.000002160668));
#1244=CARTESIAN_POINT('',(142.000002115965,103.,145.000002160668));
#1245=CARTESIAN_POINT('Origin',(-9.00000013411045,103.,0.));
#1246=CARTESIAN_POINT('Origin',(-9.00000013411045,100.,0.));
#1247=CARTESIAN_POINT('',(0.,0.,0.));
#1248=CARTESIAN_POINT('',(0.,0.,0.));
#1249=CARTESIAN_POINT('Origin',(0.,0.,0.));
#1250=UNCERTAINTY_MEASURE_WITH_UNIT(LENGTH_MEASURE(0.01),#1260,
'DISTANCE_ACCURACY_VALUE',
'Maximum model space distance between geometric entities at asserted c
onnectivities');
#1251=UNCERTAINTY_MEASURE_WITH_UNIT(LENGTH_MEASURE(0.01),#1260,
'DISTANCE_ACCURACY_VALUE',
'Maximum model space distance between geometric entities at asserted c
onnectivities');
#1252=UNCERTAINTY_MEASURE_WITH_UNIT(LENGTH_MEASURE(0.01),#1260,
'DISTANCE_ACCURACY_VALUE',
'Maximum model space distance between geometric entities at asserted c
onnectivities');
#1253=UNCERTAINTY_MEASURE_WITH_UNIT(LENGTH_MEASURE(0.01),#1260,
'DISTANCE_ACCURACY_VALUE',
'Maximum model space distance between geometric entities at asserted c
onnectivities');
#1254=UNCERTAINTY_MEASURE_WITH_UNIT(LENGTH_MEASURE(0.01),#1260,
'DISTANCE_ACCURACY_VALUE',
'Maximum model space distance between geometric entities at asserted c
onnectivities');
#1255=(
GEOMETRIC_REPRESENTATION_CONTEXT(3)
GLOBAL_UNCERTAINTY_ASSIGNED_CONTEXT((#1250))
GLOBAL_UNIT_ASSIGNED_CONTEXT((#1260,#1262,#1263))
REPRESENTATION_CONTEXT('','3D')
);
#1256=(
GEOMETRIC_REPRESENTATION_CONTEXT(3)
GLOBAL_UNCERTAINTY_ASSIGNED_CONTEXT((#1251))
GLOBAL_UNIT_ASSIGNED_CONTEXT((#1260,#1262,#1263))
REPRESENTATION_CONTEXT('','3D')
);
#1257=(
GEOMETRIC_REPRESENTATION_CONTEXT(3)
GLOBAL_UNCERTAINTY_ASSIGNED_CONTEXT((#1252))
GLOBAL_UNIT_ASSIGNED_CONTEXT((#1260,#1262,#1263))
REPRESENTATION_CONTEXT('','3D')
);
#1258=(
GEOMETRIC_REPRESENTATION_CONTEXT(3)
GLOBAL_UNCERTAINTY_ASSIGNED_CONTEXT((#1253))
GLOBAL_UNIT_ASSIGNED_CONTEXT((#1260,#1262,#1263))
REPRESENTATION_CONTEXT('','3D')
);
#1259=(
GEOMETRIC_REPRESENTATION_CONTEXT(3)
GLOBAL_UNCERTAINTY_ASSIGNED_CONTEXT((#1254))
GLOBAL_UNIT_ASSIGNED_CONTEXT((#1260,#1262,#1263))
REPRESENTATION_CONTEXT('','3D')
);
#1260=(
LENGTH_UNIT()
NAMED_UNIT(*)
SI_UNIT(.MILLI.,.METRE.)
);
#1261=(
LENGTH_UNIT()
NAMED_UNIT(*)
SI_UNIT($,.METRE.)
);
#1262=(
NAMED_UNIT(*)
PLANE_ANGLE_UNIT()
SI_UNIT($,.RADIAN.)
);
#1263=(
NAMED_UNIT(*)
SI_UNIT($,.STERADIAN.)
SOLID_ANGLE_UNIT()
);
#1264=SHAPE_DEFINITION_REPRESENTATION(#1268,#1275);
#1265=SHAPE_DEFINITION_REPRESENTATION(#1269,#1276);
#1266=SHAPE_DEFINITION_REPRESENTATION(#1270,#1277);
#1267=SHAPE_DEFINITION_REPRESENTATION(#1271,#1278);
#1268=PRODUCT_DEFINITION_SHAPE('',$,#1280);
#1269=PRODUCT_DEFINITION_SHAPE('',$,#1281);
#1270=PRODUCT_DEFINITION_SHAPE('',$,#1282);
#1271=PRODUCT_DEFINITION_SHAPE('',$,#1283);
#1272=PRODUCT_DEFINITION_SHAPE($,$,#60);
#1273=PRODUCT_DEFINITION_SHAPE($,$,#61);
#1274=PRODUCT_DEFINITION_SHAPE($,$,#62);
#1275=SHAPE_REPRESENTATION('',(#770,#825,#826),#1255);
#1276=SHAPE_REPRESENTATION('',(#771),#1256);
#1277=SHAPE_REPRESENTATION('',(#772,#786),#1257);
#1278=SHAPE_REPRESENTATION('',(#773),#1258);
#1279=PRODUCT_DEFINITION_CONTEXT('part definition',#1293,'design');
#1280=PRODUCT_DEFINITION('2026-05-29-16-22-00-499','tampa',#1284,#1279);
#1281=PRODUCT_DEFINITION('2026-05-29-16-22-00-500',
'Frontal_Traseira_Tampa',#1285,#1279);
#1282=PRODUCT_DEFINITION('2026-05-29-16-22-00-501',
'Fronta_Traseira_Tampa',#1286,#1279);
#1283=PRODUCT_DEFINITION('2026-05-29-16-22-00-501_1','Fronta_Tampa',#1287,
#1279);
#1284=PRODUCT_DEFINITION_FORMATION('',$,#1295);
#1285=PRODUCT_DEFINITION_FORMATION('',$,#1296);
#1286=PRODUCT_DEFINITION_FORMATION('',$,#1297);
#1287=PRODUCT_DEFINITION_FORMATION('',$,#1298);
#1288=PRODUCT_RELATED_PRODUCT_CATEGORY('tampa','tampa',(#1295));
#1289=PRODUCT_RELATED_PRODUCT_CATEGORY('Frontal_Traseira_Tampa',
'Frontal_Traseira_Tampa',(#1296));
#1290=PRODUCT_RELATED_PRODUCT_CATEGORY('Fronta_Traseira_Tampa',
'Fronta_Traseira_Tampa',(#1297));
#1291=PRODUCT_RELATED_PRODUCT_CATEGORY('Fronta_Tampa','Fronta_Tampa',(#1298));
#1292=APPLICATION_PROTOCOL_DEFINITION('international standard',
'automotive_design',2009,#1293);
#1293=APPLICATION_CONTEXT(
'Core Data for Automotive Mechanical Design Process');
#1294=PRODUCT_CONTEXT('part definition',#1293,'mechanical');
#1295=PRODUCT('2026-05-29-16-22-00-499','tampa',$,(#1294));
#1296=PRODUCT('2026-05-29-16-22-00-500','Frontal_Traseira_Tampa',$,(#1294));
#1297=PRODUCT('2026-05-29-16-22-00-501','Fronta_Traseira_Tampa',$,(#1294));
#1298=PRODUCT('2026-05-29-16-22-00-501_1','Fronta_Tampa',$,(#1294));
#1299=PRESENTATION_STYLE_ASSIGNMENT((#1301));
#1300=PRESENTATION_STYLE_ASSIGNMENT((NULL_STYLE(.NULL.)));
#1301=SURFACE_STYLE_USAGE(.BOTH.,#1302);
#1302=SURFACE_SIDE_STYLE('',(#1303));
#1303=SURFACE_STYLE_FILL_AREA(#1304);
#1304=FILL_AREA_STYLE('Placa de MDF',(#1305));
#1305=FILL_AREA_STYLE_COLOUR('Placa de MDF',#1306);
#1306=COLOUR_RGB('Placa de MDF',0.,0.,0.);
ENDSEC;
END-ISO-10303-21;
