ISO-10303-21;
HEADER;
/* Generated by software containing ST-Developer
 * from STEP Tools, Inc. (www.steptools.com) 
 */

FILE_DESCRIPTION(
/* description */ (''),
/* implementation_level */ '2;1');

FILE_NAME(
/* name */ 'Tampa_Funil (1).step',
/* time_stamp */ '2026-06-22T01:02:20-03:00',
/* author */ (''),
/* organization */ (''),
/* preprocessor_version */ 'ST-DEVELOPER v20.1',
/* originating_system */ 'Autodesk Translation Framework v15.8.0.0',
/* authorisation */ '');

FILE_SCHEMA (('AUTOMOTIVE_DESIGN { 1 0 10303 214 3 1 1 }'));
ENDSEC;

DATA;
#10=MECHANICAL_DESIGN_GEOMETRIC_PRESENTATION_REPRESENTATION('',(#13),#701);
#11=SHAPE_REPRESENTATION_RELATIONSHIP('SRR','None',#708,#12);
#12=ADVANCED_BREP_SHAPE_REPRESENTATION('',(#14),#700);
#13=STYLED_ITEM('',(#718),#14);
#14=MANIFOLD_SOLID_BREP('Corpo1',#413);
#15=FACE_BOUND('',#84,.T.);
#16=FACE_BOUND('',#85,.T.);
#17=FACE_BOUND('',#86,.T.);
#18=FACE_BOUND('',#87,.T.);
#19=FACE_BOUND('',#88,.T.);
#20=FACE_BOUND('',#89,.T.);
#21=FACE_BOUND('',#91,.T.);
#22=FACE_BOUND('',#92,.T.);
#23=FACE_BOUND('',#93,.T.);
#24=FACE_BOUND('',#94,.T.);
#25=FACE_BOUND('',#95,.T.);
#26=FACE_BOUND('',#96,.T.);
#27=B_SPLINE_SURFACE_WITH_KNOTS('',3,1,((#634,#635),(#636,#637),(#638,#639),
(#640,#641),(#642,#643),(#644,#645),(#646,#647)),.UNSPECIFIED.,.F.,.F.,
 .F.,(4,3,4),(2,2),(-0.633777308837881,-0.388885087897567,-0.0955362847813713),
(0.,0.600000000000079),.UNSPECIFIED.);
#28=B_SPLINE_SURFACE_WITH_KNOTS('',3,1,((#668,#669),(#670,#671),(#672,#673),
(#674,#675),(#676,#677),(#678,#679),(#680,#681)),.UNSPECIFIED.,.F.,.F.,
 .F.,(4,3,4),(2,2),(-0.633777308837577,-0.388885087897567,-0.095536284781368),
(0.,0.500000000000001),.UNSPECIFIED.);
#29=CIRCLE('',#432,1.25);
#30=CIRCLE('',#433,1.25);
#31=CIRCLE('',#435,1.25);
#32=CIRCLE('',#436,1.25);
#33=CIRCLE('',#438,1.25);
#34=CIRCLE('',#439,1.25);
#35=CIRCLE('',#445,1.25);
#36=CIRCLE('',#446,1.25);
#37=CIRCLE('',#447,8597.64515411252);
#38=CIRCLE('',#448,8597.64515411248);
#39=CIRCLE('',#451,8597.64515519895);
#40=CIRCLE('',#452,8597.64515519831);
#41=CYLINDRICAL_SURFACE('',#431,1.25);
#42=CYLINDRICAL_SURFACE('',#434,1.25);
#43=CYLINDRICAL_SURFACE('',#437,1.25);
#44=CYLINDRICAL_SURFACE('',#444,1.25);
#45=FACE_OUTER_BOUND('',#65,.T.);
#46=FACE_OUTER_BOUND('',#66,.T.);
#47=FACE_OUTER_BOUND('',#67,.T.);
#48=FACE_OUTER_BOUND('',#68,.T.);
#49=FACE_OUTER_BOUND('',#69,.T.);
#50=FACE_OUTER_BOUND('',#70,.T.);
#51=FACE_OUTER_BOUND('',#71,.T.);
#52=FACE_OUTER_BOUND('',#72,.T.);
#53=FACE_OUTER_BOUND('',#73,.T.);
#54=FACE_OUTER_BOUND('',#74,.T.);
#55=FACE_OUTER_BOUND('',#75,.T.);
#56=FACE_OUTER_BOUND('',#76,.T.);
#57=FACE_OUTER_BOUND('',#77,.T.);
#58=FACE_OUTER_BOUND('',#78,.T.);
#59=FACE_OUTER_BOUND('',#79,.T.);
#60=FACE_OUTER_BOUND('',#80,.T.);
#61=FACE_OUTER_BOUND('',#81,.T.);
#62=FACE_OUTER_BOUND('',#82,.T.);
#63=FACE_OUTER_BOUND('',#83,.T.);
#64=FACE_OUTER_BOUND('',#90,.T.);
#65=EDGE_LOOP('',(#271,#272,#273,#274));
#66=EDGE_LOOP('',(#275,#276,#277,#278));
#67=EDGE_LOOP('',(#279,#280,#281,#282));
#68=EDGE_LOOP('',(#283,#284,#285,#286));
#69=EDGE_LOOP('',(#287,#288,#289,#290));
#70=EDGE_LOOP('',(#291,#292,#293,#294));
#71=EDGE_LOOP('',(#295,#296,#297,#298));
#72=EDGE_LOOP('',(#299,#300,#301,#302));
#73=EDGE_LOOP('',(#303,#304,#305,#306));
#74=EDGE_LOOP('',(#307,#308,#309,#310));
#75=EDGE_LOOP('',(#311,#312,#313,#314));
#76=EDGE_LOOP('',(#315,#316,#317,#318));
#77=EDGE_LOOP('',(#319,#320,#321,#322));
#78=EDGE_LOOP('',(#323,#324,#325,#326));
#79=EDGE_LOOP('',(#327,#328,#329,#330));
#80=EDGE_LOOP('',(#331,#332,#333,#334));
#81=EDGE_LOOP('',(#335,#336,#337,#338));
#82=EDGE_LOOP('',(#339,#340,#341,#342));
#83=EDGE_LOOP('',(#343,#344,#345,#346,#347,#348));
#84=EDGE_LOOP('',(#349,#350,#351,#352));
#85=EDGE_LOOP('',(#353));
#86=EDGE_LOOP('',(#354,#355,#356,#357));
#87=EDGE_LOOP('',(#358));
#88=EDGE_LOOP('',(#359));
#89=EDGE_LOOP('',(#360));
#90=EDGE_LOOP('',(#361,#362,#363,#364,#365,#366));
#91=EDGE_LOOP('',(#367,#368,#369,#370));
#92=EDGE_LOOP('',(#371));
#93=EDGE_LOOP('',(#372,#373,#374,#375));
#94=EDGE_LOOP('',(#376));
#95=EDGE_LOOP('',(#377));
#96=EDGE_LOOP('',(#378));
#97=LINE('',#565,#139);
#98=LINE('',#567,#140);
#99=LINE('',#569,#141);
#100=LINE('',#570,#142);
#101=LINE('',#573,#143);
#102=LINE('',#575,#144);
#103=LINE('',#576,#145);
#104=LINE('',#579,#146);
#105=LINE('',#581,#147);
#106=LINE('',#582,#148);
#107=LINE('',#584,#149);
#108=LINE('',#585,#150);
#109=LINE('',#590,#151);
#110=LINE('',#596,#152);
#111=LINE('',#602,#153);
#112=LINE('',#607,#154);
#113=LINE('',#609,#155);
#114=LINE('',#611,#156);
#115=LINE('',#612,#157);
#116=LINE('',#615,#158);
#117=LINE('',#617,#159);
#118=LINE('',#618,#160);
#119=LINE('',#621,#161);
#120=LINE('',#623,#162);
#121=LINE('',#624,#163);
#122=LINE('',#626,#164);
#123=LINE('',#627,#165);
#124=LINE('',#632,#166);
#125=LINE('',#652,#167);
#126=LINE('',#655,#168);
#127=LINE('',#658,#169);
#128=LINE('',#660,#170);
#129=LINE('',#661,#171);
#130=LINE('',#664,#172);
#131=LINE('',#666,#173);
#132=LINE('',#667,#174);
#133=LINE('',#686,#175);
#134=LINE('',#689,#176);
#135=LINE('',#691,#177);
#136=LINE('',#692,#178);
#137=LINE('',#694,#179);
#138=LINE('',#695,#180);
#139=VECTOR('',#461,10.);
#140=VECTOR('',#462,10.);
#141=VECTOR('',#463,10.);
#142=VECTOR('',#464,10.);
#143=VECTOR('',#467,10.);
#144=VECTOR('',#468,10.);
#145=VECTOR('',#469,10.);
#146=VECTOR('',#472,10.);
#147=VECTOR('',#473,10.);
#148=VECTOR('',#474,10.);
#149=VECTOR('',#477,10.);
#150=VECTOR('',#478,10.);
#151=VECTOR('',#483,1.25);
#152=VECTOR('',#490,1.25);
#153=VECTOR('',#497,1.25);
#154=VECTOR('',#502,10.);
#155=VECTOR('',#503,10.);
#156=VECTOR('',#504,10.);
#157=VECTOR('',#505,10.);
#158=VECTOR('',#508,10.);
#159=VECTOR('',#509,10.);
#160=VECTOR('',#510,10.);
#161=VECTOR('',#513,10.);
#162=VECTOR('',#514,10.);
#163=VECTOR('',#515,10.);
#164=VECTOR('',#518,10.);
#165=VECTOR('',#519,10.);
#166=VECTOR('',#524,1.25);
#167=VECTOR('',#529,10.);
#168=VECTOR('',#532,10.);
#169=VECTOR('',#535,10.);
#170=VECTOR('',#536,10.);
#171=VECTOR('',#537,10.);
#172=VECTOR('',#540,10.);
#173=VECTOR('',#541,10.);
#174=VECTOR('',#542,10.);
#175=VECTOR('',#547,10.);
#176=VECTOR('',#550,10.);
#177=VECTOR('',#551,10.);
#178=VECTOR('',#552,10.);
#179=VECTOR('',#555,10.);
#180=VECTOR('',#556,10.);
#181=VERTEX_POINT('',#563);
#182=VERTEX_POINT('',#564);
#183=VERTEX_POINT('',#566);
#184=VERTEX_POINT('',#568);
#185=VERTEX_POINT('',#572);
#186=VERTEX_POINT('',#574);
#187=VERTEX_POINT('',#578);
#188=VERTEX_POINT('',#580);
#189=VERTEX_POINT('',#587);
#190=VERTEX_POINT('',#589);
#191=VERTEX_POINT('',#593);
#192=VERTEX_POINT('',#595);
#193=VERTEX_POINT('',#599);
#194=VERTEX_POINT('',#601);
#195=VERTEX_POINT('',#605);
#196=VERTEX_POINT('',#606);
#197=VERTEX_POINT('',#608);
#198=VERTEX_POINT('',#610);
#199=VERTEX_POINT('',#614);
#200=VERTEX_POINT('',#616);
#201=VERTEX_POINT('',#620);
#202=VERTEX_POINT('',#622);
#203=VERTEX_POINT('',#629);
#204=VERTEX_POINT('',#631);
#205=VERTEX_POINT('',#648);
#206=VERTEX_POINT('',#649);
#207=VERTEX_POINT('',#651);
#208=VERTEX_POINT('',#653);
#209=VERTEX_POINT('',#657);
#210=VERTEX_POINT('',#659);
#211=VERTEX_POINT('',#663);
#212=VERTEX_POINT('',#665);
#213=VERTEX_POINT('',#682);
#214=VERTEX_POINT('',#684);
#215=VERTEX_POINT('',#688);
#216=VERTEX_POINT('',#690);
#217=EDGE_CURVE('',#181,#182,#97,.T.);
#218=EDGE_CURVE('',#183,#181,#98,.T.);
#219=EDGE_CURVE('',#184,#183,#99,.T.);
#220=EDGE_CURVE('',#184,#182,#100,.T.);
#221=EDGE_CURVE('',#182,#185,#101,.T.);
#222=EDGE_CURVE('',#186,#184,#102,.T.);
#223=EDGE_CURVE('',#186,#185,#103,.T.);
#224=EDGE_CURVE('',#185,#187,#104,.T.);
#225=EDGE_CURVE('',#188,#186,#105,.T.);
#226=EDGE_CURVE('',#188,#187,#106,.T.);
#227=EDGE_CURVE('',#187,#181,#107,.T.);
#228=EDGE_CURVE('',#183,#188,#108,.T.);
#229=EDGE_CURVE('',#189,#189,#29,.T.);
#230=EDGE_CURVE('',#189,#190,#109,.T.);
#231=EDGE_CURVE('',#190,#190,#30,.T.);
#232=EDGE_CURVE('',#191,#191,#31,.T.);
#233=EDGE_CURVE('',#191,#192,#110,.T.);
#234=EDGE_CURVE('',#192,#192,#32,.T.);
#235=EDGE_CURVE('',#193,#193,#33,.T.);
#236=EDGE_CURVE('',#193,#194,#111,.T.);
#237=EDGE_CURVE('',#194,#194,#34,.T.);
#238=EDGE_CURVE('',#195,#196,#112,.T.);
#239=EDGE_CURVE('',#197,#195,#113,.T.);
#240=EDGE_CURVE('',#198,#197,#114,.T.);
#241=EDGE_CURVE('',#198,#196,#115,.T.);
#242=EDGE_CURVE('',#196,#199,#116,.T.);
#243=EDGE_CURVE('',#200,#198,#117,.T.);
#244=EDGE_CURVE('',#200,#199,#118,.T.);
#245=EDGE_CURVE('',#199,#201,#119,.T.);
#246=EDGE_CURVE('',#202,#200,#120,.T.);
#247=EDGE_CURVE('',#202,#201,#121,.T.);
#248=EDGE_CURVE('',#201,#195,#122,.T.);
#249=EDGE_CURVE('',#197,#202,#123,.T.);
#250=EDGE_CURVE('',#203,#203,#35,.T.);
#251=EDGE_CURVE('',#203,#204,#124,.T.);
#252=EDGE_CURVE('',#204,#204,#36,.T.);
#253=EDGE_CURVE('',#205,#206,#37,.T.);
#254=EDGE_CURVE('',#205,#207,#125,.T.);
#255=EDGE_CURVE('',#208,#207,#38,.T.);
#256=EDGE_CURVE('',#206,#208,#126,.T.);
#257=EDGE_CURVE('',#206,#209,#127,.T.);
#258=EDGE_CURVE('',#210,#208,#128,.T.);
#259=EDGE_CURVE('',#209,#210,#129,.T.);
#260=EDGE_CURVE('',#209,#211,#130,.T.);
#261=EDGE_CURVE('',#212,#210,#131,.T.);
#262=EDGE_CURVE('',#211,#212,#132,.T.);
#263=EDGE_CURVE('',#211,#213,#39,.T.);
#264=EDGE_CURVE('',#214,#212,#40,.T.);
#265=EDGE_CURVE('',#213,#214,#133,.T.);
#266=EDGE_CURVE('',#213,#215,#134,.T.);
#267=EDGE_CURVE('',#216,#214,#135,.T.);
#268=EDGE_CURVE('',#215,#216,#136,.T.);
#269=EDGE_CURVE('',#215,#205,#137,.T.);
#270=EDGE_CURVE('',#207,#216,#138,.T.);
#271=ORIENTED_EDGE('',*,*,#217,.F.);
#272=ORIENTED_EDGE('',*,*,#218,.F.);
#273=ORIENTED_EDGE('',*,*,#219,.F.);
#274=ORIENTED_EDGE('',*,*,#220,.T.);
#275=ORIENTED_EDGE('',*,*,#221,.F.);
#276=ORIENTED_EDGE('',*,*,#220,.F.);
#277=ORIENTED_EDGE('',*,*,#222,.F.);
#278=ORIENTED_EDGE('',*,*,#223,.T.);
#279=ORIENTED_EDGE('',*,*,#224,.F.);
#280=ORIENTED_EDGE('',*,*,#223,.F.);
#281=ORIENTED_EDGE('',*,*,#225,.F.);
#282=ORIENTED_EDGE('',*,*,#226,.T.);
#283=ORIENTED_EDGE('',*,*,#227,.F.);
#284=ORIENTED_EDGE('',*,*,#226,.F.);
#285=ORIENTED_EDGE('',*,*,#228,.F.);
#286=ORIENTED_EDGE('',*,*,#218,.T.);
#287=ORIENTED_EDGE('',*,*,#229,.F.);
#288=ORIENTED_EDGE('',*,*,#230,.T.);
#289=ORIENTED_EDGE('',*,*,#231,.F.);
#290=ORIENTED_EDGE('',*,*,#230,.F.);
#291=ORIENTED_EDGE('',*,*,#232,.F.);
#292=ORIENTED_EDGE('',*,*,#233,.T.);
#293=ORIENTED_EDGE('',*,*,#234,.F.);
#294=ORIENTED_EDGE('',*,*,#233,.F.);
#295=ORIENTED_EDGE('',*,*,#235,.F.);
#296=ORIENTED_EDGE('',*,*,#236,.T.);
#297=ORIENTED_EDGE('',*,*,#237,.F.);
#298=ORIENTED_EDGE('',*,*,#236,.F.);
#299=ORIENTED_EDGE('',*,*,#238,.F.);
#300=ORIENTED_EDGE('',*,*,#239,.F.);
#301=ORIENTED_EDGE('',*,*,#240,.F.);
#302=ORIENTED_EDGE('',*,*,#241,.T.);
#303=ORIENTED_EDGE('',*,*,#242,.F.);
#304=ORIENTED_EDGE('',*,*,#241,.F.);
#305=ORIENTED_EDGE('',*,*,#243,.F.);
#306=ORIENTED_EDGE('',*,*,#244,.T.);
#307=ORIENTED_EDGE('',*,*,#245,.F.);
#308=ORIENTED_EDGE('',*,*,#244,.F.);
#309=ORIENTED_EDGE('',*,*,#246,.F.);
#310=ORIENTED_EDGE('',*,*,#247,.T.);
#311=ORIENTED_EDGE('',*,*,#248,.F.);
#312=ORIENTED_EDGE('',*,*,#247,.F.);
#313=ORIENTED_EDGE('',*,*,#249,.F.);
#314=ORIENTED_EDGE('',*,*,#239,.T.);
#315=ORIENTED_EDGE('',*,*,#250,.F.);
#316=ORIENTED_EDGE('',*,*,#251,.T.);
#317=ORIENTED_EDGE('',*,*,#252,.F.);
#318=ORIENTED_EDGE('',*,*,#251,.F.);
#319=ORIENTED_EDGE('',*,*,#253,.F.);
#320=ORIENTED_EDGE('',*,*,#254,.T.);
#321=ORIENTED_EDGE('',*,*,#255,.F.);
#322=ORIENTED_EDGE('',*,*,#256,.F.);
#323=ORIENTED_EDGE('',*,*,#257,.F.);
#324=ORIENTED_EDGE('',*,*,#256,.T.);
#325=ORIENTED_EDGE('',*,*,#258,.F.);
#326=ORIENTED_EDGE('',*,*,#259,.F.);
#327=ORIENTED_EDGE('',*,*,#260,.F.);
#328=ORIENTED_EDGE('',*,*,#259,.T.);
#329=ORIENTED_EDGE('',*,*,#261,.F.);
#330=ORIENTED_EDGE('',*,*,#262,.F.);
#331=ORIENTED_EDGE('',*,*,#263,.F.);
#332=ORIENTED_EDGE('',*,*,#262,.T.);
#333=ORIENTED_EDGE('',*,*,#264,.F.);
#334=ORIENTED_EDGE('',*,*,#265,.F.);
#335=ORIENTED_EDGE('',*,*,#266,.F.);
#336=ORIENTED_EDGE('',*,*,#265,.T.);
#337=ORIENTED_EDGE('',*,*,#267,.F.);
#338=ORIENTED_EDGE('',*,*,#268,.F.);
#339=ORIENTED_EDGE('',*,*,#269,.F.);
#340=ORIENTED_EDGE('',*,*,#268,.T.);
#341=ORIENTED_EDGE('',*,*,#270,.F.);
#342=ORIENTED_EDGE('',*,*,#254,.F.);
#343=ORIENTED_EDGE('',*,*,#270,.T.);
#344=ORIENTED_EDGE('',*,*,#267,.T.);
#345=ORIENTED_EDGE('',*,*,#264,.T.);
#346=ORIENTED_EDGE('',*,*,#261,.T.);
#347=ORIENTED_EDGE('',*,*,#258,.T.);
#348=ORIENTED_EDGE('',*,*,#255,.T.);
#349=ORIENTED_EDGE('',*,*,#225,.T.);
#350=ORIENTED_EDGE('',*,*,#222,.T.);
#351=ORIENTED_EDGE('',*,*,#219,.T.);
#352=ORIENTED_EDGE('',*,*,#228,.T.);
#353=ORIENTED_EDGE('',*,*,#250,.T.);
#354=ORIENTED_EDGE('',*,*,#246,.T.);
#355=ORIENTED_EDGE('',*,*,#243,.T.);
#356=ORIENTED_EDGE('',*,*,#240,.T.);
#357=ORIENTED_EDGE('',*,*,#249,.T.);
#358=ORIENTED_EDGE('',*,*,#235,.T.);
#359=ORIENTED_EDGE('',*,*,#232,.T.);
#360=ORIENTED_EDGE('',*,*,#229,.T.);
#361=ORIENTED_EDGE('',*,*,#269,.T.);
#362=ORIENTED_EDGE('',*,*,#253,.T.);
#363=ORIENTED_EDGE('',*,*,#257,.T.);
#364=ORIENTED_EDGE('',*,*,#260,.T.);
#365=ORIENTED_EDGE('',*,*,#263,.T.);
#366=ORIENTED_EDGE('',*,*,#266,.T.);
#367=ORIENTED_EDGE('',*,*,#224,.T.);
#368=ORIENTED_EDGE('',*,*,#227,.T.);
#369=ORIENTED_EDGE('',*,*,#217,.T.);
#370=ORIENTED_EDGE('',*,*,#221,.T.);
#371=ORIENTED_EDGE('',*,*,#252,.T.);
#372=ORIENTED_EDGE('',*,*,#245,.T.);
#373=ORIENTED_EDGE('',*,*,#248,.T.);
#374=ORIENTED_EDGE('',*,*,#238,.T.);
#375=ORIENTED_EDGE('',*,*,#242,.T.);
#376=ORIENTED_EDGE('',*,*,#237,.T.);
#377=ORIENTED_EDGE('',*,*,#234,.T.);
#378=ORIENTED_EDGE('',*,*,#231,.T.);
#379=PLANE('',#427);
#380=PLANE('',#428);
#381=PLANE('',#429);
#382=PLANE('',#430);
#383=PLANE('',#440);
#384=PLANE('',#441);
#385=PLANE('',#442);
#386=PLANE('',#443);
#387=PLANE('',#449);
#388=PLANE('',#450);
#389=PLANE('',#453);
#390=PLANE('',#454);
#391=PLANE('',#455);
#392=PLANE('',#456);
#393=ADVANCED_FACE('',(#45),#379,.F.);
#394=ADVANCED_FACE('',(#46),#380,.F.);
#395=ADVANCED_FACE('',(#47),#381,.F.);
#396=ADVANCED_FACE('',(#48),#382,.F.);
#397=ADVANCED_FACE('',(#49),#41,.F.);
#398=ADVANCED_FACE('',(#50),#42,.F.);
#399=ADVANCED_FACE('',(#51),#43,.F.);
#400=ADVANCED_FACE('',(#52),#383,.F.);
#401=ADVANCED_FACE('',(#53),#384,.F.);
#402=ADVANCED_FACE('',(#54),#385,.F.);
#403=ADVANCED_FACE('',(#55),#386,.F.);
#404=ADVANCED_FACE('',(#56),#44,.F.);
#405=ADVANCED_FACE('',(#57),#27,.T.);
#406=ADVANCED_FACE('',(#58),#387,.T.);
#407=ADVANCED_FACE('',(#59),#388,.T.);
#408=ADVANCED_FACE('',(#60),#28,.T.);
#409=ADVANCED_FACE('',(#61),#389,.T.);
#410=ADVANCED_FACE('',(#62),#390,.T.);
#411=ADVANCED_FACE('',(#63,#15,#16,#17,#18,#19,#20),#391,.T.);
#412=ADVANCED_FACE('',(#64,#21,#22,#23,#24,#25,#26),#392,.F.);
#413=CLOSED_SHELL('',(#393,#394,#395,#396,#397,#398,#399,#400,#401,#402,
#403,#404,#405,#406,#407,#408,#409,#410,#411,#412));
#414=DERIVED_UNIT_ELEMENT(#416,1.);
#415=DERIVED_UNIT_ELEMENT(#703,-3.);
#416=(
MASS_UNIT()
NAMED_UNIT(*)
SI_UNIT(.KILO.,.GRAM.)
);
#417=DERIVED_UNIT((#414,#415));
#418=MEASURE_REPRESENTATION_ITEM('density measure',
POSITIVE_RATIO_MEASURE(7850.),#417);
#419=PROPERTY_DEFINITION_REPRESENTATION(#424,#421);
#420=PROPERTY_DEFINITION_REPRESENTATION(#425,#422);
#421=REPRESENTATION('material name',(#423),#700);
#422=REPRESENTATION('density',(#418),#700);
#423=DESCRIPTIVE_REPRESENTATION_ITEM('A\X\E7o','A\X\E7o');
#424=PROPERTY_DEFINITION('material property','material name',#710);
#425=PROPERTY_DEFINITION('material property','density of part',#710);
#426=AXIS2_PLACEMENT_3D('',#561,#457,#458);
#427=AXIS2_PLACEMENT_3D('',#562,#459,#460);
#428=AXIS2_PLACEMENT_3D('',#571,#465,#466);
#429=AXIS2_PLACEMENT_3D('',#577,#470,#471);
#430=AXIS2_PLACEMENT_3D('',#583,#475,#476);
#431=AXIS2_PLACEMENT_3D('',#586,#479,#480);
#432=AXIS2_PLACEMENT_3D('',#588,#481,#482);
#433=AXIS2_PLACEMENT_3D('',#591,#484,#485);
#434=AXIS2_PLACEMENT_3D('',#592,#486,#487);
#435=AXIS2_PLACEMENT_3D('',#594,#488,#489);
#436=AXIS2_PLACEMENT_3D('',#597,#491,#492);
#437=AXIS2_PLACEMENT_3D('',#598,#493,#494);
#438=AXIS2_PLACEMENT_3D('',#600,#495,#496);
#439=AXIS2_PLACEMENT_3D('',#603,#498,#499);
#440=AXIS2_PLACEMENT_3D('',#604,#500,#501);
#441=AXIS2_PLACEMENT_3D('',#613,#506,#507);
#442=AXIS2_PLACEMENT_3D('',#619,#511,#512);
#443=AXIS2_PLACEMENT_3D('',#625,#516,#517);
#444=AXIS2_PLACEMENT_3D('',#628,#520,#521);
#445=AXIS2_PLACEMENT_3D('',#630,#522,#523);
#446=AXIS2_PLACEMENT_3D('',#633,#525,#526);
#447=AXIS2_PLACEMENT_3D('',#650,#527,#528);
#448=AXIS2_PLACEMENT_3D('',#654,#530,#531);
#449=AXIS2_PLACEMENT_3D('',#656,#533,#534);
#450=AXIS2_PLACEMENT_3D('',#662,#538,#539);
#451=AXIS2_PLACEMENT_3D('',#683,#543,#544);
#452=AXIS2_PLACEMENT_3D('',#685,#545,#546);
#453=AXIS2_PLACEMENT_3D('',#687,#548,#549);
#454=AXIS2_PLACEMENT_3D('',#693,#553,#554);
#455=AXIS2_PLACEMENT_3D('',#696,#557,#558);
#456=AXIS2_PLACEMENT_3D('',#697,#559,#560);
#457=DIRECTION('axis',(0.,0.,1.));
#458=DIRECTION('refdir',(1.,0.,0.));
#459=DIRECTION('center_axis',(8.713501274059E-7,-8.48316260402906E-15,-0.999999999999621));
#460=DIRECTION('ref_axis',(0.936289565804952,0.35122905484044,8.15836029473736E-7));
#461=DIRECTION('',(-0.936289565974412,-0.351229054388701,-8.15836029621396E-7));
#462=DIRECTION('',(0.351229054840306,-0.936289565805308,3.06043489626567E-7));
#463=DIRECTION('',(0.936289565974412,0.351229054388701,8.15836029621396E-7));
#464=DIRECTION('',(0.351229054840306,-0.936289565805308,3.06043489626567E-7));
#465=DIRECTION('center_axis',(-0.936289565804952,-0.351229054840439,-8.15836029473736E-7));
#466=DIRECTION('ref_axis',(8.71350127546807E-7,-8.85878662382603E-15,-0.999999999999621));
#467=DIRECTION('',(-8.7135012563191E-7,3.75414785453647E-15,0.99999999999962));
#468=DIRECTION('',(8.7135012563191E-7,-3.75414785453647E-15,-0.99999999999962));
#469=DIRECTION('',(0.351229054840306,-0.936289565805308,3.06043489626567E-7));
#470=DIRECTION('center_axis',(-8.713501274059E-7,8.48316260402906E-15,0.999999999999621));
#471=DIRECTION('ref_axis',(-0.936289565804952,-0.35122905484044,-8.15836029473736E-7));
#472=DIRECTION('',(0.936289565974412,0.351229054388701,8.15836029621396E-7));
#473=DIRECTION('',(-0.936289565974412,-0.351229054388701,-8.15836029621396E-7));
#474=DIRECTION('',(0.351229054840306,-0.936289565805308,3.06043489626567E-7));
#475=DIRECTION('center_axis',(0.936289565804952,0.351229054840439,8.15836029473736E-7));
#476=DIRECTION('ref_axis',(-8.71350127546807E-7,8.85878662382603E-15,0.999999999999621));
#477=DIRECTION('',(8.7135012563191E-7,-3.75414785453647E-15,-0.99999999999962));
#478=DIRECTION('',(-8.7135012563191E-7,3.75414785453647E-15,0.99999999999962));
#479=DIRECTION('center_axis',(0.351229054388567,-0.936289565974768,3.060434842975E-7));
#480=DIRECTION('ref_axis',(-1.07484546218214E-7,2.86547878474498E-7,0.999999999999953));
#481=DIRECTION('center_axis',(0.351229054388567,-0.936289565974768,3.06043484182141E-7));
#482=DIRECTION('ref_axis',(-1.07484546177697E-7,2.86547878366488E-7,0.999999999999953));
#483=DIRECTION('',(0.351229054388567,-0.936289565974768,3.060434842975E-7));
#484=DIRECTION('center_axis',(-0.351229054388567,0.936289565974768,-3.06043484182141E-7));
#485=DIRECTION('ref_axis',(-1.07484546177697E-7,2.86547878366488E-7,0.999999999999953));
#486=DIRECTION('center_axis',(0.351229054388567,-0.936289565974768,3.060434842975E-7));
#487=DIRECTION('ref_axis',(-1.07484546218214E-7,2.86547878474498E-7,0.999999999999953));
#488=DIRECTION('center_axis',(0.351229054388567,-0.936289565974768,3.06043484182141E-7));
#489=DIRECTION('ref_axis',(-1.07484546177697E-7,2.86547878366488E-7,0.999999999999953));
#490=DIRECTION('',(0.351229054388567,-0.936289565974768,3.060434842975E-7));
#491=DIRECTION('center_axis',(-0.351229054388567,0.936289565974768,-3.06043484182141E-7));
#492=DIRECTION('ref_axis',(-1.07484546177697E-7,2.86547878366488E-7,0.999999999999953));
#493=DIRECTION('center_axis',(0.351229054388567,-0.936289565974768,3.060434842975E-7));
#494=DIRECTION('ref_axis',(-1.07484546218214E-7,2.86547878474498E-7,0.999999999999953));
#495=DIRECTION('center_axis',(0.351229054388567,-0.936289565974768,3.06043484182141E-7));
#496=DIRECTION('ref_axis',(-1.07484546177697E-7,2.86547878366488E-7,0.999999999999953));
#497=DIRECTION('',(0.351229054388567,-0.936289565974768,3.060434842975E-7));
#498=DIRECTION('center_axis',(-0.351229054388567,0.936289565974768,-3.06043484182141E-7));
#499=DIRECTION('ref_axis',(-1.07484546177697E-7,2.86547878366488E-7,0.999999999999953));
#500=DIRECTION('center_axis',(-0.936289565974812,-0.351229054388583,7.28126600118607E-12));
#501=DIRECTION('ref_axis',(1.07484546218214E-7,-2.86547878474498E-7,-0.999999999999953));
#502=DIRECTION('',(-1.07484546177697E-7,2.86547878366488E-7,0.999999999999953));
#503=DIRECTION('',(0.351229054388567,-0.936289565974768,3.060434842975E-7));
#504=DIRECTION('',(1.07484546177697E-7,-2.86547878366488E-7,-0.999999999999953));
#505=DIRECTION('',(0.351229054388567,-0.936289565974768,3.060434842975E-7));
#506=DIRECTION('center_axis',(-1.07484546218214E-7,2.86547878474498E-7,
0.999999999999953));
#507=DIRECTION('ref_axis',(-0.936289565974812,-0.351229054388584,7.28126600146731E-12));
#508=DIRECTION('',(0.936289565974812,0.351229054388584,-7.28126600147723E-12));
#509=DIRECTION('',(-0.936289565974812,-0.351229054388584,7.28126600147723E-12));
#510=DIRECTION('',(0.351229054388567,-0.936289565974768,3.060434842975E-7));
#511=DIRECTION('center_axis',(0.936289565974812,0.351229054388583,-7.28126600118607E-12));
#512=DIRECTION('ref_axis',(-1.07484546218214E-7,2.86547878474498E-7,0.999999999999953));
#513=DIRECTION('',(1.07484546177697E-7,-2.86547878366488E-7,-0.999999999999953));
#514=DIRECTION('',(-1.07484546177697E-7,2.86547878366488E-7,0.999999999999953));
#515=DIRECTION('',(0.351229054388567,-0.936289565974768,3.060434842975E-7));
#516=DIRECTION('center_axis',(1.07484546218214E-7,-2.86547878474498E-7,
-0.999999999999953));
#517=DIRECTION('ref_axis',(0.936289565974812,0.351229054388584,-7.28126600146731E-12));
#518=DIRECTION('',(-0.936289565974812,-0.351229054388584,7.28126600147723E-12));
#519=DIRECTION('',(0.936289565974812,0.351229054388584,-7.28126600147723E-12));
#520=DIRECTION('center_axis',(0.351229054388567,-0.936289565974768,3.060434842975E-7));
#521=DIRECTION('ref_axis',(-1.07484546218214E-7,2.86547878474498E-7,0.999999999999953));
#522=DIRECTION('center_axis',(0.351229054388567,-0.936289565974768,3.06043484182141E-7));
#523=DIRECTION('ref_axis',(-1.07484546177697E-7,2.86547878366488E-7,0.999999999999953));
#524=DIRECTION('',(0.351229054388567,-0.936289565974768,3.060434842975E-7));
#525=DIRECTION('center_axis',(-0.351229054388567,0.936289565974768,-3.06043484182141E-7));
#526=DIRECTION('ref_axis',(-1.07484546177697E-7,2.86547878366488E-7,0.999999999999953));
#527=DIRECTION('center_axis',(0.351229054388395,-0.936289565974832,3.06720021707531E-7));
#528=DIRECTION('ref_axis',(0.000420207166897905,0.000157304162384675,-0.999999899340664));
#529=DIRECTION('',(-0.351229054388567,0.936289565974768,-3.060434842975E-7));
#530=DIRECTION('center_axis',(-0.351229054388392,0.936289565974833,-3.06738189985725E-7));
#531=DIRECTION('ref_axis',(-0.000164757972727923,-6.21330487337954E-5,-0.999999984497147));
#532=DIRECTION('',(-0.351229054388567,0.936289565974768,-3.060434842975E-7));
#533=DIRECTION('center_axis',(0.00605201748471388,0.00226995837446443,-0.999979109968475));
#534=DIRECTION('ref_axis',(-0.936270006161512,-0.351221719054729,-0.00646371615739902));
#535=DIRECTION('',(0.936270006161512,0.351221719054729,0.00646371615739902));
#536=DIRECTION('',(-0.936270006161512,-0.351221719054729,-0.00646371615739902));
#537=DIRECTION('',(-0.351229054388567,0.936289565974768,-3.060434842975E-7));
#538=DIRECTION('center_axis',(0.936270006161512,0.351221719054729,0.00646371615739902));
#539=DIRECTION('ref_axis',(0.00605201748471384,0.00226995837446454,-0.999979109968475));
#540=DIRECTION('',(-0.00605201748471385,-0.00226995837446455,0.999979109968475));
#541=DIRECTION('',(0.00605201748471385,0.00226995837446455,-0.999979109968475));
#542=DIRECTION('',(-0.351229054388567,0.936289565974768,-3.060434842975E-7));
#543=DIRECTION('center_axis',(0.351229054388603,-0.936289565974755,3.05922465088499E-7));
#544=DIRECTION('ref_axis',(-0.000420206887404577,-0.000157304909175432,
0.999999899340664));
#545=DIRECTION('center_axis',(-0.351229054388724,0.936289565974709,-3.05000194017356E-7));
#546=DIRECTION('ref_axis',(0.000164758582237185,6.2131421308322E-5,0.999999984497148));
#547=DIRECTION('',(-0.351229054388567,0.936289565974768,-3.060434842975E-7));
#548=DIRECTION('center_axis',(-0.00605201748471388,-0.00226995837446443,
0.999979109968475));
#549=DIRECTION('ref_axis',(0.936270006161512,0.351221719054729,0.00646371615739902));
#550=DIRECTION('',(-0.936270006161512,-0.351221719054729,-0.00646371615739902));
#551=DIRECTION('',(0.936270006161512,0.351221719054729,0.00646371615739902));
#552=DIRECTION('',(-0.351229054388567,0.936289565974768,-3.060434842975E-7));
#553=DIRECTION('center_axis',(-0.936270006161512,-0.351221719054729,-0.00646371615739902));
#554=DIRECTION('ref_axis',(-0.00605201748471384,-0.00226995837446454,0.999979109968475));
#555=DIRECTION('',(0.00605201748471385,0.00226995837446455,-0.999979109968475));
#556=DIRECTION('',(-0.00605201748471385,-0.00226995837446455,0.999979109968475));
#557=DIRECTION('center_axis',(-0.351229054388567,0.936289565974768,-3.06043484182141E-7));
#558=DIRECTION('ref_axis',(-0.00605201748471385,-0.00226995837446454,0.999979109968475));
#559=DIRECTION('center_axis',(-0.351229054388567,0.936289565974768,-3.06043484182141E-7));
#560=DIRECTION('ref_axis',(-0.00605201748471385,-0.00226995837446454,0.999979109968475));
#561=CARTESIAN_POINT('',(0.,0.,0.));
#562=CARTESIAN_POINT('Origin',(-130.791286546063,99.2099667953288,-209.999920103734));
#563=CARTESIAN_POINT('',(-54.131975973573,122.626843263189,-209.999853306634));
#564=CARTESIAN_POINT('',(-129.035141251526,94.5285189120928,-209.999918573517));
#565=CARTESIAN_POINT('',(-110.840007662427,101.354035074205,-209.999902719185));
#566=CARTESIAN_POINT('',(-55.8881212479704,127.308291092738,-209.999854836852));
#567=CARTESIAN_POINT('',(-55.8881212816667,127.308291182564,-209.999854836852));
#568=CARTESIAN_POINT('',(-130.791286525904,99.2099667415899,-209.999920103734));
#569=CARTESIAN_POINT('',(-112.59615293437,106.035482904079,-209.999904249402));
#570=CARTESIAN_POINT('',(-130.791286546063,99.2099667953288,-209.999920103734));
#571=CARTESIAN_POINT('Origin',(-130.791317043317,99.2099667953292,-174.999920103747));
#572=CARTESIAN_POINT('',(-129.03517174878,94.5285189120933,-174.99991857353));
#573=CARTESIAN_POINT('',(-129.035139125629,94.528518912093,-212.43969273997));
#574=CARTESIAN_POINT('',(-130.791317023158,99.2099667415897,-174.999920103747));
#575=CARTESIAN_POINT('',(-130.79128439983,99.20996674112,-212.439694270187));
#576=CARTESIAN_POINT('',(-130.791317043317,99.2099667953292,-174.999920103747));
#577=CARTESIAN_POINT('Origin',(-55.8881517789212,127.308291182564,-174.999854836865));
#578=CARTESIAN_POINT('',(-54.1320064708274,122.626843263189,-174.999853306648));
#579=CARTESIAN_POINT('',(-73.3884555207051,115.403197249754,-174.999870085757));
#580=CARTESIAN_POINT('',(-55.8881517452247,127.308291092738,-174.999854836865));
#581=CARTESIAN_POINT('',(-75.1446007926478,120.084645079627,-174.999871615974));
#582=CARTESIAN_POINT('',(-55.8881517789212,127.308291182564,-174.999854836865));
#583=CARTESIAN_POINT('Origin',(-55.8881212816667,127.308291182564,-209.999854836852));
#584=CARTESIAN_POINT('',(-54.1319585990483,122.626843263189,-229.939627473081));
#585=CARTESIAN_POINT('',(-55.8881038732499,127.308291092216,-229.939629003298));
#586=CARTESIAN_POINT('Origin',(-109.397569443947,107.235345083595,-265.598003891015));
#587=CARTESIAN_POINT('',(-109.397569309591,107.23534472541,-266.848003891015));
#588=CARTESIAN_POINT('Origin',(-109.397569443947,107.235345083595,-265.598003891015));
#589=CARTESIAN_POINT('',(-107.641424037648,102.553896895536,-266.848002360798));
#590=CARTESIAN_POINT('',(-109.397569309591,107.23534472541,-266.848003891015));
#591=CARTESIAN_POINT('Origin',(-107.641424172004,102.553897253721,-265.598002360798));
#592=CARTESIAN_POINT('Origin',(-109.777193443125,107.092947371858,-234.600655480047));
#593=CARTESIAN_POINT('',(-109.777193308769,107.092947013673,-235.850655480047));
#594=CARTESIAN_POINT('Origin',(-109.777193443125,107.092947371858,-234.600655480047));
#595=CARTESIAN_POINT('',(-108.021048036826,102.411499183799,-235.85065394983));
#596=CARTESIAN_POINT('',(-109.777193308769,107.092947013673,-235.850655480047));
#597=CARTESIAN_POINT('Origin',(-108.021048171182,102.411499541984,-234.60065394983));
#598=CARTESIAN_POINT('Origin',(-80.3750755974527,118.122514570713,-265.19255168795));
#599=CARTESIAN_POINT('',(-80.375075463097,118.122514212528,-266.44255168795));
#600=CARTESIAN_POINT('Origin',(-80.3750755974527,118.122514570713,-265.19255168795));
#601=CARTESIAN_POINT('',(-78.6189301911541,113.441066382654,-266.442550157733));
#602=CARTESIAN_POINT('',(-80.375075463097,118.122514212528,-266.44255168795));
#603=CARTESIAN_POINT('Origin',(-78.6189303255098,113.441066740839,-265.192550157733));
#604=CARTESIAN_POINT('Origin',(-107.359853538668,107.999760404243,-236.000016714581));
#605=CARTESIAN_POINT('',(-105.603705257158,103.318304551029,-264.000015601595));
#606=CARTESIAN_POINT('',(-105.603708266726,103.31831257437,-236.000015184364));
#607=CARTESIAN_POINT('',(-105.603707520814,103.318310585811,-242.939725191004));
#608=CARTESIAN_POINT('',(-107.359850529101,107.999752380902,-264.000017131813));
#609=CARTESIAN_POINT('',(-107.359850529101,107.999752380902,-264.000017131813));
#610=CARTESIAN_POINT('',(-107.359853538668,107.999760404243,-236.000016714581));
#611=CARTESIAN_POINT('',(-107.359852792757,107.999758415684,-242.939726721222));
#612=CARTESIAN_POINT('',(-107.359853538668,107.999760404243,-236.000016714581));
#613=CARTESIAN_POINT('Origin',(-83.0163244605764,117.131715954423,-236.000016714771));
#614=CARTESIAN_POINT('',(-81.2601791886336,112.450268124549,-236.000015184553));
#615=CARTESIAN_POINT('',(-86.9525100012384,110.314911669416,-236.000015184509));
#616=CARTESIAN_POINT('',(-83.0163244605764,117.131715954423,-236.000016714771));
#617=CARTESIAN_POINT('',(-88.7086552731813,114.99635949929,-236.000016714727));
#618=CARTESIAN_POINT('',(-83.0163244605764,117.131715954423,-236.000016714771));
#619=CARTESIAN_POINT('Origin',(-83.0163214510091,117.131707931082,-264.000017132002));
#620=CARTESIAN_POINT('',(-81.2601761790663,112.450260101208,-264.000015601785));
#621=CARTESIAN_POINT('',(-81.2601769379383,112.45026212432,-256.939725399809));
#622=CARTESIAN_POINT('',(-83.0163214510091,117.131707931082,-264.000017132002));
#623=CARTESIAN_POINT('',(-83.0163222098812,117.131709954193,-256.939726930027));
#624=CARTESIAN_POINT('',(-83.0163214510091,117.131707931082,-264.000017132002));
#625=CARTESIAN_POINT('Origin',(-107.359850529101,107.999752380902,-264.000017131813));
#626=CARTESIAN_POINT('',(-99.124271530717,105.748925870985,-264.000015601646));
#627=CARTESIAN_POINT('',(-100.88041680266,110.430373700859,-264.000017131863));
#628=CARTESIAN_POINT('Origin',(-80.7546995966309,117.980116858976,-234.195203276982));
#629=CARTESIAN_POINT('',(-80.7546994622753,117.980116500791,-235.445203276982));
#630=CARTESIAN_POINT('Origin',(-80.7546995966309,117.980116858976,-234.195203276982));
#631=CARTESIAN_POINT('',(-78.9985541903325,113.298668670918,-235.445201746765));
#632=CARTESIAN_POINT('',(-80.7546994622752,117.980116500791,-235.445203276982));
#633=CARTESIAN_POINT('Origin',(-78.9985543246881,113.298669029103,-234.195201746765));
#634=CARTESIAN_POINT('Ctrl Pts',(-136.129960431681,91.8670074909372,-336.588619541241));
#635=CARTESIAN_POINT('Ctrl Pts',(-138.237334758013,97.4847448867865,-336.588621377502));
#636=CARTESIAN_POINT('Ctrl Pts',(-136.892341621469,91.5810164533187,-336.588985508424));
#637=CARTESIAN_POINT('Ctrl Pts',(-138.9997159478,97.1987538491681,-336.588987344685));
#638=CARTESIAN_POINT('Ctrl Pts',(-137.655096542242,91.2948852185326,-336.589235144926));
#639=CARTESIAN_POINT('Ctrl Pts',(-139.762470868574,96.912622614382,-336.589236981187));
#640=CARTESIAN_POINT('Ctrl Pts',(-138.418262355989,91.0085998460516,-336.58936885331));
#641=CARTESIAN_POINT('Ctrl Pts',(-140.52563668232,96.626337241901,-336.589370689571));
#642=CARTESIAN_POINT('Ctrl Pts',(-139.332435036452,90.6656674693333,-336.58952901844));
#643=CARTESIAN_POINT('Ctrl Pts',(-141.439809362784,96.2834048651827,-336.589530854701));
#644=CARTESIAN_POINT('Ctrl Pts',(-140.246063900444,90.3229390938168,-336.589522648718));
#645=CARTESIAN_POINT('Ctrl Pts',(-142.353438226776,95.9406764896661,-336.589524484979));
#646=CARTESIAN_POINT('Ctrl Pts',(-141.159283183639,89.980364363851,-336.589351686457));
#647=CARTESIAN_POINT('Ctrl Pts',(-143.266657509971,95.5981017597004,-336.589353522718));
#648=CARTESIAN_POINT('',(-141.159283183639,89.980364363851,-336.589351686457));
#649=CARTESIAN_POINT('',(-136.129960431681,91.8670074909372,-336.588619541241));
#650=CARTESIAN_POINT('Origin',(-139.742752543877,90.5145621214913,8261.05566913802));
#651=CARTESIAN_POINT('',(-142.915428455582,94.6618121937249,-336.589353216674));
#652=CARTESIAN_POINT('',(-141.159283183639,89.980364363851,-336.589351686457));
#653=CARTESIAN_POINT('',(-137.886105703624,96.5484553208111,-336.588621071459));
#654=CARTESIAN_POINT('Origin',(-141.498897869756,95.1960100990813,8261.05566760778));
#655=CARTESIAN_POINT('',(-136.129960431681,91.8670074909372,-336.588619541241));
#656=CARTESIAN_POINT('Origin',(-43.0847257313292,126.770942324102,-335.946264255967));
#657=CARTESIAN_POINT('',(-43.0847257313292,126.770942324102,-335.946264255967));
#658=CARTESIAN_POINT('',(-141.159077487543,89.9804415152429,-336.623338997122));
#659=CARTESIAN_POINT('',(-44.840871003272,131.452390153976,-335.946265786184));
#660=CARTESIAN_POINT('',(-142.915222759486,94.6618893451168,-336.623340527339));
#661=CARTESIAN_POINT('',(-43.0847257313292,126.770942324102,-335.946264255967));
#662=CARTESIAN_POINT('Origin',(-44.1303954604048,126.378738110477,-163.169518709039));
#663=CARTESIAN_POINT('',(-44.130395460265,126.378738110104,-163.169518709034));
#664=CARTESIAN_POINT('',(-43.0847257313292,126.770942324102,-335.946264255967));
#665=CARTESIAN_POINT('',(-45.8865407320866,131.060185939655,-163.169520239256));
#666=CARTESIAN_POINT('',(-44.840871003272,131.452390153976,-335.946265786184));
#667=CARTESIAN_POINT('',(-44.1303954604048,126.378738110477,-163.169518709039));
#668=CARTESIAN_POINT('Ctrl Pts',(-49.1597182123607,124.492094983391,-163.170250854254));
#669=CARTESIAN_POINT('Ctrl Pts',(-50.9158634843035,129.173542813265,-163.170252384472));
#670=CARTESIAN_POINT('Ctrl Pts',(-48.397337022574,124.778086021009,-163.169884887072));
#671=CARTESIAN_POINT('Ctrl Pts',(-50.1534822945169,129.459533850883,-163.169886417289));
#672=CARTESIAN_POINT('Ctrl Pts',(-47.6345821018012,125.064217255795,-163.169635250569));
#673=CARTESIAN_POINT('Ctrl Pts',(-49.390727373744,129.745665085669,-163.169636780787));
#674=CARTESIAN_POINT('Ctrl Pts',(-46.8714162880555,125.350502628275,-163.169501542185));
#675=CARTESIAN_POINT('Ctrl Pts',(-48.6275615599984,130.031950458149,-163.169503072403));
#676=CARTESIAN_POINT('Ctrl Pts',(-45.9572436075916,125.693435004994,-163.169341377055));
#677=CARTESIAN_POINT('Ctrl Pts',(-47.7133888795345,130.374882834867,-163.169342907273));
#678=CARTESIAN_POINT('Ctrl Pts',(-45.0436147436004,126.036163380511,-163.169347746778));
#679=CARTESIAN_POINT('Ctrl Pts',(-46.7997600155431,130.717611210385,-163.169349276995));
#680=CARTESIAN_POINT('Ctrl Pts',(-44.1303954604048,126.378738110477,-163.169518709039));
#681=CARTESIAN_POINT('Ctrl Pts',(-45.8865407323476,131.060185940351,-163.169520239256));
#682=CARTESIAN_POINT('',(-49.1597182122211,124.492094983019,-163.170250854254));
#683=CARTESIAN_POINT('Origin',(-45.5469285026924,125.84454677365,-8760.81454061995));
#684=CARTESIAN_POINT('',(-50.9158634840426,129.173542812569,-163.170252384477));
#685=CARTESIAN_POINT('Origin',(-47.3030765586965,130.526002026954,-8760.81454214954));
#686=CARTESIAN_POINT('',(-49.1597182123607,124.492094983391,-163.170250854254));
#687=CARTESIAN_POINT('Origin',(-142.204952912715,89.5881601502248,-163.812606139529));
#688=CARTESIAN_POINT('',(-142.204952912715,89.5881601502248,-163.812606139529));
#689=CARTESIAN_POINT('',(-44.1306011565002,126.378660959085,-163.135531398374));
#690=CARTESIAN_POINT('',(-143.961098184658,94.2696079800987,-163.812607669746));
#691=CARTESIAN_POINT('',(-45.886746428443,131.060108788958,-163.135532928591));
#692=CARTESIAN_POINT('',(-142.204952912715,89.5881601502248,-163.812606139529));
#693=CARTESIAN_POINT('Origin',(-141.159283183639,89.980364363851,-336.589351686457));
#694=CARTESIAN_POINT('',(-142.204952912715,89.5881601502248,-163.812606139529));
#695=CARTESIAN_POINT('',(-143.961098184658,94.2696079800987,-163.812607669746));
#696=CARTESIAN_POINT('Origin',(-94.4009845939629,112.860999067038,-249.879436727963));
#697=CARTESIAN_POINT('Origin',(-92.64483932202,108.179551237164,-249.879435197746));
#698=UNCERTAINTY_MEASURE_WITH_UNIT(LENGTH_MEASURE(0.01),#702,
'DISTANCE_ACCURACY_VALUE',
'Maximum model space distance between geometric entities at asserted c
onnectivities');
#699=UNCERTAINTY_MEASURE_WITH_UNIT(LENGTH_MEASURE(0.01),#702,
'DISTANCE_ACCURACY_VALUE',
'Maximum model space distance between geometric entities at asserted c
onnectivities');
#700=(
GEOMETRIC_REPRESENTATION_CONTEXT(3)
GLOBAL_UNCERTAINTY_ASSIGNED_CONTEXT((#698))
GLOBAL_UNIT_ASSIGNED_CONTEXT((#702,#704,#705))
REPRESENTATION_CONTEXT('','3D')
);
#701=(
GEOMETRIC_REPRESENTATION_CONTEXT(3)
GLOBAL_UNCERTAINTY_ASSIGNED_CONTEXT((#699))
GLOBAL_UNIT_ASSIGNED_CONTEXT((#702,#704,#705))
REPRESENTATION_CONTEXT('','3D')
);
#702=(
LENGTH_UNIT()
NAMED_UNIT(*)
SI_UNIT(.MILLI.,.METRE.)
);
#703=(
LENGTH_UNIT()
NAMED_UNIT(*)
SI_UNIT($,.METRE.)
);
#704=(
NAMED_UNIT(*)
PLANE_ANGLE_UNIT()
SI_UNIT($,.RADIAN.)
);
#705=(
NAMED_UNIT(*)
SI_UNIT($,.STERADIAN.)
SOLID_ANGLE_UNIT()
);
#706=SHAPE_DEFINITION_REPRESENTATION(#707,#708);
#707=PRODUCT_DEFINITION_SHAPE('',$,#710);
#708=SHAPE_REPRESENTATION('',(#426),#700);
#709=PRODUCT_DEFINITION_CONTEXT('part definition',#714,'design');
#710=PRODUCT_DEFINITION('2026-06-22-01-02-20-689','Tampa_Funil (1)',#711,
#709);
#711=PRODUCT_DEFINITION_FORMATION('',$,#716);
#712=PRODUCT_RELATED_PRODUCT_CATEGORY('Tampa_Funil (1)',
'Tampa_Funil (1)',(#716));
#713=APPLICATION_PROTOCOL_DEFINITION('international standard',
'automotive_design',2009,#714);
#714=APPLICATION_CONTEXT(
'Core Data for Automotive Mechanical Design Process');
#715=PRODUCT_CONTEXT('part definition',#714,'mechanical');
#716=PRODUCT('2026-06-22-01-02-20-689','Tampa_Funil (1)',$,(#715));
#717=PRESENTATION_STYLE_ASSIGNMENT((#719));
#718=PRESENTATION_STYLE_ASSIGNMENT((#720));
#719=SURFACE_STYLE_USAGE(.BOTH.,#721);
#720=SURFACE_STYLE_USAGE(.BOTH.,#722);
#721=SURFACE_SIDE_STYLE('',(#723));
#722=SURFACE_SIDE_STYLE('',(#724));
#723=SURFACE_STYLE_FILL_AREA(#725);
#724=SURFACE_STYLE_FILL_AREA(#726);
#725=FILL_AREA_STYLE('A\X\E7o - Acetinado',(#727));
#726=FILL_AREA_STYLE('Opaque(160,160,160)',(#728));
#727=FILL_AREA_STYLE_COLOUR('A\X\E7o - Acetinado',#729);
#728=FILL_AREA_STYLE_COLOUR('Opaque(160,160,160)',#730);
#729=COLOUR_RGB('A\X\E7o - Acetinado',0.627450980392157,0.627450980392157,
0.627450980392157);
#730=COLOUR_RGB('Opaque(160,160,160)',0.627450980392157,0.627450980392157,
0.627450980392157);
ENDSEC;
END-ISO-10303-21;
